<svg width="110" height="44" viewBox="0 0 110 44" fill="none" xmlns="http://www.w3.org/2000/svg">
<path d="M69.5134 23.3272C64.5347 23.4899 61.4234 24.3823 61.4234 27.6839C61.4234 29.8228 63.1293 32.1219 67.4308 32.1219C73.1942 32.1219 76.2793 28.983 76.2793 23.8154V23.2472L69.5147 23.3285L69.5134 23.3272ZM81.7985 30.1456L81.9875 34.745H76.8737C76.7385 33.5811 76.6847 32.4184 76.6847 31.2807C73.9251 34.6899 70.6222 35.6636 66.0503 35.6636C59.2858 35.6636 55.66 32.0917 55.66 27.9516C55.66 21.9441 60.5849 19.834 69.1761 19.6451C71.5158 19.5926 74.1403 19.5926 76.3055 19.5926V18.9968C76.3055 14.9919 73.7335 13.3542 69.2719 13.3542C65.9703 13.3542 63.5085 14.7347 63.2645 17.0888H57.4749C58.0969 11.1903 64.2933 9.70093 69.7312 9.70093C76.2924 9.70093 81.7723 12.0275 81.7723 18.9286V30.1574L81.7985 30.1456Z" fill="#F5AF02"/>
<path d="M21.917 20.4056C21.7005 15.2642 17.9803 13.3431 14.0173 13.3431C9.74207 13.3431 6.30532 15.5083 5.71087 20.4056H21.917ZM5.60195 24.0588C5.89983 29.065 9.33659 32.0136 14.0712 32.0136C17.3452 32.0136 20.2675 30.7014 21.2412 27.7659H26.9232C25.8144 33.6644 19.5353 35.6656 14.1512 35.6656C4.32908 35.6656 0 30.2539 0 22.9762C0 14.9401 4.4918 9.66357 14.2601 9.66357C22.0259 9.66357 27.708 13.7223 27.708 22.5983V24.0602L5.60195 24.0588Z" fill="#E53238"/>
<path d="M41.8066 31.9045C46.9204 31.9045 50.411 28.225 50.411 22.6768C50.411 17.1287 46.9204 13.4491 41.8066 13.4491C36.7191 13.4491 33.2023 17.1287 33.2023 22.6768C33.2023 28.225 36.7191 31.9045 41.8066 31.9045ZM27.7066 0H33.1984V13.8271C35.9042 10.6068 39.6113 9.68695 43.2632 9.68695C49.4045 9.68695 56.198 13.8271 56.198 22.7569C56.198 30.2366 50.7863 35.6916 43.1543 35.6916C39.1494 35.6916 35.416 34.2573 33.0894 31.4163C33.0894 32.5527 33.037 33.6891 32.9005 34.7717H27.4901L27.6791 29.0897V0H27.7066Z" fill="#0064D2"/>
<path d="M109.804 10.5825L92.7834 44H86.6158L91.5131 34.7185L78.7148 10.5825H85.1553L94.572 29.442L103.961 10.5825H109.804Z" fill="#86B817"/>
</svg>
