<?xml version="1.0" encoding="utf-8"?>
<!-- Generator: Adobe Illustrator 26.3.1, SVG Export Plug-In . SVG Version: 6.00 Build 0)  -->
<svg version="1.1" id="Layer_1" xmlns="http://www.w3.org/2000/svg" xmlns:xlink="http://www.w3.org/1999/xlink" x="0px" y="0px"
	 viewBox="0 0 57.3 16.9" style="enable-background:new 0 0 57.3 16.9;" xml:space="preserve">
<style type="text/css">
	.st0{fill:#FFFFFF;}
	.st1{fill:#09C5D6;}
</style>
<path class="st0" d="M22.8,14.2c-0.5,0-0.9-0.1-1.4-0.2c-0.5-0.1-0.8-0.3-1.1-0.6l0.5-1.1c0.2,0.1,0.4,0.2,0.6,0.3s0.4,0.2,0.7,0.2
	s0.5,0.1,0.7,0.1c0.4,0,0.8-0.1,1.1-0.2c0.3-0.1,0.5-0.3,0.6-0.6c0.1-0.3,0.2-0.6,0.2-1V9.9l0.2,0.1c0,0.2-0.2,0.5-0.4,0.7
	c-0.2,0.2-0.5,0.4-0.8,0.5s-0.7,0.2-1,0.2c-0.6,0-1.1-0.1-1.6-0.4s-0.8-0.7-1.1-1.1c-0.3-0.5-0.4-1-0.4-1.7c0-0.6,0.1-1.2,0.4-1.7
	C20.2,6,20.6,5.7,21,5.4c0.5-0.3,1-0.4,1.6-0.4c0.2,0,0.5,0,0.7,0.1c0.2,0.1,0.4,0.1,0.6,0.2c0.2,0.1,0.4,0.2,0.5,0.3
	c0.2,0.1,0.3,0.3,0.4,0.4c0.1,0.1,0.2,0.3,0.2,0.4l-0.3,0.1l0-1.5h1.5V11c0,0.5-0.1,1-0.2,1.4c-0.2,0.4-0.4,0.7-0.7,1
	c-0.3,0.3-0.6,0.5-1,0.6C23.8,14.1,23.3,14.2,22.8,14.2z M22.9,10.2c0.4,0,0.7-0.1,1-0.3c0.3-0.2,0.5-0.4,0.6-0.7
	c0.2-0.3,0.2-0.6,0.2-1c0-0.4-0.1-0.7-0.2-1c-0.2-0.3-0.4-0.5-0.6-0.7c-0.3-0.2-0.6-0.3-0.9-0.3c-0.4,0-0.7,0.1-0.9,0.3
	c-0.3,0.2-0.5,0.4-0.6,0.7c-0.2,0.3-0.2,0.6-0.2,1c0,0.4,0.1,0.7,0.2,1c0.2,0.3,0.4,0.5,0.6,0.7C22.2,10.1,22.5,10.2,22.9,10.2z"/>
<path class="st0" d="M30.3,11.5c-0.6,0-1.2-0.1-1.7-0.4c-0.5-0.3-0.9-0.7-1.2-1.2S27,8.9,27,8.2s0.1-1.2,0.4-1.7s0.7-0.9,1.2-1.2
	c0.5-0.3,1.1-0.4,1.7-0.4c0.6,0,1.2,0.1,1.7,0.4c0.5,0.3,0.9,0.7,1.2,1.2c0.3,0.5,0.4,1.1,0.4,1.7s-0.1,1.2-0.4,1.7
	c-0.3,0.5-0.7,0.9-1.2,1.2C31.5,11.4,30.9,11.5,30.3,11.5z M30.3,10.2c0.3,0,0.7-0.1,0.9-0.3c0.3-0.2,0.5-0.4,0.6-0.7
	c0.2-0.3,0.2-0.6,0.2-1c0-0.4-0.1-0.7-0.2-1c-0.2-0.3-0.4-0.5-0.6-0.7c-0.3-0.2-0.6-0.3-0.9-0.3s-0.7,0.1-0.9,0.3
	c-0.3,0.2-0.5,0.4-0.6,0.7c-0.2,0.3-0.2,0.6-0.2,1s0.1,0.7,0.2,1c0.2,0.3,0.4,0.5,0.6,0.7C29.6,10.1,29.9,10.2,30.3,10.2z"/>
<path class="st0" d="M37.4,14.2c-0.5,0-0.9-0.1-1.3-0.2s-0.7-0.3-1-0.5l0.3-0.6c0.2,0.1,0.3,0.3,0.6,0.4s0.4,0.2,0.7,0.3
	s0.5,0.1,0.8,0.1c0.5,0,0.9-0.1,1.2-0.3c0.4-0.2,0.6-0.5,0.8-0.9c0.2-0.4,0.3-0.9,0.3-1.4V9.8L40,9.6c-0.1,0.4-0.3,0.7-0.5,1
	s-0.6,0.5-0.9,0.7s-0.8,0.3-1.2,0.3c-0.6,0-1.1-0.1-1.5-0.4c-0.4-0.3-0.8-0.7-1.1-1.2c-0.3-0.5-0.4-1-0.4-1.7c0-0.6,0.1-1.2,0.4-1.7
	c0.3-0.5,0.6-0.9,1.1-1.2C36.3,5.2,36.8,5,37.3,5c0.3,0,0.5,0,0.7,0.1c0.2,0.1,0.5,0.2,0.7,0.3c0.2,0.1,0.4,0.2,0.6,0.4
	s0.3,0.3,0.4,0.5c0.1,0.2,0.2,0.4,0.3,0.6l-0.2-0.2l0.1-1.6h0.6V11c0,0.5-0.1,1-0.2,1.3c-0.1,0.4-0.3,0.7-0.6,1
	c-0.3,0.3-0.6,0.5-0.9,0.6C38.3,14.1,37.9,14.2,37.4,14.2z M37.4,10.9c0.5,0,0.9-0.1,1.2-0.3c0.4-0.2,0.7-0.5,0.9-0.9
	s0.3-0.9,0.3-1.4c0-0.5-0.1-1-0.3-1.4S39,6.2,38.7,6c-0.4-0.2-0.8-0.3-1.2-0.3c-0.5,0-0.9,0.1-1.3,0.3c-0.4,0.2-0.7,0.5-0.9,0.9
	S35,7.8,35,8.3c0,0.5,0.1,1,0.3,1.4s0.5,0.7,0.9,0.9C36.5,10.8,36.9,10.9,37.4,10.9z"/>
<path class="st0" d="M44.6,11.5c-0.6,0-1.1-0.1-1.6-0.4c-0.5-0.3-0.8-0.7-1.1-1.1c-0.3-0.5-0.4-1.1-0.4-1.7c0-0.5,0.1-0.9,0.2-1.3
	c0.1-0.4,0.4-0.7,0.6-1c0.3-0.3,0.6-0.5,1-0.7S44.1,5,44.5,5c0.4,0,0.8,0.1,1.2,0.2c0.3,0.1,0.6,0.3,0.9,0.6s0.4,0.6,0.5,0.9
	c0.1,0.4,0.2,0.8,0.2,1.2l0,0.3h-5.3V7.8h5L46.6,8V7.7c0-0.3-0.1-0.6-0.2-1C46.3,6.4,46,6.2,45.7,6c-0.3-0.2-0.7-0.3-1.2-0.3
	c-0.5,0-0.9,0.1-1.2,0.3c-0.4,0.2-0.6,0.5-0.8,0.9c-0.2,0.4-0.3,0.9-0.3,1.4c0,0.5,0.1,1,0.3,1.4c0.2,0.4,0.5,0.7,0.9,0.9
	c0.4,0.2,0.8,0.3,1.4,0.3c0.3,0,0.6,0,0.9-0.1s0.7-0.3,1.1-0.6l0.3,0.4c-0.2,0.2-0.4,0.3-0.6,0.5c-0.2,0.1-0.5,0.3-0.8,0.3
	C45.2,11.5,44.9,11.5,44.6,11.5z"/>
<path class="st0" d="M47.5,5.7V5.2h3.8v0.6H47.5z M49,11.4V3.5h0.6v7.9H49z"/>
<path class="st0" d="M54.3,11.5c-0.6,0-1.1-0.1-1.5-0.4c-0.4-0.3-0.8-0.7-1.1-1.2c-0.3-0.5-0.4-1-0.4-1.7c0-0.6,0.1-1.2,0.4-1.7
	c0.3-0.5,0.6-0.9,1.1-1.2C53.2,5.2,53.7,5,54.3,5c0.3,0,0.6,0,0.9,0.1c0.3,0.1,0.5,0.2,0.8,0.4c0.2,0.2,0.4,0.4,0.6,0.6
	c0.2,0.2,0.3,0.5,0.4,0.8l-0.2-0.2l0.1-1.6h0.6v6.2h-0.6V9.8l0.2-0.2c-0.1,0.3-0.2,0.5-0.4,0.7S56.2,10.8,56,11
	c-0.2,0.2-0.5,0.3-0.8,0.4C54.9,11.5,54.6,11.5,54.3,11.5z M54.3,10.9c0.5,0,0.9-0.1,1.2-0.3c0.4-0.2,0.7-0.5,0.9-0.9
	s0.3-0.9,0.3-1.4c0-0.5-0.1-1-0.3-1.4S56,6.2,55.6,6c-0.4-0.2-0.8-0.3-1.2-0.3c-0.5,0-0.9,0.1-1.3,0.3c-0.4,0.2-0.7,0.5-0.9,0.9
	s-0.3,0.9-0.3,1.4c0,0.5,0.1,1,0.3,1.4s0.5,0.7,0.9,0.9C53.4,10.8,53.9,10.9,54.3,10.9z"/>
<g>
	<polygon class="st1" points="7.2,3.8 8.1,6.6 10.5,3.9 10.5,3.8 	"/>
	<path class="st1" d="M6.4,5c0.6,0.4,1,1,1.1,1.7l0.3,0L6.9,4.1L6.4,5z"/>
	<path class="st1" d="M5.4,7.1c-0.1,0-0.2,0-0.2-0.1c0-0.1,0-0.2,0-0.3l0.7-1.2C5.7,5.4,5.5,5.3,5.3,5.3C4.4,5.3,3.7,6,3.7,6.9
		s0.7,1.6,1.6,1.6c0.8,0,1.5-0.6,1.5-1.4L5.4,7.1C5.4,7.1,5.4,7.1,5.4,7.1z"/>
	<path class="st1" d="M6.1,5.6L5.5,6.8l1.4,0C6.8,6.3,6.5,5.8,6.1,5.6z"/>
	<path class="st1" d="M11.6,5.3c-0.1,0-0.2,0-0.3,0l0.4,1.5c0,0.1,0,0.2-0.1,0.2c0,0,0,0,0,0c-0.1,0-0.1,0-0.2-0.1L11,5.5
		c-0.6,0.2-1,0.8-1,1.4c0,0.9,0.7,1.6,1.6,1.6s1.6-0.7,1.6-1.6S12.5,5.3,11.6,5.3z"/>
	<path class="st1" d="M8.4,0C3.8,0,0,3.8,0,8.4s3.8,8.4,8.4,8.4c4.7,0,8.4-3.8,8.4-8.4S13.1,0,8.4,0z M13.4,10.8
		c-0.9,1.9-2.8,3.1-4.9,3.1s-4-1.2-4.9-3.1c-0.1-0.2,0-0.5,0.2-0.6c0.2-0.1,0.5,0,0.6,0.2C5.1,12,6.7,13,8.5,13s3.4-1,4.1-2.6
		c0.1-0.2,0.4-0.3,0.6-0.2C13.4,10.4,13.5,10.6,13.4,10.8z M11.6,9.1c-1.2,0-2.2-1-2.2-2.2c0-0.9,0.6-1.8,1.4-2.1l-0.2-0.6L8.2,6.9
		C8.1,7,8,7.1,7.9,7.1l-0.4,0c-0.1,1.1-1,2-2.2,2c-1.2,0-2.2-1-2.2-2.2s1-2.2,2.2-2.2c0.3,0,0.6,0.1,0.9,0.2l0.6-1.1L6.4,2.7H5.9
		c-0.1,0-0.2-0.1-0.2-0.2s0.1-0.2,0.2-0.2h1.5c0.1,0,0.2,0.1,0.2,0.2S7.5,2.7,7.4,2.7H6.8l0.3,0.9h3.4l-0.3-1h1.5
		c0.4,0,0.7,0.3,0.7,0.7C12.4,3.7,12,4,11.6,4h-0.3c-0.1,0-0.2-0.1-0.2-0.2c0-0.1,0.1-0.2,0.2-0.2h0.3c0.2,0,0.4-0.2,0.4-0.4
		c0-0.2-0.2-0.4-0.4-0.4h-1.1l0.2,0.6h0l0.1,0.4l0,0l0.2,0.8c0.2,0,0.3-0.1,0.5-0.1c1.2,0,2.2,1,2.2,2.2S12.8,9.1,11.6,9.1z"/>
</g>
</svg>
