<?xml version="1.0" encoding="utf-8"?>
<!-- Generator: Adobe Illustrator 26.2.1, SVG Export Plug-In . SVG Version: 6.00 Build 0)  -->
<svg version="1.1" id="Layer_1" xmlns="http://www.w3.org/2000/svg" xmlns:xlink="http://www.w3.org/1999/xlink" x="0px" y="0px"
	 viewBox="0 0 368.4 109.2" style="enable-background:new 0 0 368.4 109.2;" xml:space="preserve">
<style type="text/css">
	.st0{fill:#00BBD2;}
</style>
<g>
	<path d="M157.49,37.96c-0.48-0.58-1.04-1.14-1.69-1.66c-1-0.8-2.1-1.5-3.3-2.2c-1.2-0.7-2.6-1.2-4-1.6c-1.5-0.3-2.9-0.5-4.5-0.5
		c-3.7,0-7,1-10,2.8c-3,1.8-5.3,4.3-7,7.5c-1.7,3.2-2.6,6.8-2.6,10.9s0.9,7.7,2.6,10.8c1.7,3.1,4,5.6,7,7.4c3,1.8,6.4,2.7,10.3,2.7
		c2.2,0,4.4-0.5,6.5-1.4c2.1-0.9,3.9-2.1,5.3-3.5c0.46-0.5,0.85-0.99,1.2-1.49v3.89c0,2.6-0.5,4.8-1.4,6.5c-0.9,1.8-2.3,3-4.1,3.9
		c-1.9,0.9-4.2,1.3-6.9,1.3c-1.5,0-3-0.2-4.5-0.5s-3-0.7-4.3-1.3c-1.3-0.6-2.5-1.2-3.6-2l-3.4,7c1.8,1.5,4.3,2.7,7.3,3.6
		c3,0.9,6.1,1.4,9.1,1.4c3.4,0,6.4-0.4,9-1.5c2.6-0.9,4.8-2.2,6.7-4c1.9-1.8,3.3-4,4.3-6.5c1-2.6,1.5-5.5,1.5-8.8v-38h-9.4
		L157.49,37.96z M152.1,64.4c-1.8,1.1-3.9,1.6-6.2,1.6s-4.4-0.6-6-1.6c-1.7-1.1-3.1-2.6-4.1-4.5c-1-1.9-1.5-4.1-1.5-6.5
		c0-2.5,0.5-4.7,1.5-6.6c1-2,2.3-3.5,4.1-4.6c1.7-1.1,3.8-1.7,6.1-1.7s4.3,0.5,6.1,1.6c1.7,1.1,3.1,2.6,4.1,4.5
		c1,1.9,1.5,4.2,1.5,6.7s-0.5,4.7-1.5,6.6C155.3,61.8,153.9,63.3,152.1,64.4z"/>
	<path d="M204.7,34.8c-3.2-1.9-6.8-2.8-10.8-2.8c-4.1,0-7.7,1-10.9,2.8c-3.2,1.9-5.7,4.4-7.6,7.6c-1.9,3.2-2.8,6.8-2.8,10.9
		s0.9,7.7,2.8,10.9c1.9,3.2,4.4,5.8,7.6,7.6s6.8,2.7,10.9,2.7c4.1,0,7.7-0.9,10.8-2.7c3.2-1.9,5.8-4.4,7.6-7.6
		c1.8-3.2,2.7-6.8,2.7-10.9s-0.9-7.7-2.7-10.9C210.4,39.2,207.9,36.6,204.7,34.8z M203.9,59.7c-1,1.9-2.4,3.5-4.1,4.6
		s-3.7,1.7-5.9,1.7c-2.2,0-4.2-0.5-6-1.7c-1.7-1.2-3.1-2.7-4.1-4.6c-1-1.9-1.5-4.1-1.5-6.5c0-2.4,0.5-4.6,1.5-6.5
		c0.9-2,2.3-3.5,4.1-4.6c1.8-1.1,3.8-1.7,6-1.7c2.2,0,4.2,0.6,5.9,1.7c1.7,1.1,3.1,2.6,4.1,4.5c1,1.9,1.5,4.1,1.4,6.6
		C205.4,55.6,204.9,57.8,203.9,59.7z"/>
	<path d="M255.19,41.74c-0.1-0.18-0.19-0.37-0.29-0.54c-0.7-1.2-1.6-2.4-2.7-3.4c-1.1-1-2.3-1.9-3.6-2.6c-1.4-0.7-2.8-1.3-4.3-1.7
		c-1.6-0.4-3.1-0.6-4.8-0.6c-3.6,0-6.8,0.9-9.7,2.7c-2.9,1.8-5.2,4.2-6.9,7.4c-1.7,3.1-2.6,6.7-2.6,10.8c0,4.1,0.8,7.7,2.5,10.8
		c1.7,3.1,4,5.6,6.9,7.4c2.9,1.8,6.1,2.7,9.8,2.7c2.7,0,5.2-0.5,7.6-1.6c2.3-1.1,4.3-2.5,6-4.4c1-1.12,1.77-2.32,2.4-3.57V71
		c0,3.7-0.6,6.8-1.8,9.3c-1.2,2.4-2.9,4.3-5.2,5.6c-2.3,1.3-5,1.9-8.1,1.9c-1.8,0-3.6-0.2-5.2-0.6c-1.7-0.4-3.2-1-4.5-1.7
		c-1.4-0.7-2.6-1.5-3.6-2.4l-1.8,3.6c1.8,1.3,3.9,2.4,6.4,3.4c2.5,0.9,5.3,1.4,8.4,1.4c2.8,0,5.3-0.4,7.8-1.1
		c2.3-0.8,4.4-2.2,6.1-3.9c1.7-1.8,3.1-3.9,4-6.4c0.9-2.5,1.4-5.3,1.4-8.6V33.7h-3.9L255.19,41.74z M253.4,62.4
		c-1.4,2.5-3.2,4.5-5.6,6c-2.3,1.5-5,2.2-7.9,2.2c-3.1,0-5.8-0.7-8-2.2c-2.4-1.5-4.2-3.5-5.5-6.1s-2-5.5-2-8.8s0.7-6.2,2-8.8
		c1.3-2.5,3.1-4.5,5.5-6c2.4-1.5,5-2.2,8.1-2.2c3,0,5.7,0.7,8,2.2c2.3,1.4,4.2,3.4,5.5,6c1.3,2.6,2,5.5,2,8.8
		C255.5,56.9,254.8,59.8,253.4,62.4z"/>
	<path d="M298.9,37.9c-1.6-1.7-3.5-3.1-5.7-4c-2.3-0.9-4.8-1.4-7.6-1.4c-2.9,0-5.5,0.6-7.9,1.6c-2.4,1.1-4.5,2.5-6.2,4.4
		s-3,4.1-4,6.6c-0.9,2.6-1.4,5.4-1.4,8.4c0,4.2,0.9,7.9,2.6,11c1.7,3.2,4.1,5.6,7.1,7.4c3,1.7,6.4,2.6,10.3,2.6
		c2.3,0,4.3-0.3,6.2-0.9c1.9-0.6,3.6-1.3,5.2-2.2c1.5-0.9,2.9-1.9,4-3l-2-2.9c-2.5,2-4.8,3.4-6.8,4s-4,0.9-5.9,0.9
		c-3.5,0-6.5-0.7-9-2.1c-2.4-1.4-4.3-3.4-5.6-6c-1.2-2.4-1.8-5.23-1.88-8.4h32.98l0.1-2.1c0.1-2.9-0.2-5.5-1-7.8
		S300.5,39.6,298.9,37.9z M272.3,43.9c1.3-2.5,3.1-4.4,5.4-5.7s5-1.9,7.9-1.9c3.1,0,5.7,0.7,7.8,2.1c2.1,1.4,3.6,3.1,4.6,5.2
		c1,2.1,1.5,4.1,1.5,6.2v0.5h-29.04C270.73,47.87,271.35,45.73,272.3,43.9z"/>
	<polygon points="318.7,22.7 314.8,22.7 314.8,33.4 305.1,33.4 305.1,37 314.8,37 314.8,73.7 314.8,73.8 318.7,73.8 318.7,37 
		329.5,37 329.5,33.4 318.7,33.4 	"/>
	<path d="M364.7,33.5l-0.3,7.98c-0.27-0.47-0.57-0.93-0.9-1.38c-1.1-1.5-2.4-2.8-3.9-3.9c-1.5-1.1-3.1-2-5-2.6
		c-1.9-0.6-3.8-0.9-5.9-0.9c-3.6,0-6.8,0.9-9.7,2.7c-2.9,1.8-5.2,4.2-6.9,7.4c-1.7,3.1-2.6,6.7-2.6,10.8c0,4.1,0.8,7.7,2.5,10.8
		c1.7,3.1,4,5.6,6.9,7.4c2.9,1.8,6.1,2.7,9.8,2.7c2,0,4-0.3,5.9-1c1.8-0.6,3.5-1.5,5-2.6c1.5-1.1,2.8-2.4,3.9-3.9
		c0.38-0.52,0.7-1.06,1-1.61v8.41h3.9V33.5H364.7z M362.7,62.4c-1.4,2.5-3.2,4.5-5.6,6c-2.3,1.5-5,2.2-7.9,2.2c-3.1,0-5.8-0.7-8-2.2
		c-2.4-1.5-4.2-3.5-5.5-6.1s-2-5.5-2-8.8s0.7-6.2,2-8.8c1.3-2.5,3.1-4.5,5.5-6c2.4-1.5,5-2.2,8.1-2.2c3,0,5.7,0.7,8,2.2
		c2.3,1.4,4.2,3.4,5.5,6c1.3,2.6,2,5.5,2,8.8C364.8,56.9,364.1,59.8,362.7,62.4z"/>
</g>
<g>
	<polygon class="st0" points="47.3,25.7 53.5,42.2 67.7,23.7 67.6,23.3 	"/>
	<path class="st0" d="M42.3,32.2c3.4,2.4,5.7,6.4,5.9,10.8l3.7,0.1l-6.1-16.2L42.3,32.2z"/>
	<path class="st0" d="M39.7,36.2l-4.2,6.5l7.9,0.2C43.2,40.2,41.8,37.8,39.7,36.2z"/>
	<path class="st0" d="M34.9,44.6c-0.6,0-1.1-0.3-1.4-0.8s-0.3-1.1,0-1.6l4.6-7c-1.1-0.5-2.4-0.8-3.7-0.8c-5,0-9.1,4.1-9.1,9.1
		s4.1,9.1,9.1,9.1c4.6,0,8.4-3.4,9-7.8L34.9,44.6L34.9,44.6z"/>
	<path class="st0" d="M54.6,0C24.4,0,0,24.4,0,54.6s24.4,54.6,54.6,54.6s54.6-24.4,54.6-54.6S84.7,0,54.6,0z M86.3,70
		c-6,12.2-18.1,19.8-31.7,19.8S28.9,82.2,22.9,70c-0.7-1.4-0.1-3,1.3-3.7s3-0.1,3.7,1.3c5,10.3,15.3,16.7,26.8,16.7
		s21.7-6.4,26.8-16.7c0.7-1.4,2.3-1.9,3.7-1.3C86.4,67,87,68.6,86.3,70z M74.9,57.5c-7.7,0-13.9-6.2-13.9-13.9
		c0-5.9,3.7-10.9,8.9-12.9l-1.4-4.6l-14,18.3c-0.5,0.6-1.1,0.8-1.8,0.8l-4.5-0.1c-0.7,7-6.6,12.5-13.8,12.5
		c-7.7,0-13.9-6.2-13.9-13.9s6.2-13.9,13.9-13.9c2.3,0,4.5,0.6,6.4,1.6l4.2-6.5l-2.3-6.1h-3.2c-0.5,0-1-0.4-1-1s0.4-1,1-1h9.2
		c0.5,0,1,0.4,1,1s-0.4,1-1,1h-4l2,5.2l20.4-2.4l-1.8-5.8l3.5-0.5c0.9-0.1,1.1-0.5,1.1-0.6c0.1-0.5,0.5-0.9,1.1-0.8
		c0.5,0.1,0.9,0.5,0.9,1.1c-0.1,0.7-0.7,2.1-2.8,2.3l-1.2,0.2l4,12.9c1-0.2,2.1-0.4,3.2-0.4C82.8,30,89,36.2,89,43.9
		C88.8,51.2,82.6,57.5,74.9,57.5z"/>
	<path class="st0" d="M74.9,34.4c-0.6,0-1.2,0.1-1.8,0.2l2.7,8.7c0.2,0.5-0.1,1.1-0.6,1.2c-0.1,0-0.2,0-0.3,0
		c-0.4,0-0.8-0.3-0.9-0.7l-2.7-8.7c-3.2,1.4-5.5,4.6-5.5,8.4c0,5,4.1,9.1,9.1,9.1c5,0,9.1-4.1,9.1-9.1S79.9,34.4,74.9,34.4z"/>
</g>
</svg>
