<?xml version="1.0" encoding="UTF-8" standalone="no"?>
<!DOCTYPE svg PUBLIC "-//W3C//DTD SVG 1.1//EN" "http://www.w3.org/Graphics/SVG/1.1/DTD/svg11.dtd">
<svg width="145.455" height="60" viewBox="0 0 244 69" version="1.1" xmlns="http://www.w3.org/2000/svg" xmlns:xlink="http://www.w3.org/1999/xlink" xml:space="preserve" xmlns:serif="http://www.serif.com/" style="fill-rule:evenodd;clip-rule:evenodd;stroke-linejoin:round;stroke-miterlimit:2;">
    <g transform="matrix(1,0,0,1,-124.4,-22.7)">
        <path d="M157.49,37.96C157.01,37.38 156.45,36.82 155.8,36.3C154.8,35.5 153.7,34.8 152.5,34.1C151.3,33.4 149.9,32.9 148.5,32.5C147,32.2 145.6,32 144,32C140.3,32 137,33 134,34.8C131,36.6 128.7,39.1 127,42.3C125.3,45.5 124.4,49.1 124.4,53.2C124.4,57.3 125.3,60.9 127,64C128.7,67.1 131,69.6 134,71.4C137,73.2 140.4,74.1 144.3,74.1C146.5,74.1 148.7,73.6 150.8,72.7C152.9,71.8 154.7,70.6 156.1,69.2C156.56,68.7 156.95,68.21 157.3,67.71L157.3,71.6C157.3,74.2 156.8,76.4 155.9,78.1C155,79.9 153.6,81.1 151.8,82C149.9,82.9 147.6,83.3 144.9,83.3C143.4,83.3 141.9,83.1 140.4,82.8C138.9,82.5 137.4,82.1 136.1,81.5C134.8,80.9 133.6,80.3 132.5,79.5L129.1,86.5C130.9,88 133.4,89.2 136.4,90.1C139.4,91 142.5,91.5 145.5,91.5C148.9,91.5 151.9,91.1 154.5,90C157.1,89.1 159.3,87.8 161.2,86C163.1,84.2 164.5,82 165.5,79.5C166.5,76.9 167,74 167,70.7L167,32.7L157.6,32.7L157.49,37.96ZM152.1,64.4C150.3,65.5 148.2,66 145.9,66C143.6,66 141.5,65.4 139.9,64.4C138.2,63.3 136.8,61.8 135.8,59.9C134.8,58 134.3,55.8 134.3,53.4C134.3,50.9 134.8,48.7 135.8,46.8C136.8,44.8 138.1,43.3 139.9,42.2C141.6,41.1 143.7,40.5 146,40.5C148.3,40.5 150.3,41 152.1,42.1C153.8,43.2 155.2,44.7 156.2,46.6C157.2,48.5 157.7,50.8 157.7,53.3C157.7,55.8 157.2,58 156.2,59.9C155.3,61.8 153.9,63.3 152.1,64.4Z" style="fill-rule:nonzero;"/>
        <path d="M204.7,34.8C201.5,32.9 197.9,32 193.9,32C189.8,32 186.2,33 183,34.8C179.8,36.7 177.3,39.2 175.4,42.4C173.5,45.6 172.6,49.2 172.6,53.3C172.6,57.4 173.5,61 175.4,64.2C177.3,67.4 179.8,70 183,71.8C186.2,73.6 189.8,74.5 193.9,74.5C198,74.5 201.6,73.6 204.7,71.8C207.9,69.9 210.5,67.4 212.3,64.2C214.1,61 215,57.4 215,53.3C215,49.2 214.1,45.6 212.3,42.4C210.4,39.2 207.9,36.6 204.7,34.8ZM203.9,59.7C202.9,61.6 201.5,63.2 199.8,64.3C198.1,65.4 196.1,66 193.9,66C191.7,66 189.7,65.5 187.9,64.3C186.2,63.1 184.8,61.6 183.8,59.7C182.8,57.8 182.3,55.6 182.3,53.2C182.3,50.8 182.8,48.6 183.8,46.7C184.7,44.7 186.1,43.2 187.9,42.1C189.7,41 191.7,40.4 193.9,40.4C196.1,40.4 198.1,41 199.8,42.1C201.5,43.2 202.9,44.7 203.9,46.6C204.9,48.5 205.4,50.7 205.3,53.2C205.4,55.6 204.9,57.8 203.9,59.7Z" style="fill-rule:nonzero;"/>
        <path d="M255.19,41.74C255.09,41.56 255,41.37 254.9,41.2C254.2,40 253.3,38.8 252.2,37.8C251.1,36.8 249.9,35.9 248.6,35.2C247.2,34.5 245.8,33.9 244.3,33.5C242.7,33.1 241.2,32.9 239.5,32.9C235.9,32.9 232.7,33.8 229.8,35.6C226.9,37.4 224.6,39.8 222.9,43C221.2,46.1 220.3,49.7 220.3,53.8C220.3,57.9 221.1,61.5 222.8,64.6C224.5,67.7 226.8,70.2 229.7,72C232.6,73.8 235.8,74.7 239.5,74.7C242.2,74.7 244.7,74.2 247.1,73.1C249.4,72 251.4,70.6 253.1,68.7C254.1,67.58 254.87,66.38 255.5,65.13L255.5,71C255.5,74.7 254.9,77.8 253.7,80.3C252.5,82.7 250.8,84.6 248.5,85.9C246.2,87.2 243.5,87.8 240.4,87.8C238.6,87.8 236.8,87.6 235.2,87.2C233.5,86.8 232,86.2 230.7,85.5C229.3,84.8 228.1,84 227.1,83.1L225.3,86.7C227.1,88 229.2,89.1 231.7,90.1C234.2,91 237,91.5 240.1,91.5C242.9,91.5 245.4,91.1 247.9,90.4C250.2,89.6 252.3,88.2 254,86.5C255.7,84.7 257.1,82.6 258,80.1C258.9,77.6 259.4,74.8 259.4,71.5L259.4,33.7L255.5,33.7L255.19,41.74ZM253.4,62.4C252,64.9 250.2,66.9 247.8,68.4C245.5,69.9 242.8,70.6 239.9,70.6C236.8,70.6 234.1,69.9 231.9,68.4C229.5,66.9 227.7,64.9 226.4,62.3C225.1,59.7 224.4,56.8 224.4,53.5C224.4,50.2 225.1,47.3 226.4,44.7C227.7,42.2 229.5,40.2 231.9,38.7C234.3,37.2 236.9,36.5 240,36.5C243,36.5 245.7,37.2 248,38.7C250.3,40.1 252.2,42.1 253.5,44.7C254.8,47.3 255.5,50.2 255.5,53.5C255.5,56.9 254.8,59.8 253.4,62.4Z" style="fill-rule:nonzero;"/>
        <path d="M298.9,37.9C297.3,36.2 295.4,34.8 293.2,33.9C290.9,33 288.4,32.5 285.6,32.5C282.7,32.5 280.1,33.1 277.7,34.1C275.3,35.2 273.2,36.6 271.5,38.5C269.8,40.4 268.5,42.6 267.5,45.1C266.6,47.7 266.1,50.5 266.1,53.5C266.1,57.7 267,61.4 268.7,64.5C270.4,67.7 272.8,70.1 275.8,71.9C278.8,73.6 282.2,74.5 286.1,74.5C288.4,74.5 290.4,74.2 292.3,73.6C294.2,73 295.9,72.3 297.5,71.4C299,70.5 300.4,69.5 301.5,68.4L299.5,65.5C297,67.5 294.7,68.9 292.7,69.5C290.7,70.1 288.7,70.4 286.8,70.4C283.3,70.4 280.3,69.7 277.8,68.3C275.4,66.9 273.5,64.9 272.2,62.3C271,59.9 270.4,57.07 270.32,53.9L303.3,53.9L303.4,51.8C303.5,48.9 303.2,46.3 302.4,44C301.6,41.7 300.5,39.6 298.9,37.9ZM272.3,43.9C273.6,41.4 275.4,39.5 277.7,38.2C280,36.9 282.7,36.3 285.6,36.3C288.7,36.3 291.3,37 293.4,38.4C295.5,39.8 297,41.5 298,43.6C299,45.7 299.5,47.7 299.5,49.8L299.5,50.3L270.46,50.3C270.73,47.87 271.35,45.73 272.3,43.9Z" style="fill-rule:nonzero;"/>
        <path d="M318.7,22.7L314.8,22.7L314.8,33.4L305.1,33.4L305.1,37L314.8,37L314.8,73.8L318.7,73.8L318.7,37L329.5,37L329.5,33.4L318.7,33.4L318.7,22.7Z" style="fill-rule:nonzero;"/>
        <path d="M364.7,33.5L364.4,41.48C364.13,41.01 363.83,40.55 363.5,40.1C362.4,38.6 361.1,37.3 359.6,36.2C358.1,35.1 356.5,34.2 354.6,33.6C352.7,33 350.8,32.7 348.7,32.7C345.1,32.7 341.9,33.6 339,35.4C336.1,37.2 333.8,39.6 332.1,42.8C330.4,45.9 329.5,49.5 329.5,53.6C329.5,57.7 330.3,61.3 332,64.4C333.7,67.5 336,70 338.9,71.8C341.8,73.6 345,74.5 348.7,74.5C350.7,74.5 352.7,74.2 354.6,73.5C356.4,72.9 358.1,72 359.6,70.9C361.1,69.8 362.4,68.5 363.5,67C363.88,66.48 364.2,65.94 364.5,65.39L364.5,73.8L368.4,73.8L368.4,33.5L364.7,33.5ZM362.7,62.4C361.3,64.9 359.5,66.9 357.1,68.4C354.8,69.9 352.1,70.6 349.2,70.6C346.1,70.6 343.4,69.9 341.2,68.4C338.8,66.9 337,64.9 335.7,62.3C334.4,59.7 333.7,56.8 333.7,53.5C333.7,50.2 334.4,47.3 335.7,44.7C337,42.2 338.8,40.2 341.2,38.7C343.6,37.2 346.2,36.5 349.3,36.5C352.3,36.5 355,37.2 357.3,38.7C359.6,40.1 361.5,42.1 362.8,44.7C364.1,47.3 364.8,50.2 364.8,53.5C364.8,56.9 364.1,59.8 362.7,62.4Z" style="fill-rule:nonzero;"/>
    </g>
</svg>
