<svg width="138" height="67" viewBox="0 0 138 67" fill="none" xmlns="http://www.w3.org/2000/svg">
<g clip-path="url(#clip0_908_1165)">
<path d="M61.1427 12.1528V27.3556H53.6459V12.1528H46.4419V33.2447H68.3504V12.1528H61.1427Z" fill="#0E1941"/>
<path d="M59.9587 0L51.9189 4.76613L56.6774 12.8157L64.7172 8.04958L59.9587 0Z" fill="#0E1941"/>
<path d="M46.4346 49.0336H46.5137C47.9229 46.4992 50.3348 45.3677 53.1865 45.3677H54.5921V52.4205C53.5945 51.8498 52.6319 51.7326 51.4994 51.7326C47.4449 51.7326 46.4346 54.4331 46.4346 57.981V66.3176H39.1758V45.6514H46.4346V49.0336Z" fill="#0E1941"/>
<path d="M33.0525 66.3169H25.7343V51.6907H21.5835V45.6508H25.734V38.9292H33.0525V45.6508H37.1949V51.6907H33.0525V66.3169Z" fill="#0E1941"/>
<path d="M79.4928 66.3168H72.1713V64.0198H72.0922C70.8018 66.0762 68.2707 67 65.8587 67C59.7361 67 55.4351 61.8828 55.4351 55.9699C55.4351 50.041 59.6566 44.969 65.7829 44.969C68.1554 44.969 70.6428 45.8533 72.1709 47.6633V45.6507H79.4924L79.4928 66.3168ZM63.0038 56.002C63.0038 58.6273 64.7219 60.6395 67.704 60.6395C70.6866 60.6395 72.4134 58.6276 72.4134 56.002C72.4134 53.4706 70.6866 51.3255 67.704 51.3255C64.7219 51.3255 63.0038 53.4706 63.0038 56.002Z" fill="#0E1941"/>
<path d="M98.2973 64.0198H98.2218C96.9354 66.0762 94.4043 67 91.9844 67C85.869 67 81.5688 61.8828 81.5688 55.9699C81.5688 50.041 85.795 44.969 91.9012 44.969C94.2854 44.969 96.7721 45.8533 98.2973 47.6633V35.5498H105.616V66.3168H98.2973V64.0198ZM89.1371 56.002C89.1371 58.6273 90.8552 60.6395 93.8298 60.6395C96.8078 60.6395 98.5424 58.6276 98.5424 56.002C98.5424 53.4706 96.8078 51.3255 93.8298 51.3255C90.8552 51.3255 89.1371 53.4706 89.1371 56.002Z" fill="#0E1941"/>
<path d="M130.387 57.2153H114.981C114.981 60.1893 116.551 61.8083 119.56 61.8083C121.136 61.8083 122.265 61.2839 123.069 59.9118H130.098C128.937 64.7822 124.316 67 119.607 67C112.768 67 107.663 63.1322 107.663 56.002C107.663 49.1208 112.367 44.969 119.084 44.969C126.241 44.969 130.387 49.3987 130.387 56.4471V57.2153ZM123.592 52.9773C123.228 51.0064 121.417 49.7204 119.445 49.7204C117.314 49.7204 115.544 50.8475 115.109 52.9773H123.592Z" fill="#0E1941"/>
<path d="M14.9022 17.4341C13.7894 16.8309 12.2259 16.4362 10.9818 16.4362C10.1545 16.4362 8.71282 16.7896 8.71282 17.8306C8.71282 19.2345 10.9818 19.4357 11.9882 19.6362C15.3856 20.3149 17.9398 21.9131 17.9398 25.7177C17.9398 31.115 13.0335 33.3536 8.27748 33.3536C5.34999 33.3536 2.48302 32.5156 0 30.9971L2.64601 25.9123C4.11832 26.9518 6.5904 27.995 8.39233 27.995C9.30277 27.995 10.6621 27.5568 10.6621 26.4344C10.6621 24.8334 8.39233 24.7534 6.10729 24.1531C3.83392 23.5536 1.56492 22.4356 1.56492 18.7496C1.56492 13.7076 6.10729 11.4712 10.5858 11.4712C12.9026 11.4712 15.2318 11.8308 17.3349 12.7908L14.9022 17.4341Z" fill="#0E1941"/>
<path d="M43.1939 42.9184H35.9235V30.7145C34.3991 32.5156 31.9314 33.3536 29.5676 33.3536C23.4526 33.3536 19.3062 28.3871 19.3062 22.4746C19.3062 16.6337 23.5795 11.4705 29.6544 11.4705C32.0466 11.4705 34.5694 12.4329 35.8444 14.4696H35.9235V12.1503H43.1939V42.9184ZM26.8147 22.4352C26.8147 25.036 28.5343 27.0354 31.484 27.0354C34.4425 27.0354 36.1656 25.036 36.1656 22.4352C36.1656 19.914 34.4425 17.7937 31.484 17.7937C28.5339 17.7934 26.8147 19.9136 26.8147 22.4352Z" fill="#0E1941"/>
<path d="M94.9626 32.6788H87.6911V30.3924H87.6193C86.3369 32.4353 83.8189 33.354 81.4223 33.354C75.3507 33.354 71.0786 28.2739 71.0786 22.394C71.0786 16.5088 75.2676 11.4712 81.3428 11.4712C83.6997 11.4712 86.178 12.3471 87.6907 14.1549V12.1511H94.9623L94.9626 32.6788ZM78.5867 22.4352C78.5867 25.036 80.3022 27.0354 83.2596 27.0354C86.2181 27.0354 87.9361 25.036 87.9361 22.4352C87.9361 19.914 86.2181 17.7937 83.2596 17.7937C80.3022 17.7934 78.5867 19.9136 78.5867 22.4352Z" fill="#0E1941"/>
<path d="M105.702 15.512C107.106 12.9901 109.5 11.8728 112.327 11.8728H113.722V18.8771C112.728 18.3162 111.774 18.1928 110.656 18.1928C106.62 18.1928 105.615 20.8721 105.615 24.3916V32.6788H98.3096V12.1507H105.615V15.512H105.702Z" fill="#0E1941"/>
<path d="M137.242 23.6294H121.944C121.944 26.5972 123.495 28.1932 126.489 28.1932C128.054 28.1932 129.174 27.6688 129.974 26.3095H136.96C135.792 31.1576 131.207 33.3535 126.529 33.3535C119.742 33.3535 114.669 29.5124 114.669 22.4351C114.669 15.5952 119.34 11.4707 126.014 11.4707C133.127 11.4707 137.241 15.8727 137.241 22.8776V23.6294H137.242ZM130.482 19.436C130.125 17.4782 128.336 16.1889 126.367 16.1889C124.253 16.1889 122.498 17.3138 122.062 19.436H130.482Z" fill="#0E1941"/>
<path d="M132.967 47.9846H132.593V48.6203H132.382V47.0491H132.909C133.089 47.0491 133.226 47.0893 133.323 47.17C133.42 47.2507 133.468 47.3679 133.468 47.5216C133.468 47.6194 133.441 47.7045 133.388 47.7772C133.334 47.8498 133.26 47.9042 133.164 47.94L133.538 48.6068V48.6195H133.313L132.967 47.9846ZM132.593 47.8152H132.915C133.02 47.8152 133.102 47.7885 133.164 47.7352C133.226 47.6819 133.256 47.6103 133.256 47.5212C133.256 47.4241 133.227 47.3493 133.168 47.2974C133.11 47.2456 133.025 47.2193 132.914 47.2185H132.593V47.8152ZM132.898 46.2298C133.792 46.2298 134.519 46.9476 134.519 47.8298C134.519 48.7119 133.792 49.4297 132.898 49.4297C132.005 49.4297 131.278 48.7119 131.278 47.8298C131.278 46.9476 132.005 46.2298 132.898 46.2298ZM132.898 46.022C131.887 46.022 131.068 46.8315 131.068 47.8298C131.068 48.828 131.887 49.6375 132.898 49.6375C133.909 49.6375 134.729 48.828 134.729 47.8298C134.729 46.8315 133.909 46.022 132.898 46.022Z" fill="#0E1941"/>
</g>
<defs>
<clipPath id="clip0_908_1165">
<rect width="138" height="67" fill="white"/>
</clipPath>
</defs>
</svg>
