<svg width="655" height="553" viewBox="0 0 655 553" fill="none" xmlns="http://www.w3.org/2000/svg">
<path d="M269.845 290.865C272.457 290.909 275.068 290.947 277.679 290.992C278.424 291.005 279.176 291.017 279.889 291.215C282.475 291.933 283.825 294.789 284.328 297.421C284.889 300.353 284.799 303.457 283.729 306.242C282.653 309.027 280.532 311.47 277.762 312.595C276.342 313.174 274.807 313.403 273.285 313.625C270.106 314.09 266.922 314.56 263.744 315.024" fill="#0B244A"/>
<path d="M269.845 289.847C271.883 289.879 273.921 289.91 275.959 289.942C277.685 289.968 279.507 289.834 281.112 290.591C283.767 291.85 284.978 294.992 285.417 297.714C285.977 301.205 285.697 304.874 284.029 308.041C282.57 310.814 280.105 312.995 277.093 313.905C275.061 314.522 272.89 314.7 270.794 315.005C268.54 315.336 266.279 315.666 264.024 315.997C263.476 316.08 262.935 315.864 262.769 315.285C262.629 314.808 262.935 314.115 263.483 314.032C266.947 313.523 270.418 313.046 273.877 312.506C275.405 312.264 276.953 311.959 278.309 311.196C279.456 310.547 280.462 309.657 281.258 308.607C283.131 306.146 283.787 303.036 283.627 299.99C283.5 297.535 282.927 294.292 280.78 292.74C279.411 291.748 277.558 291.99 275.959 291.965C273.921 291.933 271.883 291.901 269.845 291.869C268.533 291.85 268.533 289.815 269.845 289.834V289.847Z" fill="#0B244A"/>
<path d="M182.949 243.13C185.337 241.095 185.834 236.847 187.879 234.004C190.095 230.92 192.623 228.236 196.285 226.913C200.769 225.292 206.195 225.864 210.405 227.988C218.506 232.077 222.066 241.915 223.767 250.227C225.856 260.447 226.072 271.08 225.276 281.452C224.646 289.612 223.773 298.35 220.207 305.835C212.481 322.052 193.381 331.623 175.912 326.306C170.504 324.659 172.81 316.163 178.255 317.822C184.427 319.699 190.891 319.355 196.597 316.932C202.686 314.344 207.654 309.937 210.985 304.398C211.755 303.113 212.717 301.638 213.144 300.194C212.679 301.777 212.933 300.709 213.067 300.315C213.188 299.965 213.316 299.615 213.43 299.259C213.876 297.879 214.233 296.467 214.551 295.049C214.946 293.268 215.271 291.469 215.551 289.669C215.621 289.224 215.685 288.779 215.749 288.333C215.94 287.036 215.678 288.976 215.838 287.666C215.965 286.597 216.092 285.529 216.201 284.46C216.666 279.818 216.889 275.15 216.869 270.489C216.863 268.072 216.787 265.655 216.627 263.239C216.557 262.1 216.462 260.968 216.354 259.836C216.303 259.302 216.245 258.774 216.188 258.24C216.15 257.891 216.099 257.541 216.061 257.185C215.952 256.224 216.194 257.999 216.029 256.962C215.354 252.644 214.487 248.351 212.895 244.262C212.825 244.078 212.742 243.893 212.672 243.702C212.316 242.768 212.984 244.383 212.711 243.804C212.526 243.41 212.354 243.016 212.156 242.621C211.723 241.75 211.252 240.892 210.73 240.071C210.513 239.734 210.284 239.403 210.061 239.073C209.38 238.062 210.583 239.62 209.794 238.729C209.208 238.068 208.603 237.451 207.959 236.847C207.004 235.95 208.564 237.152 207.609 236.561C207.233 236.332 206.877 236.077 206.488 235.861C206.042 235.613 204.851 235.302 206.138 235.626C205.673 235.505 205.227 235.282 204.762 235.155C204.361 235.041 203.953 234.984 203.552 234.882C202.667 234.64 204.648 234.933 203.718 234.895C203.457 234.888 203.202 234.85 202.941 234.837C202.495 234.818 202.043 234.818 201.597 234.837C201.221 234.85 199.463 235.143 200.788 234.875C200.132 235.009 199.476 235.104 198.839 235.327C198.132 235.575 199.616 234.844 198.527 235.492C198.502 235.505 197.387 236.23 198.024 235.753C197.343 236.268 196.738 236.93 196.183 237.572C195.585 238.271 195.776 238.055 195.241 238.818C193.177 241.756 191.394 245.032 188.63 247.391C186.821 248.936 184.172 249.165 182.401 247.391C180.816 245.807 180.586 248.943 182.401 247.391L182.968 243.13H182.949Z" fill="#BFD3B6"/>
<path d="M182.229 242.412C183.548 241.241 184.185 239.537 184.822 237.941C185.535 236.154 186.274 234.443 187.433 232.891C189.796 229.731 192.668 226.996 196.502 225.762C204.138 223.308 212.621 226.443 217.487 232.592C222.066 238.373 224.085 245.788 225.295 252.937C226.913 262.533 226.996 272.308 226.238 281.993C225.563 290.636 224.595 299.539 220.563 307.361C217.303 313.695 212.239 319.063 206.202 322.834C200.164 326.605 193.076 328.774 185.93 328.793C182.446 328.799 178.758 328.373 175.453 327.228C172.88 326.338 171.466 323.896 171.874 321.225C172.243 318.808 174.109 316.722 176.638 316.595C177.268 316.563 177.899 316.671 178.504 316.837C179.669 317.161 180.835 317.466 182.032 317.664C184.229 318.032 186.484 318.09 188.7 317.886C196.941 317.129 204.546 312.112 209.144 305.339C210.278 303.666 211.526 301.847 212.137 299.914C212.526 298.668 214.475 299.189 214.099 300.455C213.991 300.824 213.889 301.186 213.736 301.536C213.475 302.115 212.532 302.197 212.137 301.739C211.628 301.148 211.934 300.417 212.157 299.768C212.641 298.356 213.048 296.932 213.386 295.475C213.997 292.861 214.296 290.21 214.819 287.583C215.054 286.394 216.736 286.775 216.818 287.857C216.838 288.117 216.742 288.416 216.64 288.645C216.233 289.567 214.672 289.103 214.742 288.13C214.908 285.764 215.277 283.405 215.456 281.039C215.666 278.196 215.793 275.347 215.825 272.498C215.857 269.649 215.799 266.838 215.64 264.015C215.557 262.616 215.456 261.217 215.322 259.824C215.226 258.876 214.952 257.833 214.997 256.879C215.048 255.773 216.717 255.449 216.997 256.606C217.048 256.816 217.099 257.07 217.086 257.286C217.048 258.399 215.366 258.705 215.086 257.56C214.825 256.498 214.73 255.366 214.532 254.285C214.296 253.019 214.042 251.754 213.736 250.501C213.43 249.248 213.093 248.002 212.692 246.774C212.475 246.113 212.246 245.451 211.997 244.803C211.857 244.434 211.641 244.052 211.558 243.671C211.329 242.571 212.813 241.852 213.418 242.889C213.545 243.105 213.672 243.41 213.736 243.658C213.984 244.625 212.755 245.388 212.035 244.65C211.704 244.313 211.571 243.785 211.373 243.365C211.087 242.761 210.774 242.164 210.437 241.585C210.099 241.006 209.717 240.408 209.329 239.836C209.08 239.473 208.838 239.168 208.806 238.717C208.743 237.954 209.717 237.438 210.341 237.839C210.666 238.049 210.908 238.386 211.042 238.748C211.335 239.524 210.482 240.154 209.787 240.001C209.15 239.861 208.577 238.914 208.163 238.488C207.66 237.973 206.909 237.477 206.641 236.777C206.374 236.077 207.036 235.556 207.622 235.492C208.061 235.442 208.577 235.874 208.794 236.217C209.01 236.561 208.972 237.178 208.635 237.451C207.909 238.03 207.284 237.578 206.628 237.165C206.316 236.968 206.011 236.764 205.667 236.624C205.469 236.542 205.195 236.497 205.023 236.376C204.087 235.696 204.641 234.303 205.807 234.519C205.998 234.558 206.195 234.615 206.38 234.659L205.839 236.618C205.049 236.383 204.297 236.122 203.495 235.931C202.96 235.804 202.52 235.632 202.31 235.073C202.119 234.564 202.52 233.947 203.024 233.82C203.45 233.712 204.074 233.794 204.457 234.011C205.03 234.341 205.119 235.143 204.66 235.607C204.062 236.224 202.712 235.836 201.966 235.842C201.393 235.849 200.839 235.982 200.272 236.001C199.623 236.02 199.1 235.333 199.291 234.717C199.47 234.138 199.967 233.998 200.489 233.896L201.03 235.855C200.514 235.957 199.998 236.039 199.495 236.179C199.202 236.262 198.922 236.395 198.616 236.395C197.979 236.395 197.425 235.74 197.636 235.111C197.776 234.697 198.202 234.316 198.648 234.24C199.362 234.112 200.164 234.691 199.903 235.492C199.705 236.097 198.693 236.72 198.081 236.904C197.005 237.229 196.521 235.938 197.088 235.206C197.19 235.073 197.355 234.99 197.489 234.888C198.393 234.189 199.635 235.772 198.725 236.484C196.852 237.954 195.782 239.772 194.47 241.757C193.158 243.741 191.719 245.89 189.917 247.588C188.318 249.095 186.267 250.062 184.038 249.496C183.535 249.369 183.032 249.146 182.586 248.866C182.312 248.695 181.593 248.281 181.484 247.97C181.363 247.893 181.338 247.881 181.414 247.938C181.631 247.989 181.815 247.938 181.975 247.779C182.07 247.677 182.115 247.563 182.121 247.423C182.134 247.099 181.535 246.889 181.529 246.825C181.497 246.825 181.472 246.825 181.44 246.825C181.516 246.787 181.586 246.736 181.656 246.685L181.357 247.404C181.548 245.986 181.733 244.561 181.924 243.143C181.994 242.596 182.338 242.132 182.943 242.125C183.439 242.125 184.032 242.596 183.962 243.143C183.783 244.491 183.605 245.846 183.427 247.194C183.306 248.103 182.573 248.79 181.624 248.854C180.758 248.911 180.058 248.23 180.089 247.359C180.128 246.412 181.038 245.744 181.962 245.979C182.414 246.094 182.764 246.38 183.102 246.685C183.618 247.149 184.172 247.493 184.872 247.601C186.178 247.798 187.356 247.194 188.293 246.335C189.471 245.261 190.464 244.014 191.381 242.717C193.222 240.109 194.738 237.063 197.292 235.054L198.527 236.65C198.559 236.624 198.565 236.624 198.54 236.65L197.546 234.952C197.158 235.066 197.712 234.812 197.846 234.729C197.897 234.697 197.948 234.659 198.005 234.628C198.457 234.341 198.158 234.335 197.948 234.958L199.202 236.211C199.094 236.23 199.419 236.097 199.304 236.167C199.005 236.357 199.533 235.906 199.616 235.664L198.636 234.379C198.495 234.379 198.419 234.456 198.565 234.367C198.757 234.252 199.043 234.221 199.253 234.17C199.667 234.068 200.094 233.998 200.514 233.915C201.794 233.667 202.342 235.62 201.056 235.874C200.896 235.906 200.731 235.931 200.572 235.982L201.285 235.27C200.96 234.844 200.629 234.418 200.304 233.985C200.712 233.972 201.113 233.871 201.514 233.839C201.896 233.814 202.285 233.813 202.667 233.826C202.934 233.833 203.189 233.858 203.457 233.877C204.068 233.915 203.692 233.724 203.247 234.176L203.45 235.772C203.756 235.95 203.571 235.829 203.418 235.81C203.667 235.849 203.126 235.899 203.59 235.785L204.304 234.532V234.545C204.151 234.341 203.998 234.138 203.839 233.934C203.501 233.769 204.03 233.96 204.062 233.966C204.304 234.023 204.546 234.062 204.788 234.119C205.342 234.252 205.858 234.488 206.405 234.653C207.66 235.028 207.138 236.942 205.864 236.612C205.673 236.561 205.482 236.504 205.291 236.472L206.074 234.615C205.807 234.418 206.049 234.589 206.234 234.659C206.476 234.748 206.718 234.844 206.947 234.958C207.24 235.104 207.514 235.295 207.788 235.473C207.921 235.556 208.061 235.639 208.189 235.728C208.278 235.785 208.507 235.849 208.195 235.753L207.202 236.014H207.208C207.157 236.421 207.1 236.828 207.049 237.241C207.195 237.47 207.074 237.337 207.246 237.451C207.011 237.292 207.278 237.566 207.635 237.521L208.615 236.236C208.571 236.122 208.259 235.842 208.45 235.912C208.52 235.938 208.622 236.077 208.673 236.128C208.985 236.434 209.303 236.733 209.615 237.05C209.889 237.33 210.15 237.616 210.411 237.903C210.482 237.985 210.603 238.081 210.66 238.176C210.787 238.392 211.048 238.195 210.341 238.036L209.087 239.289C209.189 239.55 209.036 239.41 209.322 239.601L210.857 238.723C210.794 237.934 210.653 238.233 210.845 238.424C211.016 238.596 211.137 238.857 211.278 239.06C211.634 239.588 211.972 240.135 212.284 240.688C212.57 241.191 212.838 241.706 213.093 242.227C213.207 242.462 213.316 242.698 213.424 242.933C213.5 243.105 213.806 243.531 213.494 243.213L211.793 244.205C211.781 244.167 211.723 243.97 211.704 243.97C211.666 243.97 211.653 243.741 211.685 243.912C211.711 243.963 211.698 244.014 211.685 243.912L213.545 243.13C213.628 243.512 213.844 243.9 213.984 244.262C214.233 244.911 214.462 245.572 214.679 246.234C215.073 247.461 215.417 248.707 215.723 249.96C216.029 251.213 216.284 252.479 216.519 253.744C216.717 254.825 216.812 255.957 217.073 257.019L215.073 257.293C215.08 257.102 215.124 257.445 215.054 257.153L217.054 256.879C217.01 257.827 217.283 258.87 217.379 259.824C217.506 261.166 217.615 262.514 217.691 263.856C217.857 266.73 217.914 269.618 217.882 272.498C217.85 275.379 217.729 278.095 217.525 280.887C217.347 283.31 216.965 285.713 216.799 288.13L214.901 287.615C214.659 288.162 214.844 287.583 214.806 287.831C214.78 288.016 214.806 287.888 214.806 287.85L216.806 288.124C216.334 290.508 216.061 292.925 215.532 295.31C215.239 296.633 214.908 297.949 214.5 299.24C214.29 299.908 213.959 300.582 213.857 301.281L213.596 300.289C213.061 300.359 212.532 300.429 211.997 300.499C211.902 300.709 211.953 300.62 211.997 300.461C212.042 300.277 212.112 300.086 212.163 299.908L214.124 300.448C213.507 302.42 212.328 304.232 211.201 305.943C210.157 307.533 208.978 309.034 207.679 310.414C205.125 313.129 202.068 315.4 198.725 317.053C194.91 318.942 190.738 319.991 186.471 320.023C184.287 320.042 182.089 319.794 179.956 319.311C178.656 319.018 177.223 318.274 175.886 318.789C174.166 319.457 173.453 321.74 174.058 323.381C174.415 324.354 175.211 324.996 176.179 325.308C177.803 325.829 179.497 326.185 181.185 326.427C187.815 327.381 194.719 326.23 200.788 323.438C206.858 320.646 212.322 316.201 216.188 310.668C220.869 303.972 222.748 296.06 223.646 288.054C224.652 279.106 225.047 270.031 224.283 261.051C223.64 253.509 222.366 245.572 218.958 238.723C217.481 235.76 215.564 232.999 213.004 230.875C210.08 228.452 206.297 227.123 202.514 226.996C198.731 226.869 194.954 228.026 192.082 230.666C190.732 231.906 189.496 233.349 188.496 234.888C187.496 236.427 186.949 238.132 186.255 239.779C185.624 241.267 184.898 242.749 183.669 243.842C182.694 244.707 181.249 243.276 182.229 242.405V242.412Z" fill="#BFD3B6"/>
<path d="M451.979 425.076C437.28 423.91 422.179 423.211 407.428 422.564L403.003 422.331C402.063 422.255 400.376 422.162 399.483 422.156C390.996 422.121 384.96 430.066 386.063 438.238C386.723 444.148 391.136 448.659 396.798 450.181C400.983 451.533 404.352 455.572 404.258 459.967C404.019 467.422 392 469.766 385.958 470.238C352.312 472.237 317.661 470.174 284.99 480.788C274.336 483.976 269.859 497.4 278.026 505.613C279.549 507.245 281.995 508.976 283.303 509.943C284.867 511.208 285.486 511.43 285.9 512.835C286.472 516.798 283.694 520.021 279.859 521.846C273.98 524.725 263.712 525.78 256.276 527.045L251.974 527.721L247.636 528.211C244.829 528.479 237.421 529.418 234.637 529.622C230.685 529.913 223.382 530.397 219.413 530.688C215.268 530.851 208.31 531.061 204.154 531.259C151.326 532.536 98.4513 528.444 45.7167 524.078C37.3285 523.431 27.4167 522.668 18.9875 522.137C13.0334 521.735 7.06766 521.403 1.08438 521.158C0.529816 521.135 0.0628662 521.566 0.0394897 522.12C0.0220032 522.586 0.325531 522.994 0.757477 523.122C12.2395 526.532 23.7917 529.528 35.3963 532.379C89.2867 545.231 144.917 554.569 200.57 551.584C206.693 551.281 214.889 550.494 220.989 549.929C226.19 549.224 233.919 548.338 239.061 547.539C243.159 546.828 250.719 545.569 254.787 544.864C257.531 544.263 265.3 542.637 268.166 542.019C277.471 540.119 287.541 537.694 294.539 530.49C301.352 523.513 303.838 511.64 297.779 503.363C295.363 499.883 291.323 497.761 288.591 495.605C288.469 495.494 288.276 495.319 288.2 495.237C288.13 495.191 288.183 495.185 288.124 495.179C288.124 495.179 288.159 495.226 288.136 495.267C288.183 495.296 288.159 495.366 288.159 495.395C288.188 495.401 288.142 495.465 288.148 495.436C288.007 494.952 288.556 494.351 289.041 494.112C316.634 483.9 346.41 483.218 375.644 480.671C378.837 480.386 383.722 479.919 386.915 479.552C392.753 478.759 398.246 477.32 403.459 474.207C410.697 469.952 414.228 462.293 410.936 454.179C408.788 448.893 404.212 445.005 398.83 443.507L397.796 443.215C397.026 443.011 396.279 442.702 395.613 442.289C391.807 440.144 391.101 434.472 393.453 430.922C394.936 428.468 397.755 427.215 400.598 427.274L402.857 427.291L407.346 427.274C422.085 427.093 437.175 426.784 451.897 427.046C452.446 427.052 452.901 426.615 452.907 426.067C452.913 425.537 452.504 425.099 451.984 425.059L451.979 425.076Z" fill="#C5E2E0"/>
<path d="M637.184 146.548L655 177.359L637.184 208.176H520.49V146.548H637.184Z" fill="#BFD3B6"/>
<path d="M577.947 270.3L595.762 301.111L577.947 331.922H520.49V270.3H577.947Z" fill="#0B244A"/>
<path d="M578.753 269.828C580.778 273.331 582.804 276.834 584.829 280.337C588.034 285.88 591.245 291.429 594.449 296.972C595.138 298.167 595.967 299.356 596.551 300.61C596.819 301.175 596.597 301.536 596.335 301.991L595.261 303.85C592.208 309.126 589.161 314.406 586.108 319.682C583.703 323.843 581.368 328.058 578.881 332.178C578.84 332.248 578.799 332.324 578.758 332.394C578.595 332.68 578.28 332.855 577.953 332.855H527.565C525.253 332.855 522.913 332.954 520.601 332.855C520.566 332.855 520.531 332.855 520.496 332.855C519.994 332.855 519.562 332.429 519.562 331.922V277.866C519.562 275.388 519.457 272.882 519.562 270.411C519.562 270.376 519.562 270.341 519.562 270.3C519.562 269.799 519.988 269.367 520.496 269.367H570.884C573.196 269.367 575.536 269.268 577.848 269.367C577.883 269.367 577.918 269.367 577.953 269.367C579.155 269.367 579.155 271.233 577.953 271.233H522.848C522.125 271.233 521.319 271.332 520.601 271.233C520.566 271.233 520.531 271.233 520.496 271.233L521.43 270.3V329.392C521.43 330.168 521.541 331.042 521.43 331.811C521.43 331.846 521.43 331.887 521.43 331.922L520.496 330.989H575.6C576.324 330.989 577.13 330.89 577.848 330.989C577.883 330.989 577.918 330.989 577.953 330.989L577.147 331.45C579.15 327.988 581.152 324.525 583.154 321.063C586.359 315.52 589.563 309.977 592.768 304.433C593.498 303.169 594.233 301.904 594.963 300.639V301.577C592.961 298.115 590.959 294.653 588.956 291.19C585.752 285.647 582.547 280.104 579.342 274.561C578.613 273.296 577.877 272.031 577.147 270.766C576.546 269.723 578.157 268.784 578.758 269.828H578.753Z" fill="#0B244A"/>
<path d="M418.838 269.798L401.023 238.987L418.838 208.176H508.588V269.798H418.838Z" fill="#165C7E"/>
<path d="M508.617 124.936H520.49V480.895H508.617V124.936Z" fill="#0B244A"/>
<path d="M508.623 479.962H520.496L519.562 480.895V130.298C519.562 128.742 519.399 127.087 519.562 125.536C519.585 125.338 519.562 125.128 519.562 124.93L520.496 125.863H508.623L509.557 124.93V466.44C509.557 471.05 509.633 475.672 509.557 480.283C509.557 480.487 509.557 480.685 509.557 480.889C509.557 482.09 507.689 482.09 507.689 480.889V139.385C507.689 134.775 507.613 130.153 507.689 125.542C507.689 125.338 507.689 125.14 507.689 124.936C507.689 124.435 508.115 124.003 508.623 124.003H520.496C520.998 124.003 521.43 124.429 521.43 124.936V466.445C521.43 471.056 521.506 475.678 521.43 480.289C521.43 480.493 521.43 480.691 521.43 480.895C521.43 481.396 521.004 481.828 520.496 481.828H508.623C507.42 481.828 507.42 479.962 508.623 479.962Z" fill="#0B244A"/>
<path d="M497.491 479.963H509.031C515.16 479.963 521.284 479.963 527.413 479.963H531.622C532.824 479.963 532.824 481.828 531.622 481.828H520.081C513.952 481.828 507.829 481.828 501.7 481.828H497.491C496.288 481.828 496.288 479.963 497.491 479.963Z" fill="#0B244A"/>
<path d="M514.56 127.617C509.092 127.617 504.659 123.191 504.659 117.731C504.659 112.271 509.092 107.845 514.56 107.845C520.027 107.845 524.46 112.271 524.46 117.731C524.46 123.191 520.027 127.617 514.56 127.617Z" fill="#0B244A"/>
<path d="M525.393 117.732C525.347 122.249 522.539 126.288 518.301 127.885C514.063 129.482 509.113 128.136 506.253 124.679C503.392 121.223 502.884 116.064 505.278 112.13C507.642 108.248 512.242 106.26 516.701 107.123C521.733 108.097 525.341 112.666 525.393 117.726C525.405 118.926 523.537 118.926 523.525 117.726C523.49 114.013 521.161 110.556 517.624 109.303C514.086 108.05 510.059 109.128 507.636 112.019C505.214 114.91 504.939 119.095 506.842 122.295C508.745 125.495 512.621 127.262 516.305 126.51C520.484 125.653 523.484 121.969 523.525 117.72C523.537 116.519 525.405 116.519 525.393 117.72V117.732Z" fill="#0B244A"/>
<path d="M231.18 184.451C233.161 183.294 235.638 183.345 237.721 184.305C249.497 189.749 246.249 205.635 241.67 216.923C241.421 217.533 241.179 218.118 240.937 218.723C236.797 211.842 232.753 204.91 229.69 197.501C227.849 193.062 226.735 187.046 231.187 184.445L231.18 184.451Z" fill="#0B244A"/>
<path d="M230.664 183.567C236.772 180.177 243.523 185.85 245.638 191.408C247.733 196.922 246.86 203.294 245.427 208.852C244.536 212.331 243.262 215.663 241.912 218.989C241.593 219.772 240.536 220.045 240.052 219.231C236.919 214.016 233.83 208.763 231.174 203.281C229.136 199.078 226.588 194.219 227.111 189.386C227.372 186.944 228.531 184.852 230.664 183.567C231.792 182.886 232.811 184.648 231.69 185.322C228.149 187.465 228.907 192.146 230.008 195.472C230.798 197.85 231.906 200.14 232.995 202.391C234.225 204.922 235.549 207.415 236.931 209.87C238.504 212.681 240.154 215.447 241.81 218.207L239.95 218.449C242.128 213.094 244.109 207.58 244.663 201.787C245.128 196.922 244.631 191.446 241.014 187.79C238.657 185.411 234.919 183.529 231.696 185.322C230.55 185.958 229.518 184.203 230.671 183.567H230.664Z" fill="#0B244A"/>
<path d="M184.026 319.75C214.838 280.353 222.43 264.263 240.931 218.723C243.899 223.658 246.911 228.567 249.656 233.61C270.782 272.41 267.139 287.011 267.107 329.55C267.107 336.666 260.541 341.964 253.567 340.526C229.843 335.629 206.546 328.672 184.026 319.75Z" fill="#0B244A"/>
<path d="M183.306 319.031C188.63 312.226 193.865 305.345 198.878 298.305C203.005 292.518 206.972 286.61 210.679 280.543C214.08 274.985 217.245 269.287 220.194 263.474C223.34 257.28 226.244 250.972 229.021 244.612C232.339 237.019 235.492 229.362 238.619 221.686C239.058 220.605 239.498 219.524 239.937 218.449C240.256 217.667 241.313 217.393 241.797 218.207C249.459 230.952 256.936 243.868 261.98 257.91C265.616 268.04 267.546 278.553 268.1 289.281C268.75 301.701 268.17 314.172 268.113 326.599C268.107 328.335 268.196 330.09 267.89 331.801C267.629 333.27 267.062 334.714 266.266 335.979C264.725 338.434 262.336 340.291 259.572 341.188C256.229 342.275 253.019 341.461 249.694 340.742C245.536 339.846 241.383 338.885 237.256 337.861C221.022 333.842 205.03 328.85 189.401 322.917C187.503 322.198 185.618 321.467 183.732 320.716C182.529 320.239 183.051 318.274 184.274 318.758C199.54 324.799 215.156 329.95 231.027 334.16C234.944 335.203 238.88 336.183 242.829 337.111C244.854 337.588 246.879 338.046 248.905 338.491C250.796 338.904 252.726 339.451 254.649 339.674C260.388 340.329 265.757 335.909 266.049 330.109C266.228 326.516 266.094 322.891 266.132 319.292C266.171 316.061 266.221 312.824 266.26 309.593C266.33 303.889 266.387 298.185 266.196 292.48C265.852 282.152 264.425 271.99 261.26 262.133C257.006 248.867 250.35 236.427 243.211 224.516C242.154 222.754 241.09 220.993 240.033 219.231L241.893 218.99C238.664 226.939 235.415 234.876 232.021 242.755C229.199 249.312 226.263 255.824 223.085 262.222C220.162 268.117 217.022 273.898 213.647 279.545C210.036 285.58 206.163 291.45 202.126 297.205C197.241 304.156 192.12 310.948 186.911 317.657C186.184 318.592 185.452 319.527 184.726 320.462C183.917 321.492 182.484 320.042 183.287 319.025L183.306 319.031Z" fill="#0B244A"/>
<path d="M244.096 315.202C308.523 404.986 301.435 371.548 331.126 468.842C332.89 474.61 341.546 503.774 345.119 508.639C348.698 513.498 355.493 511.857 360.869 509.097C356.576 512.97 351.347 515.794 345.755 517.269C343.787 517.784 341.654 518.128 339.762 517.39C337.769 516.608 336.419 514.776 335.177 513.034C325.21 498.954 315.669 484.569 306.587 469.91C301.728 462.069 296.913 453.948 295.066 444.911C294.028 439.861 293.939 434.596 292.245 429.724C289.43 421.635 282.634 415.708 276.284 409.953C259.458 394.722 227.283 375.497 213.22 357.684C206.998 349.804 217.583 344.068 214.742 334.44C211.908 324.812 212.8 313.549 219.353 305.943" fill="#0B244A"/>
<path d="M244.975 314.688C252.038 324.526 259.229 334.268 266.604 343.871C271.813 350.657 277.125 357.36 282.494 364.025C286.328 368.775 290.194 373.5 293.945 378.321C296.977 382.213 299.919 386.175 302.581 390.334C305.243 394.493 307.504 398.658 309.561 403.034C312.147 408.535 314.364 414.207 316.433 419.918C319.331 427.899 321.949 435.982 324.515 444.072C327.458 453.35 330.305 462.654 333.132 471.964C335.502 479.768 337.915 487.564 340.603 495.272C341.794 498.681 342.991 502.115 344.507 505.39C344.978 506.414 345.469 507.508 346.208 508.379C347.883 510.363 350.392 510.904 352.889 510.662C355.5 510.408 358.035 509.39 360.353 508.214C361.334 507.718 362.493 509.002 361.588 509.81C357.837 513.161 353.481 515.756 348.73 517.416C346.45 518.211 343.921 519.006 341.482 518.796C339.043 518.586 337.202 517.257 335.718 515.432C334.011 513.339 332.534 511.044 330.992 508.83C329.349 506.471 327.713 504.105 326.095 501.733C322.777 496.875 319.509 491.978 316.287 487.043C313.064 482.108 310.052 477.383 307.007 472.499C304.091 467.824 301.161 463.137 298.734 458.183C296.384 453.382 294.556 448.358 293.703 443.073C292.843 437.776 292.582 432.307 290.187 427.403C288.022 422.958 284.685 419.231 281.156 415.816C278.055 412.821 274.832 409.921 271.52 407.161C264.731 401.501 257.56 396.305 250.459 391.052C242.886 385.45 235.301 379.841 228.085 373.78C224.78 371.007 221.551 368.133 218.506 365.08C217.131 363.7 215.793 362.282 214.513 360.813C213.233 359.344 211.876 357.894 211.068 356.152C207.998 349.563 214.57 343.75 214.207 337.162C214.086 335.044 213.246 332.997 212.864 330.911C212.437 328.621 212.208 326.294 212.208 323.972C212.208 319.444 213.08 314.904 215.023 310.789C215.972 308.773 217.201 306.923 218.646 305.225C219.493 304.226 220.933 305.67 220.086 306.662C214.137 313.657 213.163 323.616 215.233 332.284C215.704 334.262 216.322 336.132 216.258 338.199C216.207 339.89 215.819 341.556 215.258 343.146C214.252 346.014 212.424 348.87 212.265 351.973C212.08 355.516 214.832 358.167 217.042 360.597C219.799 363.63 222.78 366.454 225.843 369.169C232.651 375.192 239.906 380.693 247.198 386.118C254.28 391.39 261.445 396.553 268.381 402.016C271.419 404.407 274.399 406.869 277.271 409.463C280.768 412.624 284.309 415.778 287.328 419.41C290.423 423.136 292.843 427.308 293.996 432.039C295.244 437.165 295.353 442.482 296.773 447.576C299.645 457.904 305.95 467.042 311.625 476.003C317.701 485.606 323.968 495.088 330.426 504.436C332.018 506.745 333.629 509.047 335.247 511.342C336.533 513.168 337.858 515.444 339.998 516.386C342.348 517.416 345.246 516.443 347.539 515.686C349.831 514.929 352.213 513.861 354.385 512.595C356.557 511.33 358.385 509.969 360.168 508.379L361.404 509.975C357.111 512.156 351.163 514.262 346.66 511.432C343.94 509.721 342.775 506.592 341.616 503.756C338.399 495.889 335.89 487.711 333.362 479.596C330.846 471.5 328.42 463.379 325.91 455.283C323.031 445.986 320.115 436.701 316.962 427.492C314.771 421.095 312.485 414.723 309.816 408.509C307.797 403.81 305.555 399.212 302.957 394.805C300.518 390.665 297.785 386.709 294.9 382.868C291.468 378.295 287.85 373.856 284.258 369.405C279.303 363.268 274.361 357.125 269.514 350.905C262.598 342.04 255.834 333.047 249.204 323.966C247.204 321.225 245.211 318.471 243.236 315.718C242.472 314.649 244.236 313.632 244.994 314.694L244.975 314.688Z" fill="#0B244A"/>
<path d="M246.153 332.297C185.726 424.809 214.36 406.086 134.323 469.001C129.578 472.734 105.498 491.361 102.256 496.455C99.0144 501.549 103.014 507.279 107.542 511.272C102.371 508.684 97.8362 504.843 94.4352 500.169C93.2379 498.528 92.1424 496.665 92.1488 494.636C92.1488 492.499 93.3716 490.572 94.5498 488.792C104.071 474.406 114.038 460.32 124.426 446.545C129.98 439.181 135.813 431.76 143.577 426.755C147.914 423.956 152.793 421.966 156.729 418.621C163.257 413.069 166.326 404.592 169.39 396.598C177.504 375.414 184.943 338.523 196.464 318.974C201.559 310.325 209.59 318.071 217.545 311.94C225.499 305.81 236.339 302.554 245.809 305.899" fill="#0B244A"/>
<path d="M247.032 332.806C240.479 342.841 234.059 352.959 227.83 363.198C223.436 370.422 219.143 377.71 214.921 385.043C211.876 390.321 208.877 395.631 205.756 400.865C203.272 405.031 200.705 409.152 197.871 413.094C195.094 416.961 192.069 420.637 188.821 424.116C184.853 428.364 180.599 432.338 176.249 436.186C170.218 441.521 163.989 446.635 157.729 451.697C149.787 458.113 141.781 464.447 133.737 470.737C127.457 475.653 121.197 480.594 115.083 485.72C112.007 488.296 108.943 490.903 106.071 493.708C105.211 494.547 104.122 495.641 103.504 496.449C101.989 498.433 101.785 500.83 102.625 503.145C103.689 506.083 105.975 508.512 108.268 510.554C109.166 511.355 108.026 512.653 107.033 512.15C102.606 509.905 98.6195 506.802 95.4032 503.024C93.8747 501.231 92.3271 499.285 91.5501 497.04C90.7221 494.636 91.3208 492.27 92.5309 490.114C93.9193 487.647 95.6325 485.332 97.212 482.985C98.8424 480.562 100.486 478.152 102.141 475.748C105.377 471.049 108.657 466.381 111.988 461.745C115.395 457.001 118.853 452.294 122.356 447.627C125.407 443.563 128.47 439.48 131.871 435.696C135.272 431.912 139.055 428.421 143.367 425.693C147.679 422.964 152.43 421.044 156.257 417.699C163.187 411.645 166.32 402.194 169.352 393.8C172.167 385.997 174.466 378.009 176.79 370.053C179.351 361.303 181.879 352.533 184.783 343.89C187.395 336.106 190.267 328.31 194.139 321.053C195.922 317.715 197.916 314.49 201.922 313.746C205.648 313.059 209.482 314.122 213.163 313.066C215.436 312.417 217.124 310.916 219.048 309.625C220.971 308.334 223.162 307.152 225.372 306.217C229.779 304.353 234.607 303.31 239.409 303.609C241.682 303.756 243.924 304.194 246.077 304.932C247.306 305.358 246.777 307.323 245.536 306.891C236.415 303.743 226.416 306.719 218.85 312.233C217.067 313.53 215.335 314.649 213.163 315.164C211.29 315.61 209.367 315.641 207.456 315.584C205.73 315.54 203.941 315.387 202.234 315.743C200.412 316.125 198.954 317.142 197.878 318.656C195.77 321.619 194.26 325.168 192.795 328.475C191.114 332.278 189.63 336.17 188.235 340.087C185.286 348.406 182.764 356.864 180.287 365.328C177.93 373.367 175.65 381.431 173.014 389.386C171.772 393.145 170.396 396.846 168.957 400.534C167.307 404.77 165.53 409.005 163.047 412.827C160.563 416.649 157.225 419.893 153.245 422.354C148.92 425.025 144.309 427.13 140.342 430.348C132.349 436.835 126.368 445.547 120.305 453.757C113.682 462.724 107.237 471.818 100.97 481.039C99.3647 483.399 97.7724 485.765 96.1993 488.143C94.8109 490.235 92.8047 492.684 93.2123 495.367C93.569 497.727 95.3331 499.825 96.8362 501.587C98.3392 503.349 100.097 505.059 101.963 506.535C103.829 508.01 105.905 509.307 108.052 510.395L106.816 511.991C102.619 508.245 97.9126 502.153 101.122 496.366C102.517 493.854 105.033 491.825 107.128 489.924C113.624 484.035 120.516 478.578 127.394 473.147C134.438 467.583 141.514 462.063 148.538 456.473C155.684 450.781 162.811 445.051 169.766 439.124C174.65 434.965 179.465 430.704 184.006 426.163C187.509 422.666 190.84 418.983 193.878 415.066C196.712 411.409 199.362 407.422 201.82 403.434C204.813 398.582 207.628 393.634 210.469 388.693C214.36 381.92 218.271 375.166 222.277 368.464C227.977 358.937 233.842 349.506 239.842 340.164C241.638 337.366 243.447 334.567 245.268 331.782C245.981 330.688 247.745 331.706 247.026 332.806H247.032Z" fill="#0B244A"/>
<path d="M200.935 218.118C215.602 217.527 230.269 216.935 244.93 216.344C245.561 216.318 246.198 216.293 246.809 216.465C249 217.075 249.771 219.765 249.898 222.036C250.21 227.562 248.472 233.724 243.714 236.561C240.205 238.653 235.849 238.513 231.766 238.303C222.805 237.852 213.844 237.4 204.883 236.949C202.247 236.815 199.451 236.631 197.285 235.13C195.356 233.794 194.209 231.6 193.337 229.419C192.158 226.481 191.33 223.403 190.872 220.274C190.636 218.665 190.534 216.884 191.451 215.536C193.031 213.209 196.489 213.495 199.247 214.042C206.628 215.504 214.016 216.967 221.398 218.436" fill="#165C7E"/>
<path d="M200.935 217.101C213.914 216.579 226.888 216.058 239.867 215.53C241.453 215.466 243.033 215.403 244.618 215.339C245.905 215.288 247.204 215.288 248.306 216.051C250.153 217.323 250.752 219.714 250.905 221.826C251.236 226.385 250.166 231.365 247.179 234.926C243.612 239.174 238.008 239.588 232.843 239.372C226.423 239.098 220.003 238.729 213.59 238.405C210.424 238.246 207.259 238.112 204.1 237.922C201.451 237.763 198.655 237.426 196.477 235.778C194.298 234.131 193.152 231.715 192.203 229.273C191.114 226.462 190.337 223.524 189.904 220.541C189.541 218.016 189.624 215.25 191.942 213.666C193.789 212.401 196.26 212.547 198.362 212.859C201.368 213.304 204.355 214.016 207.335 214.608C210.558 215.25 213.781 215.886 217.01 216.528C218.57 216.84 220.13 217.145 221.691 217.457C222.977 217.711 222.429 219.67 221.149 219.415C215.271 218.252 209.399 217.088 203.52 215.918C201.062 215.428 198.527 214.69 196.005 214.678C193.961 214.665 192.044 215.403 191.783 217.673C191.636 218.926 191.891 220.236 192.114 221.463C192.375 222.875 192.706 224.268 193.114 225.641C193.821 228.033 194.674 230.557 196.164 232.586C197.655 234.615 200.011 235.492 202.508 235.759C205.291 236.052 208.119 236.09 210.915 236.23C216.869 236.529 222.824 236.834 228.786 237.133C233.677 237.381 239.492 238.265 243.784 235.321C247.262 232.929 248.701 228.446 248.905 224.414C249.007 222.487 249.026 220.198 247.924 218.512C247.344 217.628 246.523 217.336 245.491 217.342C244.045 217.355 242.593 217.457 241.154 217.514C229.231 217.991 217.309 218.474 205.387 218.951L200.954 219.129C199.642 219.18 199.648 217.145 200.954 217.094L200.935 217.101Z" fill="#165C7E"/>
<path d="M206.062 236.434C213.762 235.213 221.691 235.435 229.308 237.089C233.186 237.928 237.256 239.321 239.574 242.539C241.141 244.714 241.695 247.435 242.128 250.081C245.618 271.226 244.109 293.179 237.759 313.651C235.906 319.616 233.416 325.785 228.416 329.543C223.862 332.971 217.882 333.874 212.176 333.912C200.12 333.995 188.312 330.758 176.689 327.546C171.606 326.141 166.014 324.354 163.397 319.781C160.798 315.234 162.066 309.549 163.41 304.487C166.199 293.955 168.989 283.424 171.778 272.893C173.568 266.132 175.045 259.277 177.383 252.676C179.612 246.373 182.255 239.092 188.98 236.561C198.26 233.069 210.303 234.71 219.436 237.998" fill="#BFD3B6"/>
<path d="M205.788 235.454C211.488 234.564 217.277 234.399 223.009 235.041C225.735 235.346 228.461 235.785 231.116 236.478C233.352 237.057 235.6 237.865 237.511 239.187C239.53 240.58 240.963 242.45 241.854 244.727C242.81 247.181 243.134 249.865 243.51 252.453C244.319 258.043 244.803 263.678 244.937 269.325C245.198 280.67 244.071 292.054 241.6 303.132C240.44 308.341 239.071 313.587 237.122 318.567C235.396 322.967 233.021 327.247 229.219 330.186C225.219 333.283 220.168 334.472 215.207 334.809C209.59 335.197 203.902 334.65 198.355 333.74C192.598 332.799 186.923 331.375 181.293 329.855C176.688 328.608 171.753 327.597 167.587 325.174C165.728 324.093 164.059 322.669 162.862 320.862C161.48 318.77 160.894 316.258 160.856 313.772C160.817 311.285 161.295 308.735 161.881 306.293C162.569 303.437 163.365 300.601 164.123 297.765C167.173 286.241 170.205 274.718 173.192 263.182C174.498 258.139 175.975 253.14 177.905 248.294C179.433 244.459 181.369 240.548 184.643 237.903C188.261 234.977 193.196 234.036 197.731 233.699C202.782 233.324 207.908 233.884 212.838 235.009C215.162 235.537 217.449 236.211 219.697 237.012C220.92 237.451 220.391 239.416 219.156 238.971C210.405 235.842 200.228 234.24 191.152 236.898C189.146 237.483 187.267 238.303 185.675 239.683C184.216 240.955 183.057 242.507 182.089 244.18C179.949 247.874 178.574 252.059 177.3 256.11C175.644 261.382 174.415 266.775 173.02 272.123C171.574 277.688 170.078 283.24 168.606 288.798C167.135 294.356 165.651 299.857 164.212 305.396C163.046 309.886 161.83 315.203 164.384 319.457C166.543 323.056 170.778 324.71 174.606 325.88C179.682 327.432 184.86 328.774 190.031 329.988C195.451 331.26 200.947 332.291 206.514 332.698C211.513 333.06 216.729 333.105 221.589 331.718C226.206 330.402 229.9 327.591 232.435 323.527C234.97 319.463 236.326 314.999 237.613 310.522C240.612 300.067 242.351 289.262 242.81 278.4C243.039 273.001 242.95 267.583 242.548 262.19C242.351 259.512 242.071 256.835 241.714 254.17C241.357 251.506 241.052 249 240.319 246.526C239.663 244.313 238.492 242.354 236.581 241.006C234.67 239.658 232.613 238.952 230.454 238.405C225.225 237.07 219.748 236.567 214.36 236.694C211.666 236.758 208.978 237 206.316 237.413C205.036 237.61 204.482 235.651 205.775 235.454H205.788Z" fill="#BFD3B6"/>
<path d="M232.957 241.165C235.346 239.13 236.409 236.847 238.447 234.004C240.664 230.92 243.192 228.236 246.854 226.913C251.338 225.292 256.764 225.864 260.974 227.988C269.075 232.077 272.635 241.915 274.335 250.227C276.424 260.447 276.641 271.08 275.845 281.452C275.214 289.612 274.342 298.35 270.775 305.835C263.05 322.052 243.95 331.623 226.48 326.306C221.073 324.659 223.379 316.163 228.824 317.822C234.995 319.699 241.46 319.355 247.166 316.932C253.255 314.344 258.222 309.937 261.553 304.398C262.324 303.113 263.286 301.638 263.712 300.194C263.247 301.777 263.502 300.709 263.636 300.315C263.757 299.965 263.884 299.615 263.999 299.259C264.445 297.879 264.801 296.467 265.12 295.049C265.515 293.268 265.839 291.469 266.12 289.669C266.19 289.224 266.253 288.779 266.317 288.333C266.508 287.036 266.247 288.976 266.406 287.666C266.534 286.597 266.661 285.529 266.769 284.46C267.234 279.818 267.457 275.15 267.438 270.489C267.432 268.072 267.355 265.655 267.196 263.239C267.126 262.1 267.03 260.968 266.922 259.836C266.871 259.302 266.814 258.774 266.757 258.24C266.718 257.891 266.667 257.541 266.629 257.185C266.521 256.224 266.763 257.999 266.597 256.962C265.922 252.644 265.056 248.351 263.464 244.262C263.394 244.078 263.311 243.893 263.241 243.702C262.884 242.768 263.553 244.383 263.279 243.804C263.095 243.41 262.923 243.016 262.725 242.621C262.292 241.75 261.821 240.892 261.299 240.071C261.082 239.734 260.853 239.403 260.63 239.073C259.948 238.062 261.152 239.62 260.362 238.729C259.776 238.068 259.171 237.451 258.528 236.847C257.573 235.95 259.133 237.152 258.178 236.561C257.802 236.332 257.445 236.077 257.057 235.861C256.611 235.613 255.42 235.302 256.707 235.626C256.242 235.505 255.796 235.282 255.331 235.155C254.93 235.041 254.522 234.984 254.121 234.882C253.236 234.64 255.216 234.933 254.286 234.895C254.025 234.888 253.771 234.85 253.509 234.837C253.064 234.818 252.611 234.818 252.166 234.837C251.79 234.85 250.032 235.143 251.357 234.875C250.701 235.009 250.045 235.104 249.408 235.327C248.701 235.575 250.185 234.844 249.096 235.492C249.07 235.505 247.956 236.23 248.593 235.753C247.911 236.268 247.306 236.93 246.752 237.572C246.153 238.271 246.345 238.055 245.81 238.818C243.746 241.756 241.963 245.032 239.199 247.391C237.39 248.936 234.74 249.165 232.97 247.391C231.384 245.807 231.155 242.717 232.97 241.171L232.957 241.165Z" fill="#BFD3B6"/>
<path d="M232.231 240.447C233.766 239.111 234.887 237.489 236.001 235.798C237.116 234.106 238.32 232.345 239.702 230.786C242.326 227.823 245.682 225.762 249.631 225.177C253.579 224.592 258.018 225.298 261.687 227.212C264.795 228.834 267.317 231.359 269.272 234.233C273.469 240.408 275.214 248.065 276.246 255.347C277.571 264.74 277.475 274.209 276.685 283.64C275.966 292.194 274.775 300.957 270.501 308.563C267.056 314.7 261.903 319.858 255.834 323.413C249.815 326.942 242.841 328.907 235.842 328.793C234.027 328.761 232.218 328.583 230.429 328.284C228.779 328.004 227.015 327.686 225.474 327.012C223.105 325.976 222.015 323.432 222.499 320.958C222.983 318.484 224.939 316.595 227.448 316.595C228.212 316.595 228.926 316.805 229.652 317.009C230.766 317.32 231.9 317.568 233.046 317.74C235.288 318.071 237.594 318.096 239.848 317.842C247.873 316.92 255.235 311.966 259.732 305.352C260.865 303.685 262.12 301.86 262.725 299.927C263.113 298.681 265.062 299.202 264.687 300.468C264.578 300.836 264.476 301.199 264.324 301.549C264.062 302.127 263.12 302.21 262.725 301.752C262.215 301.161 262.521 300.429 262.744 299.781C263.228 298.369 263.636 296.944 263.973 295.488C264.585 292.874 264.884 290.222 265.406 287.596C265.642 286.407 267.323 286.788 267.406 287.869C267.425 288.13 267.33 288.429 267.228 288.658C266.82 289.58 265.26 289.116 265.33 288.143C265.495 285.777 265.865 283.418 266.043 281.052C266.253 278.209 266.381 275.36 266.413 272.511C266.444 269.662 266.387 266.851 266.228 264.028C266.145 262.629 266.043 261.229 265.909 259.837C265.814 258.889 265.54 257.846 265.585 256.892C265.636 255.786 267.304 255.461 267.584 256.619C267.635 256.829 267.686 257.083 267.674 257.299C267.635 258.412 265.954 258.717 265.674 257.573C265.413 256.511 265.317 255.379 265.12 254.298C264.884 253.032 264.629 251.766 264.324 250.514C264.018 249.261 263.68 248.014 263.279 246.787C263.063 246.126 262.833 245.464 262.585 244.816C262.445 244.447 262.228 244.065 262.145 243.684C261.916 242.583 263.4 241.865 264.005 242.901C264.132 243.118 264.26 243.423 264.324 243.671C264.572 244.637 263.343 245.401 262.623 244.663C262.292 244.326 262.158 243.798 261.961 243.378C261.674 242.774 261.362 242.176 261.025 241.598C260.687 241.019 260.305 240.421 259.916 239.849C259.668 239.486 259.426 239.181 259.394 238.729C259.33 237.966 260.305 237.451 260.929 237.852C261.254 238.062 261.496 238.399 261.63 238.761C261.922 239.537 261.069 240.167 260.375 240.014C259.738 239.874 259.165 238.927 258.751 238.501C258.248 237.985 257.496 237.489 257.229 236.79C256.961 236.09 257.624 235.569 258.209 235.505C258.649 235.454 259.165 235.887 259.381 236.23C259.598 236.574 259.56 237.19 259.222 237.464C258.496 238.043 257.872 237.591 257.216 237.178C256.904 236.981 256.598 236.777 256.254 236.637C256.057 236.555 255.783 236.51 255.611 236.389C254.675 235.709 255.229 234.316 256.394 234.532C256.585 234.57 256.783 234.628 256.968 234.672L256.426 236.631C255.636 236.396 254.885 236.135 254.082 235.944C253.547 235.817 253.108 235.645 252.898 235.085C252.707 234.577 253.108 233.96 253.611 233.833C254.038 233.725 254.662 233.807 255.044 234.023C255.617 234.354 255.707 235.155 255.248 235.62C254.649 236.237 253.299 235.849 252.554 235.855C251.981 235.861 251.427 235.995 250.86 236.014C250.21 236.033 249.688 235.346 249.879 234.729C250.057 234.151 250.554 234.011 251.076 233.909L251.618 235.868C251.102 235.969 250.586 236.052 250.083 236.192C249.79 236.275 249.51 236.408 249.204 236.408C248.567 236.408 248.013 235.753 248.223 235.124C248.363 234.71 248.79 234.329 249.236 234.252C249.949 234.125 250.752 234.704 250.49 235.505C250.293 236.109 249.28 236.733 248.669 236.917C247.593 237.241 247.109 235.95 247.675 235.219C247.777 235.085 247.943 235.003 248.077 234.901C248.981 234.202 250.223 235.785 249.312 236.497C247.599 237.846 246.618 239.416 245.427 241.216C244.115 243.2 242.81 245.216 241.16 246.952C239.714 248.479 237.957 249.782 235.747 249.674C233.728 249.579 231.944 248.339 231.148 246.482C230.289 244.472 230.575 241.986 232.244 240.472C233.212 239.594 234.658 241.025 233.683 241.909C232.339 243.13 232.416 245.426 233.683 246.692C235.39 248.396 237.657 247.512 239.16 246.068C240.956 244.345 242.3 242.246 243.663 240.186C244.886 238.335 246.102 236.446 247.866 235.06L249.102 236.656C249.134 236.631 249.14 236.631 249.115 236.656L248.121 234.958C247.733 235.073 248.287 234.818 248.421 234.736C248.472 234.704 248.522 234.666 248.58 234.634C249.032 234.348 248.733 234.341 248.523 234.965L249.777 236.217C249.669 236.237 249.994 236.103 249.879 236.173C249.58 236.364 250.108 235.912 250.191 235.671L249.21 234.386C249.07 234.386 248.994 234.462 249.14 234.373C249.331 234.259 249.618 234.227 249.828 234.176C250.242 234.074 250.669 234.004 251.089 233.922C252.369 233.674 252.917 235.626 251.63 235.88C251.471 235.912 251.306 235.938 251.146 235.989L251.86 235.276C251.535 234.85 251.204 234.424 250.879 233.992C251.287 233.979 251.688 233.877 252.089 233.845C252.471 233.82 252.86 233.82 253.242 233.833C253.509 233.839 253.764 233.864 254.032 233.884C254.643 233.922 254.267 233.731 253.821 234.182L254.025 235.779C254.331 235.957 254.146 235.836 253.993 235.817C254.242 235.855 253.7 235.906 254.165 235.791L254.879 234.539V234.551C254.726 234.348 254.573 234.144 254.414 233.941C254.076 233.775 254.605 233.966 254.637 233.973C254.879 234.03 255.121 234.068 255.363 234.125C255.917 234.259 256.433 234.494 256.98 234.659C258.235 235.035 257.713 236.949 256.439 236.618C256.248 236.567 256.057 236.51 255.866 236.478L256.649 234.621C256.382 234.424 256.624 234.596 256.808 234.666C257.05 234.755 257.292 234.85 257.522 234.965C257.815 235.111 258.088 235.302 258.362 235.48C258.496 235.562 258.636 235.645 258.764 235.734C258.853 235.791 259.082 235.855 258.77 235.76L257.776 236.02H257.783C257.732 236.427 257.674 236.834 257.624 237.248C257.77 237.477 257.649 237.343 257.821 237.458C257.585 237.299 257.853 237.572 258.209 237.528L259.19 236.243C259.146 236.128 258.834 235.849 259.025 235.919C259.095 235.944 259.197 236.084 259.248 236.135C259.56 236.44 259.878 236.739 260.19 237.057C260.464 237.337 260.725 237.623 260.986 237.909C261.056 237.992 261.177 238.087 261.235 238.183C261.362 238.399 261.623 238.202 260.916 238.043L259.662 239.295C259.763 239.556 259.611 239.416 259.897 239.607L261.432 238.729C261.368 237.941 261.228 238.24 261.419 238.431C261.591 238.602 261.712 238.863 261.852 239.067C262.209 239.594 262.547 240.141 262.859 240.695C263.145 241.197 263.413 241.712 263.668 242.234C263.782 242.469 263.89 242.704 263.999 242.939C264.075 243.111 264.381 243.537 264.069 243.219L262.368 244.211C262.356 244.173 262.298 243.976 262.279 243.976C262.241 243.976 262.228 243.747 262.26 243.919C262.286 243.97 262.273 244.021 262.26 243.919L264.12 243.137C264.203 243.518 264.419 243.906 264.559 244.269C264.808 244.917 265.037 245.579 265.253 246.24C265.648 247.467 265.992 248.714 266.298 249.967C266.604 251.22 266.858 252.485 267.094 253.751C267.291 254.832 267.387 255.964 267.648 257.026L265.648 257.299C265.655 257.108 265.699 257.452 265.629 257.159L267.629 256.886C267.584 257.833 267.858 258.876 267.954 259.83C268.081 261.172 268.189 262.52 268.266 263.862C268.431 266.737 268.489 269.624 268.457 272.505C268.425 275.386 268.304 278.101 268.1 280.893C267.922 283.316 267.54 285.72 267.374 288.136L265.476 287.621C265.234 288.168 265.419 287.59 265.381 287.838C265.355 288.022 265.381 287.895 265.381 287.857L267.381 288.13C266.909 290.515 266.635 292.932 266.107 295.316C265.814 296.639 265.483 297.956 265.075 299.247C264.865 299.914 264.534 300.588 264.432 301.288L264.171 300.296C263.636 300.366 263.107 300.436 262.572 300.506C262.477 300.716 262.528 300.627 262.572 300.468C262.617 300.283 262.687 300.092 262.738 299.914L264.699 300.455C264.082 302.426 262.903 304.232 261.776 305.949C260.782 307.469 259.655 308.913 258.42 310.242C255.885 312.977 252.847 315.266 249.522 316.945C245.809 318.815 241.772 319.896 237.613 320.017C235.428 320.08 233.237 319.87 231.097 319.432C230.123 319.234 229.187 318.923 228.225 318.694C227.754 318.586 227.27 318.573 226.798 318.688C224.99 319.12 224.124 321.308 224.525 322.987C224.76 323.979 225.429 324.767 226.372 325.168C227.792 325.778 229.473 326.045 230.989 326.3C237.53 327.406 244.376 326.433 250.465 323.839C256.554 321.244 262.063 316.99 266.056 311.667C270.813 305.313 272.979 297.771 274.004 289.993C275.157 281.236 275.603 272.289 275.055 263.474C274.577 255.76 273.463 247.722 270.406 240.561C269.107 237.508 267.387 234.577 265.05 232.205C262.508 229.635 259.311 227.956 255.757 227.282C251.949 226.564 247.828 227.053 244.542 229.203C241.256 231.352 239.294 234.564 237.224 237.667C236.205 239.2 235.097 240.656 233.702 241.871C232.715 242.73 231.269 241.292 232.263 240.434L232.231 240.447Z" fill="#BFD3B6"/>
<path d="M249.809 238.189C250.134 234.997 254.77 234.92 257.859 235.798C266.502 238.246 275.138 240.695 283.78 243.143C285.793 243.715 287.85 244.288 289.939 244.231C291.792 244.18 293.588 243.626 295.346 243.035C306.294 239.327 325.337 223.518 334.336 216.268C337.291 213.889 341.756 215.289 344.482 217.565C349.035 221.368 349.392 224.866 348.5 230.723C348.035 233.776 346.125 236.396 344.151 238.774C326.42 260.104 289.245 282.26 261.566 280.105C260.26 280.003 258.878 279.844 257.834 279.055C256.554 278.089 256.076 276.416 255.675 274.864C253.821 267.71 251.968 260.555 250.115 253.407" fill="#0B244A"/>
<path d="M248.79 238.189C249.293 234.291 253.745 233.979 256.866 234.526C259.299 234.952 261.706 235.823 264.082 236.497C266.827 237.273 269.571 238.049 272.316 238.831C275.061 239.614 277.806 240.383 280.551 241.165C283.296 241.947 285.876 242.927 288.608 243.162C292.448 243.499 296.384 241.738 299.741 240.001C306.702 236.402 313.09 231.664 319.299 226.926C322.331 224.611 325.324 222.239 328.292 219.848C329.559 218.824 330.827 217.8 332.094 216.777C333.483 215.651 334.801 214.455 336.629 214.144C340.8 213.425 344.946 215.95 347.462 219.111C349.978 222.271 350.169 225.763 349.698 229.502C349.392 231.899 348.736 234.03 347.43 236.084C346.284 237.89 344.876 239.537 343.469 241.146C340.864 244.122 338.055 246.921 335.119 249.579C328.693 255.398 321.662 260.562 314.255 265.064C306.848 269.567 298.709 273.586 290.366 276.524C282.723 279.208 274.673 281.09 266.546 281.262C264.629 281.3 262.687 281.268 260.776 281.058C258.35 280.785 256.445 279.793 255.445 277.478C254.446 275.163 253.981 272.422 253.337 269.929C252.637 267.22 251.936 264.511 251.229 261.808C250.522 259.105 249.828 256.39 249.121 253.687C248.79 252.422 250.758 251.875 251.083 253.147C252.446 258.412 253.809 263.672 255.172 268.937C255.808 271.392 256.28 273.98 257.165 276.359C257.515 277.3 258.063 278.158 258.999 278.591C259.935 279.023 261.12 279.074 262.165 279.144C269.705 279.634 277.271 278.362 284.494 276.27C292.537 273.942 300.256 270.565 307.593 266.552C315.032 262.489 322.121 257.757 328.693 252.409C331.757 249.916 334.712 247.283 337.508 244.498C340.304 241.712 342.947 238.978 345.131 235.842C346.443 233.96 347.303 232.001 347.609 229.725C347.844 227.976 348.023 226.125 347.698 224.376C347.055 220.91 344.157 217.864 340.902 216.637C339.145 215.975 337.081 215.727 335.406 216.751C334.183 217.502 333.088 218.57 331.973 219.473C329.266 221.667 326.547 223.848 323.802 225.991C317.726 230.742 311.542 235.416 304.938 239.41C302.231 241.051 299.428 242.59 296.461 243.715C294.384 244.504 292.168 245.191 289.926 245.254C287.366 245.331 284.863 244.517 282.43 243.83C277.195 242.348 271.96 240.866 266.725 239.378C264.082 238.628 261.438 237.884 258.795 237.133C257.057 236.644 255.331 236.192 253.509 236.389C252.427 236.51 250.981 236.93 250.815 238.202C250.745 238.749 250.395 239.213 249.796 239.219C249.3 239.219 248.707 238.749 248.777 238.202L248.79 238.189Z" fill="#0B244A"/>
<path d="M350.946 194.391C348.551 197.412 346.558 200.744 344.978 204.261C344.756 204.763 344.023 204.884 343.584 204.623C343.068 204.324 342.991 203.733 343.221 203.231C344.877 199.548 346.997 196.114 349.507 192.954C349.851 192.521 350.589 192.598 350.946 192.954C351.373 193.38 351.29 193.958 350.946 194.391Z" fill="#0B244A"/>
<path d="M340.858 203.714C339.38 207.613 339.055 211.842 339.992 215.905C340.284 217.177 338.323 217.724 338.03 216.446C337.017 212.045 337.297 207.403 338.896 203.174C339.094 202.659 339.584 202.309 340.151 202.461C340.641 202.595 341.055 203.199 340.864 203.714H340.858Z" fill="#0B244A"/>
<path d="M353.863 202.334C353.118 202.938 352.373 203.542 351.627 204.14C351.411 204.318 351.194 204.439 350.908 204.439C350.659 204.439 350.36 204.331 350.188 204.14C350.016 203.949 349.876 203.688 349.889 203.421C349.902 203.167 349.984 202.868 350.188 202.703C350.933 202.098 351.678 201.494 352.424 200.897C352.64 200.718 352.857 200.598 353.143 200.598C353.392 200.598 353.691 200.706 353.863 200.897C354.035 201.087 354.175 201.348 354.162 201.615C354.15 201.87 354.067 202.168 353.863 202.334Z" fill="#0B244A"/>
<path d="M356.697 206.226C355.977 206.696 355.258 207.173 354.532 207.644C354.315 207.784 353.99 207.816 353.748 207.746C353.506 207.676 353.258 207.498 353.137 207.275C353.009 207.04 352.952 206.754 353.035 206.493C353.118 206.232 353.271 206.035 353.506 205.882C354.226 205.412 354.946 204.935 355.672 204.464C355.888 204.324 356.213 204.293 356.455 204.362C356.697 204.432 356.945 204.61 357.066 204.833C357.194 205.068 357.251 205.355 357.168 205.615C357.085 205.876 356.933 206.073 356.697 206.226Z" fill="#0B244A"/>
<path d="M358.627 211.383C358.067 211.542 357.513 211.701 356.952 211.867C356.697 211.937 356.392 211.898 356.169 211.765C355.959 211.644 355.755 211.402 355.697 211.154C355.64 210.894 355.653 210.601 355.799 210.372C355.946 210.143 356.15 209.978 356.411 209.902C356.971 209.743 357.525 209.584 358.086 209.418C358.34 209.348 358.646 209.386 358.869 209.52C359.079 209.641 359.283 209.882 359.34 210.13C359.398 210.391 359.385 210.684 359.238 210.913C359.092 211.142 358.888 211.307 358.627 211.383Z" fill="#0B244A"/>
<path d="M356.831 215.479C355.525 219.708 352.532 223.346 348.602 225.406C347.443 226.01 346.411 224.255 347.577 223.651C351.048 221.839 353.71 218.684 354.869 214.939C355.258 213.692 357.219 214.226 356.831 215.479Z" fill="#0B244A"/>
<path d="M221.366 368.533C217.048 365.366 212.73 362.193 208.412 359.026C207.972 358.701 207.749 358.142 208.049 357.633C208.303 357.194 208.998 356.94 209.443 357.271C213.761 360.438 218.08 363.611 222.398 366.778C222.843 367.102 223.06 367.662 222.761 368.171C222.506 368.61 221.812 368.864 221.366 368.533Z" fill="#165C7E"/>
<path d="M235.256 251.067C231.333 253.108 232.333 258.768 231.989 262.374C231.779 264.594 231.199 266.8 229.62 268.454C228.04 270.107 225.805 270.839 223.62 271.195C218.468 272.028 213.048 271.945 207.858 271.646C202.667 271.347 197.164 270.578 191.935 269.389C185.993 268.04 180.204 266.107 174.619 263.671C173.421 263.15 174.453 261.395 175.644 261.916C185.274 266.12 195.636 268.689 206.113 269.497C211.271 269.891 216.494 269.91 221.652 269.414C223.71 269.217 226.009 268.848 227.658 267.5C229.416 266.069 229.875 263.792 230.002 261.636C230.257 257.388 229.722 251.658 234.218 249.318C235.377 248.714 236.409 250.469 235.244 251.073L235.256 251.067Z" fill="#0B244A"/>
<path d="M237.555 322.643C235.314 326.77 232.594 330.631 229.486 334.147C228.62 335.133 227.181 333.69 228.047 332.71C231.046 329.314 233.632 325.594 235.798 321.613C236.422 320.462 238.186 321.486 237.555 322.637V322.643Z" fill="#0B244A"/>
<path d="M234.734 184.744C237.301 186.137 240.001 187.669 241.402 190.226C243.498 194.067 241.988 198.798 240.409 202.875C239.523 205.158 238.524 207.574 236.517 208.98C236.129 209.253 235.651 209.489 235.186 209.387C234.811 209.304 234.518 209.012 234.256 208.725C232.46 206.811 230.811 204.764 229.327 202.595C227.722 200.255 226.302 197.743 225.665 194.983C225.028 192.223 225.257 189.17 226.779 186.779C227.62 185.462 228.805 184.4 230.066 183.478C231.511 182.429 233.339 181.513 235.027 182.105C236.04 182.461 236.798 183.3 237.422 184.171C238.422 185.571 239.199 187.135 239.702 188.782" fill="#BFD3B6"/>
<path d="M235.25 183.866C237.441 185.062 239.727 186.334 241.319 188.311C243.007 190.404 243.631 193.017 243.396 195.669C243.16 198.321 242.224 201.049 241.211 203.606C240.294 205.927 239.218 208.293 237.129 209.794C235.982 210.614 234.734 210.614 233.696 209.622C232.658 208.63 231.747 207.485 230.862 206.372C229.053 204.115 227.321 201.717 226.073 199.103C223.742 194.245 223.429 188.292 227.544 184.273C229.518 182.346 232.639 180.069 235.53 181.233C236.925 181.793 237.887 183.014 238.689 184.241C239.555 185.57 240.211 187.02 240.689 188.534C241.084 189.787 239.116 190.321 238.727 189.075C238.383 187.987 237.938 186.95 237.364 185.965C236.823 185.036 236.193 184.006 235.288 183.395C233.358 182.092 230.894 184.025 229.473 185.278C227.792 186.766 226.69 188.642 226.429 190.887C226.168 193.132 226.665 195.402 227.556 197.463C228.448 199.523 229.779 201.546 231.142 203.409C231.894 204.439 232.69 205.431 233.524 206.398C233.906 206.837 234.295 207.275 234.69 207.702C235.053 208.096 235.275 208.554 235.81 208.248C237.575 207.244 238.504 204.973 239.211 203.193C240.039 201.1 240.829 198.964 241.224 196.738C241.651 194.327 241.434 191.758 239.886 189.761C238.441 187.898 236.263 186.741 234.231 185.634C233.078 185.004 234.104 183.249 235.256 183.879L235.25 183.866Z" fill="#BFD3B6"/>
<path d="M236.517 182.963C236.823 181.494 238.504 180.655 240.007 180.75C241.51 180.845 242.867 181.628 244.185 182.353C245.465 183.052 246.784 183.72 248.21 184C248.669 184.089 249.14 184.14 249.554 184.343C249.968 184.547 250.331 184.947 250.325 185.412C250.312 185.984 249.777 186.385 249.274 186.652C247.242 187.733 244.797 188.013 242.574 187.421C240.351 186.83 238.364 185.38 237.135 183.434" fill="#BFD3B6"/>
<path d="M235.536 182.696C236.103 180.413 238.613 179.471 240.752 179.828C243.351 180.254 245.383 182.206 247.898 182.887C249.115 183.217 250.49 183.255 251.14 184.527C251.739 185.704 250.974 186.842 249.968 187.446C247.796 188.75 244.975 189.049 242.536 188.47C239.944 187.86 237.702 186.174 236.262 183.961C235.549 182.861 237.313 181.837 238.02 182.937C239.224 184.794 241.128 186.104 243.3 186.562C244.389 186.791 245.555 186.779 246.644 186.543C246.988 186.467 249.414 185.818 249.287 185.379C249.191 185.049 247.981 184.998 247.707 184.934C247.07 184.788 246.459 184.565 245.854 184.311C244.733 183.84 243.695 183.224 242.625 182.664C241.644 182.155 240.51 181.627 239.377 181.786C238.536 181.901 237.721 182.378 237.511 183.236C237.199 184.508 235.231 183.968 235.549 182.696H235.536Z" fill="#BFD3B6"/>
<path d="M244.217 198.385C243.803 197.043 243.122 195.784 242.217 194.709C241.918 194.359 241.581 194.009 241.148 193.863C240.345 193.59 239.428 194.098 239.001 194.836C238.575 195.574 238.536 196.464 238.6 197.316C238.702 198.652 239.052 200.019 239.906 201.056C240.759 202.092 242.205 202.709 243.491 202.315" fill="#0B244A"/>
<path d="M243.236 198.658C242.835 197.38 242.173 196.076 241.217 195.122C241.033 194.931 240.854 194.811 240.676 194.811C240.517 194.811 240.358 194.868 240.179 195.008C239.804 195.288 239.632 195.86 239.6 196.394C239.53 197.672 239.778 199.078 240.498 200.159C241.122 201.094 242.236 201.615 243.224 201.342C244.491 200.986 245.026 202.951 243.765 203.301C242.306 203.714 240.81 203.224 239.676 202.27C238.542 201.316 237.944 199.841 237.715 198.416C237.466 196.858 237.402 195.084 238.492 193.819C238.982 193.246 239.695 192.871 240.447 192.795C241.249 192.712 241.982 193.049 242.561 193.59C243.829 194.76 244.695 196.496 245.204 198.118C245.599 199.37 243.631 199.905 243.243 198.658H243.236Z" fill="#0B244A"/>
<path d="M229.021 202.378C227.862 208.096 225.506 214.061 220.532 217.12C218.946 218.093 216.768 218.671 215.322 217.501C214.488 216.827 214.125 215.74 213.437 214.919C211.475 212.566 207.603 213.12 205.062 214.824C202.521 216.528 200.616 219.098 197.973 220.649C195.33 222.201 191.305 222.258 189.796 219.594C189.254 218.646 189.127 217.495 188.509 216.592C187.904 215.714 186.898 215.174 185.86 214.926C183.127 214.277 180.293 215.447 177.867 216.859C175.44 218.271 173.09 219.982 170.345 220.567C167.467 221.183 164.333 220.427 162.047 218.576C160.811 217.571 159.773 216.089 159.951 214.512C160.085 213.317 160.888 212.306 161.728 211.441C167.033 205.94 174.797 203.364 182.427 202.754C190.057 202.143 197.693 203.281 205.297 204.165C212.895 205.049 220.672 205.66 228.142 204.019" fill="#BFD3B6"/>
<path d="M230.002 202.645C229.008 207.466 227.244 212.465 223.633 215.969C221.933 217.622 219.563 219.301 217.073 219.155C215.787 219.078 214.71 218.506 213.927 217.489C213.195 216.528 212.787 215.345 211.647 214.773C209.73 213.8 207.24 214.595 205.571 215.702C203.266 217.228 201.527 219.46 199.253 221.031C197.374 222.328 195.069 222.996 192.789 222.633C191.732 222.468 190.732 222.042 189.917 221.342C188.999 220.547 188.573 219.466 188.191 218.347C187.732 217.031 186.961 216.242 185.579 215.911C184.115 215.562 182.592 215.867 181.204 216.363C178.491 217.336 176.23 219.225 173.644 220.458C171.058 221.692 168.345 222.15 165.569 221.444C163.136 220.827 160.512 219.276 159.41 216.935C158.092 214.137 159.817 211.79 161.817 209.914C163.817 208.038 165.982 206.588 168.364 205.412C173.313 202.963 178.816 201.863 184.306 201.615C197.323 201.037 210.144 205.056 223.168 203.771C224.748 203.618 226.314 203.364 227.868 203.027C229.149 202.754 229.69 204.712 228.41 204.986C216.188 207.625 203.909 204.509 191.674 203.746C186.038 203.396 180.338 203.561 174.873 205.094C170.097 206.429 165.155 208.852 161.919 212.725C161.078 213.736 160.645 214.888 161.282 216.128C161.862 217.253 162.925 218.074 164.015 218.665C166.231 219.873 168.848 220.051 171.237 219.256C176.262 217.578 180.675 212.255 186.484 214.035C187.643 214.391 188.7 215.053 189.388 216.07C190.076 217.088 190.139 218.423 190.885 219.403C192.05 220.929 194.362 220.891 196.024 220.388C198.381 219.676 200.132 217.692 201.896 216.077C203.66 214.461 205.603 212.973 208.017 212.496C210.087 212.089 212.411 212.369 213.946 213.953C214.755 214.792 215.131 216.172 216.118 216.808C217.105 217.444 218.36 217.062 219.29 216.624C223.538 214.62 225.9 209.844 227.174 205.577C227.518 204.432 227.798 203.269 228.04 202.099C228.301 200.814 230.269 201.361 230.002 202.639V202.645Z" fill="#BFD3B6"/>
<path d="M228.919 206.054C228.919 205.997 228.907 205.933 228.907 205.876C228.894 205.736 228.913 205.933 228.919 205.972C228.894 205.864 228.881 205.755 228.862 205.654C228.817 205.45 228.76 205.253 228.69 205.056C228.677 205.018 228.665 204.98 228.645 204.948C228.569 204.744 228.747 205.164 228.658 204.973C228.614 204.884 228.575 204.795 228.531 204.706C228.435 204.522 228.327 204.344 228.206 204.172C228.18 204.134 228.149 204.089 228.117 204.051C228.015 203.905 228.231 204.185 228.149 204.096C228.085 204.019 228.021 203.943 227.958 203.873C227.817 203.72 227.665 203.574 227.505 203.441C227.467 203.409 227.429 203.377 227.391 203.345C227.295 203.269 227.575 203.479 227.429 203.377C227.346 203.32 227.27 203.263 227.181 203.212C226.996 203.097 226.805 202.995 226.607 202.906C226.391 202.805 226.2 202.518 226.136 202.296C226.066 202.054 226.098 201.73 226.238 201.514C226.563 201.011 227.111 200.916 227.633 201.151C229.55 202.016 230.811 204 230.957 206.067C230.996 206.601 230.461 207.11 229.938 207.085C229.352 207.059 228.957 206.639 228.919 206.067V206.054Z" fill="#0B244A"/>
<path d="M225.665 201.609C232.11 198.003 236.447 191.377 238.676 184.343C239.039 183.198 239.358 181.977 239.078 180.807C238.797 179.637 237.734 178.568 236.536 178.696C236.078 178.747 235.638 178.956 235.18 178.899C234.639 178.829 234.231 178.397 233.811 178.047C231.645 176.247 228.378 176.463 225.792 177.583C223.206 178.702 221.016 180.565 218.564 181.952C216.742 182.976 214.57 183.974 213.997 185.977C213.424 187.968 214.774 190.035 216.43 191.281C218.08 192.528 220.073 193.284 221.665 194.607C220.653 195.701 220.888 197.533 221.799 198.715C222.71 199.898 224.111 200.572 225.487 201.157" fill="#165C7E"/>
<path d="M225.149 200.731C228.715 198.709 231.632 195.758 233.842 192.324C234.957 190.594 235.912 188.763 236.689 186.855C237.059 185.939 237.396 185.011 237.695 184.069C238.027 183.026 238.447 181.742 237.963 180.673C237.797 180.304 237.479 179.917 237.09 179.764C236.645 179.592 236.18 179.828 235.727 179.878C234.486 180.025 233.861 179.293 232.932 178.632C231.409 177.551 229.384 177.557 227.645 178.009C225.512 178.562 223.665 179.853 221.856 181.061C220.945 181.672 220.041 182.276 219.086 182.816C218.226 183.306 217.322 183.751 216.519 184.33C215.717 184.909 214.997 185.666 214.895 186.683C214.78 187.815 215.455 188.922 216.207 189.71C217.92 191.51 220.461 192.318 222.385 193.876C222.837 194.244 222.71 194.931 222.385 195.313C221.665 196.171 222.092 197.513 222.754 198.27C223.601 199.237 224.837 199.771 225.996 200.267C226.505 200.49 226.607 201.221 226.359 201.66C226.06 202.181 225.467 202.238 224.964 202.022C223.296 201.304 221.519 200.394 220.608 198.741C219.697 197.087 219.767 195.275 220.945 193.869V195.307C218.971 193.717 216.424 192.941 214.678 191.046C213.086 189.316 212.214 186.823 213.456 184.642C214.589 182.651 216.895 181.767 218.755 180.635C220.965 179.293 223.003 177.653 225.397 176.629C227.454 175.751 229.868 175.344 232.059 175.986C233.174 176.311 233.989 176.915 234.893 177.614C235.441 178.04 235.899 177.703 236.536 177.659C237.122 177.621 237.695 177.767 238.211 178.047C240.638 179.37 240.364 182.359 239.657 184.591C238.95 186.823 238.033 189.023 236.918 191.09C234.415 195.745 230.804 199.841 226.174 202.461C225.034 203.11 224.002 201.354 225.149 200.706V200.731Z" fill="#165C7E"/>
<path d="M216.385 289.567C216.901 292.899 212.048 292.2 210.125 292.079C206.743 291.863 203.374 291.5 200.018 291.004C193.298 290.006 186.669 288.435 180.217 286.305C176.58 285.103 173.007 283.716 169.505 282.184C168.307 281.656 169.345 279.907 170.53 280.428C181.714 285.332 193.7 288.48 205.851 289.701C207.514 289.866 209.182 290 210.857 290.095C211.698 290.146 212.558 290.235 213.398 290.209C213.628 290.203 213.857 290.171 214.074 290.101C214.379 290 214.379 289.866 214.417 290.114C214.22 288.836 216.182 288.282 216.379 289.573L216.385 289.567Z" fill="#0B244A"/>
<path d="M280.768 306.083C285.175 307.603 290.429 305.93 293.021 302.026C293.741 300.938 295.505 301.956 294.779 303.05C291.703 307.686 285.513 309.873 280.22 308.042C278.991 307.616 279.52 305.651 280.762 306.083H280.768Z" fill="#0B244A"/>
<path d="M297.174 291.717C296.461 292.047 295.792 292.454 295.174 292.931L295.378 292.772C295.041 293.033 294.722 293.313 294.423 293.612C294.041 293.987 293.353 294.019 292.983 293.612C292.614 293.205 292.576 292.575 292.983 292.175C293.9 291.265 294.977 290.502 296.149 289.962C296.403 289.841 296.652 289.783 296.932 289.86C297.168 289.923 297.422 290.108 297.543 290.33C297.671 290.566 297.728 290.852 297.645 291.113C297.569 291.348 297.416 291.609 297.174 291.723V291.717Z" fill="#0B244A"/>
<path d="M292.206 289.561C292.009 289.682 291.824 289.809 291.64 289.949L291.843 289.79C291.429 290.108 291.054 290.483 290.735 290.897L290.894 290.693C290.646 291.011 290.436 291.355 290.257 291.717C290.149 291.933 289.875 292.124 289.646 292.188C289.404 292.258 289.079 292.226 288.863 292.086C288.646 291.946 288.455 291.736 288.391 291.475C288.328 291.196 288.366 290.948 288.493 290.693C289.079 289.504 290.041 288.499 291.175 287.812C291.633 287.539 292.315 287.698 292.569 288.175C292.824 288.652 292.69 289.275 292.206 289.567V289.561Z" fill="#0B244A"/>
<path d="M286.283 289.72C285.857 290.095 285.455 290.496 285.08 290.922C284.889 291.132 284.71 291.354 284.532 291.577C284.596 291.494 284.564 291.539 284.519 291.596C284.475 291.66 284.424 291.723 284.379 291.787C284.296 291.901 284.213 292.016 284.137 292.137C283.825 292.595 283.545 293.065 283.29 293.555C283.163 293.809 283.035 294.064 282.921 294.324C282.908 294.356 282.825 294.553 282.895 294.388C282.87 294.445 282.85 294.502 282.825 294.566C282.768 294.712 282.71 294.859 282.659 295.011C282.481 295.514 281.959 295.901 281.405 295.723C280.914 295.564 280.5 295.011 280.691 294.471C281.545 292.105 282.959 289.962 284.844 288.296C285.245 287.946 285.895 287.876 286.283 288.296C286.64 288.683 286.71 289.358 286.283 289.733V289.72Z" fill="#0B244A"/>
<path d="M299.416 299.927C298.295 301.021 296.474 301.237 295.2 300.264C294.474 299.711 294.588 298.75 295.442 298.407C297.843 297.447 299.868 299.793 300.868 301.682C302.333 304.461 303.619 307.342 305.001 310.166C307.797 315.896 310.625 321.613 313.472 327.324C319.166 338.739 324.949 350.103 330.833 361.423C336.712 372.743 342.686 384.012 348.749 395.23C354.812 406.449 360.971 417.622 367.225 428.739C373.479 439.855 379.867 451.016 386.331 462.081C387.121 463.436 387.911 464.791 388.707 466.139C389.369 467.271 387.611 468.295 386.949 467.163C380.606 456.345 374.345 445.483 368.174 434.564C362.002 423.651 355.92 412.681 349.933 401.666C343.915 390.607 337.986 379.497 332.152 368.336C326.337 357.226 320.618 346.071 314.988 334.866C312.173 329.263 309.377 323.654 306.606 318.026C305.224 315.215 303.842 312.398 302.467 309.581C301.779 308.169 301.097 306.763 300.409 305.352C299.804 304.111 299.282 302.77 298.473 301.644C297.887 300.83 297.059 299.933 295.996 300.359L296.238 298.502C296.792 298.922 297.461 298.998 297.983 298.483C298.919 297.567 300.365 299.005 299.422 299.921L299.416 299.927Z" fill="#BFD3B6"/>
<path d="M463.521 348.755H370.587C369.276 348.755 369.276 346.72 370.587 346.72H406.871C418.965 346.72 431.059 346.72 443.154 346.72H463.521C464.833 346.72 464.833 348.755 463.521 348.755Z" fill="#BFD3B6"/>
<path d="M458.948 347.07C460.037 344.851 458.999 341.073 456.853 339.846C454.707 338.618 451.662 339.35 450.3 341.41C449.491 337.855 444.338 336.246 441.644 338.701C441.479 334.822 440.835 330.841 438.778 327.546C436.721 324.252 432.995 321.785 429.123 322.122C426.875 322.319 424.792 323.419 422.958 324.735C418.213 328.144 414.685 333.206 413.131 338.828C413.22 333.626 407.877 329.327 402.68 329.677C397.483 330.027 393.05 334.23 391.471 339.191C390.267 336.939 387.363 335.75 384.924 336.526C382.484 337.295 380.79 339.935 381.109 342.466C377.784 340.437 372.32 343.515 373.53 347.216" fill="#BFD3B6"/>
<path d="M458.07 346.561C458.853 344.857 458.171 342.262 456.783 341.047C455.165 339.629 452.357 340.233 451.179 341.925C450.701 342.605 449.542 342.586 449.319 341.683C448.618 338.885 444.593 337.48 442.364 339.426C441.695 340.011 440.664 339.616 440.625 338.707C440.371 333.022 438.836 326.312 433.04 323.807C427.244 321.301 421.634 326.344 418.385 330.567C416.424 333.111 414.978 336.017 414.112 339.108C413.8 340.208 412.106 339.998 412.112 338.834C412.125 334.128 407.412 330.503 402.903 330.694C397.98 330.904 393.929 334.993 392.458 339.47C392.197 340.278 391.044 340.507 390.598 339.712C389.579 337.899 387.337 336.888 385.312 337.48C383.179 338.103 381.924 340.335 382.14 342.472C382.223 343.267 381.223 343.706 380.606 343.349C378.287 342.008 373.568 343.769 374.523 346.949C374.899 348.208 372.938 348.742 372.562 347.489C371.071 342.542 377.797 339.368 381.637 341.594L380.102 342.472C379.797 339.438 381.835 336.379 384.771 335.521C387.707 334.662 390.904 336.1 392.362 338.688L390.503 338.93C391.91 334.631 395.133 330.923 399.432 329.346C403.642 327.807 408.437 329.009 411.482 332.29C413.144 334.084 414.163 336.379 414.157 338.834L412.157 338.561C413.902 332.354 417.901 326.751 423.347 323.247C426.149 321.447 429.442 320.506 432.709 321.517C435.734 322.452 438.282 324.678 439.874 327.387C441.88 330.802 442.491 334.809 442.67 338.707L440.931 337.988C444.268 335.069 450.198 336.78 451.287 341.143L449.427 340.901C451.268 338.255 455.267 337.276 457.923 339.349C460.267 341.181 461.063 344.92 459.84 347.585C459.292 348.774 457.535 347.737 458.082 346.561H458.07Z" fill="#BFD3B6"/>
<path d="M378.262 305.447C361.869 305.447 345.482 305.447 329.088 305.447H315.128C313.816 305.447 313.816 303.412 315.128 303.412H364.301C368.957 303.412 373.606 303.412 378.262 303.412C379.574 303.412 379.574 305.447 378.262 305.447Z" fill="#BFD3B6"/>
<path d="M374.753 304.76C373.231 304.188 372.103 302.922 371.008 301.726C369.912 300.531 368.69 299.316 367.116 298.922C365.543 298.528 363.556 299.329 363.263 300.925C362.55 299.132 360.251 298.159 358.461 298.89C356.78 295.99 355.016 292.995 352.264 291.068C349.519 289.141 345.494 288.594 342.896 290.718C341.189 292.117 340.418 294.362 340.055 296.537C338.954 293.993 335.846 292.505 333.171 293.236C330.496 293.968 328.585 296.836 328.935 299.583C328.343 298.349 326.853 297.618 325.515 297.911C324.178 298.197 323.121 299.481 323.095 300.849C322.299 299.405 320.127 298.973 318.834 299.99C317.542 301.014 317.471 303.221 318.694 304.327" fill="#BFD3B6"/>
<path d="M374.485 305.739C372.141 304.792 370.836 302.782 369.014 301.161C368.225 300.455 367.212 299.768 366.097 299.85C365.25 299.914 364.448 300.334 364.244 301.199C364.059 301.994 362.735 302.254 362.384 301.44C361.76 300.009 360.206 299.323 358.735 299.876C358.321 300.029 357.799 299.774 357.582 299.405C355.551 295.901 353.207 291.78 349.003 290.648C347.207 290.165 345.138 290.254 343.622 291.437C341.991 292.709 341.38 294.858 341.049 296.804C340.902 297.637 339.539 297.822 339.189 297.046C338.234 294.966 335.845 293.612 333.559 294.191C331.273 294.769 329.712 297.218 329.967 299.583C330.075 300.601 328.521 300.951 328.069 300.098C327.095 298.254 324.254 298.642 324.127 300.849C324.069 301.835 322.77 302.254 322.229 301.364C321.688 300.474 320.318 300.118 319.471 300.798C318.624 301.478 318.688 302.884 319.433 303.609C320.369 304.525 318.93 305.962 317.994 305.046C316.382 303.475 316.427 300.607 318.236 299.195C320.044 297.784 322.821 298.407 323.993 300.334L322.095 300.849C322.203 299.03 323.433 297.351 325.267 296.931C327.101 296.512 328.986 297.459 329.84 299.075L327.942 299.59C327.598 296.353 329.852 293.033 333.03 292.232C336.208 291.43 339.628 293.116 340.96 296.022L339.1 296.264C339.514 293.866 340.405 291.399 342.386 289.853C344.227 288.41 346.615 288.098 348.87 288.524C354.003 289.497 356.939 294.197 359.359 298.375L358.206 297.904C360.448 297.071 363.2 298.21 364.155 300.404L362.295 300.645C362.913 297.974 366.136 297.281 368.365 298.28C369.657 298.858 370.702 299.876 371.657 300.9C372.613 301.924 373.651 303.202 375.039 303.768C376.237 304.251 375.714 306.223 374.498 305.727L374.485 305.739Z" fill="#BFD3B6"/>
</svg>
