<svg width="24" height="24" viewBox="0 0 24 24" fill="none" xmlns="http://www.w3.org/2000/svg">
<g clip-path="url(#clip0_170_173)">
<path fill-rule="evenodd" clip-rule="evenodd" d="M4.06785 1.02194C5.70365 0.889035 8.2993 0.75 12 0.75C15.7007 0.75 18.2963 0.88904 19.9321 1.02195C21.5761 1.15552 22.8445 2.42393 22.9781 4.06785C23.111 5.70365 23.25 8.2993 23.25 12C23.25 15.7007 23.111 18.2963 22.9781 19.9321C22.8445 21.576 21.576 22.8445 19.9321 22.9781C18.2963 23.111 15.7007 23.25 12 23.25C8.2993 23.25 5.70365 23.111 4.06784 22.9781C2.42392 22.8445 1.15551 21.576 1.02194 19.9321C0.889035 18.2963 0.75 15.7007 0.75 12C0.75 8.2993 0.88904 5.70365 1.02195 4.06784C1.15552 2.42392 2.42393 1.15551 4.06785 1.02194ZM17.5728 9.81185C17.8412 9.4001 17.9061 8.86645 17.6155 8.47015C17.2579 7.9824 16.806 7.6414 16.4085 7.41145C15.869 7.09935 15.2226 7.33725 14.8637 7.84685C12.6722 10.9584 11.3077 12.9782 11.3077 12.9782C11.3077 12.9782 10.4872 11.9581 9.12315 10.4913C8.64985 9.9823 7.8816 9.88025 7.35725 10.3364C7.07375 10.5831 6.76595 10.8876 6.49295 11.2386C6.1442 11.687 6.21795 12.3076 6.5747 12.7497C7.9237 14.4215 9.2267 15.7871 10.159 16.7061C10.915 17.4514 12.0993 17.3897 12.7643 16.5622C13.7797 15.299 15.4065 13.1358 17.5728 9.81185Z" fill="#F25D1D"/>
</g>
<defs>
<clipPath id="clip0_170_173">
<rect width="24" height="24" fill="white"/>
</clipPath>
</defs>
</svg>
