<svg width="34" height="34" viewBox="0 0 34 34" fill="none" xmlns="http://www.w3.org/2000/svg">
<path fill-rule="evenodd" clip-rule="evenodd" d="M0.125 17C0.125 7.6802 7.6802 0.125 17 0.125C26.3198 0.125 33.875 7.6802 33.875 17C33.875 26.3198 26.3198 33.875 17 33.875C7.6802 33.875 0.125 26.3198 0.125 17ZM9.22812 20.7044C8.72307 21.2544 8.5817 22.0252 9.0173 22.6318C9.26712 22.9796 9.61805 23.4055 10.107 23.8945C10.596 24.3834 11.0218 24.7343 11.3698 24.9841C11.9763 25.4197 12.7471 25.2784 13.297 24.7733C14.0019 24.1261 15.177 23.019 17.0011 21.226C18.8251 23.019 20.0003 24.1261 20.7052 24.7733C21.2552 25.2784 22.0259 25.4197 22.6324 24.9841C22.9803 24.7343 23.4061 24.3834 23.8951 23.8945C24.3842 23.4055 24.7351 22.9796 24.9849 22.6318C25.4205 22.0252 25.2791 21.2544 24.774 20.7044C24.1269 19.9996 23.0197 18.8244 21.2267 17.0004C23.0199 15.1761 24.1273 14.0007 24.7745 13.2959C25.2796 12.7458 25.4209 11.9751 24.9853 11.3685C24.7355 11.0207 24.3846 10.5949 23.8956 10.1059C23.4066 9.61685 22.9808 9.26593 22.6329 9.0161C22.0264 8.5805 21.2556 8.72187 20.7056 9.22692C20.0007 9.87418 18.8254 10.9815 17.001 12.7747C15.1768 10.9815 14.0014 9.87418 13.2966 9.22692C12.7466 8.72187 11.9758 8.58057 11.3693 9.0161C11.0214 9.26593 10.5956 9.61685 10.1066 10.1059C9.6176 10.5949 9.26667 11.0207 9.01685 11.3685C8.58125 11.9751 8.72262 12.7458 9.22767 13.2959C9.87492 14.0007 10.9822 15.1761 12.7755 17.0004C10.9824 18.8244 9.8753 19.9996 9.22812 20.7044Z" fill="#E53238"/>
</svg>
