<svg width="34" height="34" viewBox="0 0 34 34" fill="none" xmlns="http://www.w3.org/2000/svg">
<path fill-rule="evenodd" clip-rule="evenodd" d="M13.3474 1.42303C15.475 -0.307678 18.5251 -0.307678 20.6526 1.42303L21.0805 1.77118L21.6253 1.68366C24.3331 1.24858 26.9745 2.77364 27.9517 5.33625L28.1483 5.85172L28.6638 6.04828C31.2264 7.02545 32.7514 9.66688 32.3163 12.3748L32.2288 12.9195L32.577 13.3474C34.3077 15.475 34.3077 18.5251 32.577 20.6526L32.2288 21.0805L32.3163 21.6253C32.7514 24.3331 31.2264 26.9745 28.6638 27.9517L28.1483 28.1483L27.9517 28.6638C26.9745 31.2264 24.3331 32.7514 21.6253 32.3163L21.0805 32.2288L20.6526 32.577C18.5251 34.3077 15.475 34.3077 13.3474 32.577L12.9195 32.2288L12.3748 32.3163C9.66688 32.7514 7.02545 31.2264 6.04828 28.6638L5.85172 28.1483L5.33625 27.9517C2.77364 26.9745 1.24858 24.3331 1.68366 21.6253L1.77118 21.0805L1.42303 20.6526C-0.307678 18.5251 -0.307678 15.475 1.42303 13.3474L1.77118 12.9195L1.68366 12.3748C1.24858 9.66688 2.77364 7.02545 5.33625 6.04828L5.85172 5.85172L6.04828 5.33625C7.02545 2.77364 9.66688 1.24858 12.3748 1.68366L12.9195 1.77118L13.3474 1.42303ZM25.3593 13.7178C25.7618 13.1002 25.8592 12.2997 25.4233 11.7052C24.8868 10.9736 24.2089 10.4621 23.6128 10.1172C22.8035 9.64903 21.8338 10.0059 21.2955 10.7703C18.0082 15.4376 15.9616 18.4674 15.9616 18.4674C15.9616 18.4674 14.7309 16.9372 12.6847 14.7369C11.9748 13.9735 10.8224 13.8204 10.0359 14.5047C9.61063 14.8747 9.14893 15.3314 8.73943 15.8579C8.2163 16.5306 8.32693 17.4614 8.86205 18.1245C10.8856 20.6323 12.8401 22.6807 14.2385 24.0592C15.3725 25.177 17.149 25.0846 18.1465 23.8433C19.6696 21.9485 22.1097 18.7038 25.3593 13.7178Z" fill="#00BBD2"/>
</svg>
