<svg width="415" height="438" viewBox="0 0 415 438" fill="none" xmlns="http://www.w3.org/2000/svg">
<g clip-path="url(#clip0_139_569)">
<path d="M130.507 215.198C110.953 221.934 96.4731 240.107 93.9665 260.456C92.2756 272.467 97 283.371 97.5178 295.649C97.8661 303.803 96.0881 312.609 90.878 319.184C84.1739 327.839 73.584 329.868 63.4386 330.46C57.7931 330.92 52.3125 330.961 47.3406 332.931C38.6341 336.769 34.5558 350.139 39.1152 358.404C40.5679 360.984 42.8499 362.862 44.9074 365.442C48.7887 369.988 50.9241 376.31 49.1736 382.274C46.5021 391.452 37.4427 397.164 29.0615 400.149C28.5528 400.323 28.0029 400.048 27.8288 399.538C27.7142 399.194 27.8013 398.826 28.0258 398.574C31.9071 394.097 40.435 384.437 37.6534 378.44C37.3602 377.876 36.9798 377.384 36.5353 376.939C35.6647 376.044 34.0609 374.923 31.8292 373.316C29.2952 371.567 26.3258 368.831 24.4607 366.108C15.9558 354.056 17.2343 336.787 26.2158 325.387C30.7432 319.455 37.878 315.167 45.3427 314.028C51.5335 312.981 57.3944 313.486 63.182 313.771C69.3911 314.005 76.0585 314.377 80.2193 309.432C84.0502 304.758 84.8796 298.087 84.6917 292.127C84.5588 286.007 83.3537 278.706 83.3124 271.957C83.262 267.554 83.7248 263.082 84.7055 258.807C89.6865 236.801 107.737 217.701 130.03 213.376C130.539 213.274 131.033 213.61 131.134 214.124C131.226 214.597 130.951 215.051 130.507 215.198Z" fill="white" fill-opacity="0.2"/>
<path d="M124.293 308.445C124.22 322.536 111.352 331.425 101.931 339.891C97.9075 343.597 94.1408 347.697 92.3811 352.83C90.9193 357.568 92.0237 365.121 96.9819 367.1C99.3784 367.811 101.761 366.916 104.24 366.14C108.053 364.827 112.246 363.514 116.342 362.903C121.75 362.036 127.436 362.15 132.83 363.835C142.435 366.792 150.71 375.332 151.517 385.663C152.058 392.036 150.495 396.338 149.808 401.976C149.62 403.344 149.84 405.314 150.234 406.191C150.376 406.577 150.55 406.746 150.523 406.678C150.513 406.622 150.266 406.296 149.922 406.14C149.854 406.081 149.748 406.076 149.684 406.039C149.62 405.993 149.533 406.012 149.469 405.97C149.404 405.938 149.313 405.957 149.272 405.938C149.217 405.934 149.152 405.952 149.143 405.943C150.715 405.782 152.901 404.529 154.665 403.555C165.351 397.366 181.38 393.252 191.1 403.464C195.26 407.798 196.447 413.978 196.631 419.598C196.768 422.894 196.846 426.466 198.239 429.506C199.114 431.421 200.379 433.133 202.629 433.927C203.161 434.084 203.463 434.662 203.275 435.186C203.161 435.511 202.886 435.736 202.579 435.81C196.104 437.036 190.953 430.888 188.547 425.585C188.291 425.057 187.933 424.157 187.7 423.606C187.017 421.935 186.233 419.878 185.532 418.358C184.597 416.384 183.598 414.556 181.784 413.629C176.931 411.581 168.793 416.521 164.705 419.497C160.32 422.701 153.629 426.306 147.035 425.447C134.053 423.886 128.894 410.507 131.496 399.152C132.037 396.691 132.954 393.936 133.678 391.664C134.383 389.469 134.81 387.77 134.892 386.512C134.988 385.277 134.791 384.189 134.228 383.027C132.775 380.199 129.842 378.142 126.822 377.201C121.951 375.677 116.37 376.227 111.293 377.343C107.008 378.326 102.545 379.671 97.8663 379.111C86.3003 377.885 80.7006 365.874 82.4557 355.323C83.2942 349.313 87.0839 343.863 91.3318 339.813C100.671 330.713 113.52 326.696 120.109 315.185C121.273 313.068 122.098 310.759 122.423 308.325C122.492 307.807 122.969 307.449 123.482 307.517C123.949 307.582 124.293 307.981 124.298 308.44L124.293 308.445Z" fill="white" fill-opacity="0.2"/>
<path d="M157.291 285.456C166.309 289.437 167.89 301.2 165.878 309.841C164.618 315.497 162.281 320.869 160.792 326.282C159.486 331.03 158.922 335.681 161.044 340.268C162.62 343.624 165.14 346.494 168.815 345.676C170.231 345.378 171.936 344.386 173.819 342.876C176.88 340.438 180.326 336.792 184.084 334.391C187.42 332.136 191.975 330.562 196.296 331.021C203.101 331.576 208.861 336.618 211.679 342.554C213.356 345.947 214.154 349.983 214.392 353.67C214.621 356.93 214.484 360.107 214.387 363.216L200.512 356.673C202.785 354.207 205.488 352.205 208.394 350.695C220.665 344.285 236.397 346.962 244.897 358.289C250.616 365.644 252.641 375.778 249.924 384.726C248.393 389.901 245.076 394.717 243.174 399.038C242.716 400.227 242.358 400.98 242.28 402.059C242.335 402.798 242.482 403.376 243.014 404.038C245.021 406.246 250.474 407.279 253.604 408.165C258.429 409.455 263.754 411.026 267.135 414.97C267.479 415.378 267.429 415.994 267.021 416.338C266.737 416.577 266.365 416.627 266.04 416.503C263.896 415.796 261.797 415.594 259.629 415.649C257.792 415.626 254.85 416.016 252.967 416.182C247.445 416.756 241.795 417.307 236.507 414.69C231.182 412.141 227.681 406.223 227.53 400.41C227.172 393.601 230.54 387.086 232.025 381.25C232.634 378.711 232.272 376.035 231.296 373.633C229.276 368.624 225.005 365.575 219.698 365.644C216.917 365.667 214.067 366.567 212.041 368.234L211.028 369.07C207.647 371.857 202.652 371.365 199.875 367.981C198.386 366.163 197.836 363.849 198.17 361.696C198.94 356.163 200.489 349.083 195.952 345.249C193.547 343.459 190.696 345.428 187.791 347.389C184.396 349.772 180.326 353.206 175.987 355.043C159.38 362.059 148.025 344.611 152.126 329.529C153.286 324.804 155.522 320.208 157.557 315.975C159.49 311.911 161.378 308.059 162.098 303.679C162.904 298.353 162.299 292.077 158.029 288.325L157.667 287.995C157.543 287.894 157.401 287.807 157.268 287.715L156.457 287.155L156.347 287.081C155.921 286.787 155.815 286.204 156.108 285.777C156.374 285.392 156.883 285.268 157.291 285.47V285.456Z" fill="white" fill-opacity="0.2"/>
<path d="M0.045941 410.139C3.27653 398.78 11.9464 388.872 24.6946 389.657C29.8865 389.956 34.3039 392.692 37.8324 396.228C39.5966 397.871 44.3165 402.44 46.1128 404.184C48.3902 406.342 51.0388 409.318 53.6508 410.846C54.8789 411.549 56.0291 411.884 57.2159 411.682C57.6329 411.595 57.8895 411.43 57.9033 411.26C57.917 411.186 57.8666 411.122 57.8024 411.085C57.7291 411.071 57.7016 410.989 57.6879 410.975C57.665 410.883 57.8299 410.704 58.1828 410.296C58.5311 409.878 59.0351 409.235 59.6262 408.431C63.5579 402.931 68.1312 396.526 75.5455 395.3C83.89 393.895 90.4428 399.552 92.592 407.192C93.009 408.597 93.3023 410.011 93.4306 411.471C93.5222 412.284 92.6149 412.908 91.8909 412.536C90.5941 411.903 89.3935 411.26 88.2341 410.681C86.447 409.795 80.3341 406.815 79.7475 409.85C79.8529 410.824 79.5597 411.269 79.0739 412.44C78.1804 414.469 77.296 416.678 76.0083 418.891C70.1337 429.492 58.586 433.032 48.0924 426.508C43.8353 423.845 40.788 420.158 37.9469 416.352C35.4266 412.945 31.4674 407.504 29.0296 404.037C27.8198 402.38 27.0042 401.14 25.4828 400.029C21.3862 397.403 15.8598 398.188 11.6577 400.713C7.52899 403.17 4.42671 406.902 1.75976 410.925C1.19612 411.824 -0.261079 411.195 0.0505234 410.135H0.045941V410.139Z" fill="white" fill-opacity="0.2"/>
<path d="M162.89 220.469C152.158 223.137 141.422 225.809 130.69 228.477C133.87 228.518 137.032 228.839 140.134 229.427C133.233 231.438 126.447 233.908 119.834 236.81C125.631 236.865 131.428 236.92 137.224 236.975C133.114 238.908 129.004 240.846 124.893 242.779C127.908 242.972 130.924 243.164 133.939 243.362C127.441 247.926 120.939 252.485 114.441 257.049C119.761 255.984 125.086 254.923 130.406 253.858C127.423 257.448 124.444 261.039 121.461 264.634C124.288 263.445 127.116 262.255 129.948 261.066C124.504 270.603 119.055 280.143 113.611 289.68C121.901 283.128 130.195 276.571 138.485 270.019C138.769 273.541 139.053 277.063 139.337 280.584C142.375 275.286 145.413 269.987 148.447 264.689C150.17 267.701 151.609 270.887 152.731 274.188C154.596 268.592 156.457 262.999 158.322 257.402C159.848 261.461 161.378 265.525 162.904 269.583C164.453 262.733 166.002 255.883 167.546 249.032C169.966 253.187 172.385 257.338 174.805 261.493C174.933 249.505 173.815 237.558 171.464 225.91" fill="white"/>
<path d="M162.657 219.62C154.294 221.7 145.926 223.78 137.564 225.86C135.195 226.447 132.825 227.039 130.456 227.627C129.48 227.871 129.705 229.349 130.69 229.363C133.783 229.409 136.858 229.712 139.896 230.281V228.578C132.903 230.621 126.057 233.128 119.385 236.052C118.547 236.42 119.019 237.692 119.83 237.696C125.626 237.751 131.423 237.806 137.22 237.861L136.775 236.218C132.665 238.151 128.555 240.088 124.444 242.021C123.592 242.421 124.096 243.614 124.889 243.665C127.904 243.858 130.919 244.051 133.934 244.248L133.49 242.604C126.992 247.168 120.49 251.727 113.992 256.291C113.172 256.865 113.666 258.105 114.67 257.907C119.99 256.842 125.315 255.782 130.635 254.716L129.778 253.238C126.795 256.828 123.816 260.419 120.833 264.014C120.581 264.322 120.485 264.726 120.696 265.084C120.875 265.391 121.337 265.639 121.69 265.488C124.518 264.299 127.345 263.109 130.177 261.92L129.182 260.621C124.948 268.041 120.71 275.46 116.475 282.875C115.266 284.997 114.056 287.113 112.846 289.234C112.315 290.162 113.483 290.897 114.23 290.304C120.673 285.212 127.116 280.121 133.559 275.029L139.108 270.644L137.605 270.019C137.889 273.541 138.173 277.063 138.457 280.584C138.526 281.415 139.639 281.838 140.098 281.03C143.136 275.731 146.174 270.433 149.207 265.134H147.686C149.372 268.096 150.779 271.199 151.884 274.427C152.168 275.258 153.304 275.272 153.584 274.427C155.449 268.83 157.309 263.238 159.174 257.641H157.474C159 261.7 160.531 265.763 162.056 269.822C162.341 270.575 163.55 270.745 163.757 269.822C165.305 262.972 166.854 256.121 168.399 249.271L166.786 249.482C169.205 253.637 171.625 257.788 174.044 261.943C174.489 262.705 175.68 262.37 175.685 261.498C175.781 252.122 175.116 242.742 173.696 233.472C173.297 230.864 172.834 228.265 172.312 225.676C172.087 224.56 170.387 225.033 170.612 226.144C172.436 235.203 173.508 244.4 173.829 253.633C173.92 256.25 173.948 258.872 173.925 261.493L175.565 261.048C173.146 256.893 170.726 252.742 168.307 248.587C167.936 247.953 166.868 248.045 166.694 248.798C165.145 255.648 163.596 262.499 162.052 269.349H163.752C162.226 265.29 160.696 261.227 159.17 257.168C158.863 256.356 157.758 256.305 157.47 257.168C155.604 262.765 153.744 268.357 151.879 273.954H153.579C152.424 270.589 150.967 267.334 149.203 264.244C148.878 263.67 148.007 263.67 147.682 264.244C144.643 269.542 141.605 274.84 138.572 280.139L140.212 280.584C139.928 277.063 139.644 273.541 139.36 270.019C139.296 269.211 138.462 268.913 137.857 269.395C131.414 274.487 124.971 279.579 118.528 284.671C116.677 286.131 114.83 287.595 112.979 289.055L114.363 290.125C118.597 282.705 122.836 275.286 127.07 267.871C128.28 265.749 129.489 263.633 130.699 261.512C131.043 260.91 130.452 259.9 129.705 260.212C126.877 261.401 124.05 262.591 121.218 263.78L122.075 265.258C125.058 261.668 128.037 258.077 131.02 254.482C131.588 253.798 131.057 252.829 130.163 253.004C124.843 254.069 119.518 255.13 114.198 256.195L114.876 257.811C121.374 253.247 127.876 248.688 134.374 244.124C135.094 243.619 134.828 242.535 133.93 242.48C130.915 242.287 127.899 242.095 124.884 241.897L125.329 243.541C129.439 241.608 133.549 239.67 137.66 237.737C138.485 237.352 138.036 236.098 137.215 236.094C131.419 236.039 125.622 235.984 119.825 235.928L120.27 237.572C126.8 234.712 133.517 232.278 140.359 230.276C141.142 230.047 141.252 228.743 140.359 228.573C137.165 227.972 133.93 227.641 130.681 227.59L130.915 229.326C139.277 227.246 147.645 225.166 156.008 223.086C158.377 222.499 160.746 221.906 163.115 221.319C164.215 221.043 163.747 219.34 162.648 219.615L162.657 219.62Z" fill="white"/>
<path d="M188.804 173.518C172.486 174.946 156.173 176.369 139.855 177.797C137.765 177.981 135.625 178.173 133.719 179.059C131.258 180.203 129.448 182.374 127.748 184.491C118.57 195.919 109.978 207.829 102.027 220.148C101.376 221.153 102.618 222.31 103.581 221.599L127.125 204.142C128.426 203.178 129.792 202.182 131.386 201.902C132.725 201.663 134.099 201.952 135.428 202.237C150.005 205.377 164.586 208.513 179.163 211.654" fill="#BFD2B6"/>
<path d="M188.804 172.636C180.304 173.38 171.803 174.124 163.308 174.863C159.06 175.235 154.807 175.607 150.559 175.979C146.311 176.351 142.192 176.603 138.031 177.094C136.148 177.319 134.278 177.7 132.61 178.646C131.061 179.523 129.755 180.777 128.591 182.108C125.979 185.093 123.596 188.307 121.182 191.447C116.21 197.93 111.421 204.551 106.829 211.309C105.661 213.027 104.506 214.758 103.361 216.493C102.797 217.347 102.243 218.201 101.683 219.06C101.216 219.781 100.781 220.46 101.074 221.346C101.482 222.577 102.98 223.068 104.039 222.352C104.208 222.237 104.369 222.108 104.529 221.989C106.884 220.24 109.244 218.495 111.6 216.746C114.927 214.28 118.253 211.81 121.58 209.344C123.541 207.889 125.503 206.438 127.464 204.982C128.202 204.436 128.944 203.881 129.751 203.44C130.557 202.999 131.409 202.714 132.331 202.701C133.334 202.687 134.315 202.907 135.291 203.114C139.456 204.009 143.622 204.909 147.787 205.804C156.118 207.6 164.449 209.39 172.779 211.185C174.823 211.626 176.871 212.067 178.915 212.508C180.019 212.747 180.496 211.043 179.383 210.804C171.198 209.041 163.019 207.283 154.835 205.52C150.743 204.638 146.65 203.757 142.563 202.875C140.519 202.434 138.471 201.993 136.427 201.553C134.516 201.139 132.514 200.621 130.571 201.181C128.921 201.654 127.556 202.719 126.199 203.724L123.583 205.662C120.549 207.912 117.511 210.162 114.478 212.416C111.444 214.67 108.566 216.801 105.611 218.991L103.356 220.662C103.251 220.74 103.017 220.961 102.889 220.933C102.362 220.818 103.374 219.67 103.494 219.491C104.03 218.665 104.57 217.843 105.111 217.021C109.529 210.322 114.138 203.752 118.932 197.315C121.324 194.096 123.766 190.914 126.25 187.769C127.423 186.286 128.578 184.78 129.824 183.357C130.956 182.062 132.198 180.846 133.733 180.033C135.359 179.174 137.229 178.922 139.035 178.752C141.051 178.564 143.067 178.398 145.083 178.219C149.258 177.857 153.432 177.489 157.602 177.127C165.952 176.396 174.296 175.666 182.645 174.936C184.694 174.757 186.742 174.578 188.79 174.399C189.913 174.303 189.922 172.535 188.79 172.632L188.804 172.636Z" fill="#BFD2B6"/>
<path d="M215.689 196.502L219.176 245.607C219.327 247.705 219.469 249.854 218.896 251.874C218.154 254.491 216.303 256.622 214.484 258.637C204.663 269.519 194.28 279.896 183.392 289.703C182.503 290.502 181.17 289.459 181.719 288.394L195.219 262.352C195.966 260.91 196.731 259.404 196.759 257.783C196.782 256.42 196.282 255.111 195.792 253.839C190.403 239.909 185.014 225.979 179.625 212.044" fill="#BFD2B6"/>
<path d="M214.804 196.502C215.4 204.877 215.996 213.252 216.587 221.626C217.178 229.937 217.838 238.242 218.356 246.553C218.475 248.449 218.507 250.378 217.87 252.191C217.288 253.844 216.211 255.299 215.084 256.622C212.568 259.574 209.874 262.393 207.211 265.208C201.731 271.011 196.085 276.654 190.284 282.136C188.836 283.509 187.374 284.868 185.903 286.218C185.184 286.879 184.46 287.54 183.731 288.197C183.585 288.33 182.686 289.446 182.485 288.968C182.43 288.835 182.549 288.683 182.613 288.564L183.113 287.6L187.576 278.986L193.107 268.312C194.06 266.475 195.013 264.634 195.966 262.797C196.69 261.397 197.4 259.964 197.588 258.376C197.827 256.365 196.97 254.464 196.264 252.632C194.752 248.725 193.24 244.813 191.727 240.906C188.717 233.123 185.706 225.341 182.696 217.558C181.953 215.639 181.211 213.72 180.469 211.801C180.299 211.36 179.877 211.048 179.383 211.185C178.961 211.305 178.594 211.824 178.768 212.274C181.848 220.235 184.927 228.197 188.007 236.153C189.546 240.134 191.086 244.115 192.626 248.096C193.395 250.084 194.165 252.076 194.935 254.064C195.293 254.996 195.677 255.951 195.824 256.943C195.971 257.935 195.792 258.807 195.476 259.703C195.091 260.786 194.504 261.801 193.977 262.825L192.209 266.236L186.682 276.893C185.074 279.997 183.465 283.1 181.857 286.2C181.559 286.773 181.243 287.343 180.963 287.926C180.404 289.092 180.954 290.534 182.288 290.809C183.223 291.002 183.85 290.46 184.501 289.877C185.253 289.198 186.004 288.514 186.756 287.825C192.745 282.334 198.578 276.672 204.247 270.846C207.079 267.935 209.869 264.978 212.619 261.985C215.116 259.262 218.067 256.516 219.442 253.008C220.157 251.19 220.253 249.211 220.166 247.278C220.07 245.194 219.886 243.109 219.735 241.025L218.828 228.233C218.223 219.744 217.623 211.254 217.018 202.769C216.871 200.676 216.72 198.582 216.573 196.488C216.495 195.359 214.731 195.354 214.809 196.488L214.804 196.502Z" fill="#BFD2B6"/>
<path d="M171.542 232.756L160.026 222.912C158.757 221.828 158.5 219.969 159.421 218.578L174.259 196.245L195.586 214.477L175.909 232.673C174.685 233.807 172.807 233.844 171.542 232.76V232.756Z" fill="#BFD2B6"/>
<path d="M172.165 232.131C169.888 230.185 167.606 228.233 165.328 226.287L161.378 222.912C161.135 222.705 160.892 222.503 160.654 222.292C159.683 221.429 159.486 220.125 160.182 219.023C161.341 217.196 162.579 215.414 163.779 213.61C166.071 210.157 168.366 206.709 170.657 203.256L173.485 199C173.966 198.274 174.525 197.558 174.951 196.791C174.97 196.755 174.997 196.723 175.02 196.686L173.636 196.865C176.051 198.926 178.461 200.993 180.876 203.054C184.689 206.314 188.506 209.574 192.318 212.834C193.198 213.587 194.083 214.34 194.962 215.093V213.844C192.502 216.121 190.041 218.394 187.58 220.671C183.974 224.005 180.372 227.338 176.766 230.671C176.321 231.08 175.881 231.493 175.437 231.902C174.525 232.742 173.182 232.949 172.165 232.127C171.794 231.824 171.285 231.769 170.919 232.127C170.607 232.434 170.547 233.077 170.919 233.376C172.61 234.748 174.892 234.744 176.537 233.288C176.78 233.073 177.018 232.843 177.256 232.623C178.69 231.296 180.125 229.969 181.559 228.646C185.472 225.024 189.39 221.406 193.304 217.783C194.271 216.888 195.237 215.993 196.204 215.097C196.534 214.79 196.557 214.151 196.204 213.848C193.789 211.787 191.379 209.721 188.964 207.659C185.152 204.399 181.334 201.139 177.522 197.88C176.642 197.127 175.758 196.374 174.878 195.621C174.429 195.24 173.824 195.299 173.494 195.8C172.266 197.645 171.042 199.491 169.814 201.337L162.817 211.87C161.438 213.945 160.026 215.997 158.684 218.091C157.501 219.932 157.918 222.26 159.55 223.665C160.599 224.569 161.658 225.465 162.712 226.365C165.392 228.656 168.059 230.961 170.754 233.238C170.809 233.284 170.864 233.33 170.919 233.376C171.776 234.11 173.031 232.866 172.165 232.127V232.131Z" fill="#BFD2B6"/>
<path d="M194.958 213.848C193.382 215.309 191.805 216.764 190.224 218.224C187.209 221.011 184.199 223.798 181.183 226.585C179.254 228.371 177.33 230.162 175.391 231.939C174.328 232.912 172.963 232.811 171.909 231.911L168.646 229.124C166.034 226.888 163.431 224.643 160.805 222.421C160.751 222.375 160.696 222.329 160.641 222.283C159.784 221.548 158.528 222.793 159.394 223.532C161.731 225.529 164.068 227.526 166.401 229.523L170.309 232.866C170.552 233.073 170.791 233.288 171.043 233.486C172.376 234.551 174.236 234.726 175.73 233.876C176.45 233.467 177.064 232.788 177.669 232.232C178.778 231.204 179.891 230.18 181 229.152C184.07 226.31 187.145 223.467 190.215 220.63C192.172 218.821 194.216 217.072 196.104 215.185C196.131 215.157 196.163 215.129 196.195 215.102C197.029 214.331 195.783 213.082 194.949 213.853L194.958 213.848Z" fill="#0A244B"/>
<path d="M183.965 223.959C185.239 225.047 186.975 225.433 188.579 224.955C231.452 212.283 271.269 187.439 302.443 150.827C338.951 107.953 357.711 55.891 359.438 3.6272C359.493 1.92379 357.94 0.592292 356.267 0.91828C305.027 10.8586 256.669 37.6127 220.161 80.487C188.987 117.099 170.763 160.405 165.026 204.817C164.81 206.479 165.461 208.137 166.735 209.225L183.965 223.954V223.959Z" fill="#0A244B"/>
<path d="M183.342 224.583C184.276 225.327 185.294 225.841 186.49 225.988C187.901 226.163 189.18 225.703 190.513 225.299C193.006 224.542 195.485 223.743 197.95 222.907C203.009 221.19 208.009 219.298 212.939 217.246C222.833 213.123 232.456 208.348 241.708 202.935C260.605 191.879 277.954 178.192 293.145 162.411C309.101 145.836 322.715 126.984 333.356 106.571C343.62 86.8737 351.121 65.7395 355.566 43.9717C357.766 33.2049 359.228 22.2866 359.943 11.3224C360.03 9.98171 360.108 8.63643 360.172 7.29574C360.236 5.95506 360.46 4.4399 360.282 3.08085C359.97 0.739243 357.812 -0.247905 355.695 0.137771C350.539 1.07901 345.421 2.32327 340.353 3.66396C320.048 9.04047 300.449 17.1029 282.248 27.5943C263.424 38.4437 246.102 51.9011 230.893 67.4383C214.891 83.7837 201.181 102.402 190.399 122.59C179.616 142.778 172.06 163.678 167.409 185.644C166.259 191.071 165.301 196.539 164.526 202.035C164.183 204.477 163.697 206.842 165.292 208.968C165.741 209.565 166.295 210.015 166.859 210.497C171.189 214.197 175.52 217.903 179.854 221.603C181.018 222.6 182.187 223.596 183.351 224.592C184.208 225.327 185.463 224.083 184.597 223.343C181.05 220.313 177.504 217.278 173.957 214.248L168.22 209.344C167.853 209.032 167.464 208.729 167.115 208.389C165.067 206.36 166.116 203.178 166.488 200.676C169.677 179.119 175.813 157.99 184.735 138.114C193.657 118.237 206.162 98.2924 220.784 81.1207C234.71 64.7661 250.799 50.2757 268.579 38.2325C285.703 26.6301 304.344 17.2958 323.884 10.5327C333.543 7.19014 343.414 4.47204 353.422 2.39673C354.494 2.17635 355.805 1.67589 356.891 1.76312C358.737 1.91464 358.559 3.76038 358.508 5.10106C358.403 7.78702 358.252 10.473 358.059 13.1544C357.674 18.4482 357.115 23.7329 356.377 28.9855C353.353 50.464 347.405 71.543 338.689 91.3962C329.667 111.943 317.725 131.181 303.35 148.398C289.383 165.125 273.17 179.964 255.207 192.287C237.936 204.133 219.107 213.669 199.339 220.57C196.993 221.388 194.628 222.173 192.254 222.916C189.881 223.66 186.907 225.175 184.597 223.334C183.717 222.636 182.462 223.876 183.351 224.583H183.342Z" fill="#0A244B"/>
<path d="M294.9 102.677C309.493 102.677 321.322 90.8244 321.322 76.2033C321.322 61.5821 309.493 49.7293 294.9 49.7293C280.308 49.7293 268.478 61.5821 268.478 76.2033C268.478 90.8244 280.308 102.677 294.9 102.677Z" fill="#BFD2B6"/>
<path d="M314.375 92.7644C310.916 96.8048 306.319 99.7112 301.164 101.015C296.009 102.319 290.9 101.993 286.079 100.23C281.258 98.4669 276.644 94.904 273.679 90.4549C270.714 86.0059 269.294 81.0104 269.362 75.8222C269.431 70.6339 271.14 65.4732 274.188 61.2216C277.235 56.9699 281.749 53.6136 286.775 51.9378C291.802 50.2619 296.976 50.1793 301.929 51.598C307.08 53.0718 311.662 56.1894 314.989 60.3905C318.316 64.5916 320.089 69.509 320.392 74.656C320.699 79.8718 319.411 85.1014 316.689 89.5642C316.002 90.6891 315.228 91.7589 314.375 92.7644C313.647 93.6276 314.888 94.881 315.622 94.0132C319.292 89.6744 321.565 84.3438 322.087 78.6734C322.591 73.2051 321.391 67.6036 318.715 62.8148C316.039 58.026 311.543 53.7606 306.37 51.3776C301.196 48.9947 295.679 48.3244 290.208 49.261C284.736 50.1976 279.572 52.8836 275.636 56.823C271.635 60.8267 268.9 66.0609 267.978 71.6578C267.057 77.2547 267.836 82.7506 270.16 87.7781C272.483 92.8057 276.625 97.3145 281.584 100.092C286.423 102.801 292.086 103.99 297.604 103.421C303.121 102.852 308.432 100.611 312.68 96.9701C313.738 96.061 314.719 95.0693 315.626 94.0132C316.364 93.1547 315.122 91.9012 314.38 92.7644H314.375Z" fill="#BFD2B6"/>
<path d="M300.569 80.0049C301.366 79.0408 301.975 77.9159 302.351 76.7175C302.576 75.9967 302.69 75.1335 302.209 74.5504C301.765 74.0132 300.99 73.9259 300.358 73.6321C299.629 73.2923 299.056 72.6312 298.827 71.8598C298.74 71.5706 298.699 71.2538 298.777 70.9645C298.855 70.6707 299.038 70.4181 299.203 70.1656C299.515 69.6835 299.757 69.1555 299.927 68.6045C300.119 67.9755 300.156 67.172 299.625 66.7863C299.198 66.4787 298.594 66.5889 298.122 66.3593C297.567 66.0885 297.338 65.4273 297.187 64.8304C297.036 64.2289 296.88 63.5724 296.38 63.2051C295.986 62.9158 295.468 62.8837 294.983 62.8837C294.286 62.8837 293.516 62.9755 293.049 63.4943C292.43 64.183 292.65 65.2482 292.866 66.1481C293.31 67.9893 293.594 69.8672 293.718 71.7542C293.782 72.7643 293.805 73.7974 294.149 74.7478C294.552 75.8727 295.372 76.8048 296.316 77.5256C297.26 78.251 298.337 78.7836 299.4 79.3117" fill="#0A244B"/>
<path d="M301.192 80.6294C302.2 79.3851 303.107 77.8653 303.364 76.2583C303.487 75.4686 303.414 74.656 302.901 74.0132C302.388 73.3704 301.677 73.2005 300.972 72.9296C300.371 72.7046 299.863 72.2547 299.679 71.6211C299.574 71.2583 299.675 71.0655 299.867 70.7579C300.087 70.4043 300.293 70.0554 300.458 69.6743C301.031 68.3658 301.325 66.4144 299.634 65.8084C299.304 65.689 298.928 65.7165 298.603 65.588C298.355 65.487 298.259 65.2849 298.167 65.0416C297.92 64.3667 297.856 63.6458 297.429 63.0443C296.536 61.7725 294.414 61.7128 293.108 62.3602C291.605 63.104 291.651 64.812 291.976 66.217C292.38 67.9755 292.691 69.734 292.82 71.5338C292.893 72.5256 292.907 73.5311 293.15 74.4998C293.369 75.3676 293.791 76.1436 294.346 76.8415C295.542 78.3428 297.269 79.2428 298.955 80.0784C299.968 80.5834 300.862 79.0591 299.844 78.554C298.534 77.9021 297.173 77.2455 296.128 76.1987C295.17 75.2345 294.767 74.1096 294.662 72.7689C294.538 71.2216 294.433 69.6927 294.171 68.1591C294.043 67.4062 293.887 66.6578 293.713 65.914C293.599 65.4273 293.379 64.7615 293.589 64.2702C293.768 63.8616 294.254 63.7973 294.653 63.7744C295.221 63.7422 295.853 63.6917 296.114 64.2978C296.353 64.8579 296.403 65.4686 296.669 66.0241C296.948 66.6073 297.416 67.0802 298.044 67.2776C298.406 67.3924 299.042 67.2776 299.171 67.6816C299.331 68.1867 298.868 68.981 298.639 69.3942C298.3 70.0003 297.879 70.5053 297.856 71.2354C297.837 71.9103 298.099 72.6082 298.483 73.1546C298.914 73.7652 299.478 74.2244 300.165 74.509C300.614 74.6973 301.439 74.7891 301.622 75.3125C301.833 75.9002 301.425 76.7864 301.196 77.3098C300.875 78.049 300.449 78.7561 299.941 79.3851C299.638 79.757 299.583 80.2666 299.941 80.6339C300.248 80.9462 300.889 81.0013 301.187 80.6339L301.192 80.6294Z" fill="#0A244B"/>
<path d="M249.777 155.666C264.37 155.666 276.199 143.814 276.199 129.192C276.199 114.571 264.37 102.719 249.777 102.719C235.185 102.719 223.355 114.571 223.355 129.192C223.355 143.814 235.185 155.666 249.777 155.666Z" fill="#BFD2B6"/>
<path d="M269.252 145.754C265.793 149.794 261.196 152.7 256.041 154.004C250.886 155.308 245.777 154.982 240.956 153.219C236.135 151.456 231.521 147.893 228.556 143.444C225.678 139.128 224.171 134 224.239 128.811C224.313 123.577 226.017 118.462 229.065 114.211C232.158 109.899 236.626 106.603 241.653 104.927C246.679 103.251 251.853 103.168 256.806 104.587C261.76 106.006 266.539 109.179 269.866 113.38C273.069 117.425 274.967 122.498 275.269 127.645C275.571 132.792 274.288 138.091 271.566 142.553C270.879 143.678 270.105 144.748 269.252 145.754C268.524 146.617 269.766 147.87 270.499 147.002C274.169 142.664 276.442 137.333 276.964 131.663C277.487 125.992 276.268 120.593 273.592 115.804C270.81 110.827 266.42 106.75 261.247 104.367C256.073 101.984 250.556 101.314 245.085 102.25C239.6 103.187 234.449 105.873 230.513 109.812C226.512 113.816 223.777 119.05 222.856 124.647C221.957 130.111 222.713 135.74 225.037 140.767C227.36 145.795 231.503 150.304 236.461 153.081C241.419 155.859 246.964 156.98 252.481 156.41C257.998 155.841 263.309 153.6 267.557 149.959C268.615 149.05 269.596 148.058 270.503 147.002C271.241 146.144 269.999 144.89 269.257 145.754H269.252Z" fill="#BFD2B6"/>
<path d="M297.943 20.3031L349.517 64.3942C355.461 44.5319 358.76 24.1002 359.438 3.63178C359.493 1.92837 357.94 0.59687 356.267 0.922858C336.201 4.81635 316.584 11.2994 297.943 20.3031Z" fill="white"/>
<path d="M297.32 20.9275C299.043 22.4014 300.761 23.8706 302.484 25.3444C306.585 28.8523 310.686 32.3601 314.792 35.8633C319.75 40.1012 324.708 44.339 329.662 48.5769C333.96 52.25 338.254 55.9231 342.552 59.5962C344.637 61.3777 346.699 63.1867 348.807 64.9406C348.835 64.9635 348.862 64.9911 348.894 65.014C349.398 65.441 350.168 65.2941 350.37 64.6238C352.89 56.1848 354.952 47.6035 356.533 38.9395C358.1 30.3536 359.2 21.6805 359.828 12.9752C359.984 10.8127 360.112 8.65016 360.208 6.48761C360.291 4.6832 360.708 2.6033 359.384 1.14324C358.843 0.546357 358.096 0.151498 357.303 0.0367134C356.355 -0.10562 355.392 0.192821 354.467 0.376476C352.414 0.789701 350.365 1.23047 348.322 1.6942C340.101 3.57208 331.981 5.88614 324.003 8.6272C315.979 11.382 308.102 14.5639 300.413 18.1497C299.437 18.6043 298.461 19.068 297.494 19.5363C296.472 20.0276 297.365 21.552 298.383 21.0607C305.797 17.484 313.395 14.2884 321.139 11.4968C328.883 8.70525 336.76 6.32691 344.743 4.35262C346.709 3.86593 348.679 3.40679 350.659 2.97061C351.662 2.75022 352.67 2.53443 353.678 2.32782C354.627 2.13039 355.612 1.84113 356.574 1.75389C357.184 1.6988 357.803 1.95132 358.178 2.4426C358.673 3.0808 358.54 3.86134 358.513 4.61433C358.435 6.74014 358.325 8.87054 358.192 10.9918C357.651 19.4307 356.666 27.8422 355.227 36.1755C353.784 44.5594 351.891 52.8652 349.563 61.0471C349.27 62.0847 348.968 63.1178 348.656 64.1508L350.132 63.7606C348.409 62.2867 346.69 60.8175 344.967 59.3437C340.866 55.8358 336.765 52.328 332.659 48.8248C327.701 44.5869 322.743 40.3491 317.789 36.1112C313.491 32.4381 309.197 28.765 304.899 25.0919C302.814 23.3105 300.752 21.5014 298.644 19.7475C298.616 19.7246 298.589 19.697 298.557 19.6741C297.7 18.9395 296.444 20.1837 297.31 20.9229L297.32 20.9275Z" fill="white"/>
<path d="M311.319 90.2437C311.69 89.8121 312.02 89.3576 312.345 88.9031C311.149 87.7828 309.889 86.7267 308.624 85.6983C303.909 81.8736 298.978 78.3199 293.874 75.0325C292.728 82.42 290.318 89.5275 287.417 96.4697C295.661 99.5229 305.279 97.3328 311.319 90.2391V90.2437Z" fill="white"/>
<path d="M311.942 90.8682C312.35 90.3769 312.735 89.8672 313.11 89.3484C313.33 89.0454 313.239 88.5266 312.973 88.2786C310.136 85.6386 307.043 83.2556 303.941 80.9416C300.839 78.6275 297.604 76.3869 294.323 74.2703C293.883 73.9856 293.113 74.2427 293.026 74.7983C291.866 82.2088 289.447 89.3346 286.569 96.2355C286.377 96.6992 286.785 97.1767 287.183 97.3237C293.809 99.7479 301.434 98.8939 307.318 94.9683C309.041 93.8204 310.595 92.4384 311.942 90.8682C312.68 90.0096 311.438 88.7561 310.695 89.6193C306.319 94.7157 299.776 97.4201 293.081 96.8553C291.225 96.6992 289.401 96.263 287.651 95.6248L288.265 96.713C291.147 89.8121 293.562 82.6863 294.721 75.2758L293.424 75.8038C296.641 77.8791 299.794 80.0554 302.869 82.3465C305.944 84.6377 308.94 86.9471 311.717 89.5367L311.58 88.4669C311.291 88.8617 311.003 89.252 310.691 89.6285C309.967 90.4963 311.209 91.7497 311.937 90.8773L311.942 90.8682Z" fill="white"/>
<path d="M293.663 66.9195C292.788 65.2207 290.583 64.0683 288.902 64.9682C287.183 65.891 286.95 68.4255 287.894 70.1335C288.838 71.8415 290.583 72.925 292.238 73.9627C292.792 74.3116 293.333 74.6744 293.883 75.0325C294.011 74.206 294.121 73.375 294.217 72.544C294.433 70.6431 294.543 68.6183 293.663 66.9195Z" fill="white"/>
<path d="M294.424 66.4741C293.127 64.0636 289.442 62.5852 287.435 65.0554C286.556 66.1389 286.331 67.5577 286.546 68.9121C286.78 70.363 287.678 71.6119 288.751 72.5761C290.157 73.8387 291.853 74.7799 293.434 75.8038C293.869 76.0885 294.643 75.8314 294.731 75.2758C295.17 72.397 295.775 69.206 294.424 66.4787C293.919 65.4594 292.398 66.3547 292.902 67.3694C293.443 68.4622 293.525 69.6881 293.475 70.8864C293.42 72.1996 293.232 73.5081 293.03 74.8029L294.327 74.2749C292.92 73.3658 291.39 72.5302 290.121 71.4282C289.08 70.5237 288.228 69.3988 288.228 67.9617C288.228 66.9011 288.732 65.7303 289.896 65.5558C291.147 65.3676 292.343 66.3272 292.902 67.3694C293.461 68.4117 294.964 67.4796 294.424 66.4787V66.4741Z" fill="white"/>
<path d="M255.67 124.059C256.188 122.246 255.537 119.955 253.787 119.261C252.339 118.687 250.611 119.413 249.667 120.652C248.719 121.892 248.43 123.517 248.425 125.074C248.421 127.232 248.902 129.316 249.589 131.364C250.547 130.45 251.518 129.555 252.453 128.623C253.787 127.296 255.152 125.868 255.67 124.055V124.059Z" fill="white"/>
<path d="M256.518 124.298C257.233 121.608 255.785 118.049 252.582 118.187C250.987 118.256 249.548 119.192 248.687 120.515C247.779 121.911 247.518 123.66 247.541 125.294C247.568 127.452 248.059 129.569 248.737 131.608C248.948 132.241 249.713 132.471 250.212 131.998C251.491 130.781 252.801 129.597 254.007 128.306C255.097 127.136 256.05 125.845 256.522 124.298C256.852 123.21 255.152 122.742 254.822 123.83C254.405 125.207 253.48 126.314 252.499 127.333C251.363 128.513 250.153 129.619 248.966 130.744L250.442 131.135C249.837 129.312 249.365 127.434 249.314 125.51C249.273 123.963 249.447 122.145 250.565 120.965C251.431 120.046 252.957 119.514 254.02 120.428C254.964 121.236 255.125 122.696 254.822 123.834C254.52 124.973 256.229 125.405 256.522 124.303L256.518 124.298Z" fill="white"/>
<path d="M310.695 89.6194C307.877 92.9068 304.143 95.2714 299.941 96.3274C295.738 97.3834 291.601 97.1033 287.687 95.6616C279.54 92.6634 274.082 84.5688 274.197 75.9049C274.311 67.195 280.099 59.2381 288.37 56.5154C296.618 53.7973 305.856 56.5843 311.227 63.4301C316.598 70.2758 317.015 79.7433 312.579 87.016C312.02 87.9343 311.392 88.8021 310.7 89.6194C309.971 90.4825 311.213 91.736 311.946 90.8682C314.994 87.2594 316.872 82.8379 317.285 78.1271C317.697 73.4163 316.675 69.0499 314.467 65.1289C312.176 61.0563 308.565 57.7138 304.321 55.7671C300.078 53.8203 295.546 53.2647 291.046 54.0315C281.785 55.6018 274.229 63.2097 272.735 72.5118C272.015 77.0068 272.634 81.612 274.545 85.7488C276.502 89.9867 279.851 93.5679 283.911 95.8499C292.05 100.423 302.429 99.3669 309.513 93.3016C310.384 92.5578 311.19 91.7406 311.937 90.8682C312.684 89.9958 311.433 88.7562 310.691 89.6194H310.695Z" fill="#0A244B"/>
<path d="M252.114 137.737C251.257 135.634 250.309 133.527 249.589 131.373C244.764 135.974 239.71 140.322 234.426 144.385C234.857 144.822 235.292 145.249 235.764 145.653C241.561 150.611 249.218 151.938 256.014 149.89C255.015 145.754 253.723 141.686 252.114 137.742V137.737Z" fill="white"/>
<path d="M252.967 137.498C252.101 135.386 251.175 133.297 250.442 131.135C250.226 130.506 249.466 130.271 248.966 130.744C244.196 135.29 239.201 139.597 233.982 143.614C233.537 143.954 233.363 144.555 233.803 145.001C238.326 149.56 244.64 152.039 251.065 151.649C252.82 151.543 254.561 151.236 256.248 150.731C256.715 150.593 256.976 150.115 256.862 149.642C255.858 145.501 254.566 141.442 252.962 137.494C252.783 137.053 252.375 136.736 251.876 136.878C251.459 136.993 251.079 137.521 251.262 137.967C252.866 141.911 254.158 145.974 255.162 150.115L255.776 149.027C248.425 151.213 240.457 149.202 235.045 143.752L234.866 145.138C240.205 141.024 245.328 136.64 250.208 131.989L248.732 131.598C249.466 133.761 250.391 135.85 251.257 137.962C251.436 138.403 251.844 138.72 252.343 138.577C252.76 138.462 253.141 137.934 252.957 137.489L252.967 137.498Z" fill="white"/>
<path d="M265.573 142.608C262.754 145.896 259.02 148.26 254.818 149.317C250.616 150.373 246.478 150.092 242.564 148.651C234.417 145.653 228.959 137.558 229.074 128.894C229.188 120.184 234.976 112.227 243.247 109.505C251.496 106.786 260.734 109.573 266.104 116.419C271.475 123.265 271.892 132.732 267.456 140.005C266.897 140.923 266.269 141.791 265.577 142.608C264.849 143.472 266.09 144.725 266.824 143.857C269.871 140.249 271.75 135.827 272.162 131.116C272.556 126.63 271.553 122.039 269.344 118.118C267.135 114.197 263.442 110.703 259.199 108.756C254.955 106.809 250.423 106.254 245.923 107.021C236.662 108.591 229.106 116.199 227.612 125.501C226.893 129.996 227.511 134.601 229.422 138.738C231.379 142.976 234.729 146.557 238.789 148.839C246.927 153.412 257.306 152.356 264.39 146.291C265.261 145.547 266.068 144.73 266.814 143.857C267.561 142.985 266.31 141.745 265.568 142.608H265.573Z" fill="#0A244B"/>
<path d="M350.787 183.509C350.567 180.23 351.786 177.154 353.083 174.206C354.379 171.259 355.85 168.072 356.272 164.702C356.332 164.229 355.823 163.821 355.392 163.821C354.865 163.821 354.572 164.229 354.512 164.702C353.692 171.268 348.574 176.681 349.027 183.504C349.101 184.633 350.865 184.643 350.791 183.504L350.787 183.509Z" fill="#0A244B"/>
<path d="M358.243 164.22C357.867 165.63 357.491 167.039 357.115 168.444C356.996 168.89 357.266 169.422 357.729 169.532C358.192 169.643 358.687 169.395 358.815 168.917C359.191 167.508 359.567 166.098 359.943 164.693C360.062 164.248 359.791 163.715 359.329 163.605C358.866 163.495 358.371 163.743 358.243 164.22Z" fill="#0A244B"/>
<path d="M361.532 164.578C361.523 164.753 361.51 164.927 361.496 165.102C361.487 165.175 361.482 165.253 361.473 165.327C361.468 165.377 361.459 165.428 361.455 165.474C361.468 165.363 361.468 165.359 361.455 165.46C361.404 165.781 361.345 166.103 361.271 166.419C361.198 166.736 361.111 167.048 361.01 167.361C360.955 167.526 360.896 167.691 360.836 167.857C360.808 167.925 360.781 167.999 360.753 168.068C360.735 168.114 360.717 168.16 360.698 168.206C360.74 168.109 360.74 168.109 360.698 168.206C360.515 168.628 360.561 169.174 361.015 169.413C361.395 169.615 362.023 169.551 362.22 169.096C362.848 167.655 363.214 166.149 363.297 164.578C363.32 164.115 362.875 163.674 362.417 163.697C361.917 163.72 361.56 164.087 361.537 164.578H361.532Z" fill="#0A244B"/>
<path d="M364.754 165.35C364.516 167.815 363.883 170.235 362.926 172.521C362.742 172.962 363.123 173.495 363.54 173.61C364.048 173.747 364.438 173.435 364.626 172.994C365.648 170.556 366.266 167.985 366.518 165.354C366.564 164.877 366.078 164.473 365.638 164.473C365.125 164.473 364.804 164.881 364.759 165.354L364.754 165.35Z" fill="#0A244B"/>
<path d="M366.239 173.219C364.498 176.699 361.941 179.739 358.77 181.993C358.38 182.269 358.197 182.765 358.453 183.201C358.678 183.587 359.269 183.793 359.659 183.518C363.072 181.089 365.881 177.866 367.76 174.11C368.269 173.095 366.747 172.2 366.239 173.219Z" fill="#0A244B"/>
<path d="M393.889 181.259C393.151 184.06 392.413 186.943 392.707 189.863C392.752 190.336 393.078 190.745 393.586 190.745C394.026 190.745 394.517 190.341 394.466 189.863C394.187 187.085 394.883 184.39 395.584 181.727C395.873 180.625 394.173 180.157 393.884 181.259H393.889Z" fill="#0A244B"/>
<path d="M398.788 182.218C399.947 180.35 400.79 178.274 401.248 176.126C401.344 175.676 401.115 175.148 400.634 175.037C400.19 174.936 399.654 175.171 399.548 175.653C399.108 177.705 398.366 179.546 397.262 181.323C397.01 181.727 397.175 182.296 397.578 182.531C397.981 182.765 398.531 182.618 398.783 182.214L398.788 182.218Z" fill="#0A244B"/>
<path d="M403.008 176.254C402.843 176.993 402.628 177.719 402.362 178.426C402.298 178.596 402.229 178.766 402.16 178.936C402.238 178.752 402.11 179.05 402.096 179.082C402.064 179.156 402.032 179.225 402 179.294C401.835 179.647 401.656 179.996 401.468 180.336C401.244 180.74 401.358 181.318 401.784 181.543C402.211 181.768 402.751 181.658 402.99 181.227C403.769 179.817 404.355 178.293 404.713 176.723C404.813 176.273 404.575 175.745 404.099 175.634C403.649 175.533 403.122 175.767 403.013 176.25L403.008 176.254Z" fill="#0A244B"/>
<path d="M406.138 177.765C406.069 178.146 405.977 178.518 405.863 178.885C405.808 179.069 405.744 179.252 405.675 179.431C405.643 179.523 405.606 179.61 405.569 179.702C405.533 179.794 405.533 179.79 405.574 179.693C405.56 179.725 405.546 179.757 405.528 179.794C405.217 180.487 404.827 181.139 404.369 181.745C404.089 182.113 404.3 182.751 404.685 182.953C405.148 183.201 405.592 183.031 405.89 182.636C406.862 181.351 407.535 179.822 407.829 178.238C407.911 177.783 407.705 177.264 407.214 177.149C406.779 177.048 406.22 177.283 406.128 177.765H406.138Z" fill="#0A244B"/>
<path d="M408.131 180.91C406.701 185.469 403.938 189.5 400.249 192.522C399.878 192.825 399.942 193.454 400.249 193.77C400.611 194.138 401.129 194.069 401.496 193.77C405.414 190.561 408.314 186.213 409.831 181.378C410.17 180.29 408.47 179.826 408.131 180.91Z" fill="#0A244B"/>
<path d="M340.541 269.795C322.743 316.443 324.896 368.629 324.823 418.569C324.814 424.983 322.679 435.039 316.524 436.811C323.884 437.27 328.035 437.371 331.275 434.327C334.515 431.287 336.1 419.198 337.544 414.988C340.921 405.149 344.399 395.254 346.081 384.951C347.804 374.405 346.223 364.386 346.021 353.826C345.865 345.649 349.119 338.266 352.24 330.883C357.702 317.944 361.611 304.349 363.847 290.483C364.525 286.282 365.038 281.907 363.833 277.825C362.623 273.743 359.269 270.02 355.035 269.666" fill="#0A244B"/>
<path d="M339.693 269.56C335.528 280.506 332.421 291.829 330.152 303.316C327.88 314.845 326.427 326.526 325.501 338.234C324.562 350.08 324.163 361.962 323.998 373.84C323.833 385.718 323.911 397.591 323.939 409.465C323.948 414.336 324.296 419.35 323.453 424.171C322.802 427.899 321.579 432.325 318.495 434.8C317.84 435.323 317.097 435.714 316.295 435.957C315.319 436.251 315.544 437.628 316.529 437.692C321.203 437.982 326.949 438.744 330.968 435.732C332.503 434.579 333.374 433.069 334.089 431.315C334.973 429.152 335.569 426.871 336.119 424.598C336.669 422.325 337.118 420.149 337.654 417.936C338.25 415.47 339.134 413.101 339.954 410.704C342.305 403.813 344.564 396.87 346.081 389.74C346.837 386.186 347.405 382.6 347.63 378.973C347.854 375.346 347.776 371.742 347.611 368.128C347.446 364.515 347.172 360.768 347.016 357.086C346.869 353.546 346.897 350.098 347.625 346.613C349.037 339.887 352.134 333.697 354.645 327.343C357.285 320.667 359.512 313.826 361.313 306.875C362.22 303.376 363.022 299.845 363.714 296.296C364.388 292.839 365.052 289.345 365.341 285.832C365.826 279.919 364.475 273.073 358.843 269.955C357.661 269.299 356.387 268.927 355.044 268.794C353.917 268.683 353.921 270.451 355.044 270.561C357.711 270.823 359.984 272.582 361.436 274.767C363.187 277.398 363.728 280.534 363.686 283.651C363.641 287.122 362.995 290.575 362.367 293.977C361.739 297.38 361.019 300.763 360.195 304.124C358.545 310.842 356.506 317.467 354.077 323.945C351.649 330.424 348.702 336.259 346.805 342.692C345.884 345.819 345.265 349.051 345.16 352.316C345.05 355.828 345.352 359.373 345.558 362.876C345.971 369.933 346.402 377.059 345.343 384.079C344.298 391.026 342.342 397.821 340.174 404.492C338.515 409.607 336.586 414.602 335.404 419.855C334.895 422.118 334.396 424.391 333.777 426.632C333.241 428.588 332.659 430.608 331.646 432.38C329.525 436.099 324.764 436.265 320.983 436.163C319.498 436.122 318.009 436.035 316.529 435.938L316.763 437.674C320.58 436.522 322.738 432.835 323.975 429.276C325.419 425.13 325.708 420.814 325.708 416.462C325.708 404.455 325.607 392.449 325.694 380.442C325.781 368.399 326.056 356.351 326.83 344.331C327.596 332.394 328.856 320.474 330.941 308.693C333.012 296.971 335.903 285.382 339.885 274.156C340.376 272.779 340.88 271.406 341.398 270.043C341.801 268.977 340.096 268.518 339.698 269.574L339.693 269.56Z" fill="#0A244B"/>
<path d="M350.778 271.47C354.962 321.236 379.514 367.306 401.093 412.325C403.865 418.11 406.298 428.096 401.523 432.366C408.351 429.579 412.136 427.862 413.735 423.712C415.335 419.561 411.527 407.986 411.004 403.565C409.781 393.234 408.631 382.807 405.68 372.793C402.66 362.541 396.895 354.207 392.139 344.781C388.454 337.485 388.189 329.418 387.799 321.406C387.116 307.375 384.738 293.426 380.747 279.964C379.537 275.883 378.103 271.718 375.248 268.569C372.393 265.419 367.751 263.523 363.787 265.047" fill="#0A244B"/>
<path d="M349.893 271.47C350.874 282.999 352.922 294.418 355.795 305.621C358.687 316.907 362.385 327.967 366.569 338.835C370.803 349.832 375.527 360.626 380.472 371.319C385.407 381.985 390.557 392.55 395.681 403.128C396.954 405.755 398.224 408.381 399.484 411.012C400.46 413.041 401.381 415.052 402.05 417.21C403.219 420.989 404.222 425.796 402.485 429.566C402.1 430.401 401.574 431.127 400.895 431.746C400.277 432.311 400.923 433.56 401.752 433.225C406.119 431.443 411.701 429.639 414.047 425.153C414.959 423.408 415.092 421.567 414.95 419.63C414.775 417.206 414.299 414.804 413.781 412.43C413.263 410.057 412.713 407.88 412.241 405.589C411.673 402.839 411.467 400.02 411.123 397.238C410.234 389.983 409.199 382.729 407.37 375.644C405.661 369.024 402.934 362.885 399.695 356.884C398.091 353.918 396.418 350.993 394.819 348.027C393.22 345.061 391.607 341.902 390.681 338.518C388.834 331.801 388.94 324.781 388.463 317.88C387.955 310.529 386.988 303.206 385.572 295.97C384.862 292.338 384.037 288.729 383.097 285.153C382.222 281.819 381.333 278.449 380.091 275.231C377.951 269.68 373.997 264.299 367.632 263.679C366.252 263.546 364.846 263.725 363.544 264.202C362.486 264.588 362.944 266.296 364.012 265.906C366.711 264.914 369.579 265.524 371.98 267.003C374.574 268.601 376.334 271.144 377.612 273.862C378.978 276.764 379.83 279.905 380.687 282.986C381.636 286.392 382.483 289.831 383.226 293.289C384.738 300.341 385.819 307.485 386.447 314.671C387.034 321.365 386.933 328.137 388.06 334.776C388.614 338.05 389.517 341.25 390.906 344.267C392.294 347.283 393.962 350.148 395.566 353.036C398.723 358.72 401.917 364.428 404.043 370.598C406.325 377.224 407.567 384.216 408.557 391.136C409.364 396.765 409.707 402.486 410.972 408.037C411.504 410.374 412.067 412.701 412.521 415.052C412.929 417.155 413.304 419.322 413.227 421.471C413.071 425.81 409.024 428.101 405.519 429.708C404.121 430.346 402.701 430.929 401.276 431.512L402.133 432.991C405.258 430.121 405.404 425.465 404.841 421.549C404.172 416.866 402.243 412.706 400.213 408.486C395.076 397.825 389.856 387.205 384.816 376.498C379.729 365.695 374.812 354.809 370.363 343.725C365.982 332.807 362.046 321.7 358.879 310.369C355.717 299.051 353.325 287.499 352.061 275.809C351.905 274.363 351.767 272.917 351.644 271.47C351.548 270.345 349.783 270.336 349.88 271.47H349.893Z" fill="#0A244B"/>
<path d="M349.527 260.947C359.672 236.254 373.91 210.442 389.43 188.738C389.815 188.196 390.241 187.632 390.865 187.402C391.41 187.205 396.712 187.76 397.271 187.898C399.447 188.444 401.473 189.588 403.068 191.172C403.393 191.493 403.714 191.86 403.801 192.31C403.929 192.985 403.498 193.623 403.095 194.179C391.057 210.68 373.218 237.728 365.199 256.525" fill="#BFD2B6"/>
<path d="M350.374 261.181C355.264 249.294 360.854 237.701 366.995 226.41C373.167 215.056 379.903 203.995 387.254 193.362C388.143 192.072 389.045 190.791 389.957 189.514C390.315 189.014 390.626 188.628 391.103 188.256C391.126 188.238 391.405 188.187 391.007 188.261C391.057 188.251 391.117 188.251 391.167 188.251C391.314 188.251 391.46 188.251 391.607 188.251C392.473 188.27 393.334 188.348 394.196 188.426C394.64 188.467 395.085 188.509 395.529 188.559C395.726 188.582 395.923 188.6 396.121 188.623C396.203 188.633 396.281 188.642 396.363 188.651C396.4 188.651 396.762 188.701 396.547 188.674C397.5 188.807 398.43 189.147 399.292 189.569C400.515 190.171 401.816 190.988 402.696 192.053C403.154 192.609 402.825 193.059 402.453 193.587C402.11 194.078 401.748 194.56 401.395 195.047C400.708 195.997 400.025 196.948 399.342 197.907C393.046 206.746 387.015 215.781 381.296 225.006C375.578 234.23 370.29 243.288 365.835 252.962C365.359 254 364.896 255.042 364.447 256.089C364.259 256.53 364.319 257.03 364.763 257.297C365.134 257.517 365.78 257.416 365.968 256.98C370.184 247.108 375.582 237.737 381.159 228.591C387.029 218.968 393.257 209.56 399.759 200.354C401.147 198.385 402.591 196.456 403.975 194.482C404.424 193.839 404.777 193.123 404.69 192.319C404.603 191.516 404.108 190.947 403.567 190.423C402.485 189.376 401.212 188.504 399.841 187.884C398.939 187.476 397.995 187.108 397.014 186.97C396.121 186.847 395.222 186.75 394.324 186.667C393.426 186.585 392.574 186.507 391.698 186.484C390.736 186.461 390.012 186.7 389.334 187.453C388.289 188.61 387.451 190.019 386.562 191.296C385.673 192.572 384.765 193.89 383.881 195.198C382.03 197.935 380.22 200.694 378.451 203.486C374.867 209.119 371.444 214.854 368.168 220.676C361.661 232.246 355.731 244.152 350.517 256.36C349.898 257.806 349.288 259.262 348.688 260.717C348.505 261.163 348.885 261.686 349.302 261.806C349.806 261.948 350.205 261.626 350.388 261.19L350.374 261.181Z" fill="#BFD2B6"/>
<path d="M356.781 237.623C354.384 230.97 356.675 222.903 362.211 218.509C364.484 216.709 368.333 215.777 369.895 218.224C371.353 220.497 369.414 223.366 367.613 225.377C347.753 247.503 330.927 273.541 325.703 302.834C325.387 304.597 325.185 306.627 326.363 307.977C327.013 308.725 327.98 309.111 328.915 309.441C339.762 313.257 351.722 312.898 362.939 310.382C374.157 307.866 384.793 303.289 395.351 298.739C396.198 298.371 397.115 297.94 397.5 297.1C397.999 296.002 397.367 294.744 396.739 293.716C385.48 275.286 365.235 257.503 356.781 237.623Z" fill="#BFD2B6"/>
<path d="M357.633 237.388C356.309 233.651 356.478 229.565 357.899 225.882C358.595 224.083 359.626 222.379 360.919 220.942C362.211 219.505 363.636 218.334 365.469 217.834C366.899 217.443 368.777 217.512 369.382 219.142C370.093 221.052 368.333 223.224 367.169 224.556C364.117 228.04 361.065 231.521 358.16 235.134C352.313 242.407 346.878 250.033 342.103 258.059C337.383 265.993 333.314 274.326 330.162 283.004C328.59 287.324 327.256 291.732 326.189 296.204C325.657 298.436 325.167 300.685 324.796 302.949C324.457 305.033 324.36 307.499 326.138 308.991C327.041 309.749 328.173 310.13 329.277 310.502C330.464 310.901 331.665 311.25 332.874 311.558C335.303 312.168 337.782 312.586 340.275 312.853C345.27 313.385 350.324 313.247 355.305 312.614C365.616 311.31 375.495 307.94 385.086 304.037C387.506 303.054 389.911 302.035 392.308 301.007C393.495 300.497 394.686 299.992 395.873 299.473C396.79 299.074 397.747 298.55 398.229 297.623C399.337 295.479 397.454 293.146 396.341 291.415C395.227 289.684 393.953 287.834 392.688 286.089C387.336 278.693 381.356 271.783 375.61 264.693C369.863 257.604 364.475 250.625 360.231 242.733C359.255 240.919 358.357 239.069 357.551 237.173C357.363 236.732 356.721 236.64 356.345 236.856C355.892 237.118 355.841 237.627 356.029 238.063C359.489 246.172 364.594 253.458 369.964 260.396C375.335 267.334 381.608 274.551 387.249 281.769C389.93 285.199 392.519 288.711 394.87 292.375C395.452 293.279 396.125 294.198 396.547 295.189C396.739 295.644 396.923 296.204 396.725 296.686C396.561 297.09 396.171 297.343 395.809 297.545C394.769 298.123 393.614 298.532 392.519 299C391.323 299.515 390.131 300.024 388.935 300.529C379.399 304.56 369.648 308.321 359.429 310.194C349.618 311.989 339.281 311.998 329.749 308.789C328.769 308.459 327.568 308.133 326.917 307.256C326.317 306.448 326.303 305.369 326.377 304.409C326.546 302.191 327.137 299.951 327.632 297.784C328.654 293.298 329.951 288.881 331.481 284.542C334.547 275.855 338.575 267.531 343.24 259.602C347.95 251.599 353.312 243.991 359.109 236.75C362.009 233.128 365.02 229.597 368.113 226.14C369.556 224.528 371.037 222.646 371.27 220.419C371.477 218.449 370.244 216.594 368.347 216.043C366.573 215.533 364.603 216.08 363.022 216.925C361.299 217.848 359.865 219.34 358.692 220.882C356.268 224.069 354.952 228.109 354.957 232.108C354.957 234.055 355.282 236.011 355.933 237.848C356.309 238.913 358.013 238.454 357.633 237.379V237.388Z" fill="#BFD2B6"/>
<path d="M365.964 219.941C363.503 219.666 361.184 218.284 359.764 216.245C359.173 215.4 358.728 214.404 358.779 213.371C358.829 212.342 359.489 211.296 360.488 211.048C361.308 210.841 362.165 211.185 362.916 211.576C365.24 212.788 367.274 214.56 368.796 216.7C369.194 217.26 369.501 218.169 368.919 218.532C370.812 219.032 371.967 221.14 371.861 223.095C371.76 225.051 370.647 226.828 369.291 228.242C367.87 229.721 366.165 230.896 364.474 232.058C362.834 233.187 361.193 234.312 359.553 235.442C358.178 229.758 359.493 223.481 363.026 218.83" fill="#0A244B"/>
<path d="M365.964 219.06C364.204 218.844 362.527 217.976 361.29 216.714C360.295 215.694 358.691 213.302 360.314 212.099C361.074 211.534 362.105 212.136 362.802 212.522C363.636 212.981 364.438 213.513 365.176 214.119C365.913 214.725 366.619 215.414 367.247 216.149C367.549 216.502 367.861 216.87 368.113 217.269C368.195 217.402 368.241 217.604 368.328 217.724C368.47 217.916 368.214 217.972 368.47 217.774C367.888 218.215 367.893 219.161 368.681 219.39C370.07 219.794 370.917 221.241 370.977 222.636C371.055 224.354 370.143 225.965 369.039 227.219C367.742 228.692 366.138 229.845 364.534 230.956C362.729 232.205 360.914 233.445 359.104 234.689L360.401 235.217C359.099 229.707 360.392 223.798 363.787 219.285C364.076 218.899 363.847 218.302 363.471 218.077C363.022 217.806 362.55 218.013 362.266 218.394C358.595 223.275 357.298 229.753 358.701 235.685C358.824 236.213 359.535 236.53 359.997 236.213C361.61 235.107 363.219 234 364.832 232.894C366.33 231.865 367.843 230.827 369.185 229.592C371.481 227.48 373.557 224.262 372.452 221.025C371.916 219.459 370.771 218.155 369.158 217.687L369.368 219.303C371.224 217.898 369.213 215.662 368.127 214.482C366.734 212.962 365.038 211.649 363.191 210.731C362.22 210.249 361.097 209.886 360.03 210.276C359.09 210.621 358.426 211.41 358.096 212.343C357.376 214.381 358.664 216.553 360.048 217.967C361.638 219.592 363.728 220.557 365.968 220.832C366.44 220.892 366.848 220.387 366.848 219.95C366.848 219.427 366.44 219.124 365.968 219.069L365.964 219.06Z" fill="#0A244B"/>
<path d="M339.161 267.21C338.827 240.511 341.81 211.172 347.584 185.102C347.726 184.454 347.895 183.761 348.381 183.311C348.803 182.916 353.898 181.341 354.471 181.25C356.689 180.896 358.999 181.153 361.084 181.984C361.51 182.154 361.95 182.365 362.202 182.746C362.582 183.316 362.44 184.073 362.284 184.744C357.674 204.657 355.328 225.097 355.314 245.538" fill="#BFD2B6"/>
<path d="M340.041 267.21C339.908 256.397 340.307 245.575 341.159 234.794C342.012 224.014 343.35 212.939 345.173 202.117C346.062 196.837 347.07 191.576 348.211 186.341C348.331 185.79 348.431 185.226 348.596 184.689C348.665 184.468 348.752 184.298 348.862 184.096C348.931 183.968 349.165 183.867 348.876 184.037C348.913 184.014 348.949 183.986 348.986 183.972C349.288 183.853 349.178 183.876 349.44 183.775C349.77 183.646 350.104 183.527 350.439 183.412C351.754 182.958 353.087 182.508 354.434 182.168C355.355 181.934 356.373 181.947 357.317 182.016C358.531 182.104 359.846 182.365 360.955 182.889C361.427 183.114 361.601 183.348 361.551 183.885C361.491 184.532 361.276 185.189 361.134 185.823C360.813 187.241 360.501 188.665 360.204 190.088C359.035 195.676 358.041 201.296 357.23 206.948C355.589 218.325 354.659 229.804 354.471 241.296C354.448 242.714 354.434 244.129 354.434 245.547C354.434 246.686 356.194 246.686 356.199 245.547C356.212 233.683 356.996 221.824 358.563 210.065C359.342 204.229 360.318 198.417 361.478 192.641C361.771 191.176 362.078 189.716 362.399 188.261C362.692 186.911 363.104 185.552 363.283 184.179C363.462 182.806 362.898 181.837 361.688 181.296C360.479 180.754 359.081 180.432 357.725 180.29C355.915 180.102 354.247 180.359 352.533 180.882C351.117 181.314 349.66 181.736 348.312 182.352C347.547 182.7 347.135 183.435 346.896 184.225C346.516 185.478 346.31 186.81 346.039 188.095C345.467 190.809 344.93 193.536 344.426 196.263C342.383 207.319 340.87 218.477 339.835 229.67C338.799 240.864 338.249 252.012 338.254 263.206C338.254 264.542 338.263 265.883 338.281 267.219C338.295 268.353 340.059 268.357 340.046 267.219L340.041 267.21Z" fill="#BFD2B6"/>
<path d="M359.388 234.941C358.311 242.347 358.206 249.891 359.077 257.32C359.64 262.122 360.877 267.334 364.75 270.221C367.921 272.586 372.338 272.834 376.063 271.512C378.905 270.502 381.549 268.486 382.57 265.644C383.592 262.802 382.529 259.142 379.794 257.866C378.066 257.063 375.889 257.219 374.45 255.974C373.919 255.515 373.534 254.886 373.364 254.202C372.746 251.668 375.074 249.22 374.845 246.622C374.703 245.029 373.562 243.628 372.132 242.921C370.702 242.209 369.025 242.122 367.449 242.384C366.986 242.462 366.5 242.568 366.051 242.439C364.754 242.063 364.717 240.29 364.406 238.977C363.984 237.164 362.486 235.648 360.68 235.208" fill="#0A244B"/>
<path d="M358.536 234.707C357.917 239.009 357.592 243.344 357.61 247.692C357.628 251.805 357.871 255.979 358.582 260.033C359.154 263.302 360.199 266.599 362.367 269.175C364.64 271.874 368.067 273.215 371.55 273.188C374.996 273.165 378.565 271.897 381.067 269.478C383.381 267.237 384.518 263.895 383.395 260.782C382.882 259.358 381.961 258.077 380.641 257.306C379.175 256.443 377.443 256.479 375.903 255.832C374.263 255.139 373.905 253.559 374.363 251.966C374.822 250.373 375.692 248.839 375.743 247.118C375.793 245.396 374.867 243.78 373.511 242.737C371.999 241.58 370.01 241.213 368.145 241.392C367.568 241.447 366.459 241.883 365.996 241.383C365.579 240.933 365.524 240.079 365.418 239.505C365.116 237.88 364.438 236.461 363.114 235.423C362.458 234.914 361.725 234.542 360.919 234.331C359.819 234.041 359.351 235.745 360.451 236.034C361.821 236.397 363.004 237.425 363.453 238.793C363.87 240.065 363.773 241.557 364.736 242.6C365.318 243.229 366.143 243.426 366.972 243.325C367.875 243.22 368.736 243.063 369.653 243.132C371.234 243.247 372.787 243.996 373.58 245.419C374.372 246.842 373.85 248.252 373.337 249.611C372.773 251.108 372.164 252.627 372.489 254.253C372.814 255.878 374.143 257.081 375.706 257.623C377.14 258.119 378.794 258.119 380.068 259.023C382.25 260.575 382.575 263.862 381.411 266.117C379.963 268.918 376.92 270.575 373.928 271.177C370.936 271.778 367.375 271.282 364.919 269.216C362.463 267.15 361.349 264.294 360.657 261.351C359.814 257.779 359.567 254.037 359.438 250.378C359.292 246.3 359.438 242.219 359.869 238.164C359.975 237.164 360.103 236.167 360.245 235.171C360.314 234.693 360.126 234.225 359.631 234.083C359.219 233.963 358.614 234.23 358.545 234.698L358.536 234.707Z" fill="#0A244B"/>
<path d="M355.809 227.595C355.809 229.422 356.047 231.3 356.597 233.05C356.868 233.904 357.289 234.62 357.857 235.313C358.426 236.007 359.008 236.677 359.942 236.663C361.074 236.645 361.079 234.877 359.942 234.895C359.645 234.9 359.09 234.064 358.902 233.798C358.517 233.261 358.316 232.678 358.146 232.04C357.761 230.584 357.578 229.101 357.573 227.595C357.573 226.456 355.809 226.456 355.809 227.595Z" fill="#0A244B"/>
<path d="M288.865 65.3355C290.038 67.273 290.556 69.6055 290.313 71.8598C290.29 72.0573 290.258 72.2685 290.111 72.397C289.979 72.5118 289.791 72.5348 289.612 72.5348C287.93 72.5439 286.386 71.1895 286.038 69.5412C285.685 67.8929 286.459 66.1022 287.816 65.1059C288.026 64.9498 288.274 64.7799 288.311 64.5228C288.338 64.3483 288.265 64.1739 288.269 63.9994C288.283 63.4714 288.925 63.2372 289.447 63.1546C291.344 62.8561 293.278 62.801 295.184 62.9939C295.39 63.0122 295.629 63.0581 295.725 63.2418C295.853 63.4943 295.615 63.7744 295.39 63.9443C293.539 65.3538 290.987 65.7946 288.769 65.0784" fill="#0A244B"/>
<path d="M288.104 65.7808C288.947 67.1995 289.438 68.8019 289.488 70.4503C289.502 70.8359 289.387 71.318 289.451 71.6945C289.451 71.6945 289.438 71.869 289.429 71.8598C289.429 71.8598 289.653 71.6761 289.63 71.6532C289.598 71.6211 289.254 71.6256 289.177 71.6119C288.562 71.4971 288.026 71.1527 287.605 70.7028C286.679 69.7064 286.629 68.2326 287.261 67.0664C287.614 66.4144 288.118 66.0517 288.65 65.565C288.975 65.2666 289.195 64.8855 289.19 64.4309C289.19 64.3345 289.19 64.2014 289.158 64.1095C289.03 63.7606 289.149 64.2886 289.057 64.2106C289.021 64.1784 289.291 64.0866 289.305 64.082C289.749 63.9259 290.267 63.9121 290.73 63.8662C291.252 63.8157 291.779 63.7836 292.306 63.7652C292.833 63.7468 293.36 63.756 293.883 63.7744C294.222 63.7881 294.932 63.7193 295.198 63.9029L294.882 63.5861L294.854 63.4897L294.973 63.0443C294.799 63.4484 294.148 63.7055 293.773 63.8892C293.273 64.1325 292.737 64.2978 292.192 64.408C291.124 64.6238 290.029 64.5411 288.989 64.2243C287.948 63.9075 287.435 65.5926 288.521 65.9277C289.841 66.3364 291.229 66.3915 292.586 66.1298C293.818 65.891 295.271 65.3354 296.165 64.4172C296.742 63.8203 296.811 62.8148 296.032 62.3464C295.413 61.97 294.483 62.0342 293.782 62.0067C292.224 61.947 290.542 61.9791 289.016 62.3327C288.43 62.4658 287.838 62.7734 287.545 63.3244C287.444 63.5127 287.394 63.7239 287.385 63.9351C287.385 64.0131 287.385 64.0866 287.394 64.1692C287.394 64.1922 287.426 64.5779 287.458 64.3162C287.481 64.1417 287.49 64.2657 287.394 64.3162C287.362 64.3299 287.325 64.3667 287.302 64.385C287.151 64.509 286.991 64.6238 286.844 64.7523C285.845 65.6477 285.231 66.9287 285.084 68.2556C284.805 70.8313 286.895 73.3841 289.529 73.4163C290.46 73.4255 291.055 72.8837 291.165 71.9746C291.262 71.1941 291.262 70.3997 291.174 69.6192C290.991 67.9388 290.473 66.3364 289.612 64.8855C289.03 63.9075 287.509 64.7982 288.09 65.7762L288.104 65.7808Z" fill="#0A244B"/>
<path d="M292.49 69.2519C292.054 68.8984 291.601 68.6275 291.065 68.453C290.528 68.2785 289.924 68.2648 289.438 68.5494C288.842 68.8984 288.604 69.5963 288.769 70.2528C288.915 70.8451 289.406 71.318 289.997 71.4696C290.615 71.6303 291.353 71.4879 291.871 71.1022C292.064 70.9599 292.21 70.813 292.274 70.5742C292.334 70.363 292.306 70.083 292.187 69.8947C292.068 69.7065 291.885 69.5412 291.66 69.4907C291.436 69.4402 291.165 69.4402 290.982 69.5779C290.877 69.656 290.767 69.7156 290.648 69.7661L290.858 69.6789C290.73 69.7294 290.602 69.7661 290.464 69.7891L290.698 69.757C290.583 69.7707 290.473 69.7753 290.363 69.757L290.597 69.7891C290.51 69.7753 290.423 69.757 290.341 69.7248L290.551 69.8121C290.483 69.7845 290.418 69.7478 290.359 69.7065L290.538 69.8442C290.487 69.8029 290.441 69.7616 290.4 69.7111L290.538 69.8901C290.492 69.8304 290.455 69.7707 290.428 69.7019L290.515 69.9131C290.487 69.8442 290.469 69.7753 290.455 69.7019L290.487 69.936C290.478 69.8626 290.478 69.7937 290.487 69.7248L290.455 69.959C290.464 69.9085 290.478 69.858 290.496 69.8075L290.409 70.0187C290.428 69.9774 290.451 69.9406 290.473 69.9039L290.336 70.083C290.368 70.0462 290.4 70.0141 290.437 69.9819L290.258 70.1197C290.304 70.083 290.354 70.0554 290.409 70.0324L290.198 70.1197C290.263 70.0921 290.327 70.0784 290.396 70.0646L290.162 70.0967C290.276 70.083 290.386 70.0875 290.501 70.0967L290.267 70.0646C290.464 70.0921 290.657 70.1564 290.84 70.2345L290.629 70.1472C290.886 70.2574 291.124 70.3952 291.344 70.5651L291.165 70.4273C291.193 70.4503 291.22 70.4732 291.248 70.4962C291.436 70.6477 291.619 70.7533 291.871 70.7533C292.086 70.7533 292.348 70.6569 292.494 70.4962C292.641 70.3355 292.765 70.1059 292.751 69.8717C292.742 69.6514 292.673 69.3942 292.494 69.2473L292.49 69.2519Z" fill="white"/>
<path d="M248.224 127.094C248.05 125.859 247.876 124.629 247.706 123.394C247.573 122.443 247.44 121.456 247.738 120.542C248.063 119.555 248.879 118.765 249.841 118.371C250.804 117.976 251.89 117.944 252.907 118.169C253.072 118.205 253.246 118.256 253.347 118.394C253.42 118.495 253.439 118.628 253.443 118.756C253.48 119.601 253.159 120.423 252.815 121.194C252.137 122.719 251.335 124.192 250.428 125.597C250.006 126.249 249.53 126.915 248.829 127.26C248.723 127.31 248.6 127.356 248.49 127.31C248.38 127.264 248.329 127.094 248.425 127.03" fill="#0A244B"/>
<path d="M249.076 126.86C248.865 125.372 248.586 123.876 248.467 122.383C248.366 121.135 248.673 120.042 249.805 119.381C250.323 119.078 250.918 118.935 251.514 118.922C251.826 118.912 252.137 118.931 252.444 118.981C252.632 119.013 252.893 119.174 252.678 118.908C252.463 118.641 252.591 118.784 252.563 118.917C252.54 119.013 252.559 119.133 252.545 119.234C252.458 119.895 252.156 120.533 251.881 121.135C251.578 121.791 251.253 122.439 250.905 123.077C250.52 123.784 250.107 124.482 249.667 125.157C249.374 125.611 248.943 126.364 248.37 126.479H248.838L248.865 126.497L249.182 126.814L249.14 126.736L249.259 127.181V127.099C249.218 127.246 249.177 127.397 249.14 127.544L249.186 127.48C249.47 127.094 249.25 126.493 248.87 126.272C248.421 126.011 247.949 126.203 247.665 126.589C247.326 127.048 247.523 127.723 247.972 128.026C248.421 128.329 248.952 128.214 249.397 127.957C250.217 127.489 250.776 126.686 251.271 125.91C252.339 124.238 253.365 122.429 254.016 120.547C254.305 119.711 254.625 118.375 253.879 117.686C253.553 117.383 253.099 117.305 252.678 117.241C252.16 117.163 251.642 117.126 251.12 117.181C249.259 117.37 247.55 118.43 246.909 120.253C246.515 121.373 246.702 122.581 246.863 123.724C247.032 124.927 247.202 126.13 247.371 127.333C247.44 127.806 248.041 128.063 248.458 127.948C248.966 127.81 249.14 127.338 249.072 126.86H249.076Z" fill="#0A244B"/>
<path d="M252.957 119.032C253.214 118.325 254.112 118.031 254.845 118.201C255.578 118.371 256.179 118.876 256.747 119.367C257.136 119.702 257.521 120.033 257.911 120.368C258.268 120.675 258.626 120.988 258.887 121.378C259.144 121.773 259.295 122.259 259.18 122.719C259.148 122.847 259.093 122.971 259.001 123.063C258.901 123.164 258.763 123.214 258.626 123.242C258.209 123.325 257.778 123.182 257.393 122.994C256.284 122.448 255.423 121.52 254.584 120.611C254.213 120.207 253.823 119.771 253.718 119.229" fill="#0A244B"/>
<path d="M253.81 119.266C253.81 119.266 253.782 119.39 253.805 119.298C253.837 119.183 253.727 119.376 253.805 119.289C253.833 119.257 253.975 119.133 253.915 119.174C253.828 119.234 253.97 119.147 253.989 119.137C254.025 119.119 254.057 119.101 254.094 119.082C253.943 119.146 254.227 119.059 254.268 119.045C254.419 119.009 254.204 119.027 254.36 119.036C254.405 119.036 254.648 119.05 254.57 119.036C254.47 119.023 254.603 119.045 254.612 119.05C254.662 119.064 254.713 119.073 254.758 119.091C254.896 119.133 254.887 119.128 255.015 119.192C255.854 119.619 256.545 120.354 257.283 120.992C257.622 121.286 257.989 121.58 258.2 121.956C258.264 122.071 258.264 122.062 258.291 122.163C258.301 122.2 258.333 122.411 258.328 122.324C258.337 122.443 258.305 122.512 258.31 122.53L258.296 122.576L258.374 122.434L258.415 122.393C258.484 122.365 258.488 122.356 258.429 122.374C258.415 122.36 258.158 122.347 258.021 122.301C257.851 122.241 257.65 122.131 257.467 122.021C257.054 121.773 256.747 121.525 256.394 121.199C256.005 120.836 255.643 120.446 255.281 120.056C255.148 119.913 254.9 119.638 254.841 119.555C254.667 119.316 254.63 119.248 254.57 118.986C254.465 118.522 253.929 118.247 253.484 118.371C253.003 118.504 252.765 118.99 252.87 119.459C253.017 120.124 253.448 120.666 253.897 121.158C254.346 121.649 254.758 122.094 255.226 122.521C256.179 123.389 257.65 124.509 259.025 124.046C259.9 123.747 260.193 122.838 260.06 121.989C259.95 121.282 259.529 120.671 259.02 120.18C258.511 119.688 257.98 119.266 257.462 118.821C256.944 118.375 256.458 117.934 255.863 117.645C255.184 117.315 254.46 117.172 253.723 117.36C252.985 117.549 252.403 118.072 252.11 118.798C251.931 119.238 252.302 119.766 252.724 119.886C253.228 120.023 253.626 119.711 253.81 119.27V119.266Z" fill="#0A244B"/>
<path d="M252.426 126.107C252.595 125.46 252.6 124.789 252.463 124.133C252.398 123.83 252.293 123.495 252.114 123.237C251.839 122.843 251.45 122.585 250.96 122.558C250.167 122.512 249.654 123.265 249.498 123.958C249.383 124.459 249.392 125.005 249.566 125.492C249.777 126.093 250.153 126.603 250.698 126.947C251.088 127.191 251.688 127.044 251.904 126.63C252.133 126.194 252.004 125.685 251.587 125.423C251.537 125.391 251.491 125.359 251.445 125.322L251.624 125.46C251.514 125.372 251.418 125.276 251.331 125.166L251.468 125.345C251.367 125.216 251.289 125.074 251.225 124.927L251.312 125.138C251.244 124.978 251.198 124.808 251.175 124.633L251.207 124.867C251.184 124.693 251.184 124.518 251.207 124.349L251.175 124.583C251.198 124.431 251.234 124.289 251.294 124.151L251.207 124.362C251.257 124.248 251.317 124.142 251.39 124.041L251.253 124.22C251.285 124.183 251.312 124.156 251.349 124.128L251.17 124.266C251.17 124.266 251.212 124.238 251.234 124.229L251.024 124.316C251.024 124.316 251.07 124.303 251.092 124.298L250.859 124.33C250.895 124.326 250.932 124.326 250.969 124.33L250.735 124.298C250.785 124.307 250.831 124.316 250.882 124.335L250.671 124.248C250.708 124.266 250.74 124.28 250.772 124.303L250.593 124.165C250.639 124.202 250.675 124.238 250.712 124.28L250.575 124.101C250.63 124.169 250.671 124.243 250.708 124.326L250.62 124.114C250.717 124.349 250.776 124.596 250.813 124.849L250.781 124.615C250.817 124.909 250.817 125.203 250.781 125.492L250.813 125.258C250.795 125.386 250.767 125.515 250.735 125.643C250.62 126.089 250.882 126.621 251.349 126.731C251.816 126.842 252.311 126.594 252.435 126.116L252.426 126.107Z" fill="white"/>
</g>
<defs>
<clipPath id="clip0_139_569">
<rect width="415" height="438" fill="white"/>
</clipPath>
</defs>
</svg>
