<svg width="370" height="496" viewBox="0 0 370 496" fill="none" xmlns="http://www.w3.org/2000/svg">
<g clip-path="url(#clip0_139_672)">
<path d="M341.776 111.841C339.384 107.262 332.982 107.262 330.59 111.841L324.038 124.385L310.572 127.019C305.581 127.995 303.782 134.163 307.111 137.84L316.585 148.304L314.812 162.571C314.195 167.532 319.189 171.573 323.868 169.253L336.183 163.149L348.498 169.253C353.177 171.573 358.171 167.532 357.554 162.571L355.781 148.304L365.255 137.84C368.585 134.163 366.786 127.995 361.794 127.019L348.328 124.385L341.776 111.841Z" fill="#155C7E"/>
<path opacity="0.2" d="M159.685 391.387C165.22 393.787 171.046 395.872 176.912 397.284C196.958 402.336 219.546 399.996 234.215 384.271C239.934 378.296 244.095 370.345 244.708 362.184C245.06 357.387 244.565 352.443 240.868 349.282C237.544 346.468 232.459 345.816 228.42 347.167C224.999 348.247 222.283 350.975 220.629 354.099C213.327 368.321 224.795 383.022 238.535 387.37C262.92 395.016 299.779 377.501 306.657 352.356C307.739 347.977 307.801 343.41 306.509 339.123C305.411 335.744 303.558 332.588 300.458 331.064C299.065 330.554 299.064 330.641 298.074 330.835C297.16 331.064 295.955 331.747 295.531 332.563C295.501 332.639 295.516 332.675 295.536 332.66C295.598 332.639 295.715 332.364 295.73 332.14C295.735 332.114 295.741 332.089 295.73 332.063C295.735 332.048 295.756 332.043 295.761 332.038C295.781 332.012 295.735 332.017 295.761 331.992C295.781 331.966 295.776 331.951 295.756 331.941C295.781 331.926 295.792 331.91 295.776 331.905C295.812 331.885 295.924 332.012 296.215 332.257C296.823 332.746 298.217 333.45 299.79 333.801C308.408 335.361 316.833 330.947 323.297 325.381C330.297 319.294 335.873 311.506 340.177 303.146C340.652 302.111 342.515 298.451 343.016 297.391C350.21 281.66 354.463 264.513 355.877 247.146C355.949 245.102 356.138 242.599 356.25 240.535C356.337 238.333 356.27 236.09 356.316 233.893C356.367 231.303 356.092 227.572 356.03 224.993C355.852 222.883 355.596 220.273 355.438 218.31C355.111 215.384 354.662 212.311 354.233 209.395C353.922 207.988 353.135 203.161 352.742 201.611C352.027 198.716 351.154 194.521 350.245 191.651C349.817 190.183 349.403 188.705 349 187.216C348.801 186.63 349.148 185.973 349.75 185.815C350.235 185.682 350.736 185.901 350.981 186.309C352.543 189.011 354.208 191.697 355.612 194.49C356.832 197.069 358.614 200.444 359.584 203.064C360.707 205.781 362.086 209.211 362.933 211.959C363.362 213.401 364.057 215.079 364.394 216.501C364.823 218.188 365.869 221.827 366.268 223.428C366.518 224.774 367.452 229.035 367.728 230.473C368.3 233.587 368.723 236.86 369.142 239.994C371.271 259.339 369.454 279.239 363.715 297.86C363.133 299.527 361.928 303.309 361.361 304.884C360.84 306.25 359.15 310.333 358.583 311.776C349.005 334.775 328.229 358.07 301.015 356.729C289.261 356.164 276.752 349.048 274.184 336.778C271.85 326.528 278.105 316.486 287.347 312.311C294.719 308.86 303.037 308.977 310.211 313.096C321.239 319.417 326.544 332.384 326.284 344.557C326.166 356.271 320.872 367.954 313.509 376.472C292.825 401.331 246.382 415.599 219.812 392.447C209.911 384.082 203.841 370.477 206.868 357.52C208.124 351.928 210.912 346.611 215.058 342.61C221.987 335.805 232.438 334.077 241.287 337.859C251.728 342.375 255.144 352.672 253.541 363.183C250.697 383.455 232.98 398.859 213.644 403.044C201.844 405.598 189.718 404.538 178.24 401.23C172.286 399.486 166.364 397.157 160.819 394.384L158.736 393.339C157.546 392.635 158.302 390.851 159.68 391.376L159.685 391.387Z" fill="#155C7E"/>
<path d="M311.758 180.564C311.502 176.481 312.284 172.072 315.24 169.044C316.159 168.101 314.714 166.659 313.795 167.602C310.466 171.012 309.424 175.941 309.715 180.564C309.797 181.869 311.839 181.879 311.758 180.564Z" fill="#0A244B"/>
<path d="M320.994 164.757C320.887 164.936 320.775 165.114 320.657 165.287C320.601 165.364 320.55 165.445 320.494 165.522C320.468 165.563 320.438 165.598 320.407 165.634C320.31 165.762 320.407 165.649 320.443 165.588C320.228 165.925 319.912 166.225 319.631 166.506C319.35 166.786 319.049 167.051 318.737 167.301C318.64 167.377 318.926 167.158 318.788 167.265C318.743 167.301 318.697 167.332 318.651 167.367C318.574 167.423 318.497 167.479 318.416 167.53C318.242 167.648 318.069 167.76 317.89 167.872C317.43 168.147 317.221 168.8 317.522 169.269C317.823 169.737 318.431 169.931 318.921 169.636C320.494 168.687 321.816 167.362 322.766 165.792C323.042 165.333 322.883 164.65 322.398 164.395C321.913 164.141 321.295 164.273 320.999 164.762L320.994 164.757Z" fill="#0A244B"/>
<path d="M322.873 168.3C322.776 168.443 322.674 168.58 322.572 168.713L322.73 168.509C322.245 169.136 321.684 169.697 321.056 170.181L321.26 170.023C320.999 170.222 320.734 170.405 320.458 170.578C320.004 170.859 319.789 171.501 320.09 171.975C320.392 172.449 321.004 172.643 321.49 172.342C322.74 171.567 323.797 170.543 324.635 169.335C324.778 169.126 324.803 168.784 324.737 168.55C324.67 168.315 324.487 168.055 324.267 167.938C324.032 167.811 323.741 167.749 323.481 167.836C323.22 167.923 323.026 168.076 322.868 168.305L322.873 168.3Z" fill="#0A244B"/>
<path d="M323.858 171.792C322.664 173.168 321.387 174.478 320.034 175.707C319.401 176.283 318.702 176.808 318.165 177.486C317.512 178.316 317.216 179.229 317.364 180.279C317.44 180.824 318.135 181.125 318.62 180.993C319.207 180.829 319.411 180.284 319.335 179.739C319.35 179.835 319.345 179.662 319.345 179.652C319.381 179.295 319.319 179.713 319.365 179.509C319.406 179.341 319.442 179.249 319.503 179.132C319.656 178.847 319.85 178.627 320.085 178.398C320.662 177.832 321.295 177.322 321.888 176.772C323.087 175.656 324.226 174.473 325.303 173.234C325.666 172.816 325.712 172.2 325.303 171.792C324.936 171.425 324.221 171.374 323.858 171.792Z" fill="#0A244B"/>
<path d="M239.444 282.558C242.548 280.723 245.162 278.123 247.011 275.034C247.291 274.56 247.118 273.912 246.643 273.637C246.168 273.362 245.53 273.53 245.244 274.004C243.569 276.803 241.221 279.137 238.407 280.799C237.932 281.079 237.759 281.717 238.04 282.196C238.32 282.675 238.959 282.843 239.439 282.563L239.444 282.558Z" fill="#0A244B"/>
<path d="M250.988 278.011C251.06 278.148 251.111 278.306 251.192 278.444C251.136 278.306 251.126 278.286 251.167 278.388C251.182 278.429 251.202 278.475 251.218 278.515C251.243 278.577 251.264 278.643 251.289 278.709C251.397 279.01 251.483 279.316 251.555 279.627C251.591 279.78 251.621 279.938 251.647 280.096C251.652 280.131 251.657 280.162 251.662 280.198C251.672 280.274 251.667 280.243 251.647 280.096C251.647 280.096 251.672 280.345 251.677 280.366C251.708 280.682 251.713 281.003 251.703 281.319C251.688 281.854 252.183 282.364 252.724 282.339C253.265 282.313 253.73 281.89 253.745 281.319C253.786 279.81 253.429 278.322 252.744 276.981C252.499 276.507 251.79 276.329 251.345 276.614C250.86 276.93 250.717 277.501 250.978 278.011H250.988Z" fill="#0A244B"/>
<path d="M280.974 217.872C281.868 216.914 280.428 215.466 279.53 216.429C273.413 222.99 267.781 230.004 262.701 237.395C257.625 244.771 253.097 252.524 249.17 260.573C246.944 265.135 244.912 269.794 243.069 274.529C242.916 274.927 243.166 275.493 243.538 275.681C245.693 276.788 248.118 277.318 250.421 278.021C251.687 278.408 253.025 279.076 254.378 278.735C255.823 278.373 256.712 276.986 257.585 275.89C261.618 270.854 265.279 265.543 269.052 260.318C271.227 257.305 273.448 254.334 275.802 251.459C276.364 250.771 275.874 249.873 275.241 249.7L279.979 218.973C280.316 218.606 280.643 218.239 280.98 217.877L280.974 217.872Z" fill="white"/>
<path opacity="0.2" d="M1.0314 483.578C45.8607 481.085 91.9001 479.143 136.826 477.43C166.205 476.467 198.112 475.554 227.358 473.893C268.945 472.144 310.701 475.014 351.833 481.437C355.607 482.069 359.38 482.752 363.148 483.578C363.75 483.71 364.128 484.301 364.001 484.903C363.904 485.341 363.562 485.662 363.148 485.754C359.375 486.58 355.602 487.258 351.833 487.895C340.57 489.791 329.215 491.198 317.885 492.355C295.271 494.557 272.672 496.005 249.987 496C227.338 495.949 204.719 493.971 182.09 493.37C153.727 492.539 119.911 491.321 91.558 490.107C61.3825 488.772 31.2069 487.477 1.0314 485.754C0.42891 485.719 -0.0306158 485.204 0.00512514 484.602C0.0357602 484.041 0.485074 483.608 1.0314 483.578Z" fill="#155C7E"/>
<path d="M300.857 262.841C300.586 262.005 299.759 261.495 298.983 261.2C297.957 260.807 296.849 260.578 295.792 260.282C293.56 259.655 291.324 259.033 289.093 258.406C284.058 256.994 279.024 255.588 273.99 254.176C273.04 253.91 272.499 254.945 272.815 255.633L259.249 262.765C259.249 262.765 259.234 262.739 259.229 262.724C258.626 261.557 256.86 262.586 257.462 263.753C259.887 268.438 263.865 272.286 268.644 274.545C269.139 274.779 269.752 274.692 270.043 274.178C271.738 271.185 273.02 267.974 273.847 264.646C274.878 265.925 275.904 267.21 276.936 268.489C277.671 269.406 278.411 270.324 279.147 271.242C279.78 272.032 280.377 272.878 281.097 273.597C281.807 274.305 282.675 274.81 283.691 274.871C284.758 274.932 285.784 274.489 286.713 274.02C288.587 273.077 290.41 272.021 292.177 270.895C293.959 269.763 295.679 268.54 297.344 267.245C298.161 266.613 298.957 265.966 299.744 265.298C300.494 264.661 301.178 263.896 300.841 262.841H300.857Z" fill="#155C7E"/>
<path d="M125.047 475.544C122.382 477.012 119.211 477.359 116.194 477.313C112.211 468.076 108.331 458.789 103.878 449.762C99.4157 440.719 94.361 431.941 88.1216 423.989C84.6139 419.519 80.7284 415.349 76.4497 411.603C75.7349 410.976 74.7801 411.562 74.6831 412.26L61.4436 411.475C61.4487 410.767 60.7135 410.053 59.9323 410.537C58.3648 411.496 57.8287 413.05 57.8746 414.682L43.8846 414.146C43.9101 413.698 43.5476 413.239 43.1238 413.122C42.5469 412.964 42.0669 413.315 41.8678 413.835C39.7642 419.295 42.6541 425.259 46.7286 428.949C48.9649 430.973 51.5689 432.543 54.2086 433.98C57.1138 435.56 60.0548 437.079 62.9805 438.624C65.707 440.061 68.4284 441.504 71.1549 442.941C65.7734 444.501 60.836 447.187 56.1539 450.266C51.0379 453.625 46.121 457.347 40.5607 459.956C37.2419 461.516 33.7189 462.592 30.0886 463.132C29.5627 463.209 29.2104 463.912 29.3738 464.386C31.263 469.84 34.2856 474.836 38.2529 479.036C38.9881 479.816 40.1624 478.99 39.9582 478.042C39.4527 475.661 39.2383 473.24 39.3251 470.804C39.3506 470.039 39.2587 468.744 40.0093 468.27C40.3616 468.046 40.8211 467.995 41.2245 467.918C41.735 467.827 42.2354 467.715 42.7409 467.587C46.6979 466.614 50.6703 465.701 54.6579 464.85C59.6719 463.774 64.7573 462.877 69.664 461.358C72.0382 460.624 74.3563 459.732 76.6386 458.748C79.5745 457.484 82.5716 456.195 85.3543 454.625C86.0436 454.232 86.7277 453.799 87.3813 453.325C88.4178 456.047 89.73 458.657 91.3434 461.093C93.1458 463.815 95.229 466.354 97.3683 468.826C102.229 474.443 107.667 479.663 111.905 485.785C112.221 486.238 112.793 486.442 113.304 486.152C117.914 483.496 122.846 481.37 126.283 477.145C126.987 476.278 126.119 474.953 125.047 475.544Z" fill="#0A244B"/>
<path d="M330.522 326.854C327.392 327.185 325.155 323.857 324.201 321.287C322.796 317.515 323.251 313.407 323.603 309.487C324.226 302.611 324.328 295.607 323.991 288.71C323.802 284.877 323.435 280.855 321.923 277.287C320.672 274.33 318.339 272.246 315.546 270.752C314.137 269.998 312.666 269.371 311.211 268.713C309.297 267.847 307.377 266.98 305.416 266.215C303.41 265.436 301.357 264.758 299.243 264.335C297.548 263.993 295.848 263.677 294.153 263.325C286.867 261.827 279.586 260.144 272.187 259.324C271.37 259.232 270.548 259.156 269.726 259.094L269.742 257.835C270.068 256.831 270.416 255.842 270.763 254.864C271.202 253.625 269.226 253.09 268.792 254.323C266.351 261.22 263.661 270.487 270.487 275.849C272.233 277.221 274.271 278.143 276.328 278.959C278.411 279.785 280.566 280.442 282.736 280.998C286.157 281.87 289.639 282.491 293.142 282.986C292.018 285.091 291.186 287.344 290.696 289.674C290.379 291.177 290.226 292.707 290.155 294.241C290.078 295.831 290.068 297.442 289.726 299.007C289.088 301.938 287.091 304.145 284.753 305.909C281.817 308.131 278.544 309.956 275.2 311.485C274.107 311.985 274.904 313.601 275.986 313.351C277.39 313.025 278.759 312.571 280.081 312.005C279.53 313.285 279.249 314.681 279.315 316.103C279.458 319.361 281.281 322.383 284.053 324.086C284.773 324.529 285.866 323.785 285.554 322.934C285.483 322.74 285.427 322.547 285.381 322.348C285.309 322.027 285.325 322.083 285.304 321.792C285.269 321.277 285.289 320.757 285.345 320.237C285.473 319.034 285.835 317.775 286.249 316.608C287.27 313.728 288.878 310.986 290.88 308.682C292.003 307.382 293.305 306.327 294.587 305.195C296.073 303.885 297.466 302.473 298.799 301.015C301.485 298.074 303.936 294.929 306.488 291.876C307.785 290.321 309.189 288.853 310.522 287.334C310.491 288.991 310.599 290.642 310.854 292.304C311.257 294.954 312.008 297.529 312.825 300.077C314.576 305.537 316.491 310.945 316.506 316.751C316.516 320.319 315.924 323.831 315.163 327.307C314.882 328.587 316.853 329.132 317.134 327.848C317.456 326.39 317.777 324.932 318.094 323.474C318.696 325.162 319.661 326.701 321.055 327.858C323.797 330.137 327.999 330.845 331.048 328.745C331.793 328.23 331.635 326.726 330.532 326.844L330.522 326.854Z" fill="#0A244B"/>
<path d="M301.362 262.061C298.069 256.383 295.853 250.113 293.581 243.981C291.115 237.329 288.715 230.605 285.473 224.279C284.14 221.68 282.639 219.157 280.857 216.837C282.123 214.11 283.594 211.317 283.778 208.269C283.931 205.735 282.894 203.1 280.76 201.632C278.728 200.235 276.109 200.612 274.337 202.233C272.325 204.068 271.605 207.02 272.341 209.604C273.188 212.596 275.476 214.911 277.845 216.802C278.023 216.944 278.228 217.036 278.437 217.072C278.452 217.092 278.468 217.113 278.488 217.133C278.381 217.362 278.274 217.587 278.166 217.816L274.291 226.247C271.707 231.869 269.124 237.492 266.54 243.114C263.64 249.43 260.735 255.746 257.835 262.061C257.523 262.739 257.881 263.601 258.718 263.596C261.572 263.575 264.421 263.718 267.245 264.166C269.66 264.554 272.05 265.094 274.454 265.517C277.681 266.083 280.954 266.537 284.237 266.583C287.081 266.623 289.925 266.338 292.713 265.762C295.434 265.201 298.089 264.355 300.75 263.56C301.383 263.371 301.694 262.642 301.362 262.061Z" fill="white"/>
<path d="M277.012 221.048C272.177 232.751 266.683 244.185 260.572 255.276C259.719 256.826 258.851 258.371 257.973 259.905C257.166 261.312 255.93 262.872 256.39 264.584C256.732 265.848 258.703 265.313 258.361 264.044C258.202 263.463 258.616 262.887 258.892 262.397C259.295 261.699 259.693 261.001 260.092 260.302C260.868 258.936 261.634 257.57 262.389 256.194C263.865 253.518 265.305 250.816 266.704 248.099C269.542 242.594 272.233 237.013 274.771 231.36C276.221 228.123 277.625 224.86 278.978 221.583C279.187 221.073 278.748 220.461 278.263 220.329C277.676 220.166 277.217 220.528 277.007 221.042L277.012 221.048Z" fill="#0A244B"/>
<path d="M102.913 337.344C104.139 336.946 105.359 336.549 106.585 336.151C107.09 335.988 107.473 335.438 107.299 334.897C107.136 334.393 106.585 334.01 106.043 334.184C104.818 334.581 103.598 334.979 102.372 335.377C101.867 335.54 101.484 336.09 101.657 336.63C101.821 337.135 102.372 337.517 102.913 337.344Z" fill="#0A244B"/>
<path d="M104.43 340.861C105.344 340.872 106.227 340.652 107.049 340.26C107.269 340.158 107.458 339.878 107.519 339.648C107.585 339.404 107.555 339.077 107.417 338.863C107.279 338.649 107.065 338.455 106.804 338.394L106.534 338.359C106.35 338.359 106.176 338.405 106.018 338.496C105.951 338.527 105.88 338.563 105.808 338.588L106.054 338.486C105.666 338.649 105.257 338.756 104.843 338.812L105.114 338.777C104.884 338.807 104.66 338.817 104.43 338.817C104.17 338.817 103.889 338.935 103.71 339.118C103.531 339.302 103.399 339.587 103.409 339.837C103.434 340.393 103.858 340.851 104.43 340.856V340.861Z" fill="#0A244B"/>
<path d="M105.604 342.294C104.547 342.707 103.47 343.069 102.377 343.369C101.862 343.512 101.494 344.098 101.662 344.623C101.831 345.148 102.367 345.49 102.919 345.337C104.011 345.036 105.088 344.674 106.145 344.261C106.401 344.159 106.61 344.037 106.758 343.792C106.886 343.573 106.942 343.252 106.86 343.007C106.779 342.763 106.625 342.523 106.39 342.396C106.156 342.268 105.854 342.197 105.604 342.294Z" fill="#0A244B"/>
<path d="M215.38 40.3407C213.557 34.7438 210.887 29.417 207.471 24.6255C204.06 19.8441 199.96 15.6031 195.304 12.0248C190.617 8.42092 185.383 5.5613 179.828 3.52745C174.13 1.43752 168.09 0.275321 162.024 0.0408415C155.892 -0.193638 149.703 0.530189 143.801 2.20723C138.118 3.818 132.67 6.30042 127.738 9.54744C122.862 12.7486 118.461 16.6736 114.744 21.1695C110.976 25.7265 107.927 30.8086 105.676 36.2679C103.363 41.875 101.974 47.8389 101.509 53.8793C101.034 60.0114 101.545 66.2353 103 72.2146C104.399 77.9593 106.702 83.5052 109.776 88.5618C112.803 93.542 116.587 98.0786 120.947 101.948C125.328 105.832 130.286 109.074 135.627 111.485C141.146 113.977 146.997 115.593 153.017 116.297C159.159 117.015 165.409 116.74 171.47 115.517C177.326 114.334 183.004 112.229 188.222 109.318C193.323 106.479 198 102.86 202.033 98.6393C206.072 94.4187 209.488 89.5864 212.097 84.3565C214.762 79.0094 216.61 73.2646 217.514 67.3568C217.974 64.3697 218.208 61.3622 218.214 58.3395C218.203 52.243 217.264 46.1415 215.38 40.3407Z" fill="#155C7E"/>
<path d="M163.974 46.8806C159.231 45.1067 153.62 46.6156 150.398 50.5151C147.13 54.4757 146.614 60.1746 149.274 64.5991C151.919 69.0032 157.122 71.2716 162.157 70.3133C167.844 69.2326 171.96 64.0639 172.001 58.3395C171.96 53.2371 168.758 48.6647 163.974 46.8755V46.8806Z" fill="#87F0C9"/>
<path d="M103.383 355.842V336.427C103.383 320.115 103.383 303.803 103.383 287.487V222.322C103.383 199.623 103.383 176.925 103.383 154.221C103.383 131.517 103.383 115.568 103.383 96.2383C103.383 84.9323 103.383 73.6264 103.383 62.3204C103.383 59.1753 103.342 56.0404 103.638 52.9055C105.114 37.2617 113.406 22.6271 126.012 13.2327C138.715 3.77195 155.161 0.0202864 170.724 3.0991C185.883 6.09636 199.383 15.394 207.588 28.4687C213.654 38.1334 216.176 48.9806 216.176 60.2916V82.975C216.176 102.834 216.176 122.689 216.176 142.548V146.391C216.176 147.701 218.219 147.707 218.219 146.391V67.8205C218.219 60.9747 218.464 54.1136 217.177 47.3494C214.353 32.4447 205.52 19.0488 193.067 10.3934C180.257 1.48833 164.081 -1.85045 148.764 1.04486C133.446 3.94017 120.14 12.8657 111.481 25.497C104.782 35.2686 101.351 46.8855 101.341 58.6962C101.331 66.7551 101.341 74.8141 101.341 82.873C101.341 100.479 101.341 118.086 101.341 135.687C101.341 153.288 101.341 180.457 101.341 202.84C101.341 225.222 101.341 248.38 101.341 271.155C101.341 289.566 101.341 307.978 101.341 326.39C101.341 335.784 101.341 345.184 101.341 354.578V355.842C101.341 357.153 103.383 357.158 103.383 355.842Z" fill="#0A244B"/>
<path d="M216.314 145.871C215.681 147.11 215.043 148.344 214.41 149.582L209.248 159.639C206.705 164.594 204.162 169.549 201.619 174.503C198.515 180.544 195.416 186.589 192.311 192.63L182.12 212.484C178.679 219.187 175.238 225.885 171.801 232.588C168.615 238.797 165.424 245.005 162.238 251.219L154.104 267.062C152.169 270.834 150.229 274.611 148.294 278.383C147.37 280.182 146.43 281.976 145.522 283.781C145.481 283.857 145.445 283.934 145.404 284.01C145.057 284.688 145.481 285.545 146.287 285.545H282.358C284.196 285.545 286.039 285.58 287.872 285.545C287.954 285.545 288.031 285.545 288.112 285.545C288.919 285.545 289.343 284.688 288.996 284.01C288.363 282.772 287.724 281.538 287.091 280.299C285.371 276.945 283.65 273.596 281.929 270.242C279.387 265.288 276.844 260.333 274.301 255.378C271.197 249.338 268.097 243.292 264.993 237.252C261.598 230.636 258.197 224.014 254.802 217.398C251.407 210.781 247.919 203.997 244.483 197.294C241.297 191.085 238.106 184.877 234.92 178.663C232.209 173.382 229.497 168.101 226.786 162.82L220.976 151.499C220.052 149.7 219.168 147.875 218.203 146.101C218.162 146.024 218.127 145.948 218.086 145.871C217.488 144.704 215.722 145.734 216.319 146.901C216.952 148.14 217.59 149.373 218.224 150.612C219.944 153.966 221.665 157.315 223.386 160.669C225.928 165.624 228.471 170.578 231.014 175.533L240.322 193.659C243.717 200.276 247.118 206.897 250.513 213.514C253.908 220.13 257.396 226.915 260.832 233.618C264.018 239.826 267.209 246.035 270.395 252.249C273.106 257.529 275.818 262.81 278.529 268.091C280.464 271.863 282.404 275.64 284.339 279.412C285.258 281.207 286.116 283.057 287.112 284.811C287.152 284.887 287.188 284.964 287.229 285.04L288.112 283.506H152.042C150.214 283.506 148.35 283.409 146.527 283.506C146.446 283.506 146.364 283.506 146.287 283.506L147.171 285.04C147.804 283.801 148.442 282.568 149.075 281.329C150.796 277.975 152.517 274.626 154.237 271.272C156.78 266.317 159.323 261.363 161.865 256.408C164.97 250.368 168.069 244.322 171.173 238.282L181.365 218.427C184.806 211.724 188.247 205.026 191.683 198.323C194.87 192.115 198.061 185.906 201.247 179.693L209.38 163.85C211.315 160.078 213.256 156.301 215.191 152.529C216.115 150.729 217.054 148.935 217.963 147.131C218.004 147.054 218.04 146.978 218.081 146.901C218.678 145.734 216.917 144.704 216.314 145.871Z" fill="#0A244B"/>
<path d="M219.475 143.379C216.917 142.411 213.853 143.231 212.122 145.342C210.361 147.488 210.064 150.561 211.499 152.967C212.934 155.368 215.732 156.566 218.464 156.077C221.568 155.521 223.774 152.682 223.82 149.588C223.784 146.815 222.073 144.368 219.475 143.384V143.379Z" fill="#155C7E"/>
<path d="M104.639 355.226C102.081 354.257 99.0176 355.078 97.2867 357.188C95.5252 359.334 95.229 362.408 96.6638 364.814C98.0985 367.215 100.897 368.413 103.628 367.924C106.732 367.368 108.938 364.529 108.984 361.435C108.948 358.662 107.238 356.215 104.639 355.231V355.226Z" fill="#87F0C9"/>
<path d="M293.974 285.861C293.647 283.073 291.278 281.039 288.495 280.978H145.21C144.219 280.978 143.254 280.957 142.299 281.309C140.053 282.145 138.679 284.255 138.664 286.62C138.654 287.935 138.664 289.251 138.664 290.561V296.326C138.664 297.401 138.577 298.523 138.71 299.598C139.067 302.601 141.631 304.482 144.546 304.482H281.582C283.828 304.482 286.075 304.492 288.327 304.482C291.553 304.466 294.009 301.999 294.025 298.778C294.04 295.5 294.025 292.217 294.025 288.94C294.025 287.925 294.101 286.87 293.979 285.856L293.974 285.861Z" fill="#C5E2E0"/>
<path d="M144.184 283.016H296.639C298.697 283.016 300.76 283.057 302.817 283.016C302.909 283.016 302.996 283.016 303.088 283.016C304.4 283.016 304.405 280.977 303.088 280.977H150.632C148.575 280.977 146.512 280.937 144.454 280.977C144.363 280.977 144.276 280.977 144.184 280.977C142.872 280.977 142.867 283.016 144.184 283.016Z" fill="#0A244B"/>
<path d="M104.292 377.843C101.667 375.401 98.8133 373.199 95.7651 371.308C94.652 370.615 93.4368 369.753 92.1144 369.774C92.4769 369.32 92.8445 368.872 93.2071 368.418C94.8256 366.404 96.5565 364.457 98.0933 362.383C99.6966 360.216 100.718 357.81 100.917 355.109C101.376 348.941 97.8942 343.512 94.6112 338.608C94.1976 337.992 93.2377 337.905 92.8445 338.608C86.3959 350.164 77.3381 360.389 67.2847 368.948C65.1709 370.747 62.9907 372.47 60.739 374.096C61.6325 372.124 62.4086 370.09 62.5414 367.928C62.6945 365.395 61.6581 362.76 59.5238 361.292C57.4917 359.895 54.8724 360.272 53.1007 361.893C51.089 363.728 50.369 366.68 51.1043 369.264C51.9519 372.256 54.2393 374.57 56.6084 376.461C56.7871 376.604 56.9964 376.696 57.2058 376.732C57.2211 376.752 57.2364 376.767 57.2517 376.788C57.1445 377.017 57.0322 377.247 56.93 377.471C55.6383 380.279 54.3465 383.093 53.0547 385.902C50.4712 391.524 47.8876 397.147 45.304 402.769C42.4039 409.085 39.4987 415.4 36.5986 421.716C36.2871 422.394 36.6445 423.26 37.4819 423.25C43.5425 423.184 49.5317 422.047 55.383 420.523C61.3466 418.974 67.2285 417.108 73.1309 415.344C76.5212 414.33 79.9114 413.315 83.3017 412.306C83.9297 412.118 84.2514 411.389 83.9144 410.808C81.4892 406.648 78.9311 402.565 76.2659 398.559C78.0274 398.763 79.8144 398.742 81.5964 398.462C87.9123 397.458 93.3704 393.329 97.5879 388.731C100.248 385.83 102.699 382.599 104.455 379.071C104.654 378.674 104.639 378.159 104.297 377.838L104.292 377.843Z" fill="white"/>
<path d="M97.9046 371.476C97.9965 371.211 98.0936 370.946 98.1957 370.686C98.2467 370.554 98.2978 370.426 98.3539 370.294C98.3999 370.182 98.4101 370.166 98.3744 370.248C98.3999 370.182 98.4305 370.12 98.4561 370.054C98.6807 369.539 98.9309 369.035 99.1964 368.54C99.7325 367.551 100.345 366.603 101.024 365.706C101.351 365.278 101.106 364.549 100.657 364.309C100.115 364.024 99.6049 364.218 99.2577 364.676C97.8178 366.568 96.7099 368.688 95.9338 370.936C95.7602 371.441 96.1329 372.073 96.6486 372.19C97.2153 372.317 97.7208 372.017 97.9046 371.476Z" fill="#0A244B"/>
<path d="M103.587 368.861C105.446 367.877 107.019 366.42 108.178 364.671C108.474 364.228 108.28 363.524 107.81 363.274C107.299 363.004 106.728 363.162 106.411 363.642C106.283 363.83 106.151 364.019 106.018 364.202C105.885 364.386 106.161 364.024 106.013 364.212C105.977 364.258 105.941 364.304 105.906 364.345C105.834 364.432 105.763 364.523 105.686 364.605C105.38 364.957 105.053 365.293 104.706 365.609C104.537 365.762 104.364 365.91 104.185 366.053C104.159 366.073 104.001 366.2 104.129 366.098C104.256 365.997 104.098 366.124 104.067 366.144C103.976 366.211 103.884 366.282 103.792 366.343C103.399 366.618 102.985 366.868 102.561 367.092C102.086 367.342 101.903 368.041 102.194 368.489C102.505 368.968 103.087 369.121 103.593 368.856L103.587 368.861Z" fill="#0A244B"/>
<path d="M107.442 367.403C107.018 367.781 106.595 368.158 106.171 368.535C106.069 368.627 106.002 368.739 105.961 368.861C105.895 368.984 105.87 369.116 105.875 369.254C105.87 369.396 105.9 369.524 105.961 369.646C106.002 369.774 106.074 369.881 106.171 369.972C106.365 370.151 106.62 370.283 106.891 370.273L107.161 370.238C107.335 370.187 107.483 370.1 107.611 369.978C108.034 369.6 108.458 369.223 108.882 368.846C108.984 368.754 109.05 368.642 109.091 368.52C109.158 368.397 109.183 368.265 109.178 368.127C109.183 367.984 109.153 367.857 109.091 367.735C109.05 367.607 108.979 367.5 108.882 367.408C108.688 367.23 108.433 367.098 108.162 367.108L107.891 367.143C107.718 367.194 107.57 367.281 107.442 367.403Z" fill="#0A244B"/>
<path d="M107.243 371.818C107.243 371.818 107.095 372.017 107.187 371.899C107.279 371.782 107.126 371.971 107.126 371.976C107.054 372.062 106.978 372.154 106.901 372.236C106.748 372.409 106.59 372.572 106.421 372.73C106.253 372.888 106.069 373.092 105.87 373.204C105.977 373.138 105.962 373.138 105.865 373.204C105.824 373.235 105.783 373.265 105.742 373.296C105.64 373.372 105.533 373.444 105.425 373.51C105.037 373.76 104.614 374.015 104.175 374.178C104.246 374.152 104.323 374.117 104.205 374.163C104.144 374.183 104.088 374.208 104.026 374.229C103.919 374.27 103.812 374.305 103.7 374.341C103.455 374.417 103.21 374.484 102.959 374.54C102.439 374.657 102.081 375.289 102.245 375.794C102.423 376.339 102.944 376.63 103.501 376.507C105.732 376.008 107.667 374.667 109.01 372.837C109.326 372.404 109.097 371.68 108.642 371.441C108.111 371.16 107.585 371.344 107.243 371.808V371.818Z" fill="#0A244B"/>
<path d="M97.7871 338.231C97.8943 337.961 97.7003 338.415 97.8177 338.15C97.8484 338.083 97.879 338.017 97.9096 337.951C97.9811 337.808 98.0526 337.66 98.1343 337.523C98.2926 337.242 98.4713 336.972 98.6551 336.712C98.8236 336.478 98.5274 336.865 98.7112 336.641C98.7572 336.585 98.8031 336.529 98.8491 336.473C98.9512 336.35 99.0635 336.228 99.1708 336.111C99.3954 335.876 99.6303 335.657 99.8805 335.453C99.9009 335.438 100.085 335.285 99.9826 335.367C99.8805 335.448 100.069 335.3 100.09 335.285C100.233 335.183 100.376 335.081 100.524 334.989C100.794 334.816 101.08 334.658 101.371 334.52C101.438 334.49 101.504 334.459 101.571 334.429C101.678 334.378 101.428 334.48 101.611 334.413C101.759 334.357 101.913 334.296 102.066 334.25C102.387 334.143 102.714 334.062 103.046 333.995C103.572 333.893 103.919 333.236 103.761 332.741C103.582 332.181 103.067 331.921 102.505 332.028C99.4669 332.614 96.9497 334.842 95.8213 337.691C95.6222 338.19 96.0358 338.833 96.5362 338.945C97.1233 339.077 97.5828 338.766 97.7922 338.231H97.7871Z" fill="#0A244B"/>
<path d="M100.248 337.762C100.284 337.849 100.314 337.936 100.34 338.027C100.35 338.073 100.365 338.119 100.371 338.165C100.391 338.277 100.391 338.257 100.371 338.104C100.411 338.129 100.406 338.634 100.371 338.665C100.391 338.512 100.396 338.491 100.371 338.603C100.36 338.649 100.35 338.695 100.34 338.741C100.32 338.833 100.294 338.924 100.263 339.016C100.248 339.062 100.233 339.108 100.217 339.154C100.177 339.256 100.182 339.246 100.238 339.108C100.238 339.174 100.161 339.271 100.126 339.332C100.039 339.495 99.9417 339.648 99.8396 339.796C99.8089 339.842 99.6302 340.117 99.7834 339.883C99.7323 339.964 99.6609 340.036 99.5996 340.107C99.3443 340.403 99.0737 340.683 98.798 340.963C98.4253 341.346 98.3895 342.029 98.798 342.406C99.2065 342.783 99.8447 342.814 100.243 342.406C100.886 341.754 101.555 341.065 101.959 340.229C102.403 339.307 102.617 338.19 102.219 337.212C102.117 336.957 101.999 336.748 101.749 336.6C101.53 336.473 101.208 336.417 100.963 336.498C100.488 336.651 100.034 337.222 100.248 337.752V337.762Z" fill="#0A244B"/>
<path d="M320.652 188.098C320.56 185.764 320.397 183.434 320.213 181.11C320.167 180.559 320.136 179.998 320.08 179.448C319.988 178.617 319.238 178.372 318.554 178.092C317.476 177.649 316.322 177.404 315.153 177.353C312.804 177.246 310.389 177.893 309.205 180.075C308.092 182.134 307.428 184.474 306.861 186.732C305.728 191.259 305.105 196.03 302.874 200.194C298.911 207.591 290.957 211.617 283.574 214.859C282.629 215.272 281.684 215.68 280.735 216.078C280.229 216.292 280.117 217.041 280.367 217.474C280.597 217.867 280.975 217.994 281.363 217.948L283.431 235.672C283.379 235.687 283.328 235.708 283.277 235.723C282.032 236.131 282.568 238.098 283.819 237.691C292.35 234.912 300.372 230.264 306.933 224.137C310.185 221.099 313.106 217.643 315.362 213.799C317.619 209.951 319.156 205.71 319.932 201.316C320.708 196.952 320.816 192.507 320.647 188.088L320.652 188.098Z" fill="white"/>
<path d="M288.812 237.594C288.889 237.558 288.96 237.528 289.037 237.492L288.792 237.594C289.338 237.364 289.905 237.201 290.487 237.104C290.727 237.064 290.982 236.834 291.1 236.635C291.227 236.416 291.283 236.095 291.202 235.85C291.12 235.606 290.967 235.366 290.732 235.239L290.487 235.137C290.308 235.086 290.124 235.086 289.946 235.137C289.19 235.264 288.475 235.509 287.781 235.83C287.561 235.932 287.372 236.218 287.311 236.442C287.245 236.686 287.275 237.013 287.413 237.227C287.551 237.441 287.765 237.635 288.026 237.696L288.296 237.731C288.48 237.731 288.654 237.686 288.812 237.594Z" fill="#0A244B"/>
<path d="M284.931 223.912C283.144 221.078 281.873 217.974 281.163 214.701C280.816 213.096 280.612 211.47 280.551 209.833C280.52 209.023 280.525 208.212 280.566 207.407C280.586 206.984 280.607 206.561 280.724 206.153C280.734 206.123 280.75 206.087 280.76 206.056C280.969 205.842 281.168 205.613 281.388 205.419C281.817 205.052 282.282 204.736 282.726 204.389C283.726 203.615 284.472 202.667 284.697 201.392C284.773 200.969 284.656 200.449 284.227 200.24C281.26 198.793 276.859 196.162 274.209 199.425C270.844 199.659 267.909 202.478 267.429 205.812C267.291 206.785 267.372 207.728 267.628 208.676C267.888 209.66 268.353 210.649 268.399 211.679C268.48 213.575 266.653 214.742 265.468 215.945C264.186 217.245 263.017 219.294 263.712 221.165C264.043 222.057 264.707 222.658 265.483 223.168C266.004 223.51 266.877 223.861 267.005 224.55C267.148 225.319 266.407 226.176 265.958 226.721C265.32 227.496 264.518 228.383 264.814 229.479C265.1 230.539 266.229 230.784 267.168 230.947C268.276 231.14 269.4 231.212 270.518 231.146C275.746 230.83 280.27 228.051 284.564 225.304C285.018 225.013 285.233 224.392 284.931 223.907V223.912Z" fill="#0A244B"/>
<path d="M296.338 284.26C298.666 284.841 300.989 285.422 303.318 286.003L306.744 286.86C307.801 287.125 309.021 287.278 310.016 287.726C310.517 287.956 311.114 287.869 311.415 287.359C311.671 286.921 311.553 286.192 311.048 285.963C309.976 285.478 308.791 285.264 307.652 284.979L304.104 284.092C301.694 283.49 299.289 282.889 296.879 282.287C295.603 281.966 295.061 283.934 296.338 284.255V284.26Z" fill="#C5E2E0"/>
<path d="M281.659 206.867C281.373 206.581 281.031 206.332 280.653 206.174C280.02 205.898 279.198 205.633 278.631 206.199C278.35 206.479 278.248 206.872 278.222 207.254C278.212 207.402 278.243 207.555 278.263 207.698C278.274 207.774 278.294 207.845 278.319 207.917C278.371 208.06 278.427 208.202 278.503 208.335C278.58 208.467 278.682 208.595 278.779 208.712C278.927 208.896 279.126 209.038 279.325 209.161C279.713 209.4 280.168 209.533 280.612 209.609C280.75 209.65 280.883 209.66 281.021 209.63C281.158 209.624 281.281 209.584 281.398 209.507C281.613 209.385 281.812 209.14 281.868 208.896C281.929 208.636 281.914 208.34 281.766 208.111C281.628 207.902 281.414 207.687 281.153 207.642C280.893 207.596 280.617 207.535 280.367 207.427L280.612 207.529C280.479 207.473 280.352 207.402 280.239 207.315L280.444 207.473C280.352 207.402 280.27 207.326 280.198 207.234L280.357 207.438C280.295 207.356 280.244 207.264 280.198 207.168L280.301 207.412C280.265 207.326 280.239 207.234 280.229 207.142L280.265 207.412C280.255 207.336 280.255 207.264 280.265 207.188L280.229 207.458C280.239 207.392 280.255 207.326 280.28 207.264L280.178 207.509C280.188 207.478 280.204 207.453 280.224 207.427L280.066 207.631L280.081 207.616L279.877 207.774C279.877 207.774 279.902 207.754 279.918 207.749L279.673 207.851H279.698C279.606 207.856 279.519 207.866 279.427 207.881C279.463 207.881 279.499 207.881 279.535 207.881L279.264 207.845C279.473 207.876 279.673 207.932 279.867 208.014L279.622 207.912C279.821 207.998 280.01 208.105 280.183 208.243L279.979 208.085C280.061 208.151 280.137 208.218 280.214 208.294C280.398 208.478 280.673 208.595 280.934 208.595C281.194 208.595 281.485 208.483 281.654 208.294C281.822 208.105 281.965 207.845 281.955 207.575C281.945 207.305 281.853 207.05 281.654 206.857L281.659 206.867Z" fill="white"/>
<path d="M66.1972 353.432C66.1257 352.794 65.5998 352.249 64.9054 352.448C62.2657 353.212 59.5851 354.059 57.216 355.481C56.0264 356.194 54.898 357.061 53.9687 358.101C53.0292 359.151 52.3655 360.425 51.3903 361.445C50.3691 362.515 49.0161 363.142 48.0868 364.33C47.2035 365.461 46.4121 367.021 46.9022 368.474C47.372 369.876 48.7097 370.768 49.8687 371.578C50.9205 372.317 52.5289 373.745 53.8258 372.751C54.4129 372.297 54.6376 371.583 54.755 370.885C54.9082 369.962 55.0154 369.03 55.0665 368.097C55.1482 366.613 55.0818 365.13 54.9031 363.657C57.6347 364.207 60.5553 363.514 62.7508 361.776C65.2118 359.829 66.5393 356.541 66.2023 353.437L66.1972 353.432Z" fill="#0A244B"/>
<path d="M56.0163 366.975C55.5312 366.659 54.9542 366.455 54.3875 366.353C54.0556 366.292 53.7033 366.231 53.3612 366.262C52.8864 366.307 52.483 366.45 52.1205 366.771C51.4465 367.368 51.4363 368.443 52.0745 369.065C52.5902 369.565 53.3051 369.697 53.9892 369.789C54.6734 369.881 55.4138 369.825 56.1082 369.661C56.629 369.539 56.9864 368.917 56.823 368.408C56.6494 367.867 56.1235 367.566 55.5669 367.694C55.4087 367.73 55.2555 367.76 55.0972 367.786L55.3678 367.75C54.9083 367.811 54.4488 367.811 53.9943 367.75L54.265 367.786C53.979 367.745 53.6931 367.689 53.4225 367.582L53.6676 367.684C53.5706 367.643 53.4838 367.592 53.397 367.531L53.6012 367.689C53.545 367.643 53.494 367.597 53.4531 367.541L53.6114 367.745C53.5808 367.699 53.5552 367.653 53.5297 367.602L53.6318 367.847C53.6165 367.806 53.6114 367.77 53.6012 367.724L53.6369 367.995C53.6369 367.949 53.6369 367.903 53.6369 367.857L53.6012 368.127C53.6114 368.081 53.6216 368.041 53.642 367.995L53.5399 368.239C53.5604 368.199 53.5808 368.158 53.6114 368.117L53.4531 368.321C53.5042 368.255 53.5552 368.204 53.6216 368.153L53.4174 368.311C53.4684 368.275 53.5246 368.244 53.5808 368.219L53.3357 368.321C53.4225 368.29 53.5144 368.265 53.6063 368.255L53.3357 368.29C53.5246 368.27 53.7135 368.285 53.8973 368.311L53.6267 368.275C54.0097 368.331 54.3875 368.418 54.7449 368.571L54.4998 368.469C54.6683 368.54 54.8317 368.627 54.9849 368.729C55.4342 369.019 56.1337 368.836 56.3839 368.362C56.6545 367.852 56.4962 367.276 56.0163 366.965V366.975Z" fill="white"/>
<path d="M63.5881 393.568C65.3904 395.057 67.2592 396.474 69.1892 397.794C70.1338 398.441 71.0783 399.028 72.1557 399.425C73.233 399.823 74.3359 400.027 75.4489 400.21C75.9902 400.302 76.5467 400.067 76.705 399.497C76.8377 399.007 76.5365 398.334 75.9902 398.243C74.9792 398.074 73.9631 397.891 72.9879 397.56C72.0127 397.228 71.0988 396.632 70.2206 396.03C68.4335 394.807 66.7026 393.507 65.033 392.126C64.6092 391.774 64.0067 391.713 63.5881 392.126C63.2256 392.488 63.1592 393.217 63.5881 393.568Z" fill="#0A244B"/>
<path d="M64.4868 380.876C68.5306 381.273 72.2374 384.571 76.414 382.854C78.5023 381.997 80.3506 380.335 82.056 378.888C83.7613 377.44 85.4258 375.829 86.9525 374.147C87.7847 373.23 88.5557 372.266 89.3522 371.318C90.0058 370.543 90.787 369.605 91.8898 369.651C93.2071 369.702 93.202 367.663 91.8898 367.612C89.6381 367.526 88.2596 369.473 86.978 371.017C85.5228 372.766 83.9553 374.423 82.2857 375.967C80.6161 377.512 78.8444 379.02 76.9399 380.274C76.0719 380.845 75.1529 381.273 74.1011 381.314C73.1565 381.35 72.2374 381.141 71.3388 380.86C69.0463 380.157 66.9069 379.076 64.4919 378.842C63.9404 378.786 63.4707 379.352 63.4707 379.861C63.4707 380.458 63.9404 380.825 64.4919 380.881L64.4868 380.876Z" fill="#0A244B"/>
<path d="M75.3062 423.164C80.2793 425.83 85.4055 428.572 89.1175 432.93C92.2831 436.646 94.2131 441.621 92.8192 446.469C92.1248 448.875 90.6697 451.041 88.4997 452.351C87.3764 453.029 88.4027 454.793 89.5311 454.115C94.0548 451.393 95.9491 445.811 95.1373 440.76C94.208 434.959 90.0825 430.259 85.4923 426.89C82.6178 424.779 79.4726 423.087 76.3376 421.405C75.1785 420.783 74.1472 422.542 75.3062 423.169V423.164Z" fill="white"/>
</g>
<defs>
<clipPath id="clip0_139_672">
<rect width="370" height="496" fill="white"/>
</clipPath>
</defs>
</svg>
