<svg width="66" height="66" viewBox="0 0 66 66" fill="none" xmlns="http://www.w3.org/2000/svg">
<path d="M41.6968 59.3326L44.0508 61.7719C45.3694 63.1386 47.1308 63.9581 48.9582 63.9375C50.8351 63.9169 52.6088 63.0025 53.7707 61.2521C56.2897 57.4599 59.2432 51.0221 59.7396 41.3669C58.4456 43.4383 56.9231 45.3579 55.2007 47.0896C48.8812 53.4091 45.0436 56.7806 42.8023 58.5736C42.4531 58.8536 42.0835 59.1073 41.6968 59.3326ZM7.01244 23.7572L4.47694 21.4734C2.98231 20.1259 2.07756 18.2779 2.06244 16.3652C2.04731 14.3949 2.98369 12.5056 4.86331 11.3025C8.75869 8.80824 15.2116 6.11187 24.7458 6.18887C22.6315 7.49849 20.6736 9.0453 18.9103 10.7992C12.5908 17.1187 9.21931 20.9564 7.42631 23.1962C7.28075 23.3778 7.14361 23.565 7.01244 23.7572Z" fill="#F25D1D"/>
<path fill-rule="evenodd" clip-rule="evenodd" d="M35.3856 55.7659C36.9559 56.738 38.7832 56.5084 40.2256 55.3534C42.3046 53.6897 46.024 50.4309 52.2844 44.1719C63.646 32.8103 63.646 12.0258 58.8101 7.1899C53.9743 2.35403 33.1897 2.35403 21.8281 13.7157C15.5691 19.9747 12.3104 23.6954 10.6466 25.7744C9.49163 27.2168 9.262 29.0441 10.2341 30.6144C11.7054 32.9973 14.9064 37.2501 21.8281 44.1719C28.7499 51.0937 33.0028 54.2933 35.3856 55.7659ZM28.875 28.875C28.875 26.687 29.7442 24.5886 31.2914 23.0414C32.8385 21.4942 34.937 20.625 37.125 20.625C39.313 20.625 41.4115 21.4942 42.9586 23.0414C44.5058 24.5886 45.375 26.687 45.375 28.875C45.375 31.0631 44.5058 33.1615 42.9586 34.7087C41.4115 36.2558 39.313 37.125 37.125 37.125C34.937 37.125 32.8385 36.2558 31.2914 34.7087C29.7442 33.1615 28.875 31.0631 28.875 28.875ZM12.375 43.3125C15.2996 43.3125 17.9053 44.3355 19.7863 46.2138C21.6645 48.0948 22.6875 50.7004 22.6875 53.625C22.6875 56.5497 21.6645 59.1553 19.7863 61.0363C17.9039 62.9132 15.2983 63.9375 12.375 63.9375C8.73125 63.9375 6.57662 63.6213 5.368 63.3339C4.70986 63.1816 4.10769 62.8477 3.63003 62.37C3.15237 61.8923 2.81839 61.2902 2.66612 60.632C2.37875 59.4234 2.0625 57.2688 2.0625 53.625C2.0625 50.7004 3.0855 48.0948 4.96375 46.2138C6.84612 44.3369 9.45175 43.3125 12.375 43.3125Z" fill="#F25D1D"/>
</svg>
