<svg width="55" height="63" viewBox="0 0 55 63" fill="none" xmlns="http://www.w3.org/2000/svg">
<path fill-rule="evenodd" clip-rule="evenodd" d="M27.2 0.0625C12.3918 0.0625 0.387451 12.0668 0.387451 26.875C0.387451 36.4827 5.34515 44.5645 10.7354 50.5289C16.1426 56.5119 22.1844 60.5885 24.8121 62.2249C26.2861 63.1427 28.1138 63.1427 29.5878 62.2249C32.2155 60.5885 38.2573 56.5119 43.6645 50.5289C49.0548 44.5645 54.0125 36.4827 54.0125 26.875C54.0125 12.0668 42.0082 0.0625 27.2 0.0625ZM30.2 16.75C30.2 15.8256 29.7355 14.9631 28.9638 14.4542C28.192 13.9453 27.2163 13.8583 26.3667 14.2224L21.5542 16.2849C20.1582 16.8831 19.5115 18.4998 20.1098 19.8957C20.7081 21.2918 22.3248 21.9384 23.7207 21.3402L24.7 20.9205V30.5H21.95C20.4311 30.5 19.2 31.7312 19.2 33.25C19.2 34.7688 20.4311 36 21.95 36H32.95C34.4688 36 35.7 34.7688 35.7 33.25C35.7 31.7312 34.4688 30.5 32.95 30.5H30.2V16.75Z" fill="#F25D1D"/>
</svg>
