<svg width="67" height="66" viewBox="0 0 67 66" fill="none" xmlns="http://www.w3.org/2000/svg">
<path fill-rule="evenodd" clip-rule="evenodd" d="M11.7865 2.81035C16.2849 2.44485 23.4229 2.0625 33.5999 2.0625C43.7768 2.0625 50.9148 2.44486 55.4133 2.81036C59.9341 3.17767 63.4222 6.66581 63.7895 11.1866C64.155 15.685 64.5374 22.8231 64.5374 33C64.5374 43.1769 64.155 50.315 63.7895 54.8134C63.4222 59.3341 59.934 62.8224 55.4133 63.1896C50.9148 63.5551 43.7768 63.9375 33.5999 63.9375C23.4229 63.9375 16.2849 63.5551 11.7864 63.1896C7.26563 62.8224 3.77751 59.3341 3.4102 54.8134C3.0447 50.315 2.66235 43.1769 2.66235 33C2.66235 22.8231 3.04471 15.685 3.41022 11.1866C3.77752 6.66578 7.26566 3.17765 11.7865 2.81035ZM33.5999 53.625C44.9908 53.625 54.2249 44.3909 54.2249 33C54.2249 21.6091 44.9908 12.375 33.5999 12.375C22.2089 12.375 12.9749 21.6091 12.9749 33C12.9749 44.3909 22.2089 53.625 33.5999 53.625Z" fill="#F25D1D"/>
<path fill-rule="evenodd" clip-rule="evenodd" d="M33.5999 17.1875C35.4983 17.1875 37.0374 18.7265 37.0374 20.625V31.5762L44.2806 38.8193C45.623 40.1617 45.623 42.3383 44.2806 43.6807C42.9382 45.0231 40.7615 45.0231 39.4191 43.6807L31.1691 35.4307C30.5245 34.786 30.1624 33.9116 30.1624 33V20.625C30.1624 18.7265 31.7014 17.1875 33.5999 17.1875Z" fill="#F25D1D"/>
</svg>
