<svg width="67" height="66" viewBox="0 0 67 66" fill="none" xmlns="http://www.w3.org/2000/svg">
<path d="M64.7371 31.625C64.7371 28.8498 64.7035 26.3351 64.6459 24.0624C63.6786 24.0632 62.4568 24.06 61.1262 24.0465C58.0036 24.0148 54.1921 23.9253 51.6845 23.6848C47.1015 23.2452 43.5383 19.5921 43.0966 14.9879C42.8559 12.4784 42.7728 8.69737 42.7473 5.60597C42.7364 4.28259 42.7358 3.06906 42.739 2.11057C41.2359 2.07969 39.6323 2.0625 37.9247 2.0625C29.2419 2.0625 23.2478 2.50683 19.4751 2.938C15.4938 3.393 12.4712 6.41846 12.0317 10.4061C11.6359 13.9964 11.2215 19.6857 11.1306 28.148C13.8299 26.8514 16.855 26.125 20.0499 26.125C31.4408 26.125 40.6749 35.3591 40.6749 46.75C40.6749 52.3612 38.434 57.4492 34.7985 61.1676C35.7992 61.1806 36.8411 61.1875 37.9247 61.1875C46.6076 61.1875 52.6016 60.7431 56.3743 60.312C60.3556 59.8571 63.3783 56.8315 63.8178 52.8439C64.2655 48.7822 64.7371 42.0346 64.7371 31.625Z" fill="#F25D1D"/>
<path d="M46.8721 5.57191C46.8978 8.67161 46.9814 12.2861 47.2027 14.594C47.461 17.2868 49.5169 19.3329 52.0782 19.5786C54.3882 19.8002 58.036 19.8899 61.1682 19.9217C62.2714 19.933 63.2996 19.937 64.1668 19.9375C63.351 18.0209 61.3716 14.5145 56.6974 9.93194C52.2933 5.61416 48.8681 3.64618 46.8626 2.76819C46.8615 3.59036 46.8637 4.54814 46.8721 5.57191Z" fill="#F25D1D"/>
<path fill-rule="evenodd" clip-rule="evenodd" d="M20.05 63.25C29.1627 63.25 36.55 55.8627 36.55 46.75C36.55 37.6373 29.1627 30.25 20.05 30.25C10.9373 30.25 3.55005 37.6373 3.55005 46.75C3.55005 55.8627 10.9373 63.25 20.05 63.25ZM29.1406 42.8791C30.0402 41.6555 29.7778 39.9341 28.5541 39.0345C27.3305 38.1348 25.6092 38.3973 24.7095 39.6209L18.642 47.8727L15.2371 44.0139C14.2322 42.875 12.4944 42.7665 11.3556 43.7713C10.2168 44.7762 10.1081 46.5139 11.113 47.6528L16.7748 54.0694C17.3251 54.6931 18.1281 55.0342 18.9591 54.9973C19.79 54.9603 20.5596 54.5491 21.0523 53.8791L29.1406 42.8791Z" fill="#F25D1D"/>
</svg>
