<svg width="67" height="66" viewBox="0 0 67 66" fill="none" xmlns="http://www.w3.org/2000/svg">
<path d="M26.5249 17.875C28.8031 17.875 30.6499 19.7218 30.6499 22C30.6499 24.2782 28.8031 26.125 26.5249 26.125C24.2467 26.125 22.3999 24.2782 22.3999 22C22.3999 19.7218 24.2467 17.875 26.5249 17.875Z" fill="#F25D1D"/>
<path d="M44.3999 44C44.3999 41.7218 42.5531 39.875 40.2749 39.875C37.9967 39.875 36.1499 41.7218 36.1499 44C36.1499 46.2782 37.9967 48.125 40.2749 48.125C42.5531 48.125 44.3999 46.2782 44.3999 44Z" fill="#F25D1D"/>
<path fill-rule="evenodd" clip-rule="evenodd" d="M2.4624 33C2.4624 22.8231 2.84476 15.685 3.21026 11.1866C3.57757 6.66578 7.06571 3.17765 11.5865 2.81035C16.0849 2.44485 23.223 2.0625 33.3999 2.0625C43.577 2.0625 50.7149 2.44486 55.2133 2.81036C59.7342 3.17767 63.2223 6.66581 63.5895 11.1866C63.955 15.685 64.3374 22.8231 64.3374 33C64.3374 43.1769 63.955 50.315 63.5895 54.8134C63.2223 59.3341 59.734 62.8224 55.2133 63.1896C50.7149 63.5551 43.5768 63.9375 33.3999 63.9375C23.223 63.9375 16.0849 63.5551 11.5865 63.1896C7.06568 62.8224 3.57755 59.3341 3.21025 54.8134C2.84475 50.315 2.4624 43.1769 2.4624 33ZM14.1499 19.25H17.2985C18.4817 15.2742 22.1648 12.375 26.5249 12.375C30.885 12.375 34.5681 15.2742 35.7513 19.25H52.6499C54.1687 19.25 55.3999 20.4812 55.3999 22C55.3999 23.5188 54.1687 24.75 52.6499 24.75H35.7513C34.5681 28.7258 30.885 31.625 26.5249 31.625C22.1648 31.625 18.4817 28.7258 17.2985 24.75H14.1499C12.6311 24.75 11.3999 23.5188 11.3999 22C11.3999 20.4812 12.6311 19.25 14.1499 19.25ZM31.0485 41.25C32.2317 37.2742 35.9148 34.375 40.2749 34.375C44.635 34.375 48.3181 37.2742 49.5013 41.25H52.6499C54.1687 41.25 55.3999 42.4812 55.3999 44C55.3999 45.5188 54.1687 46.75 52.6499 46.75H49.5013C48.3181 50.7258 44.635 53.625 40.2749 53.625C35.9148 53.625 32.2317 50.7258 31.0485 46.75H14.1499C12.6311 46.75 11.3999 45.5188 11.3999 44C11.3999 42.4812 12.6311 41.25 14.1499 41.25H31.0485Z" fill="#F25D1D"/>
</svg>
