<svg width="428" height="368" viewBox="0 0 428 368" fill="none" xmlns="http://www.w3.org/2000/svg">
<g clip-path="url(#clip0_100_2109)">
<path d="M82.3853 232.087C80.2899 226.248 81.3555 219.377 85.1164 214.452C88.8818 209.528 95.2262 206.703 101.396 207.205C104.208 207.434 106.943 208.304 109.509 209.483C111.649 210.465 113.708 211.685 115.405 213.318C119.999 217.74 121.351 224.889 119.69 231.051C118.029 237.213 113.717 242.411 108.573 246.174" fill="#0B244A"/>
<path d="M83.1688 231.871C81.2615 226.476 82.0585 220.3 85.3 215.578C88.5416 210.855 93.8517 208.164 99.3408 207.967C102.511 207.855 105.645 208.667 108.537 209.927C111.43 211.187 114.008 212.739 115.97 215.116C119.359 219.215 120.259 225.09 119.072 230.18C117.613 236.459 113.265 241.72 108.161 245.469C107.807 245.729 107.637 246.169 107.87 246.582C108.072 246.931 108.627 247.133 108.98 246.873C113.914 243.245 118.114 238.419 120.089 232.535C121.938 227.019 121.499 220.556 118.316 215.605C116.605 212.945 114.152 210.958 111.376 209.496C108.26 207.855 104.839 206.653 101.311 206.384C95.3963 205.931 89.2983 208.447 85.3627 212.882C81.2615 217.506 79.6497 224.068 80.966 230.095C81.1317 230.844 81.3466 231.58 81.6018 232.306C81.9465 233.284 83.5136 232.862 83.1644 231.876L83.1688 231.871Z" fill="#0B244A"/>
<path d="M19.2642 241.307C17.3077 229.315 15.3511 217.318 13.3945 205.326C13.0587 203.28 12.7453 201.078 13.6542 199.213C14.6571 197.154 16.8778 196.033 18.9732 195.118C35.8929 187.709 54.411 183.987 72.8709 184.278C74.5902 184.305 76.4035 184.395 77.8408 185.341C79.9988 186.758 80.6256 189.593 81.0734 192.14C83.8851 208.2 86.6924 224.265 89.5041 240.325C78.3019 244.312 66.5042 246.609 54.626 247.12" fill="#0B244A"/>
<path d="M20.0433 241.092C18.1942 229.759 16.3451 218.426 14.5004 207.097C14.1199 204.765 13.2826 201.886 14.3527 199.621C15.2795 197.665 17.4331 196.674 19.3046 195.849C24.1535 193.714 29.1502 191.907 34.2274 190.4C44.3685 187.395 54.8678 185.628 65.4342 185.184C68.0355 185.072 70.6413 185.032 73.2426 185.094C74.4112 185.121 75.638 185.184 76.726 185.655C77.6886 186.068 78.4094 186.808 78.9198 187.713C80.0033 189.633 80.2272 191.983 80.5988 194.118C81.0913 196.943 81.5883 199.764 82.0808 202.59C84.0508 213.847 86.0208 225.108 87.9908 236.365C88.2326 237.76 88.4789 239.15 88.7206 240.545L89.2848 239.545C80.6167 242.622 71.595 244.716 62.4523 245.716C59.851 245.999 57.2363 246.196 54.6215 246.313C53.5828 246.357 53.5783 247.981 54.6215 247.936C63.9567 247.528 73.2426 246.043 82.233 243.501C84.7538 242.787 87.2476 241.989 89.7146 241.115C90.1578 240.958 90.3593 240.576 90.2787 240.114C88.246 228.49 86.2089 216.865 84.1762 205.24C83.6702 202.343 83.1643 199.446 82.6539 196.549C82.2106 194.006 81.9375 191.342 81.145 188.875C80.4645 186.749 79.2198 184.893 77.0752 184.067C75.9156 183.623 74.644 183.52 73.4172 183.484C72.0606 183.444 70.704 183.448 69.3474 183.466C58.463 183.592 47.5832 185.103 37.066 187.92C31.8097 189.328 26.6384 191.073 21.6014 193.131C19.3628 194.046 16.945 194.898 15.0109 196.387C13.0767 197.876 12.1454 200.101 12.2439 202.594C12.2976 203.958 12.5618 205.308 12.7812 206.649L13.502 211.062L14.9079 219.673L17.7689 237.222L18.4718 241.527C18.6375 242.554 20.2 242.119 20.0344 241.097L20.0433 241.092Z" fill="#0B244A"/>
<path d="M113.915 229.256C120.245 219.677 128.054 211.079 136.977 203.859C140.734 200.818 145.703 197.885 150.118 199.845C154.998 202.011 155.777 208.505 155.844 213.851C158.343 212.425 161.62 212.873 164.016 214.461C166.415 216.049 168.032 218.605 169.075 221.291C170.875 225.924 171.063 231.427 168.488 235.679C165.054 241.343 157.926 243.343 151.439 244.635C146.178 245.684 140.595 246.554 135.562 244.698" fill="#0B244A"/>
<path d="M114.613 229.665C119.583 222.157 125.457 215.264 132.074 209.165C133.753 207.617 135.477 206.12 137.246 204.68C138.902 203.33 140.662 202.074 142.6 201.155C144.423 200.294 146.536 199.724 148.546 200.177C150.14 200.536 151.546 201.473 152.509 202.796C154.761 205.895 154.985 210.156 155.034 213.847C155.043 214.47 155.714 214.847 156.252 214.547C158.092 213.528 160.326 213.618 162.238 214.416C164.15 215.215 165.654 216.744 166.751 218.453C169.017 221.987 170.131 226.579 169.428 230.746C168.726 234.912 166.312 237.922 162.856 239.971C159.399 242.021 155.594 242.949 151.788 243.729C146.554 244.801 140.953 245.779 135.782 243.909C134.797 243.555 134.376 245.12 135.352 245.474C140.384 247.295 145.838 246.541 150.96 245.546C155.177 244.725 159.48 243.734 163.259 241.613C167.038 239.491 169.993 236.06 170.893 231.706C171.833 227.144 170.825 222.153 168.475 218.157C167.194 215.977 165.372 214.022 163.026 212.995C160.68 211.968 157.787 211.842 155.437 213.138L156.655 213.838C156.605 210.205 156.328 206.294 154.573 203.034C153.749 201.505 152.531 200.168 150.986 199.352C149.048 198.329 146.845 198.177 144.732 198.67C140.223 199.72 136.502 203.074 133.113 206.043C129.531 209.178 126.146 212.542 122.99 216.107C119.439 220.112 116.175 224.373 113.216 228.835C112.638 229.71 114.04 230.522 114.617 229.656L114.613 229.665Z" fill="#0B244A"/>
<path d="M189.205 161.298C189.773 163.473 190.342 165.648 190.911 167.828C192.272 173.035 193.633 178.242 194.994 183.449C196.637 189.745 198.285 196.038 199.928 202.334C201.352 207.788 202.78 213.246 204.204 218.699C204.893 221.332 205.493 224.005 206.272 226.611C206.286 226.647 206.29 226.687 206.304 226.723C206.568 227.732 208.13 227.306 207.866 226.292C207.298 224.117 206.729 221.942 206.16 219.762C204.799 214.555 203.438 209.349 202.077 204.142L197.143 185.256C195.719 179.802 194.291 174.344 192.867 168.891C192.178 166.258 191.578 163.585 190.799 160.979C190.785 160.944 190.781 160.903 190.767 160.867C190.503 159.858 188.941 160.284 189.205 161.298Z" fill="white"/>
<path d="M338.272 173.142C340.43 190.826 343.116 209.716 355.026 222.946C357.824 226.054 361.433 228.902 365.606 228.974C370.589 229.059 374.708 225.243 377.986 221.48C392.882 204.393 402.548 183.493 414.274 164.087C415.64 161.822 417.104 159.513 419.284 158.024C421.465 156.535 424.576 156.077 426.703 157.647C425.897 154.23 425.261 151.965 421.823 151.278C418.384 150.592 413.67 154.427 411.615 157.275C413.312 153.741 416.043 148.327 418.595 145.354C408.995 158.033 395.555 165.316 384.639 176.766C365.055 197.302 373.947 190.884 373.038 199.988C371.176 187.695 367.715 170.505 364.334 158.539" fill="#0B244A"/>
<path d="M337.461 173.142C338.729 183.516 340.09 193.997 343.452 203.935C345.1 208.806 347.235 213.537 350.07 217.834C351.484 219.982 353.065 222.036 354.815 223.92C356.566 225.803 358.644 227.602 361.03 228.687C363.416 229.772 366.004 230.095 368.543 229.418C371.023 228.754 373.208 227.274 375.111 225.588C377.135 223.799 378.885 221.722 380.6 219.646C382.422 217.444 384.173 215.179 385.861 212.869C392.649 203.585 398.38 193.584 404.016 183.574C406.837 178.564 409.635 173.541 412.541 168.581C413.929 166.213 415.259 163.76 416.889 161.544C418.384 159.513 420.462 157.669 423.09 157.495C424.249 157.418 425.333 157.669 426.287 158.347C426.895 158.782 427.63 158.069 427.478 157.432C427.146 156.041 426.824 154.597 426.125 153.337C425.467 152.144 424.442 151.305 423.179 150.821C420.126 149.651 417.036 151.22 414.632 153.077C413.222 154.167 411.959 155.423 410.907 156.862L412.308 157.683C413.298 155.624 414.319 153.584 415.434 151.592C416.548 149.601 417.699 147.646 419.163 145.928L417.892 144.946C413.249 151.054 407.446 156.118 401.532 160.948C395.617 165.778 389.51 170.505 384.191 176.057C381.657 178.703 379.141 181.376 376.718 184.126C375.295 185.74 373.88 187.382 372.653 189.149C371.596 190.669 370.562 192.472 371.189 194.369C371.301 194.714 371.453 195.046 371.592 195.383C371.664 195.557 371.516 195.194 371.614 195.441C371.65 195.526 371.681 195.607 371.717 195.692C371.784 195.858 371.847 196.028 371.901 196.199C372.04 196.611 372.134 197.033 372.21 197.464C372.255 197.733 372.21 197.351 372.237 197.661C372.25 197.8 372.263 197.939 372.272 198.078C372.29 198.378 372.295 198.683 372.286 198.984C372.277 199.32 372.255 199.657 372.223 199.993L373.817 199.778C372.143 188.749 369.971 177.771 367.352 166.931C366.658 164.051 365.919 161.181 365.118 158.329C364.836 157.324 363.269 157.75 363.555 158.759C366.582 169.492 368.847 180.461 370.804 191.436C371.323 194.351 371.811 197.275 372.259 200.204C372.317 200.603 372.792 200.832 373.15 200.787C373.571 200.729 373.813 200.397 373.853 199.989C373.969 198.809 373.942 197.612 373.674 196.454C373.584 196.069 373.463 195.692 373.32 195.32C373.262 195.163 373.195 195.01 373.132 194.858C373.078 194.728 373.025 194.602 372.971 194.477C372.913 194.338 373.047 194.656 372.998 194.544C372.984 194.508 372.966 194.468 372.953 194.432C372.841 194.154 372.734 193.876 372.666 193.584C372.653 193.521 372.644 193.454 372.626 193.391C372.586 193.225 372.64 193.562 372.635 193.468C372.635 193.427 372.626 193.391 372.626 193.351C372.622 193.194 372.631 193.037 372.631 192.88C372.631 192.701 372.581 193.082 372.635 192.835C372.657 192.741 372.671 192.651 372.698 192.557C372.752 192.355 372.823 192.162 372.895 191.97C372.944 191.84 372.819 192.14 372.895 191.979C372.917 191.929 372.94 191.88 372.962 191.831C373.02 191.709 373.078 191.588 373.141 191.467C373.28 191.203 373.437 190.943 373.593 190.687C374.583 189.108 375.715 187.781 376.938 186.359C379.105 183.834 381.379 181.403 383.663 178.986C386.371 176.12 389.174 173.375 392.152 170.788C395.129 168.2 398.008 165.899 400.972 163.5C406.842 158.746 412.68 153.875 417.52 148.032C418.133 147.292 418.729 146.534 419.306 145.771C419.884 145.009 418.63 144.089 418.035 144.789C415.017 148.336 412.935 152.7 410.929 156.876C410.473 157.826 411.717 158.535 412.331 157.696C413.902 155.548 416.195 153.57 418.666 152.552C419.799 152.086 420.959 151.875 422.159 152.202C423.193 152.485 424.066 153.037 424.634 153.965C425.351 155.14 425.628 156.557 425.942 157.88L427.133 156.965C425.028 155.472 422.253 155.665 420.005 156.714C417.587 157.844 415.877 160.087 414.471 162.28C411.44 167.025 408.713 171.99 405.946 176.896C400.376 186.776 394.91 196.741 388.601 206.173C385.427 210.923 382.037 215.529 378.335 219.879C375.236 223.516 371.31 227.987 366.152 228.176C360.994 228.364 356.79 224.009 353.786 220.22C350.781 216.43 348.243 211.824 346.385 207.178C342.521 197.535 340.882 187.153 339.57 176.9C339.409 175.654 339.257 174.407 339.105 173.16C339.051 172.721 338.769 172.353 338.294 172.348C337.896 172.348 337.43 172.725 337.484 173.16L337.461 173.142Z" fill="#0B244A"/>
<path d="M327.338 182.444C311.457 227.432 295.576 272.424 279.686 317.411C278.164 321.726 276.557 326.179 273.418 329.507C270.28 332.835 265.158 334.741 261.021 332.799C265.637 335.427 270.257 338.059 274.873 340.688C276.816 337.391 279.248 334.382 282.064 331.79C281.612 334.893 281.159 337.997 280.707 341.1C287.101 314.918 315.035 297.368 318.733 270.666C319.194 267.333 319.257 263.934 320.072 260.669C321.666 254.282 325.968 248.99 329.94 243.743C339.879 230.611 348.413 216.417 355.344 201.473C359.924 191.607 363.846 181.251 364.822 170.416C365.803 159.58 363.578 148.126 356.897 139.546" fill="#0B244A"/>
<path d="M326.555 182.228C318.97 203.711 311.386 225.198 303.801 246.68C296.217 268.163 288.632 289.645 281.047 311.127C280.036 313.993 279.055 316.877 277.994 319.725C277.045 322.272 275.957 324.788 274.394 327.026C271.632 330.982 266.29 334.265 261.432 332.094C260.501 331.677 259.686 332.969 260.613 333.498C265.229 336.126 269.85 338.759 274.466 341.387C274.851 341.606 275.348 341.476 275.576 341.095C277.51 337.853 279.874 334.929 282.637 332.359L281.28 331.569C280.828 334.673 280.376 337.776 279.924 340.88C279.776 341.885 281.231 342.355 281.486 341.311C284.593 328.744 292.59 318.245 300.224 308.087C307.75 298.072 315.67 287.654 318.679 275.249C319.552 271.652 319.767 268.001 320.224 264.341C320.734 260.26 322.14 256.56 324.271 253.058C326.295 249.725 328.74 246.68 331.081 243.568C333.593 240.226 336.011 236.818 338.339 233.347C342.991 226.404 347.271 219.21 351.149 211.806C355.008 204.433 358.612 196.849 361.384 188.987C366.483 174.51 368.314 157.763 360.654 143.798C359.758 142.165 358.738 140.613 357.6 139.142C356.973 138.326 355.563 139.133 356.199 139.963C365.959 152.633 365.624 169.675 361.205 184.327C358.782 192.364 355.277 200.056 351.516 207.541C347.791 214.954 343.667 222.17 339.167 229.14C336.933 232.598 334.609 236.002 332.196 239.334C329.886 242.527 327.414 245.608 325.135 248.819C322.856 252.031 320.949 255.201 319.758 258.825C318.473 262.727 318.487 266.84 317.891 270.862C316.02 283.474 308.583 294.184 301.142 304.171C293.7 314.159 285.458 324.29 281.271 336.328C280.752 337.821 280.304 339.342 279.924 340.88L281.486 341.311C281.938 338.207 282.391 335.103 282.843 332C282.955 331.229 282.126 330.614 281.486 331.211C278.63 333.87 276.172 336.92 274.17 340.274L275.281 339.983C270.665 337.355 266.044 334.722 261.428 332.094L260.609 333.498C264.598 335.283 269.089 334.108 272.429 331.493C276.207 328.533 278.182 323.923 279.785 319.528C283.783 308.576 287.557 297.534 291.439 286.541C299.248 264.427 307.056 242.312 314.864 220.197C319.279 207.684 323.698 195.176 328.113 182.663C328.462 181.677 326.895 181.251 326.55 182.233L326.555 182.228Z" fill="#0B244A"/>
<path d="M229.33 196.369C227.271 196.082 225.663 194.526 224.051 193.216C222.435 191.907 220.353 190.723 218.374 191.355C216.906 191.821 215.916 193.167 215.039 194.436C211.278 199.872 207.669 205.411 204.208 211.044C203.339 212.461 202.444 214.066 202.798 215.69C203.098 217.067 204.23 218.085 205.323 218.977C212.393 224.749 220.42 229.333 228.981 232.49C231.246 233.324 233.758 234.06 236.028 233.235C238.267 232.418 239.713 230.288 241.007 228.283C243.904 223.785 246.81 219.278 249.268 214.528C250.647 211.86 251.806 208.366 249.863 206.079C248.184 204.096 244.763 203.917 243.684 201.554C240.317 203.276 236.66 204.428 232.916 204.94C232.048 205.061 231.117 205.137 230.329 204.747C229.097 204.141 228.614 202.612 228.618 201.24C228.618 199.867 228.981 198.499 228.865 197.132" fill="#0B244A"/>
<path d="M229.545 195.589C227.629 195.288 226.205 193.938 224.759 192.754C223.21 191.49 221.28 190.207 219.185 190.382C217.089 190.557 215.804 191.965 214.68 193.53C213.355 195.373 212.102 197.275 210.843 199.163C208.256 203.047 205.69 206.967 203.29 210.976C202.207 212.793 201.378 214.874 202.377 216.914C203.236 218.663 205.104 219.87 206.599 221.022C213.257 226.162 220.685 230.275 228.569 233.203C230.606 233.961 232.773 234.634 234.972 234.32C236.892 234.046 238.482 232.912 239.718 231.454C241.02 229.911 242.055 228.135 243.143 226.44C244.392 224.489 245.632 222.525 246.823 220.533C248.014 218.542 249.106 216.645 250.109 214.631C250.933 212.985 251.623 211.192 251.69 209.33C251.753 207.59 251.099 205.922 249.724 204.828C248.506 203.859 247.016 203.401 245.717 202.576C245.135 202.208 244.678 201.755 244.374 201.132C244.177 200.719 243.631 200.657 243.264 200.84C240.018 202.491 236.498 203.621 232.89 204.119C232.146 204.222 231.278 204.348 230.588 203.966C230.011 203.648 229.711 203.011 229.554 202.401C229.111 200.683 229.778 198.867 229.662 197.123C229.594 196.087 227.974 196.078 228.041 197.123C228.175 199.127 227.427 201.159 228.077 203.132C228.69 204.989 230.208 205.953 232.146 205.828C234.201 205.693 236.292 205.191 238.258 204.594C240.223 203.998 242.211 203.195 244.078 202.244L242.968 201.953C243.604 203.267 244.862 204.029 246.125 204.648C247.387 205.267 248.789 205.792 249.532 207.003C250.378 208.393 250.087 210.133 249.621 211.6C249.039 213.416 248.059 215.089 247.136 216.744C245.028 220.511 242.69 224.148 240.353 227.772C239.444 229.18 238.504 230.669 237.148 231.687C235.572 232.867 233.673 232.948 231.811 232.517C229.948 232.086 227.996 231.275 226.16 230.512C224.347 229.759 222.561 228.934 220.805 228.05C217.291 226.279 213.897 224.256 210.669 222C209.03 220.856 207.432 219.654 205.883 218.39C204.481 217.242 203.116 215.936 203.662 213.963C203.93 212.985 204.486 212.111 205.009 211.254C205.578 210.326 206.156 209.402 206.733 208.478C207.893 206.63 209.066 204.796 210.257 202.971C211.448 201.145 212.657 199.334 213.879 197.526C214.492 196.625 215.106 195.723 215.724 194.831C216.212 194.127 216.713 193.431 217.353 192.857C220.528 190.01 224.087 194.678 226.63 196.199C227.392 196.656 228.229 196.997 229.106 197.136C229.541 197.203 229.975 197.024 230.105 196.571C230.217 196.185 229.97 195.638 229.541 195.571L229.545 195.589Z" fill="#0B244A"/>
<path d="M207.082 227.315C208.126 227.315 208.126 225.691 207.082 225.691C206.039 225.691 206.039 227.315 207.082 227.315Z" fill="white"/>
<path d="M189.988 161.894C191.031 161.894 191.031 160.271 189.988 160.271C188.945 160.271 188.945 161.894 189.988 161.894Z" fill="white"/>
<path d="M241.508 367.179H51.2367C46.746 367.179 42.9268 363.901 42.2418 359.456L25.6489 252.08H267.096L250.503 359.456C249.818 363.901 245.999 367.179 241.508 367.179Z" fill="#BFD3B6"/>
<path d="M241.508 366.368H229.003C218.441 366.368 207.875 366.368 197.313 366.368H155.405C140.778 366.368 126.151 366.368 111.523 366.368H53.4036C50.5874 366.368 47.919 366.287 45.649 364.202C43.1282 361.887 42.9357 358.685 42.4522 355.55C40.809 344.912 39.1658 334.274 37.5227 323.636C35.3154 309.338 33.1036 295.036 30.8963 280.738C29.4814 271.571 28.0621 262.404 26.6473 253.242C26.5757 252.784 26.504 252.327 26.4369 251.869L25.6533 252.896H263.461C264.522 252.896 265.632 252.995 266.689 252.896C266.823 252.883 266.962 252.896 267.101 252.896L266.317 251.869C265.713 255.78 265.108 259.696 264.504 263.606C263.076 272.859 261.643 282.115 260.215 291.368C258.54 302.198 256.866 313.029 255.195 323.86C253.839 332.633 252.487 341.401 251.13 350.173C250.754 352.613 250.378 355.052 249.997 357.492C249.594 360.111 249.035 362.569 246.863 364.412C245.359 365.691 243.469 366.332 241.513 366.368C240.47 366.386 240.47 368.009 241.513 367.991C246.608 367.897 250.579 364.215 251.358 359.241C251.641 357.434 251.918 355.626 252.196 353.819C253.454 345.679 254.712 337.539 255.97 329.399C257.654 318.501 259.337 307.603 261.02 296.709C262.543 286.856 264.065 277.003 265.587 267.149C266.339 262.283 267.307 257.395 267.853 252.502C267.862 252.435 267.875 252.367 267.884 252.3C267.965 251.789 267.678 251.273 267.101 251.273H35.4497C32.32 251.273 29.1859 251.215 26.0608 251.273C25.922 251.273 25.7877 251.273 25.6489 251.273C25.0758 251.273 24.7892 251.789 24.8653 252.3C25.8951 258.973 26.9294 265.647 27.9592 272.32C30.1217 286.322 32.2842 300.324 34.4512 314.326C36.3451 326.583 38.239 338.84 40.1329 351.097C40.5538 353.824 40.9702 356.555 41.3955 359.282C42.1925 364.363 46.3071 367.973 51.465 368C56.6721 368.027 61.8836 368 67.0907 368H143.836C158.378 368 172.925 368 187.467 368H222.574C228.618 368 234.658 368 240.702 368H241.508C242.552 368 242.552 366.377 241.508 366.377V366.368Z" fill="#BFD3B6"/>
<path d="M69.0743 342.728C68.7295 340.504 68.3848 338.279 68.0445 336.05C67.2251 330.749 66.4058 325.443 65.5864 320.142C64.597 313.734 63.6075 307.325 62.618 300.92C61.7628 295.382 60.9077 289.843 60.0525 284.304L59.2063 278.823C59.072 277.958 58.9869 277.07 58.8033 276.213C58.7944 276.173 58.7899 276.137 58.7854 276.097C58.7183 275.662 58.1765 275.428 57.787 275.532C57.3258 275.653 57.1557 276.101 57.2228 276.532C57.5676 278.756 57.9124 280.981 58.2526 283.21C59.072 288.511 59.8913 293.816 60.7107 299.117C61.7001 305.526 62.6896 311.935 63.6791 318.339C64.5343 323.878 65.3894 329.417 66.2446 334.956L67.0908 340.436C67.2251 341.302 67.3102 342.19 67.4938 343.047C67.5027 343.087 67.5072 343.123 67.5117 343.163C67.5788 343.598 68.1206 343.831 68.5101 343.728C68.9713 343.607 69.1414 343.159 69.0743 342.728Z" fill="#0B244A"/>
<path d="M88.1206 342.728C87.7759 340.504 87.4311 338.279 87.0909 336.05C86.2715 330.749 85.4522 325.443 84.6328 320.142L81.6644 300.92C80.8092 295.382 79.9541 289.843 79.0989 284.304L78.2527 278.823C78.1184 277.958 78.0333 277.07 77.8497 276.213C77.8408 276.173 77.8363 276.137 77.8318 276.097C77.7647 275.662 77.2229 275.428 76.8334 275.532C76.3722 275.653 76.2021 276.101 76.2692 276.532C76.614 278.756 76.9587 280.981 77.299 283.21C78.1184 288.511 78.9377 293.816 79.7571 299.117C80.7465 305.526 81.736 311.935 82.7255 318.339C83.5807 323.878 84.4358 329.417 85.291 334.956L86.1372 340.436C86.2715 341.302 86.3566 342.19 86.5402 343.047C86.5491 343.087 86.5536 343.123 86.5581 343.163C86.6252 343.598 87.167 343.831 87.5565 343.728C88.0177 343.607 88.1878 343.159 88.1206 342.728Z" fill="#0B244A"/>
<path d="M107.172 342.728C106.827 340.504 106.482 338.279 106.142 336.05C105.323 330.749 104.503 325.443 103.684 320.142L100.715 300.92C99.8602 295.382 99.0051 289.843 98.1499 284.304L97.3037 278.823C97.1694 277.958 97.0843 277.07 96.9007 276.213C96.8918 276.173 96.8873 276.137 96.8828 276.097C96.8157 275.662 96.2739 275.428 95.8844 275.532C95.4232 275.653 95.2531 276.101 95.3203 276.532C95.665 278.756 96.0098 280.981 96.35 283.21C97.1694 288.511 97.9887 293.816 98.8081 299.117L101.777 318.339C102.632 323.878 103.487 329.417 104.342 334.956L105.188 340.436C105.323 341.302 105.408 342.19 105.591 343.047C105.6 343.087 105.605 343.123 105.609 343.163C105.676 343.598 106.218 343.831 106.608 343.728C107.069 343.607 107.239 343.159 107.172 342.728Z" fill="#0B244A"/>
<path d="M126.222 342.728C125.878 340.504 125.533 338.279 125.193 336.05C124.373 330.749 123.554 325.443 122.735 320.142L119.766 300.92C118.911 295.382 118.056 289.843 117.201 284.304L116.354 278.823C116.22 277.958 116.135 277.07 115.952 276.213C115.943 276.173 115.938 276.137 115.934 276.097C115.866 275.662 115.325 275.428 114.935 275.532C114.474 275.653 114.304 276.101 114.371 276.532C114.716 278.756 115.061 280.981 115.401 283.21C116.22 288.511 117.04 293.816 117.859 299.117L120.827 318.339C121.682 323.878 122.538 329.417 123.393 334.956L124.239 340.436C124.373 341.302 124.458 342.19 124.642 343.047C124.651 343.087 124.655 343.123 124.66 343.163C124.727 343.598 125.269 343.831 125.658 343.728C126.119 343.607 126.29 343.159 126.222 342.728Z" fill="#0B244A"/>
<path d="M145.273 342.728C144.929 340.504 144.584 338.279 144.244 336.05C143.424 330.749 142.605 325.443 141.786 320.142C140.796 313.734 139.807 307.325 138.817 300.92C137.962 295.382 137.107 289.843 136.252 284.304L135.406 278.823C135.271 277.958 135.186 277.07 135.003 276.213C134.994 276.173 134.989 276.137 134.985 276.097C134.917 275.662 134.376 275.428 133.986 275.532C133.525 275.653 133.355 276.101 133.422 276.532C133.767 278.756 134.112 280.981 134.452 283.21C135.271 288.511 136.091 293.816 136.91 299.117C137.899 305.526 138.889 311.935 139.878 318.339C140.733 323.878 141.589 329.417 142.444 334.956L143.29 340.436C143.424 341.302 143.509 342.19 143.693 343.047C143.702 343.087 143.706 343.123 143.711 343.163C143.778 343.598 144.32 343.831 144.709 343.728C145.17 343.607 145.341 343.159 145.273 342.728Z" fill="#0B244A"/>
<path d="M164.325 342.728C163.98 340.504 163.635 338.279 163.295 336.05C162.475 330.749 161.656 325.443 160.837 320.142L157.868 300.92C157.013 295.382 156.158 289.843 155.303 284.304L154.457 278.823C154.322 277.958 154.237 277.07 154.054 276.213C154.045 276.173 154.04 276.137 154.036 276.097C153.969 275.662 153.427 275.428 153.037 275.532C152.576 275.653 152.406 276.101 152.473 276.532C152.818 278.756 153.163 280.981 153.503 283.21C154.322 288.511 155.142 293.816 155.961 299.117L158.929 318.339C159.785 323.878 160.64 329.417 161.495 334.956L162.341 340.436C162.475 341.302 162.56 342.19 162.744 343.047C162.753 343.087 162.757 343.123 162.762 343.163C162.829 343.598 163.371 343.831 163.76 343.728C164.222 343.607 164.392 343.159 164.325 342.728Z" fill="#0B244A"/>
<path d="M291.225 228.162H5.08481C3.02502 228.162 1.35522 229.835 1.35522 231.898V248.344C1.35522 250.407 3.02502 252.08 5.08481 252.08H291.225C293.284 252.08 294.954 250.407 294.954 248.344V231.898C294.954 229.835 293.284 228.162 291.225 228.162Z" fill="#BFD3B6"/>
<path d="M291.229 251.264H183.071C168.206 251.264 153.342 251.264 138.477 251.264H8.03541C7.07279 251.264 6.09674 251.309 5.12964 251.264C2.18806 251.134 2.16567 248.577 2.16567 246.398C2.16567 242.985 2.16567 239.572 2.16567 236.154C2.16567 233.629 1.39557 229.149 5.08487 228.97C5.29082 228.961 5.49678 228.97 5.69826 228.97H10.2024C16.9945 228.97 23.7865 228.97 30.5831 228.97C41.257 228.97 51.9308 228.97 62.6047 228.97H191.157C204.616 228.97 218.074 228.97 231.533 228.97H264.307C271.323 228.97 278.343 228.97 285.359 228.97H290.325C290.611 228.97 290.902 228.956 291.189 228.97C294.215 229.104 294.144 231.818 294.144 234.038V244.079C294.144 246.618 294.918 251.067 291.229 251.264C290.19 251.318 290.186 252.946 291.229 252.887C293.557 252.762 295.518 251.147 295.747 248.748C295.818 247.972 295.769 247.174 295.769 246.398V235.899C295.769 233.383 296.293 230.252 294.153 228.427C293.217 227.629 292.084 227.364 290.898 227.346C286.859 227.297 282.816 227.346 278.773 227.346H252.106C239.794 227.346 227.481 227.346 215.169 227.346H45.8954C36.7931 227.346 27.6908 227.346 18.5929 227.346C14.2723 227.346 9.94722 227.319 5.62214 227.346C5.26844 227.346 4.92369 227.342 4.5655 227.382C2.23731 227.656 0.634434 229.598 0.54041 231.889C0.509069 232.602 0.54041 233.32 0.54041 234.033C0.54041 237.549 0.54041 241.07 0.54041 244.586C0.54041 248.102 0.0344758 250.344 2.47013 252.053C3.84018 253.017 5.37142 252.883 6.93399 252.883H36.6677C48.2729 252.883 59.878 252.883 71.4832 252.883H158.719C173.463 252.883 188.211 252.883 202.955 252.883H272.214C277.824 252.883 283.439 252.883 289.049 252.883H291.229C292.272 252.883 292.272 251.259 291.229 251.259V251.264Z" fill="#BFD3B6"/>
<path d="M291.229 251.264H16.6988C12.9916 251.264 9.27549 251.201 5.56829 251.264C5.4071 251.264 5.24592 251.264 5.08026 251.264C4.03705 251.264 4.03705 252.887 5.08026 252.887H279.61C283.318 252.887 287.034 252.95 290.741 252.887C290.902 252.887 291.063 252.887 291.229 252.887C292.272 252.887 292.272 251.264 291.229 251.264Z" fill="#0B244A"/>
<path d="M106.451 240.321H91.7027C89.2942 240.321 87.3418 242.277 87.3418 244.689V259.462C87.3418 261.875 89.2942 263.83 91.7027 263.83H106.451C108.859 263.83 110.812 261.875 110.812 259.462V244.689C110.812 242.277 108.859 240.321 106.451 240.321Z" fill="#0B244A"/>
<path d="M106.451 263.019C101.588 263.019 96.7216 263.032 91.8592 263.019C90.1086 263.014 88.5908 261.92 88.2192 260.162C88.0625 259.422 88.152 258.574 88.152 257.821V245.03C88.152 243.514 88.7744 242.128 90.2116 241.456C91.0668 241.056 92.007 241.133 92.9204 241.133H105.9C107.194 241.133 108.407 241.411 109.254 242.501C109.97 243.42 110.001 244.456 110.001 245.55V258.61C110.001 259.704 109.97 260.74 109.254 261.66C108.577 262.53 107.543 263.005 106.451 263.028C105.358 263.05 105.408 264.669 106.451 264.651C109.11 264.606 111.335 262.602 111.6 259.938C111.68 259.117 111.622 258.269 111.622 257.449V247.394C111.622 246.51 111.631 245.622 111.622 244.734C111.595 242.429 110.109 240.357 107.875 239.711C106.916 239.437 105.873 239.514 104.888 239.514H100.191C97.4156 239.514 94.6352 239.505 91.8592 239.514C89.8668 239.518 87.964 240.545 87.0775 242.384C86.5313 243.51 86.5312 244.649 86.5312 245.855V259.13C86.5312 260.92 87.176 262.557 88.649 263.647C89.8086 264.508 91.125 264.651 92.504 264.651H106.451C107.494 264.651 107.494 263.028 106.451 263.028V263.019Z" fill="#0B244A"/>
<path d="M96.8784 251.86C96.6366 250.873 96.3993 249.882 96.1576 248.896L94.2323 240.971C93.3011 237.136 92.3698 233.306 91.4385 229.472C90.3236 224.888 89.2133 220.309 88.0984 215.726C86.9254 210.895 85.7478 206.061 84.5748 201.231C83.4017 196.4 82.3227 191.956 81.1944 187.319C80.2229 183.323 79.2513 179.327 78.2797 175.331C77.5857 172.469 76.8873 169.608 76.1933 166.751C75.8799 165.468 75.562 164.19 75.2575 162.908C74.7785 160.88 76.2425 158.943 78.3379 158.907C78.5886 158.907 78.8438 158.907 79.0946 158.907C80.8049 158.907 82.5108 158.907 84.2211 158.907H105.345C110.015 158.907 114.68 158.907 119.35 158.907H182.01C183.317 158.907 184.62 158.907 185.927 158.907C187.468 158.907 188.775 159.777 189.209 161.297C189.491 162.302 191.058 161.876 190.772 160.867C190.158 158.701 188.238 157.297 186.004 157.284C185.592 157.284 185.175 157.284 184.763 157.284H178.732C175.455 157.284 172.173 157.284 168.896 157.284C164.674 157.284 160.452 157.284 156.229 157.284C151.448 157.284 146.666 157.284 141.889 157.284C136.865 157.284 131.837 157.284 126.814 157.284H112.119C107.7 157.284 103.281 157.284 98.8663 157.284C95.2934 157.284 91.7206 157.284 88.1477 157.284C85.7434 157.284 83.3391 157.284 80.9347 157.284C80.0169 157.284 79.0901 157.248 78.1723 157.284C75.1008 157.418 73.0099 160.324 73.6815 163.284C73.7621 163.643 73.8561 163.997 73.9412 164.356C74.4427 166.424 74.9441 168.487 75.4456 170.554C76.2873 174.021 77.1335 177.492 77.9753 180.959C79.0408 185.336 80.102 189.713 81.1676 194.091L84.7002 208.617C85.8643 213.416 87.0328 218.21 88.1969 223.009L91.34 235.948C92.1504 239.28 92.9608 242.612 93.7712 245.945L95.1367 251.569C95.1949 251.811 95.2531 252.053 95.3114 252.295C95.5576 253.309 97.1202 252.878 96.8739 251.865L96.8784 251.86Z" fill="white"/>
<path d="M169.254 153.158H102.009C99.2868 153.158 97.0798 155.368 97.0798 158.096C97.0798 160.823 99.2868 163.033 102.009 163.033H169.254C171.976 163.033 174.183 160.823 174.183 158.096C174.183 155.368 171.976 153.158 169.254 153.158Z" fill="white"/>
<path d="M169.258 162.221H105.528C104.414 162.221 103.303 162.221 102.188 162.221C101.136 162.221 100.115 161.93 99.3095 161.212C97.5454 159.643 97.4111 156.867 99.099 155.176C99.9273 154.346 101.011 153.969 102.162 153.969C102.538 153.969 102.914 153.969 103.294 153.969H126.133C133.247 153.969 140.366 153.969 147.481 153.969H168.636C168.842 153.969 169.048 153.969 169.254 153.969C171.501 154.001 173.373 155.817 173.373 158.095C173.373 160.374 171.501 162.186 169.254 162.221C168.211 162.239 168.211 163.863 169.254 163.845C171.882 163.805 174.273 161.993 174.85 159.383C175.428 156.772 174.192 154.135 171.851 152.969C170.499 152.296 169.133 152.346 167.687 152.346H132.392C125.699 152.346 119.001 152.346 112.307 152.346C108.922 152.346 105.533 152.337 102.148 152.346C100.715 152.35 99.3722 152.803 98.2707 153.736C96.2604 155.431 95.7366 158.364 96.8873 160.697C97.8499 162.639 99.8826 163.818 102.023 163.845C102.282 163.845 102.547 163.845 102.806 163.845H169.254C170.297 163.845 170.297 162.221 169.254 162.221H169.258Z" fill="white"/>
<path d="M272.787 117.454C266.546 115.301 255.281 115.619 252.711 107.713C250.136 99.8058 255.214 90.262 263.201 87.9927C273.311 129.738 292.733 164.276 313.033 202.114C314.372 204.608 311.869 213.116 314.309 214.537C318.164 216.78 323.049 215.367 327.141 213.595C346.551 205.195 362.714 189.516 371.726 170.361C380.735 151.202 382.508 128.733 376.611 108.394C343.206 116.642 305.288 118.629 270.956 116.368" fill="white"/>
<path d="M273.002 116.674C267.737 114.88 261.674 115.055 256.915 111.888C251.524 108.3 252.115 100.488 255.061 95.4916C256.928 92.3253 259.861 89.8093 263.416 88.7778L262.418 88.2127C264.786 97.9672 267.719 107.574 271.13 117.014C274.542 126.455 278.249 135.286 282.328 144.197C286.403 153.095 290.772 161.858 295.281 170.546C299.879 179.408 304.621 188.198 309.353 196.988C309.975 198.15 310.602 199.311 311.225 200.473C311.65 201.267 312.259 202.15 312.465 202.904C312.814 204.182 312.635 205.644 312.554 206.954C312.46 208.523 312.304 210.106 312.393 211.676C312.46 212.829 312.635 214.206 313.566 214.999C314.31 215.636 315.415 215.995 316.351 216.219C317.444 216.479 318.581 216.551 319.696 216.479C322.002 216.327 324.24 215.65 326.376 214.789C330.392 213.17 334.265 211.151 337.968 208.909C345.279 204.473 351.955 198.971 357.717 192.651C363.502 186.31 368.404 179.139 372.12 171.389C376.293 162.693 378.975 153.337 380.157 143.767C381.339 134.209 380.972 124.464 379.065 115.028C378.599 112.722 378.035 110.435 377.381 108.175C377.256 107.744 376.813 107.502 376.383 107.61C363 110.906 349.362 113.126 335.653 114.521C321.8 115.934 307.862 116.526 293.938 116.409C286.268 116.342 278.599 116.059 270.942 115.557C269.899 115.49 269.904 117.113 270.942 117.18C284.75 118.086 298.603 118.288 312.434 117.759C326.264 117.23 340.444 115.934 354.292 113.714C361.854 112.503 369.376 111.005 376.813 109.175L375.814 108.61C378.447 117.732 379.544 127.253 379.123 136.739C378.702 146.215 376.759 155.616 373.352 164.469C370.249 172.532 365.875 180.121 360.502 186.879C355.129 193.638 349.094 199.329 342.216 204.177C338.778 206.604 335.165 208.783 331.413 210.689C327.661 212.596 323.34 214.842 318.97 214.878C317.891 214.887 316.826 214.735 315.809 214.363C315.111 214.107 314.596 213.91 314.341 213.389C313.853 212.398 313.956 210.887 314.001 209.752C314.059 208.182 314.224 206.613 314.247 205.039C314.256 204.357 314.229 203.68 314.126 203.007C314.014 202.294 313.723 201.715 313.387 201.083C308.713 192.373 304.003 183.677 299.396 174.932C294.914 166.411 290.531 157.836 286.407 149.139C282.288 140.457 278.424 131.648 274.963 122.683C271.448 113.57 268.355 104.295 265.789 94.8682C265.149 92.5137 264.54 90.1501 263.967 87.7777C263.864 87.3561 263.38 87.0915 262.968 87.2126C256.105 89.2083 251.296 96.1195 251.211 103.197C251.171 106.462 252.115 109.839 254.569 112.108C256.817 114.189 259.821 115.234 262.74 115.969C265.991 116.786 269.375 117.158 272.554 118.243C273.544 118.58 273.969 117.014 272.984 116.678L273.002 116.674Z" fill="white"/>
<path d="M278.639 118.831C275.106 131.272 271.578 143.713 268.046 156.153C267.661 157.508 267.267 158.885 266.501 160.069C265.704 161.293 264.558 162.235 263.425 163.154C255.742 169.415 248.059 175.676 240.38 181.932C241.388 185.677 243.729 189.05 246.886 191.301C254.739 188.148 262.592 184.996 270.445 181.838C272.948 180.834 275.491 179.802 277.582 178.098C279.543 176.497 281.003 174.375 282.422 172.277C290.651 160.114 298.433 147.646 305.744 134.909" fill="white"/>
<path d="M277.855 118.615C275.084 128.374 272.317 138.133 269.545 147.897C268.847 150.364 268.144 152.83 267.446 155.297C267.141 156.364 266.872 157.459 266.429 158.481C265.986 159.504 265.364 160.329 264.58 161.087C262.865 162.751 260.886 164.181 259.037 165.688C257.072 167.289 255.111 168.891 253.145 170.487C248.699 174.111 244.249 177.735 239.803 181.358C239.583 181.538 239.525 181.892 239.592 182.148C240.327 184.812 241.665 187.278 243.496 189.341C243.944 189.848 244.423 190.328 244.925 190.772C245.144 190.965 245.368 191.158 245.596 191.337C245.901 191.579 246.277 191.974 246.657 192.077C247.038 192.18 247.378 191.961 247.71 191.826C248.122 191.66 248.538 191.494 248.95 191.328C249.778 190.996 250.602 190.664 251.43 190.333C257.766 187.785 264.105 185.242 270.441 182.695C273.199 181.587 275.993 180.47 278.29 178.537C280.586 176.604 282.274 173.918 283.958 171.415C287.674 165.895 291.296 160.311 294.824 154.665C298.813 148.287 302.682 141.829 306.434 135.308C306.953 134.402 305.556 133.581 305.032 134.487C299.481 144.148 293.665 153.655 287.589 162.993C286.049 165.356 284.495 167.711 282.924 170.052C281.513 172.151 280.157 174.34 278.415 176.183C276.673 178.026 274.488 179.242 272.169 180.242C269.684 181.314 267.15 182.273 264.638 183.282C258.643 185.691 252.653 188.095 246.657 190.503L247.28 190.584C244.289 188.431 242.122 185.251 241.146 181.704L240.935 182.493C244.92 179.246 248.905 175.999 252.89 172.752C256.875 169.505 260.828 166.383 264.714 163.11C265.57 162.387 266.371 161.616 267.02 160.701C267.669 159.786 268.086 158.719 268.426 157.651C269.169 155.315 269.783 152.929 270.45 150.565C271.851 145.632 273.253 140.699 274.649 135.765L279.4 119.032C279.686 118.023 278.124 117.597 277.837 118.602L277.855 118.615Z" fill="white"/>
<path d="M237.21 185.005C232.791 187.189 228.207 189.566 225.413 193.804C224.835 194.679 226.241 195.495 226.814 194.625C229.438 190.647 233.888 188.449 238.03 186.408C238.965 185.947 238.146 184.547 237.21 185.005Z" fill="#0B244A"/>
<path d="M230.029 194.822C228.618 197.814 228.377 201.271 229.464 204.411C229.805 205.393 231.372 204.971 231.027 203.98C230.087 201.267 230.199 198.249 231.43 195.643C231.618 195.248 231.542 194.768 231.139 194.531C230.785 194.324 230.217 194.423 230.029 194.822Z" fill="#0B244A"/>
<path d="M234.036 197.181C233.346 198.814 233.167 200.581 233.593 202.312C233.696 202.724 234.184 203.012 234.591 202.877C234.998 202.742 235.267 202.321 235.155 201.877C235.11 201.697 235.075 201.518 235.043 201.334C235.034 201.28 235.025 201.231 235.021 201.177C235.03 201.249 235.03 201.253 235.021 201.195C235.012 201.101 235.003 201.011 234.994 200.917C234.967 200.563 234.967 200.204 234.994 199.85C235.003 199.756 235.012 199.666 235.021 199.572C235.048 199.316 234.989 199.729 235.034 199.473C235.066 199.289 235.101 199.11 235.142 198.93C235.182 198.751 235.236 198.572 235.294 198.397C235.316 198.32 235.343 198.244 235.37 198.172C235.379 198.145 235.491 197.863 235.433 197.997C235.598 197.607 235.563 197.109 235.142 196.885C234.792 196.701 234.21 196.76 234.031 197.177L234.036 197.181Z" fill="#0B244A"/>
<path d="M238.065 196.966C237.161 198.58 236.96 200.576 237.573 202.33C237.712 202.729 238.133 203.038 238.571 202.895C238.965 202.769 239.288 202.325 239.136 201.895C239.064 201.697 239.006 201.495 238.956 201.289C238.939 201.213 238.921 201.137 238.907 201.056C238.903 201.024 238.858 200.72 238.876 200.881C238.831 200.5 238.822 200.119 238.853 199.737C238.862 199.648 238.867 199.553 238.88 199.464C238.858 199.625 238.907 199.316 238.916 199.289C238.952 199.109 238.997 198.93 239.05 198.751C239.104 198.571 239.162 198.401 239.234 198.23C239.176 198.365 239.301 198.087 239.315 198.064C239.359 197.97 239.413 197.876 239.462 197.786C239.668 197.414 239.565 196.885 239.171 196.674C238.777 196.463 238.285 196.571 238.061 196.966H238.065Z" fill="#0B244A"/>
<path d="M243.425 198.943C244.544 197.154 245.659 195.364 246.778 193.58C247.011 193.207 246.859 192.687 246.487 192.467C246.098 192.239 245.61 192.387 245.377 192.759C244.258 194.548 243.143 196.338 242.024 198.123C241.791 198.495 241.943 199.015 242.315 199.235C242.704 199.464 243.192 199.316 243.425 198.943Z" fill="#0B244A"/>
<path d="M269.716 117.055C270.759 117.055 270.759 115.431 269.716 115.431C268.672 115.431 268.672 117.055 269.716 117.055Z" fill="white"/>
<path d="M257.045 103.784C254.399 105.363 251.681 106.829 248.914 108.175C246.631 100.869 249.397 92.2625 255.505 87.6566C257.291 86.3111 259.749 85.2886 261.697 86.3784C262.068 86.5892 262.417 86.8717 262.838 86.9524C263.582 87.0915 264.267 86.5533 264.996 86.338C266.362 85.9344 267.853 86.7506 268.65 87.9346C269.442 89.1186 269.675 90.5807 269.796 92.0024C270.168 96.3661 269.684 100.802 268.377 104.982C268.31 105.197 268.225 105.435 268.028 105.547C267.831 105.659 267.589 105.609 267.369 105.56C266.64 105.394 265.914 105.224 265.184 105.058C265.887 103.856 266.375 102.533 266.617 101.16C266.783 100.228 266.81 99.1871 266.259 98.4202C265.238 96.9985 262.829 97.4739 261.782 98.8777C260.734 100.281 260.667 102.156 260.64 103.91C259.834 103.712 259.024 103.515 258.218 103.313" fill="#0B244A"/>
<path d="M256.633 103.084C253.982 104.658 251.269 106.125 248.502 107.475L249.693 107.959C247.786 101.752 249.568 94.6391 254.085 89.9928C255.236 88.8088 256.592 87.6562 258.159 87.0777C258.965 86.7817 259.847 86.6068 260.689 86.84C261.576 87.0867 262.202 87.8177 263.179 87.7863C264.065 87.7594 264.763 87.0956 265.632 87.0508C266.411 87.0104 267.141 87.4454 267.66 87.9926C268.945 89.356 268.99 91.6164 269.071 93.3744C269.178 95.7693 269.035 98.1822 268.618 100.546C268.413 101.73 268.139 102.9 267.808 104.053C267.754 104.237 267.522 104.699 267.553 104.896C267.535 104.761 267.754 104.927 267.647 104.788C267.598 104.726 267.289 104.708 267.19 104.685C266.595 104.546 265.999 104.412 265.404 104.273L265.887 105.466C267.257 103.084 269.169 97.1193 264.71 96.7605C263.25 96.6439 261.8 97.4198 260.985 98.6127C259.941 100.147 259.865 102.111 259.834 103.905L260.859 103.12C260.053 102.923 259.243 102.725 258.437 102.524C257.425 102.277 256.991 103.842 258.007 104.089C258.813 104.286 259.624 104.483 260.429 104.685C260.944 104.811 261.446 104.439 261.455 103.9C261.491 101.878 261.656 98.3705 264.441 98.3661C267.401 98.3661 265.193 103.412 264.486 104.64C264.235 105.08 264.455 105.712 264.969 105.833C265.534 105.963 266.093 106.093 266.657 106.224C267.172 106.34 267.727 106.524 268.242 106.327C269.25 105.936 269.42 104.376 269.648 103.465C270.239 101.138 270.588 98.7428 270.696 96.3434C270.794 94.0785 270.812 91.5939 270.186 89.3964C269.635 87.4634 268.215 85.6919 266.116 85.4542C265.672 85.4048 265.216 85.4362 264.786 85.5618C264.28 85.7098 263.819 86.0372 263.304 86.1404C262.789 86.2435 262.444 85.8578 262.037 85.6425C261.594 85.4093 261.128 85.2524 260.631 85.1761C258.545 84.8622 256.498 85.8802 254.891 87.1225C251.927 89.4053 249.751 92.5671 248.493 96.0788C247.087 100.008 246.908 104.394 248.135 108.394C248.296 108.923 248.847 109.112 249.326 108.879C252.097 107.524 254.806 106.062 257.457 104.488C258.352 103.954 257.537 102.55 256.637 103.084H256.633Z" fill="#0B244A"/>
<path d="M271.05 117.871C264.988 125.473 254.605 131.586 247.114 138.515C238.576 134.052 230.033 129.59 221.495 125.123C219.664 127.751 217.833 130.379 216.006 133.003C215.903 133.151 215.795 133.312 215.791 133.496C215.791 133.716 215.939 133.904 216.082 134.07C221.45 140.331 227.262 146.206 233.458 151.638C237.354 155.051 241.782 158.441 246.949 158.683C249.72 158.813 252.451 158.006 255.075 157.1C263.649 154.127 281.151 142.121 288.574 136.887" fill="white"/>
<path d="M270.477 117.297C265.31 123.746 258.227 128.379 251.82 133.469C250.015 134.904 248.238 136.38 246.541 137.945L247.521 137.82C240.886 134.353 234.251 130.886 227.615 127.415C225.708 126.419 223.805 125.423 221.898 124.428C221.486 124.213 221.052 124.343 220.788 124.719C219.574 126.459 218.361 128.2 217.148 129.944C216.534 130.828 215.876 131.693 215.294 132.604C214.712 133.514 215.124 134.227 215.773 134.972C218.397 138.017 221.123 140.968 223.949 143.82C226.751 146.65 229.648 149.382 232.639 152.01C235.348 154.391 238.204 156.75 241.544 158.19C243.174 158.894 244.884 159.36 246.662 159.481C248.623 159.616 250.602 159.28 252.491 158.764C255.017 158.073 257.439 157.1 259.789 155.947C264.893 153.445 269.751 150.418 274.533 147.345C279.024 144.462 283.443 141.466 287.813 138.403C288.202 138.129 288.587 137.86 288.977 137.586C289.823 136.99 289.013 135.582 288.157 136.183C284.535 138.735 280.882 141.237 277.188 143.677C272.773 146.592 268.305 149.435 263.698 152.032C259.525 154.387 255.178 156.634 250.441 157.58C247.159 158.235 243.984 157.687 241.029 156.145C238.074 154.602 235.661 152.516 233.239 150.373C227.906 145.646 222.87 140.587 218.159 135.241C217.859 134.9 217.559 134.559 217.264 134.214C217.04 133.958 216.615 133.622 216.565 133.281V133.711C216.637 133.335 216.991 132.989 217.21 132.68L217.85 131.765L219.319 129.657L222.193 125.531L221.083 125.823C227.718 129.289 234.354 132.756 240.989 136.227L246.707 139.214C247.038 139.389 247.414 139.34 247.687 139.089C253.83 133.42 260.949 128.944 267.078 123.262C268.699 121.759 270.239 120.167 271.623 118.445C271.9 118.1 271.954 117.633 271.623 117.297C271.341 117.01 270.75 116.956 270.477 117.297Z" fill="white"/>
<path d="M215.701 131.213C210.212 129.554 204.454 126.773 201.092 121.925C200.501 121.073 199.095 121.885 199.691 122.746C203.308 127.962 209.344 130.989 215.272 132.779C216.275 133.079 216.7 131.514 215.701 131.213Z" fill="#0B244A"/>
<path d="M211.922 121.88C211.779 121.104 211.802 120.131 211.981 119.337C212.187 118.418 212.513 117.678 213.06 116.893C213.31 116.534 213.127 115.992 212.769 115.781C212.366 115.543 211.909 115.709 211.658 116.072C210.4 117.884 209.966 120.154 210.36 122.311C210.44 122.741 210.96 122.988 211.358 122.876C211.811 122.75 212.003 122.311 211.922 121.876V121.88Z" fill="#0B244A"/>
<path d="M213.745 111.135C216.597 115.274 218.271 120.14 218.522 125.163C218.576 126.204 220.197 126.208 220.143 125.163C219.879 119.862 218.155 114.687 215.142 110.314C214.555 109.457 213.149 110.269 213.74 111.135H213.745Z" fill="#0B244A"/>
<path d="M211.797 115.776C210.853 115.122 209.962 114.337 209.147 113.444C208.332 112.552 207.683 111.655 207.074 110.583C206.854 110.202 206.339 110.072 205.963 110.291C205.587 110.511 205.453 111.022 205.672 111.404C206.984 113.704 208.811 115.669 210.978 117.176C211.336 117.427 211.878 117.243 212.088 116.884C212.326 116.48 212.16 116.023 211.797 115.772V115.776Z" fill="#0B244A"/>
<path d="M202.91 114.633L204.969 117.1C205.095 117.252 205.354 117.337 205.542 117.337C205.739 117.337 205.977 117.248 206.115 117.1C206.254 116.952 206.362 116.741 206.353 116.526C206.344 116.31 206.259 116.126 206.115 115.951L204.056 113.485C203.931 113.332 203.671 113.247 203.483 113.247C203.286 113.247 203.048 113.337 202.91 113.485C202.771 113.633 202.663 113.844 202.672 114.059C202.681 114.274 202.766 114.458 202.91 114.633Z" fill="#0B244A"/>
<path d="M200.779 118.243C201.558 119.449 202.605 120.468 203.841 121.194C204.208 121.409 204.746 121.288 204.951 120.903C205.157 120.517 205.05 120.024 204.66 119.79C204.383 119.629 204.119 119.45 203.864 119.257C203.778 119.194 203.895 119.284 203.917 119.302C203.881 119.275 203.846 119.243 203.81 119.216C203.752 119.167 203.693 119.122 203.635 119.068C203.514 118.965 203.393 118.857 203.281 118.745C203.058 118.53 202.843 118.301 202.646 118.059C202.596 118.001 202.552 117.943 202.502 117.88C202.399 117.754 202.587 117.996 202.534 117.916C202.511 117.884 202.489 117.853 202.467 117.826C202.368 117.691 202.274 117.552 202.18 117.413C201.952 117.059 201.45 116.875 201.07 117.122C200.716 117.351 200.532 117.853 200.779 118.234V118.243Z" fill="#0B244A"/>
<path d="M343.497 209.138C344.531 211.38 345.565 213.622 346.604 215.869C346.788 216.268 347.361 216.367 347.715 216.161C348.122 215.923 348.189 215.448 348.006 215.049C346.971 212.806 345.937 210.564 344.898 208.317C344.715 207.918 344.142 207.819 343.788 208.025C343.381 208.263 343.313 208.738 343.497 209.138Z" fill="#BFD3B6"/>
<path d="M270.49 121.414C269.711 130.59 268.932 139.766 268.153 148.942C268.063 149.982 269.684 149.978 269.774 148.942C270.553 139.766 271.332 130.59 272.111 121.414C272.2 120.373 270.58 120.378 270.49 121.414Z" fill="#0B244A"/>
<path d="M290.848 161.571C294.179 154.252 297.793 146.955 300.269 139.286C300.819 137.577 301.303 135.846 301.715 134.097C301.956 133.079 300.394 132.648 300.152 133.666C298.554 140.443 295.764 146.825 292.908 153.149C291.762 155.687 290.602 158.221 289.447 160.755C289.017 161.697 290.414 162.526 290.848 161.576V161.571Z" fill="#0B244A"/>
<path d="M269.527 91.8904C269.953 83.7279 270.956 74.4398 277.551 69.6276C281.379 66.838 286.389 66.2011 291.112 66.524C295.836 66.8469 300.461 68.0265 305.176 68.4839C317.434 69.6769 330.11 65.7437 339.548 57.8145C337.39 64.7615 335.809 71.8834 334.82 79.0906C334.229 83.405 333.002 88.751 328.758 89.6883C323.34 90.8813 317.887 83.3691 313.132 86.2439C312.107 86.8628 311.39 87.8764 310.517 88.6927C308.319 90.7422 304.992 91.4867 302.131 90.5673C299.127 89.5986 296.933 87.0781 294.394 85.1945C291.856 83.3108 288.216 82.082 285.641 83.9118C284.235 84.9119 283.447 86.6431 281.965 87.5176C279.78 88.8093 277.031 87.8136 274.502 87.6073C271.972 87.401 268.69 89.1322 269.402 91.5719" fill="#0B244A"/>
<path d="M270.338 91.8902C270.606 86.7461 270.991 81.3194 273.136 76.561C274.152 74.3051 275.572 72.2645 277.493 70.6903C279.731 68.8605 282.561 67.8918 285.395 67.4926C291.968 66.5642 298.469 68.6183 304.961 69.2821C310.889 69.8875 316.942 69.2955 322.664 67.6496C329.049 65.8153 335.017 62.6624 340.117 58.3973L338.76 57.608C337.448 61.8372 336.347 66.1337 335.465 70.4705C335.026 72.6233 334.641 74.785 334.309 76.9556C334.054 78.6419 333.857 80.3372 333.481 82.0056C332.913 84.5216 331.878 87.7507 329.201 88.7194C326.523 89.6881 323.819 88.0646 321.54 86.8716C319.261 85.6787 316.445 84.1224 313.772 85.0553C312.062 85.6518 311.108 87.0779 309.81 88.235C308.511 89.3921 306.832 90.0379 305.135 90.1321C301.334 90.3474 298.679 87.6206 295.952 85.3961C293.226 83.1716 289.559 81.1893 286.102 82.7187C284.432 83.4587 283.568 85.0239 282.301 86.2393C280.909 87.5713 279.033 87.4457 277.255 87.1766C275.478 86.9075 273.852 86.5622 272.142 87.0645C270.732 87.4771 269.299 88.3472 268.722 89.7599C268.453 90.4102 268.439 91.1098 268.619 91.787C268.887 92.7961 270.45 92.3701 270.181 91.3565C269.845 90.0918 271.045 89.2083 272.088 88.7956C273.691 88.1633 275.276 88.5131 276.924 88.7598C278.778 89.0333 280.774 89.2127 282.444 88.1767C283.922 87.2618 284.67 85.6159 286.049 84.6113C289.075 82.4092 293.011 85.0239 295.366 87.0017C298.115 89.3114 300.909 91.796 304.719 91.7691C306.465 91.7556 308.234 91.2578 309.716 90.325C310.463 89.8541 311.117 89.271 311.721 88.6297C312.326 87.9884 312.921 87.2842 313.709 86.8492C316.011 85.58 318.751 87.2394 320.788 88.3068C323.255 89.5984 325.959 91.065 328.838 90.5044C331.717 89.9438 333.553 87.2215 334.466 84.5261C334.954 83.0909 335.254 81.593 335.483 80.095C335.796 78.0544 336.074 76.0093 336.441 73.9777C337.215 69.6543 338.205 65.3668 339.405 61.1421C339.7 60.1016 340.009 59.0656 340.327 58.034C340.587 57.1999 339.552 56.7603 338.97 57.2447C329.81 64.9093 317.609 68.7349 305.722 67.7258C299.055 67.1607 292.474 65.0125 285.731 65.8197C282.74 66.1785 279.771 67.0576 277.291 68.8201C275.218 70.2911 273.557 72.2465 272.353 74.4845C269.514 79.7676 269.021 86.0105 268.717 91.8902C268.663 92.9352 270.284 92.9307 270.338 91.8902Z" fill="#0B244A"/>
<path d="M267.947 86.3558C267.857 86.284 267.942 86.3558 267.983 86.3872C268.019 86.4186 268.059 86.45 268.095 86.4814C268.18 86.5531 268.26 86.6249 268.341 86.7011C268.511 86.8581 268.672 87.024 268.829 87.199C268.901 87.2797 268.972 87.3649 269.044 87.4501C269.057 87.4636 269.178 87.6161 269.116 87.5398C269.062 87.4725 269.156 87.5936 269.165 87.6026C269.304 87.791 269.433 87.9838 269.554 88.1811C269.671 88.3695 269.774 88.5624 269.872 88.7597C269.921 88.8584 269.966 88.957 270.015 89.0557C270.029 89.0826 270.092 89.2396 270.033 89.0961C270.051 89.1409 270.069 89.1858 270.087 89.2306C270.253 89.6656 270.383 90.1141 270.468 90.5671C270.548 90.9842 271.072 91.2622 271.466 91.1322C271.909 90.9887 272.12 90.5805 272.03 90.1321C271.632 88.0511 270.427 86.2302 268.762 84.952C268.422 84.6919 267.84 84.8893 267.651 85.2436C267.423 85.6741 267.58 86.0777 267.943 86.3558H267.947Z" fill="#BFD3B6"/>
<path d="M207.763 83.239C200.814 86.3784 194.094 90.0335 187.745 94.2672C181.396 98.5009 174.927 103.623 169.366 109.251C163.805 114.88 159.041 120.975 155.204 127.729C153.207 131.24 151.515 134.927 150.082 138.703C148.757 142.197 147.655 145.807 147.131 149.516C146.527 153.804 146.402 158.221 147.7 162.41C148.998 166.599 151.712 170.541 155.616 172.815C159.52 175.089 164.069 175.663 168.412 174.779C172.755 173.896 176.467 171.187 178.687 167.46C180.908 163.733 181.508 159.199 180.649 154.965C179.789 150.731 176.767 146.753 172.871 144.605C170.879 143.506 168.676 142.739 166.42 142.421C165.139 142.242 163.872 142.089 162.574 142.112C161.168 142.139 159.762 142.327 158.378 142.556C153.78 143.327 149.388 145.386 145.323 147.615C138.351 151.436 131.958 156.499 126.599 162.374C121.239 168.249 116.672 175.044 113.462 182.39C112.589 184.386 111.774 186.409 111.062 188.467C110.709 189.49 110.968 190.893 111.497 191.804C112.025 192.714 113.05 193.557 114.08 193.795C116.489 194.342 118.607 193.064 119.399 190.772C119.887 189.364 120.415 187.974 120.993 186.597L120.559 187.633C122.896 182.085 125.963 176.865 129.634 172.097L128.958 172.972C132.643 168.213 136.914 163.93 141.674 160.244L140.801 160.921C145.144 157.575 149.885 154.678 154.935 152.53L153.901 152.965C156.337 151.942 158.862 151.14 161.481 150.785L160.331 150.938C161.978 150.731 163.626 150.709 165.273 150.92L164.123 150.767C165.506 150.96 166.849 151.31 168.143 151.839L167.109 151.404C168.22 151.875 169.267 152.472 170.221 153.212L169.348 152.534C170.082 153.117 170.749 153.777 171.331 154.517L170.655 153.642C171.224 154.387 171.685 155.194 172.057 156.055L171.622 155.019C172.039 156.024 172.312 157.064 172.46 158.14L172.307 156.988C172.451 158.123 172.446 159.262 172.307 160.392L172.46 159.239C172.298 160.423 171.989 161.571 171.528 162.67L171.963 161.634C171.569 162.54 171.081 163.392 170.485 164.186L171.161 163.312C170.579 164.065 169.916 164.733 169.169 165.316L170.042 164.639C169.272 165.227 168.439 165.706 167.552 166.097L168.587 165.662C167.508 166.119 166.379 166.42 165.22 166.576L166.37 166.424C165.148 166.576 163.926 166.572 162.704 166.411L163.854 166.563C162.686 166.397 161.553 166.092 160.46 165.644L161.495 166.079C160.505 165.657 159.578 165.128 158.723 164.482L159.596 165.159C158.723 164.482 157.958 163.688 157.282 162.814L157.958 163.688C157.228 162.72 156.628 161.67 156.153 160.549L156.588 161.585C155.974 160.105 155.589 158.553 155.37 156.965L155.522 158.118C155.209 155.696 155.289 153.243 155.607 150.826L155.455 151.978C156.086 147.39 157.573 142.928 159.359 138.667L158.925 139.703C161.477 133.662 164.866 128.007 168.864 122.818L168.188 123.692C172.177 118.535 176.74 113.839 181.687 109.601C183.111 108.381 184.566 107.197 186.048 106.049L185.175 106.726C191.654 101.721 198.643 97.3887 205.941 93.6842C207.982 92.6437 210.051 91.657 212.142 90.7152C213.069 90.2981 213.87 89.0693 214.13 88.1275C214.416 87.0915 214.286 85.7101 213.695 84.7907C213.104 83.8713 212.213 83.0506 211.112 82.7995L209.961 82.647C209.182 82.647 208.453 82.8443 207.781 83.239H207.763Z" fill="#BFD3B6"/>
<path d="M114.761 190.225C110.14 182.757 106.236 174.842 103.124 166.625C101.105 184.13 100.299 201.899 102.811 219.336C115.844 207.061 128.699 194.598 141.369 181.95C132.661 185.96 123.527 189.045 114.17 191.144" fill="#BFD3B6"/>
<path d="M115.459 189.817C110.879 182.404 106.997 174.564 103.908 166.411C103.572 165.532 102.421 165.706 102.314 166.626C100.733 180.35 99.8916 194.208 100.818 208.008C101.078 211.869 101.481 215.722 102.032 219.552C102.121 220.193 102.99 220.283 103.388 219.91C113.538 210.353 123.577 200.679 133.507 190.893C136.328 188.113 139.144 185.323 141.947 182.525C142.636 181.838 141.768 180.879 140.966 181.251C134.224 184.35 127.23 186.888 120.075 188.844C118.052 189.395 116.01 189.902 113.964 190.364C112.947 190.593 113.377 192.158 114.394 191.929C121.732 190.279 128.936 188.032 135.907 185.198C137.886 184.395 139.843 183.547 141.786 182.655L140.805 181.381C130.937 191.23 120.962 200.966 110.874 210.591C108.009 213.327 105.13 216.053 102.247 218.767L103.603 219.126C101.665 205.586 101.741 191.822 102.811 178.21C103.115 174.344 103.5 170.483 103.944 166.63L102.35 166.846C105.493 175.129 109.41 183.103 114.067 190.638C114.613 191.526 116.019 190.71 115.468 189.817H115.459Z" fill="#BFD3B6"/>
<path opacity="0.2" d="M112.728 137.317C127.167 102.03 148.981 65.4162 186.662 51.8315C189.245 51.0288 191.434 49.9614 194.398 49.8448C199.399 49.5981 203.635 53.8587 204.383 58.5812C205.166 63.5056 203.272 68.6946 200.438 72.6637C199.091 74.4307 197.622 76.2919 195.446 77.0544C189.218 79.2968 183.326 72.7982 186.191 66.793C186.599 65.8736 187.606 63.6985 188.036 62.7477C197.649 43.4987 214.64 27.6133 234.81 19.9532C235.764 19.5227 237.828 18.9486 238.809 18.5988C239.153 18.4956 240.537 18.0382 240.922 17.9575C246.859 16.2756 253.763 16.8093 258.388 21.7292C264.383 27.9183 263.676 37.7043 258.276 43.9517C256.131 46.6471 253.1 48.6114 249.554 48.4948C244.517 48.441 240.165 44.3912 239.74 39.2919C239.471 36.4037 240.591 33.3988 242.659 31.3896C254.206 20.1506 268.314 11.4051 283.246 6.07709C296.423 1.3949 310.414 -0.878916 324.339 0.309569C324.822 0.349933 325.18 0.771509 325.144 1.25587C325.118 1.61915 324.867 1.91515 324.544 2.02278C322.91 2.55648 321.285 3.04084 319.673 3.52072C295.29 11.1001 272.357 24.8327 255.299 43.6871C255.8 43.1758 255.858 43.0502 256.387 42.216C259.265 37.1392 255.643 30.7707 249.841 30.7079C247.79 30.663 245.69 31.4703 244.244 32.91C244.432 32.7081 244.584 32.448 244.665 32.2552C244.683 32.2058 244.701 32.1565 244.714 32.0982C244.723 32.0713 244.714 32.0847 244.705 32.1072C244.401 32.9683 245.081 34.1074 245.86 34.6007C246.254 34.8654 246.698 34.9954 246.868 35.0178C247.051 35.0447 246.984 34.9999 246.729 34.9999C245.919 34.9954 244.468 35.3587 243.595 35.5964C242.789 35.8117 241.141 36.2063 240.389 36.462C233.588 38.4801 227.011 41.5029 221.114 45.4631C212.196 51.3651 204.826 59.5141 199.516 68.7888C199.252 69.3135 198.186 71.2958 197.909 71.8385L197.774 72.0941L197.707 72.2197C198.209 71.1254 198.28 69.8248 197.953 68.6632C196.995 64.9811 192.209 63.6716 189.496 66.2817C189.429 66.349 189.496 66.2817 189.496 66.2862C191.143 64.869 192.321 62.8777 192.71 60.7474C192.724 60.6891 192.755 60.5636 192.769 60.5277C192.787 60.4828 192.818 60.5725 192.939 60.6891C193.212 60.9851 194.058 61.3753 194.466 61.2856C194.528 61.2722 194.466 61.2452 194.273 61.2722C193.23 61.4291 191.237 62.0032 190.033 62.2992C173.834 66.8917 159.632 76.857 147.964 88.9437C134.165 103.295 123.805 120.625 114.304 138.075C114.076 138.497 113.547 138.649 113.126 138.421C112.737 138.205 112.576 137.73 112.746 137.326L112.728 137.317Z" fill="#C5E2E0"/>
</g>
<defs>
<clipPath id="clip0_100_2109">
<rect width="427" height="368" fill="white" transform="translate(0.5)"/>
</clipPath>
</defs>
</svg>
