<svg width="226" height="77" viewBox="0 0 226 77" fill="none" xmlns="http://www.w3.org/2000/svg">
<path d="M0 35C0 33.3431 1.34315 32 3 32C4.65685 32 6 33.3431 6 35V74C6 75.6569 4.65685 77 3 77C1.34315 77 0 75.6569 0 74V35Z" fill="#BFD2B6"/>
<path d="M10 23C10 21.3431 11.3431 20 13 20C14.6569 20 16 21.3431 16 23V74C16 75.6569 14.6569 77 13 77C11.3431 77 10 75.6569 10 74V23Z" fill="#BFD2B6"/>
<path d="M20 11C20 9.34315 21.3431 8 23 8C24.6569 8 26 9.34315 26 11V74C26 75.6569 24.6569 77 23 77C21.3431 77 20 75.6569 20 74V11Z" fill="#BFD2B6"/>
<path d="M30 17C30 15.3431 31.3431 14 33 14C34.6569 14 36 15.3431 36 17V74C36 75.6569 34.6569 77 33 77C31.3431 77 30 75.6569 30 74V17Z" fill="#BFD2B6"/>
<path d="M40 11C40 9.34315 41.3431 8 43 8C44.6569 8 46 9.34315 46 11V74C46 75.6569 44.6569 77 43 77C41.3431 77 40 75.6569 40 74V11Z" fill="#BFD2B6"/>
<path d="M50 3C50 1.34315 51.3431 0 53 0C54.6569 0 56 1.34315 56 3V74C56 75.6569 54.6569 77 53 77C51.3431 77 50 75.6569 50 74V3Z" fill="#BFD2B6"/>
<path d="M60 35C60 33.3431 61.3431 32 63 32C64.6569 32 66 33.3431 66 35V74C66 75.6569 64.6569 77 63 77C61.3431 77 60 75.6569 60 74V35Z" fill="#BFD2B6"/>
<path d="M70 35C70 33.3431 71.3431 32 73 32C74.6569 32 76 33.3431 76 35V74C76 75.6569 74.6569 77 73 77C71.3431 77 70 75.6569 70 74V35Z" fill="#BFD2B6"/>
<path d="M80 26C80 24.3431 81.3431 23 83 23C84.6569 23 86 24.3431 86 26V74C86 75.6569 84.6569 77 83 77C81.3431 77 80 75.6569 80 74V26Z" fill="#BFD2B6"/>
<path d="M90 20C90 18.3431 91.3431 17 93 17C94.6569 17 96 18.3431 96 20V74C96 75.6569 94.6569 77 93 77C91.3431 77 90 75.6569 90 74V20Z" fill="#BFD2B6"/>
<path d="M100 30C100 28.3431 101.343 27 103 27C104.657 27 106 28.3431 106 30V74C106 75.6569 104.657 77 103 77C101.343 77 100 75.6569 100 74V30Z" fill="#BFD2B6"/>
<path d="M110 42C110 40.3431 111.343 39 113 39C114.657 39 116 40.3431 116 42V74C116 75.6569 114.657 77 113 77C111.343 77 110 75.6569 110 74V42Z" fill="#BFD2B6"/>
<path d="M120 42C120 40.3431 121.343 39 123 39C124.657 39 126 40.3431 126 42V74C126 75.6569 124.657 77 123 77C121.343 77 120 75.6569 120 74V42Z" fill="#BFD2B6"/>
<path d="M130 56C130 54.3431 131.343 53 133 53C134.657 53 136 54.3431 136 56V74C136 75.6569 134.657 77 133 77C131.343 77 130 75.6569 130 74V56Z" fill="#BFD2B6"/>
<path d="M140 30C140 28.3431 141.343 27 143 27C144.657 27 146 28.3431 146 30V74C146 75.6569 144.657 77 143 77C141.343 77 140 75.6569 140 74V30Z" fill="#BFD2B6"/>
<path d="M150 52C150 50.3431 151.343 49 153 49C154.657 49 156 50.3431 156 52V74C156 75.6569 154.657 77 153 77C151.343 77 150 75.6569 150 74V52Z" fill="#BFD2B6"/>
<path d="M160 60C160 58.3431 161.343 57 163 57C164.657 57 166 58.3431 166 60V74C166 75.6569 164.657 77 163 77C161.343 77 160 75.6569 160 74V60Z" fill="#BFD2B6"/>
<path d="M170 58C170 56.3431 171.343 55 173 55C174.657 55 176 56.3431 176 58V74C176 75.6569 174.657 77 173 77C171.343 77 170 75.6569 170 74V58Z" fill="#BFD2B6"/>
<path d="M180 67C180 65.3431 181.343 64 183 64C184.657 64 186 65.3431 186 67V74C186 75.6569 184.657 77 183 77C181.343 77 180 75.6569 180 74V67Z" fill="#BFD2B6"/>
<path d="M190 52C190 50.3431 191.343 49 193 49C194.657 49 196 50.3431 196 52V74C196 75.6569 194.657 77 193 77C191.343 77 190 75.6569 190 74V52Z" fill="#BFD2B6"/>
<path d="M200 42C200 40.3431 201.343 39 203 39C204.657 39 206 40.3431 206 42V74C206 75.6569 204.657 77 203 77C201.343 77 200 75.6569 200 74V42Z" fill="#BFD2B6"/>
<path d="M210 45C210 43.3431 211.343 42 213 42C214.657 42 216 43.3431 216 45V74C216 75.6569 214.657 77 213 77C211.343 77 210 75.6569 210 74V45Z" fill="#BFD2B6"/>
<path d="M220 45C220 43.3431 221.343 42 223 42C224.657 42 226 43.3431 226 45V74C226 75.6569 224.657 77 223 77C221.343 77 220 75.6569 220 74V45Z" fill="#BFD2B6"/>
</svg>
