<svg xmlns="http://www.w3.org/2000/svg" width="24.442" height="13.16" viewBox="0 0 24.442 13.16">
  <g id="Group_129" transform="translate(-1849.71 -915.25)">
    <path id="Union_9" d="M1855.72,925.84a3.441,3.441,0,0,1,2.46-4.2l.13-.03a3.678,3.678,0,0,1,1.65-.05l.61-1.94-.91-1.13-.56.14a.378.378,0,0,1-.45-.24.345.345,0,0,1,.24-.42h.01l.78-.2h.02l1.47-.38a.378.378,0,0,1,.45.24.345.345,0,0,1-.24.42h-.01l-.96.24.73.91,5.47-1.38-.88-1.1a.313.313,0,0,1-.05-.1h0a.333.333,0,0,1,.01-.22h.01a.271.271,0,0,1,.07-.08h.02l1.3-1a.385.385,0,0,1,.51.06.314.314,0,0,1-.05.46l-.02.02-1,.72,2.07,2.57a4.033,4.033,0,0,1,.96-.39,3.685,3.685,0,0,1,4.48,2.44,3.441,3.441,0,0,1-2.46,4.2c-.04.01-.08.02-.13.03a3.694,3.694,0,0,1-4.48-2.44,3.324,3.324,0,0,1,1.05-3.43l-.74-.92-2.65,5.12a.38.38,0,0,1-.13.18.341.341,0,0,1-.22.07l-1.42.36a3.462,3.462,0,0,1-2.66,3.92,3.806,3.806,0,0,1-.95.12A3.673,3.673,0,0,1,1855.72,925.84Zm2.79-3.55a2.732,2.732,0,0,0-2.08,3.25c.01.04.02.07.03.11a2.923,2.923,0,0,0,3.56,1.94,2.744,2.744,0,0,0,2.12-3.05l-2.76.69a.368.368,0,0,1-.35-.09.334.334,0,0,1-.09-.34l.81-2.57a3.228,3.228,0,0,0-1.24.06Zm9.2.51a2.923,2.923,0,0,0,3.56,1.94,2.732,2.732,0,0,0,2.08-3.25c-.01-.04-.02-.07-.03-.1a2.923,2.923,0,0,0-3.56-1.94,2.981,2.981,0,0,0-.7.27l1.73,2.16a.331.331,0,0,1-.05.46l-.02.02a.338.338,0,0,1-.12.06.365.365,0,0,1-.38-.12l-1.74-2.16a2.584,2.584,0,0,0-.77,2.66Zm-7.9,1.62,2.13-.54a2.835,2.835,0,0,0-1.5-1.45Zm.85-2.67a3.583,3.583,0,0,1,2.02,1.95l.99-.25-2.54-3.16Zm.97-1.96,2.23,2.83,2.07-3.92Zm-11.58,5.37a.34.34,0,0,1,0-.68h4.09a.34.34,0,0,1,0,.68h-4.09Zm2.14-1.58a.341.341,0,0,1-.04-.68h2.39a.341.341,0,0,1,.04.68h-2.39Z" fill="#47b277"/>
  </g>
</svg>
