<svg width="36" height="37" viewBox="0 0 36 37" fill="none" xmlns="http://www.w3.org/2000/svg">
<path fill-rule="evenodd" clip-rule="evenodd" d="M30.0232 2.15792C27.5695 1.95856 23.6761 1.75 18.125 1.75C12.5739 1.75 8.68048 1.95856 6.22678 2.15792C3.76089 2.35826 1.85827 4.26088 1.65792 6.72677C1.45856 9.18047 1.25 13.0739 1.25 18.625C1.25 24.1761 1.45855 28.0695 1.65792 30.5232C1.85826 32.9891 3.76089 34.8918 6.22678 35.0921C8.68048 35.2914 12.5739 35.5 18.125 35.5C23.6761 35.5 27.5695 35.2914 30.0232 35.0921C32.4891 34.8918 34.3918 32.9891 34.5921 30.5232C34.7914 28.0695 35 24.1761 35 18.625C35 13.0739 34.7914 9.18047 34.5921 6.72678C34.3918 4.26089 32.4891 2.35827 30.0232 2.15792ZM15.2422 25.9898C15.2758 26.7559 15.7453 27.4076 16.5041 27.5184C16.9209 27.5792 17.4564 27.625 18.125 27.625C18.7936 27.625 19.3291 27.5792 19.7459 27.5184C20.5047 27.4076 20.9742 26.7559 21.0079 25.9898C21.0459 25.1245 21.089 23.7336 21.1108 21.6108C23.2336 21.589 24.6245 21.5459 25.4898 21.5079C26.2559 21.4742 26.9076 21.0047 27.0184 20.2459C27.0792 19.8291 27.125 19.2936 27.125 18.625C27.125 17.9564 27.0792 17.4209 27.0184 17.0041C26.9076 16.2453 26.2559 15.7758 25.4898 15.7422C24.6245 15.7041 23.2336 15.661 21.1108 15.6392C21.089 13.5164 21.0459 12.1255 21.0079 11.2602C20.9742 10.4941 20.5047 9.84243 19.7459 9.73158C19.3291 9.67075 18.7936 9.625 18.125 9.625C17.4564 9.625 16.9209 9.67075 16.5041 9.73158C15.7453 9.84243 15.2758 10.4941 15.2422 11.2602C15.2041 12.1255 15.161 13.5164 15.1392 15.6392C13.0164 15.661 11.6255 15.7041 10.7602 15.7422C9.9941 15.7758 9.34243 16.2453 9.23158 17.0041C9.17075 17.4209 9.125 17.9564 9.125 18.625C9.125 19.2936 9.17075 19.8291 9.23158 20.2459C9.34243 21.0047 9.9941 21.4742 10.7602 21.5079C11.6255 21.5459 13.0164 21.589 15.1392 21.6108C15.161 23.7336 15.2041 25.1245 15.2422 25.9898Z" fill="#F25D1D"/>
</svg>
