<svg width="36" height="36" viewBox="0 0 36 36" fill="none" xmlns="http://www.w3.org/2000/svg">
<path fill-rule="evenodd" clip-rule="evenodd" d="M30.0232 1.40792C27.5695 1.20856 23.6761 1 18.125 1C12.5739 1 8.68048 1.20856 6.22678 1.40792C3.76089 1.60826 1.85827 3.51088 1.65792 5.97677C1.45856 8.43047 1.25 12.3239 1.25 17.875C1.25 23.4261 1.45855 27.3195 1.65792 29.7732C1.85826 32.2391 3.76089 34.1418 6.22678 34.3421C8.68048 34.5414 12.5739 34.75 18.125 34.75C23.6761 34.75 27.5695 34.5414 30.0232 34.3421C32.4891 34.1418 34.3918 32.2391 34.5921 29.7732C34.7914 27.3195 35 23.4261 35 17.875C35 12.3239 34.7914 8.43047 34.5921 5.97678C34.3918 3.51089 32.4891 1.60827 30.0232 1.40792ZM9.23158 16.2541C9.34243 15.4953 9.9941 15.0258 10.7602 14.9922C11.9794 14.9384 14.242 14.875 18.125 14.875C22.0081 14.875 24.2706 14.9384 25.4898 14.9922C26.2559 15.0258 26.9076 15.4953 27.0184 16.2541C27.0792 16.6709 27.125 17.2064 27.125 17.875C27.125 18.5436 27.0792 19.0791 27.0184 19.4959C26.9076 20.2547 26.2559 20.7242 25.4898 20.7579C24.2706 20.8116 22.0081 20.875 18.125 20.875C14.242 20.875 11.9794 20.8116 10.7602 20.7579C9.9941 20.7242 9.34243 20.2547 9.23158 19.4959C9.17075 19.0791 9.125 18.5436 9.125 17.875C9.125 17.2064 9.17075 16.6709 9.23158 16.2541Z" fill="#F25D1D"/>
</svg>
