<svg width="66" height="66" viewBox="0 0 66 66" fill="none" xmlns="http://www.w3.org/2000/svg">
<path d="M39.875 30.25C39.875 35.5658 35.5658 39.875 30.25 39.875C24.9342 39.875 20.625 35.5658 20.625 30.25C20.625 24.9342 24.9342 20.625 30.25 20.625C35.5658 20.625 39.875 24.9342 39.875 30.25Z" fill="#F25D1D"/>
<path fill-rule="evenodd" clip-rule="evenodd" d="M54.8134 2.81035C50.315 2.44486 43.1769 2.0625 33 2.0625C22.8231 2.0625 15.685 2.44486 11.1866 2.81035C6.66579 3.17765 3.17767 6.66578 2.81035 11.1866C2.44486 15.685 2.0625 22.8231 2.0625 33C2.0625 43.1769 2.44485 50.315 2.81035 54.8134C3.17765 59.3343 6.66579 62.8224 11.1866 63.1896C15.685 63.5551 22.8231 63.9375 33 63.9375C43.1769 63.9375 50.315 63.5551 54.8134 63.1896C59.3341 62.8224 62.8224 59.3343 63.1896 54.8134C63.5551 50.315 63.9375 43.1769 63.9375 33C63.9375 22.8231 63.5551 15.685 63.1896 11.1866C62.8224 6.66579 59.3341 3.17767 54.8134 2.81035ZM44.441 38.6734C45.9077 36.2076 46.75 33.3272 46.75 30.25C46.75 21.1373 39.3627 13.75 30.25 13.75C21.1373 13.75 13.75 21.1373 13.75 30.25C13.75 39.3627 21.1373 46.75 30.25 46.75C33.373 46.75 36.2933 45.8824 38.7831 44.3751L39.149 44.8163C40.5234 46.4744 41.8769 48.1074 43.3814 49.7181C44.8682 51.3099 47.1184 51.5074 48.6926 50.0017C48.9132 49.7908 49.1487 49.5608 49.3996 49.3097C49.6506 49.0588 49.8807 48.8234 50.0917 48.6028C51.5972 47.0286 51.3997 44.7784 49.8079 43.2915C48.1972 41.7869 46.5644 40.4335 44.9061 39.0591L44.441 38.6734Z" fill="#F25D1D"/>
</svg>
