<svg width="397" height="469" viewBox="0 0 397 469" fill="none" xmlns="http://www.w3.org/2000/svg">
<g clip-path="url(#clip0_532_11836)">
<path d="M252.78 88.7963C253.341 77.5027 243.484 77.671 223.208 89.2949C222.46 96.9299 222.154 104.241 222.304 111.234C222.323 112.113 222.341 112.985 222.366 113.851C224.437 152.787 240.521 181.189 270.623 199.052C276.443 194.003 281.709 188.375 286.407 182.161C290.168 177.156 293.475 171.909 296.326 166.424C270.361 154.407 255.843 128.536 252.78 88.7963ZM240.178 173.373C240.427 173.716 240.446 173.591 240.24 172.999C240.221 173.118 240.196 173.242 240.178 173.373Z" fill="#BFD2B6"/>
<path d="M325.523 184.935C325.754 184.81 325.91 184.623 325.991 184.374C326.054 184.125 326.035 183.888 325.929 183.657C322.834 177.506 315.803 174.071 304.842 173.342C302.696 173.211 300.4 173.18 297.948 173.249C297.886 173.249 297.836 173.261 297.792 173.28C297.218 173.405 296.657 173.529 296.108 173.654C295.821 173.716 295.54 173.779 295.266 173.841C294.997 173.884 294.798 174.015 294.673 174.246C294.529 174.452 294.486 174.695 294.548 174.963C294.592 175.212 294.723 175.411 294.954 175.555C295.16 175.679 295.403 175.723 295.671 175.679C295.815 175.648 295.964 175.617 296.108 175.586C296.775 175.43 297.455 175.274 298.135 175.119C300.525 175.056 302.758 175.1 304.842 175.243C314.868 175.947 321.35 179.045 324.276 184.53C324.382 184.76 324.556 184.916 324.806 184.997C325.055 185.06 325.293 185.041 325.523 184.935ZM313.701 193.037C313.844 192.832 313.901 192.601 313.857 192.352C313.795 191.772 313.345 191.199 312.516 190.638C312.472 190.619 312.441 190.594 312.422 190.575C310.32 189.497 306.714 188.905 301.598 188.799C297.125 188.675 293.893 188.02 291.897 186.836H291.928C290.824 186.107 289.776 185.091 288.777 183.782C288.609 183.576 288.403 183.458 288.153 183.439C287.904 183.395 287.673 183.452 287.467 183.595C287.261 183.763 287.143 183.969 287.124 184.218C287.08 184.467 287.137 184.698 287.28 184.904C288.403 186.418 289.607 187.584 290.898 188.394V188.425C293.063 189.796 296.607 190.544 301.535 190.669H301.567C306.289 190.775 309.627 191.305 311.58 192.258C311.786 192.427 311.935 192.557 312.017 192.663C312.06 192.913 312.185 193.118 312.391 193.287C312.597 193.43 312.84 193.486 313.108 193.442C313.358 193.38 313.557 193.243 313.701 193.037ZM312.391 185.402C312.472 185.633 312.64 185.795 312.89 185.901C315.304 186.88 316.677 188.195 317.007 189.859C317.026 190.108 317.151 190.307 317.382 190.451C317.569 190.594 317.8 190.656 318.068 190.638C318.318 190.594 318.517 190.47 318.661 190.264C318.804 190.058 318.867 189.828 318.848 189.578C318.536 187.272 316.789 185.465 313.607 184.156C313.358 184.05 313.121 184.062 312.89 184.187C312.64 184.268 312.466 184.436 312.36 184.686C312.254 184.916 312.266 185.153 312.391 185.402ZM321.468 187.833C321.718 187.789 321.924 187.677 322.092 187.49C322.236 187.285 322.298 187.054 322.279 186.805C322.073 184.517 320.283 182.897 316.914 181.943C316.664 181.881 316.434 181.912 316.228 182.037C315.997 182.161 315.841 182.348 315.76 182.598C315.697 182.847 315.729 183.084 315.853 183.314C315.978 183.52 316.165 183.67 316.415 183.751C318.829 184.418 320.158 185.508 320.408 187.023C320.451 187.272 320.576 187.478 320.782 187.646C320.969 187.789 321.2 187.852 321.468 187.833Z" fill="#0A244B"/>
<path d="M211.074 206.936C210.188 207.603 209.315 208.313 208.454 209.055C204.711 212.296 201.61 216.048 199.158 220.305C195.895 225.977 193.886 232.428 193.138 239.657C192.433 246.264 192.795 253.107 194.23 260.194C194.548 261.708 194.916 263.204 195.321 264.681C206.464 271.581 218.055 277.583 230.102 282.694C218.311 302.059 206.414 321.193 194.417 340.096C199.314 343.556 204.299 346.803 209.358 349.851C222.148 338.626 232.236 329.289 239.616 321.835C251.389 309.912 261.059 298.294 268.626 286.994C271.577 282.65 273.729 278.786 275.083 275.402C276.874 270.895 277.529 266.657 277.048 262.687C276.549 258.449 274.752 254.242 271.652 250.066C269.362 246.993 266.05 243.584 261.701 239.844C246.223 226.531 229.347 215.562 211.074 206.936Z" fill="#0A244B"/>
<path d="M138.144 367.894C137.8 367.707 137.451 367.657 137.083 367.738C137.039 367.744 136.996 367.757 136.958 367.769L78.5327 384.94L123.389 337.697C123.695 337.398 123.838 337.036 123.826 336.606C123.813 336.176 123.651 335.815 123.327 335.515C123.027 335.216 122.659 335.073 122.235 335.079C121.861 335.085 121.53 335.204 121.237 335.422C121.205 335.472 121.162 335.515 121.112 335.547L76.7235 382.322L95.502 318.438L95.5332 318.407C95.658 317.995 95.6143 317.603 95.4084 317.223C95.1963 316.842 94.8844 316.593 94.4726 316.475C94.0608 316.35 93.6678 316.394 93.2873 316.599C92.9067 316.811 92.6571 317.123 92.5386 317.534L73.7601 381.388L61.8754 317.503C61.8691 317.453 61.8567 317.397 61.8442 317.347C61.7444 316.998 61.5385 316.718 61.2203 316.506C60.8772 316.263 60.4904 316.175 60.0662 316.256C59.6482 316.331 59.3113 316.537 59.068 316.88C58.8246 317.247 58.7373 317.64 58.8184 318.064L70.7967 382.572L31.3057 335.609C31.287 335.571 31.2558 335.528 31.2121 335.484C30.9563 335.229 30.6319 335.085 30.2451 335.048C29.8271 335.017 29.4528 335.141 29.1222 335.422C28.7915 335.696 28.6044 336.039 28.5607 336.45C28.5233 336.887 28.6356 337.273 28.9038 337.603L68.8315 385.065L12.0593 367.8C11.66 367.676 11.267 367.719 10.874 367.925C10.4996 368.131 10.2501 368.43 10.1253 368.829C10.0005 369.246 10.0442 369.645 10.2501 370.013C10.456 370.406 10.7554 370.667 11.1547 370.792H11.1859L67.9581 388.057L9.03354 405.414C8.62178 405.533 8.30985 405.782 8.09773 406.162C7.89186 406.543 7.84819 406.935 7.97296 407.347C8.09149 407.758 8.34104 408.07 8.7216 408.281C9.06473 408.468 9.4141 408.518 9.78218 408.437C9.82586 408.431 9.86953 408.419 9.90696 408.406L68.2701 391.235L23.4761 438.479C23.1892 438.809 23.0581 439.183 23.0706 439.6C23.0831 440.043 23.2391 440.404 23.5385 440.691C23.8629 440.997 24.2373 441.14 24.6615 441.127C25.0421 441.115 25.3602 440.99 25.6285 440.753C25.6784 440.722 25.7221 440.685 25.7533 440.629L70.0793 393.853L51.3008 457.769V457.8C51.176 458.211 51.2197 458.604 51.4255 458.984C51.6377 459.364 51.9496 459.613 52.3614 459.732C52.7731 459.857 53.1661 459.813 53.5467 459.607C53.921 459.395 54.1706 459.084 54.2953 458.672L73.0739 394.725L84.9898 458.672C85.0023 458.728 85.0085 458.778 85.021 458.828C85.127 459.177 85.3329 459.458 85.6448 459.67C85.9942 459.913 86.381 460 86.799 459.919C87.2232 459.838 87.5539 459.62 87.7972 459.264C88.0405 458.915 88.1278 458.529 88.0467 458.111L76.006 393.604L115.528 440.567C115.572 440.604 115.603 440.635 115.622 440.66C115.896 440.934 116.221 441.09 116.589 441.127C117.026 441.159 117.412 441.034 117.743 440.753C118.074 440.479 118.261 440.124 118.304 439.694C118.342 439.276 118.217 438.902 117.93 438.572L78.0024 391.111L134.743 408.375C135.161 408.5 135.561 408.456 135.929 408.25C136.322 408.045 136.584 407.733 136.709 407.315C136.833 406.916 136.79 406.524 136.584 406.131C136.378 405.757 136.066 405.508 135.648 405.383L78.8758 388.088L137.832 370.761C138.243 370.643 138.555 370.393 138.767 370.013C138.973 369.633 139.017 369.24 138.892 368.829C138.774 368.417 138.524 368.106 138.144 367.894Z" fill="#BFD2B6"/>
<path d="M145.661 369.421C145.568 368.848 145.462 368.262 145.349 367.676C145.243 367.134 145.125 366.604 145.006 366.087V365.993C143.696 360.022 141.712 354.139 139.048 348.355L139.017 348.323C136.359 342.602 133.259 337.479 129.722 332.96C129.304 332.424 128.892 331.907 128.474 331.402C128.143 331.015 127.806 330.623 127.476 330.218L127.382 330.124C119.559 321.081 109.795 314.624 98.0913 310.741C97.4986 310.554 96.9059 310.367 96.3132 310.18C95.8141 310.043 95.315 309.899 94.8159 309.743L94.6912 309.712C82.8376 306.428 71.1713 306.365 59.692 309.525L59.5673 309.556C59.0682 309.712 58.5691 309.856 58.07 309.993C57.4648 310.18 56.8659 310.373 56.2608 310.585H56.2296C50.8019 312.417 45.4179 314.973 40.0713 318.251L39.9777 318.313C34.7247 321.629 29.9521 325.387 25.6599 329.594C25.1733 330.062 24.6929 330.542 24.225 331.028L24.381 330.872C23.8944 331.358 23.4265 331.857 22.9773 332.368L22.9461 332.399V332.43C14.6174 341.449 8.4286 352.387 4.38592 365.245C4.38592 365.295 4.36721 365.332 4.35473 365.37C4.17381 365.924 3.99288 366.479 3.82444 367.021C3.64975 367.645 3.48131 368.28 3.32534 368.922C-0.23072 381.961 -0.935693 394.57 1.20418 406.754L1.17299 406.692C1.27905 407.291 1.39758 407.889 1.51612 408.5C1.62218 409.042 1.72823 409.572 1.82805 410.089L1.85925 410.151C3.16314 416.147 5.14081 422.006 7.78602 427.727C7.79849 427.746 7.81097 427.759 7.81721 427.759C10.4874 433.586 13.6379 438.79 17.2688 443.371L17.3 443.402C17.6744 443.882 18.0487 444.337 18.423 444.774C18.8098 445.26 19.2028 445.727 19.6084 446.176L19.5148 446.051C27.3132 455.126 37.0643 461.602 48.7743 465.466C49.3483 465.659 49.9347 465.834 50.5211 465.996C51.0202 466.152 51.5193 466.295 52.0184 466.432L52.112 466.463C64.0092 469.798 75.7068 469.848 87.2047 466.619L87.2983 466.588C87.7974 466.451 88.2965 466.307 88.7956 466.152C89.3883 465.99 89.9809 465.803 90.5736 465.591H90.636C96.0824 463.746 101.479 461.147 106.825 457.8V457.831C112.172 454.515 117.007 450.726 121.33 446.456L121.393 446.425C121.811 446.001 122.216 445.578 122.609 445.148L122.485 445.303C122.915 444.873 123.327 444.437 123.732 443.995L123.795 443.932C132.211 434.851 138.449 423.801 142.511 410.775C142.523 410.737 142.536 410.694 142.542 410.65C142.698 410.151 142.841 409.653 142.979 409.154C143.135 408.655 143.278 408.157 143.415 407.658L143.447 407.534C147.065 394.451 147.808 381.787 145.661 369.546C145.661 369.508 145.661 369.471 145.661 369.421ZM127.85 403.108C127.713 403.607 127.569 404.106 127.413 404.604C127.276 405.103 127.132 405.601 126.976 406.1C123.689 416.627 118.654 425.583 111.879 432.963L111.941 432.869C111.635 433.193 111.324 433.517 111.005 433.835C110.955 433.904 110.906 433.954 110.849 433.991C110.562 434.303 110.257 434.602 109.945 434.895C109.945 434.92 109.932 434.945 109.914 434.957C106.439 438.366 102.558 441.402 98.2784 444.057H98.2472C94.0049 446.712 89.7189 448.781 85.3955 450.258L85.4579 450.227C85.0524 450.371 84.6469 450.495 84.2413 450.601C83.7422 450.757 83.2432 450.9 82.7441 451.037L82.8376 451.006C74.2033 453.406 65.4192 453.356 56.4791 450.85L56.5727 450.882C56.0736 450.744 55.5745 450.601 55.0754 450.445C54.7073 450.352 54.3455 450.233 53.9836 450.103L53.8589 450.071C45.0436 447.167 37.6881 442.305 31.805 435.487C31.7614 435.456 31.7302 435.418 31.7115 435.362C31.4557 435.088 31.2061 434.801 30.9628 434.49C30.9191 434.452 30.8755 434.402 30.838 434.334C30.5448 433.997 30.2578 433.648 29.9646 433.274L29.9958 433.337C27.1447 429.703 24.6555 425.577 22.5406 420.965V420.934C20.3944 416.322 18.7786 411.61 17.7056 406.786C17.7056 406.761 17.7056 406.73 17.7056 406.692C17.612 406.25 17.5184 405.795 17.4248 405.321C17.3375 404.891 17.2564 404.467 17.1753 404.043V403.981C15.4659 393.996 16.0773 383.663 19.0157 372.974C19.0531 372.874 19.0843 372.78 19.1093 372.693C19.2028 372.319 19.2964 371.945 19.39 371.571C19.5148 371.166 19.6396 370.761 19.7643 370.356C19.7893 370.3 19.808 370.25 19.8267 370.2C23.127 359.648 28.1928 350.661 35.018 343.244C35.0991 343.157 35.1802 343.063 35.2675 342.963C35.4547 342.758 35.6481 342.546 35.8602 342.34C35.9101 342.272 35.96 342.209 36.0162 342.153C36.2158 341.954 36.4279 341.761 36.64 341.561C36.7523 341.461 36.8521 341.368 36.952 341.281C40.4519 337.821 44.3511 334.736 48.6495 332.025L48.556 332.056C52.817 329.451 57.1092 327.419 61.4389 325.948C61.5262 325.923 61.6073 325.892 61.6884 325.855C62.0066 325.749 62.3185 325.643 62.6242 325.543C63.1233 325.406 63.6224 325.263 64.1215 325.107C72.6935 322.801 81.409 322.863 90.2617 325.294C90.2991 325.313 90.3303 325.325 90.3553 325.325C90.8294 325.468 91.2973 325.606 91.759 325.73C92.1645 325.855 92.57 325.979 92.9755 326.104V326.135C101.778 329.052 109.14 333.895 115.061 340.657C115.085 340.701 115.104 340.732 115.123 340.751C115.441 341.125 115.753 341.486 116.059 341.842C116.308 342.147 116.558 342.459 116.807 342.776L116.87 342.87C119.715 346.491 122.198 350.598 124.325 355.179V355.117C126.471 359.798 128.074 364.553 129.129 369.39C129.141 369.415 129.154 369.44 129.16 369.452C129.254 369.913 129.347 370.381 129.441 370.854C129.528 371.272 129.603 371.683 129.659 372.101L129.69 372.194C131.393 382.16 130.782 392.469 127.85 403.108Z" fill="#0A244B"/>
<path d="M389.033 368.829C388.915 368.417 388.665 368.106 388.285 367.894C387.942 367.707 387.592 367.657 387.224 367.738C387.18 367.744 387.137 367.757 387.099 367.769L328.674 384.94L373.53 337.697C373.836 337.398 373.979 337.036 373.967 336.606C373.954 336.176 373.792 335.815 373.468 335.515C373.168 335.216 372.8 335.073 372.376 335.079C372.002 335.085 371.671 335.204 371.378 335.422C371.347 335.472 371.303 335.515 371.253 335.547L326.865 382.291L345.643 318.438L345.674 318.407C345.799 317.995 345.755 317.603 345.55 317.223C345.337 316.842 345.025 316.593 344.614 316.475C344.202 316.35 343.809 316.394 343.428 316.599C343.048 316.811 342.798 317.123 342.68 317.534L323.901 381.388L312.016 317.503C312.01 317.453 311.998 317.397 311.985 317.347C311.885 316.998 311.68 316.718 311.361 316.506C311.018 316.263 310.632 316.175 310.207 316.256C309.789 316.331 309.452 316.537 309.209 316.88C308.966 317.247 308.878 317.64 308.96 318.064L320.938 382.541L281.447 335.609C281.428 335.571 281.397 335.528 281.353 335.484C281.097 335.229 280.773 335.085 280.386 335.048C279.968 335.017 279.594 335.141 279.263 335.422C278.933 335.696 278.745 336.039 278.702 336.45C278.664 336.887 278.777 337.273 279.045 337.603L318.973 385.034L262.2 367.8C261.801 367.676 261.408 367.719 261.015 367.925C260.641 368.131 260.391 368.43 260.266 368.829C260.142 369.246 260.185 369.645 260.391 370.013C260.597 370.406 260.897 370.667 261.296 370.792H261.327L318.099 388.057L259.175 405.414C258.763 405.533 258.451 405.782 258.239 406.162C258.033 406.543 257.989 406.935 258.114 407.347C258.233 407.758 258.482 408.07 258.863 408.281C259.206 408.468 259.555 408.518 259.923 408.437C259.967 408.431 260.011 408.419 260.048 408.406L318.411 391.204L273.617 438.479C273.33 438.809 273.199 439.183 273.212 439.6C273.224 440.043 273.38 440.404 273.68 440.691C274.004 440.997 274.378 441.14 274.803 441.127C275.183 441.115 275.501 440.99 275.77 440.753C275.82 440.722 275.863 440.685 275.894 440.629L320.22 393.853L301.442 457.769V457.8C301.317 458.211 301.361 458.604 301.567 458.984C301.779 459.364 302.091 459.613 302.502 459.732C302.914 459.857 303.307 459.813 303.688 459.607C304.062 459.395 304.312 459.084 304.436 458.672L323.215 394.757L335.131 458.672C335.143 458.728 335.15 458.778 335.162 458.828C335.268 459.177 335.474 459.458 335.786 459.67C336.135 459.913 336.522 460 336.94 459.919C337.364 459.838 337.695 459.62 337.938 459.264C338.182 458.915 338.269 458.529 338.188 458.111L326.147 393.604L365.669 440.567C365.713 440.604 365.744 440.635 365.763 440.66C366.037 440.934 366.362 441.09 366.73 441.127C367.167 441.159 367.553 441.034 367.884 440.753C368.215 440.479 368.402 440.124 368.446 439.694C368.483 439.276 368.358 438.902 368.071 438.572L328.144 391.111L384.885 408.375C385.303 408.5 385.702 408.456 386.07 408.25C386.463 408.045 386.725 407.733 386.85 407.315C386.975 406.916 386.931 406.524 386.725 406.131C386.519 405.757 386.207 405.508 385.789 405.383L329.017 388.088L387.973 370.761C388.384 370.643 388.696 370.393 388.909 370.013C389.114 369.633 389.158 369.24 389.033 368.829Z" fill="#BFD2B6"/>
<path d="M395.802 369.546C395.802 369.508 395.802 369.471 395.802 369.421C395.709 368.848 395.603 368.262 395.49 367.676C395.378 367.134 395.266 366.604 395.147 366.087V365.993C393.837 360.022 391.853 354.139 389.189 348.355L389.158 348.323C386.5 342.602 383.4 337.479 379.862 332.96C379.444 332.424 379.033 331.907 378.615 331.402C378.284 331.015 377.947 330.623 377.616 330.218L377.523 330.124C369.7 321.081 359.936 314.624 348.232 310.741C347.639 310.554 347.047 310.367 346.454 310.18C345.955 310.043 345.456 309.899 344.957 309.743L344.832 309.712C332.978 306.428 321.312 306.365 309.833 309.525L309.708 309.556C309.209 309.712 308.71 309.856 308.211 309.993C307.562 310.192 306.907 310.41 306.246 310.647C300.862 312.467 295.515 315.004 290.212 318.251L290.119 318.313C284.866 321.629 280.093 325.387 275.801 329.594C275.314 330.062 274.834 330.542 274.366 331.028L274.522 330.872C274.073 331.321 273.648 331.776 273.243 332.243C273.205 332.293 273.168 332.337 273.118 332.368L273.087 332.43C264.758 341.449 258.569 352.387 254.527 365.245C254.527 365.289 254.508 365.332 254.496 365.37C254.315 365.924 254.134 366.473 253.965 367.021C253.791 367.645 253.622 368.28 253.466 368.922C249.91 381.961 249.205 394.57 251.345 406.754L251.314 406.692C251.42 407.291 251.538 407.889 251.657 408.5C251.763 409.042 251.869 409.572 251.969 410.089L252 410.151C253.304 416.147 255.282 422.006 257.927 427.727C257.939 427.746 257.952 427.759 257.958 427.759C260.628 433.586 263.779 438.79 267.41 443.371L267.441 443.402C267.815 443.882 268.19 444.337 268.564 444.774C268.951 445.26 269.344 445.727 269.749 446.176L269.656 446.051C277.454 455.126 287.205 461.602 298.915 465.466C299.489 465.659 300.076 465.834 300.662 465.996C301.161 466.152 301.66 466.295 302.159 466.432L302.253 466.463C314.15 469.798 325.848 469.848 337.346 466.619L337.439 466.588C337.938 466.451 338.437 466.307 338.936 466.152C339.529 465.99 340.122 465.803 340.715 465.591H340.777C346.223 463.746 351.62 461.147 356.966 457.8V457.831C362.313 454.515 367.148 450.726 371.471 446.456L371.534 446.425C371.952 446.001 372.357 445.578 372.75 445.148L372.625 445.303C373.056 444.873 373.468 444.437 373.873 443.995L373.936 443.932C382.352 434.851 388.59 423.801 392.652 410.775C392.664 410.737 392.677 410.694 392.683 410.65C392.839 410.151 392.982 409.653 393.12 409.154C393.276 408.655 393.419 408.157 393.556 407.658L393.588 407.534C397.206 394.451 397.948 381.787 395.802 369.546ZM377.991 403.108C377.854 403.607 377.71 404.106 377.554 404.604C377.417 405.103 377.273 405.601 377.117 406.1C373.83 416.627 368.795 425.583 362.02 432.963L362.082 432.869C361.776 433.193 361.464 433.517 361.146 433.835C361.096 433.904 361.046 433.954 360.99 433.991C360.703 434.303 360.398 434.602 360.086 434.895C360.086 434.92 360.073 434.945 360.054 434.957C356.58 438.366 352.699 441.402 348.419 444.057H348.388C344.146 446.712 339.86 448.781 335.536 450.258L335.599 450.227C335.193 450.371 334.788 450.495 334.382 450.601C333.883 450.757 333.384 450.9 332.885 451.037L332.978 451.006C324.344 453.406 315.56 453.356 306.62 450.85C306.152 450.726 305.684 450.595 305.216 450.445C304.848 450.352 304.486 450.233 304.124 450.103L304 450.071C295.184 447.167 287.829 442.305 281.946 435.487C281.902 435.456 281.871 435.418 281.852 435.362C281.597 435.088 281.347 434.801 281.104 434.49C281.06 434.452 281.016 434.402 280.979 434.334C280.686 433.997 280.399 433.648 280.105 433.274L280.137 433.337C277.286 429.703 274.796 425.577 272.681 420.965V420.934C270.535 416.322 268.919 411.61 267.846 406.786C267.846 406.761 267.846 406.73 267.846 406.692C267.753 406.25 267.659 405.795 267.566 405.321C267.478 404.891 267.397 404.467 267.316 404.043V403.981C265.607 393.996 266.218 383.663 269.157 372.974C269.194 372.874 269.225 372.78 269.25 372.693C269.344 372.319 269.437 371.945 269.531 371.571C269.656 371.166 269.78 370.761 269.905 370.356C269.93 370.3 269.949 370.25 269.968 370.2C273.268 359.648 278.334 350.661 285.159 343.244C285.24 343.157 285.321 343.063 285.408 342.963C285.596 342.758 285.789 342.546 286.001 342.34C286.051 342.272 286.101 342.209 286.157 342.153C286.357 341.954 286.569 341.761 286.781 341.561C286.893 341.461 286.993 341.368 287.093 341.281C290.593 337.821 294.492 334.736 298.79 332.025L298.697 332.056C302.958 329.451 307.25 327.419 311.58 325.948C311.667 325.923 311.748 325.892 311.829 325.855C312.147 325.749 312.459 325.643 312.765 325.543C313.264 325.406 313.763 325.263 314.262 325.107C322.834 322.801 331.55 322.863 340.403 325.294C340.44 325.313 340.471 325.325 340.496 325.325C340.97 325.468 341.438 325.606 341.9 325.73C342.305 325.855 342.711 325.979 343.116 326.104V326.135C351.919 329.052 359.281 333.895 365.201 340.657C365.226 340.701 365.245 340.732 365.264 340.751C365.582 341.125 365.894 341.486 366.2 341.842C366.449 342.147 366.699 342.459 366.948 342.776L367.011 342.87C369.856 346.491 372.338 350.598 374.466 355.179V355.117C376.612 359.798 378.215 364.553 379.27 369.39C379.282 369.415 379.295 369.44 379.301 369.452C379.394 369.913 379.488 370.381 379.582 370.854C379.669 371.272 379.738 371.683 379.8 372.101L379.831 372.194C381.534 382.16 380.923 392.469 377.991 403.108Z" fill="#0A244B"/>
<path d="M120.114 218.685C114.081 218.622 110.02 220.386 107.917 223.982C105.84 227.616 106.358 231.991 109.477 237.102C112.615 242.275 117.569 244.862 124.325 244.862C125.523 244.862 126.696 244.93 127.85 245.049C133.334 245.628 138.449 247.517 143.197 250.72C145.53 252.291 147.558 253.232 149.28 253.556C151.794 254.036 153.666 253.201 154.895 251.063C156.997 247.467 156.486 243.073 153.366 237.881C150.266 232.665 145.474 228.189 138.986 224.45C132.498 220.692 126.209 218.766 120.114 218.685Z" fill="#155C7E"/>
<path d="M342.087 182.816C340.384 181.114 338.325 180.26 335.911 180.26H297.262C295.503 180.26 293.881 180.753 292.396 181.725C290.936 182.722 289.869 184.031 289.183 185.651C288.515 187.291 288.347 188.973 288.684 190.7L295.702 225.759L188.459 354.338C188.178 354.637 187.916 354.949 187.679 355.273L185.433 357.953L149.28 253.556C147.558 253.232 145.53 252.291 143.197 250.72C138.449 247.517 133.334 245.628 127.85 245.049L169.462 365.183C170.267 367.464 171.752 369.128 173.923 370.169C174.247 370.337 174.572 370.487 174.89 370.605L171.365 374.843L73.0117 379.362C70.616 379.487 68.5947 380.428 66.9601 382.198C65.3443 383.993 64.5832 386.093 64.683 388.493C64.8015 390.886 65.7498 392.893 67.5216 394.507C69.3184 396.14 71.4208 396.901 73.8227 396.782L175.295 392.108L196.413 394.601C197.886 394.769 199.302 394.582 200.656 394.04C202.028 393.498 203.195 392.656 204.149 391.516L280.168 300.363L315.417 391.235C316.29 393.473 317.831 395.087 320.033 396.065C322.242 397.044 324.469 397.094 326.709 396.221C328.948 395.349 330.564 393.815 331.544 391.609C332.523 389.403 332.573 387.178 331.7 384.94L292.957 285.031L316.446 256.891C317.294 255.862 317.881 254.709 318.193 253.431C318.53 252.154 318.561 250.864 318.286 249.567L313.639 226.413V226.382L307.899 197.712H335.911C338.325 197.712 340.384 196.858 342.087 195.156C343.79 193.455 344.645 191.398 344.645 188.986C344.645 186.574 343.79 184.517 342.087 182.816Z" fill="#155C7E"/>
<path d="M343.678 185.029C342.574 182.878 340.883 181.426 338.593 180.666C336.31 179.937 334.095 180.124 331.949 181.227C329.797 182.33 328.343 184.025 327.582 186.306C321.038 205.914 306.345 214.908 283.506 213.294C281.129 213.138 279.026 213.842 277.204 215.413C275.383 217.008 274.385 219.003 274.21 221.396C274.035 223.789 274.734 225.896 276.3 227.722C277.897 229.548 279.893 230.546 282.289 230.714C314.624 232.983 335.262 219.969 344.208 191.666C344.957 189.385 344.782 187.173 343.678 185.029ZM191.828 329.19C181.74 329.19 173.13 332.742 165.999 339.847C158.887 346.971 155.331 355.572 155.331 365.651C155.331 375.729 158.887 384.317 165.999 391.423C169.649 395.069 173.679 397.78 178.103 399.556C182.326 401.258 186.899 402.112 191.828 402.112C201.916 402.112 210.513 398.546 217.625 391.423C224.756 384.317 228.324 375.729 228.324 365.651C228.324 355.572 224.756 346.971 217.625 339.847C210.513 332.742 201.916 329.19 191.828 329.19Z" fill="#BFD2B6"/>
<path d="M191.204 364.217C190.817 364.391 190.536 364.672 190.362 365.058L159.012 442.561L140.234 431.28C139.859 431.062 139.466 431 139.048 431.093C138.63 431.205 138.306 431.442 138.081 431.81C137.863 432.184 137.801 432.576 137.894 432.994C138.006 433.412 138.244 433.736 138.612 433.96L158.981 446.176C159.025 446.201 159.068 446.226 159.106 446.238L176.044 456.398C176.424 456.616 176.817 456.672 177.229 456.553C177.647 456.46 177.972 456.217 178.196 455.837C178.415 455.481 178.471 455.095 178.352 454.684C178.252 454.266 178.015 453.942 177.635 453.718L161.726 444.182L193.263 366.211C193.431 365.825 193.431 365.432 193.263 365.027C193.088 364.641 192.801 364.36 192.389 364.186C192.002 364.036 191.609 364.049 191.204 364.217Z" fill="#155C7E"/>
<path d="M141.731 132.705C139.572 133.833 137.395 134.949 135.211 136.04C122.06 142.622 108.784 148.811 95.3773 154.613L95.3461 154.582C95.2837 154.663 95.2213 154.744 95.1589 154.831C95.0466 155.068 95.0216 155.311 95.0965 155.548C98.3593 166.754 102.726 177.474 108.198 187.708C113.994 198.535 121.249 208.239 129.971 216.815C138.767 225.484 148.762 232.278 159.948 237.196H159.917C164.764 239.39 169.817 240.748 175.077 241.278C175.333 241.303 175.563 241.228 175.763 241.06C175.963 240.898 176.081 240.692 176.106 240.437C176.131 240.181 176.056 239.95 175.888 239.751C175.819 239.67 175.75 239.595 175.669 239.533C175.551 239.464 175.414 239.427 175.264 239.408C170.211 238.897 165.351 237.588 160.696 235.482C149.716 230.658 139.909 223.989 131.281 215.475C122.697 207.036 115.553 197.487 109.851 186.836C104.742 177.269 100.605 167.272 97.436 156.857C97.7355 157.162 98.0287 157.461 98.3094 157.761L105.422 165.115L120.8 179.481C122.603 181.002 124.412 182.51 126.228 184C126.571 184.293 126.914 184.573 127.257 184.841C133.365 189.871 139.697 194.695 146.254 199.301C159.031 208.282 172.257 216.21 185.932 223.079C191.447 225.852 197.031 228.451 202.683 230.87C205.771 232.203 208.866 233.481 211.979 234.703C213.127 235.145 214.268 235.581 215.41 236.011C232.423 199.233 243.534 166.517 248.756 137.878C253.354 111.552 254.028 85.437 250.783 59.5342C244.351 65.0251 237.788 70.379 231.1 75.5832C229.703 76.6677 228.299 77.7522 226.889 78.8242C226.708 78.9613 226.521 79.0984 226.328 79.2293C225.236 80.077 224.132 80.9184 223.021 81.7535C212.309 89.7812 201.286 97.4598 189.956 104.783C179.506 111.527 168.882 117.909 158.076 123.917C155.344 125.463 152.592 126.965 149.81 128.436C149.748 128.492 149.679 128.53 149.592 128.561C149.355 128.71 149.105 128.841 148.843 128.966C146.491 130.237 144.12 131.484 141.731 132.705Z" fill="#BFD2B6"/>
<path d="M98.3095 157.761C98.0287 157.461 97.7355 157.162 97.436 156.857C100.605 167.272 104.742 177.269 109.851 186.836C115.553 197.488 122.697 207.036 131.281 215.475C139.909 223.989 149.716 230.658 160.696 235.482C165.351 237.588 170.211 238.897 175.264 239.408C175.414 239.427 175.551 239.464 175.669 239.533L185.932 223.079C172.257 216.21 159.031 208.282 146.254 199.301C139.697 194.695 133.365 189.871 127.257 184.841C126.914 184.573 126.571 184.293 126.228 184C124.412 182.51 122.603 181.002 120.8 179.481L105.422 165.115L98.3095 157.761Z" fill="#0A244B"/>
<path d="M214.692 285.249C214 281.902 213.189 278.468 212.259 274.934C210.3 267.318 207.824 259.259 204.835 250.751C203.687 247.529 202.471 244.232 201.186 240.873L203.12 227.597C173.423 208.837 148.512 193.349 128.38 181.133C127.987 182.292 127.6 183.526 127.226 184.841C125.335 193.181 124.974 201.395 126.134 209.491C126.521 212.396 127.026 215.313 127.663 218.248C127.85 219.108 128.049 219.968 128.255 220.835C130.645 230.826 134.525 241.166 139.89 251.842C143.471 258.954 147.963 266.651 153.366 274.934C154.551 276.748 155.78 278.586 157.047 280.45C157.802 281.553 158.532 282.625 159.23 283.66C165.032 292.261 168.894 298.381 170.803 302.015C175.251 310.448 177.585 318.376 177.791 325.792C177.822 326.877 177.797 327.999 177.728 329.158C177.56 332.262 177.048 335.621 176.2 339.224C175.495 342.215 174.203 346.591 172.332 352.343C172.276 352.512 172.226 352.674 172.176 352.842C165.825 372.201 156.772 399.905 145.006 435.954L170.522 451.256C166.891 443.645 163.011 435.979 158.887 428.257C177.466 399.911 191.204 377.05 200.094 359.667C201.304 357.317 202.452 355.042 203.525 352.842C207.967 343.705 211.292 335.808 213.507 329.158C214.405 326.459 215.123 323.966 215.659 321.679C215.84 320.894 215.996 320.121 216.127 319.373C217.076 314.437 217.4 308.971 217.094 302.981C216.814 297.509 216.009 291.594 214.692 285.249ZM127.195 184.841H127.226L127.195 184.81C127.195 184.81 127.201 184.841 127.195 184.841Z" fill="#0A244B"/>
<path d="M96.0012 155.298C96.7685 156.134 97.5359 156.956 98.3095 157.76C97.5359 156.9 96.756 156.04 95.97 155.174C95.9824 155.217 95.9949 155.261 96.0012 155.298Z" fill="#BFD2B6"/>
<path d="M128.598 219.184C127.956 216.254 127.457 213.337 127.101 210.427C127.032 209.909 126.97 209.386 126.914 208.868C126.309 203.589 126.134 198.36 126.384 193.181C126.465 191.648 126.577 190.114 126.727 188.581C126.852 187.353 126.995 186.151 127.163 184.966" stroke="#BFD2B6" stroke-width="3" stroke-linecap="round" stroke-linejoin="round"/>
<path d="M211.355 274.934C209.377 267.312 206.894 259.259 203.9 250.783C202.758 247.542 201.541 244.239 200.25 240.873M214.724 321.679C214.911 320.888 215.079 320.134 215.223 319.404C216.159 314.437 216.471 308.965 216.159 302.981" stroke="#155C7E" stroke-width="3" stroke-linecap="round" stroke-linejoin="round"/>
<path d="M139.423 432.62L145.025 435.973M145.225 436.098L176.855 455.064" stroke="#155C7E" stroke-width="5" stroke-linecap="round" stroke-linejoin="round"/>
<path d="M204.305 53.6443C201.872 53.501 199.202 53.8313 196.288 54.6416C194.435 55.1402 191.859 56.0564 188.552 57.3839C174.497 63.0743 163.298 68.1352 154.957 72.5604C143.041 78.899 133.028 85.7861 124.918 93.2216C122.94 95.0104 121.405 96.6059 120.301 98.0207C118.822 99.9529 117.837 101.885 117.338 103.817C116.695 106.435 116.851 109.352 117.805 112.574C118.411 114.649 119.602 117.448 121.393 120.957C122.971 123.992 124.169 126.142 124.98 127.408C126.459 129.695 128.018 131.54 129.659 132.955C131.331 134.413 133.184 135.442 135.211 136.04C140.015 136.912 146.429 134.968 154.458 130.212C159.143 127.464 163.155 125.12 166.499 123.169C174.659 118.8 192.969 107.856 221.43 90.3234C225.055 87.9363 226.87 84.1033 226.889 78.8242C226.683 77.0292 226.371 75.3028 225.953 73.6511C225.592 72.2612 225.155 70.9212 224.643 69.6311C222.853 65.2246 220.17 61.5598 216.595 58.6304C212.79 55.4954 208.691 53.8313 204.305 53.6443ZM173.112 76.2377C172.637 76.4059 172.17 76.568 171.708 76.7363C171.739 76.73 171.77 76.7176 171.801 76.7051C172.251 76.5119 172.687 76.3561 173.112 76.2377Z" fill="#0A244B"/>
<path d="M171.708 76.7487C170.354 77.2535 169.019 77.7833 167.703 78.338C172.126 86.7832 176.73 94.7735 181.521 102.302M171.708 76.7487C172.17 76.5742 172.637 76.4059 173.112 76.2376M171.708 76.7487C171.739 76.73 171.77 76.7175 171.801 76.705C172.251 76.5118 172.687 76.356 173.112 76.2376M181.521 102.302C183.1 101.299 184.329 100.383 185.215 99.5477C186.818 98.0331 187.773 96.4189 188.084 94.7174C188.378 92.9909 188.01 91.0588 186.993 88.921C186.762 88.4411 185.695 86.6336 183.78 83.4986C182.389 81.1489 181.534 79.759 181.222 79.3227C180.118 77.8269 178.926 76.8297 177.635 76.3311C176.25 75.8075 174.746 75.7764 173.112 76.2376M181.521 102.302C181.172 102.527 180.816 102.751 180.442 102.976C175.844 105.737 171.989 107.962 168.869 109.645C164.608 111.951 160.615 113.883 156.891 115.441C154.813 116.295 153.01 116.924 151.494 117.342C149.498 117.859 147.626 118.108 145.88 118.09C143.883 118.046 142.03 117.622 140.327 116.812C138.474 115.921 137.083 114.705 136.147 113.166C135.211 111.651 134.756 109.894 134.775 107.899C134.793 106.073 135.224 104.272 136.054 102.508C137.283 99.8468 139.597 97.011 143.01 94.0006C150.459 87.4065 158.688 82.1835 167.703 78.3442" stroke="#155C7E" stroke-width="3" stroke-linecap="round" stroke-linejoin="round"/>
<path d="M149.81 128.436C149.748 128.492 149.679 128.53 149.592 128.561C149.355 128.71 149.105 128.841 148.843 128.966C146.491 130.237 144.12 131.484 141.731 132.705C139.572 133.833 137.395 134.949 135.212 136.04C122.104 142.597 108.866 148.767 95.5022 154.551C97.2865 156.601 98.2223 157.673 98.3096 157.761L105.422 165.115L120.8 179.481C122.603 181.002 124.412 182.51 126.228 184C126.571 184.293 126.914 184.573 127.257 184.841C133.365 189.871 139.697 194.695 146.254 199.301C159.031 208.282 172.257 216.21 185.932 223.079C191.447 225.852 197.031 228.451 202.683 230.87C205.771 232.203 208.866 233.481 211.979 234.703C213.127 235.145 214.268 235.581 215.41 236.011C232.423 199.233 243.534 166.517 248.756 137.878C253.354 111.552 254.028 85.437 250.784 59.5342C244.351 65.0251 237.788 70.379 231.1 75.5832C229.703 76.6677 228.299 77.7522 226.889 78.8242C226.708 78.9613 226.521 79.0984 226.328 79.2293C225.236 80.077 224.132 80.9184 223.021 81.7535C212.309 89.7812 201.286 97.4598 189.956 104.783C179.506 111.527 168.882 117.909 158.076 123.917C155.344 125.463 152.593 126.965 149.81 128.436Z" fill="#BFD2B6"/>
<path d="M144.757 127.514C146.466 127.832 148.157 128.143 149.822 128.449C150.066 128.498 150.315 128.542 150.559 128.592C176.387 133.204 203.382 135.248 231.537 134.731" stroke="#0A244B" stroke-width="3" stroke-linecap="round" stroke-linejoin="round"/>
<path d="M252.062 110.455C252.087 110.193 252.112 109.919 252.125 109.645C250.746 92.1993 242.636 82.1461 227.794 79.4785C223.932 81.1302 220.644 88.3039 217.937 101.012C215.959 113.434 215.086 125.089 215.316 135.977C215.628 150.001 217.781 162.759 221.774 174.246C223.645 179.581 225.91 184.629 228.574 189.391C230.046 192.028 231.637 194.577 233.346 197.026C233.296 197.388 233.234 197.743 233.159 198.086C235.187 200.89 237.37 203.57 239.71 206.126C246.872 213.935 254.845 219.825 263.635 223.795C269.456 218.753 274.715 213.125 279.419 206.905C283.194 201.9 286.5 196.652 289.339 191.167C283.381 188.014 277.922 183.751 272.962 178.391C267.266 172.22 262.681 165.103 259.206 157.044C255.849 149.234 253.529 140.558 252.25 131.022L251.563 117.186L252.062 110.455Z" fill="#BFD2B6"/>
<path d="M280.48 208.338C280.274 208.494 280.149 208.706 280.105 208.962C280.074 209.211 280.137 209.441 280.293 209.647C281.428 211.155 282.62 212.321 283.88 213.137H283.911C286.082 214.521 289.626 215.281 294.548 215.412C299.296 215.512 302.633 216.042 304.561 217.002C304.798 217.157 304.942 217.295 304.998 217.407C305.054 217.662 305.191 217.862 305.403 217.999C305.615 218.161 305.846 218.211 306.09 218.155C306.352 218.117 306.545 217.993 306.682 217.781C306.838 217.575 306.894 217.344 306.838 217.095C306.801 216.522 306.358 215.948 305.497 215.381C305.478 215.356 305.447 215.338 305.403 215.319C303.32 214.241 299.726 213.648 294.61 213.543C290.131 213.424 286.899 212.757 284.909 211.548V211.579C283.817 210.856 282.776 209.84 281.79 208.525C281.634 208.32 281.422 208.195 281.166 208.151C280.916 208.12 280.686 208.182 280.48 208.338ZM217.375 100.233C217.176 100.401 217.051 100.607 217.001 100.856C215.023 113.347 214.15 125.051 214.381 135.977C214.693 150.119 216.857 162.977 220.869 174.557C222.772 179.949 225.074 185.034 227.763 189.827C229.254 192.501 230.863 195.088 232.598 197.587C232.86 197.948 233.109 198.304 233.346 198.647C233.509 198.865 233.714 198.989 233.97 199.02C234.22 199.077 234.451 199.02 234.656 198.865C234.869 198.728 234.993 198.528 235.031 198.273C235.087 198.017 235.031 197.78 234.875 197.556C234.638 197.213 234.388 196.858 234.126 196.496V196.527C232.429 194.078 230.845 191.548 229.385 188.924C226.752 184.218 224.506 179.226 222.647 173.934C218.698 162.535 216.564 149.87 216.252 135.946C216.021 125.12 216.889 113.515 218.841 101.137C218.897 100.894 218.841 100.669 218.685 100.451C218.542 100.252 218.33 100.127 218.062 100.077C217.818 100.046 217.594 100.096 217.375 100.233ZM311.673 214.976C311.829 214.783 311.879 214.552 311.829 214.29C311.536 212.003 309.789 210.202 306.589 208.899C306.358 208.806 306.121 208.806 305.871 208.899C305.64 209.005 305.472 209.173 305.372 209.398C305.279 209.647 305.279 209.884 305.372 210.115C305.478 210.364 305.647 210.545 305.871 210.644C308.304 211.623 309.677 212.932 309.989 214.571C310.039 214.833 310.164 215.045 310.363 215.194C310.582 215.35 310.806 215.4 311.049 215.35C311.311 215.319 311.524 215.194 311.673 214.976ZM308.772 207.341C308.704 207.584 308.735 207.815 308.866 208.027C308.991 208.263 309.178 208.419 309.427 208.494C311.835 209.167 313.164 210.245 313.42 211.735C313.451 212.003 313.57 212.209 313.763 212.358C313.975 212.533 314.206 212.601 314.449 212.576C314.718 212.545 314.924 212.421 315.073 212.203C315.248 212.009 315.317 211.779 315.292 211.517C315.092 209.242 313.302 207.634 309.926 206.687C309.683 206.618 309.44 206.649 309.209 206.78C308.991 206.905 308.847 207.092 308.772 207.341ZM318.505 209.647C318.748 209.541 318.904 209.36 318.973 209.117C319.06 208.868 319.041 208.631 318.91 208.401C315.223 201.052 305.902 197.581 290.961 197.992C290.905 197.992 290.842 197.992 290.774 197.992C289.931 198.192 289.089 198.379 288.247 198.553C288.004 198.622 287.804 198.771 287.654 198.989C287.523 199.207 287.486 199.438 287.529 199.675C287.598 199.937 287.748 200.136 287.966 200.267C288.185 200.417 288.415 200.46 288.652 200.392C289.476 200.217 290.299 200.043 291.117 199.862C305.029 199.5 313.738 202.635 317.257 209.273C317.388 209.498 317.575 209.647 317.818 209.709C318.062 209.797 318.286 209.778 318.505 209.647Z" fill="#0A244B"/>
<path d="M289.339 191.167C283.381 188.014 277.922 183.751 272.962 178.391C267.266 172.22 262.681 165.103 259.206 157.044C258.532 155.479 257.902 153.878 257.315 152.245C253.978 142.353 252.156 132.188 251.844 121.736C251.701 116.937 251.607 112.15 251.582 107.37C251.227 102.932 250.141 98.6128 248.319 94.4057C248.132 93.9508 247.92 93.4895 247.683 93.0346C245.056 88.2292 241.332 84.633 236.497 82.2521C231.469 79.9959 226.272 78.8428 220.9 78.793" stroke="#0A244B" stroke-width="3" stroke-linecap="round" stroke-linejoin="round"/>
<path d="M272.931 29.9294C272.669 22.6247 272.045 17.6199 271.059 14.9087C266.73 17.1898 254.701 22.3068 234.968 30.2722L247.664 68.042C252.842 65.1313 257.222 61.9838 260.796 58.5995C269.387 50.4534 273.43 40.8988 272.931 29.9294Z" fill="#BFD2B6"/>
<path d="M254.308 38.0317C254.352 38.1376 254.383 38.2373 254.402 38.3433C254.776 39.4652 255.163 40.6681 255.556 41.9582C260.11 42.1016 261.495 39.3717 259.705 33.7623C259 31.5372 258.22 29.4119 257.365 27.3738C260.753 29.1003 264.353 30.0414 268.158 30.2097C269.861 30.272 271.452 30.1785 272.931 29.9292C275.302 29.5116 277.454 28.7014 279.388 27.4985C281.029 26.3953 282.37 25.0179 283.412 23.3538C284.472 21.5899 285.046 19.7576 285.127 17.8691C285.209 16.1676 284.828 14.6904 283.973 13.4439C283.368 12.4654 282.507 11.6987 281.384 11.1378C280.324 10.5769 279.182 10.2839 277.953 10.2652C276.705 10.2465 275.52 10.4709 274.397 10.9508C274.316 10.9695 274.228 11.0132 274.147 11.0755C272.344 12.0852 270.934 13.1385 269.905 14.223C268.876 15.3324 255.618 18.4051 230.133 23.4473L235.343 33.9181C237.482 38.5926 238.98 43.3606 239.834 48.222C240.022 49.4873 240.19 50.3598 240.334 50.8397C240.602 51.7746 241.02 52.5038 241.581 53.0212C241.912 53.3951 242.299 53.6756 242.735 53.8626C243.316 54.1306 243.971 54.2864 244.701 54.33C245.075 54.3736 245.449 54.3736 245.824 54.33C246.928 54.2864 247.932 54.0059 248.849 53.4886C251.364 52.1174 252.175 50.0793 251.283 47.3806C251.22 47.2123 251.17 47.0378 251.127 46.8508C251.002 46.5579 250.889 46.2899 250.783 46.0406C250.39 45.1244 249.848 44.3079 249.161 43.5787C248.144 42.5628 247.508 41.8772 247.259 41.5219C246.716 40.7304 246.354 39.889 246.167 38.9977C245.961 38.0192 245.992 37.1155 246.26 36.2865C246.51 35.3952 247.028 34.666 247.82 34.1051C248.569 33.5005 249.398 33.245 250.316 33.326C251.457 33.432 252.424 34.0303 253.217 35.1335C253.341 35.3392 253.479 35.5822 253.622 35.8502C253.853 36.5545 254.077 37.2837 254.308 38.0317Z" fill="#0A244B"/>
<path d="M260.797 58.5992C258.844 52.3229 257.097 46.7759 255.556 41.958C255.163 40.6679 254.776 39.465 254.402 38.3431C254.383 38.2372 254.352 38.1374 254.308 38.0315C254.077 37.2836 253.853 36.5543 253.622 35.8501C253.479 35.4574 253.354 35.0585 253.248 34.6659C252.83 33.3134 252.449 32.0668 252.094 30.9263" stroke="#0A244B" stroke-width="3" stroke-linecap="round" stroke-linejoin="round"/>
<path d="M253.591 0.0123798C252.967 -0.00631811 252.356 -8.54706e-05 251.751 0.043543C250.833 0.0622409 249.941 0.137033 249.068 0.261685C248.363 0.34271 247.683 0.467363 247.04 0.635644C246.959 0.635644 246.884 0.635644 246.822 0.635644C244.096 1.21528 241.488 2.20627 238.992 3.59615C238.431 3.90778 237.869 4.25058 237.308 4.62453C236.291 5.31013 235.299 6.04558 234.345 6.83712C233.053 7.89667 231.862 9.06841 230.757 10.3586C230.402 10.7325 230.059 11.1376 229.728 11.5739C229.148 12.3031 228.586 13.0573 228.043 13.8488C226.877 15.594 225.879 17.4201 225.049 19.3336C224.987 19.4769 224.924 19.6327 224.862 19.801C223.782 22.3751 222.99 25.0801 222.491 27.9034C222.16 30.0038 222.086 31.6119 222.273 32.7337C222.46 33.8556 224.506 35.2891 228.418 37.0343L275.458 15.9679C275.333 14.765 275.102 13.6494 274.771 12.6335C274.603 12.0912 274.397 11.5739 274.147 11.0753C273.605 9.97214 272.918 8.91259 272.089 7.89667C271.484 7.19238 270.829 6.55665 270.124 5.99572C269.394 5.35375 268.626 4.76789 267.815 4.25058C266.586 3.44033 265.301 2.75474 263.947 2.1938C261.907 1.30254 259.749 0.679272 257.459 0.324012C256.211 0.137033 254.92 0.0310777 253.591 0.0123798Z" fill="#155C7E"/>
<path d="M238.649 20.8604C238.662 20.6049 238.574 20.3743 238.4 20.1748C238.219 19.9941 238 19.9006 237.745 19.8944C237.489 19.8881 237.258 19.9692 237.058 20.1437C235.099 21.9823 233.496 24.0889 232.255 26.4698C232.148 26.7004 232.124 26.9372 232.192 27.1866C232.279 27.4296 232.435 27.6104 232.66 27.7163C232.891 27.8472 233.128 27.8659 233.378 27.7787C233.621 27.7163 233.802 27.5667 233.908 27.3424C235.056 25.1485 236.534 23.2101 238.337 21.5148C238.537 21.3341 238.643 21.116 238.649 20.8604ZM254.807 12.571C255.026 12.7268 255.25 12.7767 255.494 12.7268C256.28 12.6209 257.091 12.5274 257.927 12.4464C260.304 12.2407 262.643 12.2843 264.945 12.571C265.207 12.6146 265.432 12.5523 265.632 12.384C265.844 12.2407 265.956 12.0412 265.975 11.7919C266.018 11.5302 265.956 11.2933 265.788 11.0752C265.644 10.8882 265.444 10.7698 265.195 10.7324C262.756 10.4207 260.273 10.3647 257.74 10.5766C256.872 10.6638 256.03 10.7698 255.213 10.8882C254.97 10.9381 254.77 11.0627 254.62 11.2622C254.464 11.4803 254.402 11.7047 254.433 11.9477C254.483 12.2095 254.608 12.4214 254.807 12.571ZM254.433 4.00113C253.99 4.02606 253.684 4.04476 253.529 4.06345C253.273 4.10708 253.061 4.23173 252.905 4.43741C252.749 4.64309 252.686 4.8737 252.717 5.123C252.761 5.37854 252.886 5.59045 253.092 5.74627C253.298 5.90208 253.529 5.95194 253.778 5.90208C253.909 5.90208 254.159 5.88962 254.527 5.87092C257.889 5.7525 261.09 6.18878 264.134 7.17977C264.39 7.26703 264.627 7.24833 264.852 7.11745C265.095 7.01773 265.251 6.83698 265.32 6.58767C265.407 6.35083 265.388 6.11399 265.257 5.87092C265.157 5.65278 264.977 5.49696 264.727 5.40347C261.47 4.34392 258.052 3.87647 254.464 4.00113H254.433ZM240.958 16.8715C240.752 17.0273 240.627 17.2393 240.583 17.4948C240.552 17.7503 240.614 17.9747 240.77 18.1804C240.926 18.3861 241.138 18.4982 241.394 18.5232C241.644 18.573 241.875 18.5232 242.081 18.3674C243.752 17.1021 245.518 16.0426 247.383 15.1887H247.415C248.519 14.6652 249.661 14.2227 250.846 13.8487C251.089 13.7864 251.264 13.6368 251.376 13.4124C251.507 13.188 251.526 12.9512 251.439 12.6957C251.376 12.4588 251.226 12.2718 251.002 12.1347C250.771 12.0288 250.534 12.0038 250.284 12.0724C249.012 12.4713 247.789 12.945 246.604 13.5059V13.4747C244.62 14.3847 242.736 15.519 240.958 16.8715ZM236.715 12.1036C236.884 12.3092 237.09 12.4277 237.339 12.4464C237.607 12.4651 237.838 12.3965 238.025 12.2282C239.585 10.9194 241.282 9.79125 243.11 8.83142C244.894 7.92146 246.747 7.2234 248.662 6.74349C248.918 6.68116 249.105 6.53781 249.224 6.3072C249.367 6.09529 249.411 5.85222 249.349 5.59045C249.286 5.35361 249.143 5.16663 248.912 5.02951C248.694 4.90486 248.456 4.8737 248.194 4.93602C246.136 5.45333 244.152 6.20125 242.236 7.17977C240.284 8.19569 238.475 9.39859 236.809 10.7947C236.622 10.963 236.516 11.1687 236.497 11.418C236.478 11.686 236.547 11.9166 236.715 12.1036ZM232.972 15.1887C232.716 15.2323 232.51 15.357 232.348 15.5627C230.414 18.0931 228.961 20.8043 227.981 23.6963C227.906 23.9518 227.931 24.1887 228.043 24.413C228.162 24.6561 228.337 24.8119 228.574 24.8805C228.829 24.974 229.067 24.9615 229.291 24.8493C229.534 24.7309 229.69 24.5439 229.759 24.2884C230.676 21.5896 232.036 19.053 233.845 16.6846C233.995 16.4789 234.051 16.2545 234.001 15.999C233.976 15.7434 233.864 15.5315 233.658 15.3757C233.452 15.2199 233.228 15.1576 232.972 15.1887Z" fill="#0A244B"/>
</g>
<defs>
<clipPath id="clip0_532_11836">
<rect width="397" height="469" fill="white"/>
</clipPath>
</defs>
</svg>
