<svg width="270" height="254" viewBox="0 0 270 254" fill="none" xmlns="http://www.w3.org/2000/svg">
<path fill-rule="evenodd" clip-rule="evenodd" d="M150.077 51.9896C153.753 59.2876 166.01 61.2706 167.19 51.9896C168.371 42.7085 171.228 27.9806 173.554 18.8357C178.192 0.616174 178.818 -19.3311 189.243 -35.4229C191.96 -39.6166 196.147 -49.9125 203.299 -45.6976C206.018 -44.0954 206.187 -39.6464 206.568 -37.0293C207.837 -28.2908 206.427 -19.7843 204.278 -11.3437C200.421 3.82048 196.875 20.1102 191.858 34.8892C190.389 39.2191 186.629 51.9896 185.648 55.7578C184.059 61.857 194.308 64.5834 197.089 67.3154C197.089 67.3154 202.186 63.592 202.645 63.1409C207.467 58.4046 211.307 52.896 216.372 48.3725C219.705 45.3958 221.674 41.7511 224.545 38.4191C234.307 27.0869 248.205 15.3526 261.479 8.23971C265.993 5.82264 273.239 -0.362571 278.801 1.81833C284.778 4.16305 279.889 11.8738 279.081 13.3122C275.502 19.691 267.083 25.9656 260.879 32.9296C249.126 46.1256 239.426 52.9534 222.909 66.3516C219.513 69.1091 213.309 73.8816 213.309 78.5518C213.309 83.222 216.699 89.7882 216.699 102.31C216.699 104.083 220.65 101.771 221.276 101.667C226.262 100.852 231.294 100.446 236.311 99.7416C251.896 97.5543 267.776 96.7437 283.378 98.1374C290.141 98.7395 297.436 99.4267 300.701 105.842C301.66 107.729 299.02 111.246 297.939 111.599C292.121 113.504 282.436 112.721 276.447 113.636C266.444 115.161 249.671 117.563 235.003 119.006C230.001 119.497 225.658 119.71 220.949 121.253C220.204 121.495 216.915 122.219 216.699 122.857C216.307 124.012 209.919 138.439 213.309 142.046C216.699 145.653 235.077 163.606 243.827 170.054C254.898 178.209 263.426 189.514 271.61 200.233C273.923 203.261 279.473 210.582 273.245 212.112C266.212 213.838 255.903 204.469 251.346 200.554C242.79 193.2 205.26 155.605 197.089 153.358C193.391 152.341 188.219 154.504 186.629 155.285C182.165 157.477 189.35 172.122 190.225 174.869C195.984 192.975 201.549 212.921 204.278 231.696C205.106 237.381 205.26 242.949 205.26 248.713C205.26 250.813 204.861 253.911 201.991 253.207C196.142 251.77 193.671 243.789 190.879 239.402C176.744 217.187 179.642 191.38 173.554 167.486C172.718 164.202 158.846 165.879 158.846 165.879C158.846 165.879 158.846 170.607 158.846 171.337C158.846 176.611 157.982 181.535 157.54 186.748C156.943 193.79 141.775 259.553 131.718 249.675C127.539 245.57 127.708 235.972 128.776 230.734C131.948 215.157 134.707 199.491 137.601 183.858C138.606 178.424 138.801 172.83 139.888 167.486C140.01 166.896 140.543 163.311 140.543 163.311C140.543 163.311 133.347 160.373 130.41 159.136C127.65 157.975 125.467 154.924 123.874 153.358C123.874 153.358 122.399 155.37 122.239 155.605C121.167 157.183 120.108 158.564 118.97 160.1C115.403 164.92 112.024 169.939 108.185 174.547C96.772 188.248 83.5154 199.099 70.9238 211.47C67.6161 214.716 59.2224 225.295 53.2743 223.348C50.8634 222.559 51.6388 216.961 51.6388 215.323C51.6388 208.874 57.2729 200.156 61.7719 195.737C70.5728 187.092 77.929 175.894 87.592 168.126C95.6002 161.69 103.829 152.821 111.127 145.653C113.904 142.925 116.029 129.827 108.185 127.032C100.04 124.128 90.3063 128.957 82.0359 128.957C62.0037 128.957 41.7419 131.742 21.8959 130.242C16.5348 129.838 6.48184 130.366 1.95683 127.032C-1.66708 124.361 1.87886 120.323 4.89842 119.006C12.9975 115.47 20.1479 115.28 28.7604 114.51C36.931 113.78 45.1188 113.572 53.2743 112.906C62.1962 112.174 94.683 117.479 101.323 111.599C104.459 108.823 102.904 94.683 104.262 89.7882C104.262 89.7882 99.6226 87.8137 98.0522 86.5775C89.9747 80.2306 81.3536 74.0071 72.8841 67.958C59.6058 58.4706 47.7789 46.0767 33.9894 37.4574C27.8797 33.6372 19.9647 24.8135 15.3586 19.157C13.9831 17.4676 10.8942 12.9824 13.7232 11.1291C22.4158 5.43753 32.7286 12.8441 39.8725 17.2293C50.6857 23.8677 61.3127 30.8572 71.5779 38.4191C78.6915 43.6617 87.4988 48.281 93.8022 54.4726C98.4854 59.0727 103.173 63.6749 107.858 68.2772C108.768 69.1729 110.614 71.8048 113.087 73.0943C121.502 77.4825 133.026 59.2876 133.026 59.2876C133.026 59.2876 131.196 56.3365 130.41 54.7939C128.997 52.0172 127.897 49.047 126.816 46.1256C121.36 31.3891 115.056 14.7058 112.433 -0.749817C111.17 -8.19253 111.127 -15.914 111.127 -23.5439C111.127 -28.0483 110.828 -32.8505 116.683 -31.8909C124.572 -30.5994 131.326 -18.5672 134.005 -11.9862C138.101 -1.92858 139.232 8.64822 141.524 19.157C144.047 30.7253 145.452 42.8064 150.077 51.9896Z" fill="#C5E2E0" fill-opacity="0.2"/>
</svg>
