<svg width="66" height="66" viewBox="0 0 66 66" fill="none" xmlns="http://www.w3.org/2000/svg">
<path d="M2.64692 19.3183C5.60643 5.77375 22.0016 0.11573 32.3055 9.30622C32.5401 9.51424 32.7729 9.73723 33 9.96434C33.2271 9.73726 33.4599 9.51429 33.6945 9.30626C43.9982 0.115722 60.3936 5.77371 63.3531 19.3183C64.7013 25.143 63.6923 31.3981 60.5777 36.4651C55.3372 45.0022 46.922 51.5409 39.075 57.2678C35.46 59.9061 30.54 59.9061 26.9248 57.2678C19.078 51.541 10.6627 45.0022 5.42234 36.4651C4.61476 35.1513 3.94875 33.7578 3.42867 32.3125H20.625C21.2197 32.3125 21.7855 32.0558 22.1772 31.6082L25.0499 28.3251L31.1928 39.494C31.5736 40.1864 32.3166 40.6003 33.1057 40.5597C33.895 40.5193 34.5916 40.0315 34.8996 39.3037L40.8387 25.2655L44.2717 31.2733C44.639 31.9159 45.3223 32.3125 46.0625 32.3125H53.625C54.764 32.3125 55.6875 31.389 55.6875 30.25C55.6875 29.111 54.764 28.1875 53.625 28.1875H47.2594L42.3533 19.6017C41.9642 18.9208 41.2228 18.5196 40.44 18.5662C39.6572 18.6127 38.9686 19.0992 38.6629 19.8214L32.7576 33.7796L27.2447 23.756C26.9204 23.1664 26.3288 22.7721 25.6598 22.6995C24.9908 22.627 24.3284 22.8854 23.8853 23.3919L19.689 28.1875H2.36287C1.88771 25.2586 1.97187 22.2346 2.64692 19.3183Z" fill="white"/>
</svg>
