<svg width="67" height="66" viewBox="0 0 67 66" fill="none" xmlns="http://www.w3.org/2000/svg">
<path fill-rule="evenodd" clip-rule="evenodd" d="M11.6972 2.70361C16.1864 2.39063 23.3205 2.0625 33.5 2.0625C43.6795 2.0625 50.8136 2.39063 55.3028 2.70361C59.7932 3.01665 63.3629 6.40566 63.7618 10.9435C64.1045 14.8422 64.4375 20.7269 64.4375 28.875C64.4375 37.0231 64.1045 42.9078 63.7618 46.8065C63.3629 51.3443 59.7932 54.7334 55.3028 55.0463C50.9955 55.3466 44.2536 55.661 34.7232 55.6858L24.7371 64.2454C22.5073 66.1566 19.0625 64.5723 19.0625 61.6355V55.4341C16.0882 55.3207 13.6441 55.1822 11.6972 55.0463C7.20677 54.7334 3.63704 51.3443 3.23818 46.8065C2.8955 42.9078 2.5625 37.0231 2.5625 28.875C2.5625 20.7269 2.8955 14.8422 3.23818 10.9435C3.63704 6.40566 7.20677 3.01665 11.6972 2.70361ZM26.625 19.25C26.625 17.7312 25.3938 16.5 23.875 16.5C22.3562 16.5 21.125 17.7312 21.125 19.25V22C21.125 23.5188 22.3562 24.75 23.875 24.75C25.3938 24.75 26.625 23.5188 26.625 22V19.25ZM43.125 16.5C44.6438 16.5 45.875 17.7312 45.875 19.25V22C45.875 23.5188 44.6438 24.75 43.125 24.75C41.6062 24.75 40.375 23.5188 40.375 22V19.25C40.375 17.7312 41.6062 16.5 43.125 16.5ZM24.7991 34.2412C23.9659 32.9714 22.261 32.6176 20.9912 33.4509C19.7214 34.2841 19.3676 35.989 20.2009 37.2588C23.2202 41.8598 28.4854 44 33.5 44C38.5146 44 43.7798 41.8598 46.7991 37.2588C47.6324 35.989 47.2786 34.2841 46.0088 33.4509C44.739 32.6176 43.0341 32.9714 42.2009 34.2412C40.4077 36.9736 37.0791 38.5 33.5 38.5C29.9209 38.5 26.5923 36.9736 24.7991 34.2412Z" fill="#F25D1D"/>
</svg>
