<svg width="66" height="66" viewBox="0 0 66 66" fill="none" xmlns="http://www.w3.org/2000/svg">
<path d="M17.5668 39.875C16.7633 42.0768 15.9515 44.3692 15.1367 46.75H51.6155L50.5975 39.875H17.5668Z" fill="#87F0C9"/>
<path d="M19.1016 35.75H49.9867L46.7181 13.6756C47.249 13.9701 47.9268 14.3359 48.7051 14.7327C50.6133 15.7055 53.1473 16.8765 55.6029 17.6355C56.1489 17.8042 56.7202 17.8798 57.2954 17.8524C57.8737 17.8249 58.7236 17.7635 59.6303 17.6254C61.1988 17.3866 61.6561 15.5906 60.6725 14.5146C58.616 12.2646 54.346 7.88242 48.725 3.66616C47.9666 3.0973 47.0849 2.64769 46.0992 2.47213C45.0035 2.277 43.251 2.0625 40.8423 2.0625C39.526 2.0625 38.4055 2.12656 37.4811 2.21653C35.1776 2.44074 33.3476 3.91937 32.3092 5.88834C29.8732 10.5078 24.7938 20.7415 19.1016 35.75Z" fill="#87F0C9"/>
<path d="M13.0835 50.9307L13.17 50.875H52.8374L52.9239 50.9307C53.5798 51.3541 54.5084 51.9789 55.6067 52.7886C57.801 54.407 60.6812 56.7706 63.4139 59.7486C64.4706 60.9001 63.845 62.6985 62.2628 62.8851C58.7764 63.2962 50.5325 63.9375 33.0037 63.9375C15.4748 63.9375 7.231 63.2962 3.74464 62.8851C2.16248 62.6985 1.53677 60.9001 2.59347 59.7486C5.32617 56.7706 8.20637 54.407 10.4008 52.7886C11.4989 51.9789 12.4276 51.3541 13.0835 50.9307Z" fill="#87F0C9"/>
</svg>
