<svg width="502" height="453" viewBox="0 0 502 453" fill="none" xmlns="http://www.w3.org/2000/svg">
<g clip-path="url(#clip0_1_255)">
<path d="M392.693 289.702V431.907C392.693 433.264 394.803 433.264 394.803 431.907V289.702C394.803 288.345 392.693 288.345 392.693 289.702Z" fill="#BFD3B6"/>
<path d="M357.276 299.759C361.901 307.765 366.521 315.771 371.146 323.777C375.771 331.782 380.391 339.788 385.016 347.794C389.641 355.8 394.261 363.805 398.886 371.811C403.511 379.817 408.178 387.896 412.824 395.939C417.47 403.982 422.069 411.951 426.694 419.956L428.404 422.918C429.083 424.091 430.904 423.034 430.225 421.855C425.6 413.85 420.98 405.844 416.355 397.838C411.73 389.832 407.11 381.826 402.485 373.821C397.86 365.815 393.24 357.809 388.615 349.803C383.99 341.797 379.323 333.718 374.677 325.675C370.052 317.67 365.432 309.664 360.807 301.658L359.097 298.697C358.418 297.524 356.598 298.581 357.276 299.759Z" fill="#BFD3B6"/>
<path d="M331.62 326.159C339.628 330.783 347.637 335.401 355.645 340.025C363.653 344.648 371.662 349.267 379.67 353.89C387.679 358.514 395.687 363.132 403.695 367.756C411.74 372.4 419.786 377.045 427.831 381.69C435.839 386.313 443.847 390.931 451.856 395.555L454.818 397.265C455.997 397.943 457.06 396.123 455.881 395.445C447.873 390.821 439.864 386.203 431.856 381.579C423.848 376.956 415.839 372.337 407.831 367.714C399.823 363.09 391.814 358.472 383.806 353.848C375.761 349.204 367.716 344.559 359.67 339.914C351.662 335.291 343.654 330.672 335.645 326.049C334.656 325.481 333.672 324.907 332.683 324.339C331.504 323.661 330.441 325.481 331.62 326.159Z" fill="#BFD3B6"/>
<path d="M322.623 361.854C341.175 361.854 359.723 361.854 378.276 361.854C396.734 361.854 415.187 361.854 433.645 361.854C444.058 361.854 454.466 361.854 464.879 361.854C466.236 361.854 466.236 359.745 464.879 359.745C446.326 359.745 427.778 359.745 409.225 359.745C390.767 359.745 372.314 359.745 353.856 359.745H322.623C321.265 359.745 321.265 361.854 322.623 361.854Z" fill="#BFD3B6"/>
<path d="M332.683 397.265C340.691 392.641 348.7 388.023 356.708 383.399C364.716 378.776 372.725 374.157 380.733 369.534C388.741 364.91 396.75 360.292 404.758 355.668C412.803 351.024 420.848 346.379 428.894 341.734C436.902 337.111 444.91 332.492 452.919 327.869L455.881 326.159C457.054 325.481 455.997 323.661 454.818 324.339C446.81 328.963 438.801 333.581 430.793 338.205C422.785 342.828 414.776 347.447 406.768 352.07C398.76 356.694 390.751 361.312 382.743 365.936L358.607 379.87C350.599 384.493 342.591 389.111 334.582 393.735L331.62 395.445C330.447 396.123 331.504 397.943 332.683 397.265Z" fill="#BFD3B6"/>
<path d="M359.097 422.913C363.722 414.907 368.342 406.901 372.967 398.895L386.837 374.878C391.462 366.872 396.082 358.866 400.707 350.861C405.353 342.818 409.999 334.775 414.645 326.733C419.291 318.69 423.89 310.721 428.515 302.715L430.225 299.754C430.904 298.576 429.083 297.513 428.404 298.691C423.779 306.697 419.159 314.703 414.534 322.709C409.909 330.715 405.29 338.72 400.664 346.726C396.039 354.732 391.42 362.738 386.795 370.743C382.148 378.786 377.502 386.829 372.856 394.871C368.231 402.877 363.611 410.883 358.986 418.889L357.276 421.85C356.598 423.028 358.418 424.091 359.097 422.913Z" fill="#BFD3B6"/>
<path d="M393.745 370.517C399.113 370.517 403.464 366.168 403.464 360.802C403.464 355.436 399.113 351.087 393.745 351.087C388.378 351.087 384.027 355.436 384.027 360.802C384.027 366.168 388.378 370.517 393.745 370.517Z" fill="#165C7E"/>
<path d="M402.411 360.802C402.38 364.347 400.175 367.682 396.802 368.913C393.43 370.144 389.42 369.139 387.042 366.293C384.664 363.448 384.469 359.434 386.31 356.357C388.152 353.28 391.893 351.571 395.445 352.307C399.475 353.143 402.369 356.699 402.406 360.802C402.417 362.159 404.527 362.159 404.516 360.802C404.474 356.268 401.622 352.218 397.36 350.661C393.098 349.104 388.299 350.477 385.495 353.885C382.69 357.294 382.143 362.469 384.532 366.383C386.879 370.228 391.42 372.19 395.829 371.364C400.849 370.423 404.469 365.852 404.516 360.802C404.527 359.445 402.422 359.445 402.406 360.802H402.411Z" fill="#165C7E"/>
<path d="M80.6254 289.702V431.907C80.6254 433.264 82.7353 433.264 82.7353 431.907V376.272C82.7353 357.82 82.7353 339.373 82.7353 320.92V289.697C82.7353 288.34 80.6254 288.34 80.6254 289.697V289.702Z" fill="#BFD3B6"/>
<path d="M45.2035 299.759C49.8285 307.765 54.4483 315.771 59.0734 323.777C63.6984 331.782 68.3182 339.788 72.9433 347.794C77.5683 355.8 82.1881 363.805 86.8132 371.811C91.4382 379.817 96.1054 387.896 100.751 395.939C105.398 403.982 109.996 411.951 114.621 419.956L116.331 422.918C117.01 424.091 118.831 423.034 118.152 421.855C113.527 413.85 108.907 405.844 104.282 397.838C99.657 389.832 95.0373 381.826 90.4122 373.821C85.7871 365.815 81.1674 357.809 76.5423 349.803C71.8962 341.761 67.2501 333.718 62.604 325.675C57.9789 317.67 53.3591 309.664 48.7341 301.658L47.024 298.697C46.3453 297.524 44.5247 298.581 45.2035 299.759Z" fill="#BFD3B6"/>
<path d="M19.5473 326.159C27.5556 330.783 35.564 335.401 43.5723 340.025C51.5807 344.648 59.589 349.267 67.5974 353.89C75.6057 358.514 83.614 363.132 91.6224 367.756C99.6676 372.4 107.713 377.045 115.758 381.69C123.766 386.313 131.775 390.931 139.783 395.555L142.745 397.265C143.924 397.943 144.987 396.123 143.808 395.445C135.8 390.821 127.791 386.203 119.783 381.579C111.775 376.956 103.766 372.337 95.7581 367.714C87.7498 363.09 79.7414 358.472 71.7331 353.848C63.6879 349.204 55.6427 344.559 47.5975 339.914C39.5892 335.291 31.5809 330.672 23.5725 326.049L20.6102 324.339C19.4315 323.661 18.3687 325.481 19.5473 326.159Z" fill="#BFD3B6"/>
<path d="M10.555 361.854C29.1079 361.854 47.6554 361.854 66.2083 361.854C84.6664 361.854 103.119 361.854 121.577 361.854C131.99 361.854 142.398 361.854 152.811 361.854C154.168 361.854 154.168 359.745 152.811 359.745C134.258 359.745 115.711 359.745 97.1577 359.745C78.6996 359.745 60.2467 359.745 41.7886 359.745H10.555C9.19749 359.745 9.19749 361.854 10.555 361.854Z" fill="#BFD3B6"/>
<path d="M20.6154 397.265C28.6238 392.641 36.6321 388.023 44.6405 383.399L68.6655 369.534C76.6738 364.91 84.6822 360.292 92.6905 355.668C100.699 351.045 108.781 346.379 116.826 341.734C124.834 337.111 132.843 332.492 140.851 327.869L143.813 326.159C144.987 325.481 143.929 323.661 142.751 324.339C134.742 328.963 126.734 333.581 118.726 338.205C110.717 342.828 102.709 347.447 94.7005 352.07C86.6922 356.694 78.6838 361.312 70.6755 365.936L46.5399 379.87C38.5316 384.493 30.5233 389.111 22.5149 393.735L19.5526 395.445C18.3792 396.123 19.4368 397.943 20.6154 397.265Z" fill="#BFD3B6"/>
<path d="M47.024 422.913C51.6491 414.907 56.2689 406.901 60.8939 398.895C65.519 390.889 70.1388 382.884 74.7638 374.878C79.3889 366.872 84.0087 358.866 88.6337 350.861C93.2798 342.818 97.9259 334.775 102.572 326.733C107.218 318.69 111.817 310.721 116.442 302.715L118.152 299.754C118.831 298.576 117.01 297.513 116.331 298.691C111.706 306.697 107.087 314.703 102.462 322.709C97.8365 330.715 93.2167 338.72 88.5916 346.726C83.9666 354.732 79.3468 362.738 74.7217 370.743C70.0756 378.786 65.4295 386.829 60.7834 394.871C56.1584 402.877 51.5386 410.883 46.9135 418.889L45.2035 421.85C44.5247 423.028 46.3453 424.091 47.024 422.913Z" fill="#BFD3B6"/>
<path d="M81.6777 370.517C87.0451 370.517 91.3961 366.168 91.3961 360.802C91.3961 355.436 87.0451 351.087 81.6777 351.087C76.3104 351.087 71.9593 355.436 71.9593 360.802C71.9593 366.168 76.3104 370.517 81.6777 370.517Z" fill="#165C7E"/>
<path d="M90.3385 360.802C90.307 364.347 88.1023 367.682 84.7295 368.913C81.2463 370.186 77.3473 369.139 74.969 366.293C72.5907 363.448 72.3961 359.434 74.2377 356.357C76.0793 353.28 79.8203 351.571 83.372 352.307C87.4025 353.143 90.2964 356.699 90.3333 360.802C90.3438 362.159 92.4537 362.159 92.4432 360.802C92.4011 356.268 89.5493 352.218 85.2873 350.661C81.1358 349.146 76.2266 350.477 73.4221 353.885C70.6176 357.294 70.0704 362.469 72.4592 366.383C74.848 370.296 79.3468 372.19 83.7561 371.364C88.7758 370.423 92.3959 365.852 92.4432 360.802C92.4537 359.445 90.3491 359.445 90.3333 360.802H90.3385Z" fill="#165C7E"/>
<path d="M251.458 68.8224C251.068 67.2707 250.158 65.8189 248.922 64.7984C247.685 63.778 246.307 63.3046 244.765 62.9785C242.102 62.4156 239.429 61.8739 236.756 61.3479C230.642 60.1486 224.507 59.0229 218.372 57.9551C204.681 55.5671 190.948 53.4262 177.183 51.48C163.666 49.5706 150.117 47.8348 136.531 46.4514C130.827 45.8728 125.119 45.3521 119.399 44.9576C116.158 44.7367 112.259 44.3632 109.959 47.1773C108.786 48.6133 108.328 50.4333 107.95 52.2059C107.497 54.3573 107.06 56.5139 106.629 58.6758C103.088 76.4389 100.22 94.3336 98.0154 112.312C97.4682 116.778 96.963 121.254 96.5 125.731C96.3053 127.609 96.0264 129.613 96.6789 131.438C97.2998 133.184 98.6731 134.336 100.309 135.115C104.903 137.303 109.907 138.812 114.763 140.275C126.944 143.941 139.404 146.697 151.895 149.054C164.05 151.342 176.32 153.272 188.649 154.324C191.064 154.529 193.479 154.698 195.899 154.792C199.588 154.94 203.402 155.055 206.996 154.072C213.552 152.273 217.935 146.787 220.887 140.964C222.366 138.045 223.565 134.994 224.697 131.927C224.944 131.264 224.586 130.78 224.081 130.581L245.454 89.447C246.064 89.7416 246.912 89.5838 247.138 88.7422C247.98 85.6124 248.822 82.4827 249.658 79.353C250.142 77.5435 250.632 75.7288 251.116 73.9194C251.568 72.2256 251.905 70.5845 251.458 68.8276V68.8224Z" fill="#0B244A"/>
<path d="M218.34 360.165C227.433 365.615 236.525 371.064 245.617 376.519C248.064 377.987 250.484 379.528 253.068 380.748C253.836 381.111 254.773 380.964 255.225 380.18C255.625 379.491 255.43 378.386 254.657 378.023C252.389 376.95 250.258 375.62 248.106 374.331L241.229 370.207C236.683 367.482 232.137 364.758 227.591 362.033C225.033 360.502 222.481 358.971 219.924 357.441C218.177 356.394 216.588 359.119 218.33 360.165H218.34Z" fill="#165C7E"/>
<path d="M308.526 251.104C307.884 243.619 305.175 236.465 301.028 230.221C296.924 224.041 291.578 218.765 285.57 214.441C279.192 209.86 271.984 206.546 264.77 203.516C249.732 197.204 233.852 192.454 220.108 183.444C218.419 182.339 216.767 181.172 215.173 179.935C214.668 179.546 214.031 179.409 213.494 179.709L204.828 164.313C204.913 164.208 204.997 164.103 205.086 163.997C206.239 162.619 204.26 160.621 203.097 162.009C195.173 171.493 189.143 182.471 185.444 194.269C183.587 200.192 182.277 206.341 181.74 212.527C181.203 218.755 181.577 225.245 183.824 231.131C185.991 236.818 189.822 241.583 194.315 245.618C198.293 249.184 202.655 252.508 207.396 254.996C216.678 259.872 227.091 262.371 237.298 264.464C247.606 266.584 258.056 268.094 268.28 270.608C268.785 270.734 269.279 270.871 269.784 271.003C265.728 276.952 262.139 283.232 258.708 289.56C254.315 297.66 250.205 305.913 246.201 314.214C242.25 322.404 238.409 330.651 234.589 338.904C232.879 342.597 231.174 346.289 229.453 349.982C229.032 350.882 228.627 351.797 228.175 352.68C227.612 353.769 226.88 354.758 226.465 355.926C225.791 357.83 225.912 359.955 226.722 361.796C227.748 364.121 229.874 365.415 231.874 366.83C234.152 368.44 236.457 370.007 238.798 371.527C242.681 374.052 246.643 376.598 250.863 378.523C252.163 379.117 253.399 377.913 252.789 376.598C251.011 372.8 248.937 369.118 246.859 365.473C245.033 362.264 243.218 358.814 240.887 355.894C253.226 342.571 265.601 329.247 276.951 315.055C282.265 308.412 287.359 301.569 292.294 294.641C296.924 288.14 301.292 281.381 304.407 274.006C307.458 266.789 309.216 258.973 308.537 251.114L308.526 251.104Z" fill="#0B244A"/>
<path d="M131.333 395.902C130.517 397.075 129.675 398.227 128.807 399.358L129.907 397.938C125.608 403.498 120.63 408.511 115.079 412.824L116.5 411.724C111.143 415.864 105.277 419.32 99.0467 421.971L100.725 421.261C94.7005 423.801 88.3706 425.569 81.8882 426.447L83.7561 426.195C77.8104 426.984 71.7804 427.015 65.8347 426.221L67.7026 426.474C62.2199 425.727 56.8529 424.28 51.7491 422.139L53.4275 422.849C48.5026 420.766 43.8617 418.052 39.626 414.786L41.0467 415.885C36.932 412.692 33.233 408.989 30.0339 404.876L31.1336 406.296C27.7503 401.909 24.9616 397.096 22.8043 391.999L23.5146 393.677C21.1469 388.038 19.5578 382.095 18.7317 376.035L18.9843 377.902C18.0951 371.254 18.1214 364.51 19.0001 357.862L18.7475 359.729C19.6946 352.691 21.5941 345.8 24.346 339.252L23.6357 340.93C26.4559 334.265 30.1392 327.985 34.5537 322.251L33.454 323.671C37.7529 318.112 42.7305 313.099 48.2816 308.785L46.8609 309.885C52.2173 305.745 58.0842 302.289 64.314 299.638L62.6356 300.348C68.6602 297.808 74.9901 296.04 81.4725 295.162L79.6046 295.414C85.5504 294.625 91.5803 294.594 97.526 295.388L95.6581 295.136C101.141 295.883 106.508 297.329 111.612 299.47L109.933 298.76C114.858 300.843 119.499 303.557 123.735 306.823L122.314 305.724C126.429 308.917 130.128 312.62 133.327 316.733L132.227 315.313C135.61 319.7 138.399 324.513 140.556 329.61L139.846 327.932C142.214 333.571 143.803 339.515 144.629 345.574L144.376 343.707C145.266 350.356 145.239 357.099 144.361 363.748L144.613 361.88C143.666 368.918 141.767 375.809 139.015 382.358L139.725 380.68C137.463 386.029 134.642 391.131 131.338 395.907C130.349 397.338 130.18 399.695 130.628 401.32C131.075 402.945 132.338 404.718 133.858 405.518C135.489 406.38 137.468 406.812 139.273 406.228L140.951 405.518C142.009 404.892 142.845 404.055 143.471 402.998C148.36 395.939 152.18 388.117 154.863 379.964C157.42 372.2 158.825 363.969 159.062 355.8C159.167 352.112 159.009 348.42 158.567 344.759C158.067 340.582 157.373 336.448 156.247 332.392C154.195 325.007 150.996 317.796 146.697 311.442C144.371 308.007 141.767 304.719 138.883 301.732C136 298.744 132.722 296.03 129.328 293.558C123.119 289.05 116 285.673 108.634 283.527C104.719 282.385 100.73 281.707 96.6894 281.218C93.222 280.797 89.7176 280.655 86.2239 280.786C78.547 281.07 70.8281 282.475 63.5669 284.994C56.3057 287.514 48.8814 291.18 42.4095 295.783C35.6534 300.58 29.5183 306.176 24.3513 312.662C21.4836 316.26 18.8001 319.989 16.4639 323.955C14.154 327.885 12.2335 331.998 10.5024 336.211C7.34011 343.917 5.4985 352.018 4.65663 360.292C3.81475 368.566 4.34619 376.272 5.89839 384.099C7.39272 391.652 10.1551 399.042 13.9383 405.749C15.9641 409.342 18.3634 412.687 20.9574 415.89C23.2516 418.726 25.7982 421.35 28.5606 423.733C31.7335 426.468 35.1325 428.993 38.7368 431.139C42.3411 433.285 46.0506 434.974 49.9074 436.447C56.9476 439.14 64.535 440.518 72.0593 440.807C75.5689 440.944 79.0837 440.797 82.5722 440.392C86.6764 439.913 90.7384 439.234 94.7321 438.161C102.298 436.126 109.665 432.938 116.352 428.851C123.04 424.764 129.78 419.315 135.295 413.292C138.257 410.062 140.977 406.591 143.482 402.993C144.476 401.567 144.64 399.2 144.192 397.58C143.745 395.96 142.482 394.182 140.962 393.383C139.33 392.52 137.352 392.089 135.547 392.673L133.869 393.383C132.811 394.009 131.975 394.845 131.348 395.902H131.333Z" fill="#0B244A"/>
<path d="M443.4 395.902C442.585 397.075 441.743 398.227 440.875 399.358L441.974 397.938C437.675 403.498 432.698 408.511 427.147 412.824L428.567 411.724C423.211 415.864 417.344 419.32 411.114 421.971L412.793 421.261C406.768 423.801 400.438 425.569 393.956 426.447L395.824 426.195C389.878 426.984 383.848 427.015 377.902 426.221L379.77 426.474C374.287 425.727 368.92 424.28 363.817 422.139L365.495 422.849C360.57 420.766 355.929 418.052 351.694 414.786L353.114 415.885C349 412.692 345.301 408.989 342.101 404.876L343.201 406.296C339.818 401.909 337.029 397.096 334.872 391.999L335.582 393.677C333.214 388.038 331.625 382.095 330.799 376.035L331.052 377.902C330.163 371.254 330.189 364.51 331.068 357.862L330.815 359.729C331.762 352.691 333.662 345.8 336.414 339.252L335.703 340.93C338.524 334.265 342.207 327.985 346.621 322.251L345.522 323.671C349.82 318.112 354.798 313.099 360.349 308.785L358.928 309.885C364.285 305.745 370.152 302.289 376.382 299.638L374.703 300.348C380.728 297.808 387.058 296.04 393.54 295.162L391.672 295.414C397.618 294.625 403.648 294.594 409.594 295.388L407.726 295.136C413.208 295.883 418.575 297.329 423.679 299.47L422.001 298.76C426.926 300.843 431.567 303.557 435.802 306.823L434.382 305.724C438.496 308.917 442.195 312.62 445.394 316.733L444.295 315.313C447.678 319.7 450.467 324.513 452.624 329.61L451.914 327.932C454.281 333.571 455.87 339.515 456.697 345.574L456.444 343.707C457.333 350.356 457.307 357.099 456.428 363.748L456.681 361.88C455.734 368.918 453.834 375.809 451.082 382.358L451.793 380.68C449.53 386.029 446.71 391.131 443.405 395.907C442.416 397.338 442.248 399.695 442.695 401.32C443.142 402.945 444.405 404.718 445.926 405.518C447.557 406.38 449.535 406.812 451.34 406.228L453.019 405.518C454.076 404.892 454.913 404.055 455.539 402.998C460.427 395.939 464.247 388.117 466.931 379.964C469.488 372.2 470.893 363.969 471.129 355.8C471.235 352.112 471.077 348.42 470.635 344.759C470.135 340.582 469.44 336.448 468.314 332.392C466.262 325.007 463.063 317.796 458.764 311.442C456.439 308.007 453.834 304.719 450.951 301.732C448.067 298.744 444.789 296.03 441.395 293.558C435.187 289.05 428.067 285.673 420.701 283.527C416.786 282.385 412.798 281.707 408.757 281.218C405.289 280.797 401.785 280.655 398.291 280.786C390.615 281.07 382.896 282.475 375.634 284.994C368.373 287.514 360.949 291.18 354.477 295.783C347.721 300.58 341.586 306.176 336.419 312.662C333.551 316.26 330.868 319.989 328.531 323.955C326.195 327.921 324.301 331.998 322.57 336.211C319.408 343.917 317.566 352.018 316.724 360.292C315.919 368.234 316.414 376.272 317.966 384.099C319.46 391.652 322.223 399.042 326.006 405.749C328.032 409.342 330.431 412.687 333.025 415.89C335.319 418.726 337.866 421.35 340.628 423.733C343.801 426.468 347.2 428.993 350.804 431.139C354.409 433.285 358.118 434.974 361.975 436.447C369.015 439.14 376.603 440.518 384.127 440.807C387.636 440.944 391.151 440.797 394.64 440.392C398.744 439.913 402.806 439.234 406.8 438.161C414.366 436.126 421.732 432.938 428.42 428.851C435.392 424.596 441.848 419.315 447.362 413.292C450.325 410.062 453.045 406.591 455.549 402.993C456.544 401.567 456.707 399.2 456.26 397.58C455.813 395.96 454.55 394.182 453.029 393.383C451.398 392.52 449.42 392.089 447.615 392.673L445.936 393.383C444.879 394.009 444.042 394.845 443.416 395.902H443.4Z" fill="#0B244A"/>
<path d="M165.949 286.341C169.522 291.548 173.09 296.756 176.662 301.963C182.345 310.253 188.028 318.538 193.71 326.827C195.005 328.711 196.294 330.599 197.588 332.482C198.651 334.034 199.867 335.191 201.624 335.933C203.381 336.674 205.307 336.911 207.117 336.359C218.546 332.861 229.722 328.511 240.566 323.493C250.926 318.701 260.95 313.193 270.547 307.018C280.581 300.559 290.179 293.374 299.245 285.615C307.911 278.198 316.061 270.182 323.617 261.645C331.589 252.635 338.965 243.056 345.627 233.041C348.994 227.981 352.241 222.836 355.54 217.729C356.061 216.924 356.608 216.135 357.103 215.309C357.129 215.267 357.161 215.23 357.182 215.188C358.355 213.137 358.413 210.943 358.034 208.682C358.018 208.597 358.002 208.513 357.987 208.429C357.755 207.098 357.508 205.773 357.266 204.447C356.208 198.603 355.151 192.754 354.093 186.91L350.31 166.023C349.531 161.709 348.747 157.396 347.968 153.083L347.853 152.452L339.718 163.124H379.67C381.833 163.124 384.106 162.183 385.632 160.657C387.158 159.132 388.194 156.797 388.099 154.698C387.894 150.132 384.395 146.266 379.665 146.266H339.713C337.034 146.266 334.698 147.507 333.088 149.59C331.352 151.836 331.083 154.203 331.578 156.939C332.725 163.287 333.877 169.631 335.024 175.98C336.85 186.079 338.681 196.184 340.507 206.283C340.923 208.582 341.339 210.88 341.754 213.179C342.038 211.012 342.322 208.85 342.607 206.683C338.092 213.679 333.683 220.759 328.968 227.618C326.348 231.426 323.622 235.161 320.797 238.816L322.117 237.112C312.083 250.073 300.781 262.034 288.39 272.765C284.891 275.795 281.308 278.724 277.645 281.554L279.35 280.234C266.191 290.381 252.026 299.212 237.104 306.529C232.879 308.601 228.59 310.553 224.255 312.383L226.27 311.531C218.535 314.782 210.643 317.654 202.618 320.105L212.142 323.982C208.569 318.774 205.002 313.567 201.429 308.359C195.747 300.07 190.064 291.785 184.381 283.495C183.087 281.612 181.798 279.724 180.503 277.841C179.209 275.958 177.657 274.569 175.463 273.964C173.442 273.406 170.753 273.659 168.964 274.816C167.175 275.973 165.576 277.704 165.087 279.855C164.597 282.007 164.66 284.489 165.939 286.351L165.949 286.341Z" fill="#165C7E"/>
<path d="M315.34 254.134C315.977 255.128 316.614 256.117 317.25 257.111C318.981 259.809 320.713 262.508 322.444 265.206C324.985 269.167 327.521 273.128 330.063 277.088C333.183 281.954 336.298 286.814 339.418 291.68C342.833 297.008 346.248 302.337 349.668 307.66C353.104 313.02 356.54 318.38 359.976 323.735C363.18 328.732 366.384 333.729 369.589 338.726C372.304 342.965 375.024 347.2 377.739 351.439C379.686 354.474 381.633 357.509 383.58 360.55C384.506 361.991 385.421 363.432 386.353 364.873C386.395 364.936 386.432 365 386.474 365.063C387.647 366.893 389.383 368.35 391.514 368.939C393.535 369.497 396.224 369.244 398.013 368.087C399.802 366.93 401.401 365.199 401.89 363.048C402.38 360.897 402.275 358.472 401.038 356.552C400.401 355.558 399.765 354.569 399.128 353.575C397.397 350.876 395.666 348.178 393.935 345.48C391.393 341.519 388.857 337.558 386.316 333.597C383.196 328.732 380.081 323.871 376.96 319.006C373.546 313.677 370.131 308.349 366.711 303.026C363.275 297.666 359.839 292.306 356.403 286.951C353.198 281.954 349.994 276.957 346.79 271.96C344.075 267.72 341.354 263.486 338.639 259.246C336.692 256.211 334.746 253.176 332.799 250.136C331.873 248.695 330.957 247.254 330.026 245.812C329.984 245.749 329.947 245.686 329.905 245.623C328.731 243.792 326.995 242.335 324.864 241.746C322.844 241.189 320.155 241.441 318.366 242.598C316.577 243.756 314.977 245.486 314.488 247.637C313.999 249.789 314.104 252.214 315.34 254.134Z" fill="#165C7E"/>
<path d="M383.353 147.06C379.675 145.33 375.271 146.597 372.888 149.811C372.293 150.616 371.862 151.51 371.515 152.447C371.499 152.483 371.483 152.525 371.467 152.568C371.03 153.462 370.662 154.393 370.215 155.282C369.578 156.549 368.905 157.796 368.184 159.016C367.489 160.205 366.753 161.368 365.99 162.514C365.4 163.393 364.748 164.234 364.127 165.092C363.969 165.292 363.822 165.502 363.685 165.712C363.596 165.818 363.506 165.918 363.433 166.007C362.964 166.57 362.491 167.122 362.001 167.669C361.044 168.742 360.044 169.784 359.007 170.783C358.097 171.656 357.166 172.524 356.187 173.313C355.861 173.576 355.451 173.844 355.051 174.181C353.719 175.128 352.372 176.043 350.952 176.864C350.01 177.405 349.052 177.916 348.079 178.389C347.811 178.521 347.542 178.642 347.274 178.773C346.974 178.868 346.627 178.989 346.321 179.157C345.006 179.646 343.68 180.099 342.323 180.472C341.354 180.74 340.376 180.961 339.397 181.177C339.008 181.261 338.618 181.366 338.229 181.456C338.218 181.456 338.213 181.456 338.203 181.456C337.15 181.503 336.093 181.682 335.035 181.75C333.777 181.829 332.515 181.861 331.252 181.845C329.984 181.829 328.716 181.771 327.453 181.666C326.816 181.613 326.127 181.466 325.459 181.414C324.859 181.303 324.217 181.272 323.654 181.208C322.47 181.082 321.244 181.119 320.097 181.45C317.824 182.108 315.819 183.886 314.856 186.042C313.404 189.304 314.404 193.796 317.129 196.121C318.897 197.63 321.044 197.804 323.265 198.088C325.99 198.435 328.742 198.645 331.489 198.672C336.908 198.73 342.359 198.072 347.574 196.557C357.066 193.801 365.358 188.352 372.251 181.34C375.55 177.989 378.507 174.292 381.07 170.346C382.359 168.358 383.548 166.301 384.627 164.192C385.842 161.809 387.068 159.337 387.879 156.781C389.052 153.083 386.789 148.675 383.359 147.06H383.353ZM338.024 181.466C338.129 181.45 338.134 181.45 338.024 181.466V181.466Z" fill="#BFD3B6"/>
<path d="M221.718 344.443C221.487 340.135 220.266 335.843 217.825 332.25C217.578 331.888 217.325 331.525 217.078 331.162C215.652 329.084 214.226 327.001 212.8 324.923C210.411 321.441 208.022 317.954 205.633 314.471C202.613 310.064 199.593 305.661 196.573 301.253C193.253 296.409 189.927 291.564 186.607 286.714C183.313 281.912 180.019 277.109 176.731 272.307L167.933 259.478C165.692 256.211 163.45 252.945 161.214 249.673C159.993 247.895 158.772 246.112 157.552 244.334C157.257 243.903 156.978 243.471 156.72 243.019C156.689 242.914 156.663 242.809 156.631 242.698C156.631 242.588 156.631 242.472 156.631 242.362C156.663 242.23 156.699 242.104 156.741 241.972C157.273 240.999 157.91 240.068 158.488 239.137C159.909 236.849 161.33 234.561 162.75 232.273C166.071 226.923 169.391 221.569 172.711 216.219C173.479 214.983 174.247 213.747 175.015 212.506C175.615 211.543 175.968 210.36 176.094 209.16C182.561 208.592 188.827 206.057 193.595 201.528C195.515 199.708 197.173 197.551 198.362 195.184C199.535 192.844 199.461 190.056 197.93 187.883C196.531 185.9 194.326 184.727 191.895 184.701C191.443 184.701 190.99 184.701 190.543 184.701H154.563C151.895 184.738 149.38 186.19 148.123 188.567C147.539 189.677 147.213 190.945 147.281 192.207C147.355 193.575 147.86 194.779 148.517 195.958C150.938 200.292 154.8 203.742 159.209 205.988C157.299 209.071 155.389 212.148 153.479 215.23C150.175 220.559 146.87 225.882 143.566 231.21C143.214 231.778 142.856 232.352 142.503 232.92C141.13 235.14 140.335 237.533 139.993 240.095C139.404 244.481 140.335 248.973 142.856 252.65C144.355 254.838 145.855 257.027 147.36 259.215C150.327 263.544 153.295 267.873 156.268 272.207C160.067 277.751 163.871 283.295 167.67 288.834C171.753 294.794 175.842 300.748 179.925 306.708C183.639 312.131 187.359 317.549 191.074 322.972C193.873 327.059 196.673 331.141 199.477 335.228C200.724 337.053 201.982 338.868 203.224 340.698C203.644 341.314 204.018 341.95 204.355 342.607C204.549 343.176 204.707 343.754 204.834 344.343C204.87 344.948 204.87 345.553 204.834 346.158C204.697 346.794 204.528 347.415 204.318 348.031C204.029 348.599 203.708 349.146 203.355 349.677C202.95 350.129 202.518 350.561 202.066 350.966C201.587 351.281 201.093 351.571 200.582 351.834C199.998 352.028 199.404 352.191 198.798 352.323C197.594 352.396 196.383 352.365 195.178 352.365H86.4817C84.9453 352.365 83.4088 352.349 81.8724 352.365C81.804 352.365 81.7409 352.365 81.6725 352.365C79.5099 352.365 77.2368 353.306 75.7109 354.832C74.185 356.357 73.1485 358.693 73.2432 360.791C73.3432 362.974 74.0588 365.236 75.7109 366.751C77.3631 368.266 79.3889 369.218 81.6725 369.218H195.778C198.951 369.218 202.166 369.108 205.197 368.05C206.681 367.53 208.159 366.919 209.538 366.157C210.874 365.42 212.063 364.452 213.252 363.506C215.099 362.038 216.604 360.144 217.909 358.193C219.23 356.226 220.203 353.932 220.845 351.66C221.266 350.171 221.434 348.614 221.613 347.089C221.718 346.205 221.75 345.316 221.703 344.427L221.718 344.443Z" fill="#165C7E"/>
<path d="M259.803 321.099C255.467 315.029 249.385 310.369 242.381 307.797C235.152 305.14 227.07 304.872 219.666 306.976C212.537 309.006 206.065 313.241 201.361 318.969C196.567 324.808 193.652 331.993 193.058 339.53C192.458 347.147 194.289 354.895 198.251 361.428C202.076 367.735 207.817 372.868 214.547 375.904C221.592 379.081 229.516 379.97 237.093 378.455C244.397 376.992 251.189 373.226 256.335 367.856C261.502 362.464 264.991 355.51 266.127 348.125C266.417 346.221 266.575 344.306 266.58 342.381C266.559 334.791 264.217 327.28 259.798 321.099H259.803Z" fill="#BFD3B6"/>
<path d="M198.304 417.011C203.024 407.427 207.638 397.796 212.147 388.112C216.657 378.428 221.061 368.697 225.354 358.919C227.77 353.422 230.153 347.91 232.5 342.381C232.831 341.598 232.737 340.693 231.932 340.225C231.269 339.835 230.106 340.004 229.774 340.793C225.596 350.624 221.313 360.407 216.925 370.144C212.537 379.88 208.038 389.569 203.439 399.206C200.851 404.623 198.23 410.025 195.578 415.417C195.199 416.18 195.373 417.126 196.147 417.574C196.841 417.979 197.93 417.773 198.304 417.006V417.011Z" fill="#165C7E"/>
<path d="M254.047 270.845C253.099 262.366 251.726 253.928 250.232 245.533C247.164 228.302 243.507 211.185 239.724 194.101C239.056 191.092 238.388 188.083 237.719 185.08C236.914 181.45 236.136 177.216 233.363 174.497C231.384 172.561 228.817 172.298 226.186 172.251C223.187 172.193 220.493 171.814 218.251 169.615C216.446 167.843 215.252 165.555 214.221 163.277C213.889 162.546 213.116 162.625 212.658 163.067L175.279 120.581C175.279 120.581 175.31 120.55 175.326 120.529C176.247 119.534 174.758 118.041 173.837 119.04C160.925 132.979 157.178 153.009 159.499 171.409C162.256 193.254 172.9 213.053 183.045 232.231C188.733 242.977 194.421 253.729 200.109 264.475C202.939 269.83 205.781 275.179 208.606 280.539C211.185 285.426 213.842 290.591 214.01 296.235C214.184 302.142 211.863 307.833 210.001 313.33C208.038 319.116 206.07 324.907 204.108 330.693C200.177 342.271 196.247 353.848 192.316 365.426C188.385 377.003 184.455 388.58 180.524 400.158C179.598 402.888 178.325 405.696 177.757 408.521C177.32 410.693 178.241 412.298 180.03 413.487C184.976 416.769 190.364 419.52 195.494 422.508C198.12 424.038 200.751 425.564 203.376 427.094C204.25 427.599 205.428 426.552 204.818 425.653C200.903 419.888 196.988 414.118 193.074 408.353C192.158 407.006 190.906 405.539 191.264 403.787C191.585 402.22 192.821 400.878 193.784 399.668C195.731 397.223 197.646 394.756 199.54 392.268C207.165 382.237 214.326 371.859 220.992 361.165C227.659 350.477 233.831 339.478 239.482 328.221C242.287 322.635 244.965 316.981 247.511 311.268C250.09 305.482 252.563 299.58 253.899 293.368C255.499 285.92 254.888 278.351 254.052 270.85L254.047 270.845Z" fill="#0B244A"/>
<path d="M172.416 410.53C181.508 415.98 190.601 421.429 199.693 426.884C202.14 428.351 204.56 429.893 207.144 431.113C207.912 431.476 208.848 431.329 209.301 430.545C209.701 429.856 209.506 428.751 208.733 428.388C206.465 427.315 204.334 425.984 202.182 424.696C199.888 423.323 197.599 421.95 195.305 420.572C190.759 417.847 186.212 415.122 181.666 412.398C179.109 410.867 176.557 409.336 174 407.806C172.253 406.759 170.664 409.484 172.406 410.53H172.416Z" fill="#165C7E"/>
<path d="M333.278 170.21C341.065 167.832 350.031 166.727 357.15 171.556C358.823 172.692 360.27 174.149 361.354 175.854C362.08 176.995 363.906 175.938 363.175 174.791C361.002 171.388 357.681 168.984 353.94 167.553C349.731 165.944 345.132 165.77 340.707 166.37C337.992 166.738 335.335 167.385 332.72 168.185C331.425 168.579 331.978 170.615 333.283 170.215L333.278 170.21Z" fill="#0B244A"/>
<path d="M353.909 175.685C353.972 175.68 354.04 175.67 354.103 175.675C354.135 175.675 354.309 175.675 354.156 175.675C354.003 175.675 354.198 175.696 354.24 175.706C354.261 175.712 354.382 175.738 354.388 175.759C354.272 175.712 354.246 175.701 354.319 175.733C354.346 175.743 354.367 175.759 354.393 175.77C354.451 175.801 354.509 175.833 354.566 175.87C354.672 175.933 354.766 176.001 354.866 176.069C354.919 176.106 354.972 176.148 355.03 176.185C355.129 176.259 355.072 176.211 355.008 176.164C355.103 176.238 355.198 176.311 355.287 176.39C355.482 176.553 355.671 176.716 355.861 176.89C356.213 177.216 356.545 177.563 356.855 177.926C356.94 178.026 357.029 178.131 357.113 178.231C357.145 178.268 357.192 178.315 357.213 178.357C357.161 178.242 357.139 178.263 357.218 178.368C357.371 178.573 357.513 178.778 357.655 178.989C357.96 179.446 358.602 179.688 359.097 179.367C359.555 179.073 359.802 178.415 359.476 177.926C358.839 176.964 358.092 176.069 357.234 175.291C356.792 174.891 356.324 174.512 355.835 174.176C355.287 173.797 354.593 173.492 353.909 173.571C353.619 173.608 353.377 173.666 353.162 173.881C352.977 174.065 352.841 174.365 352.851 174.628C352.872 175.144 353.319 175.754 353.903 175.68L353.909 175.685Z" fill="#0B244A"/>
<path d="M349.894 177.974C350.315 178.205 350.725 178.457 351.12 178.731C351.21 178.794 351.299 178.857 351.383 178.92C351.431 178.957 351.478 178.994 351.525 179.031C351.683 179.146 351.409 178.936 351.509 179.02C351.694 179.173 351.883 179.325 352.062 179.483C352.414 179.793 352.746 180.125 353.062 180.472C353.225 180.651 353.383 180.835 353.53 181.019C353.562 181.056 353.588 181.093 353.619 181.13C353.772 181.319 353.525 181.003 353.609 181.114C353.688 181.219 353.767 181.324 353.846 181.435C354.009 181.661 354.193 181.84 354.477 181.919C354.73 181.987 355.066 181.955 355.287 181.813C355.729 181.529 356.008 180.851 355.666 180.372C354.419 178.636 352.825 177.179 350.946 176.154C350.462 175.891 349.773 176.017 349.505 176.532C349.236 177.048 349.368 177.689 349.884 177.974H349.894Z" fill="#0B244A"/>
<path d="M349.989 182.629C348.174 181.398 345.964 181.119 343.817 181.072C341.502 181.019 339.213 181.051 336.908 180.793C334.488 180.525 332.088 180.035 329.752 179.357C328.026 178.852 326.127 178.173 325.159 176.553C324.464 175.391 322.638 176.448 323.338 177.616C324.433 179.441 326.311 180.435 328.268 181.098C330.563 181.876 332.978 182.371 335.372 182.707C337.766 183.044 340.265 183.165 342.738 183.165C344.874 183.165 347.095 183.207 348.926 184.443C350.052 185.206 351.11 183.381 349.989 182.623V182.629Z" fill="#0B244A"/>
<path d="M314.94 90.1728C312.336 96.5532 309.921 103.013 307.706 109.546C305.49 116.079 303.296 122.312 302.554 128.981C302.144 132.658 302.318 136.409 303.37 139.97C303.754 141.269 305.79 140.717 305.401 139.407C303.549 133.132 304.722 126.551 306.464 120.397C308.274 113.99 310.5 107.683 312.804 101.445C314.13 97.8525 315.525 94.2862 316.971 90.7356C317.187 90.2096 316.74 89.5784 316.235 89.4417C315.63 89.2734 315.156 89.6468 314.94 90.1781V90.1728Z" fill="#0B244A"/>
<path d="M272.773 94.1916C268.243 103.781 264.796 113.922 263.486 124.479C262.276 134.236 263.044 144.32 266.354 153.614C268.18 158.738 270.752 163.535 274.088 167.837C274.436 168.29 275.214 168.206 275.577 167.837C276.025 167.39 275.93 166.796 275.577 166.349C269.911 159.037 266.627 150.001 265.507 140.859C264.296 130.975 265.559 120.97 268.348 111.455C269.979 105.895 272.11 100.493 274.583 95.2594C275.162 94.0391 273.341 92.966 272.762 94.1969L272.773 94.1916Z" fill="#0B244A"/>
<path d="M240.924 219.218C244.418 231.373 247.585 243.624 250.416 255.954C251.226 259.478 252.005 263.002 252.763 266.537C253.047 267.862 255.078 267.3 254.794 265.974C252.152 253.602 249.179 241.304 245.87 229.096C244.923 225.608 243.955 222.126 242.955 218.655C242.581 217.355 240.545 217.908 240.924 219.218Z" fill="#165C7E"/>
<path d="M186.497 76.0707C195.91 76.2338 205.318 76.5441 214.72 77.0018C224.123 77.4594 233.521 78.0748 242.902 78.8323C252.284 79.5897 261.744 80.5102 271.147 81.5727C280.497 82.63 289.832 83.8398 299.14 85.2022C303.775 85.8807 308.405 86.5908 313.03 87.343C315.235 87.7007 317.498 87.9584 319.666 88.5002C321.228 88.8947 322.975 89.6679 323.249 91.4511C323.343 92.0876 323.207 92.6609 322.728 93.0975C321.728 94.018 323.222 95.5066 324.217 94.5861C325.569 93.3447 325.627 91.3669 324.906 89.7784C324.091 87.9847 322.265 87.0169 320.439 86.5224C318.255 85.9333 315.951 85.6914 313.725 85.3284C311.326 84.9392 308.921 84.5604 306.516 84.187C296.898 82.7036 287.253 81.3834 277.587 80.2156C267.922 79.0479 258.161 78.0327 248.422 77.1859C238.682 76.339 229.022 75.6552 219.309 75.1292C209.595 74.6032 199.872 74.235 190.143 74.0298C188.927 74.0035 187.712 73.9825 186.497 73.9615C185.139 73.9404 185.139 76.0444 186.497 76.0707Z" fill="#0B244A"/>
<path d="M401.99 124.363C401.859 123.053 401.712 121.744 401.538 120.439C401.243 118.246 400.885 116.058 400.438 113.89C399.586 109.777 398.47 105.722 397.539 101.624C397.239 100.304 396.955 98.9782 396.676 97.6526C396.566 97.1214 395.892 96.7374 395.382 96.9162C389.094 99.1097 382.796 101.303 376.371 103.065C370.736 104.612 364.874 106.074 358.986 105.769C356.324 105.632 353.63 105.08 351.246 103.854C348.815 102.602 346.837 100.709 345.258 98.4942C343.543 96.0957 342.222 93.4446 340.891 90.8198C339.402 87.8742 337.945 84.9181 336.519 81.9409C333.388 75.3974 330.426 68.775 327.626 62.0842C331.089 61.2742 334.54 60.4168 337.897 59.2333C344.532 56.8978 350.694 53.2106 354.603 47.2088C358.35 41.4544 359.897 33.9746 358.692 27.2154C358.092 23.849 356.655 20.4405 354.198 17.9998C351.715 15.5329 348.321 14.6755 344.901 14.8123C343.191 14.8806 341.491 15.1542 339.807 15.4645C337.934 15.8169 336.04 16.143 334.24 16.7953C330.689 18.0787 327.532 20.3616 325.548 23.6176C321.697 29.9244 322.891 37.9301 323.785 44.8629C324.459 50.0861 324.869 55.3198 324.98 60.543C324.48 60.6588 323.985 60.7692 323.491 60.885C305.143 65.1193 286.711 68.9802 268.211 72.4728C249.774 75.9497 231.274 79.0531 212.71 81.7831C194.042 84.5288 175.31 86.8959 156.547 88.8789C152.022 89.3576 147.491 89.8152 142.961 90.2465C142.624 90.2781 142.324 90.4569 142.124 90.7041C141.746 90.8198 141.451 91.1354 141.498 91.6614C142.882 107.71 146.45 123.548 152.132 138.623C153.732 142.868 155.5 147.055 157.415 151.163C157.452 151.242 157.504 151.305 157.557 151.368C157.552 151.589 157.536 151.81 157.531 152.036C157.447 155.965 157.636 159.9 158.094 163.803C158.162 164.366 158.53 164.855 159.146 164.855C159.667 164.855 160.267 164.371 160.198 163.803C158.662 150.637 160.251 137.198 164.755 124.742C168.275 129.36 171.885 133.915 175.594 138.381C187.77 153.036 200.95 166.854 215.02 179.699C222.997 186.984 231.258 193.948 239.777 200.586C239.903 200.686 240.035 200.749 240.171 200.786C240.513 200.923 240.919 200.902 241.271 200.586C252.484 190.45 263.654 180.251 274.257 169.479C274.815 168.91 275.362 168.337 275.92 167.769C277.84 169.736 279.839 171.625 281.849 173.455C285.506 176.79 289.253 180.03 292.962 183.302C293.994 184.212 295.03 185.127 296.061 186.037C296.972 186.842 297.871 187.678 299.134 187.82C300.397 187.962 301.57 187.41 302.654 186.831C303.733 186.253 304.806 185.658 305.869 185.048C314.462 180.151 322.575 174.418 330.084 167.985C331.015 167.185 331.936 166.38 332.846 165.56C333.388 165.071 333.151 164.276 332.63 163.903C326.595 159.621 320.539 155.361 314.525 151.047C312.073 149.29 309.642 147.444 307.69 145.124C305.696 142.757 304.485 139.875 304.201 136.787C304.112 135.819 304.101 134.846 304.143 133.884C308.721 127.109 312.815 120.008 316.224 112.586C318.255 117.188 320.692 121.765 323.828 125.71C329.289 132.574 337.566 136.893 345.932 139.096C350.094 140.196 354.414 140.801 358.723 140.801C363.748 140.801 368.773 140.043 373.661 138.939C378.744 137.787 383.732 136.219 388.615 134.41C390.988 133.531 393.335 132.59 395.666 131.606C396.771 131.138 397.87 130.665 398.965 130.17C400.001 129.707 401.059 129.16 401.643 128.135C402.301 126.983 402.106 125.61 401.98 124.353L401.99 124.363ZM157.794 146.923C151.864 133.505 147.644 119.329 145.255 104.854C144.703 101.503 144.255 98.1366 143.903 94.7596C149.97 104.354 156.426 113.701 163.255 122.769C160.314 130.512 158.462 138.665 157.799 146.929L157.794 146.923Z" fill="#BFD3B6"/>
<path d="M400.554 101.508C408.231 96.1062 416.818 92.1138 425.9 89.7416C427.21 89.3997 426.657 87.364 425.337 87.7112C416.092 90.1255 407.3 94.1916 399.486 99.6883C398.386 100.462 399.439 102.292 400.549 101.508H400.554Z" fill="#0B244A"/>
<path d="M501.474 79.2373C488.309 71.726 474.66 65.0773 460.632 59.328C456.67 57.7027 452.682 56.1562 448.662 54.6782C448.183 54.4993 447.804 54.6782 447.588 54.9938C440.296 61.8634 433.955 69.7429 428.794 78.3273C426.21 82.6248 423.927 87.0958 421.964 91.7089C421.464 92.8766 420.985 94.0548 420.527 95.2383C420.306 95.8117 419.859 96.5534 420.112 97.1635C420.212 97.4002 420.38 97.6106 420.517 97.8263C420.654 98.0367 420.791 98.2576 420.938 98.4628C421.301 98.973 421.717 98.8888 422.19 99.0887C422.569 99.2465 422.943 99.7462 423.1 100.214C423.311 100.84 423.332 101.424 423.132 102.029C422.948 102.587 422.564 102.923 421.901 103.06C420.601 103.328 419.307 103.06 418.06 103.644C417.044 104.112 416.318 105.001 415.687 105.895C415.134 106.689 414.634 107.51 413.998 108.241C413.387 108.941 412.714 109.588 412.014 110.198C410.604 111.429 409.067 112.512 407.573 113.633C404.721 115.779 401.664 118.219 400.691 121.828C399.375 126.704 402.448 131.038 405.595 134.436C413.051 142.5 421.28 149.922 429.878 156.744C430.967 157.607 432.061 158.459 433.161 159.306C433.608 159.648 434.355 159.379 434.603 158.927C441.28 146.897 447.983 134.804 456.312 123.816C464.4 113.144 474.118 103.839 484.273 95.1595C489.977 90.2834 495.828 85.5914 501.684 80.8995C502.221 80.4682 502.01 79.5529 501.469 79.2426L501.474 79.2373Z" fill="#C5E2E0"/>
<path d="M411.982 99.6567C414.492 99.4884 417.018 99.5462 419.512 99.8566C420.138 99.9355 420.759 100.035 421.38 100.146C421.727 100.209 422.501 100.214 422.774 100.482C422.885 100.588 422.758 100.982 422.632 101.229C422.448 101.603 422.153 101.918 421.817 102.166C420.927 102.818 419.786 102.965 418.712 102.992C418.175 103.007 417.591 102.928 417.071 103.091C416.481 103.276 416.066 103.723 415.813 104.275C415.013 106.042 414.145 107.626 412.751 109.009C411.23 110.519 409.367 111.629 407.315 112.239C406.016 112.623 406.568 114.658 407.878 114.269C412.288 112.959 415.845 109.677 417.602 105.443C417.66 105.306 417.744 105.122 417.781 105.101C417.949 105.001 418.507 105.101 418.717 105.101C419.444 105.08 420.185 105.011 420.896 104.843C422.043 104.57 423.169 103.975 423.932 103.055C424.695 102.134 425.205 100.888 424.774 99.7461C424.311 98.51 422.953 98.2996 421.811 98.0944C418.565 97.5158 415.266 97.3265 411.977 97.5474C410.63 97.6368 410.62 99.7461 411.977 99.6567H411.982Z" fill="#0B244A"/>
<path d="M449.304 73.5617C448.367 74.2507 447.741 75.0713 447.325 76.1601C447.104 76.7387 447.578 77.2595 448.062 77.4541C449.32 77.9696 450.851 77.5751 451.73 76.5546L450.451 76.7177C456.46 80.5943 462.9 83.7609 469.63 86.1752C470.908 86.6329 471.461 84.5972 470.193 84.1449C463.637 81.7884 457.375 78.6744 451.519 74.8977C451.151 74.661 450.535 74.7241 450.24 75.0608C449.793 75.5815 449.251 75.6762 448.625 75.4185L449.362 76.7124C449.562 76.1864 449.919 75.7078 450.372 75.3764C450.825 75.045 451.061 74.4611 450.751 73.9351C450.488 73.4828 449.767 73.2145 449.309 73.5564L449.304 73.5617Z" fill="#0B244A"/>
<path d="M441.532 87.2114C444.889 89.2734 448.246 91.3406 451.608 93.4025C453.203 94.3809 454.771 95.4644 456.444 96.306C458.001 97.0898 459.817 97.6263 461.506 96.932C462.032 96.7163 462.406 96.2324 462.242 95.638C462.106 95.1383 461.474 94.6859 460.948 94.9016C459.464 95.5118 457.991 94.7911 456.697 94.0442C455.113 93.129 453.571 92.1348 452.014 91.1775C448.878 89.2471 445.742 87.3219 442.606 85.3914C441.448 84.6813 440.385 86.5013 441.543 87.2114H441.532Z" fill="#0B244A"/>
<path d="M436.255 98.0839C438.77 100.388 441.616 102.313 444.705 103.749C445.221 103.991 445.842 103.896 446.147 103.37C446.415 102.913 446.289 102.171 445.768 101.929C442.837 100.567 440.127 98.7783 437.744 96.5953C437.323 96.2114 436.67 96.1798 436.255 96.5953C435.865 96.9846 435.834 97.7 436.255 98.0839Z" fill="#0B244A"/>
<path d="M432.987 110.971C433.456 111.418 433.919 111.871 434.387 112.318C434.582 112.507 434.855 112.628 435.134 112.628C435.281 112.633 435.413 112.602 435.539 112.539C435.671 112.497 435.781 112.423 435.876 112.323C436.06 112.123 436.197 111.86 436.186 111.576C436.176 111.292 436.081 111.029 435.876 110.829C435.408 110.382 434.945 109.93 434.476 109.483C434.282 109.293 434.008 109.172 433.729 109.172C433.582 109.167 433.45 109.198 433.324 109.262C433.192 109.304 433.082 109.377 432.987 109.477C432.803 109.677 432.666 109.94 432.677 110.224C432.687 110.508 432.782 110.771 432.987 110.971Z" fill="#0B244A"/>
<path d="M363.196 2.91937C361.444 1.39922 358.807 0.841657 356.597 1.5991C355.466 1.98835 354.477 2.68793 353.83 3.70312C353.167 4.73935 353.135 6.0491 352.304 6.9959C350.778 8.7212 348.052 8.93686 345.906 9.00524C344.58 9.04732 343.296 8.98946 341.986 9.23668C340.612 9.49442 339.276 9.97835 338.018 10.578C335.929 11.5774 333.646 13.187 332.793 15.4488C327.868 15.7539 323.296 18.6364 320.665 22.7971C319.16 25.1746 318.418 27.9098 318.413 30.7134C318.408 34.1956 319.387 37.5883 320.318 40.9126C321.402 44.7788 322.486 48.6449 323.57 52.511C323.738 53.1159 324.554 53.5473 325.117 53.1422C327.753 51.2434 330.31 49.2393 332.772 47.1248C334.803 45.3837 336.319 43.2271 337.119 40.6602C337.887 38.1985 337.934 35.5369 337.392 33.0226C337.113 31.7234 336.508 30.4872 336.629 29.1354C336.729 28.0361 337.313 26.9525 338.308 26.4318C339.413 25.8479 340.581 26.1845 341.633 26.7158C342.885 27.347 344.064 28.1202 345.432 28.4779C346.269 28.6988 347.163 27.7152 346.621 26.9315C346.285 26.4423 345.948 25.9531 345.616 25.4639C354.793 26.8894 364.958 20.1828 365.795 10.5938C366.032 7.88485 365.337 4.76565 363.201 2.91411L363.196 2.91937Z" fill="#0B244A"/>
<path d="M352.977 7.36932C347.221 1.962 339.186 -1.22033 331.283 0.441845C327.658 1.20455 324.196 2.97719 321.565 5.59669C319.024 8.13203 317.282 11.509 316.335 14.949C315.388 18.3944 315.204 22.3447 316.877 25.5796C309.568 29.7981 302.265 34.0377 295.309 38.8296C293.194 40.2867 291.11 41.791 289.058 43.3375C288.637 43.6531 288.4 44.137 288.627 44.6525C288.821 45.0996 289.369 45.4468 289.868 45.2627C297.745 42.4117 305.506 39.2557 313.372 36.3679C314.377 35.9997 315.382 35.6368 316.345 35.1686C316.687 35.0056 317.019 34.8267 317.356 34.6532C317.908 34.6058 318.503 34.2481 318.755 33.7695C318.95 33.4065 318.924 33.0331 318.75 32.7332C319.034 32.1126 319.323 31.4866 319.592 30.8554C319.655 30.7134 319.718 30.5661 319.781 30.4188C328.121 25.7479 336.245 20.6877 344.106 15.2436C347.032 13.2185 349.915 11.146 352.767 9.02097C353.288 8.63173 353.519 7.87428 352.983 7.36406L352.977 7.36932ZM318.176 34.2429C318.261 34.2113 318.282 34.2113 318.176 34.2429V34.2429Z" fill="#165C7E"/>
<path d="M356.845 41.9962C355.798 41.2282 354.503 41.1862 353.262 41.3492C352.125 41.4965 350.852 41.9015 349.71 41.6122C349.1 41.4597 349 41.2598 349.084 40.6707C349.205 39.8501 349.315 39.0348 349.368 38.209C349.468 36.5679 349.368 34.9267 349.105 33.3014C348.879 31.8759 348.3 30.4557 348.268 29.0092C348.252 28.3517 348.416 27.8467 348.794 27.3154C349.205 26.7368 349.552 26.1635 349.568 25.4323C349.647 22.1922 345.711 21.461 343.222 21.6819C340.176 21.9502 337.266 23.3915 335.314 25.769C334.604 26.6316 335.509 28.1202 336.592 27.4259C338.571 26.1582 341.049 27.1682 342.349 28.925C343.812 30.9028 344.185 33.5381 344.022 35.9366C343.848 38.5456 342.949 41.0862 341.691 43.3638C340.449 45.6204 338.734 47.5982 337.592 49.9126C336.492 52.1481 336.019 54.6624 337.034 57.0242C337.95 59.1439 339.876 60.7746 342.075 61.4478C343.149 61.774 344.327 61.9107 345.437 62.0896C346.548 62.2684 347.684 62.4262 348.805 62.3052C349.92 62.1842 350.962 61.8371 351.82 61.0954C352.783 60.2538 353.498 59.023 354.067 57.8921C356.361 53.3369 356.366 48.1031 357.334 43.185C357.334 43.1797 357.334 43.1692 357.334 43.1639C357.45 42.7168 357.229 42.275 356.85 41.9962H356.845Z" fill="#0B244A"/>
<path d="M346.016 11.4038C347.274 10.478 348.531 9.55228 349.789 8.62125C350.015 8.45293 350.194 8.27409 350.273 7.99005C350.341 7.73757 350.31 7.40093 350.168 7.18C349.884 6.74342 349.2 6.45412 348.726 6.80128C347.468 7.72705 346.211 8.65282 344.953 9.58384C344.727 9.75216 344.548 9.93101 344.469 10.215C344.401 10.4675 344.432 10.8042 344.575 11.0251C344.859 11.4617 345.543 11.751 346.016 11.4038Z" fill="#0B244A"/>
<path d="M314.94 90.1728C312.336 96.5532 309.921 103.013 307.706 109.546C305.49 116.079 303.296 122.312 302.554 128.981C302.144 132.658 302.318 136.409 303.37 139.97C303.754 141.269 305.79 140.717 305.401 139.407C303.549 133.132 304.722 126.551 306.464 120.397C308.274 113.99 310.5 107.683 312.804 101.445C314.13 97.8525 315.525 94.2862 316.971 90.7356C317.187 90.2096 316.74 89.5784 316.235 89.4417C315.63 89.2734 315.156 89.6468 314.94 90.1781V90.1728Z" fill="#0B244A"/>
<path d="M272.773 94.1916C268.243 103.781 264.796 113.922 263.486 124.479C262.276 134.236 263.044 144.32 266.354 153.614C268.18 158.738 270.752 163.535 274.088 167.837C274.436 168.29 275.214 168.206 275.577 167.837C276.025 167.39 275.93 166.796 275.577 166.349C269.911 159.037 266.627 150.001 265.507 140.859C264.296 130.975 265.559 120.97 268.348 111.455C269.979 105.895 272.11 100.493 274.583 95.2594C275.162 94.0391 273.341 92.966 272.762 94.1969L272.773 94.1916Z" fill="#0B244A"/>
<path d="M186.497 76.0707C195.91 76.2338 205.318 76.5441 214.72 77.0018C224.123 77.4594 233.521 78.0748 242.902 78.8323C252.284 79.5897 261.744 80.5102 271.147 81.5727C280.497 82.63 289.832 83.8398 299.14 85.2022C303.775 85.8807 308.405 86.5908 313.03 87.343C315.235 87.7007 317.498 87.9584 319.666 88.5002C321.228 88.8947 322.975 89.6679 323.249 91.4511C323.343 92.0876 323.207 92.6609 322.728 93.0975C321.728 94.018 323.222 95.5066 324.217 94.5861C325.569 93.3447 325.627 91.3669 324.906 89.7784C324.091 87.9847 322.265 87.0169 320.439 86.5224C318.255 85.9333 315.951 85.6914 313.725 85.3284C311.326 84.9392 308.921 84.5604 306.516 84.187C296.898 82.7036 287.253 81.3834 277.587 80.2156C267.922 79.0479 258.161 78.0327 248.422 77.1859C238.682 76.339 229.022 75.6552 219.309 75.1292C209.595 74.6032 199.872 74.235 190.143 74.0298C188.927 74.0035 187.712 73.9825 186.497 73.9615C185.139 73.9404 185.139 76.0444 186.497 76.0707Z" fill="#0B244A"/>
</g>
<defs>
<clipPath id="clip0_1_255">
<rect width="502" height="453" fill="white"/>
</clipPath>
</defs>
</svg>
