<svg width="856" height="257" viewBox="0 0 856 257" fill="none" xmlns="http://www.w3.org/2000/svg">
<path d="M353 117L353.466 116.115L353 117ZM856 223L844.623 221.027L848.603 231.866L856 223ZM10.101 3.22466C10.6483 3.2989 11.1521 2.91543 11.2263 2.36816C11.3006 1.82089 10.9171 1.31705 10.3698 1.24281L10.101 3.22466ZM28.8363 3.85131C28.29 3.77058 27.7816 4.14804 27.7009 4.6944C27.6202 5.24075 27.9976 5.7491 28.544 5.82983L28.8363 3.85131ZM46.9475 8.69828C47.4924 8.78801 48.007 8.41899 48.0967 7.87405C48.1864 7.3291 47.8174 6.81459 47.2725 6.72486L46.9475 8.69828ZM65.6583 9.9359C65.1152 9.83537 64.5935 10.1941 64.4929 10.7372C64.3924 11.2802 64.7511 11.8019 65.2942 11.9025L65.6583 9.9359ZM83.5664 15.4913C84.1071 15.6038 84.6366 15.2566 84.7491 14.7159C84.8615 14.1752 84.5144 13.6457 83.9737 13.5332L83.5664 15.4913ZM102.202 17.545C101.664 17.42 101.127 17.7547 101.002 18.2927C100.877 18.8307 101.211 19.3681 101.749 19.4931L102.202 17.545ZM119.835 23.9204C120.37 24.0581 120.915 23.7361 121.052 23.2012C121.19 22.6663 120.868 22.1212 120.333 21.9835L119.835 23.9204ZM138.367 26.8506C137.836 26.7005 137.283 27.0097 137.133 27.5412C136.983 28.0727 137.292 28.6252 137.823 28.7753L138.367 26.8506ZM155.691 34.0432C156.219 34.2053 156.779 33.9088 156.941 33.3809C157.103 32.8529 156.806 32.2935 156.278 32.1313L155.691 34.0432ZM174.039 37.8009C173.514 37.6272 172.949 37.9115 172.775 38.4358C172.601 38.96 172.886 39.5258 173.41 39.6994L174.039 37.8009ZM191.061 45.7518C191.581 45.9363 192.153 45.6639 192.338 45.1433C192.522 44.6228 192.25 44.0512 191.729 43.8667L191.061 45.7518ZM209.222 50.2628C208.705 50.0681 208.128 50.3293 207.934 50.8461C207.739 51.363 208 51.9398 208.517 52.1344L209.222 50.2628ZM225.92 58.8766C226.434 59.0808 227.015 58.8304 227.219 58.3172C227.424 57.8041 227.173 57.2226 226.66 57.0183L225.92 58.8766ZM243.909 64.0584C243.399 63.8454 242.813 64.0857 242.6 64.5952C242.387 65.1048 242.628 65.6905 243.137 65.9036L243.909 64.0584ZM260.258 73.2288C260.764 73.4501 261.354 73.2193 261.575 72.7133C261.796 72.2073 261.565 71.6177 261.059 71.3964L260.258 73.2288ZM278.123 79.0167C277.621 78.7877 277.028 79.0095 276.799 79.5121C276.57 80.0146 276.791 80.6077 277.294 80.8367L278.123 79.0167ZM294.2 88.687C294.699 88.9231 295.296 88.7098 295.532 88.2105C295.768 87.7113 295.554 87.1151 295.055 86.879L294.2 88.687ZM311.844 94.9571C311.348 94.7144 310.749 94.9198 310.506 95.4159C310.263 95.9119 310.469 96.5109 310.965 96.7536L311.844 94.9571ZM327.638 105.042C328.131 105.291 328.733 105.093 328.982 104.6C329.23 104.107 329.033 103.505 328.539 103.257L327.638 105.042ZM345.141 111.76C344.65 111.505 344.047 111.696 343.792 112.186C343.538 112.677 343.728 113.28 344.219 113.535L345.141 111.76ZM361.028 122.418C361.514 122.681 362.12 122.5 362.383 122.014C362.646 121.528 362.465 120.921 361.979 120.659L361.028 122.418ZM378.844 129.982C378.363 129.71 377.753 129.88 377.482 130.361C377.21 130.842 377.38 131.452 377.861 131.724L378.844 129.982ZM394.552 141.295C395.03 141.573 395.642 141.411 395.919 140.933C396.197 140.456 396.035 139.844 395.558 139.566L394.552 141.295ZM412.17 149.331C411.695 149.049 411.082 149.206 410.8 149.681C410.519 150.156 410.676 150.77 411.151 151.051L412.17 149.331ZM427.695 160.902C428.17 161.185 428.784 161.03 429.067 160.556C429.35 160.082 429.195 159.468 428.72 159.185L427.695 160.902ZM445.259 169.04C444.785 168.758 444.171 168.914 443.889 169.389C443.607 169.864 443.764 170.478 444.238 170.76L445.259 169.04ZM460.834 180.535C461.311 180.813 461.924 180.652 462.202 180.175C462.48 179.698 462.319 179.085 461.842 178.807L460.834 180.535ZM478.529 188.399C478.048 188.127 477.438 188.297 477.166 188.778C476.894 189.258 477.064 189.868 477.544 190.14L478.529 188.399ZM494.411 199.473C494.897 199.736 495.503 199.555 495.766 199.069C496.028 198.583 495.847 197.976 495.361 197.714L494.411 199.473ZM512.388 206.652C511.896 206.401 511.294 206.597 511.043 207.09C510.793 207.582 510.989 208.184 511.481 208.434L512.388 206.652ZM528.799 216.921C529.299 217.156 529.895 216.942 530.13 216.442C530.365 215.942 530.151 215.347 529.651 215.112L528.799 216.921ZM547.18 222.988C546.672 222.771 546.085 223.006 545.868 223.514C545.651 224.022 545.887 224.61 546.394 224.827L547.18 222.988ZM564.287 232.046C564.803 232.242 565.381 231.982 565.576 231.466C565.772 230.949 565.512 230.372 564.996 230.176L564.287 232.046ZM583.109 236.578C582.584 236.407 582.019 236.693 581.847 237.218C581.676 237.743 581.962 238.307 582.487 238.479L583.109 236.578ZM600.979 244.031C601.512 244.176 602.062 243.862 602.207 243.329C602.353 242.797 602.039 242.247 601.506 242.102L600.979 244.031ZM620.141 246.663C619.602 246.547 619.069 246.889 618.952 247.429C618.835 247.969 619.178 248.501 619.718 248.618L620.141 246.663ZM638.684 252.187C639.23 252.274 639.742 251.903 639.83 251.357C639.917 250.812 639.545 250.299 639 250.212L638.684 252.187ZM658.035 252.711C657.486 252.654 656.994 253.054 656.938 253.603C656.881 254.153 657.281 254.644 657.83 254.7L658.035 252.711ZM677.097 256.143C677.649 256.169 678.117 255.742 678.143 255.191C678.169 254.639 677.743 254.171 677.191 254.145L677.097 256.143ZM696.408 254.523C695.856 254.527 695.411 254.978 695.415 255.53C695.419 256.082 695.87 256.527 696.423 256.523L696.408 254.523ZM715.721 255.871C716.273 255.838 716.693 255.365 716.66 254.813C716.627 254.262 716.153 253.842 715.602 253.875L715.721 255.871ZM734.725 252.25C734.176 252.31 733.78 252.804 733.84 253.353C733.901 253.902 734.395 254.298 734.944 254.238L734.725 252.25ZM754.071 251.679C754.617 251.593 754.99 251.081 754.904 250.535C754.818 249.99 754.306 249.617 753.76 249.703L754.071 251.679ZM772.676 246.296C772.135 246.405 771.785 246.933 771.895 247.474C772.004 248.015 772.532 248.365 773.073 248.256L772.676 246.296ZM791.929 244.033C792.465 243.902 792.793 243.36 792.662 242.824C792.53 242.288 791.989 241.959 791.453 242.091L791.929 244.033ZM809.989 237.175C809.458 237.327 809.15 237.88 809.301 238.411C809.453 238.942 810.006 239.25 810.537 239.099L809.989 237.175ZM828.948 233.503C829.474 233.333 829.763 232.77 829.593 232.244C829.423 231.719 828.86 231.43 828.334 231.599L828.948 233.503ZM846.498 225.417C845.978 225.603 845.708 226.176 845.894 226.696C846.08 227.216 846.652 227.486 847.172 227.3L846.498 225.417ZM0.869347 1.99143C3.92947 2.3947 7.00583 2.80479 10.101 3.22466L10.3698 1.24281C7.27167 0.822529 4.19274 0.412102 1.13065 0.00857186L0.869347 1.99143ZM28.544 5.82983C34.5873 6.72281 40.7161 7.67217 46.9475 8.69828L47.2725 6.72486C41.0288 5.69672 34.889 4.74567 28.8363 3.85131L28.544 5.82983ZM65.2942 11.9025C71.2776 13.0102 77.3638 14.2011 83.5664 15.4913L83.9737 13.5332C77.7559 12.2398 71.6553 11.0462 65.6583 9.9359L65.2942 11.9025ZM101.749 19.4931C107.665 20.8675 113.69 22.3391 119.835 23.9204L120.333 21.9835C114.173 20.3982 108.132 18.9229 102.202 17.545L101.749 19.4931ZM137.823 28.7753C143.668 30.4259 149.621 32.1786 155.691 34.0432L156.278 32.1313C150.193 30.2623 144.226 28.5053 138.367 26.8506L137.823 28.7753ZM173.41 39.6994C179.187 41.6126 185.068 43.6275 191.061 45.7518L191.729 43.8667C185.723 41.7378 179.829 39.7184 174.039 37.8009L173.41 39.6994ZM208.517 52.1344C214.218 54.2818 220.017 56.5273 225.92 58.8766L226.66 57.0183C220.745 54.6645 214.934 52.4146 209.222 50.2628L208.517 52.1344ZM243.137 65.9036C248.751 68.2513 254.457 70.6916 260.258 73.2288L261.059 71.3964C255.249 68.8549 249.533 66.4104 243.909 64.0584L243.137 65.9036ZM277.294 80.8367C282.843 83.3652 288.478 85.9808 294.2 88.687L295.055 86.879C289.324 84.1688 283.681 81.5492 278.123 79.0167L277.294 80.8367ZM310.965 96.7536C316.443 99.4342 322 102.196 327.638 105.042L328.539 103.257C322.894 100.407 317.33 97.6414 311.844 94.9571L310.965 96.7536ZM344.219 113.535C346.972 114.965 349.743 116.415 352.534 117.885L353.466 116.115C350.672 114.644 347.897 113.192 345.141 111.76L344.219 113.535ZM352.534 117.885C355.378 119.383 358.209 120.894 361.028 122.418L361.979 120.659C359.154 119.132 356.317 117.617 353.466 116.115L352.534 117.885ZM377.861 131.724C383.462 134.883 389.022 138.078 394.552 141.295L395.558 139.566C390.022 136.346 384.454 133.146 378.844 129.982L377.861 131.724ZM411.151 151.051C416.684 154.332 422.196 157.62 427.695 160.902L428.72 159.185C423.221 155.902 417.707 152.613 412.17 149.331L411.151 151.051ZM444.238 170.76C449.77 174.043 455.299 177.307 460.834 180.535L461.842 178.807C456.312 175.583 450.788 172.322 445.259 169.04L444.238 170.76ZM477.544 190.14C483.146 193.307 488.765 196.423 494.411 199.473L495.361 197.714C489.728 194.67 484.121 191.56 478.529 188.399L477.544 190.14ZM511.481 208.434C517.213 211.349 522.982 214.183 528.799 216.921L529.651 215.112C523.854 212.383 518.103 209.558 512.388 206.652L511.481 208.434ZM546.394 224.827C552.298 227.349 558.259 229.76 564.287 232.046L564.996 230.176C558.995 227.901 553.06 225.5 547.18 222.988L546.394 224.827ZM582.487 238.479C588.573 240.472 594.734 242.327 600.979 244.031L601.506 242.102C595.294 240.407 589.165 238.561 583.109 236.578L582.487 238.479ZM619.718 248.618C625.949 249.968 632.268 251.162 638.684 252.187L639 250.212C632.621 249.193 626.337 248.006 620.141 246.663L619.718 248.618ZM657.83 254.7C664.154 255.351 670.574 255.836 677.097 256.143L677.191 254.145C670.705 253.84 664.322 253.358 658.035 252.711L657.83 254.7ZM696.423 256.523C702.755 256.476 709.186 256.262 715.721 255.871L715.602 253.875C709.101 254.263 702.705 254.476 696.408 254.523L696.423 256.523ZM734.944 254.238C741.222 253.548 747.596 252.698 754.071 251.679L753.76 249.703C747.316 250.717 740.972 251.564 734.725 252.25L734.944 254.238ZM773.073 248.256C779.266 247.002 785.55 245.596 791.929 244.033L791.453 242.091C785.099 243.648 778.842 245.047 772.676 246.296L773.073 248.256ZM810.537 239.099C816.589 237.374 822.725 235.51 828.948 233.503L828.334 231.599C822.132 233.6 816.018 235.457 809.989 237.175L810.537 239.099ZM847.172 227.3C847.411 227.215 847.651 227.129 847.89 227.043L847.214 225.161C846.975 225.246 846.737 225.332 846.498 225.417L847.172 227.3Z" fill="#BFD3B6" fill-opacity="0.5"/>
</svg>
