<svg width="66" height="66" viewBox="0 0 66 66" fill="none" xmlns="http://www.w3.org/2000/svg">
<path d="M48.125 26.125C48.125 28.4032 46.2782 30.25 44 30.25C41.7218 30.25 39.875 28.4032 39.875 26.125C39.875 23.8468 41.7218 22 44 22C46.2782 22 48.125 23.8468 48.125 26.125Z" fill="#87F0C9"/>
<path d="M22 35.75C19.7218 35.75 17.875 37.5968 17.875 39.875C17.875 42.1532 19.7218 44 22 44C24.2782 44 26.125 42.1532 26.125 39.875C26.125 37.5968 24.2782 35.75 22 35.75Z" fill="#87F0C9"/>
<path fill-rule="evenodd" clip-rule="evenodd" d="M2.0625 33C2.0625 22.8231 2.44486 15.685 2.81036 11.1866C3.17767 6.66578 6.66581 3.17765 11.1866 2.81035C15.685 2.44485 22.8231 2.0625 33 2.0625C43.1771 2.0625 50.315 2.44486 54.8134 2.81036C59.3343 3.17767 62.8224 6.66581 63.1896 11.1866C63.5551 15.685 63.9375 22.8231 63.9375 33C63.9375 43.1769 63.5551 50.315 63.1896 54.8134C62.8224 59.3341 59.3341 62.8224 54.8134 63.1896C50.315 63.5551 43.1769 63.9375 33 63.9375C22.8231 63.9375 15.685 63.5551 11.1866 63.1896C6.66578 62.8224 3.17765 59.3341 2.81035 54.8134C2.44485 50.315 2.0625 43.1769 2.0625 33ZM46.75 13.75V16.8986C50.7258 18.0818 53.625 21.7649 53.625 26.125C53.625 30.4851 50.7258 34.1682 46.75 35.3514V52.25C46.75 53.7688 45.5188 55 44 55C42.4812 55 41.25 53.7688 41.25 52.25V35.3514C37.2742 34.1682 34.375 30.4851 34.375 26.125C34.375 21.7649 37.2742 18.0818 41.25 16.8986V13.75C41.25 12.2312 42.4812 11 44 11C45.5188 11 46.75 12.2312 46.75 13.75ZM19.25 13.75V30.6486C15.2742 31.8318 12.375 35.5149 12.375 39.875C12.375 44.2351 15.2742 47.9182 19.25 49.1014V52.25C19.25 53.7688 20.4812 55 22 55C23.5188 55 24.75 53.7688 24.75 52.25V49.1014C28.7258 47.9182 31.625 44.2351 31.625 39.875C31.625 35.5149 28.7258 31.8318 24.75 30.6486V13.75C24.75 12.2312 23.5188 11 22 11C20.4812 11 19.25 12.2312 19.25 13.75Z" fill="#87F0C9"/>
</svg>
