<svg width="66" height="66" viewBox="0 0 66 66" fill="none" xmlns="http://www.w3.org/2000/svg">
<path d="M40.5625 5.77498C40.5625 3.6396 42.5466 1.92223 44.7645 2.5176C46.4145 2.96035 49.1796 3.81285 52.9183 5.34048C54.538 6.00323 55.8181 6.5876 56.8288 7.09498C58.3234 7.84435 59.5141 9.2166 59.5141 11C59.5141 12.7847 58.3234 14.1556 56.8288 14.905C55.8181 15.4124 54.538 15.9967 52.9169 16.6595C49.7915 17.9382 47.3454 18.7412 45.6638 19.2307C45.3021 19.3352 44.9763 19.426 44.6875 19.503V23.232C45.7531 23.6307 46.7115 24.3471 47.476 25.3151C49.4354 27.8011 52.1895 31.9247 55.748 38.7255C56.0093 39.2246 56.265 39.7155 56.5125 40.1967C55.398 41.5439 54.2462 42.8598 53.0585 44.143C51.4168 45.9112 49.6238 47.6809 47.8926 49.0765C46.1051 50.5189 44.6119 51.3769 43.5531 51.612C42.9454 51.7467 41.9444 51.6422 40.5543 51.1527C39.2205 50.6839 37.7754 49.9482 36.41 49.1452C34.7485 48.1612 33.1495 47.0751 31.6223 45.8934L31.5549 45.8397L31.5398 45.8287L31.537 45.826C31.1986 45.5557 30.7836 45.3988 30.3509 45.3775C29.9183 45.3563 29.4899 45.4718 29.1266 45.7077L29.1225 45.7105L29.1088 45.7201L29.0441 45.7614C28.6487 46.0134 28.2504 46.2609 27.8493 46.5039C27.0559 46.9837 25.9738 47.6149 24.8174 48.2267C23.6514 48.8427 22.4538 49.4134 21.4184 49.7942C20.9972 49.9546 20.5641 50.082 20.1231 50.1751C19.9698 50.2102 19.8129 50.2273 19.6556 50.226C19.6488 50.226 19.6488 50.226 19.6556 50.226C19.3559 50.1669 18.6381 49.8616 17.5161 49.181C16.3218 48.4399 15.1641 47.6415 14.047 46.7885C12.5772 45.6823 11.1564 44.5124 9.78864 43.2822C12.6569 38.6939 14.9738 35.651 16.7434 33.638C18.15 32.0402 20.0214 31.1382 21.9986 31.1382C23.9786 31.1382 25.8486 32.0402 27.2553 33.6394C28.3412 34.8862 29.3703 36.1814 30.3394 37.521C33.5899 31.4311 36.1336 27.6512 37.9748 25.3151C38.6521 24.437 39.543 23.7468 40.5625 23.3104V5.77498Z" fill="#87F0C9"/>
<path d="M7.59825 46.8586C5.2085 50.8461 3.60387 53.8299 2.5575 55.9185C1.79712 57.4379 1.75175 59.1498 2.48737 60.5935C3.22987 62.051 4.66262 63.0218 6.3965 63.2335C9.36787 63.5938 14.2312 63.9375 22 63.9375H42.7254C51.7137 63.9375 57.0666 63.4233 60.1562 62.92C61.7733 62.6588 63.0822 61.7169 63.789 60.3611C64.4861 59.0233 64.5178 57.4393 63.9334 55.99C62.931 53.5081 61.2439 49.6375 58.5393 44.1925C57.7384 45.1279 56.9192 46.0475 56.0821 46.9508C54.3716 48.7919 52.4274 50.7183 50.4831 52.2858C48.5966 53.8093 46.4819 55.187 44.4469 55.638C42.7061 56.0258 40.8141 55.6174 39.1847 55.044C37.5018 54.4528 35.8022 53.5728 34.3172 52.701C32.8794 51.8494 31.4844 50.9275 30.1372 49.9386L29.986 50.0308C29.1473 50.5395 27.995 51.2133 26.7451 51.8733C25.5049 52.5291 24.1244 53.196 22.8401 53.6663C22.2097 53.9039 21.5614 54.091 20.9014 54.2259C20.2936 54.3441 19.5635 54.4156 18.8457 54.2726C17.7705 54.0568 16.5096 53.3954 15.3766 52.7065C14.0634 51.8934 12.7905 51.017 11.5624 50.0803C10.202 49.0553 8.87973 47.9807 7.59825 46.8586Z" fill="#87F0C9"/>
</svg>
