<svg width="62" height="46" viewBox="0 0 62 46" fill="none" xmlns="http://www.w3.org/2000/svg">
<path fill-rule="evenodd" clip-rule="evenodd" d="M50.9799 0.0625275L57.3849 0.0625C59.7225 0.0624863 61.8199 1.77035 61.9176 4.20855C61.9299 4.51714 61.9371 4.83302 61.9371 5.14999C61.9371 5.46695 61.9299 5.78284 61.9176 6.09143C61.8199 8.52964 59.7225 10.2375 57.3849 10.2375H53.1258C52.011 14.1644 51.0149 17.9096 50.0322 21.6046C48.4657 27.4949 46.933 33.2584 45.0063 39.4279C44.1304 42.2324 41.8503 44.384 38.8675 44.7482C36.0013 45.0983 31.586 45.4375 25.2378 45.4375C18.713 45.4375 14.3765 45.079 11.6636 44.7184C8.99931 44.364 6.92695 42.5043 6.05809 40.0141C4.00612 34.1329 2.18369 26.9341 0.992482 20.2013C0.338944 16.5074 3.25141 13.2625 6.95142 13.2625H41.2976L43.761 5.37149C44.7468 2.21325 47.6713 0.0625275 50.9799 0.0625275ZM16.8612 21.4026C18.3646 21.1879 19.7576 22.2326 19.9724 23.7361L21.3474 33.3611C21.5621 34.8646 20.5174 36.2576 19.0138 36.4724C17.5104 36.6871 16.1174 35.6424 15.9026 34.1389L14.5276 24.5139C14.3129 23.0104 15.3576 21.6174 16.8612 21.4026ZM31.0276 23.7361C31.2424 22.2326 32.6354 21.1879 34.1389 21.4026C35.6424 21.6174 36.6871 23.0104 36.4724 24.5139L35.0974 34.1389C34.8826 35.6424 33.4896 36.6871 31.9861 36.4724C30.4826 36.2576 29.4379 34.8646 29.6526 33.3611L31.0276 23.7361Z" fill="#87F0C9"/>
</svg>
