<svg width="55" height="60" viewBox="0 0 55 60" fill="none" xmlns="http://www.w3.org/2000/svg">
<path d="M44.3539 1.99826C43.4284 0.951793 42.0681 0.353172 40.6359 0.513002C38.7808 0.720022 35.8 1.49701 34.5253 4.35038C33.8896 5.77319 34.414 7.2928 34.9557 8.41599C35.5253 9.59711 36.0316 10.9328 36.4554 12.3722C33.3054 8.69821 28.7789 4.27309 23.5539 1.42481C22.1662 0.668405 20.4134 0.541602 19.0039 1.49049C17.6379 2.41013 15.9331 4.02988 15.3695 6.59899C14.9302 8.60108 16.2473 10.3162 17.5747 11.3953C20.1887 13.5205 22.4872 16.2038 24.4614 19.1788C19.4029 17.6323 14.1596 17.6762 9.28055 20.046C6.09154 21.5951 4.8823 25.5005 6.7019 28.5587C6.99406 29.0499 7.29216 29.5071 7.58449 29.9266C9.15955 32.1874 12.0491 32.3727 14.3998 31.7644C16.7773 31.1491 18.8987 31.2665 20.6425 31.9715C22.3815 32.6745 23.7915 33.9801 24.7277 35.8288C25.659 37.6676 24.9631 39.9494 23.203 41.2149C22.5001 41.7205 21.7326 42.1795 20.9608 42.4816C17.2529 43.5728 13.3226 41.0039 11.8728 36.6517C11.5085 35.5576 10.8919 34.4686 10.0431 33.6924C9.18224 32.9051 8.05474 32.4215 6.74652 32.6524C6.1405 32.7594 5.56908 32.8962 5.03865 33.0489C2.03412 33.9144 0.444031 36.9253 0.859762 39.9116C1.93273 47.619 5.83799 53.0819 11.3857 56.5554C14.141 58.2805 17.3302 59.0956 20.5043 59.3575C28.1659 59.9897 35.3745 59.037 39.7825 58.2127C42.8241 57.6438 45.7086 56.2085 47.6389 53.679C50.3853 50.0804 53.9627 43.6085 54.1725 34.161C54.4842 20.1226 49.4374 7.74563 44.3539 1.99826Z" fill="#87F0C9"/>
</svg>
