<svg width="44" height="44" viewBox="0 0 44 44" fill="none" xmlns="http://www.w3.org/2000/svg">
<path d="M0 15C0 6.71573 6.71573 0 15 0H44V44H15C6.71573 44 0 37.2843 0 29V15Z" fill="#C5E2E0"/>
<path d="M24.3823 28.16C23.5396 28.16 22.7556 28.0213 22.0303 27.744C21.3156 27.456 20.697 27.056 20.1743 26.544C19.6516 26.0213 19.2463 25.408 18.9583 24.704C18.6703 23.9893 18.5263 23.2053 18.5263 22.352C18.5263 21.5093 18.6703 20.7413 18.9583 20.048C19.2463 19.344 19.6516 18.736 20.1743 18.224C20.7076 17.7013 21.3316 17.296 22.0463 17.008C22.761 16.72 23.5396 16.576 24.3823 16.576C24.7556 16.576 25.1076 16.6027 25.4383 16.656C25.7796 16.7093 26.1103 16.8 26.4303 16.928C26.7503 17.056 27.065 17.2213 27.3743 17.424L26.0783 19.552C25.7583 19.328 25.4436 19.1787 25.1343 19.104C24.8356 19.0187 24.5263 18.976 24.2063 18.976C23.769 18.976 23.369 19.0613 23.0063 19.232C22.6436 19.392 22.329 19.6267 22.0623 19.936C21.7956 20.2347 21.5876 20.592 21.4383 21.008C21.289 21.4133 21.2143 21.8613 21.2143 22.352C21.2143 22.8533 21.289 23.3173 21.4383 23.744C21.5876 24.16 21.7903 24.5173 22.0463 24.816C22.313 25.1147 22.6276 25.3493 22.9903 25.52C23.353 25.68 23.7583 25.76 24.2063 25.76C24.441 25.76 24.6596 25.744 24.8623 25.712C25.065 25.68 25.2676 25.6213 25.4703 25.536C25.673 25.4507 25.881 25.328 26.0943 25.168L27.3103 27.344C27.001 27.536 26.6863 27.696 26.3663 27.824C26.0463 27.9413 25.721 28.0267 25.3903 28.08C25.0596 28.1333 24.7236 28.16 24.3823 28.16ZM17.3583 24.016V22.832H24.6543V24.016H17.3583ZM17.3583 21.984V20.8H24.6543V21.984H17.3583Z" fill="#0A244B"/>
</svg>
