<svg width="24" height="24" viewBox="0 0 24 24" fill="none" xmlns="http://www.w3.org/2000/svg">
<path fill-rule="evenodd" clip-rule="evenodd" d="M0.919922 12.0801C0.919922 5.86688 5.95672 0.830078 12.1699 0.830078C18.3831 0.830078 23.4199 5.86688 23.4199 12.0801C23.4199 18.2933 18.3831 23.3301 12.1699 23.3301C5.95672 23.3301 0.919922 18.2933 0.919922 12.0801ZM17.7428 9.89193C18.0111 9.48018 18.0761 8.94653 17.7855 8.55023C17.4278 8.06248 16.9759 7.72148 16.5784 7.49153C16.0389 7.17943 15.3925 7.41733 15.0336 7.92693C12.8421 11.0385 11.4776 13.0583 11.4776 13.0583C11.4776 13.0583 10.6572 12.0382 9.29307 10.5713C8.81977 10.0624 8.05152 9.96033 7.52717 10.4165C7.24367 10.6632 6.93587 10.9677 6.66287 11.3187C6.31412 11.7671 6.38787 12.3877 6.74462 12.8298C8.09362 14.5016 9.39662 15.8672 10.3289 16.7862C11.0849 17.5314 12.2692 17.4698 12.9343 16.6423C13.9496 15.3791 15.5764 13.2159 17.7428 9.89193Z" fill="#87F0C9"/>
</svg>
