<svg width="39" height="44" viewBox="0 0 39 44" fill="none" xmlns="http://www.w3.org/2000/svg">
<path d="M31.8485 1.71505C31.1754 0.953976 30.1861 0.518616 29.1445 0.634856C27.7953 0.785416 25.6275 1.3505 24.7004 3.42568C24.2381 4.46045 24.6195 5.56562 25.0134 6.38249C25.4277 7.24148 25.7959 8.21286 26.1041 9.25976C23.8132 6.58774 20.5212 3.36947 16.7212 1.29799C15.712 0.747876 14.4372 0.655656 13.4121 1.34576C12.4187 2.01459 11.1788 3.19259 10.7689 5.06103C10.4494 6.5171 11.4073 7.76445 12.3727 8.54926C14.2738 10.0949 15.9454 12.0464 17.3812 14.21C13.7023 13.0853 9.88904 13.1172 6.34064 14.8407C4.02136 15.9673 3.14191 18.8076 4.46526 21.0318C4.67774 21.389 4.89454 21.7215 5.10714 22.0266C6.25264 23.6708 8.35415 23.8056 10.0637 23.3632C11.7928 22.9157 13.3356 23.0011 14.6038 23.5138C15.8686 24.0251 16.894 24.9746 17.5749 26.3191C18.2522 27.6564 17.7461 29.3159 16.466 30.2363C15.9548 30.604 15.3966 30.9378 14.8353 31.1575C12.1387 31.9511 9.28035 30.0828 8.22595 26.9176C7.96095 26.1219 7.51255 25.3299 6.89525 24.7654C6.26915 24.1928 5.44914 23.8411 4.49771 24.009C4.05697 24.0868 3.64139 24.1863 3.25562 24.2974C1.07051 24.9268 -0.0859154 27.1166 0.216435 29.2884C0.996775 34.8938 3.83696 38.8668 7.87164 41.393C9.87554 42.6476 12.1949 43.2404 14.5033 43.4309C20.0754 43.8907 25.318 43.1978 28.5238 42.5983C30.7359 42.1846 32.8337 41.1407 34.2376 39.3011C36.235 36.6839 38.8367 31.9771 38.9893 25.1062C39.216 14.8964 35.5456 5.89495 31.8485 1.71505Z" fill="#F25D1D"/>
</svg>
