<svg width="34" height="34" viewBox="0 0 34 34" fill="none" xmlns="http://www.w3.org/2000/svg">
<path fill-rule="evenodd" clip-rule="evenodd" d="M28.7732 0.407917C26.3195 0.20856 22.4261 0 16.875 0C11.3239 0 7.43048 0.20856 4.97678 0.407917C2.51089 0.608265 0.608272 2.51088 0.407917 4.97677C0.20856 7.43048 0 11.3239 0 16.875C0 22.4261 0.208553 26.3195 0.407917 28.7732C0.608265 31.2391 2.51089 33.1418 4.97678 33.3421C7.43048 33.5414 11.3239 33.75 16.875 33.75C22.4261 33.75 26.3195 33.5414 28.7732 33.3421C31.2391 33.1418 33.1418 31.2391 33.3421 28.7732C33.5414 26.3195 33.75 22.4261 33.75 16.875C33.75 11.3239 33.5414 7.43047 33.3421 4.97678C33.1418 2.51089 31.2391 0.608272 28.7732 0.407917ZM13.9922 24.2398C14.0258 25.0059 14.4953 25.6576 15.2541 25.7684C15.6709 25.8293 16.2064 25.875 16.875 25.875C17.5436 25.875 18.0791 25.8293 18.4959 25.7684C19.2547 25.6576 19.7242 25.0059 19.7579 24.2398C19.7959 23.3745 19.839 21.9836 19.8608 19.8608C21.9836 19.839 23.3745 19.7959 24.2398 19.7579C25.0059 19.7242 25.6576 19.2547 25.7684 18.4959C25.8293 18.0791 25.875 17.5436 25.875 16.875C25.875 16.2064 25.8293 15.6709 25.7684 15.2541C25.6576 14.4953 25.0059 14.0258 24.2398 13.9922C23.3745 13.9541 21.9836 13.911 19.8608 13.8892C19.839 11.7664 19.7959 10.3755 19.7579 9.51023C19.7242 8.7441 19.2547 8.09243 18.4959 7.98158C18.0791 7.92075 17.5436 7.875 16.875 7.875C16.2064 7.875 15.6709 7.92075 15.2541 7.98158C14.4953 8.09243 14.0258 8.7441 13.9922 9.51023C13.9541 10.3755 13.911 11.7664 13.8892 13.8892C11.7664 13.911 10.3755 13.9541 9.51023 13.9922C8.7441 14.0258 8.09243 14.4953 7.98158 15.2541C7.92075 15.6709 7.875 16.2064 7.875 16.875C7.875 17.5436 7.92075 18.0791 7.98158 18.4959C8.09243 19.2547 8.7441 19.7242 9.51023 19.7579C10.3755 19.7959 11.7664 19.839 13.8892 19.8608C13.911 21.9836 13.9541 23.3745 13.9922 24.2398Z" fill="#F25D1D"/>
<path d="M13.9922 24.2398C14.0258 25.0059 14.4953 25.6576 15.2541 25.7684C15.6709 25.8293 16.2064 25.875 16.875 25.875C17.5436 25.875 18.0791 25.8293 18.4959 25.7684C19.2547 25.6576 19.7242 25.0059 19.7579 24.2398C19.7959 23.3745 19.839 21.9836 19.8608 19.8608C21.9836 19.839 23.3745 19.7959 24.2398 19.7579C25.0059 19.7242 25.6576 19.2547 25.7684 18.4959C25.8293 18.0791 25.875 17.5436 25.875 16.875C25.875 16.2064 25.8293 15.6709 25.7684 15.2541C25.6576 14.4953 25.0059 14.0258 24.2398 13.9922C23.3745 13.9541 21.9836 13.911 19.8608 13.8892C19.839 11.7664 19.7959 10.3755 19.7579 9.51023C19.7242 8.7441 19.2547 8.09243 18.4959 7.98158C18.0791 7.92075 17.5436 7.875 16.875 7.875C16.2064 7.875 15.6709 7.92075 15.2541 7.98158C14.4953 8.09243 14.0258 8.7441 13.9922 9.51023C13.9541 10.3755 13.911 11.7664 13.8892 13.8892C11.7664 13.911 10.3755 13.9541 9.51023 13.9922C8.7441 14.0258 8.09243 14.4953 7.98158 15.2541C7.92075 15.6709 7.875 16.2064 7.875 16.875C7.875 17.5436 7.92075 18.0791 7.98158 18.4959C8.09243 19.2547 8.7441 19.7242 9.51023 19.7579C10.3755 19.7959 11.7664 19.839 13.8892 19.8608C13.911 21.9836 13.9541 23.3745 13.9922 24.2398Z" fill="white"/>
</svg>
