<svg width="627" height="635" viewBox="0 0 627 635" fill="none" xmlns="http://www.w3.org/2000/svg">
<g clip-path="url(#clip0_1_173)">
<path d="M177.93 482.876C176.174 482.299 174.333 482.246 172.557 481.8C171.967 481.649 171.325 481.459 170.952 480.954C170.434 480.259 170.493 479.145 170.506 478.332C170.539 475.716 171.142 473.093 171.574 470.523C172.026 467.847 172.531 465.185 173.166 462.543C174.477 457.114 175.505 451.626 176.226 446.085C176.914 440.833 177.648 435.345 176.921 430.061C176.606 427.779 176.03 425.359 174.778 423.392C173.881 421.989 172.636 420.973 171.214 420.14C168.462 418.527 165.684 417.104 162.703 415.97C156.373 413.564 149.828 411.688 143.295 409.912C140.189 409.066 137.084 408.194 133.991 407.289C135.767 403.676 137.614 400.096 139.619 396.588C139.718 396.418 139.77 396.247 139.79 396.083C139.796 396.011 139.796 395.939 139.79 395.867C139.77 395.657 139.692 395.467 139.58 395.296C139.469 395.126 139.331 394.975 139.161 394.851C136.881 393.139 134.378 391.513 131.573 390.825C129.221 390.248 126.784 390.431 124.536 391.316C120.402 392.949 116.759 395.913 114.315 399.617C111.989 403.151 110.299 407.099 108.713 411.007C106.937 415.38 105.378 419.839 103.819 424.291C102.593 427.785 101.401 431.464 99.9528 434.788C92.4637 430.9 84.0311 429.49 75.6772 428.854C71.2021 428.513 66.7073 428.382 62.2256 428.205C59.9979 428.12 57.7702 428.015 55.549 427.871C53.3868 427.733 51.2115 427.687 49.9142 429.746C49.2786 430.756 49.082 431.936 48.8658 433.09C48.6758 434.093 48.4399 435.09 48.2499 436.093C47.8371 438.243 47.9878 440.25 48.4399 442.387C48.6627 443.443 50.2876 443.653 50.7725 442.696C51.5915 441.089 51.9977 439.352 52.6202 437.666C53.0788 436.434 53.6685 435.739 55.0379 435.772C57.5146 435.831 59.9389 436.86 62.2584 437.621C64.6368 438.401 67.0152 439.194 69.3543 440.079C74.0981 441.876 78.7567 443.836 83.5921 445.39C88.3228 446.912 93.1583 448.334 98.0593 449.187C100.647 449.633 103.288 449.888 105.909 449.593C107.776 449.383 109.715 448.99 111.308 447.934C112.657 447.043 113.634 445.81 114.61 444.545C115.501 443.384 116.451 442.263 117.27 441.05C119.039 438.42 120.507 435.581 121.942 432.762C123.016 430.657 124.045 428.526 125.054 426.389C128.795 428.212 132.89 429.326 136.92 430.297C141.637 431.431 146.414 432.323 151.184 433.201C155.017 433.909 158.909 434.519 162.683 435.516C159.905 443.738 159.892 452.59 160.626 461.166C161.019 465.756 161.608 470.319 162.126 474.896C162.382 477.178 162.545 479.473 162.821 481.754C163.076 483.938 164.177 485.616 166.424 486.082C167.532 486.311 168.665 486.279 169.792 486.331C170.696 486.37 171.594 486.449 172.498 486.462C174.398 486.488 176.174 486.023 177.936 485.354C179.103 484.915 179.188 483.302 177.936 482.889L177.93 482.876Z" fill="#165C7E"/>
<path d="M385.128 238.156C381.053 238.327 376.977 238.543 372.902 238.805C372.214 238.851 371.624 239.363 371.624 240.084C371.624 240.739 372.207 241.408 372.902 241.362C376.977 241.1 381.053 240.884 385.128 240.713C386.766 240.648 386.773 238.084 385.128 238.156Z" fill="#0B244A"/>
<path d="M378.989 243.31C377.803 243.802 376.748 244.418 375.739 245.211C374.808 245.946 374.022 246.824 373.341 247.781C372.948 248.326 373.229 249.231 373.799 249.532C374.461 249.88 375.129 249.657 375.549 249.073C375.627 248.968 375.706 248.863 375.785 248.752C375.752 248.798 375.627 248.955 375.732 248.824C375.772 248.772 375.817 248.719 375.857 248.673C376.014 248.483 376.184 248.293 376.355 248.109C376.708 247.736 377.088 247.388 377.488 247.067C377.521 247.041 377.672 246.923 377.514 247.047C377.351 247.178 377.541 247.034 377.573 247.001C377.678 246.923 377.79 246.844 377.894 246.772C378.098 246.627 378.314 246.496 378.53 246.365C378.746 246.234 378.962 246.116 379.185 246.005C379.303 245.946 379.421 245.887 379.539 245.834C379.631 245.788 380.03 245.624 379.67 245.775C379.991 245.644 380.253 245.5 380.437 245.185C380.594 244.91 380.666 244.51 380.568 244.201C380.469 243.893 380.273 243.592 379.978 243.434C379.683 243.277 379.303 243.179 378.995 243.303L378.989 243.31Z" fill="#0B244A"/>
<path d="M450.918 228.419C450.538 224.918 449.241 221.22 445.86 219.587C444.575 218.964 443.422 220.564 444.136 221.456L431.825 230.203C431.242 229.462 429.853 229.409 429.584 230.583C429.217 232.163 428.857 233.75 428.503 235.337C425.849 236.642 423.222 237.986 420.608 239.356C414.842 242.372 409.069 245.487 403.644 249.086C401.056 250.804 398.501 252.679 396.476 255.053C394.078 257.872 392.27 261.407 391.431 265.013C390.389 269.498 390.435 274.284 390.396 278.867C390.35 283.706 390.52 288.552 390.887 293.378C391.09 296.059 391.359 298.734 391.693 301.403C391.864 302.8 392.054 304.19 392.263 305.58C392.401 306.537 392.532 307.402 392.322 308.353C391.923 310.183 391.084 312.202 390.003 313.743C388.863 315.362 386.714 316.031 384.931 316.628C383.759 317.021 383.673 318.739 384.931 319.093C389.59 320.411 394.897 321.532 398.96 318.116C400.722 316.634 401.587 314.497 401.495 312.209C401.443 310.917 401.161 309.638 401.161 308.347C401.161 307.134 401.397 305.953 401.738 304.793C402.399 302.511 403.415 300.347 404.129 298.085C404.771 296.053 405.25 293.974 405.636 291.876C406.462 287.358 406.874 282.762 406.901 278.172C406.914 275.786 406.829 273.392 406.586 271.012C406.521 270.389 406.422 269.76 406.363 269.13C410.694 267.045 415.287 265.596 419.835 264.062C421.04 263.656 422.233 263.229 423.419 262.79C422.718 267.904 422.193 273.045 421.951 278.205C421.702 283.49 421.767 288.781 422.134 294.059C422.482 298.964 423.078 303.842 423.7 308.72C424.408 314.228 425.122 319.736 425.679 325.263C425.679 325.309 425.686 325.355 425.692 325.401C423.34 324.28 420.876 323.408 418.341 322.804C417.161 322.529 416.473 323.683 416.899 324.68C419.173 330.037 422.265 334.987 426.033 339.419C426.439 339.898 427.442 339.937 427.841 339.419C432.808 333.013 436.366 325.571 438.05 317.631C439.838 309.193 439.57 300.531 439.406 291.961C439.242 283.418 439.17 274.717 441.575 266.436C442.78 262.272 444.562 258.312 446.128 254.279C447.727 250.168 448.992 245.952 449.824 241.618C450.643 237.356 451.39 232.766 450.924 228.419H450.918Z" fill="#0B244A"/>
<path d="M402.635 214.021C402.792 213.745 402.956 213.483 403.146 213.234C403.068 213.339 403.107 213.286 403.166 213.214C403.231 213.142 403.297 213.063 403.363 212.991C403.467 212.873 403.579 212.762 403.69 212.657C403.802 212.552 403.926 212.447 404.044 212.342C404.195 212.211 403.9 212.447 404.064 212.322C404.129 212.276 404.188 212.231 404.254 212.185C404.529 211.994 404.817 211.824 405.112 211.68C405.184 211.647 405.256 211.614 405.322 211.581C405.191 211.64 405.309 211.581 405.374 211.562C405.544 211.503 405.715 211.444 405.885 211.391C406.055 211.339 406.232 211.299 406.409 211.26C406.494 211.24 406.586 211.227 406.678 211.214C406.54 211.234 406.678 211.214 406.743 211.208C407.123 211.168 407.51 211.162 407.89 211.188C407.982 211.188 408.067 211.201 408.159 211.214C408.381 211.24 408.001 211.188 408.224 211.221C408.427 211.254 408.624 211.299 408.82 211.352C409.469 211.516 410.236 211.142 410.393 210.46C410.55 209.778 410.196 209.064 409.502 208.887C405.97 207.988 402.222 209.549 400.427 212.729C400.1 213.312 400.27 214.152 400.886 214.48C401.502 214.807 402.281 214.643 402.635 214.021Z" fill="#0B244A"/>
<path d="M405.413 216.02C406.232 216.138 407.032 216.335 407.811 216.604C408.113 216.709 408.526 216.63 408.794 216.473C409.063 216.315 409.312 216.014 409.384 215.706C409.456 215.378 409.443 215.011 409.253 214.722C409.063 214.434 408.814 214.25 408.486 214.132C407.707 213.863 406.907 213.666 406.088 213.548C405.918 213.496 405.748 213.489 405.577 213.529C405.407 213.535 405.25 213.588 405.099 213.68C404.837 213.837 404.581 214.139 404.509 214.447C404.437 214.775 404.45 215.142 404.64 215.43C404.811 215.693 405.086 215.968 405.407 216.02H405.413Z" fill="#0B244A"/>
<path d="M309.667 269.996C311.764 266.219 312.583 261.439 315.977 258.515C316.501 258.063 316.442 257.171 315.977 256.705C315.459 256.187 314.692 256.253 314.168 256.705C310.558 259.813 309.68 264.698 307.459 268.704C306.66 270.147 308.868 271.438 309.667 269.996Z" fill="#0B244A"/>
<path d="M318.113 257.807C318.414 257.44 318.742 257.099 319.089 256.777C319.266 256.614 319.443 256.463 319.626 256.312C319.646 256.299 319.856 256.135 319.685 256.266C319.515 256.397 319.725 256.24 319.744 256.22C319.842 256.148 319.934 256.082 320.032 256.017C320.426 255.748 320.832 255.505 321.258 255.289C321.363 255.237 321.467 255.184 321.579 255.132C321.625 255.112 321.677 255.086 321.723 255.066C321.749 255.053 321.992 254.948 321.788 255.033C321.605 255.112 321.782 255.033 321.821 255.02C321.88 254.994 321.946 254.974 322.005 254.948C322.129 254.902 322.254 254.856 322.378 254.817C323.007 254.601 323.492 253.925 323.269 253.243C323.066 252.614 322.378 252.122 321.697 252.352C319.62 253.06 317.72 254.306 316.304 255.997C316.082 256.266 315.931 256.541 315.931 256.902C315.931 257.217 316.068 257.591 316.304 257.807C316.776 258.24 317.654 258.358 318.113 257.807Z" fill="#0B244A"/>
<path d="M318.814 259.42C317.51 260.889 316.311 262.462 315.256 264.121C314.896 264.685 315.118 265.557 315.715 265.872C316.35 266.206 317.077 266.016 317.464 265.413C317.955 264.639 318.48 263.892 319.03 263.157C319.063 263.111 319.095 263.072 319.128 263.026C319.154 262.993 319.272 262.843 319.154 262.993C319.037 263.144 319.154 262.993 319.181 262.961C319.213 262.915 319.246 262.875 319.279 262.829C319.423 262.646 319.567 262.469 319.718 262.285C320.013 261.925 320.314 261.57 320.622 261.223C321.068 260.725 321.153 259.899 320.622 259.413C320.137 258.967 319.292 258.882 318.814 259.413V259.42Z" fill="#0B244A"/>
<path d="M320.498 264.495C319.344 268.606 316.049 272.029 312 273.307C311.344 273.517 310.918 274.199 311.108 274.881C311.285 275.53 312.019 275.982 312.681 275.773C317.608 274.212 321.559 270.16 322.961 265.17C323.407 263.583 320.943 262.908 320.498 264.488V264.495Z" fill="#0B244A"/>
<path d="M213.973 328.247C211.627 328.673 209.295 329.158 206.988 329.755C204.931 330.286 202.815 331.289 202.212 333.512C201.78 335.098 204.243 335.78 204.676 334.194C205.082 332.705 207.093 332.358 208.463 332.023C210.514 331.525 212.571 331.092 214.648 330.712C215.329 330.587 215.709 329.761 215.539 329.138C215.342 328.424 214.648 328.122 213.966 328.247H213.973Z" fill="#0B244A"/>
<path d="M208.188 344.514C211.863 342.921 214.707 339.793 216.155 336.082C216.397 335.459 215.886 334.653 215.264 334.508C214.53 334.344 213.953 334.731 213.691 335.4C213.652 335.512 213.606 335.616 213.56 335.721C213.665 335.472 213.514 335.826 213.501 335.839C213.41 336.036 213.318 336.226 213.22 336.416C213.016 336.81 212.794 337.197 212.551 337.57C212.433 337.747 212.315 337.924 212.191 338.101C212.132 338.18 212.079 338.259 212.021 338.338C211.844 338.574 212.106 338.239 211.935 338.449C211.654 338.796 211.359 339.131 211.051 339.452C210.743 339.773 210.441 340.049 210.12 340.331C209.957 340.468 209.793 340.606 209.629 340.737C209.826 340.586 209.557 340.79 209.518 340.816C209.426 340.882 209.328 340.954 209.236 341.019C208.502 341.524 207.722 341.957 206.903 342.311C206.287 342.58 206.104 343.53 206.445 344.062C206.857 344.698 207.532 344.809 208.194 344.521L208.188 344.514Z" fill="#0B244A"/>
<path d="M225.564 614.949C224.699 613.441 223.827 611.927 222.963 610.419C220.63 606.353 218.298 602.295 215.971 598.229C212.591 592.341 209.216 586.453 205.835 580.565C201.806 573.543 197.77 566.514 193.74 559.492C189.442 551.997 185.144 544.51 180.839 537.015L168.429 515.391C164.839 509.142 161.255 502.887 157.664 496.638C155.017 492.029 152.37 487.413 149.723 482.804C148.432 480.561 147.148 478.319 145.857 476.07C144.501 473.709 142.666 471.69 140.301 470.306C135.793 467.677 130.034 467.651 125.486 470.201C123.167 471.506 121.273 473.454 119.93 475.742C119.223 476.981 118.508 478.214 117.801 479.453C115.861 482.836 113.915 486.22 111.976 489.603C109.113 494.586 106.256 499.576 103.393 504.559C99.8873 510.67 96.3819 516.774 92.8765 522.885C89.0501 529.547 85.2302 536.215 81.4037 542.877C77.5445 549.604 73.6853 556.331 69.8261 563.059C66.229 569.334 62.6253 575.608 59.0282 581.877C55.9749 587.201 52.9216 592.518 49.8683 597.843C47.6799 601.652 45.4915 605.468 43.3031 609.278C42.2613 611.087 41.1867 612.877 40.1842 614.713C40.1449 614.792 40.0991 614.864 40.0532 614.943C39.5683 615.782 40.1842 616.864 41.154 616.864C42.7985 616.864 44.4431 616.864 46.0812 616.864H59.3754C65.9734 616.864 72.5714 616.864 79.1694 616.864H103.15C111.963 616.864 120.782 616.864 129.595 616.864C138.407 616.864 147.272 616.864 156.105 616.864C164.4 616.864 172.695 616.864 180.996 616.864H201.891C206.936 616.864 211.975 616.864 217.02 616.864C219.392 616.864 221.77 616.91 224.142 616.864C224.247 616.864 224.352 616.864 224.457 616.864C225.433 616.864 226.042 615.782 225.557 614.943L225.564 614.949Z" fill="#BFD3B6"/>
<path d="M390.848 614.949C389.649 612.858 388.45 610.766 387.244 608.674C384.021 603.055 380.79 597.43 377.567 591.81C372.856 583.595 368.138 575.386 363.427 567.17C357.766 557.302 352.099 547.434 346.438 537.566C340.364 526.977 334.29 516.394 328.21 505.805C322.241 495.406 316.272 485 310.303 474.601C305.035 465.421 299.767 456.248 294.505 447.069C290.41 439.929 286.309 432.788 282.214 425.648C279.874 421.57 277.535 417.491 275.196 413.413C274.849 412.803 274.502 412.193 274.148 411.59C270.616 405.577 263.291 402.66 256.614 404.876C253.129 406.03 250.265 408.43 248.405 411.584C247.356 413.406 246.314 415.229 245.266 417.045C242.436 421.976 239.605 426.907 236.775 431.844C232.594 439.135 228.407 446.42 224.227 453.711C219.103 462.635 213.986 471.559 208.862 480.489C203.293 490.193 197.724 499.891 192.161 509.595C186.5 519.463 180.839 529.331 175.171 539.192C169.91 548.358 164.649 557.525 159.394 566.691C154.945 574.441 150.503 582.185 146.054 589.935C142.843 595.528 139.639 601.114 136.429 606.707C134.915 609.343 133.349 611.953 131.888 614.615C131.822 614.726 131.757 614.838 131.691 614.956C131.207 615.795 131.822 616.877 132.792 616.877C135.098 616.877 137.398 616.877 139.705 616.877H158.345C167.591 616.877 176.842 616.877 186.087 616.877C197.291 616.877 208.495 616.877 219.7 616.877C232.057 616.877 244.414 616.877 256.772 616.877C269.162 616.877 281.545 616.877 293.935 616.877C305.565 616.877 317.195 616.877 328.825 616.877C338.588 616.877 348.351 616.877 358.114 616.877C365.183 616.877 372.246 616.877 379.316 616.877C382.638 616.877 385.973 616.943 389.295 616.877C389.439 616.877 389.583 616.877 389.734 616.877C390.71 616.877 391.32 615.795 390.835 614.956L390.848 614.949Z" fill="#0B244A"/>
<path d="M583.048 612.733C581.397 609.861 579.753 606.989 578.101 604.117C573.646 596.348 569.184 588.584 564.728 580.815C558.216 569.465 551.703 558.121 545.19 546.772C537.334 533.081 529.478 519.39 521.622 505.7C513.117 490.875 504.606 476.05 496.101 461.225C487.695 446.577 479.295 431.936 470.889 417.288C463.341 404.135 455.793 390.982 448.245 377.829L430.246 346.468C426.511 339.957 422.77 333.446 419.035 326.935C418.249 325.571 417.476 324.201 416.683 322.844C413.728 317.729 408.362 314.49 402.36 315.022C397.453 315.454 393.22 318.195 390.704 322.418C389.216 325.008 387.729 327.604 386.242 330.194C382.193 337.249 378.143 344.304 374.101 351.353C368.138 361.739 362.176 372.131 356.213 382.517C348.914 395.237 341.615 407.958 334.316 420.671L310.329 462.471L286.204 504.507C278.675 517.62 271.154 530.734 263.625 543.847C257.263 554.928 250.907 566.009 244.545 577.09C239.985 585.031 235.431 592.971 230.871 600.911C228.702 604.688 226.461 608.432 224.365 612.248C224.273 612.412 224.181 612.569 224.083 612.733C223.598 613.572 224.214 614.654 225.184 614.654C228.381 614.654 231.579 614.654 234.776 614.654H260.657C273.499 614.654 286.335 614.654 299.177 614.654C314.732 614.654 330.293 614.654 345.848 614.654C363.001 614.654 380.161 614.654 397.315 614.654C414.514 614.654 431.714 614.654 448.92 614.654C465.064 614.654 481.215 614.654 497.359 614.654C510.916 614.654 524.466 614.654 538.022 614.654C547.837 614.654 557.652 614.654 567.461 614.654C572.08 614.654 576.699 614.739 581.318 614.654C581.522 614.654 581.725 614.654 581.921 614.654C582.898 614.654 583.507 613.572 583.022 612.733H583.048Z" fill="#165C7E"/>
<path d="M597.279 584.48C596.657 582.978 595.72 581.641 594.436 580.624C593.106 579.575 591.068 579.031 590.642 577.195C590.256 575.543 590.97 573.707 591.559 572.186C592.306 570.265 593.158 568.416 593.663 566.409C594.665 562.429 594.619 558.095 592.614 554.423C590.865 551.23 587.799 548.857 584.136 548.463C580.362 548.057 576.791 549.781 573.194 550.614C570.429 551.25 567.572 551.06 565.541 549.112C563.962 547.598 563.038 545.434 562.33 543.329C561.511 540.89 560.928 538.379 560.155 535.92C559.415 533.586 558.504 531.252 556.958 529.324C555.261 527.213 552.732 525.914 550.012 525.849C546.088 525.757 542.648 528.203 539.758 530.589C537.039 532.838 534.602 535.363 531.234 536.641C528.548 537.664 525.081 538.064 523.227 535.363C522.153 533.796 521.727 531.875 520.593 530.334C519.597 528.983 518.326 527.868 516.845 527.075C513.877 525.482 510.274 525.069 507.03 525.96C503.492 526.931 500.537 529.39 498.467 532.36C497.405 533.881 496.586 535.579 495.997 537.343C495.381 539.192 495.106 541.126 494.706 543.034C494.064 546.096 492.793 549.735 489.169 550.129C487.656 550.293 486.719 549.545 486.103 548.208C485.31 546.463 484.688 544.719 482.755 543.952C479.505 542.661 476.019 545.421 474.276 547.945C472.697 550.24 471.603 554.135 468.628 555.02C465.817 555.859 463.681 553.106 462.037 551.27C459.848 548.817 457.549 546.529 454.115 546.149C450.623 545.762 446.987 547.362 444.595 549.873C441.778 552.837 440.507 556.895 439.982 560.869C439.419 565.131 439.57 569.471 440.218 573.714C440.873 577.956 442.138 582.06 443.894 585.981C444.176 586.611 445.093 586.762 445.643 586.44C445.755 586.375 445.84 586.296 445.919 586.217L456.585 596.394C456.146 596.944 456.088 597.849 456.841 598.361C470.358 607.435 487.623 603.691 502.83 603.724C520.561 603.763 537.098 610.825 554.507 613.12C561.642 614.058 568.856 614.012 575.861 612.215C582.111 610.609 588.251 607.593 592.595 602.708C596.834 597.941 599.874 590.761 597.273 584.473L597.279 584.48Z" fill="#0B244A"/>
<path d="M589.568 595.738C588.716 592.905 586.711 590.571 583.808 589.804C582.478 589.45 581.037 589.417 579.674 589.712C580.237 586.034 579.032 582.028 576.621 579.149C572.106 573.76 564.414 574.474 559.631 579.012C559.736 576.822 559.729 574.625 559.592 572.429C559.271 567.419 558.786 561.164 554.92 557.472C551.795 554.489 547.182 553.978 543.146 555.053C538.717 556.233 535.218 559.171 532.872 563.059C530.408 567.157 529.275 571.851 528.456 576.546C523.594 570.186 513.904 568.357 506.664 571.865C505.307 572.52 504.082 573.392 503.007 574.428C502.123 569.157 498.847 564.246 494.09 561.734C488.245 558.653 481.163 560.115 476.72 564.947C475.77 565.977 474.977 567.131 474.375 568.376C472.553 563.911 468.936 560.187 464.455 558.279C457.83 555.466 450.289 557.466 445.349 562.561C443.593 564.37 442.256 566.488 441.391 568.803C437.466 559.689 431.229 550.666 421.152 548.28C409.967 545.631 398.029 551.978 394.471 562.987C392.925 567.773 392.991 573.032 394.635 577.759C390.494 576.015 385.574 576.172 381.675 578.612C377.488 581.228 375.064 586.027 375.097 590.873C371.237 588.748 366.402 588.893 362.32 590.696C356.81 593.128 353.54 598.662 352.682 604.472C352.223 607.586 352.335 610.74 352.95 613.828C353.317 615.677 353.9 617.192 355.617 618.156C358.933 620.011 363.447 619.572 367.097 619.552C369.396 619.539 371.729 619.48 374.016 619.788C375.509 619.985 377.528 620.372 378.399 621.657C379.316 623.014 381.531 621.736 380.607 620.365C380.574 620.319 380.541 620.28 380.509 620.241L386.091 615.972C386.235 616.175 386.458 616.339 386.766 616.431C403.461 621.191 420.686 624.09 438.017 625.073C455.413 626.057 472.822 625.014 490.015 622.221C498.781 620.798 507.542 619.119 516.433 618.779C525.363 618.438 534.078 620.005 542.884 621.25C550.55 622.332 558.321 623.08 565.987 621.618C572.296 620.418 578.554 617.808 583.265 613.356C587.825 609.055 591.487 602.131 589.568 595.738Z" fill="#BFD3B6"/>
<path d="M403.035 319.795C403.035 304.059 403.035 288.322 403.035 272.586C403.035 253.538 403.035 234.491 403.035 215.443C403.035 196.396 403.035 175.139 403.035 154.99C403.035 134.841 403.035 116.383 403.035 97.08C403.035 80.8322 403.035 64.5911 403.035 48.3433V43.2946C403.035 41.6488 400.48 41.6488 400.48 43.2946C400.48 59.0309 400.48 74.7672 400.48 90.5035C400.48 109.551 400.48 128.599 400.48 147.646C400.48 166.694 400.48 187.951 400.48 208.1C400.48 228.249 400.48 246.706 400.48 266.009C400.48 282.257 400.48 298.498 400.48 314.746V319.795C400.48 321.441 403.035 321.441 403.035 319.795Z" fill="#0B244A"/>
<path d="M537.662 2.83256C537.662 2.20311 537.596 1.5671 537.472 0.931087C537.334 0.255737 536.528 -0.137671 535.899 0.0393622C535.165 0.242623 534.903 0.92453 535.008 1.61299C535.06 1.95395 535.093 2.28835 535.119 2.6293C535.257 7.08137 530.402 10.2352 526.484 11.1072C523.502 11.7695 520.331 11.2318 517.396 10.5827C514.021 9.84178 510.713 8.81892 507.286 8.3206C496.226 6.71419 484.806 11.9662 478.666 21.3031C472.265 31.0268 474.204 45.2616 463.786 52.3889C459.357 55.4181 453.735 56.7426 448.454 55.5886C442.564 54.3034 437.617 50.612 432.775 47.2155C428.215 44.0158 423.556 41.1177 418.17 39.5375C413.518 38.1737 407.975 37.6033 403.598 40.1342C402.57 40.7309 401.639 41.498 400.853 42.3897C400.041 43.3077 400.84 44.5535 401.757 44.6059V123.071C401.069 123.006 400.48 123.707 400.48 124.35C400.48 125.097 401.069 125.563 401.757 125.628C415.464 126.92 429.623 125.412 442.76 121.275C449.273 119.222 455.622 116.482 461.414 112.849C467.272 109.171 472.415 104.496 476.917 99.2503C486.444 88.1562 493.035 74.5443 495.78 60.1783C496.455 56.6377 496.914 53.0511 497.124 49.4514C497.327 45.9501 497.189 42.4422 497.464 38.9474C497.707 35.787 498.323 32.5283 500.177 29.8859C502.031 27.2566 504.999 25.9584 508.059 25.3486C514.618 24.0504 521.556 25.1191 527.545 21.5588C533.154 18.2279 536.941 12.1694 537.622 5.69788C537.721 4.73403 537.727 3.77674 537.668 2.826L537.662 2.83256Z" fill="#87F0C9"/>
<path d="M1.27111 617.166C52.155 613.664 103.268 614.641 154.146 611.605C161.412 611.186 168.331 610.753 174.516 609.186C175.846 608.852 177.261 608.379 178.598 608.084C181.252 607.501 184.043 607.245 186.5 607.062C193.013 606.524 199.146 606.734 205.364 605.744C209.681 604.734 213.691 603.691 218.612 603.082C226.684 601.98 235.091 603.613 242.947 605.16C249.839 606.439 256.791 607.416 263.763 608.078C284.664 610.065 305.709 609.297 326.349 605.691C347.82 601.796 370.484 595.449 392.84 599.187C403.631 600.878 413.584 604.563 424.107 605.908C440.179 607.789 456.717 605.245 473.176 604.806C489.425 604.052 507.974 606.884 523.869 608.373C581.535 614.281 617.84 606.544 618.508 540.215C618.607 532.996 618.292 525.751 617.768 518.518C617.716 517.764 618.286 517.102 619.039 517.05C619.694 517.004 620.271 517.43 620.448 518.033C624.523 532.465 627.229 547.126 626.987 562.272C626.437 600.118 604.821 622.804 568.286 629.571C541.626 634.567 516.099 631.597 489.831 631.007C485.474 630.935 481.569 630.922 477.454 631.269C459.678 632.974 441.765 636.344 423.537 634.403C419.435 633.944 415.032 633.243 411.061 632.246C402.956 630.299 395.579 627.558 387.854 625.768C382.527 624.549 377.272 624.037 371.709 623.998C350.461 624.011 328.459 629.564 306.869 629.886C282.259 630.771 257.663 628.01 233.839 621.978C230.707 621.264 227.608 620.549 224.548 620.319C218.809 619.834 213.03 621.355 207.041 622.175C198.838 622.968 190.444 621.952 182.49 622.647C181.972 622.699 181.606 622.752 181.147 622.831C181.016 622.857 181.003 622.85 180.682 622.929C171.961 625.073 162.631 625.093 154.532 625.06C132.576 624.955 110.6 624.135 88.7094 623.165C59.572 621.814 30.5133 620.247 1.36284 619.887C0.609347 619.88 0.00655086 619.264 0.013103 618.51C0.0196551 617.795 0.583139 617.211 1.28422 617.159L1.27111 617.166Z" fill="#C5E2E0"/>
<path d="M322.188 499.327C332.829 504.323 346.542 501.418 353.894 492.396C355.656 490.232 356.862 487.8 357.963 485.197C361.062 477.493 363.106 468.346 369.108 461.769C379.919 449.639 398.534 446.354 413.296 452.577C419.016 454.845 424.441 459.324 428.103 464.11C430.384 466.956 432.185 469.447 433.738 470.988C435.226 472.431 436.366 473.375 438.246 473.001C445.984 470.772 450.302 461.789 455.033 455.652C460.32 448.361 468.13 440.696 477.487 438.342C487.59 435.424 498.309 438.611 506.179 444.997C509.579 447.653 512.082 450.282 514.343 452.603C517.9 456.268 520.174 459.12 523.856 461.579C527.788 464.182 534.058 460.412 538.107 458.76C543.179 456.38 548.872 453.829 554.586 453.704C561.426 453.364 570.141 455.56 573.05 462.569C573.521 463.966 574.524 466.628 572.447 466.962C571.916 467.015 571.471 466.766 571.163 466.385C566.661 461.264 558.72 464.425 554.107 467.867C553.112 468.621 552.253 469.559 551.329 470.372C547.601 473.834 543.834 477.637 539.463 480.404C528.286 487.846 515.456 486.633 504.619 479.269C499.633 475.978 496.422 472.975 492.334 469.762C490.211 468.116 488.055 466.418 485.775 465.717C481.615 464.418 474.525 472.26 471.374 475.486C464.612 482.981 456.802 490.082 446.784 493.144C441.824 494.691 435.802 494.855 430.718 493.006C423.903 490.757 418.714 485.046 415.235 479.368C414.147 477.656 411.861 473.926 410.675 472.536C404.044 464.523 390.219 463.389 381.354 468.752C376.551 471.513 373.983 475.716 371.382 480.784C368.787 485.826 366.107 491.865 362.051 496.265C358.998 499.72 355.001 502.48 350.847 504.198C347.519 505.582 344.02 506.415 340.521 506.69C333.536 507.221 326.395 505.575 320.806 501.641C319.535 500.645 320.57 498.605 322.195 499.294L322.188 499.327Z" fill="#C5E2E0"/>
<path d="M49.6586 558.967C51.8733 559.413 54.0682 558.705 55.9552 557.453C62.6908 552.765 63.3264 544.234 68.7253 538.038C75.1071 530.386 85.7478 527.147 95.4777 529.127C101.801 530.314 107.737 534.655 112.173 538.805C115.527 541.789 119.065 545.441 122.702 546.923C128.487 549.342 133.493 540.799 136.383 536.412C137.811 534.15 139.167 531.632 140.701 529.396C145.923 521.843 152.645 514.742 162.087 511.903C169.831 509.523 178.552 511.431 184.888 516.545C190.831 521.331 193.262 526.151 197.029 530.675C192.731 528.249 190.084 533.566 196.82 527.96C199.781 525.482 202.716 523.187 206.353 521.587C216.758 516.624 229.338 519.423 233.498 531.081C234.213 533.081 233.61 532.281 232.529 532.353C232.28 532.353 232.103 532.412 231.906 532.524C231.874 532.544 231.834 532.576 231.801 532.616C231.71 532.707 231.756 532.747 231.749 532.839C232.005 533.166 232.378 533.16 232.935 533.206C235.064 533.219 237.941 532.393 240.254 531.894C242.409 531.54 244.598 531.599 246.609 532.104C250.174 532.825 254.754 536.005 253.731 540.261C253.594 541.421 252.061 541.821 251.379 540.89C250.98 540.399 250.554 539.684 249.997 539.586C248.103 539.199 245.567 540.353 244.192 541.664C243.851 542.038 243.739 542.248 243.268 542.634C241.518 544.195 240.064 545.441 237.725 546.772C229.783 551.152 222.275 547.985 217.131 541.271C216.64 540.7 216.201 540.222 215.913 539.985C215.618 539.743 215.382 539.618 215.356 539.782C215.31 539.933 215.487 540.176 215.591 540.307C215.88 540.759 216.338 541.074 216.79 541.343C217.583 541.769 218.166 541.867 218.265 542.018C218.389 542.175 218.173 542.411 217.865 542.772C217.439 543.264 216.804 543.998 216.404 544.641C216.358 544.706 216.338 544.739 216.227 544.877L215.028 546.346C211.863 550.365 205.822 556.017 199.093 557.407C192.829 559.053 185.229 557.328 180.295 553.584C175.27 549.932 172.498 545.487 169.615 540.772C168.429 538.779 167.525 537.448 167.283 537.009C167.243 536.91 167.23 536.871 167.237 536.799L167.263 536.773C167.433 536.642 167.741 536.589 167.938 536.432C168.069 536.32 168.049 536.176 167.807 536.104C167.571 536.032 167.132 536.038 166.581 536.189C163.653 537.002 160.37 539.867 158.169 542.431C154.539 546.909 151.597 551.289 147.318 555.492C139.908 563.026 129.608 567.826 118.902 563.937C114.276 562.416 109.67 558.554 106.885 555.414C103.268 551.525 100.503 547.316 96.9126 544.077C95.517 542.785 93.9838 541.775 92.2279 541.054C86.593 538.845 79.6084 539.992 74.8909 543.926C71.1824 547.06 68.6926 552.037 65.2068 555.905C62.1667 559.269 58.0585 562.003 53.4065 562.318C51.8405 562.403 50.2287 562.147 48.8069 561.538C48.1123 561.236 47.7913 560.43 48.0927 559.741C48.3613 559.125 49.0296 558.803 49.6586 558.948V558.967Z" fill="#C5E2E0"/>
<path d="M342.303 404.515C340.148 406.24 337.605 407.472 334.971 408.279C333.196 408.823 331.132 409.459 329.291 409.066C327.377 408.653 325.844 407.361 324.547 405.964C322.987 404.286 321.71 402.365 320.458 400.45C315.295 392.549 309.169 385.258 303.049 378.078C296.039 369.85 288.681 361.837 280.543 354.697C276.834 351.438 272.942 348.35 268.775 345.701C267.969 345.189 267.15 344.698 266.318 344.226C266.384 344.173 266.456 344.127 266.521 344.075C267.262 343.412 267.563 342.449 267.491 341.478C267.327 339.065 265.984 336.331 263.822 335.118C262.747 334.515 261.522 334.371 260.336 334.712C259.851 334.856 259.576 335.184 259.478 335.564L244.932 330.974L242.239 328.142C242.639 327.729 242.802 327.139 242.481 326.588C242.16 326.044 241.289 325.716 240.732 326.129C236.912 328.974 234.154 333.118 233.145 337.793C232.614 340.252 232.686 342.783 232.516 345.281C232.358 347.602 232.155 349.937 232.398 352.258C232.653 354.697 233.361 357.031 234.599 359.155C235.516 360.736 236.683 362.178 237.882 363.555C240.706 366.794 243.884 369.712 246.963 372.715C249.82 375.495 252.893 378.36 255.009 381.789C251.025 386.635 246.898 391.375 243.215 396.464C241.295 399.112 239.494 401.86 237.96 404.751C236.676 407.171 235.628 409.708 234.56 412.226C232.529 417.026 230.484 422.238 226.802 426.048C225.105 427.805 222.229 428.913 222.524 431.805C222.759 434.146 225.302 435.824 227.13 436.991C229.43 438.46 231.952 439.732 234.403 440.938C235.634 441.542 237.05 441.646 238.275 440.951C239.494 440.256 240.247 438.801 240.011 437.411C239.788 436.106 238.773 435.254 237.849 434.408C236.892 433.529 236.309 432.487 236.073 431.208C235.589 428.533 236.722 425.845 238.393 423.805C240.352 421.425 242.894 419.603 245.273 417.668C247.926 415.505 250.508 413.242 253.004 410.902C257.938 406.266 262.708 401.309 266.849 395.939C268.821 393.375 270.584 390.543 271.265 387.336C272.005 383.855 271.547 380.275 271.088 376.787C270.931 375.6 270.754 374.413 270.57 373.226C271.842 373.947 273.106 374.688 274.338 375.475C277.666 377.6 281.191 380.052 283.445 383.357C285.686 386.635 287.193 390.366 289.48 393.618C290.679 395.316 292.094 396.634 293.693 397.945C295.619 399.526 297.598 401.047 299.609 402.515C307.793 408.522 316.481 413.8 324.639 419.858C325.654 420.612 326.663 421.379 327.659 422.16C328.255 422.625 328.871 422.638 329.468 422.16C335.096 417.681 341.314 412.836 344.302 406.082C344.898 404.732 343.456 403.604 342.297 404.535L342.303 404.515Z" fill="#BFD3B6"/>
<path d="M196.741 348.71C195.902 347.34 194.664 346.068 193.609 344.855C192.875 344.016 191.86 343.465 190.726 343.773C189.684 344.055 188.833 344.96 188.059 345.675C186.454 347.17 185.019 348.822 183.532 350.428C180.682 353.516 177.576 356.074 173.782 357.91C166.391 361.483 157.979 362.276 149.841 362.742C151.027 361.155 152.062 359.464 152.894 357.647C154.008 355.208 154.853 352.533 154.205 349.838C153.549 347.104 150.843 345.288 148.085 346.363C144.684 347.687 143.144 351.582 142.712 354.952C142.273 358.355 142.968 361.857 144.678 364.834C142.843 366.696 140.832 368.394 138.761 369.961C133.795 373.731 128.487 377.055 123.298 380.511C116.694 384.91 110.096 389.31 103.491 393.716C102.744 394.215 102.58 395.467 103.491 395.926L134.096 411.321C137.012 412.79 139.927 414.252 142.843 415.721C143.616 416.114 144.429 415.767 144.717 414.954C148.969 403.027 151.086 390.339 150.955 377.678C157.173 377.318 163.351 376.203 169.196 374.013C175.879 371.508 181.953 367.692 187.24 362.906C190.045 360.362 192.613 357.569 194.965 354.605C196.361 352.854 198.15 351.018 196.734 348.717L196.741 348.71Z" fill="#0B244A"/>
<path d="M398.632 322.818C401.777 322.804 404.883 321.991 407.635 320.47C408.237 320.136 408.434 319.303 408.093 318.72C407.752 318.136 406.953 317.926 406.344 318.261C403.978 319.565 401.318 320.247 398.632 320.26C397.964 320.26 397.321 320.844 397.354 321.539C397.387 322.234 397.918 322.818 398.632 322.818Z" fill="#0B244A"/>
<path d="M449.234 216.597C448.389 215.85 447.347 215.299 446.39 214.709C445.263 214.021 444.13 213.339 442.996 212.67C438.705 210.145 434.321 207.772 429.859 205.562C425.22 203.261 420.496 201.15 415.707 199.189C416.139 194.855 417.07 190.285 415.235 186.226C414.744 185.131 413.99 184.089 413.047 183.341C411.73 182.299 410.439 182.745 409.259 183.728C407.484 185.216 406.684 187.151 406.874 189.459C407.064 191.8 408.001 194.003 409.135 196.042C410.02 197.629 411.186 199.543 412.778 200.605C411.69 204.33 410.236 207.936 408.408 211.358C407.091 213.83 405.518 216.938 403.12 218.676C402.793 216.735 401.849 214.958 399.589 214.735C396.81 214.46 394.235 216.945 392.532 218.846C390.704 220.892 389.289 223.469 389.321 226.282C389.348 228.721 390.494 230.911 392.368 232.412C391.562 232.832 390.743 233.238 389.931 233.638C388.397 234.392 386.753 235.088 385.547 236.34C384.689 237.225 384.106 238.366 383.798 239.559C383.221 241.789 383.483 244.405 384.781 246.352C386.196 248.477 388.548 249.329 391.025 248.87C393.233 248.457 395.421 247.683 397.551 246.968C400.244 246.064 402.694 244.805 405.178 243.415C408.604 241.494 411.92 239.389 415.117 237.107C416.69 235.986 418.282 234.845 419.763 233.593C420.339 235.147 420.922 236.694 421.505 238.241C421.794 238.995 422.619 239.454 423.379 239.008C432.126 233.842 440.526 228.105 448.526 221.836C449.3 221.226 450.158 220.59 450.387 219.568C450.643 218.414 450.086 217.345 449.234 216.591V216.597Z" fill="#BFD3B6"/>
<path d="M314.784 274.278C314.457 273.445 313.873 272.77 313.284 272.114C312.707 271.471 312.17 270.776 311.547 270.18C310.355 269.039 308.894 268.632 307.302 269.163C305.264 269.839 303.718 271.734 302.191 273.156C299 276.127 295.914 279.418 292.337 281.929C285.247 286.913 276.277 287.063 267.923 287.044C268.638 284.841 268.965 282.493 268.939 280.185C268.913 277.818 268.434 275.163 266.646 273.458C264.746 271.642 260.86 270.77 259.222 273.379C258.482 274.56 258.324 276.159 258.193 277.51C258.069 278.808 258.115 280.113 258.311 281.405C258.672 283.785 259.727 286.165 261.627 287.706C261.863 287.896 262.105 288.067 262.354 288.23C256.778 295.659 250.311 302.413 243.156 308.327C235.589 314.582 227.215 319.88 218.337 324.063C217.085 324.653 215.827 325.217 214.563 325.762C213.403 326.26 212.145 326.811 211.713 328.115C211.208 329.637 212.171 330.987 212.951 332.213C213.862 333.643 214.772 335.072 215.683 336.508C215.985 336.987 216.568 337.256 217.125 337.098C223.651 335.236 230.039 332.876 236.224 330.076C230.622 338.292 226.344 347.353 222.491 356.533C221.115 359.805 219.798 363.103 218.474 366.394C218.042 367.476 219.464 368.355 220.348 367.837C225.911 364.604 231.474 361.365 237.037 358.133C239.867 356.487 242.691 354.841 245.522 353.202C246.714 352.507 247.848 351.851 248.405 350.52C248.929 349.268 248.994 347.825 249.328 346.514C249.898 344.252 250.763 342.095 251.884 340.062C252.296 341.078 252.755 342.075 253.26 343.045C254.105 344.678 255.075 346.475 256.968 347.038C258.803 347.583 260.86 346.815 262.557 346.127C264.077 345.511 265.506 344.744 266.855 343.826C267.019 343.786 267.183 343.727 267.34 343.642C268.356 343.091 268.782 341.727 269.155 340.724C269.699 339.262 270.315 337.833 270.911 336.39C273.335 330.581 275.963 324.785 277.673 318.706C279.095 313.645 279.625 308.432 278.708 303.232C278.603 302.655 278.479 302.078 278.341 301.501C281.368 301.265 284.395 301.016 287.39 300.498C290.515 299.954 293.627 299.121 296.451 297.639C299.754 295.895 302.315 293.063 304.668 290.217C307.551 286.729 310.316 283.142 313.127 279.589C314.339 278.061 315.597 276.31 314.804 274.278H314.784Z" fill="#165C7E"/>
<path d="M195.64 342.514C195.738 342.167 195.856 341.826 196.001 341.491L195.87 341.8C196.125 341.203 196.44 340.639 196.813 340.114C196.859 340.049 196.911 339.99 196.957 339.924C196.734 340.252 196.885 340.016 196.944 339.944C197.042 339.819 197.147 339.701 197.252 339.583C197.475 339.341 197.711 339.111 197.96 338.895C198.464 338.456 198.445 337.531 197.96 337.085C197.422 336.587 196.695 336.613 196.151 337.085C194.723 338.331 193.688 340.016 193.17 341.832C192.987 342.475 193.393 343.255 194.061 343.406C194.729 343.557 195.437 343.203 195.634 342.514H195.64Z" fill="#0B244A"/>
<path d="M201.321 339.472C202.363 338.705 203.477 338.056 204.649 337.525C204.925 337.4 205.16 337.039 205.239 336.757C205.324 336.449 205.285 336.043 205.108 335.774C204.931 335.505 204.669 335.262 204.341 335.184L204.001 335.138C203.771 335.138 203.555 335.197 203.359 335.315C202.186 335.846 201.065 336.495 200.03 337.262C199.755 337.465 199.539 337.682 199.44 338.029C199.355 338.338 199.395 338.744 199.571 339.013C199.748 339.282 200.01 339.524 200.338 339.603C200.666 339.682 201.052 339.675 201.321 339.472Z" fill="#0B244A"/>
<path d="M202.985 342.894C203.883 342.436 204.78 341.977 205.671 341.518C205.947 341.373 206.176 341.045 206.261 340.75C206.346 340.455 206.307 340.036 206.13 339.767C205.953 339.498 205.691 339.255 205.364 339.177C205.016 339.098 204.695 339.144 204.381 339.308C203.483 339.767 202.585 340.226 201.694 340.685C201.419 340.829 201.19 341.157 201.105 341.452C201.019 341.747 201.059 342.167 201.236 342.436C201.413 342.704 201.675 342.947 202.002 343.026C202.35 343.104 202.671 343.058 202.985 342.894Z" fill="#0B244A"/>
<path d="M203.319 344.534C203.077 344.776 202.821 345.006 202.559 345.229C202.435 345.334 202.31 345.439 202.186 345.537C202.009 345.675 202.422 345.366 202.107 345.596C202.042 345.642 201.976 345.694 201.911 345.74C201.354 346.14 200.764 346.494 200.155 346.809C200.01 346.881 199.866 346.953 199.722 347.019C199.657 347.052 199.283 347.215 199.473 347.137C199.159 347.268 198.838 347.386 198.51 347.497C197.842 347.72 197.154 347.884 196.459 348.002C195.765 348.12 195.372 348.966 195.568 349.576C195.797 350.291 196.433 350.586 197.141 350.468C200.141 349.963 202.959 348.481 205.128 346.35C205.606 345.878 205.632 345.006 205.128 344.54C204.623 344.075 203.83 344.042 203.319 344.54V344.534Z" fill="#0B244A"/>
<path d="M208.666 334.967C208.613 335.046 208.554 335.131 208.495 335.203L208.692 334.948C208.456 335.249 208.188 335.512 207.886 335.748L208.142 335.551C207.827 335.793 207.486 335.99 207.126 336.141L207.434 336.01C207.198 336.108 206.962 336.187 206.713 336.239C206.405 336.311 206.104 336.561 205.947 336.829C205.789 337.098 205.717 337.505 205.816 337.813C206.038 338.495 206.687 338.869 207.388 338.705C208.823 338.37 210.048 337.459 210.874 336.252C211.051 335.99 211.084 335.564 211.005 335.269C210.926 334.974 210.697 334.653 210.415 334.502C210.12 334.344 209.76 334.266 209.432 334.371C209.105 334.476 208.862 334.672 208.666 334.961V334.967Z" fill="#0B244A"/>
<path d="M238.786 330.017C247.31 325.348 254.97 319.126 261.279 311.73C262.341 310.484 260.539 308.668 259.471 309.92C253.292 317.172 245.849 323.237 237.495 327.807C236.054 328.601 237.338 330.804 238.786 330.017Z" fill="#0B244A"/>
<path d="M274.711 294.25C275.373 295.227 275.95 296.256 276.428 297.338C276.448 297.384 276.605 297.757 276.507 297.515C276.566 297.659 276.625 297.803 276.677 297.948C276.782 298.216 276.88 298.492 276.972 298.767C277.162 299.338 277.326 299.915 277.463 300.498C277.614 301.147 278.394 301.6 279.036 301.39C279.717 301.167 280.091 300.518 279.927 299.816C279.35 297.384 278.328 295.036 276.919 292.964C276.546 292.414 275.779 292.112 275.17 292.505C274.62 292.86 274.312 293.666 274.711 294.256V294.25Z" fill="#0B244A"/>
<path d="M147.934 380.281C148.53 380.17 149.127 380.058 149.729 379.947C149.893 379.908 150.037 379.829 150.162 379.717C150.299 379.626 150.411 379.508 150.489 379.357C150.581 379.213 150.634 379.049 150.64 378.878C150.679 378.708 150.673 378.537 150.62 378.367C150.522 378.059 150.326 377.757 150.031 377.6L149.723 377.469C149.493 377.41 149.271 377.41 149.041 377.469C148.445 377.58 147.849 377.691 147.246 377.803C147.082 377.842 146.938 377.921 146.814 378.032C146.676 378.124 146.565 378.242 146.486 378.393C146.394 378.537 146.342 378.701 146.335 378.872C146.296 379.042 146.303 379.213 146.355 379.383C146.453 379.691 146.65 379.993 146.945 380.15L147.253 380.281C147.482 380.34 147.705 380.34 147.934 380.281Z" fill="#BFD3B6"/>
<path d="M140.91 365.371C131.043 372.216 121.116 379.108 112.389 387.409C109.938 389.736 107.599 392.182 105.385 394.739C104.317 395.978 106.112 397.795 107.193 396.549C114.918 387.592 124.261 380.262 133.854 373.423C136.619 371.449 139.41 369.515 142.194 367.581C143.538 366.65 142.26 364.434 140.904 365.371H140.91Z" fill="#BFD3B6"/>
<path d="M119.766 423.51C120.841 424.815 122.165 425.93 123.619 426.782C124.196 427.123 125.047 426.933 125.369 426.323C125.69 425.713 125.526 424.933 124.91 424.573C124.412 424.278 123.934 423.956 123.482 423.609L123.737 423.805C122.938 423.183 122.217 422.481 121.575 421.701C121.378 421.465 120.966 421.327 120.671 421.327C120.356 421.327 119.983 421.465 119.766 421.701C119.55 421.937 119.38 422.265 119.393 422.606C119.406 422.96 119.544 423.235 119.766 423.51Z" fill="#0B244A"/>
<path d="M144.756 375.088C144.756 375.088 144.697 375.095 144.665 375.095L143.95 365.299C145.49 365.102 145.47 362.65 143.859 362.755C136.311 363.247 128.867 364.768 121.922 367.797C115.436 370.623 109.591 374.78 104.631 379.809C101.984 382.491 99.5859 385.409 97.3909 388.464C96.3885 389.861 95.0977 391.375 95.3729 393.041C93.1648 394.51 90.7864 395.677 88.2769 396.496C87.6217 396.713 87.1958 397.382 87.3858 398.07C87.5627 398.713 88.2966 399.178 88.9583 398.962C91.6644 398.077 94.2393 396.844 96.6112 395.283C97.4171 396.26 98.4 397.185 99.2452 398.044C99.3828 398.188 99.5335 398.319 99.6907 398.444C99.3893 399.053 99.0224 399.63 98.6096 400.168C98.59 400.194 98.5572 400.234 98.5441 400.247C98.472 400.332 98.4 400.417 98.3344 400.503C98.2034 400.66 98.0724 400.811 97.9348 400.962C97.6465 401.276 97.3516 401.584 97.0437 401.879C96.7423 402.175 96.4278 402.463 96.1067 402.738C96.0215 402.811 95.9429 402.883 95.8577 402.955C95.8381 402.968 95.7201 403.053 95.707 403.066C95.6612 403.099 95.6153 403.125 95.5694 403.151C95.6087 403.112 95.3598 403.158 95.5629 403.151C94.8946 403.165 94.2525 403.728 94.2852 404.43C94.318 405.112 94.8487 405.722 95.5629 405.709C96.7881 405.682 97.6661 404.797 98.5113 404.01C99.2321 403.335 99.9135 402.62 100.516 401.84C101.204 400.955 101.787 400.011 102.207 399.008C103.229 398.68 104.028 397.768 104.749 397.027C106.269 395.454 107.625 393.723 109.021 392.038C111.734 388.772 114.734 386.019 118.476 383.979C126.476 379.619 135.859 378.563 144.776 377.626C145.464 377.554 146.054 377.088 146.054 376.347C146.054 375.711 145.464 374.997 144.776 375.069L144.756 375.088Z" fill="#0B244A"/>
<path d="M94.4556 400.194C94.2787 399.919 94.0166 399.683 93.689 399.604C93.3483 399.526 93.0076 399.558 92.7062 399.735C92.4768 399.866 92.2344 399.985 91.9854 400.089C91.5006 400.28 91.0026 400.43 90.4915 400.529C90.1901 400.588 89.8756 400.863 89.7249 401.119C89.5677 401.394 89.4956 401.794 89.5939 402.102C89.6922 402.411 89.8887 402.712 90.1836 402.869C90.5046 403.04 90.8126 403.066 91.1664 403.001C92.1558 402.817 93.1189 402.443 93.9904 401.945C94.2656 401.788 94.4949 401.486 94.5801 401.178C94.6652 400.87 94.6259 400.463 94.449 400.194H94.4556Z" fill="#0B244A"/>
<path d="M159.381 341.268C159.132 340.226 158.608 339.059 157.684 338.456C156.681 337.793 155.325 337.983 154.349 338.613C153.477 339.183 152.868 340.036 152.01 340.567C151.046 341.163 149.985 341.577 149.081 342.265C148.412 342.776 147.81 343.399 147.423 344.14C147.397 344.14 147.371 344.14 147.344 344.14C145.837 344.265 144.199 344.54 142.876 345.32C141.559 346.094 140.799 347.386 140.589 348.874C140.34 350.599 140.642 352.415 140.989 354.107C141.343 355.811 141.9 357.451 142.588 359.044C136.356 357.877 131.462 352.913 125.794 350.382C122.466 348.901 118.24 347.792 114.944 349.976C113.575 350.881 112.448 352.245 112.094 353.877C111.766 355.418 112.644 357.49 111.131 358.539C109.611 359.595 107.612 359.116 105.935 358.828C104.127 358.519 102.351 358.369 100.529 358.67C97.2337 359.228 94.4228 361.719 94.3704 365.214C94.3442 366.833 95.0256 368.355 96.3295 369.325C97.6792 370.335 99.3566 370.42 100.824 371.141C101.368 371.41 101.984 371.915 102.148 372.531C102.305 373.141 101.728 373.338 101.237 373.515C99.5531 374.125 97.9741 374.8 96.8012 376.216C94.2197 379.324 95.2942 384.235 99.5204 385.074C101.571 385.481 103.615 384.858 105.653 385.16C106.413 385.271 107.14 385.527 107.573 386.196C107.874 386.655 108.051 387.277 107.625 387.697C107.003 388.307 107.219 389.245 107.881 389.703C109.617 390.897 111.609 389.743 112.978 388.55C114.505 387.225 116.012 385.907 117.637 384.701C120.972 382.235 124.491 380.039 127.885 377.659C130.663 375.711 133.225 373.495 135.924 371.443C137.49 370.249 139.102 369.102 140.792 368.086C142.273 367.194 144.055 366.584 145.294 365.338C147.036 363.594 146.951 361.247 146.545 358.965C147.292 358.382 147.941 357.588 148.498 356.926C150.208 354.874 151.557 352.454 152.082 349.818C155.469 350.114 158.876 347.779 159.472 344.285C159.643 343.268 159.643 342.259 159.4 341.255L159.381 341.268Z" fill="#BFD3B6"/>
<path d="M141.054 359.306C141.959 359.732 142.902 360.008 143.872 360.237C144.763 360.447 145.661 360.644 146.512 360.972C147.135 361.214 147.941 360.703 148.085 360.08C148.249 359.346 147.862 358.769 147.194 358.506C146.368 358.185 145.503 357.995 144.638 357.792C144.226 357.693 143.806 357.595 143.4 357.477C143.197 357.418 142.994 357.352 142.791 357.28C142.686 357.241 142.542 357.215 142.45 357.149C142.614 357.221 142.633 357.228 142.502 357.169C142.45 357.142 142.391 357.116 142.339 357.09C142.024 356.939 141.703 356.867 141.356 356.959C141.061 357.038 140.74 357.267 140.589 357.549C140.288 358.113 140.399 358.991 141.048 359.3L141.054 359.306Z" fill="#165C7E"/>
<path d="M269.732 270.868C267.465 268.927 264.32 269.412 262.007 270.993C261.987 271.006 261.974 271.025 261.954 271.038C261.895 271.006 261.83 270.973 261.764 270.947C259.288 269.917 256.542 270.56 254.269 271.779C252.493 272.73 249.269 274.474 250.134 276.966C250.96 279.333 254.157 278.992 256.071 278.625C257.302 278.389 258.495 277.989 259.661 277.53C260.31 277.274 260.945 276.999 261.581 276.723C261.81 276.618 262.151 276.422 262.465 276.258C262.524 276.605 262.557 276.972 262.629 277.235C262.806 277.851 263.042 278.454 263.298 279.044C263.841 280.284 264.582 281.424 265.473 282.447C266.403 283.516 267.805 284.178 268.932 282.946C269.437 282.395 269.712 281.608 269.994 280.926C270.282 280.238 270.531 279.543 270.734 278.821C271.462 276.264 272.018 272.835 269.732 270.875V270.868Z" fill="#0B244A"/>
<path d="M265.008 282.461C265.008 282.323 265.021 282.192 265.04 282.054L264.995 282.395C265.04 282.061 265.132 281.733 265.263 281.418L265.132 281.726C265.27 281.398 265.453 281.09 265.669 280.802L265.473 281.057C265.683 280.789 265.918 280.546 266.187 280.336L265.932 280.533C266.148 280.369 266.377 280.225 266.626 280.107L264.752 278.664C264.66 279.202 264.51 279.72 264.3 280.225L264.431 279.916C264.261 280.323 264.051 280.71 263.802 281.084C263.429 281.641 263.678 282.526 264.261 282.834C264.903 283.175 265.61 282.972 266.01 282.375C266.613 281.47 267.039 280.415 267.216 279.346C267.255 279.123 267.275 278.894 267.216 278.664C267.144 278.395 266.973 278.166 266.757 278.002C266.331 277.674 265.814 277.674 265.335 277.904C263.619 278.723 262.511 280.579 262.459 282.461C262.439 283.129 263.062 283.772 263.737 283.739C264.411 283.706 264.995 283.175 265.014 282.461H265.008Z" fill="#165C7E"/>
<path d="M251.609 363.601C257.479 367.659 263.35 371.712 269.221 375.77C270.577 376.708 271.855 374.492 270.511 373.561C264.641 369.502 258.77 365.45 252.899 361.391C251.543 360.454 250.265 362.67 251.609 363.601Z" fill="#0B244A"/>
<path d="M403.035 220.23V203.162C403.035 201.517 400.48 201.517 400.48 203.162V220.23C400.48 221.876 403.035 221.876 403.035 220.23Z" fill="#0B244A"/>
<path d="M398.154 223.311C399.602 223.036 400.958 222.374 402.209 221.6C403.461 220.826 404.752 219.882 405.944 218.918C406.462 218.492 406.416 217.548 405.944 217.109C405.394 216.604 404.693 216.656 404.136 217.109C403.579 217.561 403.212 217.843 402.576 218.296C402.032 218.682 401.482 219.05 400.919 219.397C400.355 219.745 399.805 220.033 399.228 220.315C399.091 220.374 399.071 220.387 399.182 220.341C399.104 220.374 399.025 220.407 398.946 220.433C398.789 220.492 398.625 220.551 398.468 220.604C398.147 220.708 397.813 220.787 397.479 220.853C396.823 220.977 396.385 221.803 396.588 222.426C396.817 223.128 397.452 223.449 398.16 223.318L398.154 223.311Z" fill="#0B244A"/>
<path d="M423.74 176.103C422.993 175.467 422.121 174.883 421.171 174.601C419.258 174.031 417.378 175.067 416.29 176.621C415.117 178.299 415.163 180.417 415.438 182.371C415.248 182.325 415.058 182.305 414.868 182.299C413.617 181.125 411.848 180.791 410.21 181.446C409.24 181.84 408.427 182.469 407.621 183.118C406.855 183.728 406.134 184.397 405.479 185.125C404.791 185.885 404.155 186.705 403.625 187.584C403.022 188.58 402.275 189.911 403.245 190.934C405.02 192.809 407.51 190.875 408.932 189.583C409.024 189.498 409.109 189.4 409.2 189.315C409.22 189.629 409.266 189.937 409.371 190.246C409.823 191.583 411.002 192.206 412.051 193.013C413.073 193.799 413.977 194.73 414.776 195.734C415.314 196.409 416.388 196.101 416.781 195.478C417.62 194.14 418.085 192.685 418.478 191.17C418.904 189.524 419.88 187.774 418.976 186.128C418.812 185.826 418.616 185.538 418.419 185.249C419.002 185.223 419.586 185.04 420.162 184.777C420.929 184.423 421.689 183.99 422.377 183.512C423.923 182.423 425.26 180.751 425.083 178.745C424.991 177.702 424.526 176.784 423.727 176.103H423.74Z" fill="#0B244A"/>
<path d="M414.514 182.895C415.418 183.4 416.251 183.997 417.096 184.594C417.043 184.554 416.899 184.436 417.03 184.541C417.083 184.581 417.135 184.626 417.188 184.666C417.286 184.744 417.378 184.817 417.469 184.895C417.666 185.059 417.862 185.23 418.052 185.4C418.354 185.669 418.649 185.918 419.042 186.043C419.605 186.226 420.175 186.062 420.601 185.669C421.093 185.217 421.093 184.312 420.601 183.859C420.077 183.374 419.317 183.374 418.793 183.859L419.212 183.61L419.553 183.564H419.494C419.605 183.577 419.723 183.597 419.835 183.61C419.658 183.577 419.972 183.663 419.959 183.682C419.959 183.682 419.841 183.623 419.841 183.61C419.841 183.61 420.097 183.826 419.939 183.676C419.9 183.636 419.861 183.604 419.821 183.564C419.651 183.413 419.474 183.263 419.297 183.112C418.891 182.771 418.472 182.45 418.046 182.135C417.325 181.604 416.572 181.119 415.792 180.686C415.209 180.358 414.37 180.528 414.043 181.145C413.715 181.761 413.879 182.548 414.501 182.895H414.514Z" fill="#165C7E"/>
<path d="M423.052 586.25C424.696 586.25 424.696 583.693 423.052 583.693C421.407 583.693 421.407 586.25 423.052 586.25Z" fill="#0B244A"/>
<path d="M431.563 579.582C433.207 579.582 433.207 577.025 431.563 577.025C429.918 577.025 429.918 579.582 431.563 579.582Z" fill="#0B244A"/>
<path d="M430.823 588.84C432.467 588.84 432.467 586.283 430.823 586.283C429.178 586.283 429.178 588.84 430.823 588.84Z" fill="#0B244A"/>
<path d="M468.026 595.81C467.213 592.178 469.388 587.929 472.966 586.69C476.543 585.45 480.73 587.089 482.558 590.388C483.148 591.45 484.498 591.024 484.891 590.079C485.841 587.83 488.488 586.126 490.807 587.522C491.829 588.132 492.098 589.227 492.426 590.296C492.832 591.633 493.356 592.787 494.516 593.62C495.04 593.994 495.997 593.751 496.265 593.161C497.504 590.414 500.911 588.775 503.8 589.929C506.69 591.083 508.046 594.617 507.037 597.462C506.781 598.177 507.469 599.18 508.269 599.082C509.717 598.898 510.988 599.357 511.951 600.472C513.026 601.718 514.827 599.901 513.759 598.662C512.416 597.108 510.313 596.269 508.269 596.525L509.501 598.144C510.942 594.086 508.754 589.22 504.79 587.588C500.832 585.962 495.82 587.975 494.064 591.869L495.813 591.41C495.348 591.076 495.158 590.453 494.994 589.929C494.752 589.161 494.549 588.381 494.208 587.647C493.52 586.152 492.15 585.083 490.571 584.663C486.948 583.7 483.783 586.198 482.44 589.397L484.773 589.089C482.394 584.788 476.74 582.539 472.088 584.29C467.436 586.04 464.461 591.489 465.575 596.479C465.935 598.085 468.399 597.403 468.039 595.797L468.026 595.81Z" fill="#0B244A"/>
<path d="M547.005 589.955H547.372C547.549 589.961 547.713 589.922 547.863 589.843C548.02 589.791 548.158 589.706 548.276 589.581C548.401 589.463 548.486 589.325 548.538 589.168C548.617 589.017 548.656 588.853 548.65 588.676L548.604 588.335C548.545 588.119 548.433 587.929 548.276 587.771L548.021 587.575C547.824 587.457 547.608 587.398 547.378 587.398H547.011C546.835 587.391 546.671 587.43 546.52 587.509C546.363 587.562 546.225 587.647 546.107 587.771C545.983 587.889 545.898 588.027 545.845 588.184C545.767 588.335 545.727 588.499 545.734 588.676L545.78 589.017C545.839 589.233 545.95 589.424 546.107 589.581L546.363 589.778C546.559 589.896 546.776 589.955 547.005 589.955Z" fill="#0B244A"/>
<path d="M552.751 587.935V588.303C552.745 588.48 552.784 588.643 552.863 588.794C552.915 588.952 553 589.089 553.125 589.207C553.243 589.332 553.38 589.417 553.537 589.47C553.688 589.548 553.852 589.588 554.029 589.581L554.37 589.535C554.586 589.476 554.776 589.365 554.933 589.207L555.13 588.952C555.248 588.755 555.307 588.539 555.307 588.309V587.942C555.313 587.765 555.274 587.601 555.195 587.45C555.143 587.293 555.058 587.155 554.933 587.037C554.815 586.912 554.678 586.827 554.52 586.775C554.37 586.696 554.206 586.657 554.029 586.663L553.688 586.709C553.472 586.768 553.282 586.88 553.125 587.037L552.928 587.293C552.81 587.489 552.751 587.706 552.751 587.935Z" fill="#0B244A"/>
<path d="M547.372 598.465C549.016 598.465 549.016 595.908 547.372 595.908C545.727 595.908 545.727 598.465 547.372 598.465Z" fill="#0B244A"/>
<path d="M393.161 234.852C403.061 239.69 414.252 233.147 420.811 225.705C422.731 223.521 424.441 221.154 426.007 218.709C426.898 217.319 424.683 216.034 423.799 217.417C420.627 222.387 416.762 227.062 411.73 230.236C406.698 233.403 400.086 235.402 394.452 232.648C392.977 231.927 391.68 234.137 393.161 234.858V234.852Z" fill="#0B244A"/>
<path d="M417.214 227.809C417.659 229.475 418.105 231.134 418.55 232.799C418.721 233.448 419.468 233.901 420.123 233.691C420.778 233.481 421.197 232.812 421.014 232.117C420.568 230.452 420.123 228.793 419.677 227.128C419.507 226.478 418.76 226.026 418.105 226.236C417.45 226.446 417.03 227.114 417.214 227.809Z" fill="#0B244A"/>
<path d="M380.129 250.227C383.195 250.489 386.183 248.975 387.972 246.516C388.365 245.972 388.083 245.067 387.513 244.765C386.851 244.418 386.183 244.647 385.763 245.224C385.619 245.421 385.849 245.133 385.75 245.251C385.705 245.303 385.665 245.355 385.619 245.408C385.521 245.526 385.416 245.637 385.311 245.749C385.102 245.972 384.872 246.175 384.637 246.365C384.532 246.45 384.564 246.411 384.656 246.352C384.584 246.398 384.519 246.45 384.447 246.503C384.322 246.588 384.191 246.673 384.06 246.752C383.798 246.909 383.529 247.054 383.247 247.185C383.116 247.244 383.175 247.218 383.274 247.178C383.208 247.205 383.149 247.231 383.084 247.25C382.94 247.303 382.795 247.355 382.651 247.401C382.356 247.493 382.062 247.565 381.76 247.624C381.682 247.637 381.59 247.663 381.511 247.663C381.609 247.663 381.701 247.644 381.55 247.663C381.4 247.683 381.249 247.69 381.092 247.696C380.771 247.709 380.45 247.696 380.122 247.677C379.454 247.618 378.818 248.306 378.844 248.955C378.877 249.696 379.408 250.175 380.122 250.234L380.129 250.227Z" fill="#0B244A"/>
<path d="M426.655 262.849C430.456 261.177 434.295 259.577 438.056 257.813C441.247 256.312 444.254 254.456 446.358 251.558C446.764 250.994 446.449 250.135 445.899 249.808C445.257 249.421 444.556 249.709 444.15 250.267C442.223 252.915 439.203 254.483 436.294 255.82C432.677 257.479 429.008 259.04 425.365 260.639C424.736 260.915 424.585 261.846 424.906 262.39C425.293 263.039 426.02 263.131 426.655 262.849Z" fill="#165C7E"/>
<path d="M400.48 251.82V311.802C400.48 313.448 403.035 313.448 403.035 311.802V251.82C403.035 250.175 400.48 250.175 400.48 251.82Z" fill="#165C7E"/>
<path d="M152.678 354.257C152.619 353.936 152.494 353.621 152.396 353.313C152.298 352.998 152.2 352.69 152.101 352.376C151.833 351.517 151.374 350.625 150.417 350.395C150.09 350.317 149.729 350.349 149.435 350.527C149.382 350.559 149.33 350.599 149.277 350.645C148.733 350.913 148.393 351.517 148.576 352.14C148.766 352.789 148.956 353.438 149.14 354.087C149.362 354.854 149.507 355.897 150.28 356.316C150.935 356.67 151.688 356.539 152.219 356.041C152.711 355.575 152.789 354.9 152.678 354.27V354.257Z" fill="#0B244A"/>
<path d="M413.558 193.288C413.682 192.737 413.826 192.186 414.043 191.668L413.911 191.977C413.964 191.852 414.016 191.734 414.095 191.623L413.898 191.878C413.931 191.839 413.957 191.813 413.997 191.78L413.741 191.977C413.741 191.977 413.787 191.944 413.813 191.931L413.505 192.062C413.505 192.062 413.558 192.042 413.59 192.036L413.25 192.082C413.25 192.082 413.309 192.075 413.335 192.082L412.994 192.036C412.994 192.036 413.047 192.042 413.073 192.055L412.765 191.924C412.765 191.924 412.817 191.95 412.837 191.97L412.581 191.773L412.608 191.8L412.411 191.544C412.411 191.544 412.437 191.59 412.45 191.609L412.319 191.301C412.319 191.301 412.332 191.354 412.339 191.38L412.293 191.039C412.293 191.098 412.293 191.15 412.293 191.203L412.339 190.862C412.273 191.268 412.142 191.668 412.018 192.055C411.887 192.462 411.736 192.862 411.572 193.262L411.703 192.954C411.658 193.058 411.612 193.163 411.566 193.268C411.422 193.59 411.336 193.898 411.435 194.252C411.513 194.547 411.743 194.868 412.024 195.019C412.319 195.176 412.68 195.255 413.007 195.15C413.302 195.052 413.636 194.862 413.774 194.56C414.056 193.937 414.305 193.308 414.514 192.659C414.75 191.918 415.078 191.019 414.652 190.285C414.291 189.662 413.518 189.387 412.843 189.603C412.313 189.774 411.939 190.18 411.723 190.685C411.454 191.314 411.251 191.944 411.107 192.613C411.035 192.947 411.061 193.295 411.238 193.596C411.395 193.858 411.697 194.114 412.005 194.186C412.332 194.258 412.699 194.245 412.988 194.055C413.256 193.878 413.505 193.616 413.577 193.288H413.558Z" fill="#BFD3B6"/>
</g>
<defs>
<clipPath id="clip0_1_173">
<rect width="627" height="635" fill="white"/>
</clipPath>
</defs>
</svg>
