<svg width="44" height="46" viewBox="0 0 44 46" fill="none" xmlns="http://www.w3.org/2000/svg">
<path fill-rule="evenodd" clip-rule="evenodd" d="M12.2827 1.191C14.2158 0.88461 17.5322 0.5 22 0.5C26.4678 0.5 29.7842 0.88461 31.7173 1.191C33.1098 1.41171 34.05 2.62475 34.05 3.99558C34.05 6.93007 32.4663 9.4937 30.1083 10.8801C33.8934 12.7888 37.1277 15.8916 39.4661 19.4334C41.9942 23.2624 43.5 27.6425 43.5 31.6429C43.5 36.76 41.035 40.258 37.0919 42.4471C33.1841 44.6166 27.8351 45.5 22 45.5C16.1649 45.5 10.8159 44.6166 6.90806 42.4471C2.96499 40.258 0.5 36.76 0.5 31.6429C0.5 27.6425 2.00582 23.2624 4.5339 19.4334C6.87232 15.8916 10.1066 12.7888 13.8917 10.88C11.5337 9.4937 9.95 6.93007 9.95 3.99558C9.95 2.62475 10.8902 1.41171 12.2827 1.191ZM29.5 28C27.9514 28 26.5522 28.5492 25.4868 29.7035L25.4717 29.72C24.4109 30.8956 24 32.4035 24 33.9874C24 35.5798 24.4067 37.0998 25.4717 38.28L25.4868 38.2965C26.5522 39.4508 27.9514 40 29.5 40C31.0434 40 32.4319 39.4445 33.4914 38.2965C34.58 37.117 35 35.5908 35 33.9874C35 32.3925 34.5757 30.8783 33.4914 29.7035C32.4319 28.5555 31.0433 28 29.5 28ZM10.4868 17.7035C11.5522 16.5492 12.9514 16 14.5 16C16.0433 16 17.4319 16.5555 18.4914 17.7035C19.5757 18.8783 20 20.3925 20 21.9874C20 23.5908 19.58 25.117 18.4914 26.2965C17.4319 27.4445 16.0434 28 14.5 28C12.9514 28 11.5522 27.4508 10.4868 26.2965L10.4717 26.28C9.4067 25.0998 9 23.5798 9 21.9874C9 20.4035 9.4109 18.8956 10.4717 17.72L10.4868 17.7035ZM31.4142 21.4142C32.1953 20.6332 32.1953 19.3668 31.4142 18.5858C30.6332 17.8047 29.3668 17.8047 28.5858 18.5858L12.5858 34.5858C11.8047 35.3668 11.8047 36.6332 12.5858 37.4142C13.3668 38.1953 14.6332 38.1953 15.4142 37.4142L31.4142 21.4142Z" fill="white"/>
</svg>
