<svg width="66" height="66" viewBox="0 0 66 66" fill="none" xmlns="http://www.w3.org/2000/svg">
<path fill-rule="evenodd" clip-rule="evenodd" d="M33 63.9375C24.1875 63.9375 17.8871 63.5877 13.7833 63.2367C9.24991 62.8488 5.82005 59.3058 5.4888 54.8008C5.39248 53.4908 5.29483 51.9563 5.20483 50.1875H60.7952C60.7052 51.9563 60.6075 53.4908 60.5113 54.8008C60.1799 59.3058 56.7501 62.8488 52.2167 63.2367C48.1129 63.5877 41.8125 63.9375 33 63.9375ZM29.5625 56.375C29.5625 55.2359 30.486 54.3125 31.625 54.3125H34.375C35.5141 54.3125 36.4375 55.2359 36.4375 56.375C36.4375 57.5141 35.5141 58.4375 34.375 58.4375H31.625C30.486 58.4375 29.5625 57.5141 29.5625 56.375Z" fill="#F25D1D"/>
<path fill-rule="evenodd" clip-rule="evenodd" d="M60.9722 46.0625H5.02788C4.89948 42.4394 4.8125 38.1019 4.8125 33C4.8125 22.8256 5.15844 15.6919 5.48878 11.1993C5.82003 6.69413 9.24989 3.15121 13.7833 2.76341C17.8871 2.41235 24.1875 2.0625 33 2.0625C41.8125 2.0625 48.1129 2.41235 52.2167 2.76341C52.3688 2.77643 52.5198 2.793 52.6694 2.81304C51.5756 3.28529 50.6069 3.96435 49.8469 4.72424L33.5871 20.984C32.2831 22.2882 31.2232 24.1187 31.0501 26.3322C30.932 27.8403 30.8648 30.1613 31.0657 33.4207C31.2755 36.824 33.9892 39.5377 37.3924 39.7475C40.6519 39.9484 42.9729 39.8812 44.481 39.7632C46.6945 39.59 48.525 38.5301 49.829 37.2261L61.1282 25.927C61.1658 28.0984 61.1875 30.4541 61.1875 33C61.1875 38.1019 61.1005 42.4394 60.9722 46.0625ZM13.0625 13.75C13.0625 12.6109 13.9859 11.6875 15.125 11.6875H31.625C32.764 11.6875 33.6875 12.6109 33.6875 13.75C33.6875 14.8891 32.764 15.8125 31.625 15.8125H15.125C13.9859 15.8125 13.0625 14.8891 13.0625 13.75ZM15.125 33.6875C13.9859 33.6875 13.0625 34.611 13.0625 35.75C13.0625 36.889 13.9859 37.8125 15.125 37.8125H23.375C24.514 37.8125 25.4375 36.889 25.4375 35.75C25.4375 34.611 24.514 33.6875 23.375 33.6875H15.125ZM13.0625 24.75C13.0625 23.611 13.9859 22.6875 15.125 22.6875H23.375C24.514 22.6875 25.4375 23.611 25.4375 24.75C25.4375 25.889 24.514 26.8125 23.375 26.8125H15.125C13.9859 26.8125 13.0625 25.889 13.0625 24.75Z" fill="#F25D1D"/>
<path d="M60.9826 20.2373V20.239L46.9122 34.3092C46.1644 35.0572 45.2136 35.5683 44.1592 35.6508C42.8575 35.7527 40.7295 35.8205 37.6462 35.6304C36.3212 35.5486 35.2646 34.4921 35.1828 33.167C35.1261 32.2479 35.0925 31.4137 35.0757 30.661C35.0925 31.4133 35.1263 32.247 35.1828 33.1653C35.2646 34.4904 36.3212 35.5471 37.6462 35.6288C40.7295 35.8188 42.8575 35.751 44.1592 35.6491C45.2136 35.5666 46.1644 35.0555 46.9122 34.3075L60.9826 20.2373Z" fill="#F25D1D"/>
<path d="M64.0116 13.1869C65.0251 14.7759 64.5048 16.715 63.1722 18.0477L60.809 20.4109C60.7877 20.3703 60.7659 20.3294 60.7437 20.288C59.939 18.7884 58.5772 16.7727 56.3081 14.5035C54.0389 12.2343 52.0231 10.8725 50.5236 10.0679C50.4822 10.0457 50.4412 10.0239 50.4006 10.0026L52.7637 7.63941C54.0965 6.30675 56.0357 5.78648 57.6246 6.79998C58.6098 7.42841 59.8107 8.34552 61.1383 9.67322C62.466 11.0009 63.3831 12.2017 64.0116 13.1869Z" fill="#F25D1D"/>
<path d="M47.2897 13.1135C47.564 13.2142 48.0021 13.3962 48.5733 13.7027C49.7162 14.3159 51.4066 15.4356 53.3913 17.4203C55.376 19.4051 56.4956 21.0954 57.1089 22.2384C57.4154 22.8094 57.5973 23.2475 57.6981 23.5218L46.9123 34.3075C46.1644 35.0555 45.2136 35.5665 44.1593 35.649C42.8575 35.7509 40.7296 35.8187 37.6463 35.6287C36.3212 35.547 35.2647 34.4903 35.1829 33.1652C34.9928 30.0819 35.0606 27.954 35.1625 26.6523C35.245 25.5979 35.7562 24.6471 36.5041 23.8993L47.2897 13.1135Z" fill="#F25D1D"/>
</svg>
