<svg width="384" height="317" viewBox="0 0 384 317" fill="none" xmlns="http://www.w3.org/2000/svg">
<path d="M341.372 277.327C340.882 276.068 340.143 274.947 339.13 274.095C338.081 273.215 336.475 272.759 336.139 271.219C335.834 269.834 336.397 268.295 336.862 267.019C337.451 265.408 338.123 263.858 338.521 262.176C339.311 258.839 339.275 255.205 337.694 252.126C336.314 249.449 333.896 247.459 331.008 247.129C328.032 246.788 325.217 248.234 322.38 248.932C320.2 249.465 317.947 249.306 316.346 247.673C315.1 246.403 314.372 244.589 313.814 242.824C313.168 240.779 312.708 238.673 312.099 236.612C311.515 234.655 310.797 232.697 309.577 231.081C308.239 229.311 306.245 228.222 304.101 228.167C301.006 228.09 298.293 230.141 296.015 232.142C293.871 234.028 291.949 236.144 289.293 237.216C287.175 238.074 284.442 238.409 282.98 236.144C282.132 234.83 281.797 233.22 280.903 231.928C280.117 230.795 279.115 229.861 277.948 229.195C275.607 227.859 272.765 227.513 270.208 228.261C267.418 229.074 265.088 231.136 263.455 233.626C262.618 234.902 261.972 236.326 261.507 237.805C261.022 239.355 260.805 240.977 260.49 242.577C259.983 245.144 258.981 248.195 256.124 248.525C254.93 248.663 254.192 248.036 253.706 246.914C253.081 245.452 252.59 243.99 251.066 243.346C248.503 242.263 245.754 244.578 244.38 246.694C243.135 248.619 242.272 251.884 239.927 252.626C237.71 253.33 236.026 251.021 234.729 249.482C233.003 247.426 231.19 245.507 228.483 245.188C225.729 244.864 222.861 246.205 220.976 248.311C218.754 250.796 217.752 254.199 217.338 257.53C216.894 261.104 217.013 264.743 217.524 268.3C218.041 271.857 219.038 275.299 220.423 278.586C220.645 279.114 221.368 279.24 221.802 278.971C221.89 278.916 221.957 278.85 222.019 278.784L230.43 287.316C230.084 287.778 230.038 288.537 230.632 288.966C241.291 296.574 254.905 293.435 266.896 293.463C280.877 293.496 293.917 299.417 307.645 301.341C313.271 302.127 318.96 302.088 324.483 300.582C329.412 299.235 334.253 296.706 337.678 292.611C341.021 288.614 343.418 282.594 341.367 277.322L341.372 277.327Z" fill="#0B244A"/>
<path d="M335.573 286.455C334.901 284.084 333.319 282.13 331.028 281.487C329.978 281.191 328.84 281.163 327.765 281.41C328.209 278.331 327.258 274.977 325.355 272.567C321.792 268.055 315.721 268.653 311.946 272.452C312.029 270.618 312.023 268.779 311.915 266.94C311.662 262.746 311.279 257.509 308.228 254.419C305.761 251.921 302.121 251.493 298.935 252.393C295.439 253.381 292.678 255.841 290.827 259.096C288.882 262.527 287.988 266.457 287.341 270.388C283.504 265.063 275.856 263.531 270.142 266.468C269.071 267.017 268.104 267.747 267.256 268.615C266.558 264.201 263.972 260.089 260.218 257.987C255.605 255.407 250.015 256.631 246.509 260.677C245.759 261.539 245.134 262.505 244.658 263.548C243.22 259.809 240.366 256.692 236.829 255.094C231.601 252.739 225.649 254.413 221.749 258.679C220.364 260.194 219.309 261.967 218.626 263.905C215.528 256.274 210.605 248.721 202.652 246.723C193.825 244.505 184.403 249.819 181.595 259.036C180.374 263.043 180.426 267.445 181.724 271.403C178.456 269.943 174.572 270.075 171.495 272.117C168.191 274.307 166.278 278.325 166.304 282.382C163.258 280.603 159.441 280.724 156.22 282.234C151.871 284.27 149.29 288.903 148.613 293.767C148.251 296.375 148.339 299.015 148.825 301.601C149.114 303.149 149.575 304.417 150.93 305.224C153.546 306.777 157.109 306.409 159.989 306.393C161.805 306.382 163.646 306.332 165.45 306.59C166.629 306.755 168.222 307.079 168.91 308.155C169.634 309.291 171.382 308.221 170.653 307.073C170.627 307.035 170.601 307.002 170.575 306.969L174.981 303.396C175.095 303.566 175.27 303.703 175.513 303.78C188.69 307.765 202.285 310.191 215.963 311.015C229.692 311.838 243.432 310.965 257.002 308.627C263.921 307.436 270.835 306.03 277.852 305.745C284.9 305.46 291.778 306.772 298.728 307.815C304.779 308.72 310.912 309.346 316.962 308.122C321.942 307.117 326.88 304.933 330.599 301.205C334.198 297.604 337.088 291.807 335.573 286.455Z" fill="#BFD3B6"/>
<path d="M205.867 278.769C206.984 278.769 206.984 276.401 205.867 276.401C204.751 276.401 204.751 278.769 205.867 278.769Z" fill="#0B244A"/>
<path d="M212.846 272.85C214.335 272.85 214.335 271.075 212.846 271.075C211.357 271.075 211.357 272.85 212.846 272.85Z" fill="#0B244A"/>
<path d="M212.009 281.134C213.125 281.134 213.125 278.767 212.009 278.767C210.892 278.767 210.892 281.134 212.009 281.134Z" fill="#0B244A"/>
<path d="M241.095 286.826C240.462 283.701 242.157 280.046 244.943 278.979C247.729 277.913 250.99 279.324 252.414 282.161C252.873 283.075 253.924 282.708 254.231 281.896C254.971 279.961 257.032 278.494 258.839 279.696C259.635 280.22 259.844 281.162 260.099 282.082C260.416 283.233 260.824 284.225 261.727 284.942C262.135 285.263 262.881 285.055 263.09 284.547C264.054 282.183 266.708 280.773 268.958 281.766C271.209 282.759 272.265 285.799 271.479 288.247C271.28 288.862 271.816 289.725 272.439 289.641C273.567 289.483 274.557 289.877 275.307 290.836C276.144 291.908 277.547 290.346 276.715 289.28C275.669 287.943 274.031 287.221 272.439 287.441L273.398 288.834C274.521 285.342 272.816 281.157 269.729 279.752C266.647 278.353 262.743 280.085 261.375 283.436L262.738 283.041C262.375 282.753 262.227 282.217 262.1 281.766C261.911 281.106 261.753 280.435 261.487 279.803C260.952 278.517 259.885 277.597 258.655 277.236C255.833 276.407 253.368 278.556 252.322 281.309L254.139 281.044C252.286 277.344 247.882 275.409 244.259 276.915C240.636 278.421 238.319 283.109 239.186 287.401C239.467 288.783 241.386 288.197 241.105 286.815L241.095 286.826Z" fill="#0B244A"/>
<path d="M301.785 281.727H302.066C302.201 281.733 302.327 281.696 302.442 281.624C302.562 281.575 302.668 281.496 302.758 281.381C302.853 281.272 302.919 281.144 302.959 280.999C303.019 280.859 303.049 280.707 303.044 280.544L303.009 280.228C302.964 280.028 302.878 279.852 302.758 279.707L302.562 279.525C302.412 279.415 302.246 279.361 302.071 279.361H301.79C301.655 279.355 301.529 279.391 301.414 279.464C301.293 279.512 301.188 279.591 301.098 279.707C301.002 279.816 300.937 279.943 300.897 280.089C300.837 280.228 300.807 280.38 300.812 280.544L300.847 280.859C300.892 281.059 300.977 281.235 301.098 281.381L301.293 281.563C301.444 281.672 301.609 281.727 301.785 281.727Z" fill="#0B244A"/>
<path d="M306.395 280.057V280.429C306.389 280.609 306.424 280.775 306.492 280.928C306.538 281.087 306.613 281.227 306.721 281.347C306.824 281.473 306.944 281.559 307.082 281.612C307.213 281.692 307.357 281.732 307.511 281.725L307.809 281.679C307.998 281.619 308.163 281.506 308.301 281.347L308.473 281.087C308.576 280.888 308.627 280.669 308.627 280.436V280.064C308.633 279.884 308.598 279.718 308.53 279.565C308.484 279.406 308.41 279.266 308.301 279.147C308.198 279.02 308.078 278.934 307.94 278.881C307.809 278.801 307.666 278.761 307.511 278.768L307.213 278.814C307.025 278.874 306.859 278.987 306.721 279.147L306.55 279.406C306.447 279.605 306.395 279.825 306.395 280.057Z" fill="#0B244A"/>
<path d="M302.207 288.828C303.324 288.828 303.324 287.052 302.207 287.052C301.09 287.052 301.09 288.828 302.207 288.828Z" fill="#0B244A"/>
<path d="M73.0894 307.071C98.3271 305.231 123.678 305.745 148.913 304.149C152.517 303.928 155.949 303.701 159.016 302.877C159.676 302.701 160.378 302.453 161.041 302.298C162.357 301.991 163.741 301.857 164.96 301.76C168.19 301.478 171.232 301.588 174.316 301.068C176.458 300.537 178.447 299.989 180.887 299.669C184.891 299.09 189.06 299.948 192.957 300.761C196.375 301.433 199.823 301.947 203.281 302.295C213.648 303.339 224.086 302.936 234.323 301.04C244.972 298.993 256.213 295.657 267.301 297.621C272.654 298.511 277.59 300.447 282.809 301.154C290.781 302.143 298.983 300.806 307.147 300.575C315.206 300.179 324.406 301.667 332.29 302.45C360.891 305.555 378.898 301.488 379.23 266.624C379.278 262.83 379.122 259.021 378.862 255.22C378.836 254.824 379.119 254.476 379.493 254.448C379.818 254.424 380.104 254.648 380.192 254.965C382.213 262.551 383.555 270.257 383.435 278.218C383.162 298.111 372.441 310.035 354.32 313.592C341.097 316.218 328.436 314.657 315.408 314.347C313.247 314.309 311.31 314.302 309.269 314.485C300.452 315.381 291.567 317.152 282.527 316.132C280.492 315.891 278.308 315.522 276.339 314.998C272.319 313.975 268.66 312.534 264.828 311.593C262.186 310.952 259.58 310.683 256.821 310.663C246.282 310.669 235.369 313.589 224.661 313.757C212.455 314.223 200.256 312.772 188.44 309.601C186.886 309.225 185.349 308.85 183.831 308.729C180.985 308.474 178.118 309.274 175.148 309.704C171.079 310.121 166.916 309.587 162.971 309.953C162.714 309.98 162.533 310.008 162.305 310.049C162.24 310.063 162.234 310.059 162.074 310.101C157.749 311.228 153.121 311.238 149.105 311.221C138.215 311.166 127.315 310.735 116.457 310.225C102.006 309.515 87.5931 308.691 73.1349 308.502C72.7612 308.498 72.4622 308.174 72.4655 307.778C72.4687 307.402 72.7482 307.096 73.0959 307.068L73.0894 307.071Z" fill="#C5E2E0"/>
<path d="M83.3501 127.698C87.5059 132.773 93.3267 136.154 99.0374 139.386C120.14 151.316 141.804 162.774 165.226 169.01C167.465 157.031 170.124 142.5 170.837 130.336C170.882 129.578 169.732 131.176 169.34 130.524C168.857 129.73 167.889 129.399 166.992 129.153C160.245 127.286 153.177 126.592 146.196 127.114" fill="#0B244A"/>
<path d="M82.929 128.119C86.5407 132.504 91.3606 135.645 96.2226 138.465C101.48 141.512 106.808 144.452 112.156 147.333C117.559 150.244 123.017 153.06 128.553 155.712C134.098 158.366 139.721 160.852 145.445 163.095C151.162 165.335 156.976 167.328 162.888 168.991C163.613 169.195 164.339 169.393 165.064 169.587C165.356 169.665 165.735 169.49 165.797 169.172C167.439 160.376 169.049 151.569 170.208 142.695C170.497 140.497 170.752 138.296 170.969 136.092C171.076 135 171.174 133.908 171.258 132.812C171.297 132.326 171.329 131.837 171.361 131.351C171.387 130.949 171.507 130.427 171.387 130.031C171.141 129.218 170.348 129.617 169.884 129.918C169.81 129.967 169.638 130.025 169.583 130.096C169.583 130.096 169.554 130.054 169.599 130.096C169.567 130.067 169.871 130.18 169.845 130.232C169.884 130.155 169.463 129.74 169.398 129.681C169.198 129.49 168.964 129.325 168.725 129.189C167.85 128.699 166.814 128.492 165.852 128.245C164.666 127.944 163.474 127.682 162.272 127.455C156.976 126.45 151.56 126.135 146.187 126.528C145.429 126.583 145.422 127.772 146.187 127.717C150.841 127.377 155.538 127.555 160.151 128.288C162.438 128.651 164.718 129.134 166.946 129.769C167.351 129.886 167.753 130.009 168.122 130.216C168.297 130.313 168.459 130.424 168.602 130.566C168.744 130.709 168.838 130.907 168.987 131.049C169.486 131.522 170.127 131.192 170.6 130.874C170.662 130.832 170.814 130.767 170.863 130.706L170.807 130.725C170.963 130.689 170.872 130.612 170.542 130.498C170.176 130.239 170.244 130.193 170.228 130.488C170.199 131.02 170.16 131.552 170.121 132.083C170.046 133.12 169.959 134.157 169.865 135.195C169.667 137.337 169.424 139.476 169.156 141.612C168.602 146.011 167.921 150.393 167.183 154.762C166.389 159.471 165.521 164.168 164.643 168.861L165.375 168.446C159.493 166.878 153.701 164.978 148.007 162.823C142.313 160.667 136.706 158.249 131.186 155.66C125.631 153.054 120.157 150.27 114.741 147.385C109.325 144.5 104.042 141.56 98.7459 138.556C93.8968 135.804 88.9928 132.923 85.1252 128.839C84.6523 128.339 84.1956 127.821 83.7583 127.289C83.2724 126.699 82.4335 127.545 82.9161 128.132L82.929 128.119Z" fill="#0B244A"/>
<path d="M118.427 116.616C112.399 123.234 103.653 125.409 95.6783 128.706C81.2349 134.676 62.7231 143.165 66.6069 161.886C70.4453 180.397 87.8363 199.546 98.613 215.071C99.4422 216.267 100.31 217.57 100.281 219.026C100.226 222.024 94.2175 225.203 91.3217 225.981C99.2965 225.67 106.471 225.138 111.839 224.283C106.406 217.765 105.943 208.615 104.709 200.22C102.808 187.304 94.5058 163.675 87.5351 158.518C97.8129 153.332 121.779 151.469 131.406 145.155C134.649 143.029 129.032 145.194 131.406 142.128C137.661 134.06 135.695 118.959 131.928 109.469" fill="#165C7E"/>
<path d="M118.006 116.194C114.203 120.337 109.147 122.823 103.993 124.855C99.3644 126.68 94.7065 128.394 90.1555 130.414C82.4819 133.817 74.3257 138.008 69.3407 145.025C66.9405 148.409 65.5735 152.409 65.4926 156.564C65.3921 161.594 67.0279 166.625 68.9423 171.217C73.4123 181.943 80.383 191.465 87.2986 200.719C90.622 205.166 94.0069 209.574 97.2136 214.105C98.004 215.22 98.9466 216.361 99.4292 217.651C99.8309 218.734 99.7272 219.641 99.0664 220.565C97.8064 222.315 95.6783 223.505 93.7704 224.409C92.9315 224.808 92.0634 225.158 91.1661 225.404C90.5313 225.579 90.6414 226.6 91.3249 226.571C98.2275 226.299 105.169 225.929 112 224.853C112.486 224.775 112.512 224.163 112.263 223.858C108.677 219.512 107.317 213.901 106.455 208.456C105.697 203.662 105.231 198.849 104.139 194.113C103.067 189.462 101.697 184.879 100.113 180.377C98.5449 175.924 96.7731 171.519 94.6126 167.318C93.6214 165.393 92.546 163.497 91.286 161.73C90.298 160.346 89.2032 159.021 87.8363 157.997V159.024C90.094 157.893 92.5169 157.108 94.9398 156.408C97.8874 155.556 100.877 154.853 103.867 154.172C110.08 152.759 116.354 151.521 122.447 149.637C125.012 148.843 127.571 147.936 129.952 146.688C130.875 146.205 131.944 145.673 132.689 144.928C133.253 144.364 133.042 143.641 132.268 143.473C132.025 143.421 131.779 143.401 131.536 143.343C131.477 143.33 131.426 143.307 131.371 143.291C131.413 143.304 131.393 143.252 131.397 143.307C131.393 143.259 131.341 143.194 131.393 143.33C131.403 143.356 131.393 143.349 131.393 143.349C131.588 142.993 131.889 142.478 132.184 142.072C132.614 141.479 133.003 140.857 133.346 140.209C134.82 137.447 135.546 134.352 135.86 131.253C136.534 124.615 135.416 117.695 133.275 111.404C133.036 110.697 132.776 109.994 132.501 109.3C132.226 108.607 131.073 108.902 131.354 109.618C133.735 115.647 135.028 122.282 134.83 128.77C134.733 131.927 134.25 135.123 133.048 138.06C132.498 139.405 131.766 140.656 130.891 141.82C130.415 142.455 129.822 143.46 130.551 144.147C130.878 144.455 131.61 144.672 132.067 144.643C132.193 144.633 132.083 144.711 132.061 144.633C132.035 144.542 131.902 144.503 131.863 144.361C131.84 144.27 131.889 144.15 131.879 144.069C131.876 144.03 131.944 144.007 131.886 144.043C131.818 144.082 131.746 144.176 131.682 144.228C131.277 144.562 130.804 144.831 130.354 145.096C128.167 146.386 125.77 147.3 123.363 148.091C117.429 150.043 111.278 151.287 105.188 152.652C99.6625 153.89 93.9907 155.06 88.7594 157.29C88.2412 157.51 87.7294 157.747 87.2273 157.997C86.7868 158.217 86.9002 158.778 87.2273 159.024C88.361 159.87 89.2907 161.008 90.1166 162.145C91.2406 163.695 92.2156 165.351 93.1161 167.04C95.2928 171.117 97.0582 175.415 98.6227 179.758C100.252 184.28 101.661 188.889 102.779 193.566C103.877 198.155 104.418 202.797 105.098 207.458C105.992 213.571 107.385 219.82 111.408 224.694L111.67 223.699C104.946 224.762 98.1044 225.109 91.3087 225.375L91.4674 226.542C93.5242 225.978 95.5293 224.96 97.2817 223.751C98.7976 222.704 100.67 221.204 100.851 219.22C100.981 217.778 100.226 216.41 99.4519 215.256C98.7328 214.18 97.9684 213.126 97.2136 212.076C95.5941 209.827 93.9389 207.607 92.2739 205.39C85.2514 196.029 77.9828 186.694 72.5928 176.261C70.1472 171.522 68.058 166.485 67.0668 161.225C66.2538 156.911 66.6619 152.425 68.6345 148.474C72.4697 140.789 80.613 136.173 88.0825 132.65C92.342 130.641 96.7116 128.877 101.117 127.215C106.267 125.273 111.489 123.257 115.849 119.805C116.917 118.959 117.912 118.032 118.832 117.027C119.35 116.464 118.511 115.621 117.99 116.185L118.006 116.194Z" fill="#165C7E"/>
<path d="M104.183 227.453L102.746 228.89L132.769 258.932L134.206 257.495L104.183 227.453Z" fill="#0B244A" stroke="#2F292B" stroke-width="1.84" stroke-miterlimit="10"/>
<path d="M111.473 224.795H97.6737C96.9152 224.795 96.3003 225.41 96.3003 226.169V227.511C96.3003 228.27 96.9152 228.885 97.6737 228.885H111.473C112.231 228.885 112.846 228.27 112.846 227.511V226.169C112.846 225.41 112.231 224.795 111.473 224.795Z" fill="#0B244A"/>
<path d="M111.472 228.292H105.179C102.723 228.292 100.265 228.305 97.8096 228.292C97.3173 228.292 96.9221 228.033 96.8962 227.498C96.88 227.177 96.8962 226.853 96.8962 226.529C96.8962 226.205 96.867 225.91 97.0873 225.657C97.3335 225.375 97.6542 225.391 97.9878 225.391H99.2025C102.166 225.391 105.133 225.391 108.097 225.391H111.184C111.524 225.391 111.861 225.391 112.094 225.696C112.285 225.952 112.25 226.266 112.25 226.568C112.25 226.869 112.266 227.196 112.25 227.508C112.227 227.948 111.919 228.276 111.472 228.292C110.711 228.324 110.705 229.514 111.472 229.482C112.713 229.433 113.439 228.47 113.439 227.287C113.439 226.373 113.549 225.378 112.784 224.707C112.02 224.036 110.886 224.202 109.94 224.202C106.759 224.202 103.579 224.202 100.398 224.202C99.5037 224.202 98.6065 224.179 97.7125 224.202C96.6792 224.228 95.8176 224.95 95.7171 226.004C95.6847 226.347 95.7074 226.697 95.7074 227.041C95.7074 227.436 95.6912 227.829 95.837 228.208C96.1479 229.028 96.9189 229.475 97.7708 229.485C98.1141 229.485 98.4607 229.485 98.8041 229.485H103.128C105.856 229.485 108.59 229.533 111.32 229.485C111.372 229.485 111.424 229.485 111.476 229.485C112.24 229.485 112.243 228.295 111.476 228.295L111.472 228.292Z" fill="#0B244A"/>
<path d="M128.556 205.075C128.556 217.807 128.556 230.538 128.556 243.267C128.556 255.933 128.556 268.597 128.556 281.264C128.556 288.407 128.556 295.554 128.556 302.698C128.556 303.463 129.745 303.466 129.745 302.698C129.745 289.966 129.745 277.235 129.745 264.506C129.745 251.778 129.745 239.176 129.745 226.51V205.075C129.745 204.31 128.556 204.307 128.556 205.075Z" fill="#165C7E"/>
<path d="M115.952 206.897C117.594 213.026 119.234 219.155 120.876 225.284C122.518 231.413 124.157 237.543 125.799 243.672C127.442 249.801 129.081 255.93 130.723 262.059L135.672 280.537C137.315 286.667 138.954 292.796 140.596 298.925L141.205 301.2C141.402 301.939 142.549 301.625 142.351 300.882C140.709 294.753 139.07 288.624 137.428 282.495C135.786 276.366 134.147 270.237 132.504 264.108C130.862 257.978 129.223 251.849 127.581 245.72C125.939 239.591 124.283 233.404 122.631 227.242C120.989 221.113 119.35 214.984 117.708 208.855L117.099 206.579C116.901 205.84 115.755 206.155 115.952 206.897Z" fill="#165C7E"/>
<path d="M104.249 211.914C107.427 217.424 110.608 222.934 113.785 228.445C116.95 233.929 120.115 239.416 123.279 244.9C126.444 250.384 129.638 255.92 132.815 261.43C135.98 266.915 139.145 272.402 142.309 277.886C145.487 283.396 148.668 288.906 151.845 294.416L153.028 296.465C153.41 297.126 154.437 296.53 154.054 295.865C150.877 290.355 147.696 284.845 144.518 279.335C141.341 273.825 138.189 268.363 135.024 262.879C131.847 257.369 128.666 251.859 125.488 246.349C122.324 240.865 119.159 235.377 115.994 229.893C112.817 224.383 109.636 218.873 106.458 213.363L105.276 211.315C104.894 210.653 103.867 211.25 104.249 211.914Z" fill="#165C7E"/>
<path d="M94.2369 219.794C98.7361 224.296 103.235 228.798 107.738 233.303C112.217 237.786 116.7 242.271 121.18 246.754C125.66 251.237 130.143 255.723 134.623 260.205C139.122 264.707 143.621 269.209 148.124 273.715C152.603 278.197 157.086 282.683 161.566 287.166L163.225 288.825C163.765 289.366 164.608 288.527 164.067 287.982C159.568 283.48 155.068 278.978 150.566 274.473C146.086 269.99 141.603 265.505 137.123 261.022C132.644 256.539 128.161 252.053 123.681 247.571C119.201 243.088 114.682 238.567 110.18 234.061C105.7 229.579 101.217 225.093 96.7375 220.61L95.0791 218.951C94.5381 218.41 93.696 219.249 94.2369 219.794Z" fill="#165C7E"/>
<path d="M86.6055 229.994C92.112 233.173 97.6186 236.356 103.125 239.536L119.57 249.036C125.077 252.216 130.584 255.398 136.09 258.578C141.571 261.745 147.055 264.911 152.535 268.078C158.042 271.258 163.548 274.441 169.055 277.62L171.102 278.803C171.766 279.186 172.365 278.158 171.701 277.776C166.195 274.596 160.688 271.413 155.182 268.234C149.701 265.067 144.217 261.9 138.737 258.734C133.23 255.554 127.723 252.371 122.217 249.191C116.736 246.025 111.252 242.858 105.772 239.691C100.265 236.512 94.7584 233.329 89.2519 230.149L87.2047 228.966C86.5407 228.584 85.9414 229.611 86.6055 229.994Z" fill="#165C7E"/>
<path d="M81.8763 241.827C88.0016 243.471 94.1268 245.111 100.252 246.754C106.377 248.397 112.503 250.037 118.628 251.681C124.753 253.324 130.878 254.964 137.004 256.607C143.158 258.257 149.312 259.907 155.47 261.56C161.628 263.213 167.721 264.843 173.846 266.487C174.604 266.691 175.362 266.892 176.12 267.096C176.878 267.3 177.176 266.146 176.437 265.949C170.312 264.305 164.187 262.665 158.061 261.022C151.936 259.379 145.811 257.739 139.686 256.095C133.56 254.452 127.435 252.812 121.31 251.169C115.155 249.519 109.001 247.869 102.843 246.216C96.7182 244.573 90.5929 242.933 84.4676 241.289L82.1938 240.68C81.4552 240.482 81.1378 241.63 81.8763 241.827Z" fill="#165C7E"/>
<path d="M80.3701 254.481C93.0935 254.481 105.817 254.481 118.537 254.481C131.257 254.481 143.851 254.481 156.51 254.481C163.649 254.481 170.791 254.481 177.93 254.481C178.695 254.481 178.698 253.292 177.93 253.292C165.207 253.292 152.484 253.292 139.763 253.292C127.043 253.292 114.449 253.292 101.791 253.292C94.6515 253.292 87.5092 253.292 80.3701 253.292C79.6056 253.292 79.6024 254.481 80.3701 254.481Z" fill="#165C7E"/>
<path d="M82.1904 267.096C88.3157 265.453 94.4409 263.813 100.566 262.169C106.691 260.526 112.817 258.886 118.942 257.243C125.067 255.599 131.192 253.959 137.318 252.316C143.443 250.673 149.627 249.016 155.784 247.363C161.942 245.71 168.035 244.08 174.16 242.437L176.434 241.827C177.172 241.63 176.858 240.482 176.116 240.68C169.991 242.323 163.866 243.963 157.741 245.607C151.615 247.25 145.49 248.89 139.365 250.533C133.24 252.177 127.114 253.817 120.989 255.46C114.835 257.11 108.68 258.76 102.523 260.413C96.3974 262.056 90.2721 263.696 84.1469 265.339L81.873 265.949C81.1344 266.146 81.4486 267.294 82.1904 267.096Z" fill="#165C7E"/>
<path d="M87.2047 278.807C92.7113 275.627 98.2179 272.444 103.724 269.264C109.205 266.098 114.689 262.931 120.17 259.764C125.65 256.598 131.183 253.402 136.689 250.222C142.17 247.056 147.654 243.889 153.135 240.722C158.641 237.543 164.148 234.36 169.654 231.18L171.701 229.997C172.362 229.615 171.766 228.587 171.102 228.97C165.596 232.149 160.089 235.332 154.583 238.512C149.102 241.678 143.618 244.845 138.137 248.012C132.631 251.191 127.124 254.374 121.618 257.554C116.137 260.721 110.653 263.887 105.172 267.054C99.6917 270.221 94.1592 273.416 88.6527 276.596L86.6055 277.779C85.9447 278.162 86.5407 279.189 87.2047 278.807Z" fill="#165C7E"/>
<path d="M95.0791 288.825C99.5783 284.323 104.077 279.821 108.58 275.316C113.06 270.833 117.543 266.347 122.022 261.865C126.502 257.382 130.985 252.896 135.465 248.414C139.945 243.931 144.463 239.41 148.966 234.904C153.446 230.422 157.929 225.936 162.408 221.453C162.962 220.899 163.513 220.348 164.067 219.794C164.621 219.24 163.769 218.41 163.225 218.951C158.725 223.453 154.226 227.955 149.724 232.46C145.244 236.943 140.761 241.429 136.281 245.912C131.801 250.394 127.318 254.88 122.839 259.363C118.34 263.865 113.84 268.367 109.338 272.872C104.858 277.355 100.375 281.84 95.8954 286.323L94.2369 287.983C93.696 288.524 94.5349 289.367 95.0791 288.825Z" fill="#165C7E"/>
<path d="M105.273 296.462C108.45 290.951 111.631 285.441 114.809 279.931C117.986 274.421 121.138 268.96 124.303 263.476C127.467 257.992 130.661 252.456 133.839 246.945L143.333 230.49C146.511 224.98 149.691 219.47 152.869 213.96L154.051 211.911C154.434 211.247 153.407 210.647 153.024 211.311C149.847 216.822 146.666 222.332 143.488 227.842C140.324 233.326 137.159 238.813 133.994 244.297C130.817 249.807 127.636 255.318 124.458 260.828C121.281 266.338 118.129 271.799 114.964 277.283C111.8 282.767 108.606 288.303 105.428 293.814L104.246 295.862C103.864 296.526 104.891 297.126 105.273 296.462Z" fill="#165C7E"/>
<path d="M117.099 301.194C118.741 295.064 120.38 288.935 122.022 282.806C123.665 276.677 125.304 270.548 126.946 264.419C128.588 258.29 130.227 252.16 131.869 246.031L136.819 227.553C138.461 221.424 140.1 215.295 141.742 209.166L142.351 206.89C142.549 206.151 141.402 205.834 141.205 206.573C139.562 212.702 137.923 218.831 136.281 224.96C134.639 231.089 133 237.218 131.358 243.348C129.715 249.477 128.076 255.606 126.434 261.735C124.792 267.864 123.137 274.052 121.485 280.213C119.833 286.375 118.203 292.471 116.561 298.601L115.952 300.876C115.755 301.615 116.901 301.933 117.099 301.194Z" fill="#165C7E"/>
<path d="M129.152 200.972C99.9443 200.972 76.2693 224.662 76.2693 253.888C76.2693 283.114 99.9443 306.804 129.152 306.804C158.359 306.804 182.034 283.114 182.034 253.888C182.034 224.662 158.359 200.972 129.152 200.972ZM129.152 298.847C104.337 298.847 84.2214 278.719 84.2214 253.888C84.2214 229.057 104.337 208.929 129.152 208.929C153.967 208.929 174.082 229.057 174.082 253.888C174.082 278.719 153.967 298.847 129.152 298.847Z" fill="#0B244A"/>
<path d="M129.152 200.376C123.558 200.382 117.964 201.244 112.642 202.975C107.508 204.644 102.626 207.095 98.2275 210.229C93.8449 213.35 89.9515 217.113 86.6767 221.382C83.3954 225.66 80.7782 230.431 78.9221 235.494C77.0661 240.557 75.9324 246.245 75.7186 251.804C75.5016 257.424 76.1656 263.09 77.6977 268.503C79.1715 273.712 81.4519 278.7 84.4255 283.224C87.399 287.749 90.9945 291.759 95.1374 295.175C99.2964 298.604 103.948 301.388 108.933 303.437C114.051 305.54 119.493 306.811 125.009 307.239C130.525 307.667 136.343 307.219 141.827 305.887C147.1 304.607 152.182 302.503 156.824 299.687C161.414 296.902 165.592 293.421 169.152 289.402C172.712 285.383 175.676 280.839 177.888 275.941C180.159 270.911 181.636 265.56 182.274 260.076C182.932 254.449 182.682 248.718 181.558 243.166C180.434 237.614 178.559 232.648 175.909 227.884C173.295 223.187 169.965 218.883 166.078 215.172C162.191 211.461 157.77 208.346 152.973 205.96C148.175 203.575 142.792 201.834 137.376 201.004C134.655 200.586 131.908 200.376 129.155 200.372C128.391 200.372 128.387 201.562 129.155 201.562C134.652 201.568 140.12 202.421 145.348 204.119C150.365 205.75 155.12 208.158 159.422 211.211C163.688 214.238 167.51 217.927 170.688 222.089C173.865 226.25 176.457 230.931 178.264 235.873C180.139 241.004 181.202 246.417 181.406 251.875C181.61 257.376 180.965 262.889 179.466 268.185C178.018 273.303 175.78 278.178 172.858 282.622C169.988 286.988 166.46 290.909 162.437 294.241C158.385 297.599 153.802 300.351 148.93 302.338C143.929 304.377 138.613 305.641 133.227 306.049C127.84 306.458 122.113 306.033 116.726 304.717C111.34 303.401 106.623 301.408 102.082 298.656C97.5926 295.933 93.5275 292.537 90.0389 288.608C86.5568 284.69 83.674 280.239 81.5037 275.465C79.2752 270.561 77.8143 265.281 77.2054 259.927C76.5964 254.572 76.8069 248.832 77.9083 243.409C78.9772 238.165 80.8494 233.096 83.4602 228.422C86.0709 223.748 89.2421 219.677 93.0222 216.06C96.8023 212.443 101.169 209.367 105.875 207.017C110.663 204.628 115.819 202.998 121.106 202.171C123.768 201.756 126.46 201.562 129.155 201.559C129.919 201.559 129.923 200.369 129.155 200.369L129.152 200.376Z" fill="#0B244A"/>
<path d="M129.152 298.251C124.491 298.244 119.852 297.525 115.418 296.082C110.983 294.64 107.132 292.656 103.481 290.067C99.8309 287.477 96.6306 284.378 93.9421 280.858C91.2536 277.338 89.0477 273.361 87.5156 269.167C85.9835 264.973 85.0214 260.225 84.8498 255.596C84.6781 250.968 85.2223 246.255 86.4953 241.763C87.7682 237.27 89.6243 233.287 92.099 229.517C94.5316 225.816 97.5278 222.487 100.939 219.661C104.35 216.835 108.249 214.485 112.376 212.806C116.619 211.078 121.125 210.002 125.692 209.655C130.26 209.308 135.118 209.668 139.686 210.783C144.253 211.898 148.253 213.59 152.104 215.924C155.914 218.235 159.36 221.116 162.318 224.445C165.272 227.77 167.714 231.543 169.557 235.591C171.445 239.743 172.683 244.216 173.198 248.748C173.713 253.279 173.538 258.16 172.602 262.756C171.695 267.206 170.108 271.504 167.895 275.468C165.683 279.432 162.995 282.884 159.788 285.954C156.581 289.023 152.879 291.629 148.888 293.622C144.897 295.616 140.453 297.029 135.97 297.729C133.716 298.079 131.435 298.241 129.155 298.244C128.391 298.244 128.387 299.434 129.155 299.434C133.917 299.427 138.675 298.695 143.206 297.223C147.576 295.804 151.732 293.719 155.473 291.052C159.214 288.384 162.528 285.185 165.32 281.545C168.112 277.906 170.338 273.841 171.918 269.534C173.499 265.226 174.461 260.384 174.646 255.655C174.83 250.871 174.267 246.048 172.961 241.442C171.656 236.836 169.768 232.762 167.238 228.915C164.727 225.096 161.65 221.651 158.123 218.744C154.576 215.82 150.614 213.447 146.361 211.7C142.005 209.911 137.373 208.832 132.679 208.466C127.888 208.093 123.036 208.482 118.365 209.616C113.876 210.705 109.552 212.498 105.603 214.893C101.697 217.262 98.14 220.225 95.1082 223.644C92.0763 227.064 89.553 230.931 87.6743 235.099C85.7956 239.267 84.4805 243.947 83.9363 248.624C83.3921 253.301 83.593 258.29 84.5485 263.015C85.5041 267.741 87.1042 271.968 89.3587 276.019C91.6131 280.071 94.4182 283.681 97.7254 286.838C101.033 289.995 104.797 292.647 108.878 294.679C112.959 296.711 117.539 298.192 122.149 298.899C124.468 299.256 126.81 299.437 129.158 299.44C129.923 299.44 129.926 298.251 129.158 298.251H129.152Z" fill="#0B244A"/>
<path d="M129.152 298.251C124.491 298.244 119.852 297.525 115.418 296.082C110.983 294.64 107.132 292.656 103.481 290.067C99.8309 287.477 96.6306 284.378 93.9421 280.858C91.2536 277.338 89.0477 273.361 87.5156 269.167C85.9835 264.973 85.0214 260.225 84.8498 255.596C84.6781 250.968 85.2223 246.255 86.4953 241.763C87.7682 237.27 89.6243 233.287 92.099 229.517C94.5316 225.816 97.5278 222.487 100.939 219.661C104.35 216.835 108.249 214.485 112.376 212.806C116.619 211.078 121.125 210.002 125.692 209.655C130.26 209.308 135.118 209.668 139.686 210.783C144.253 211.898 148.253 213.59 152.104 215.924C155.914 218.235 159.36 221.116 162.318 224.445C165.272 227.77 167.714 231.543 169.557 235.591C171.445 239.743 172.683 244.216 173.198 248.748C173.713 253.279 173.538 258.16 172.602 262.756C171.695 267.206 170.108 271.504 167.895 275.468C165.683 279.432 162.995 282.884 159.788 285.954C156.581 289.023 152.879 291.629 148.888 293.622C144.897 295.616 140.453 297.029 135.97 297.729C133.716 298.079 131.435 298.241 129.155 298.244C128.391 298.244 128.387 299.434 129.155 299.434C133.917 299.427 138.675 298.695 143.206 297.223C147.576 295.804 151.732 293.719 155.473 291.052C159.214 288.384 162.528 285.185 165.32 281.545C168.112 277.906 170.338 273.841 171.918 269.534C173.499 265.226 174.461 260.384 174.646 255.655C174.83 250.871 174.267 246.048 172.961 241.442C171.656 236.836 169.768 232.762 167.238 228.915C164.727 225.096 161.65 221.651 158.123 218.744C154.576 215.82 150.614 213.447 146.361 211.7C142.005 209.911 137.373 208.832 132.679 208.466C127.888 208.093 123.036 208.482 118.365 209.616C113.876 210.705 109.552 212.498 105.603 214.893C101.697 217.262 98.14 220.225 95.1082 223.644C92.0763 227.064 89.553 230.931 87.6743 235.099C85.7956 239.267 84.4805 243.947 83.9363 248.624C83.3921 253.301 83.593 258.29 84.5485 263.015C85.5041 267.741 87.1042 271.968 89.3587 276.019C91.6131 280.071 94.4182 283.681 97.7254 286.838C101.033 289.995 104.797 292.647 108.878 294.679C112.959 296.711 117.539 298.192 122.149 298.899C124.468 299.256 126.81 299.437 129.158 299.44C129.923 299.44 129.926 298.251 129.158 298.251H129.152Z" fill="#0B244A"/>
<path d="M129.152 257.748C127.905 257.748 126.894 256.737 126.894 255.489V147.547H131.41V255.489C131.41 256.737 130.399 257.748 129.152 257.748Z" fill="#0B244A"/>
<path d="M129.152 257.155C127.092 257.155 127.49 254.604 127.49 253.249C127.49 250.78 127.49 248.31 127.49 245.84C127.49 242.028 127.49 238.217 127.49 234.408V152.059C127.49 150.629 127.581 149.167 127.49 147.738C127.487 147.676 127.49 147.615 127.49 147.553L126.894 148.15H131.41L130.814 147.553V170.407C130.814 175.227 130.814 180.043 130.814 184.863V251.853C130.814 253.052 130.846 254.258 130.814 255.457C130.788 256.403 130.107 257.129 129.152 257.162C128.387 257.188 128.384 258.377 129.152 258.351C130.904 258.293 132.002 256.906 132.002 255.233V253.59C132.002 251.204 132.002 248.822 132.002 246.436V235.082C132.002 230.376 132.002 225.667 132.002 220.96C132.002 215.693 132.002 210.43 132.002 205.163C132.002 199.837 132.002 194.509 132.002 189.184V174.089C132.002 169.846 132.002 165.604 132.002 161.361V152.114C132.002 150.662 132.031 149.203 132.002 147.751C132.002 147.686 132.002 147.625 132.002 147.56C132.002 147.239 131.73 146.963 131.406 146.963H126.891C126.57 146.963 126.295 147.236 126.295 147.56V185.45C126.295 190.736 126.295 196.022 126.295 201.312V252.361C126.295 253.408 126.266 254.455 126.295 255.502C126.337 257.055 127.565 258.358 129.145 258.358C129.91 258.358 129.913 257.168 129.145 257.168L129.152 257.155Z" fill="#0B244A"/>
<path d="M129.152 147.547C122.204 147.547 116.04 145.476 112.208 142.283C111.764 141.914 111.081 142.231 111.077 142.808C111.077 142.815 111.077 142.818 111.077 142.824C111.077 150.756 119.169 157.186 129.149 157.186C139.128 157.186 147.22 150.756 147.22 142.824C147.22 142.818 147.22 142.815 147.22 142.808C147.22 142.231 146.533 141.914 146.089 142.283C142.257 145.476 136.093 147.544 129.145 147.544L129.152 147.547Z" fill="#0B244A"/>
<path d="M129.152 146.95C125.521 146.944 121.886 146.39 118.472 145.126C117.002 144.581 115.583 143.894 114.261 143.048C113.649 142.656 113.105 142.179 112.509 141.768C111.877 141.33 110.983 141.541 110.627 142.228C110.339 142.785 110.497 143.615 110.569 144.212C110.65 144.882 110.773 145.544 110.961 146.192C111.327 147.469 111.9 148.691 112.632 149.796C114.187 152.143 116.402 154.01 118.88 155.316C124.491 158.269 131.51 158.583 137.392 156.243C142.568 154.185 147.1 149.874 147.745 144.111C147.813 143.508 147.962 142.695 147.634 142.147C147.207 141.434 146.287 141.375 145.675 141.858C144.522 142.769 143.304 143.554 141.982 144.202C138.895 145.719 135.455 146.539 132.035 146.827C131.076 146.908 130.114 146.947 129.149 146.947C128.384 146.947 128.381 148.14 129.149 148.137C132.585 148.13 136.045 147.65 139.31 146.561C140.777 146.072 142.212 145.463 143.563 144.711C144.185 144.364 144.79 143.988 145.37 143.576C145.646 143.379 145.918 143.174 146.183 142.967C146.268 142.899 146.465 142.643 146.595 142.74C146.702 142.818 146.617 143.259 146.614 143.372C146.598 143.686 146.575 143.998 146.533 144.309C146.452 144.902 146.316 145.492 146.141 146.062C145.785 147.223 145.241 148.315 144.56 149.32C143.093 151.488 140.988 153.17 138.675 154.363C133.424 157.069 126.93 157.293 121.439 155.177C116.759 153.374 112.48 149.485 111.77 144.306C111.732 144.011 111.706 143.716 111.689 143.417C111.683 143.294 111.589 142.798 111.715 142.727C111.842 142.656 112.03 142.892 112.117 142.964C112.412 143.197 112.71 143.421 113.018 143.638C114.184 144.458 115.447 145.139 116.756 145.703C119.836 147.035 123.14 147.77 126.479 148.03C127.37 148.098 128.261 148.13 129.152 148.133C129.916 148.133 129.919 146.944 129.152 146.944V146.95Z" fill="#0B244A"/>
<path d="M129.152 262.354C133.825 262.354 137.613 258.564 137.613 253.888C137.613 249.213 133.825 245.422 129.152 245.422C124.479 245.422 120.691 249.213 120.691 253.888C120.691 258.564 124.479 262.354 129.152 262.354Z" fill="#0B244A"/>
<path d="M137.02 253.888C136.997 257.165 134.924 260.202 131.811 261.301C128.679 262.406 125.171 261.421 123.056 258.87C120.941 256.319 120.727 252.624 122.414 249.824C124.102 247.023 127.451 245.519 130.661 246.158C134.331 246.887 136.997 250.154 137.023 253.888C137.029 254.653 138.218 254.656 138.212 253.888C138.186 250.112 135.818 246.709 132.284 245.383C128.747 244.057 124.578 245.182 122.184 248.106C119.791 251.029 119.418 255.279 121.391 258.552C123.363 261.826 127.205 263.492 130.927 262.775C134.649 262.059 137.535 259.009 138.095 255.334C138.17 254.854 138.212 254.374 138.215 253.888C138.221 253.123 137.033 253.123 137.026 253.888H137.02Z" fill="#0B244A"/>
<path d="M154.119 280.323L155.555 278.885L125.532 248.843L124.096 250.28L154.119 280.323Z" fill="#0B244A" stroke="#2F292B" stroke-width="1.84" stroke-miterlimit="10"/>
<path d="M160.63 278.891H146.831C146.073 278.891 145.458 279.506 145.458 280.265V281.607C145.458 282.366 146.073 282.981 146.831 282.981H160.63C161.389 282.981 162.003 282.366 162.003 281.607V280.265C162.003 279.506 161.389 278.891 160.63 278.891Z" fill="#0B244A"/>
<path d="M146.831 279.484H153.125C155.58 279.484 158.039 279.471 160.494 279.484C160.986 279.484 161.381 279.743 161.407 280.278C161.424 280.599 161.407 280.923 161.407 281.247C161.407 281.571 161.437 281.866 161.216 282.119C160.97 282.401 160.649 282.385 160.316 282.385H147.119C146.779 282.385 146.442 282.385 146.209 282.08C146.018 281.824 146.054 281.51 146.054 281.208C146.054 280.907 146.038 280.579 146.054 280.268C146.076 279.827 146.384 279.5 146.831 279.484C147.592 279.452 147.599 278.262 146.831 278.294C145.591 278.343 144.865 279.306 144.865 280.489C144.865 281.403 144.755 282.398 145.519 283.069C146.284 283.74 147.417 283.574 148.363 283.574C151.544 283.574 154.725 283.574 157.906 283.574C158.8 283.574 159.697 283.597 160.591 283.574C161.624 283.548 162.486 282.826 162.586 281.772C162.619 281.429 162.596 281.079 162.596 280.735C162.596 280.34 162.612 279.947 162.467 279.568C162.156 278.748 161.385 278.301 160.533 278.291C160.189 278.291 159.843 278.291 159.5 278.291H155.175C152.448 278.291 149.714 278.243 146.983 278.291C146.932 278.291 146.88 278.291 146.828 278.291C146.063 278.291 146.06 279.481 146.828 279.481L146.831 279.484Z" fill="#0B244A"/>
<path d="M134.513 121.672C128.889 151.974 116.992 182.397 123.917 212.43C125.709 220.196 128.316 227.745 130.917 235.277C133.823 243.685 136.592 248.459 140.259 256.562C141.969 260.345 145.448 266.717 145.458 270.866C145.471 275.014 141.441 280.67 137.331 281.225C143.631 280.272 149.931 279.319 156.231 278.366C154.382 254.426 152.406 229.949 142.701 207.989C141.817 205.989 140.855 203.954 140.748 201.769C140.654 199.896 141.198 198.055 141.772 196.269C146.585 181.252 153.912 166.998 157.025 151.537C160.138 136.076 158.181 118.314 146.838 107.362" fill="#165C7E"/>
<path d="M133.939 121.513C131.759 133.218 128.711 144.737 126.127 156.353C123.597 167.727 121.469 179.282 121.235 190.963C121.122 196.7 121.482 202.45 122.447 208.109C123.454 214.031 125.155 219.829 126.998 225.54C128.841 231.251 130.554 236.515 132.783 241.818C134.736 246.459 137.026 250.948 139.132 255.522C141.049 259.69 143.414 263.842 144.506 268.325C145.011 270.399 144.917 272.337 144.062 274.311C143.177 276.35 141.739 278.282 139.89 279.536C139.057 280.1 138.163 280.495 137.169 280.648C136.414 280.764 136.735 281.909 137.486 281.795C143.786 280.842 150.087 279.889 156.387 278.936C156.626 278.901 156.84 278.599 156.824 278.363C155.875 266.091 154.903 253.801 152.882 241.649C151.875 235.591 150.598 229.573 148.927 223.661C147.256 217.749 145.134 212.128 142.708 206.534C142.073 205.066 141.464 203.526 141.351 201.915C141.237 200.304 141.655 198.625 142.141 197.05C143.054 194.088 144.107 191.167 145.186 188.263C147.382 182.361 149.776 176.533 151.959 170.628C155.881 160 159.108 148.963 158.936 137.532C158.787 127.613 156.192 117.446 149.789 109.68C148.995 108.717 148.146 107.806 147.256 106.938C146.708 106.403 145.866 107.242 146.413 107.78C153.744 114.914 157.08 124.988 157.656 135.029C158.301 146.293 155.483 157.232 151.739 167.762C149.665 173.593 147.327 179.327 145.114 185.106C144.029 187.946 142.973 190.798 141.995 193.679C141.017 196.561 139.825 199.51 140.227 202.544C140.628 205.578 142.235 208.291 143.359 211.049C144.505 213.862 145.539 216.724 146.465 219.619C148.321 225.411 149.759 231.333 150.9 237.303C153.203 249.347 154.314 261.576 155.276 273.789C155.396 275.313 155.515 276.839 155.632 278.363L156.069 277.789C149.769 278.742 143.469 279.695 137.169 280.648L137.486 281.795C141.545 281.163 144.716 276.894 145.723 273.154C146.847 268.986 144.638 264.542 142.928 260.844C140.855 256.361 138.733 251.901 136.615 247.441C134.263 242.482 132.281 237.439 130.496 232.25C128.511 226.464 126.58 220.653 125.077 214.721C123.597 208.874 122.712 202.93 122.476 196.898C122.006 184.99 123.798 173.13 126.224 161.504C128.689 149.683 131.824 138.011 134.231 126.178C134.526 124.729 134.807 123.277 135.08 121.825C135.219 121.076 134.072 120.755 133.933 121.507L133.939 121.513Z" fill="#165C7E"/>
<path d="M212.894 46.8001C219.375 46.1907 225.912 46.2782 232.377 47.0561C232.698 47.095 232.97 46.7547 232.973 46.4598C232.977 46.1065 232.695 45.9023 232.377 45.8634C225.912 45.0855 219.379 45.0012 212.894 45.6073C212.139 45.6786 212.133 46.8682 212.894 46.7968V46.8001Z" fill="#0B244A"/>
<path d="M227.279 49.5745C228.532 49.9732 229.812 50.2973 231.104 50.5436C231.409 50.602 231.762 50.4594 231.836 50.1288C231.904 49.837 231.749 49.4578 231.422 49.3962C230.129 49.1499 228.85 48.8258 227.596 48.4271C227.298 48.3331 226.936 48.5373 226.864 48.842C226.79 49.1661 226.961 49.474 227.279 49.5745Z" fill="#0B244A"/>
<path d="M225.546 52.3198C225.912 52.4916 226.278 52.6666 226.644 52.8384C226.712 52.8805 226.787 52.9064 226.864 52.9097C226.942 52.9259 227.023 52.9226 227.101 52.9C227.24 52.8611 227.389 52.7541 227.457 52.6277C227.532 52.4883 227.567 52.323 227.516 52.1707C227.47 52.0313 227.379 51.879 227.243 51.8141C226.877 51.6424 226.511 51.4673 226.145 51.2955C226.077 51.2534 226.003 51.2275 225.925 51.2242C225.847 51.208 225.766 51.2113 225.689 51.234C225.549 51.2729 225.4 51.3798 225.332 51.5062C225.258 51.6456 225.222 51.8109 225.274 51.9632C225.319 52.1026 225.41 52.2549 225.546 52.3198Z" fill="#0B244A"/>
<path d="M216.616 54.7508C219.395 54.1253 221.643 52.281 223.777 50.4951C224.024 50.2876 223.991 49.8663 223.777 49.6524C223.534 49.4093 223.185 49.4449 222.935 49.6524C220.956 51.3086 218.877 53.0232 216.298 53.6034C215.553 53.772 215.867 54.9193 216.616 54.7508Z" fill="#0B244A"/>
<path d="M218.809 49.3573C219.301 49.312 219.793 49.2666 220.286 49.218C220.448 49.2018 220.587 49.1629 220.707 49.0429C220.81 48.9392 220.888 48.7707 220.882 48.6216C220.875 48.4725 220.823 48.3072 220.707 48.2002C220.597 48.0998 220.441 48.0122 220.286 48.0252C219.793 48.0706 219.301 48.116 218.809 48.1646C218.647 48.1808 218.507 48.2197 218.387 48.3396C218.284 48.4433 218.206 48.6119 218.213 48.761C218.219 48.9101 218.271 49.0754 218.387 49.1823C218.498 49.2828 218.653 49.3703 218.809 49.3573Z" fill="#0B244A"/>
<path d="M44.1174 45.6104C37.6358 45.001 31.0992 45.0885 24.6338 45.8664C24.3132 45.9053 24.0443 46.1128 24.0378 46.4628C24.0378 46.7545 24.3132 47.0948 24.6338 47.0592C31.0992 46.2813 37.6326 46.197 44.1174 46.8031C44.8786 46.8744 44.8754 45.6849 44.1174 45.6136V45.6104Z" fill="#0B244A"/>
<path d="M29.418 48.4304C28.1644 48.8291 26.885 49.1532 25.5926 49.3995C25.2848 49.4579 25.084 49.8436 25.1779 50.132C25.2848 50.4594 25.5796 50.6085 25.91 50.5469C27.2024 50.3006 28.4819 49.9765 29.7354 49.5778C30.0302 49.4838 30.2537 49.1597 30.1501 48.8453C30.0529 48.5471 29.7354 48.3299 29.418 48.4304Z" fill="#0B244A"/>
<path d="M30.8659 51.2922C30.4999 51.464 30.1339 51.639 29.7678 51.8108C29.6415 51.8724 29.5314 52.0345 29.4958 52.1673C29.4569 52.31 29.4731 52.4979 29.5541 52.6244C29.635 52.7508 29.7581 52.8642 29.9104 52.8966L30.0691 52.9193C30.176 52.9193 30.2764 52.8934 30.3703 52.8383C30.7364 52.6665 31.1024 52.4915 31.4684 52.3197C31.5947 52.2581 31.7049 52.096 31.7405 51.9631C31.7794 51.8205 31.7632 51.6325 31.6822 51.5061C31.6012 51.3797 31.4781 51.2663 31.3259 51.2339L31.1672 51.2112C31.0603 51.2112 30.9599 51.2371 30.8659 51.2922Z" fill="#0B244A"/>
<path d="M40.713 53.6066C38.1379 53.0264 36.0551 51.3118 34.076 49.6555C33.8298 49.4481 33.4767 49.4157 33.2338 49.6555C33.0232 49.8662 32.9876 50.2908 33.2338 50.4982C35.3684 52.2841 37.6164 54.1284 40.3956 54.7539C41.1406 54.9225 41.458 53.7751 40.713 53.6066Z" fill="#0B244A"/>
<path d="M38.2027 48.1678C37.7104 48.1224 37.218 48.077 36.7257 48.0284C36.5831 48.0154 36.405 48.1029 36.3046 48.2034C36.2009 48.3071 36.1232 48.4757 36.1296 48.6248C36.1361 48.7739 36.188 48.9392 36.3046 49.0461C36.4212 49.1531 36.5605 49.2049 36.7257 49.2212C37.218 49.2665 37.7104 49.3119 38.2027 49.3605C38.3452 49.3735 38.5234 49.286 38.6238 49.1855C38.7275 49.0818 38.8052 48.9132 38.7987 48.7641C38.7922 48.615 38.7404 48.4497 38.6238 48.3428C38.5072 48.2358 38.3679 48.184 38.2027 48.1678Z" fill="#0B244A"/>
<path d="M123.888 45.954C122.605 42.2298 120.464 38.8914 119.363 35.0959C117.734 29.4692 115.985 23.0872 122.673 20.0988C125.177 18.9806 128.378 18.9773 130.473 20.9415C133.92 24.1762 131.231 27.9036 129.482 32.2955C117.471 62.5069 104.149 102.241 82.9484 126.884C91.5969 137.502 107.219 141.774 120.905 142.092C138.205 142.494 155.8 138.896 170.84 130.329C166.166 119.089 144.651 74.0975 137.616 64.1664C129.806 53.143 131.698 56.9742 123.888 45.9508" fill="#BFD2B6"/>
<path d="M124.462 45.7952C123.503 43.0467 122.097 40.4926 120.97 37.8121C120.047 35.6145 119.386 33.2744 118.89 30.9439C118.495 29.077 118.236 27.0707 118.728 25.194C119.266 23.1358 120.756 21.687 122.631 20.773C124.743 19.7455 127.455 19.5251 129.473 20.8962C130.444 21.5574 131.235 22.5719 131.474 23.7387C131.695 24.8116 131.432 25.9233 131.092 26.9443C130.684 28.163 130.127 29.3266 129.612 30.4999C129.097 31.6732 128.656 32.7979 128.2 33.955C127.312 36.2044 126.434 38.4571 125.56 40.7097C121.828 50.3394 118.155 59.9918 114.219 69.5372C110.177 79.3483 105.866 89.0655 100.926 98.4586C96.2744 107.307 91.0658 115.935 84.798 123.74C84.0595 124.661 83.3015 125.571 82.5339 126.466C82.3071 126.729 82.3168 127.043 82.5339 127.309C89.7378 136.099 101.172 140.358 112.127 141.949C118.242 142.837 124.455 142.892 130.613 142.491C137.266 142.059 143.89 141.016 150.333 139.298C157.585 137.363 164.611 134.556 171.144 130.845C171.348 130.728 171.517 130.411 171.416 130.174C169.499 125.568 167.377 121.043 165.265 116.522C162.178 109.916 159.017 103.343 155.797 96.7991C152.565 90.2291 149.277 83.6819 145.847 77.2124C143.492 72.7752 141.159 68.2245 138.29 64.0919C136.242 61.1456 134.114 58.2415 131.85 55.4605C130.091 53.3019 128.365 51.1335 126.726 48.8841C125.945 47.8145 125.174 46.7352 124.41 45.6558C123.969 45.0368 122.939 45.6299 123.383 46.2555C125.472 49.205 127.594 52.135 129.884 54.9322C131.753 57.2108 133.554 59.5283 135.28 61.9171C136.819 64.0465 138.29 66.1825 139.627 68.4416C141.04 70.8272 142.377 73.2581 143.692 75.6987C147.077 81.9835 150.3 88.3589 153.468 94.7571C156.636 101.155 159.976 108.056 163.131 114.755C165.421 119.621 167.704 124.492 169.826 129.432C170.001 129.837 170.118 130.116 170.276 130.492L170.548 129.821C159.066 136.342 146.106 139.975 132.987 141.123C121.303 142.144 109.205 141.521 98.2438 137.023C92.5688 134.692 87.2922 131.244 83.3793 126.469V127.312C90.107 119.478 95.6687 110.701 100.582 101.638C105.823 91.9729 110.345 81.9316 114.569 71.7866C118.689 61.8944 122.505 51.8822 126.373 41.8928C127.293 39.517 128.216 37.1444 129.149 34.7718C129.631 33.5434 130.104 32.3117 130.635 31.1028C131.167 29.8938 131.717 28.7399 132.151 27.5147C132.935 25.288 133.023 22.99 131.439 21.0939C129.855 19.1978 127.189 18.4782 124.721 18.8736C122.486 19.2334 120.234 20.4521 118.851 22.2672C117.653 23.8392 117.235 25.8066 117.287 27.7546C117.345 29.897 117.876 32.0103 118.453 34.062C119.224 36.8106 120.348 39.3582 121.559 41.9382C122.201 43.3092 122.823 44.6867 123.321 46.1161C123.571 46.8357 124.721 46.5245 124.468 45.7985L124.462 45.7952Z" fill="#BFD2B6"/>
<path d="M123.888 45.954C153.776 45.0367 183.784 45.6623 213.668 44.745C214.235 44.7288 214.837 44.7191 215.313 45.0238C216.386 45.7077 216.091 47.325 215.667 48.521C214.06 53.0652 212.379 57.7358 209.166 61.3304C205.952 64.9249 200.792 67.2164 196.232 65.6639C193.485 64.7304 191.055 62.4907 188.16 62.6755C184.554 62.9088 182.413 66.6265 179.903 69.2292C174.821 74.5027 165.988 75.6339 159.742 71.8125C156.691 69.9455 153.698 66.9279 150.193 67.6378C148.882 67.9035 147.741 68.6782 146.53 69.2454C140.512 72.0685 132.43 68.8532 129.991 62.6625" fill="#BFD2B6"/>
<path d="M123.888 46.5472C131.594 46.3106 139.3 46.1777 147.009 46.0934C154.725 46.0091 162.437 45.9735 170.153 45.9378C177.869 45.9022 185.581 45.86 193.294 45.7628C197.164 45.7142 201.032 45.6526 204.903 45.5683C206.82 45.5262 208.741 45.4808 210.659 45.429C211.634 45.403 212.606 45.3739 213.58 45.3447C214.183 45.3252 215.009 45.2507 215.326 45.8957C215.586 46.424 215.453 47.1144 215.317 47.6589C215.129 48.4012 214.837 49.1175 214.578 49.837C214.021 51.3831 213.444 52.9227 212.771 54.4201C211.472 57.3178 209.81 60.1473 207.394 62.2541C205.188 64.1762 202.318 65.5407 199.354 65.5667C197.864 65.5796 196.458 65.2069 195.121 64.5651C193.783 63.9234 192.416 63.0709 190.958 62.5426C189.582 62.0435 188.085 61.9073 186.676 62.3643C185.419 62.7727 184.337 63.5668 183.388 64.4711C181.409 66.364 179.939 68.7463 177.71 70.3831C173.321 73.6081 167.29 74.3925 162.22 72.3992C159.438 71.3036 157.303 69.1223 154.634 67.8258C153.329 67.1938 151.91 66.8081 150.453 67.0058C148.807 67.2294 147.472 68.2147 145.979 68.8565C141.393 70.8239 135.724 69.2033 132.462 65.5505C131.665 64.6591 131.011 63.6252 130.567 62.5167C130.285 61.8133 129.136 62.1212 129.421 62.8343C131.384 67.7318 136.511 70.8693 141.723 70.8855C143.009 70.8888 144.311 70.6975 145.532 70.2924C147.048 69.79 148.357 68.7917 149.889 68.3412C152.96 67.4304 155.771 69.8548 158.123 71.4722C160.536 73.1349 163.137 74.224 166.062 74.5643C168.831 74.8884 171.705 74.5351 174.312 73.553C176.92 72.5709 179.271 70.905 181.157 68.756C182.877 66.7951 184.609 64.1405 187.282 63.4339C190.385 62.6107 193.132 65.1777 195.872 66.1793C198.612 67.1808 201.9 66.7692 204.615 65.4954C210.782 62.5977 213.603 56.0699 215.773 50.0185C216.24 48.7188 216.93 47.2181 216.548 45.8082C216.363 45.1275 215.887 44.5895 215.229 44.3399C214.458 44.0482 213.561 44.1714 212.761 44.1941C208.803 44.3107 204.844 44.4015 200.886 44.4728C192.96 44.6154 185.037 44.6802 177.111 44.7289C169.214 44.7742 161.313 44.8002 153.416 44.8617C145.493 44.9233 137.57 45.0238 129.647 45.2183C127.73 45.2637 125.812 45.3188 123.895 45.3771C123.13 45.3998 123.127 46.5893 123.895 46.5666L123.888 46.5472Z" fill="#BFD2B6"/>
<path d="M133.126 45.954C103.239 45.0367 73.2309 45.6623 43.3464 44.745C42.7796 44.7288 42.1771 44.7191 41.7009 45.0238C40.6288 45.7077 40.9235 47.325 41.3479 48.521C42.9545 53.0652 44.6356 57.7358 47.8489 61.3304C51.0621 64.9249 56.2221 67.2164 60.7828 65.6639C63.5296 64.7304 65.959 62.4907 68.8548 62.6755C72.46 62.9088 74.6011 66.6265 77.1114 69.2292C82.1937 74.5027 91.0269 75.6339 97.272 71.8125C100.323 69.9455 103.316 66.9279 106.821 67.6378C108.133 67.9035 109.273 68.6782 110.485 69.2454C116.503 72.0685 124.585 68.8532 127.024 62.6625" fill="#BFD2B6"/>
<path d="M133.126 45.3575C125.21 45.1145 117.287 44.9783 109.367 44.8973C101.441 44.813 93.5113 44.7806 85.5819 44.7417C77.6848 44.7028 69.7877 44.6574 61.8939 44.5472C57.9324 44.4921 53.9741 44.4208 50.0126 44.3301C48.0335 44.2847 46.0544 44.2296 44.0753 44.1713C43.2719 44.1486 42.4006 44.0416 41.6459 44.3819C41.0207 44.6639 40.5867 45.2311 40.4409 45.9021C40.1267 47.3444 40.8167 48.8256 41.2928 50.1513C41.8662 51.746 42.4686 53.3277 43.1553 54.877C44.4737 57.846 46.1807 60.7663 48.6198 62.9541C50.8969 64.9929 53.7701 66.4482 56.8376 66.7172C58.334 66.8468 59.8694 66.6524 61.2752 66.1176C62.7749 65.5471 64.1289 64.6817 65.58 64.014C66.9243 63.3949 68.3852 63.0352 69.8428 63.4565C71.1222 63.826 72.1782 64.6947 73.1014 65.6281C74.1088 66.6459 74.9898 67.7771 75.9356 68.8467C76.8815 69.9163 77.8986 70.8627 79.0679 71.6698C83.687 74.8591 90.013 75.5949 95.2248 73.4946C96.5788 72.9501 97.8064 72.2111 99.0049 71.3813C100.294 70.49 101.561 69.5371 102.976 68.8499C104.392 68.1628 105.814 67.9067 107.271 68.3799C108.729 68.8532 110.073 69.8385 111.586 70.3214C116.522 71.8999 122.363 70.0297 125.654 66.0722C126.47 65.0901 127.111 64.0108 127.584 62.8245C127.869 62.1147 126.719 61.8067 126.437 62.5068C124.578 67.1483 119.399 69.9584 114.514 69.6635C113.306 69.5889 112.098 69.3166 110.987 68.8337C109.458 68.166 108.094 67.1774 106.393 66.9797C103.358 66.6264 100.741 68.7332 98.3992 70.3506C97.2202 71.1674 96.0087 71.9226 94.6612 72.4379C93.4077 72.9176 92.0829 73.245 90.7483 73.3844C88.0436 73.6696 85.2968 73.2969 82.7638 72.3018C81.5135 71.8092 80.3215 71.1382 79.2428 70.3376C78.1642 69.5371 77.1957 68.4999 76.2984 67.4529C74.5914 65.4628 72.839 63.1097 70.212 62.3221C67.1024 61.3886 64.4269 63.3658 61.7514 64.6234C59.0758 65.881 56.0407 65.7902 53.3101 64.6007C47.2205 61.9461 44.4802 55.5609 42.3747 49.6878C42.1188 48.978 41.8305 48.2682 41.6588 47.5324C41.5358 47.0008 41.4159 46.291 41.7301 45.7983C42.1156 45.1987 42.9966 45.3284 43.6056 45.3478C44.5806 45.377 45.5523 45.4062 46.5273 45.4321C50.3657 45.5358 54.2009 45.6168 58.0393 45.6817C65.7517 45.8081 73.4642 45.8664 81.1766 45.9118C88.889 45.9572 96.608 45.9799 104.32 46.0447C112.033 46.1095 119.739 46.2067 127.448 46.398C129.336 46.4433 131.222 46.4952 133.11 46.5536C133.875 46.5762 133.875 45.3867 133.11 45.364L133.126 45.3575Z" fill="#BFD2B6"/>
<path d="M138.231 71.0055C139.261 71.6797 140.541 71.9908 141.762 71.8482C142.07 71.8126 142.371 71.6019 142.358 71.2518C142.345 70.9601 142.095 70.6198 141.762 70.6554C141.49 70.6879 141.218 70.6976 140.942 70.6846C140.871 70.6814 140.797 70.6749 140.725 70.6684C140.69 70.6652 140.654 70.6619 140.615 70.6554C140.683 70.6652 140.68 70.6652 140.612 70.6554C140.486 70.6328 140.359 70.6101 140.236 70.5809C140.113 70.5517 139.99 70.5161 139.867 70.4772C139.799 70.4545 139.728 70.4318 139.66 70.4059C139.64 70.3994 139.436 70.3151 139.549 70.3637C139.3 70.2535 139.06 70.1239 138.83 69.9715C138.568 69.7998 138.163 69.91 138.017 70.1855C137.862 70.4837 137.953 70.8175 138.231 70.999V71.0055Z" fill="#0B244A"/>
<path d="M121.582 47.2344C119.548 53.0135 117.575 58.8153 115.661 64.6365C115.117 66.2895 114.579 67.9426 114.044 69.5988C113.808 70.3281 114.958 70.6425 115.191 69.9165C117.073 64.0855 119.01 58.274 121.012 52.4819C121.579 50.8386 122.152 49.1953 122.729 47.5553C122.985 46.8325 121.835 46.5213 121.582 47.2376V47.2344Z" fill="#0B244A"/>
<path d="M127.911 37.0277C126.548 31.1838 125.566 25.2523 124.973 19.2788C126.839 19.0908 128.747 19.3112 130.522 19.9205C131.167 20.1409 131.811 20.4229 132.307 20.8929C133.194 21.7291 133.483 23.0483 133.35 24.2605C133.217 25.4727 132.715 26.6072 132.219 27.7189C130.839 30.8143 129.463 33.9129 128.083 37.0082" fill="#0B244A"/>
<path d="M128.485 36.8689C127.137 31.0736 126.159 25.1972 125.566 19.2788L124.97 19.8752C126.547 19.7261 128.125 19.8492 129.654 20.2738C130.995 20.6498 132.261 21.1976 132.65 22.6529C133.039 24.1082 132.54 25.4727 131.996 26.7498C131.328 28.3088 130.619 29.8516 129.929 31.4009C129.142 33.1706 128.355 34.9404 127.565 36.7101C127.432 37.005 127.48 37.3453 127.778 37.5236C128.031 37.6759 128.462 37.6046 128.591 37.3097C130.111 33.8999 131.695 30.5128 133.139 27.0707C133.758 25.5959 134.215 23.9915 133.81 22.3936C133.405 20.7957 132.226 19.8914 130.739 19.3695C128.899 18.7245 126.907 18.5009 124.97 18.6824C124.675 18.7116 124.342 18.932 124.374 19.2788C124.976 25.3042 125.961 31.2875 127.335 37.1865C127.51 37.932 128.656 37.6176 128.481 36.8689H128.485Z" fill="#0B244A"/>
<path d="M126.703 19.8297C126.107 18.4198 125.109 17.0131 123.616 16.6793C122.259 16.3746 120.895 17.0358 119.638 17.6322C117.238 18.7699 114.757 19.739 112.221 20.5266C112.101 20.5655 111.968 20.6109 111.91 20.7243C111.842 20.8605 111.916 21.0225 111.987 21.1554C112.354 21.8296 112.729 22.5135 113.286 23.0418C113.844 23.5669 114.624 23.9169 115.376 23.7743C116.334 23.5896 117.274 22.6561 118.129 23.1228C118.929 23.5604 118.861 24.9023 119.684 25.3009C120.293 25.5959 121.002 25.1778 121.494 24.7143C121.99 24.2508 122.495 23.6933 123.169 23.6511C123.979 23.6025 124.598 24.3124 125.219 24.831C125.841 25.3528 126.907 25.6639 127.367 24.993" fill="#0B244A"/>
<path d="M127.218 19.5284C126.719 18.3713 125.987 17.2434 124.896 16.5692C123.655 15.801 122.197 15.9307 120.885 16.4331C119.457 16.9841 118.1 17.7133 116.681 18.2935C115.262 18.8737 113.772 19.415 112.286 19.8817C111.971 19.9822 111.657 20.0665 111.456 20.3484C111.236 20.6531 111.275 21.0194 111.427 21.3467C111.706 21.9529 112.085 22.546 112.506 23.0614C113.397 24.1439 114.767 24.7079 116.111 24.1569C116.558 23.9754 117.16 23.5216 117.666 23.5799C118.103 23.6286 118.265 24.2314 118.411 24.5653C118.605 25.019 118.842 25.4663 119.276 25.7418C119.868 26.1178 120.584 26.0109 121.174 25.69C121.802 25.3497 122.201 24.7111 122.819 24.3708C123.438 24.0305 123.979 24.5199 124.432 24.9218C124.944 25.3723 125.466 25.7905 126.152 25.9201C126.839 26.0498 127.451 25.8585 127.885 25.2913C128.083 25.0353 127.921 24.6269 127.672 24.4778C127.367 24.2963 127.053 24.4389 126.859 24.6917C126.664 24.9445 126.107 24.6852 125.916 24.5815C125.453 24.3254 125.093 23.9008 124.669 23.5864C124.244 23.272 123.723 23.0289 123.172 23.0549C122.586 23.084 122.094 23.3855 121.656 23.7517C121.245 24.0985 120.882 24.5847 120.358 24.7565C119.907 24.9024 119.719 24.588 119.548 24.2282C119.149 23.3855 118.799 22.4682 117.714 22.4001C116.629 22.3321 115.738 23.4373 114.66 23.1618C114.103 23.0192 113.652 22.6238 113.306 22.1765C113.128 21.9464 112.975 21.6968 112.83 21.4472C112.762 21.3305 112.694 21.2106 112.629 21.0907C112.606 21.0453 112.571 20.9416 112.532 20.9124C112.473 20.7666 112.409 20.8314 112.341 21.1101L112.379 21.1004C112.47 21.1231 112.726 20.9935 112.817 20.961C112.988 20.9059 113.157 20.8508 113.325 20.7957C113.639 20.692 113.954 20.5851 114.268 20.4749C114.919 20.248 115.567 20.0081 116.208 19.7553C117.491 19.2529 118.757 18.7019 120.001 18.112C121.245 17.5221 122.631 16.8252 123.946 17.4087C125.058 17.9013 125.728 19.0617 126.185 20.128C126.311 20.4262 126.745 20.4878 126.998 20.342C127.306 20.1669 127.338 19.8201 127.212 19.5284H127.218Z" fill="#0B244A"/>
<path d="M124.844 31.7963C125.223 30.6521 125.628 29.4594 126.48 28.6102C126.687 28.4027 126.927 28.2147 127.202 28.1143C127.817 27.8906 128.543 28.1434 128.967 28.6393C129.392 29.1353 129.537 29.8321 129.46 30.4804C129.382 31.1286 129.1 31.7412 128.757 32.2954C128.063 33.4072 127.098 34.3471 125.968 35.0083" fill="#BFD2B6"/>
<path d="M125.417 31.9553C125.747 30.9602 126.084 29.8906 126.823 29.1127C127.121 28.7983 127.458 28.5552 127.908 28.6524C128.358 28.7497 128.65 29.0965 128.789 29.5049C129.132 30.5161 128.569 31.5631 128.002 32.3701C127.393 33.2388 126.583 33.9551 125.673 34.4931C125.015 34.8821 125.611 35.9128 126.272 35.5206C127.186 34.9793 128.008 34.2824 128.666 33.4495C129.362 32.5711 129.955 31.5631 130.065 30.4254C130.166 29.385 129.725 28.2408 128.776 27.7255C127.74 27.1615 126.661 27.5083 125.906 28.351C125.074 29.2812 124.656 30.4708 124.27 31.6376C124.031 32.3669 125.177 32.678 125.417 31.9553Z" fill="#BFD2B6"/>
<path d="M127.772 36.5286C128.102 43.9996 128.436 51.4674 128.766 58.9384C128.919 62.3774 129.197 66.1339 131.546 68.6524C133.087 70.3054 135.429 71.3037 136.294 73.391C137.451 76.185 135.352 79.3063 135.64 82.3141C135.873 84.7483 137.862 86.9069 140.269 87.338C141.879 87.6265 143.686 87.2408 145.059 88.1289C146.831 89.273 146.818 91.6294 147.453 93.4218C149.115 98.1053 154.709 99.4731 159.072 98.1183C164.345 96.4815 167.889 90.7186 169.46 85.7239C170.422 82.6642 170.218 79.0632 168.466 76.3211C166.648 73.4785 162.842 72.4414 159.904 71.0541C155.37 68.9149 150.951 65.2815 150.21 60.0113C149.876 57.6452 150.31 55.0166 148.969 53.0362C147.071 50.2358 142.96 50.4594 139.815 49.2115C136.663 47.9604 134.445 45.1503 132.381 42.4601C131.905 41.841 128.193 37.1801 127.766 36.5254" fill="#0B244A"/>
<path d="M127.176 36.5287C127.51 44.0418 127.833 51.5517 128.177 59.0649C128.306 61.9496 128.507 65.0352 130.01 67.5828C130.736 68.8145 131.759 69.7317 132.877 70.5971C133.904 71.3945 135.031 72.1983 135.633 73.3846C136.307 74.7038 136.029 76.2401 135.714 77.6176C135.374 79.1118 134.918 80.6385 135.031 82.191C135.232 84.9331 137.379 87.4223 140.107 87.915C140.848 88.0511 141.603 88.0576 142.358 88.0868C143.113 88.1159 143.877 88.1613 144.538 88.5146C145.688 89.1304 146.067 90.4107 146.352 91.597C146.637 92.7833 146.941 94.0571 147.625 95.1526C148.263 96.1769 149.137 97.0358 150.155 97.6808C152.163 98.9611 154.683 99.4019 157.031 99.1361C159.684 98.8379 162.058 97.6451 164.021 95.8495C166.056 93.9923 167.617 91.6132 168.77 89.124C169.985 86.4986 170.866 83.6949 170.561 80.7713C170.403 79.2415 169.975 77.7473 169.214 76.4087C168.524 75.1964 167.533 74.2403 166.376 73.4753C164.109 71.9714 161.44 71.2357 159.049 69.9619C156.659 68.6881 154.346 66.9832 152.759 64.7305C151.968 63.6123 151.363 62.3774 151.023 61.0485C150.647 59.5802 150.692 58.0731 150.579 56.5756C150.465 55.0782 150.164 53.5678 149.202 52.3556C148.412 51.3605 147.294 50.7382 146.115 50.3103C143.602 49.3996 140.852 49.3282 138.526 47.8989C136.122 46.4209 134.409 44.1002 132.702 41.9091C131.597 40.4927 130.473 39.0892 129.369 37.6696C129.003 37.1996 128.614 36.7296 128.284 36.2272C127.866 35.592 126.836 36.1851 127.257 36.8269C128.174 38.2206 129.301 39.5041 130.334 40.8103C130.82 41.4262 131.306 42.0387 131.788 42.6546C131.837 42.7162 132.006 42.9366 131.873 42.7615C132.112 43.0759 132.355 43.3903 132.598 43.7015C133.052 44.2849 133.515 44.8586 133.998 45.4193C134.969 46.5473 136.029 47.5974 137.243 48.4661C138.393 49.2894 139.673 49.8598 141.03 50.2325C142.264 50.5729 143.527 50.7868 144.761 51.1271C145.892 51.4383 147.048 51.8564 147.907 52.6862C148.937 53.678 149.273 55.0587 149.384 56.4395C149.503 57.9272 149.458 59.4214 149.769 60.8897C150.336 63.5767 151.904 65.9395 153.896 67.787C155.888 69.6345 158.259 71.0055 160.747 72.0719C163.234 73.1383 165.874 74.0101 167.578 76.091C169.392 78.3048 169.764 81.5849 169.211 84.3108C168.657 87.0366 167.452 89.4643 166 91.6651C164.549 93.8659 162.674 95.8236 160.303 96.9872C158.217 98.0082 155.739 98.2837 153.478 97.7618C151.217 97.24 149.283 95.9467 148.279 93.8594C147.213 91.6489 147.528 88.547 144.914 87.3705C143.505 86.7352 141.969 87.0172 140.492 86.7708C139.209 86.5569 138.056 85.8309 137.266 84.8034C136.476 83.776 136.132 82.4697 136.233 81.1441C136.346 79.6564 136.864 78.2367 137.101 76.7684C137.337 75.3002 137.298 73.8286 136.531 72.5289C135.85 71.3718 134.765 70.555 133.722 69.7479C132.679 68.9409 131.659 68.0593 130.979 66.8665C130.298 65.6737 129.916 64.2508 129.696 62.8636C129.463 61.4018 129.408 59.9206 129.343 58.4458C129.262 56.6178 129.181 54.793 129.1 52.9649C128.938 49.2829 128.773 45.6008 128.611 41.9221L128.371 36.5222C128.339 35.7605 127.147 35.754 127.182 36.5222L127.176 36.5287Z" fill="#0B244A"/>
<path d="M127.234 37.4135C127.225 37.4427 127.176 37.5172 127.221 37.4556L127.169 37.5172L127.192 37.4913L127.218 37.4654L127.153 37.5107C127.153 37.5107 127.208 37.4751 127.215 37.4686C127.231 37.4589 127.27 37.4492 127.283 37.433C127.267 37.4524 127.169 37.4751 127.247 37.4492C127.296 37.433 127.348 37.4168 127.399 37.4038C127.451 37.3908 127.5 37.3811 127.552 37.3714C127.581 37.3649 127.61 37.3616 127.642 37.3552C127.743 37.339 127.623 37.3487 127.62 37.3552C127.633 37.3228 127.97 37.3228 128.008 37.3228C128.131 37.3195 128.251 37.3228 128.374 37.3292C128.404 37.3292 128.436 37.3357 128.465 37.3357C128.549 37.339 128.358 37.3163 128.442 37.3325C128.501 37.3422 128.559 37.3519 128.617 37.3649C128.676 37.3779 128.734 37.3941 128.789 37.4103C128.818 37.42 128.844 37.4297 128.873 37.4394C128.889 37.4459 128.977 37.4848 128.906 37.4492C128.834 37.4135 128.922 37.4589 128.935 37.4654C128.961 37.4783 128.987 37.4913 129.013 37.5075C129.071 37.5399 129.126 37.5788 129.181 37.6177C129.437 37.7992 129.855 37.6728 129.994 37.4038C130.156 37.0991 130.052 36.7815 129.78 36.5902C129.233 36.2045 128.523 36.0943 127.866 36.1397C127.555 36.1624 127.225 36.1916 126.93 36.2953C126.528 36.4379 126.23 36.681 126.081 37.0861C125.974 37.3779 126.201 37.7506 126.496 37.8187C126.833 37.8965 127.111 37.7149 127.228 37.4038L127.234 37.4135Z" fill="#C5E2E0"/>
<path d="M124.552 14.8286C122.055 12.8741 119.635 10.7446 117.795 8.15812C115.855 5.43225 113.798 2.7388 111.223 0.576904C110.608 3.6431 111.958 6.76115 113.604 9.41895C117.97 16.4686 120.011 18.3971 127.176 22.426C130.37 24.2216 138.199 29.2779 141.535 30.7883C142.309 31.1384 143.093 31.4722 143.884 31.7801C144.347 31.9616 145.986 32.2469 146.251 32.6229C140.729 24.8148 131.902 20.585 124.549 14.8286H124.552Z" fill="#C5E2E0"/>
<path d="M124.973 14.4072C122.978 12.8417 121.041 11.1822 119.395 9.24715C118.579 8.28775 117.88 7.24083 117.128 6.22957C116.377 5.21831 115.583 4.20381 114.747 3.24441C113.788 2.14239 112.758 1.10196 111.641 0.158765C111.33 -0.103774 110.737 -0.0551553 110.646 0.421304C109.808 4.81316 112.405 8.80634 114.731 12.2907C116.354 14.7216 118.171 17.0034 120.471 18.8282C122.926 20.7729 125.692 22.2153 128.374 23.8132C131.192 25.4922 133.972 27.2392 136.803 28.8987C138.157 29.6928 139.52 30.4869 140.936 31.1643C141.885 31.6181 142.879 32.0945 143.887 32.4089C144.25 32.5224 144.622 32.6002 144.985 32.7039C145.192 32.7622 145.403 32.8173 145.6 32.9016C145.646 32.921 145.694 32.9437 145.736 32.9664C145.824 33.0183 145.749 32.9437 145.83 33.0442C146.255 33.5596 147.155 32.8757 146.763 32.3246C142.429 26.2279 136.074 22.2056 130.004 18.0438C128.297 16.8737 126.599 15.681 124.967 14.4072C124.711 14.2095 124.374 14.1641 124.125 14.4072C123.917 14.6114 123.872 15.0522 124.125 15.2499C129.864 19.7357 136.385 23.2298 141.678 28.2861C143.164 29.709 144.541 31.2486 145.733 32.9275L146.666 32.208C146.264 31.7218 145.399 31.5856 144.826 31.4366C143.977 31.2161 143.181 30.8791 142.377 30.5258C141.124 29.9748 139.925 29.3265 138.736 28.6523C135.863 27.0188 133.058 25.2653 130.234 23.5539C127.639 21.9819 124.928 20.5849 122.443 18.8379C120.173 17.24 118.278 15.2726 116.665 13.0199C115.463 11.341 114.297 9.58424 113.319 7.76267C112.179 5.63643 111.323 3.18282 111.79 0.745426L110.795 1.00797C112.755 2.66423 114.43 4.61869 115.965 6.66714C116.723 7.68164 117.429 8.73504 118.229 9.71713C119.029 10.6992 119.894 11.597 120.811 12.4527C121.87 13.4413 122.988 14.365 124.125 15.2564C124.381 15.4573 124.717 15.4995 124.967 15.2564C125.174 15.0522 125.219 14.6146 124.967 14.4137L124.973 14.4072Z" fill="#C5E2E0"/>
<path d="M123.989 15.5806C126.758 14.5305 128.948 11.8176 131.912 11.7917C132.66 11.7852 133.437 11.9764 133.988 12.482C134.377 12.8386 134.623 13.328 134.794 13.8271C135.371 15.5191 135.151 17.3698 134.798 19.1233C134.555 20.329 134.253 21.5218 133.949 22.7146C132.365 22.4196 130.956 21.5542 129.586 20.7018C128.517 20.0373 127.448 19.3761 126.382 18.7117C125.339 18.0634 124.189 17.2499 124.063 16.0312" fill="#C5E2E0"/>
<path d="M124.147 16.1542C125.307 15.7037 126.34 15.036 127.37 14.3489C128.4 13.6617 129.353 12.9973 130.483 12.631C131.552 12.2875 133.065 12.1578 133.816 13.1788C134.652 14.3165 134.626 16.0116 134.487 17.347C134.299 19.107 133.81 20.8443 133.376 22.5557L134.108 22.1408C132.077 21.7389 130.344 20.4716 128.617 19.4019C127.759 18.8671 126.871 18.3615 126.042 17.7813C125.453 17.3697 124.756 16.7928 124.656 16.0311C124.614 15.7102 124.413 15.4412 124.06 15.4347C123.772 15.4347 123.425 15.7102 123.464 16.0311C123.742 18.1638 125.984 19.1686 127.613 20.1798C129.547 21.3791 131.513 22.8376 133.787 23.2882C134.098 23.3498 134.435 23.2039 134.519 22.8733C134.943 21.1976 135.39 19.5122 135.617 17.7943C135.831 16.1899 135.818 14.4558 135.076 12.9778C134.39 11.6068 132.909 11.072 131.442 11.2243C130.085 11.367 128.867 11.9731 127.727 12.6926C126.454 13.4964 125.242 14.4591 123.827 15.0069C123.121 15.2791 123.428 16.4297 124.144 16.1542H124.147Z" fill="#C5E2E0"/>
<path d="M124.996 13.5839C124.601 14.6243 125.935 15.4346 126.596 15.9791C127.477 16.7052 128.381 17.4118 129.298 18.0924C131.131 19.457 133.039 20.721 135.005 21.8846C135.287 22.0532 135.646 21.943 135.818 21.6707C135.922 21.5054 136.025 21.3434 136.126 21.1781C136.534 20.5298 135.507 19.9302 135.099 20.5784C134.995 20.7437 134.892 20.9058 134.791 21.0711L135.604 20.8572C133.852 19.82 132.145 18.7018 130.496 17.5058C129.693 16.9223 128.902 16.3227 128.128 15.7004C127.72 15.373 127.318 15.0424 126.92 14.7086C126.765 14.5757 126.058 14.1187 126.139 13.9015C126.412 13.1852 125.265 12.8773 124.993 13.5839H124.996Z" fill="#0B244A"/>
<path d="M136.029 21.2591C136.647 20.4294 137.583 21.0225 138.283 21.3564C139.161 21.7745 140.165 21.9819 141.078 21.5476C141.451 21.3726 141.775 21.0841 141.992 20.7308C142.257 20.2997 142.267 19.82 142.277 19.3274C142.283 18.8995 142.416 18.4944 142.847 18.3193C143.2 18.1735 143.589 18.3129 143.841 18.5722C144.382 19.1167 145.221 18.274 144.684 17.7294C143.913 16.9516 142.679 16.8576 141.83 17.5706C141.419 17.9207 141.169 18.4101 141.111 18.9449C141.056 19.4343 141.208 20.0048 140.767 20.3516C139.857 21.0711 138.714 20.1701 137.855 19.8298C136.783 19.4084 135.685 19.7358 135.002 20.6563C134.807 20.9156 134.96 21.3175 135.216 21.4698C135.517 21.6513 135.837 21.512 136.029 21.2559V21.2591Z" fill="#0B244A"/>
<path d="M135.151 22.3094C135.543 22.3223 135.786 22.8571 135.948 23.1488C136.213 23.6286 136.485 24.1083 136.887 24.494C137.289 24.8797 137.771 25.1519 138.325 25.2103C138.879 25.2686 139.401 25.0806 139.916 24.8926C140.353 24.7338 140.8 24.5685 141.231 24.8343C141.603 25.0677 141.866 25.4696 142.125 25.8164C142.75 26.6526 143.79 27.6671 144.897 26.9703C145.545 26.5651 144.949 25.5344 144.298 25.9428C143.919 26.1826 143.469 25.6284 143.262 25.3626C142.977 24.9963 142.721 24.6042 142.397 24.2703C141.603 23.4503 140.641 23.366 139.601 23.7452C139.171 23.9008 138.681 24.1471 138.222 23.9818C137.762 23.8165 137.457 23.3919 137.224 22.9998C136.722 22.157 136.278 21.1652 135.154 21.1231C134.39 21.0939 134.39 22.2834 135.154 22.3126L135.151 22.3094Z" fill="#0B244A"/>
<path d="M90.2074 135.003C97.042 138.361 104.32 140.834 111.813 142.205C119.243 143.567 126.865 143.855 134.357 142.834C138.552 142.26 142.685 141.265 146.672 139.836C146.948 139.735 147.074 139.544 147.11 139.262C147.664 134.861 148.214 130.459 148.768 126.054L147.602 126.213C148.516 129.059 149.484 131.924 150.679 134.666C151.538 136.637 152.943 138.779 155.308 138.896C156.072 138.932 156.069 137.742 155.308 137.706C153.339 137.612 152.241 135.383 151.593 133.798C150.537 131.208 149.604 128.563 148.749 125.899C148.532 125.221 147.664 125.413 147.583 126.058C147.029 130.459 146.478 134.861 145.924 139.266L146.361 138.692C139.365 141.201 131.947 142.341 124.523 142.264C117.047 142.186 109.61 140.906 102.484 138.659C98.4802 137.399 94.5802 135.83 90.8131 133.979C90.1296 133.642 89.5272 134.669 90.2139 135.007L90.2074 135.003Z" fill="#0B244A"/>
</svg>
