<svg width="485" height="139" viewBox="0 0 485 139" fill="none" xmlns="http://www.w3.org/2000/svg">
<path d="M419.323 77.4562C418.557 75.493 417.405 73.7442 415.826 72.4154C414.191 71.0438 411.685 70.3322 411.162 67.9318C410.686 65.7715 411.564 63.3711 412.289 61.3822C413.208 58.8704 414.255 56.4529 414.876 53.8296C416.108 48.6259 416.052 42.9593 413.587 38.1586C411.435 33.9836 407.665 30.8803 403.161 30.3659C398.521 29.8344 394.13 32.089 389.707 33.1778C386.307 34.0093 382.794 33.7607 380.297 31.2146C378.355 29.2343 377.219 26.4053 376.349 23.6534C375.342 20.4644 374.625 17.181 373.674 13.9662C372.764 10.9142 371.644 7.86234 369.743 5.34194C367.656 2.58151 364.546 0.884106 361.203 0.798378C356.377 0.678359 352.147 3.87599 348.594 6.99648C345.251 9.93695 342.254 13.2375 338.113 14.9092C334.81 16.2465 330.548 16.7695 328.268 13.2375C326.946 11.1886 326.423 8.67679 325.029 6.66218C323.804 4.89619 322.241 3.43879 320.42 2.40148C316.771 0.318298 312.34 -0.221798 308.352 0.9441C304.001 2.21287 300.368 5.42767 297.822 9.31114C296.517 11.3 295.51 13.5204 294.784 15.8265C294.027 18.244 293.689 20.773 293.197 23.2677C292.408 27.2711 290.845 32.029 286.39 32.5434C284.528 32.7577 283.376 31.7804 282.619 30.0316C281.644 27.7512 280.879 25.4708 278.502 24.4678C274.506 22.779 270.22 26.3881 268.077 29.6887C266.135 32.6891 264.79 37.7813 261.132 38.9387C257.676 40.036 255.049 36.4354 253.027 34.0351C250.336 30.8288 247.509 27.837 243.287 27.3397C238.993 26.8339 234.521 28.9257 231.581 32.2091C228.116 36.084 226.553 41.3905 225.909 46.5856C225.216 52.1579 225.401 57.8331 226.199 63.3797C227.005 68.9263 228.559 74.2929 230.719 79.4194C231.065 80.2424 232.193 80.4396 232.87 80.0195C233.007 79.9338 233.111 79.8309 233.208 79.728L246.324 93.033C245.784 93.7531 245.712 94.9361 246.638 95.6048C263.259 107.47 284.488 102.574 303.187 102.617C324.989 102.669 345.323 111.902 366.73 114.902C375.503 116.128 384.373 116.068 392.986 113.719C400.672 111.619 408.221 107.675 413.562 101.289C418.775 95.0561 422.513 85.6689 419.315 77.4476L419.323 77.4562Z" fill="#0B244A"/>
<path d="M410.28 91.6873C409.232 87.9894 406.764 84.9421 403.192 83.9406C401.555 83.4783 399.781 83.4355 398.103 83.8207C398.797 79.0186 397.313 73.7884 394.346 70.0306C388.79 62.9943 379.323 63.9273 373.436 69.8508C373.565 66.9918 373.557 64.1242 373.388 61.2566C372.993 54.7167 372.396 46.5505 367.638 41.7312C363.792 37.8364 358.115 37.1687 353.148 38.5726C347.697 40.1134 343.391 43.9482 340.504 49.0243C337.472 54.3743 336.077 60.5033 335.069 66.6322C329.085 58.329 317.159 55.9408 308.249 60.5204C306.579 61.3764 305.071 62.5149 303.749 63.8674C302.66 56.9851 298.628 50.5736 292.774 47.2952C285.581 43.272 276.864 45.1809 271.397 51.4896C270.228 52.8335 269.252 54.3401 268.51 55.9664C266.268 50.1371 261.817 45.275 256.301 42.7841C248.149 39.1118 238.868 41.7226 232.787 48.3737C230.626 50.7363 228.981 53.5012 227.917 56.5229C223.087 44.6245 215.41 32.8459 203.008 29.7301C189.243 26.2719 174.551 34.5579 170.172 48.9302C168.269 55.179 168.35 62.044 170.374 68.2158C165.277 65.9388 159.221 66.1443 154.423 69.3286C149.271 72.7441 146.287 79.01 146.327 85.3358C141.578 82.5624 135.627 82.7507 130.603 85.1047C123.821 88.2805 119.797 95.5051 118.741 103.089C118.177 107.155 118.314 111.273 119.072 115.304C119.523 117.718 120.241 119.696 122.354 120.954C126.434 123.376 131.99 122.803 136.481 122.777C139.312 122.76 142.183 122.683 144.997 123.085C146.835 123.342 149.319 123.847 150.392 125.525C151.52 127.297 154.246 125.628 153.109 123.839C153.069 123.779 153.028 123.727 152.988 123.676L159.858 118.103C160.036 118.369 160.31 118.583 160.689 118.703C181.236 124.917 202.435 128.701 223.764 129.985C245.173 131.269 266.599 129.908 287.758 126.261C298.548 124.404 309.329 122.212 320.272 121.767C331.263 121.322 341.987 123.368 352.825 124.994C362.26 126.407 371.824 127.383 381.258 125.474C389.024 123.907 396.725 120.5 402.522 114.688C408.135 109.073 412.642 100.033 410.28 91.6873Z" fill="#BFD3B6"/>
<path d="M208.021 79.7024C209.763 79.7024 209.763 76.0111 208.021 76.0111C206.28 76.0111 206.28 79.7024 208.021 79.7024Z" fill="#0B244A"/>
<path d="M218.904 70.4741C221.226 70.4741 221.226 67.7057 218.904 67.7057C216.582 67.7057 216.582 70.4741 218.904 70.4741Z" fill="#0B244A"/>
<path d="M217.598 83.3937C219.339 83.3937 219.339 79.7024 217.598 79.7024C215.857 79.7024 215.857 83.3937 217.598 83.3937Z" fill="#0B244A"/>
<path d="M262.954 92.2666C261.967 87.3936 264.609 81.6938 268.954 80.0313C273.299 78.3689 278.384 80.5678 280.604 84.9922C281.321 86.4172 282.96 85.8455 283.437 84.5788C284.591 81.5618 287.806 79.2748 290.623 81.1484C291.865 81.9664 292.191 83.4354 292.589 84.8691C293.082 86.6635 293.719 88.2116 295.127 89.3287C295.764 89.8301 296.926 89.5046 297.252 88.713C298.756 85.0275 302.894 82.8284 306.403 84.3765C309.913 85.9246 311.56 90.6657 310.334 94.4832C310.024 95.442 310.86 96.7877 311.83 96.6558C313.589 96.4095 315.133 97.0252 316.303 98.5206C317.608 100.192 319.796 97.7553 318.499 96.0928C316.868 94.0082 314.313 92.8823 311.83 93.2254L313.326 95.398C315.077 89.9532 312.419 83.4266 307.605 81.2364C302.798 79.0549 296.711 81.7553 294.578 86.9801L296.703 86.3644C296.138 85.9158 295.907 85.0802 295.708 84.3765C295.414 83.3474 295.167 82.3007 294.753 81.3155C293.918 79.31 292.254 77.8763 290.337 77.3133C285.936 76.0203 282.092 79.3716 280.461 83.664L283.294 83.2506C280.405 77.4804 273.538 74.4634 267.888 76.8119C262.238 79.1605 258.625 86.47 259.978 93.1638C260.416 95.3188 263.408 94.404 262.97 92.249L262.954 92.2666Z" fill="#0B244A"/>
<path d="M357.592 84.3154H358.03C358.241 84.3248 358.436 84.2681 358.616 84.1546C358.804 84.0789 358.968 83.9559 359.109 83.7762C359.258 83.6059 359.359 83.4073 359.422 83.1802C359.516 82.9627 359.563 82.7262 359.555 82.4708L359.5 81.9788C359.43 81.6667 359.297 81.3924 359.109 81.1653L358.804 80.8816C358.569 80.7113 358.311 80.6261 358.038 80.6261H357.6C357.388 80.6167 357.193 80.6735 357.013 80.787C356.825 80.8627 356.661 80.9856 356.52 81.1653C356.371 81.3356 356.27 81.5343 356.207 81.7613C356.113 81.9789 356.066 82.2154 356.074 82.4708L356.129 82.9627C356.199 83.2748 356.332 83.5492 356.52 83.7762L356.825 84.06C357.06 84.2302 357.318 84.3154 357.592 84.3154Z" fill="#0B244A"/>
<path d="M364.781 81.7141V82.2944C364.772 82.5743 364.825 82.8334 364.932 83.0717C365.004 83.3204 365.12 83.5381 365.289 83.7246C365.45 83.9215 365.637 84.0563 365.851 84.1392C366.057 84.2636 366.28 84.3257 366.521 84.3154L366.985 84.2428C367.279 84.1496 367.538 83.9734 367.752 83.7246L368.02 83.3204C368.181 83.0095 368.261 82.6675 368.261 82.3048V81.7244C368.27 81.4446 368.216 81.1855 368.109 80.9472C368.038 80.6984 367.922 80.4808 367.752 80.2942C367.592 80.0973 367.404 79.9626 367.19 79.8797C366.985 79.7553 366.762 79.6931 366.521 79.7035L366.057 79.7761C365.762 79.8693 365.503 80.0455 365.289 80.2942L365.021 80.6984C364.861 81.0094 364.781 81.3513 364.781 81.7141Z" fill="#0B244A"/>
<path d="M358.25 95.3903C359.991 95.3903 359.991 92.6218 358.25 92.6218C356.509 92.6218 356.509 95.3903 358.25 95.3903Z" fill="#0B244A"/>
<path d="M0.973009 123.835C40.3276 120.965 79.8595 121.766 119.209 119.278C124.829 118.934 130.18 118.579 134.964 117.295C135.993 117.02 137.087 116.633 138.121 116.392C140.173 115.913 142.332 115.704 144.232 115.553C149.27 115.113 154.013 115.285 158.822 114.473C162.161 113.645 165.263 112.791 169.068 112.291C175.312 111.388 181.813 112.726 187.889 113.995C193.22 115.043 198.597 115.844 203.989 116.386C220.154 118.015 236.431 117.386 252.394 114.43C269 111.238 286.529 106.036 303.82 109.099C312.166 110.485 319.863 113.506 328.002 114.607C340.433 116.15 353.223 114.065 365.953 113.705C378.52 113.087 392.866 115.408 405.16 116.628C449.76 121.47 477.839 115.129 478.356 60.7633C478.432 54.8463 478.189 48.9078 477.783 42.98C477.743 42.362 478.184 41.8192 478.766 41.7762C479.273 41.7386 479.719 42.0879 479.856 42.5823C483.008 54.411 485.101 66.4277 484.913 78.8421C484.488 109.862 467.77 128.457 439.513 134.003C418.893 138.098 399.15 135.664 378.834 135.18C375.464 135.121 372.444 135.11 369.262 135.395C355.514 136.792 341.659 139.554 327.561 137.964C324.389 137.588 320.983 137.012 317.912 136.196C311.644 134.599 305.938 132.353 299.963 130.886C295.843 129.886 291.779 129.467 287.477 129.435C271.043 129.446 254.026 133.998 237.328 134.261C218.295 134.986 199.271 132.724 180.845 127.78C178.423 127.194 176.026 126.608 173.66 126.42C169.221 126.022 164.751 127.269 160.119 127.941C153.775 128.591 147.283 127.758 141.131 128.328C140.731 128.371 140.447 128.414 140.092 128.478C139.991 128.5 139.981 128.494 139.732 128.559C132.988 130.316 125.771 130.332 119.508 130.305C102.527 130.219 85.53 129.548 68.5994 128.752C46.064 127.645 23.5895 126.361 1.04395 126.065C0.461187 126.06 -0.00502662 125.555 4.09226e-05 124.937C0.00510847 124.351 0.440917 123.873 0.983144 123.83L0.973009 123.835Z" fill="#C5E2E0"/>
</svg>
