<svg width="461" height="374" viewBox="0 0 461 374" fill="none" xmlns="http://www.w3.org/2000/svg">
<g clip-path="url(#clip0_1_354)">
<path d="M28.7458 322.528C34.1195 314.335 37.9158 305.246 40.9403 295.96C44.124 286.181 46.4973 276.166 48.8947 266.176C50.0958 261.166 51.3018 256.156 52.609 251.175C53.2554 248.711 53.9259 246.247 54.635 243.803C55.3827 241.228 56.2654 238.687 56.9359 236.088C58.4602 230.167 56.7912 224.125 55.7638 218.252C54.7074 212.211 53.6509 206.169 52.5897 200.127C50.4962 188.16 48.3979 176.192 46.3043 164.224C46.0439 162.73 45.7785 161.235 45.5181 159.735C45.3299 158.67 46.9652 158.212 47.1533 159.282C47.2353 159.745 47.3173 160.213 47.3993 160.676L72.5071 188.309L123.813 207.586C124.02 207.066 124.695 206.728 125.168 207.268C132.182 215.277 138.477 224.067 142.707 233.884C145.997 241.522 147.898 249.608 148.477 257.897C149.027 265.751 148.453 273.625 147.729 281.451C147.353 285.53 146.938 289.609 146.595 293.693C146.123 299.345 145.496 305.029 145.389 310.705C145.288 316.173 145.843 321.771 148.303 326.727C150.315 330.778 153.46 334.466 157.69 336.274C158.718 336.713 159.803 337.017 160.903 337.215C161.785 337.374 161.631 338.608 160.903 338.849C155.317 340.71 149.408 341.607 143.518 341.458C142.051 341.419 140.59 341.318 139.133 341.154C137.869 341.009 136.49 340.918 135.467 340.079C134.565 339.341 134.208 338.198 134.025 337.089C133.779 335.599 133.595 334.095 133.378 332.595C133.142 330.937 132.906 329.278 132.669 327.615C131.96 331.973 131.116 336.308 130.334 340.667C130.17 341.598 128.564 341.395 128.67 340.44C129.77 330.17 128.863 319.803 127.141 309.649C125.327 298.949 122.65 288.418 120.098 277.878C118.825 272.613 117.576 267.343 116.471 262.043C115.926 259.425 115.419 256.802 114.961 254.17C114.508 251.546 114.064 248.87 112.901 246.45C111.792 244.131 110.234 242.072 108.69 240.027C106.934 237.708 105.178 235.384 103.427 233.065C99.9158 228.421 96.4089 223.783 92.8972 219.139L88.7391 213.643C89.8389 220.441 90.3309 227.332 89.8678 234.207C89.3035 242.501 87.2823 250.558 84.0118 258.196C80.8956 265.481 76.7568 272.261 72.5119 278.934C70.3026 282.411 68.0596 285.873 65.8792 289.373C62.9898 294.017 59.9605 298.612 57.3508 303.414C54.7894 308.125 52.7055 313.226 52.4788 318.646C52.2858 323.275 53.3229 328.222 56.2896 331.896C57.0083 332.784 57.8283 333.594 58.7352 334.288C59.507 334.881 59.0584 335.99 58.0792 335.836C52.4981 334.977 47.0761 333.193 42.0787 330.561C40.8149 329.895 39.5752 329.177 38.3692 328.401C37.2983 327.711 36.0538 327.017 35.2965 325.966C34.5006 324.861 34.5729 323.521 34.9395 322.267C35.3785 320.758 35.9573 319.273 36.4687 317.788C37.0186 316.192 37.5685 314.596 38.1232 312.995C35.5377 316.496 32.8508 319.905 30.2074 323.376C29.5658 324.22 28.1283 323.453 28.741 322.518L28.7458 322.528Z" fill="#0B244A"/>
<path d="M158.124 99.2656C158.168 99.3234 158.211 99.3813 158.255 99.4391L189.681 90.1958C189.609 89.9065 189.701 89.5594 189.899 89.3568C190.246 89 190.743 89.0724 191.1 89.3568C197.592 94.5499 204.64 99.0486 212.069 102.781C214.201 103.851 216.367 104.854 218.557 105.799C218.899 105.944 219.034 106.426 218.947 106.759C218.272 109.304 217.38 111.788 216.289 114.184C215.334 116.277 214.336 119.03 211.88 119.695C210.665 120.023 209.338 120.033 208.089 120.12C206.743 120.211 205.393 120.274 204.042 120.308C201.345 120.37 198.644 120.308 195.952 120.105C186.001 119.339 176.122 116.537 167.801 110.905C163.488 107.983 159.682 104.377 156.658 100.129C156.021 99.2366 157.492 98.388 158.124 99.2704V99.2656Z" fill="#0B244A"/>
<path d="M459.06 201.333C454.516 219.217 460.252 239.405 451.241 256.036C446.398 265.197 433.248 272.936 424.271 265.139C420.779 262.116 418.396 256.547 420.518 252.352C420.924 251.571 421.507 250.717 422.216 250.298C422.814 249.965 422.863 250.1 423.06 250.177C423.152 250.23 423.335 250.356 423.572 250.63C423.808 250.9 424.073 251.296 424.315 251.764C424.874 252.766 425.236 254.126 425.496 255.274C426.008 257.299 426.437 259.604 426.649 261.687C428.386 276.948 423.504 292.57 414.633 304.972C372.956 361.709 273.065 357.399 209.512 354.621C187.916 353.585 165.866 352.109 144.256 350.528C136.74 349.978 105.309 347.582 97.4653 347.017C85.1502 346.029 73.1534 344.592 61.8272 340.585C50.3129 336.617 39.4883 330.271 30.1302 322.402C29.7443 322.074 29.1654 322.123 28.8423 322.513C28.5673 322.846 28.5673 323.318 28.823 323.651C40.5255 338.931 58.1467 350.181 76.8774 355.369C88.961 358.913 102.058 360.769 114.469 362.838C133.065 365.827 151.998 368.479 170.724 370.495C205.383 374.313 240.606 375.167 275.39 372.284C322.808 368.142 374.987 360.894 410.707 326.313C428.617 308.974 439.789 283.047 434.652 258.022C434.348 256.6 433.866 254.488 433.422 253.109C432.891 251.281 432.303 249.517 431.295 247.843C428.603 242.911 422.79 240.529 417.899 244.063C410.876 249.391 411.329 259.58 416.235 266.113C422.183 274.315 431.84 276.383 440.99 272.401C450.546 268.201 456.658 258.856 458.718 248.861C462.254 233.272 457.878 217.254 460.831 201.728C460.927 201.236 460.604 200.759 460.112 200.662C459.639 200.571 459.181 200.87 459.065 201.333H459.06Z" fill="white"/>
<path d="M356.27 202.991C341.847 202.991 330.155 191.304 330.155 176.886C330.155 162.469 341.847 150.781 356.27 150.781C370.694 150.781 382.386 162.469 382.386 176.886C382.386 191.304 370.694 202.991 356.27 202.991Z" fill="#165C7E"/>
<path d="M356.271 203.42C370.906 203.42 382.811 191.52 382.811 176.891C382.811 162.262 370.906 150.362 356.271 150.362C341.635 150.362 329.73 162.262 329.73 176.891C329.73 191.52 341.635 203.42 356.271 203.42ZM356.271 151.206C370.438 151.206 381.967 162.725 381.967 176.891C381.967 191.057 370.438 202.577 356.271 202.577C342.103 202.577 330.574 191.053 330.574 176.891C330.574 162.73 342.098 151.206 356.271 151.206Z" fill="#165C7E"/>
<path d="M247.427 271.417L297.469 261.156C297.469 261.156 297.469 261.123 297.469 261.108L297.888 261.069L298.313 261.031C300.464 284.908 302.003 310.526 298.708 336.067C298.144 340.465 297.392 345.093 295.004 349.144C292.36 353.633 287.85 356.627 283.229 356.95C282.935 356.969 282.64 356.979 282.341 356.979C278.212 356.979 273.929 354.978 270.726 351.511C267.634 348.165 265.878 344.038 264.349 340.103C255.704 317.87 251.281 294.291 247.002 271.484L247.427 271.407V271.417Z" fill="#165C7E"/>
<path d="M89.4675 241.792L89.892 241.831L90.3165 241.869C90.3117 241.937 90.3069 242.004 90.2972 242.067L140.349 271.417L140.764 271.494C136.485 294.301 132.066 317.88 123.417 340.113C121.888 344.047 120.132 348.17 117.04 351.521C113.837 354.988 109.559 356.989 105.425 356.989C105.13 356.989 104.831 356.979 104.542 356.96C99.9206 356.637 95.4104 353.643 92.767 349.153C90.384 345.103 89.6315 340.474 89.0623 336.077C85.7773 310.599 87.3209 265.607 89.4675 241.797V241.792Z" fill="#165C7E"/>
<path d="M185.533 135.704H275.294C329.624 135.704 373.819 179.885 373.819 234.188C373.819 288.491 329.619 332.673 275.294 332.673H185.533C131.203 332.673 87.0074 288.491 87.0074 234.188C87.0074 179.885 131.208 135.704 185.533 135.704Z" fill="#165C7E"/>
<path d="M372.551 234.188C372.541 224 370.964 213.85 367.823 204.153C364.794 194.804 360.318 185.946 354.63 177.933C349.02 170.03 342.2 162.947 334.506 157.05C326.812 151.153 318.057 146.287 308.853 142.912C299.35 139.426 289.317 137.444 279.201 137.049C277.903 136.996 276.601 136.972 275.299 136.972C274.208 136.972 274.204 135.275 275.299 135.275C285.684 135.284 296.07 136.895 305.949 140.111C315.428 143.202 324.438 147.729 332.562 153.51C340.685 159.292 347.8 166.172 353.839 174.017C359.879 181.862 364.804 190.802 368.253 200.19C371.789 209.829 373.776 220.022 374.176 230.283C374.229 231.58 374.254 232.881 374.254 234.183C374.254 235.273 372.556 235.278 372.556 234.183L372.551 234.188Z" fill="#0B244A"/>
<path d="M88.2809 234.188C88.2905 244.377 89.8679 254.526 93.0082 264.223C96.0375 273.572 100.514 282.43 106.201 290.444C111.888 298.457 118.632 305.43 126.326 311.327C134.02 317.224 142.775 322.089 151.979 325.464C161.183 328.839 171.515 330.932 181.631 331.327C182.928 331.38 184.231 331.405 185.533 331.405C186.623 331.405 186.628 333.102 185.533 333.102C175.147 333.092 164.762 331.482 154.883 328.266C145.404 325.175 136.393 320.647 128.27 314.866C120.147 309.085 113.032 302.204 106.992 294.359C100.89 286.432 96.0278 277.574 92.5788 268.186C89.043 258.548 87.0556 248.355 86.6553 238.094C86.6022 236.797 86.5781 235.495 86.5781 234.193C86.5781 233.103 88.276 233.098 88.276 234.193L88.2809 234.188Z" fill="#0B244A"/>
<path d="M185.533 331.404H235.85C243.312 331.404 250.779 331.404 258.242 331.404H272.834C278.728 331.404 284.594 331.159 290.426 330.242C301.149 328.56 311.573 325.078 321.139 319.953C330.507 314.933 339.025 308.39 346.29 300.637C353.598 292.84 359.604 283.847 364.008 274.107C368.518 264.136 371.297 253.374 372.208 242.472C372.44 239.719 372.551 236.956 372.551 234.198C372.551 233.108 374.249 233.103 374.249 234.198C374.234 245.384 372.367 256.556 368.639 267.106C365.04 277.28 359.773 286.818 353.106 295.304C346.44 303.79 338.558 310.994 329.653 316.862C320.748 322.73 310.527 327.296 300.011 329.997C291.743 332.118 283.243 333.107 274.71 333.107C270.923 333.107 267.142 333.107 263.355 333.107H242.396C234.316 333.107 226.241 333.107 218.161 333.107C211.176 333.107 204.191 333.107 197.211 333.107H185.533C184.443 333.107 184.438 331.409 185.533 331.409V331.404Z" fill="#0B244A"/>
<path d="M87.0893 252.516C88.9079 252.516 90.7264 252.516 92.545 252.516H149.152C153.32 252.516 157.468 252.347 161.593 251.696C169.195 250.5 176.585 248.036 183.367 244.405C190.149 240.775 196.044 236.208 201.201 230.712C206.381 225.186 210.636 218.807 213.757 211.902C216.945 204.857 218.909 197.239 219.55 189.534C219.714 187.576 219.791 185.614 219.796 183.651C219.796 182.562 221.494 182.557 221.494 183.651C221.484 191.622 220.153 199.592 217.495 207.109C214.924 214.385 211.157 221.193 206.391 227.264C201.693 233.243 196.02 238.446 189.667 242.626C183.208 246.884 176.03 250.066 168.539 251.99C162.639 253.504 156.576 254.208 150.488 254.208H142.418C137.45 254.208 132.486 254.208 127.517 254.208H110.287C105.323 254.208 100.36 254.208 95.391 254.208H87.0893C85.9991 254.208 85.9943 252.511 87.0893 252.511V252.516Z" fill="#0B244A"/>
<path d="M325.051 271.417L372.999 234.497C372.99 234.405 372.98 234.309 372.975 234.227L373.4 234.188L373.824 234.15C374.485 241.464 380.153 306.471 376.337 336.067C375.773 340.465 375.021 345.093 372.633 349.144C369.989 353.633 365.479 356.627 360.858 356.95C360.564 356.969 360.269 356.979 359.97 356.979C355.841 356.979 351.558 354.978 348.355 351.511C345.263 348.165 343.507 344.037 341.978 340.103C333.333 317.87 328.91 294.291 324.631 271.484L325.046 271.407L325.051 271.417Z" fill="#165C7E"/>
<path d="M167.092 261.031L167.135 260.558L218.475 271.084L218.397 271.494C214.119 294.296 209.7 317.879 201.051 340.113C199.522 344.047 197.766 348.17 194.674 351.521C191.471 354.988 187.192 356.989 183.058 356.989C182.764 356.989 182.465 356.979 182.176 356.96C177.555 356.637 173.044 353.642 170.401 349.153C168.018 345.103 167.265 340.474 166.696 336.077C163.406 310.541 164.94 284.918 167.092 261.041V261.031Z" fill="#165C7E"/>
<path d="M229.183 39.3166C229.449 38.468 230.519 38.5596 230.819 39.3166C231.417 40.821 233.042 41.5732 234.485 42.0361C236.491 42.6774 238.614 43.0197 240.674 43.444C245.328 44.3987 250.003 45.2618 254.696 46.0333C264.078 47.5763 273.523 48.7383 283.002 49.5291C288.366 49.9775 293.74 50.3006 299.118 50.5079C299.803 50.532 300.3 51.4481 299.717 51.9544C295.544 55.59 293.272 60.7975 292.466 66.1931C291.555 72.2878 292.664 78.4548 294.463 84.2892C296.46 90.7648 299.249 96.9704 301.636 103.311C304.053 109.729 306.229 116.262 307.681 122.969C309.301 130.467 310.006 138.192 309.065 145.829C308.993 146.413 308.583 146.75 307.989 146.649C300.401 145.323 292.823 143.896 285.178 142.97C276.91 141.967 268.589 141.625 260.258 141.687C253.645 141.736 247.031 142.006 240.428 142.372C239.829 142.406 239.525 141.808 239.607 141.297C241.055 132.598 239.897 123.688 238.151 115.124C236.096 105.037 233.235 95.1381 230.934 85.1089C229.497 78.8454 228.257 72.5337 227.37 66.169C225.874 57.2198 226.472 47.9909 229.174 39.3214L229.183 39.3166Z" fill="#BFD2B6"/>
<path d="M186.31 85.5429C185.977 85.62 185.673 85.7502 185.35 85.8515C185.572 85.784 185.33 85.8611 185.268 85.8901C185.19 85.9238 185.118 85.9624 185.041 86.001C184.882 86.0829 184.727 86.1697 184.578 86.2662C184.433 86.3578 184.298 86.4494 184.158 86.5506C184.139 86.5651 184.033 86.6423 184.134 86.5699C184.24 86.488 184.11 86.5892 184.086 86.6085C184.018 86.6615 183.956 86.7146 183.893 86.7724C183.632 87.0039 183.396 87.2546 183.174 87.5198C182.894 87.867 182.262 87.8332 181.973 87.5198C181.635 87.1534 181.674 86.6905 181.973 86.3192C182.952 85.1234 184.351 84.2651 185.851 83.9083C186.281 83.8071 186.792 84.0433 186.893 84.5014C186.995 84.9595 186.763 85.4368 186.3 85.5429H186.31Z" fill="#0B244A"/>
<path d="M216.994 106.773C220.009 104.444 223.318 102.583 226.882 101.233C227.312 101.069 227.813 101.411 227.924 101.826C228.055 102.303 227.76 102.708 227.331 102.867C224.06 104.107 220.959 105.833 218.19 107.974C217.828 108.253 217.341 108.326 216.989 107.974C216.695 107.68 216.622 107.058 216.989 106.773H216.994Z" fill="#0B244A"/>
<path d="M225.57 107.882C225.787 109.02 225.57 110.206 224.929 111.18C224.287 112.154 223.351 112.887 222.227 113.148C221.798 113.249 221.287 113.013 221.185 112.554C221.089 112.12 221.316 111.619 221.779 111.513C221.89 111.489 222.006 111.455 222.112 111.421C222.155 111.407 222.203 111.388 222.247 111.373C222.305 111.349 222.28 111.359 222.179 111.402C222.203 111.392 222.232 111.378 222.256 111.368C222.449 111.277 222.628 111.171 222.801 111.045C222.917 110.963 222.855 111.045 222.792 111.055C222.83 111.045 222.893 110.973 222.922 110.944C223.009 110.867 223.091 110.785 223.173 110.703C223.24 110.631 223.298 110.558 223.361 110.486C223.482 110.346 223.274 110.611 223.371 110.471C223.404 110.423 223.438 110.375 223.467 110.327C223.583 110.148 223.655 109.941 223.771 109.767C223.665 109.922 223.747 109.83 223.771 109.758C223.786 109.714 223.805 109.666 223.819 109.623C223.853 109.522 223.882 109.42 223.906 109.319C223.921 109.261 223.93 109.208 223.94 109.15C223.945 109.121 223.95 109.092 223.954 109.063C223.964 108.996 223.959 109.025 223.945 109.145C223.964 109.141 223.964 108.89 223.969 108.861C223.969 108.745 223.969 108.63 223.964 108.514V108.456C223.95 108.36 223.954 108.379 223.969 108.509C223.983 108.485 223.945 108.364 223.94 108.335C223.858 107.901 224.06 107.4 224.533 107.294C224.953 107.197 225.488 107.419 225.575 107.887L225.57 107.882Z" fill="#0B244A"/>
<path d="M233.51 107.94C231.87 108.813 230.105 109.348 228.262 109.574C227.818 109.628 227.394 109.145 227.413 108.726C227.437 108.22 227.789 107.935 228.262 107.877C228.368 107.863 228.378 107.863 228.296 107.877C228.354 107.868 228.411 107.863 228.469 107.853C228.556 107.839 228.643 107.824 228.73 107.81C228.932 107.776 229.13 107.737 229.333 107.694C229.733 107.607 230.129 107.501 230.519 107.381C231.344 107.12 231.894 106.889 232.656 106.484C233.047 106.276 233.597 106.373 233.819 106.788C234.026 107.183 233.935 107.723 233.515 107.95L233.51 107.94Z" fill="#0B244A"/>
<path d="M232.372 112.381C231.508 113.162 230.365 113.61 229.193 113.557C228.749 113.538 228.325 113.181 228.344 112.709C228.363 112.265 228.715 111.841 229.193 111.86C229.405 111.87 229.613 111.86 229.82 111.836L229.593 111.865C229.912 111.821 230.225 111.735 230.519 111.614L230.317 111.701C230.601 111.58 230.867 111.426 231.113 111.238L230.939 111.368C231.016 111.31 231.093 111.243 231.166 111.18C231.494 110.881 232.044 110.833 232.367 111.18C232.666 111.503 232.719 112.063 232.367 112.381H232.372Z" fill="#0B244A"/>
<path d="M230.182 116.764C230.056 116.855 229.926 116.933 229.786 116.995C229.588 117.082 229.386 117.164 229.174 117.207C228.735 117.294 228.305 117.294 227.866 117.198C227.664 117.15 227.461 116.986 227.36 116.807C227.259 116.629 227.21 116.359 227.273 116.151C227.418 115.698 227.852 115.452 228.315 115.558C228.378 115.573 228.44 115.583 228.498 115.592L228.272 115.563C228.45 115.587 228.629 115.587 228.807 115.563L228.58 115.592C228.759 115.568 228.932 115.52 229.101 115.452L228.899 115.539C229.048 115.476 229.188 115.394 229.318 115.298C229.482 115.177 229.781 115.158 229.974 115.211C230.167 115.264 230.384 115.419 230.481 115.602C230.587 115.799 230.635 116.036 230.568 116.258L230.481 116.46C230.404 116.585 230.302 116.687 230.177 116.764H230.182Z" fill="#0B244A"/>
<path d="M225.508 119.845C221.653 119.71 217.881 118.562 214.625 116.499C213.704 115.915 214.558 114.449 215.484 115.033C218.494 116.942 221.948 118.027 225.512 118.148C226.603 118.186 226.607 119.883 225.512 119.845H225.508Z" fill="#0B244A"/>
<path d="M217.978 70.7883C219.82 68.2907 221.972 66.0534 224.427 64.1488C224.789 63.8691 225.276 63.7968 225.628 64.1488C225.922 64.4429 225.99 65.0649 225.628 65.3494C223.298 67.1576 221.2 69.2743 219.444 71.6466C219.174 72.0131 218.711 72.2011 218.282 71.9504C217.92 71.7382 217.703 71.1596 217.978 70.7883Z" fill="#0B244A"/>
<path d="M229.275 66.5789C231.315 66.0388 233.462 66.0244 235.512 66.5403C235.956 66.6512 236.226 67.1478 236.105 67.5818C235.985 68.0157 235.507 68.2858 235.063 68.1749C233.312 67.7361 231.479 67.7505 229.728 68.2134C229.285 68.3292 228.807 68.064 228.686 67.6204C228.566 67.1768 228.836 66.6946 229.28 66.5789H229.275Z" fill="#0B244A"/>
<path d="M233.573 72.0372C233.013 71.8395 232.439 71.6997 231.851 71.6177L232.078 71.6466C231.962 71.6321 231.841 71.6177 231.725 71.608C231.494 71.5839 231.296 71.5261 231.127 71.3573C230.978 71.2078 230.872 70.9667 230.876 70.7594C230.881 70.5521 230.958 70.311 231.127 70.1615C231.282 70.0169 231.508 69.8915 231.725 69.9108C232.512 69.9879 233.283 70.1374 234.026 70.4026C234.239 70.4797 234.417 70.5955 234.533 70.7932C234.639 70.9764 234.682 71.2416 234.62 71.4489C234.557 71.6563 234.427 71.8539 234.229 71.9552C234.031 72.0565 233.79 72.1191 233.573 72.042V72.0372Z" fill="#0B244A"/>
<path d="M231.653 75.2532C231.537 75.1809 231.422 75.1182 231.296 75.0652L231.499 75.152C231.306 75.07 231.108 75.017 230.905 74.988L231.132 75.017C231.04 75.0025 230.949 74.9977 230.857 74.9977C230.635 74.9977 230.413 74.9061 230.259 74.7469C230.11 74.5975 230.003 74.3564 230.008 74.149C230.013 73.9417 230.09 73.7006 230.259 73.5511C230.428 73.4017 230.63 73.3004 230.857 73.3004C231.436 73.3101 232.025 73.474 232.512 73.7922C232.695 73.9128 232.845 74.0815 232.902 74.2985C232.936 74.4094 232.941 74.5251 232.917 74.636C232.912 74.7469 232.878 74.853 232.816 74.9495C232.7 75.1327 232.526 75.2918 232.309 75.34C232.092 75.3882 231.846 75.3786 231.653 75.2532Z" fill="#0B244A"/>
<path d="M230.027 78.7442C229.347 78.5368 228.672 78.7634 228.059 79.0672C227.302 79.4433 226.598 79.9158 225.864 80.3257C224.388 81.155 222.758 81.7288 221.05 81.3431C219.984 81.102 220.438 79.4674 221.504 79.7085C224.818 80.4607 227.128 76.0874 230.481 77.1096C231.523 77.4278 231.079 79.0672 230.027 78.7442Z" fill="#0B244A"/>
<path d="M65.7827 115.534C66.8053 114.517 68.0402 113.726 69.2076 112.882C70.2736 112.116 71.3348 111.344 72.3961 110.573C74.5909 108.972 76.7809 107.366 78.9661 105.751C83.949 102.067 88.9127 98.3495 93.8619 94.6223C104.657 86.4976 115.405 78.3151 126.181 70.1615C136.07 62.6781 145.968 55.1996 155.982 47.8801C157.685 46.6361 159.398 45.3969 161.11 44.1674C160.98 41.8578 160.845 39.5433 160.71 37.2337C160.473 33.2364 160.112 29.2296 160.025 25.2227C159.948 21.7944 160.387 17.8598 163.069 15.4056C165.133 13.5154 168.447 12.4836 170.989 14.0699C173.845 15.854 174.173 19.586 173.966 22.6286C173.507 29.4465 170.806 36.0041 166.479 41.2743C165.374 42.6196 164.159 43.8636 162.856 45.0112C162.88 45.4403 162.905 45.8646 162.929 46.2938C162.987 46.3516 163.044 46.424 163.093 46.5156C169.378 58.8159 176.57 70.6581 184.597 81.8977C185.166 82.6933 185.736 83.484 186.31 84.27C186.372 84.3519 186.435 84.4339 186.493 84.5159C194.563 80.9526 202.522 77.1386 210.351 73.0642C212.826 71.7768 215.286 70.4653 217.732 69.1248C218.108 68.9223 218.692 69.0043 218.894 69.4286C219.869 71.5116 220.848 73.5898 221.822 75.6728C222.295 76.6757 222.763 77.6834 223.236 78.6864C223.679 79.6266 224.215 80.5813 224.369 81.6228C224.659 83.6287 223.125 85.2584 221.986 86.7291C220.891 88.1418 219.738 89.5161 218.528 90.8324C213.636 96.1653 207.809 100.722 201.326 103.962C195.002 107.12 188.003 109.073 180.912 109.165C174.863 109.247 168.799 108.003 163.247 105.592C163.199 106.243 163.151 106.894 163.098 107.545C162.432 115.669 161.39 123.765 159.822 131.764C159.06 135.655 158.172 139.518 157.145 143.351C156.749 144.822 155.978 146.442 156.339 147.99C156.59 149.065 157.179 150 157.7 150.96C158.177 151.842 158.655 152.811 158.578 153.848C158.476 155.174 157.502 156.047 156.479 156.765C153.701 158.728 150.271 159.446 146.919 159.499C143.47 159.552 140.03 158.954 136.668 158.265C133.373 157.585 130.088 156.871 126.808 156.124C113.799 153.158 100.726 149.542 88.8741 143.284C83.1917 140.284 77.8228 136.644 73.1341 132.237C70.7464 129.995 68.5612 127.56 66.5786 124.956C65.4691 123.5 64.2921 121.928 64.0365 120.062C63.7953 118.307 64.5671 116.749 65.7875 115.534H65.7827Z" fill="white"/>
<path d="M161.964 105.939C153.006 100.211 145.66 92.0282 140.923 82.51C139.596 79.8436 138.472 77.0807 137.565 74.2455C137.232 73.204 138.868 72.7556 139.201 73.7923C142.336 83.5901 148.182 92.4477 155.891 99.256C158.062 101.175 160.377 102.916 162.823 104.478C163.739 105.066 162.89 106.532 161.964 105.944V105.939Z" fill="#0B244A"/>
<path d="M240.432 140.67C250.07 140.14 259.742 139.788 269.394 140.091C264.628 138.341 260.292 135.226 257.094 131.446C251.869 125.279 248.753 116.031 252.82 108.441C253.268 107.607 253.804 106.836 254.397 106.098C260.142 99.0872 270.407 99.309 278.024 102.795C286.282 106.575 293.156 114.555 294.227 123.751C294.671 127.545 293.942 131.533 291.791 134.735C289.664 137.902 286.388 140.067 282.722 141.017C286.823 141.456 290.908 142.025 294.984 142.69C299.475 143.423 303.957 144.233 308.438 145.019C309.514 145.207 309.055 146.842 307.984 146.654C300.397 145.328 292.818 143.901 285.173 142.975C276.905 141.972 268.584 141.63 260.253 141.692C253.64 141.741 247.026 142.011 240.423 142.377C239.332 142.435 239.337 140.742 240.423 140.68L240.432 140.67Z" fill="#0B244A"/>
<path d="M236.125 52.3113C236.877 51.3855 238.03 50.8985 239.39 50.9226C240.707 50.9515 242.058 51.4771 243.192 52.3932C244.325 53.3142 245.116 54.5245 245.42 55.8022C245.734 57.1234 245.493 58.3578 244.74 59.2835C243.992 60.2093 242.844 60.6674 241.585 60.6674C240.326 60.6674 238.879 60.1756 237.668 59.2016C235.295 57.2777 234.6 54.1869 236.12 52.3065L236.125 52.3113Z" fill="#165C7E"/>
<path d="M104.677 32.3782C104.865 31.0956 105.82 30.0782 107.18 30.1939C108.111 30.2711 109.168 30.9461 110.017 30.2759C111.666 28.9644 111.121 26.3462 111.184 24.5477C111.223 23.4194 111.411 22.2428 112.067 21.2978C112.723 20.3479 113.736 19.7355 114.855 19.4944C116.056 19.2389 117.281 19.3353 118.478 19.5716C119.92 19.8561 121.382 20.3527 122.872 20.2177C125.125 20.0152 126.842 18.2263 127.937 16.3844C129.288 14.1085 129.847 11.4759 130.846 9.05051C131.796 6.7457 133.152 4.66752 135.086 3.0667C138.935 -0.120485 144.328 -0.993224 148.872 1.2489C153.156 3.36083 155.331 7.88846 156.749 12.2136C156.928 12.7584 157.097 13.3033 157.256 13.8482C157.488 13.6987 157.719 13.5685 157.927 13.4576C159.248 12.7633 160.753 12.4306 162.22 12.1895C163.86 11.9195 165.524 11.7989 167.188 11.8568C167.666 11.8712 168.187 11.8664 168.664 11.9725C168.727 11.8857 168.814 11.8086 168.915 11.7652C171.37 10.6658 173.84 12.0352 175.331 14.0266C176.821 16.018 177.472 18.8049 179.59 20.2852C180 20.5697 180.212 21.2399 179.764 21.616C177.082 23.863 173.464 24.7164 170.063 23.8389C169.692 23.7424 169.455 23.3904 169.441 23.0192C169.436 22.8552 169.422 22.6768 169.397 22.4984C167.926 27.8216 165.022 32.7109 161.872 37.2144C161.872 37.2144 161.863 37.2241 161.863 37.2289C161.829 37.2819 161.79 37.3398 161.742 37.388C161.453 37.6821 160.826 37.7496 160.541 37.388C160.527 37.3687 160.512 37.3446 160.493 37.3205C160.391 37.2241 160.319 37.1132 160.28 36.983C159.957 36.3899 159.793 35.6763 159.61 35.0446C159.205 33.627 158.857 32.1901 158.52 30.7581C157.709 27.2864 156.976 23.7858 156.421 20.2611C156.219 18.9785 156.011 17.6718 155.968 16.3699C155.968 16.2349 155.963 16.0951 155.963 15.9504C155.799 15.8926 155.65 15.7672 155.548 15.5551C155.138 14.6871 154.285 14.258 153.344 14.2435C152.278 14.2243 151.347 14.7547 150.604 15.4876C148.752 17.315 147.859 20.0297 146.977 22.4068C146.094 24.7839 145.177 27.1321 143.831 29.2923C142.582 31.2933 141.063 33.1449 139.307 34.7264C135.602 38.0679 131.058 39.9918 126.08 40.3486C123.137 40.5607 120.156 40.3389 117.243 39.9243C114.445 39.5289 111.681 38.8538 109.066 37.7786C106.833 36.8624 104.262 35.17 104.677 32.3734V32.3782Z" fill="#0B244A"/>
<path d="M154.043 16.3699C154.55 14.6823 155.471 13.1345 156.716 11.8905C157.135 11.471 157.902 11.4421 158.317 11.8905C158.732 12.3437 158.766 13.0429 158.317 13.4913C158.057 13.7517 157.83 14.0362 157.589 14.311C157.57 14.3351 157.55 14.3641 157.531 14.393C157.478 14.4653 157.43 14.5376 157.377 14.61C157.266 14.7739 157.159 14.9379 157.058 15.1114C156.865 15.4345 156.692 15.7672 156.542 16.1047C156.542 16.1144 156.528 16.1337 156.523 16.1529C156.489 16.2397 156.455 16.3265 156.421 16.4181C156.354 16.6062 156.291 16.7942 156.233 16.9823C156.064 17.5464 155.433 17.9611 154.844 17.7731C154.27 17.5898 153.87 16.9871 154.053 16.3844L154.043 16.3699ZM157.603 14.2821C157.603 14.2821 157.594 14.2966 157.589 14.3014C157.642 14.2339 157.695 14.1567 157.603 14.2821Z" fill="#165C7E"/>
<path d="M162.77 24.8417C163.811 24.0799 165.181 24.1377 166.185 24.914C167.265 25.7482 168.013 26.997 168.312 28.3182C168.481 29.0704 167.714 29.514 167.159 29.3308L165.997 32.0888C166.368 32.2721 166.609 32.653 166.489 33.0869C166.378 33.4968 165.876 33.844 165.447 33.68C163.233 32.8314 161.539 30.4446 161.356 28.0916C161.26 26.8524 161.752 25.5843 162.765 24.8417H162.77Z" fill="white"/>
<path d="M1.21652 157.59C1.85326 153.92 3.35346 150.425 5.32639 147.281C9.75943 140.222 16.4163 134.715 23.3721 130.26C30.5596 125.65 38.4078 122.005 46.4973 119.276C49.9318 118.119 53.4339 117.125 56.989 116.426C59.7675 115.877 62.6473 115.438 65.4885 115.554C67.9969 115.655 70.8429 116.311 71.7787 118.943C72.1743 120.057 72.1115 121.291 71.9524 122.449C71.7498 123.905 71.3349 125.327 70.8767 126.726C69.5935 130.67 67.992 134.508 66.6414 138.428C64.9531 143.327 63.5542 148.337 62.792 153.472C62.382 156.244 62.1746 159.051 62.1698 161.852C62.1553 173.188 59.9122 184.866 54.4035 194.872C50.3322 202.263 43.8539 209.433 35.2 211.073C31.259 211.82 27.236 211.323 23.5554 209.752C19.7205 208.112 16.4066 205.388 13.6908 202.249C6.79765 194.274 3.17981 183.719 1.67961 173.42C1.231 170.334 0.956047 167.224 0.869225 164.104C0.806511 161.915 0.840263 159.755 1.21652 157.595V157.59Z" fill="#0B244A"/>
<path d="M87.0894 113.514H150.903C189.595 113.514 221.07 144.976 221.07 183.651C221.07 222.327 189.595 253.789 150.903 253.789H87.0894C48.3979 253.789 16.9227 222.327 16.9227 183.651C16.9227 144.976 48.3979 113.514 87.0894 113.514Z" fill="#165C7E"/>
<path d="M53.1348 196.54C55.9663 189.09 62.3289 183.285 70.0518 181.245C74.5861 180.049 79.4581 180.421 84.1082 180.421H98.1599C105.347 180.421 112.279 183.391 117.059 188.801C122.443 194.896 124.541 203.387 122.597 211.285C120.692 219.019 115.014 225.441 107.643 228.412C104.638 229.622 101.421 230.176 98.1889 230.176H76.4336C68.3249 230.148 60.6744 226.15 56.0146 219.52C51.3645 212.905 50.2646 204.096 53.1348 196.535V196.54Z" fill="#C5E2E0"/>
<path d="M97.9379 193.599C100.948 200.981 101.546 209.245 99.7083 216.999C99.4574 218.059 97.8222 217.611 98.073 216.545C99.8482 209.072 99.197 201.159 96.3027 194.047C96.129 193.618 96.4908 193.121 96.896 193.006C97.3784 192.866 97.7691 193.174 97.9379 193.599Z" fill="#0B244A"/>
<path d="M75.768 193.599C78.7781 200.981 79.3762 209.245 77.5384 216.999C77.2875 218.059 75.6522 217.611 75.9031 216.545C77.6782 209.072 77.027 201.159 74.1328 194.047C73.9591 193.618 74.3209 193.121 74.7261 193.006C75.2085 192.866 75.5992 193.174 75.768 193.599Z" fill="#0B244A"/>
<path d="M167.632 116.446C170.097 115.202 173.208 115.452 175.871 115.751C179.098 116.113 182.287 116.807 185.417 117.665C193.376 119.84 201.109 123.037 208.335 127.005C215.759 131.08 222.946 136.118 228.445 142.628C230.973 145.617 233.12 148.925 234.562 152.575C235.232 154.267 235.734 156.027 236.028 157.826C236.39 160.044 236.4 162.262 236.327 164.509C235.961 175.628 233.404 187.094 227.563 196.67C223.183 203.854 216.424 210.378 207.698 211.323C199.218 212.239 191.688 207.201 186.676 200.764C180.053 192.263 176.759 181.457 175.548 170.874C175.205 167.879 175.041 164.866 175.036 161.857C175.027 156.23 174.139 150.666 172.678 145.236C171.457 140.704 169.836 136.302 168.192 131.909C167.01 128.751 165.64 125.515 165.22 122.145C164.94 119.893 165.452 117.55 167.632 116.446Z" fill="#0B244A"/>
</g>
<defs>
<clipPath id="clip0_1_354">
<rect width="460" height="374" fill="white" transform="matrix(-1 0 0 1 460.845 0)"/>
</clipPath>
</defs>
</svg>
