<svg width="372" height="499" viewBox="0 0 372 499" fill="none" xmlns="http://www.w3.org/2000/svg">
<g clip-path="url(#clip0_1_279)">
<path d="M343.623 112.518C341.219 107.911 334.781 107.911 332.377 112.518L325.79 125.138L312.251 127.787C307.232 128.769 305.423 134.974 308.771 138.674L318.296 149.201L316.513 163.554C315.894 168.546 320.914 172.61 325.618 170.277L338 164.136L350.382 170.277C355.086 172.61 360.106 168.546 359.487 163.554L357.704 149.201L367.229 138.674C370.577 134.974 368.768 128.769 363.749 127.787L350.21 125.138L343.623 112.518Z" fill="#155C7E"/>
<path opacity="0.2" d="M160.548 393.754C166.113 396.169 171.97 398.267 177.869 399.687C198.023 404.769 220.733 402.415 235.481 386.595C241.231 380.585 245.414 372.585 246.03 364.374C246.385 359.549 245.887 354.574 242.17 351.395C238.828 348.564 233.715 347.908 229.655 349.267C226.215 350.354 223.484 353.097 221.821 356.241C214.48 370.549 226.01 385.338 239.824 389.713C264.341 397.405 301.4 379.785 308.315 354.487C309.403 350.082 309.464 345.487 308.166 341.174C307.062 337.774 305.199 334.6 302.083 333.067C300.681 332.554 300.681 332.641 299.685 332.836C298.766 333.067 297.555 333.754 297.129 334.574C297.098 334.651 297.113 334.687 297.134 334.672C297.195 334.651 297.314 334.374 297.329 334.149C297.334 334.123 297.339 334.097 297.329 334.072C297.334 334.056 297.355 334.051 297.36 334.046C297.38 334.021 297.334 334.026 297.36 334C297.38 333.974 297.375 333.959 297.355 333.949C297.38 333.933 297.391 333.918 297.375 333.913C297.411 333.892 297.524 334.021 297.817 334.267C298.428 334.759 299.829 335.467 301.41 335.82C310.075 337.39 318.545 332.949 325.044 327.349C332.082 321.226 337.688 313.39 342.016 304.979C342.493 303.938 344.367 300.256 344.87 299.19C352.103 283.364 356.379 266.113 357.801 248.641C357.873 246.585 358.063 244.067 358.176 241.99C358.263 239.774 358.196 237.518 358.242 235.308C358.294 232.703 358.016 228.949 357.955 226.354C357.775 224.231 357.519 221.605 357.359 219.631C357.031 216.687 356.579 213.595 356.148 210.662C355.835 209.246 355.044 204.39 354.649 202.831C353.93 199.918 353.052 195.697 352.139 192.81C351.707 191.333 351.292 189.846 350.886 188.349C350.686 187.759 351.035 187.097 351.641 186.938C352.128 186.805 352.632 187.026 352.878 187.436C354.449 190.154 356.122 192.856 357.534 195.667C358.761 198.262 360.552 201.656 361.528 204.292C362.657 207.026 364.043 210.477 364.895 213.241C365.327 214.692 366.025 216.379 366.363 217.81C366.795 219.508 367.847 223.169 368.247 224.779C368.499 226.133 369.438 230.421 369.716 231.867C370.291 235 370.717 238.292 371.138 241.446C373.278 260.908 371.451 280.928 365.681 299.662C365.096 301.338 363.884 305.144 363.314 306.728C362.791 308.103 361.091 312.21 360.522 313.662C350.891 336.8 330.003 360.236 302.642 358.887C290.825 358.318 278.248 351.159 275.666 338.815C273.32 328.503 279.608 318.4 288.9 314.2C296.313 310.728 304.675 310.846 311.887 314.99C322.976 321.349 328.309 334.395 328.047 346.641C327.929 358.426 322.606 370.179 315.204 378.749C294.408 403.759 247.714 418.113 221 394.821C211.046 386.405 204.942 372.718 207.987 359.682C209.249 354.056 212.052 348.708 216.221 344.682C223.187 337.836 233.695 336.097 242.591 339.903C253.089 344.446 256.523 354.805 254.911 365.379C252.052 385.774 234.239 401.272 214.799 405.482C202.935 408.051 190.743 406.985 179.203 403.656C173.218 401.903 167.263 399.559 161.688 396.769L159.594 395.718C158.397 395.01 159.157 393.215 160.543 393.744L160.548 393.754Z" fill="#155C7E"/>
<path d="M313.443 181.656C313.186 177.549 313.972 173.113 316.944 170.067C317.868 169.118 316.415 167.667 315.491 168.615C312.144 172.046 311.097 177.005 311.39 181.656C311.472 182.969 313.525 182.98 313.443 181.656Z" fill="#0A244B"/>
<path d="M322.729 165.754C322.621 165.933 322.508 166.113 322.39 166.287C322.334 166.364 322.283 166.446 322.226 166.523C322.2 166.564 322.17 166.6 322.139 166.636C322.041 166.764 322.139 166.651 322.175 166.59C321.959 166.928 321.641 167.231 321.359 167.513C321.076 167.795 320.773 168.062 320.46 168.313C320.363 168.39 320.65 168.169 320.512 168.277C320.465 168.313 320.419 168.344 320.373 168.379C320.296 168.436 320.219 168.492 320.137 168.544C319.962 168.662 319.788 168.774 319.608 168.887C319.146 169.164 318.936 169.82 319.238 170.292C319.541 170.764 320.152 170.959 320.645 170.662C322.226 169.708 323.556 168.374 324.511 166.795C324.788 166.333 324.629 165.646 324.141 165.39C323.653 165.133 323.032 165.267 322.734 165.759L322.729 165.754Z" fill="#0A244B"/>
<path d="M324.618 169.318C324.521 169.462 324.418 169.6 324.315 169.733L324.475 169.528C323.987 170.159 323.422 170.723 322.791 171.21L322.996 171.051C322.734 171.251 322.467 171.436 322.19 171.61C321.733 171.892 321.518 172.538 321.821 173.015C322.123 173.492 322.74 173.687 323.227 173.385C324.485 172.605 325.548 171.574 326.389 170.359C326.533 170.149 326.559 169.805 326.492 169.569C326.425 169.333 326.241 169.072 326.02 168.954C325.784 168.826 325.491 168.764 325.229 168.851C324.967 168.938 324.772 169.092 324.613 169.323L324.618 169.318Z" fill="#0A244B"/>
<path d="M325.609 172.831C324.408 174.215 323.125 175.533 321.764 176.769C321.128 177.349 320.424 177.877 319.885 178.559C319.228 179.395 318.931 180.313 319.079 181.369C319.156 181.918 319.855 182.221 320.342 182.087C320.933 181.923 321.138 181.374 321.061 180.826C321.076 180.923 321.071 180.749 321.071 180.738C321.107 180.379 321.045 180.8 321.092 180.595C321.133 180.426 321.169 180.333 321.23 180.215C321.384 179.928 321.579 179.708 321.816 179.477C322.396 178.908 323.032 178.395 323.628 177.841C324.834 176.718 325.979 175.528 327.062 174.282C327.426 173.862 327.473 173.241 327.062 172.831C326.692 172.462 325.974 172.41 325.609 172.831Z" fill="#0A244B"/>
<path d="M240.738 284.267C243.859 282.421 246.487 279.805 248.346 276.697C248.628 276.221 248.453 275.569 247.976 275.292C247.499 275.015 246.857 275.185 246.57 275.662C244.886 278.477 242.524 280.826 239.696 282.497C239.218 282.779 239.044 283.421 239.326 283.903C239.609 284.385 240.25 284.554 240.733 284.272L240.738 284.267Z" fill="#0A244B"/>
<path d="M252.345 279.692C252.417 279.831 252.468 279.99 252.55 280.128C252.493 279.99 252.483 279.969 252.524 280.072C252.54 280.113 252.56 280.159 252.576 280.2C252.601 280.262 252.622 280.328 252.648 280.395C252.755 280.697 252.843 281.005 252.914 281.318C252.95 281.472 252.981 281.631 253.007 281.79C253.012 281.826 253.017 281.856 253.022 281.892C253.033 281.969 253.027 281.938 253.007 281.79C253.007 281.79 253.033 282.041 253.038 282.062C253.068 282.379 253.074 282.703 253.063 283.021C253.048 283.559 253.546 284.072 254.09 284.046C254.634 284.021 255.101 283.595 255.117 283.021C255.158 281.503 254.798 280.005 254.111 278.656C253.864 278.179 253.151 278 252.704 278.287C252.216 278.605 252.073 279.18 252.334 279.692H252.345Z" fill="#0A244B"/>
<path d="M282.493 219.19C283.392 218.226 281.944 216.769 281.041 217.738C274.891 224.338 269.229 231.395 264.121 238.831C259.018 246.251 254.465 254.051 250.517 262.149C248.279 266.738 246.236 271.426 244.383 276.19C244.229 276.59 244.48 277.159 244.855 277.349C247.021 278.462 249.46 278.995 251.775 279.703C253.048 280.092 254.393 280.764 255.753 280.421C257.206 280.056 258.099 278.662 258.977 277.559C263.032 272.492 266.713 267.149 270.507 261.892C272.694 258.862 274.927 255.872 277.293 252.979C277.858 252.287 277.365 251.385 276.729 251.21L281.492 220.297C281.831 219.928 282.16 219.559 282.498 219.195L282.493 219.19Z" fill="white"/>
<path opacity="0.2" d="M1.03696 486.503C46.1086 483.995 92.3968 482.041 137.566 480.318C167.104 479.349 199.183 478.431 228.587 476.759C270.399 475 312.38 477.887 353.735 484.349C357.529 484.985 361.322 485.672 365.111 486.503C365.717 486.636 366.097 487.231 365.968 487.836C365.871 488.277 365.527 488.6 365.111 488.692C361.317 489.523 357.524 490.205 353.735 490.846C342.411 492.754 330.994 494.169 319.603 495.333C296.867 497.549 274.146 499.005 251.338 499C228.567 498.949 205.825 496.959 183.074 496.354C154.558 495.518 120.559 494.292 92.0529 493.072C61.7142 491.728 31.3756 490.426 1.03696 488.692C0.431211 488.656 -0.0307984 488.138 0.00513568 487.533C0.0359363 486.969 0.487679 486.533 1.03696 486.503Z" fill="#155C7E"/>
<path d="M302.483 264.431C302.211 263.59 301.379 263.077 300.599 262.779C299.567 262.385 298.453 262.154 297.391 261.856C295.147 261.226 292.899 260.6 290.656 259.969C285.594 258.549 280.532 257.133 275.471 255.713C274.516 255.446 273.972 256.487 274.29 257.18L260.651 264.354C260.651 264.354 260.635 264.328 260.63 264.313C260.024 263.138 258.248 264.174 258.854 265.349C261.292 270.062 265.291 273.933 270.096 276.205C270.594 276.441 271.21 276.354 271.503 275.836C273.207 272.826 274.495 269.595 275.327 266.246C276.364 267.533 277.396 268.826 278.433 270.113C279.172 271.036 279.916 271.959 280.656 272.882C281.292 273.677 281.893 274.528 282.617 275.251C283.33 275.964 284.203 276.472 285.224 276.533C286.297 276.595 287.329 276.149 288.263 275.677C290.147 274.728 291.98 273.667 293.756 272.533C295.548 271.395 297.278 270.164 298.951 268.862C299.773 268.226 300.573 267.574 301.364 266.903C302.119 266.262 302.806 265.492 302.468 264.431H302.483Z" fill="#155C7E"/>
<path d="M125.723 478.421C123.043 479.897 119.856 480.246 116.822 480.2C112.818 470.908 108.916 461.564 104.44 452.482C99.9533 443.385 94.8712 434.554 88.5981 426.554C85.0714 422.056 81.1649 417.862 76.863 414.092C76.1444 413.462 75.1844 414.051 75.0869 414.754L61.7759 413.964C61.781 413.251 61.0418 412.533 60.2564 413.021C58.6804 413.985 58.1414 415.549 58.1876 417.19L44.122 416.651C44.1476 416.2 43.7831 415.738 43.3571 415.621C42.777 415.462 42.2944 415.815 42.0942 416.338C39.9793 421.831 42.8848 427.831 46.9813 431.544C49.2297 433.58 51.8478 435.159 54.5018 436.605C57.4227 438.195 60.3796 439.723 63.321 441.277C66.0623 442.723 68.7984 444.174 71.5397 445.621C66.129 447.19 61.165 449.892 56.4576 452.99C51.3139 456.369 46.3704 460.113 40.7801 462.738C37.4433 464.308 33.9013 465.39 30.2514 465.933C29.7226 466.01 29.3684 466.718 29.5327 467.195C31.4321 472.682 34.4711 477.708 38.4598 481.933C39.199 482.718 40.3797 481.887 40.1743 480.933C39.6661 478.538 39.4505 476.103 39.5378 473.651C39.5635 472.882 39.4711 471.58 40.2257 471.103C40.5799 470.877 41.0419 470.826 41.4474 470.749C41.9608 470.656 42.4639 470.544 42.9721 470.415C46.9505 469.436 50.9443 468.518 54.9535 467.662C59.9946 466.579 65.1075 465.677 70.0407 464.149C72.4278 463.41 74.7583 462.513 77.053 461.523C80.0047 460.251 83.018 458.954 85.8158 457.374C86.5088 456.98 87.1967 456.544 87.8537 456.067C88.8958 458.805 90.2151 461.431 91.8373 463.882C93.6494 466.621 95.7438 469.174 97.8948 471.662C102.782 477.313 108.249 482.564 112.51 488.723C112.828 489.18 113.403 489.385 113.916 489.092C118.552 486.421 123.511 484.282 126.965 480.031C127.674 479.159 126.801 477.826 125.723 478.421Z" fill="#0A244B"/>
<path d="M332.308 328.831C329.161 329.164 326.913 325.815 325.953 323.231C324.541 319.436 324.998 315.303 325.352 311.359C325.979 304.441 326.081 297.395 325.743 290.456C325.553 286.6 325.183 282.554 323.664 278.964C322.406 275.99 320.06 273.892 317.252 272.39C315.835 271.631 314.357 271 312.894 270.338C310.969 269.467 309.038 268.595 307.067 267.826C305.05 267.041 302.986 266.359 300.861 265.933C299.157 265.59 297.447 265.272 295.743 264.918C288.417 263.41 281.097 261.718 273.659 260.892C272.837 260.8 272.011 260.723 271.184 260.662L271.2 259.395C271.528 258.385 271.877 257.39 272.226 256.405C272.668 255.159 270.681 254.621 270.245 255.862C267.791 262.8 265.086 272.123 271.949 277.518C273.705 278.897 275.753 279.826 277.822 280.646C279.916 281.477 282.083 282.139 284.264 282.697C287.704 283.574 291.205 284.2 294.726 284.697C293.597 286.815 292.76 289.082 292.267 291.426C291.949 292.939 291.795 294.477 291.723 296.021C291.646 297.621 291.636 299.241 291.292 300.815C290.65 303.764 288.643 305.985 286.292 307.759C283.34 309.995 280.05 311.831 276.687 313.369C275.589 313.872 276.39 315.497 277.478 315.246C278.89 314.918 280.265 314.462 281.595 313.892C281.041 315.18 280.758 316.585 280.825 318.015C280.969 321.292 282.801 324.333 285.589 326.046C286.313 326.492 287.411 325.744 287.098 324.887C287.026 324.692 286.97 324.497 286.924 324.297C286.852 323.974 286.867 324.031 286.847 323.739C286.811 323.221 286.831 322.697 286.888 322.174C287.016 320.964 287.38 319.697 287.796 318.523C288.823 315.626 290.44 312.867 292.452 310.549C293.582 309.241 294.891 308.18 296.179 307.041C297.673 305.723 299.074 304.303 300.414 302.836C303.114 299.877 305.578 296.713 308.145 293.641C309.449 292.077 310.861 290.6 312.201 289.072C312.17 290.739 312.278 292.4 312.534 294.072C312.94 296.739 313.694 299.328 314.516 301.892C316.277 307.385 318.202 312.826 318.217 318.667C318.227 322.256 317.632 325.79 316.867 329.287C316.585 330.574 318.566 331.123 318.848 329.831C319.172 328.364 319.495 326.897 319.813 325.431C320.419 327.128 321.389 328.677 322.791 329.841C325.548 332.133 329.772 332.846 332.837 330.733C333.586 330.215 333.427 328.703 332.319 328.821L332.308 328.831Z" fill="#0A244B"/>
<path d="M302.991 263.646C299.68 257.933 297.452 251.626 295.168 245.456C292.688 238.764 290.276 232 287.016 225.636C285.676 223.021 284.167 220.482 282.375 218.149C283.648 215.405 285.127 212.595 285.312 209.528C285.466 206.979 284.424 204.328 282.278 202.851C280.235 201.446 277.601 201.826 275.82 203.456C273.797 205.303 273.073 208.272 273.813 210.872C274.665 213.882 276.965 216.21 279.347 218.113C279.526 218.256 279.732 218.349 279.942 218.385C279.957 218.405 279.973 218.426 279.993 218.446C279.886 218.677 279.778 218.903 279.67 219.133L275.774 227.615C273.176 233.272 270.579 238.928 267.981 244.585C265.065 250.938 262.144 257.292 259.229 263.646C258.915 264.328 259.275 265.195 260.117 265.19C262.986 265.169 265.851 265.313 268.689 265.764C271.118 266.154 273.52 266.697 275.938 267.123C279.182 267.692 282.473 268.149 285.774 268.195C288.633 268.236 291.492 267.949 294.295 267.369C297.031 266.805 299.701 265.954 302.375 265.154C303.012 264.964 303.325 264.231 302.991 263.646Z" fill="white"/>
<path d="M278.51 222.385C273.648 234.159 268.125 245.662 261.98 256.821C261.123 258.379 260.25 259.933 259.367 261.477C258.556 262.892 257.314 264.462 257.776 266.185C258.12 267.456 260.101 266.918 259.757 265.641C259.598 265.056 260.014 264.477 260.291 263.985C260.697 263.282 261.097 262.579 261.498 261.877C262.278 260.503 263.048 259.128 263.808 257.744C265.291 255.051 266.739 252.333 268.145 249.6C271 244.062 273.705 238.446 276.256 232.759C277.714 229.503 279.126 226.221 280.486 222.923C280.697 222.41 280.255 221.795 279.768 221.662C279.177 221.497 278.715 221.862 278.505 222.379L278.51 222.385Z" fill="#0A244B"/>
<path d="M103.47 339.385C104.702 338.985 105.929 338.585 107.161 338.185C107.669 338.02 108.054 337.467 107.879 336.923C107.715 336.415 107.161 336.031 106.616 336.205C105.384 336.605 104.158 337.005 102.926 337.405C102.417 337.569 102.032 338.123 102.207 338.667C102.371 339.174 102.926 339.559 103.47 339.385Z" fill="#0A244B"/>
<path d="M104.994 342.923C105.913 342.933 106.801 342.713 107.628 342.318C107.848 342.215 108.038 341.933 108.1 341.703C108.167 341.456 108.136 341.128 107.997 340.913C107.859 340.697 107.643 340.503 107.381 340.441L107.109 340.405C106.924 340.405 106.75 340.451 106.591 340.544C106.524 340.574 106.452 340.61 106.38 340.636L106.627 340.533C106.237 340.697 105.826 340.805 105.41 340.862L105.682 340.826C105.451 340.856 105.225 340.867 104.994 340.867C104.732 340.867 104.45 340.985 104.27 341.169C104.091 341.354 103.957 341.641 103.968 341.892C103.993 342.451 104.419 342.913 104.994 342.918V342.923Z" fill="#0A244B"/>
<path d="M106.175 344.364C105.112 344.779 104.029 345.144 102.931 345.446C102.412 345.59 102.043 346.179 102.212 346.708C102.381 347.236 102.92 347.579 103.475 347.426C104.573 347.123 105.657 346.759 106.719 346.344C106.976 346.241 107.186 346.118 107.335 345.872C107.464 345.651 107.52 345.328 107.438 345.082C107.356 344.836 107.202 344.595 106.966 344.467C106.729 344.338 106.427 344.267 106.175 344.364Z" fill="#0A244B"/>
<path d="M216.544 40.5846C214.711 34.9539 212.027 29.5949 208.592 24.7744C205.163 19.9641 201.041 15.6974 196.359 12.0975C191.647 8.47181 186.385 5.59489 180.8 3.54873C175.071 1.44617 168.998 0.276938 162.9 0.0410408C156.734 -0.194857 150.513 0.533348 144.578 2.22053C138.865 3.84104 133.387 6.33848 128.428 9.60514C123.526 12.8257 119.101 16.7744 115.364 21.2974C111.575 25.8821 108.511 30.9949 106.247 36.4872C103.921 42.1282 102.525 48.1282 102.058 54.2051C101.581 60.3744 102.094 66.6359 103.557 72.6513C104.964 78.4308 107.279 84.0103 110.369 89.0975C113.413 94.1077 117.217 98.6718 121.601 102.564C126.006 106.472 130.99 109.733 136.36 112.159C141.909 114.667 147.792 116.292 153.844 117C160.02 117.723 166.303 117.446 172.396 116.215C178.284 115.026 183.993 112.908 189.239 109.979C194.368 107.123 199.07 103.482 203.125 99.2359C207.186 94.9898 210.62 90.1282 213.243 84.8667C215.923 79.4872 217.781 73.7077 218.69 67.7641C219.152 64.759 219.388 61.7333 219.393 58.6923C219.383 52.559 218.438 46.4205 216.544 40.5846Z" fill="#155C7E"/>
<path d="M164.86 47.1641C160.091 45.3795 154.45 46.8974 151.211 50.8205C147.925 54.8051 147.407 60.5384 150.081 64.9897C152.74 69.4205 157.971 71.7025 163.033 70.7384C168.752 69.6513 172.889 64.4513 172.93 58.6923C172.889 53.559 169.67 48.959 164.86 47.159V47.1641Z" fill="#87F0C9"/>
<path d="M103.942 357.995V338.462C103.942 322.051 103.942 305.641 103.942 289.226V223.667C103.942 200.831 103.942 177.995 103.942 155.154C103.942 132.313 103.942 116.267 103.942 96.8205C103.942 85.4461 103.942 74.0718 103.942 62.6974C103.942 59.5333 103.901 56.3795 104.199 53.2256C105.682 37.4872 114.019 22.7641 126.693 13.3128C139.465 3.79484 156 0.0204849 171.647 3.11792C186.888 6.13331 200.461 15.4872 208.71 28.641C214.809 38.3641 217.345 49.2769 217.345 60.6564V83.4769C217.345 103.456 217.345 123.431 217.345 143.41V147.277C217.345 148.595 219.398 148.6 219.398 147.277V68.2307C219.398 61.3436 219.645 54.441 218.351 47.6359C215.512 32.641 206.631 19.1641 194.111 10.4564C181.231 1.49741 164.968 -1.86157 149.568 1.05125C134.168 3.96407 120.79 12.9436 112.084 25.6513C105.349 35.482 101.899 47.1692 101.889 59.0513C101.878 67.159 101.889 75.2666 101.889 83.3743C101.889 101.087 101.889 118.8 101.889 136.508C101.889 154.215 101.889 181.549 101.889 204.067C101.889 226.585 101.889 249.882 101.889 272.795C101.889 291.318 101.889 309.841 101.889 328.364C101.889 337.815 101.889 347.272 101.889 356.723V357.995C101.889 359.313 103.942 359.318 103.942 357.995Z" fill="#0A244B"/>
<path d="M217.483 146.754C216.847 148 216.205 149.241 215.569 150.487L210.379 160.605C207.822 165.59 205.266 170.574 202.709 175.559C199.588 181.636 196.472 187.718 193.351 193.795L183.105 213.769C179.645 220.513 176.185 227.251 172.73 233.995C169.527 240.241 166.318 246.487 163.115 252.738L154.938 268.677C152.992 272.472 151.041 276.272 149.096 280.067C148.167 281.877 147.222 283.682 146.308 285.497C146.267 285.574 146.231 285.651 146.19 285.728C145.841 286.41 146.267 287.272 147.078 287.272H283.884C285.733 287.272 287.586 287.308 289.429 287.272C289.511 287.272 289.588 287.272 289.67 287.272C290.481 287.272 290.907 286.41 290.558 285.728C289.921 284.482 289.28 283.241 288.643 281.995C286.913 278.621 285.183 275.251 283.453 271.877C280.897 266.892 278.34 261.908 275.784 256.923C272.663 250.846 269.547 244.764 266.426 238.687C263.012 232.031 259.593 225.369 256.179 218.713C252.766 212.056 249.259 205.231 245.805 198.487C242.601 192.241 239.393 185.995 236.19 179.744C233.464 174.431 230.738 169.118 228.012 163.805L222.17 152.415C221.241 150.605 220.353 148.769 219.383 146.985C219.342 146.908 219.306 146.831 219.265 146.754C218.664 145.579 216.888 146.615 217.489 147.79C218.125 149.036 218.767 150.277 219.403 151.523C221.133 154.897 222.863 158.267 224.593 161.641C227.15 166.626 229.706 171.61 232.263 176.595L241.621 194.831C245.035 201.487 248.453 208.149 251.867 214.805C255.281 221.462 258.787 228.287 262.242 235.031C265.445 241.277 268.654 247.523 271.857 253.774C274.583 259.087 277.309 264.4 280.034 269.713C281.98 273.508 283.931 277.308 285.876 281.103C286.8 282.908 287.663 284.769 288.664 286.533C288.705 286.61 288.741 286.687 288.782 286.764L289.67 285.221H152.864C151.026 285.221 149.152 285.123 147.32 285.221C147.237 285.221 147.155 285.221 147.078 285.221L147.966 286.764C148.603 285.518 149.245 284.277 149.881 283.031C151.611 279.656 153.341 276.287 155.071 272.913C157.627 267.928 160.184 262.944 162.74 257.959C165.862 251.882 168.978 245.8 172.099 239.723L182.345 219.749C185.805 213.005 189.265 206.267 192.72 199.523C195.923 193.277 199.131 187.031 202.335 180.779L210.512 164.841C212.458 161.046 214.408 157.246 216.354 153.451C217.283 151.641 218.228 149.836 219.142 148.021C219.183 147.944 219.219 147.867 219.26 147.79C219.86 146.615 218.089 145.579 217.483 146.754Z" fill="#0A244B"/>
<path d="M220.661 144.246C218.089 143.272 215.009 144.097 213.269 146.221C211.498 148.38 211.2 151.472 212.643 153.892C214.085 156.308 216.898 157.513 219.645 157.021C222.766 156.462 224.983 153.605 225.03 150.492C224.994 147.703 223.274 145.241 220.661 144.251V144.246Z" fill="#155C7E"/>
<path d="M105.205 357.374C102.633 356.4 99.5528 357.226 97.8126 359.349C96.0415 361.508 95.7438 364.6 97.1863 367.021C98.6288 369.436 101.442 370.641 104.188 370.149C107.309 369.59 109.527 366.733 109.573 363.621C109.537 360.831 107.818 358.369 105.205 357.38V357.374Z" fill="#87F0C9"/>
<path d="M295.563 287.59C295.234 284.785 292.852 282.739 290.055 282.677H145.995C144.999 282.677 144.029 282.656 143.069 283.01C140.81 283.851 139.429 285.974 139.414 288.354C139.403 289.677 139.414 291 139.414 292.318V298.118C139.414 299.2 139.327 300.328 139.46 301.41C139.819 304.431 142.396 306.323 145.327 306.323H283.104C285.363 306.323 287.621 306.333 289.885 306.323C293.13 306.308 295.599 303.826 295.614 300.585C295.63 297.287 295.614 293.985 295.614 290.687C295.614 289.667 295.691 288.605 295.568 287.585L295.563 287.59Z" fill="#C5E2E0"/>
<path d="M144.963 284.728H298.243C300.312 284.728 302.385 284.769 304.454 284.728C304.547 284.728 304.634 284.728 304.726 284.728C306.046 284.728 306.051 282.677 304.726 282.677H151.447C149.378 282.677 147.304 282.636 145.235 282.677C145.143 282.677 145.056 282.677 144.963 282.677C143.644 282.677 143.639 284.728 144.963 284.728Z" fill="#0A244B"/>
<path d="M104.856 380.128C102.217 377.672 99.3474 375.456 96.2828 373.554C95.1637 372.856 93.9419 371.99 92.6124 372.01C92.9768 371.554 93.3464 371.103 93.7109 370.646C95.3382 368.621 97.0785 366.662 98.6236 364.574C100.236 362.395 101.262 359.974 101.462 357.256C101.924 351.051 98.4234 345.59 95.1226 340.656C94.7068 340.036 93.7417 339.949 93.3464 340.656C86.8629 352.282 77.7562 362.569 67.6484 371.18C65.5232 372.99 63.3312 374.723 61.0674 376.359C61.9657 374.374 62.746 372.328 62.8795 370.154C63.0335 367.605 61.9914 364.954 59.8456 363.477C57.8025 362.072 55.169 362.451 53.3877 364.082C51.3652 365.928 50.6413 368.897 51.3806 371.497C52.2327 374.508 54.5325 376.836 56.9144 378.738C57.0941 378.882 57.3046 378.974 57.515 379.01C57.5304 379.031 57.5458 379.046 57.5612 379.067C57.4534 379.297 57.3405 379.528 57.2378 379.754C55.9391 382.58 54.6403 385.41 53.3415 388.236C50.744 393.892 48.1465 399.549 45.549 405.205C42.6332 411.559 39.7122 417.913 36.7965 424.267C36.4833 424.949 36.8427 425.821 37.6845 425.81C43.7779 425.744 49.7995 424.6 55.6824 423.067C61.6782 421.508 67.592 419.631 73.5262 417.856C76.9348 416.836 80.3434 415.815 83.752 414.8C84.3835 414.61 84.7069 413.877 84.3681 413.292C81.9297 409.108 79.3578 405 76.6782 400.969C78.4492 401.174 80.2459 401.154 82.0375 400.872C88.3875 399.862 93.8752 395.708 98.1154 391.082C100.79 388.164 103.254 384.913 105.02 381.364C105.22 380.964 105.205 380.446 104.861 380.123L104.856 380.128Z" fill="white"/>
<path d="M98.4337 373.723C98.5261 373.456 98.6236 373.19 98.7263 372.928C98.7777 372.795 98.829 372.667 98.8855 372.533C98.9317 372.421 98.9419 372.405 98.906 372.487C98.9317 372.421 98.9625 372.359 98.9881 372.292C99.214 371.774 99.4655 371.267 99.7325 370.769C100.271 369.774 100.887 368.821 101.57 367.918C101.899 367.487 101.652 366.754 101.201 366.513C100.656 366.226 100.143 366.421 99.7941 366.882C98.3464 368.785 97.2325 370.918 96.4522 373.18C96.2777 373.687 96.6524 374.323 97.1709 374.441C97.7407 374.569 98.2489 374.267 98.4337 373.723Z" fill="#0A244B"/>
<path d="M104.147 371.092C106.016 370.103 107.597 368.636 108.762 366.877C109.06 366.431 108.865 365.723 108.393 365.472C107.879 365.2 107.304 365.359 106.986 365.841C106.858 366.031 106.724 366.221 106.591 366.405C106.457 366.59 106.735 366.226 106.586 366.415C106.55 366.462 106.514 366.508 106.478 366.549C106.406 366.636 106.334 366.728 106.257 366.81C105.949 367.164 105.621 367.503 105.271 367.821C105.102 367.974 104.928 368.123 104.748 368.267C104.722 368.287 104.563 368.415 104.691 368.313C104.82 368.21 104.661 368.338 104.63 368.359C104.537 368.426 104.445 368.497 104.353 368.559C103.957 368.836 103.542 369.087 103.115 369.313C102.638 369.564 102.453 370.267 102.746 370.718C103.059 371.2 103.644 371.354 104.152 371.087L104.147 371.092Z" fill="#0A244B"/>
<path d="M108.023 369.626C107.597 370.005 107.171 370.385 106.745 370.764C106.642 370.856 106.575 370.969 106.534 371.092C106.468 371.215 106.442 371.349 106.447 371.487C106.442 371.631 106.473 371.759 106.534 371.882C106.575 372.01 106.647 372.118 106.745 372.21C106.94 372.39 107.197 372.523 107.469 372.513L107.741 372.477C107.915 372.426 108.064 372.338 108.192 372.215C108.618 371.836 109.045 371.456 109.471 371.077C109.573 370.985 109.64 370.872 109.681 370.749C109.748 370.626 109.774 370.492 109.768 370.354C109.774 370.21 109.743 370.082 109.681 369.959C109.64 369.831 109.568 369.723 109.471 369.631C109.276 369.451 109.019 369.318 108.747 369.328L108.475 369.364C108.3 369.415 108.151 369.503 108.023 369.626Z" fill="#0A244B"/>
<path d="M107.823 374.067C107.823 374.067 107.674 374.267 107.766 374.149C107.859 374.031 107.705 374.221 107.705 374.226C107.633 374.313 107.556 374.405 107.479 374.487C107.325 374.662 107.166 374.826 106.996 374.985C106.827 375.144 106.642 375.349 106.442 375.462C106.55 375.395 106.534 375.395 106.437 375.462C106.396 375.492 106.355 375.523 106.314 375.554C106.211 375.631 106.103 375.703 105.995 375.769C105.605 376.021 105.179 376.277 104.738 376.441C104.809 376.415 104.886 376.38 104.768 376.426C104.707 376.446 104.65 376.472 104.589 376.492C104.481 376.533 104.373 376.569 104.26 376.605C104.014 376.682 103.767 376.749 103.516 376.805C102.992 376.923 102.633 377.559 102.797 378.067C102.977 378.615 103.5 378.908 104.06 378.785C106.303 378.282 108.249 376.933 109.599 375.092C109.917 374.656 109.686 373.928 109.229 373.687C108.695 373.405 108.167 373.59 107.823 374.056V374.067Z" fill="#0A244B"/>
<path d="M98.3157 340.277C98.4235 340.005 98.2284 340.462 98.3465 340.195C98.3773 340.128 98.4081 340.062 98.4389 339.995C98.5108 339.851 98.5826 339.703 98.6648 339.564C98.8239 339.282 99.0036 339.01 99.1884 338.749C99.3578 338.513 99.06 338.903 99.2448 338.677C99.291 338.621 99.3372 338.564 99.3834 338.508C99.4861 338.385 99.599 338.262 99.7068 338.144C99.9327 337.908 100.169 337.687 100.42 337.482C100.441 337.467 100.626 337.313 100.523 337.395C100.42 337.477 100.61 337.328 100.631 337.313C100.775 337.21 100.918 337.108 101.067 337.015C101.339 336.841 101.627 336.682 101.919 336.544C101.986 336.513 102.053 336.482 102.12 336.451C102.227 336.4 101.976 336.503 102.161 336.436C102.31 336.38 102.464 336.318 102.618 336.272C102.941 336.164 103.269 336.082 103.603 336.015C104.132 335.913 104.481 335.251 104.322 334.754C104.142 334.19 103.624 333.928 103.059 334.036C100.005 334.626 97.4738 336.867 96.3393 339.733C96.1391 340.236 96.5549 340.882 97.058 340.995C97.6483 341.128 98.1103 340.815 98.3208 340.277H98.3157Z" fill="#0A244B"/>
<path d="M100.79 339.805C100.826 339.892 100.857 339.98 100.882 340.072C100.893 340.118 100.908 340.164 100.913 340.21C100.934 340.323 100.934 340.303 100.913 340.149C100.954 340.174 100.949 340.682 100.913 340.713C100.934 340.559 100.939 340.538 100.913 340.651C100.903 340.697 100.893 340.744 100.882 340.79C100.862 340.882 100.836 340.974 100.805 341.067C100.79 341.113 100.775 341.159 100.759 341.205C100.718 341.308 100.723 341.297 100.78 341.159C100.78 341.226 100.703 341.323 100.667 341.385C100.58 341.549 100.482 341.703 100.379 341.851C100.349 341.897 100.169 342.174 100.323 341.938C100.272 342.021 100.2 342.092 100.138 342.164C99.8814 342.462 99.6094 342.744 99.3322 343.026C98.9574 343.41 98.9215 344.097 99.3322 344.477C99.7428 344.856 100.385 344.887 100.785 344.477C101.432 343.821 102.104 343.128 102.51 342.287C102.956 341.359 103.172 340.236 102.772 339.251C102.669 338.995 102.551 338.785 102.299 338.636C102.079 338.508 101.755 338.451 101.509 338.533C101.031 338.687 100.574 339.262 100.79 339.795V339.805Z" fill="#0A244B"/>
<path d="M322.385 189.236C322.293 186.887 322.129 184.544 321.944 182.205C321.898 181.651 321.867 181.087 321.81 180.533C321.718 179.697 320.963 179.451 320.275 179.169C319.192 178.723 318.032 178.477 316.857 178.426C314.495 178.318 312.067 178.969 310.876 181.164C309.757 183.236 309.09 185.59 308.52 187.862C307.38 192.415 306.754 197.215 304.511 201.405C300.527 208.846 292.529 212.897 285.106 216.159C284.157 216.574 283.207 216.985 282.252 217.385C281.744 217.6 281.631 218.354 281.882 218.79C282.113 219.185 282.493 219.313 282.883 219.267L284.962 237.097C284.911 237.113 284.86 237.133 284.808 237.149C283.556 237.559 284.095 239.538 285.353 239.128C293.931 236.333 301.995 231.656 308.592 225.492C311.862 222.436 314.798 218.959 317.067 215.092C319.336 211.22 320.881 206.954 321.661 202.533C322.442 198.144 322.55 193.672 322.38 189.226L322.385 189.236Z" fill="white"/>
<path d="M290.373 239.031C290.45 238.995 290.522 238.964 290.599 238.928L290.353 239.031C290.902 238.8 291.472 238.636 292.057 238.538C292.298 238.497 292.555 238.267 292.673 238.067C292.801 237.846 292.858 237.523 292.776 237.277C292.693 237.031 292.539 236.79 292.303 236.662L292.057 236.559C291.877 236.508 291.692 236.508 291.513 236.559C290.753 236.687 290.034 236.933 289.336 237.256C289.115 237.359 288.926 237.646 288.864 237.872C288.797 238.118 288.828 238.446 288.967 238.662C289.105 238.877 289.321 239.072 289.583 239.133L289.855 239.169C290.039 239.169 290.214 239.123 290.373 239.031Z" fill="#0A244B"/>
<path d="M286.472 225.267C284.675 222.415 283.397 219.292 282.683 216C282.334 214.385 282.129 212.749 282.067 211.103C282.036 210.287 282.042 209.472 282.083 208.662C282.103 208.236 282.124 207.81 282.242 207.4C282.252 207.369 282.267 207.333 282.278 207.303C282.488 207.087 282.688 206.856 282.909 206.662C283.34 206.292 283.807 205.974 284.254 205.626C285.26 204.846 286.01 203.892 286.236 202.61C286.313 202.185 286.195 201.662 285.763 201.451C282.781 199.995 278.356 197.349 275.691 200.631C272.309 200.867 269.357 203.703 268.874 207.056C268.736 208.036 268.818 208.985 269.074 209.938C269.336 210.928 269.803 211.923 269.85 212.959C269.932 214.867 268.094 216.041 266.903 217.251C265.615 218.559 264.439 220.621 265.137 222.503C265.471 223.4 266.138 224.005 266.918 224.518C267.442 224.862 268.32 225.215 268.448 225.908C268.592 226.682 267.848 227.544 267.396 228.092C266.754 228.872 265.948 229.764 266.246 230.867C266.533 231.933 267.668 232.179 268.612 232.344C269.726 232.538 270.856 232.61 271.98 232.544C277.237 232.226 281.785 229.431 286.102 226.667C286.559 226.374 286.775 225.749 286.472 225.262V225.267Z" fill="#0A244B"/>
<path d="M297.94 285.979C300.281 286.564 302.616 287.149 304.957 287.733L308.402 288.595C309.464 288.862 310.691 289.015 311.692 289.467C312.195 289.697 312.796 289.61 313.099 289.097C313.356 288.656 313.238 287.923 312.729 287.692C311.651 287.205 310.46 286.99 309.316 286.703L305.748 285.81C303.325 285.205 300.907 284.6 298.484 283.995C297.201 283.672 296.657 285.651 297.94 285.974V285.979Z" fill="#C5E2E0"/>
<path d="M283.181 208.118C282.894 207.831 282.55 207.579 282.17 207.421C281.533 207.144 280.707 206.877 280.137 207.446C279.855 207.728 279.752 208.123 279.726 208.508C279.716 208.656 279.747 208.81 279.767 208.954C279.778 209.031 279.798 209.103 279.824 209.174C279.875 209.318 279.932 209.462 280.009 209.595C280.086 209.728 280.188 209.856 280.286 209.974C280.435 210.159 280.635 210.303 280.835 210.426C281.225 210.667 281.682 210.8 282.129 210.877C282.267 210.918 282.401 210.928 282.54 210.897C282.678 210.892 282.801 210.851 282.919 210.774C283.135 210.651 283.335 210.405 283.392 210.159C283.453 209.897 283.438 209.6 283.289 209.369C283.15 209.159 282.935 208.944 282.673 208.897C282.411 208.851 282.134 208.79 281.882 208.682L282.129 208.785C281.995 208.728 281.867 208.656 281.754 208.569L281.959 208.728C281.867 208.656 281.785 208.579 281.713 208.487L281.872 208.692C281.811 208.61 281.759 208.518 281.713 208.421L281.816 208.667C281.78 208.579 281.754 208.487 281.744 208.395L281.78 208.667C281.77 208.59 281.77 208.518 281.78 208.441L281.744 208.713C281.754 208.646 281.77 208.579 281.795 208.518L281.693 208.764C281.703 208.733 281.718 208.708 281.739 208.682L281.58 208.887L281.595 208.872L281.39 209.031C281.39 209.031 281.415 209.01 281.431 209.005L281.184 209.108H281.21C281.118 209.113 281.03 209.123 280.938 209.138C280.974 209.138 281.01 209.138 281.046 209.138L280.774 209.103C280.984 209.133 281.184 209.19 281.379 209.272L281.133 209.169C281.333 209.256 281.523 209.364 281.698 209.503L281.492 209.344C281.574 209.41 281.651 209.477 281.728 209.554C281.913 209.738 282.19 209.856 282.452 209.856C282.714 209.856 283.007 209.744 283.176 209.554C283.345 209.364 283.489 209.103 283.479 208.831C283.469 208.559 283.376 208.303 283.176 208.108L283.181 208.118Z" fill="white"/>
<path d="M66.5551 355.569C66.4833 354.928 65.9545 354.38 65.2564 354.58C62.6024 355.349 59.9073 356.2 57.5254 357.631C56.3293 358.349 55.1948 359.221 54.2605 360.267C53.316 361.323 52.6486 362.605 51.6682 363.631C50.6415 364.708 49.2811 365.338 48.3468 366.533C47.4587 367.672 46.663 369.241 47.1559 370.703C47.6281 372.113 48.9731 373.01 50.1384 373.826C51.1959 374.569 52.8129 376.005 54.1168 375.005C54.7071 374.549 54.933 373.831 55.0511 373.128C55.2051 372.2 55.3129 371.262 55.3642 370.323C55.4464 368.831 55.3796 367.338 55.2 365.856C57.9463 366.41 60.8827 365.713 63.0901 363.964C65.5644 362.005 66.8991 358.697 66.5603 355.574L66.5551 355.569Z" fill="#0A244B"/>
<path d="M56.319 369.195C55.8314 368.877 55.2513 368.672 54.6815 368.569C54.3478 368.508 53.9936 368.446 53.6496 368.477C53.1722 368.523 52.7667 368.667 52.4022 368.99C51.7246 369.59 51.7143 370.672 52.356 371.297C52.8745 371.8 53.5932 371.933 54.2811 372.026C54.9689 372.118 55.7133 372.062 56.4114 371.897C56.935 371.774 57.2944 371.149 57.1301 370.636C56.9556 370.092 56.4268 369.79 55.8673 369.918C55.7082 369.954 55.5542 369.985 55.395 370.01L55.6671 369.974C55.2051 370.036 54.7431 370.036 54.2862 369.974L54.5583 370.01C54.2708 369.969 53.9833 369.913 53.7112 369.805L53.9577 369.908C53.8601 369.867 53.7728 369.815 53.6856 369.754L53.8909 369.913C53.8345 369.867 53.7831 369.82 53.742 369.764L53.9012 369.969C53.8704 369.923 53.8447 369.877 53.819 369.826L53.9217 370.072C53.9063 370.031 53.9012 369.995 53.8909 369.949L53.9269 370.221C53.9269 370.174 53.9269 370.128 53.9269 370.082L53.8909 370.354C53.9012 370.308 53.9114 370.267 53.932 370.221L53.8293 370.467C53.8498 370.426 53.8704 370.385 53.9012 370.344L53.742 370.549C53.7934 370.482 53.8447 370.431 53.9114 370.379L53.7061 370.538C53.7574 370.503 53.8139 370.472 53.8704 370.446L53.624 370.549C53.7112 370.518 53.8036 370.492 53.896 370.482L53.624 370.518C53.8139 370.497 54.0039 370.513 54.1887 370.538L53.9166 370.503C54.3016 370.559 54.6815 370.646 55.0408 370.8L54.7944 370.697C54.9638 370.769 55.1281 370.856 55.2821 370.959C55.7338 371.251 56.4371 371.067 56.6886 370.59C56.9607 370.077 56.8016 369.497 56.319 369.185V369.195Z" fill="white"/>
<path d="M63.9318 395.949C65.7439 397.446 67.6228 398.872 69.5632 400.2C70.5129 400.851 71.4626 401.441 72.5458 401.841C73.6289 402.241 74.7377 402.446 75.8568 402.631C76.401 402.723 76.9605 402.487 77.1196 401.913C77.2531 401.42 76.9502 400.744 76.401 400.651C75.3845 400.482 74.363 400.297 73.3825 399.964C72.402 399.631 71.4831 399.031 70.6002 398.426C68.8035 397.195 67.0632 395.887 65.3846 394.497C64.9585 394.144 64.3528 394.082 63.9318 394.497C63.5674 394.862 63.5006 395.595 63.9318 395.949Z" fill="#0A244B"/>
<path d="M64.8354 383.179C68.9011 383.579 72.628 386.897 76.8271 385.169C78.9267 384.308 80.785 382.636 82.4996 381.179C84.2141 379.723 85.8876 378.103 87.4225 376.41C88.2593 375.487 89.0344 374.518 89.8353 373.564C90.4923 372.785 91.2778 371.841 92.3866 371.887C93.711 371.938 93.7059 369.887 92.3866 369.836C90.1227 369.749 88.7367 371.708 87.4482 373.262C85.9852 375.02 84.4092 376.687 82.7306 378.241C81.0519 379.795 79.2706 381.313 77.3559 382.574C76.4832 383.149 75.5592 383.579 74.5017 383.62C73.552 383.656 72.628 383.446 71.7245 383.164C69.4196 382.456 67.2686 381.369 64.8405 381.133C64.2861 381.077 63.8138 381.646 63.8138 382.159C63.8138 382.759 64.2861 383.128 64.8405 383.185L64.8354 383.179Z" fill="#0A244B"/>
<path d="M75.7131 425.723C80.7131 428.405 85.8671 431.164 89.5991 435.549C92.7818 439.287 94.7222 444.292 93.3208 449.169C92.6227 451.59 91.1596 453.769 88.9779 455.087C87.8486 455.769 88.8804 457.544 90.0149 456.862C94.5631 454.123 96.4676 448.508 95.6514 443.426C94.7171 437.59 90.5693 432.862 85.9543 429.472C83.0642 427.349 79.902 425.646 76.7501 423.954C75.5848 423.328 74.5478 425.097 75.7131 425.728V425.723Z" fill="white"/>
</g>
<defs>
<clipPath id="clip0_1_279">
<rect width="372" height="499" fill="white"/>
</clipPath>
</defs>
</svg>
