<svg width="388" height="490" viewBox="0 0 388 490" fill="none" xmlns="http://www.w3.org/2000/svg">
<path d="M130.156 198.945C136.646 206.853 145.735 212.12 154.653 217.154C187.607 235.742 221.435 253.592 258.011 263.308C261.506 244.644 265.659 222.007 266.771 203.055C266.842 201.874 265.047 204.363 264.435 203.348C263.681 202.111 262.169 201.596 260.767 201.212C250.231 198.304 239.195 197.223 228.294 198.036" fill="#0B244A"/>
<path d="M129.499 199.601C135.138 206.434 142.665 211.327 150.257 215.72C158.467 220.466 166.787 225.046 175.138 229.536C183.575 234.07 192.098 238.458 200.742 242.589C209.402 246.725 218.183 250.598 227.121 254.092C236.048 257.581 245.128 260.687 254.359 263.277C255.492 263.595 256.625 263.903 257.758 264.206C258.213 264.327 258.805 264.055 258.901 263.56C261.465 249.855 263.979 236.135 265.79 222.31C266.24 218.886 266.64 215.457 266.979 212.024C267.146 210.322 267.298 208.62 267.429 206.913C267.49 206.156 267.54 205.393 267.591 204.636C267.631 204.01 267.819 203.197 267.631 202.581C267.247 201.313 266.008 201.934 265.284 202.404C265.168 202.48 264.9 202.571 264.814 202.682C264.814 202.682 264.768 202.616 264.839 202.682C264.789 202.636 265.264 202.813 265.224 202.894C265.284 202.773 264.627 202.126 264.526 202.035C264.212 201.737 263.848 201.48 263.474 201.268C262.108 200.505 260.489 200.182 258.987 199.798C257.136 199.329 255.274 198.92 253.398 198.566C245.128 197.001 236.67 196.511 228.279 197.122C227.095 197.208 227.085 199.061 228.279 198.975C235.548 198.445 242.882 198.723 250.085 199.864C253.656 200.43 257.217 201.182 260.697 202.172C261.329 202.353 261.956 202.545 262.533 202.869C262.806 203.02 263.059 203.192 263.281 203.414C263.504 203.636 263.651 203.944 263.883 204.166C264.662 204.904 265.664 204.388 266.402 203.894C266.498 203.828 266.736 203.727 266.812 203.631L266.726 203.661C266.969 203.606 266.827 203.485 266.311 203.308C265.74 202.904 265.846 202.833 265.821 203.293C265.775 204.121 265.714 204.949 265.654 205.777C265.537 207.393 265.401 209.009 265.254 210.625C264.945 213.963 264.566 217.295 264.146 220.623C263.281 227.475 262.219 234.302 261.066 241.109C259.827 248.446 258.471 255.763 257.1 263.075L258.243 262.429C249.058 259.985 240.014 257.026 231.122 253.668C222.229 250.31 213.474 246.543 204.855 242.508C196.18 238.448 187.632 234.111 179.175 229.616C170.717 225.122 162.468 220.542 154.197 215.861C146.625 211.574 138.967 207.085 132.928 200.722C132.189 199.945 131.476 199.137 130.793 198.309C130.035 197.39 128.725 198.708 129.478 199.622L129.499 199.601Z" fill="#0B244A"/>
<path d="M184.931 181.68C175.518 191.992 161.861 195.38 149.407 200.515C126.853 209.817 97.9459 223.042 104.011 252.208C110.005 281.047 137.162 310.88 153.99 335.068C155.285 336.931 156.641 338.961 156.595 341.228C156.509 345.899 147.126 350.853 142.604 352.065C155.057 351.58 166.261 350.752 174.643 349.419C166.16 339.264 165.437 325.009 163.51 311.93C160.54 291.807 147.576 254.996 136.691 246.962C152.741 238.882 190.166 235.979 205.199 226.142C210.262 222.83 201.491 226.203 205.199 221.426C214.966 208.857 211.896 185.331 206.013 170.546" fill="#165C7E"/>
<path d="M184.273 181.024C178.335 187.477 170.439 191.35 162.392 194.516C155.164 197.359 147.89 200.031 140.783 203.177C128.801 208.479 116.064 215.008 108.28 225.94C104.532 231.212 102.397 237.443 102.271 243.917C102.114 251.754 104.668 259.591 107.658 266.746C114.638 283.455 125.523 298.291 136.322 312.708C141.512 319.636 146.797 326.503 151.805 333.563C153.039 335.3 154.511 337.077 155.265 339.087C155.892 340.774 155.73 342.188 154.698 343.627C152.731 346.353 149.407 348.207 146.428 349.615C145.118 350.237 143.763 350.782 142.361 351.166C141.37 351.438 141.542 353.029 142.609 352.984C153.388 352.559 164.228 351.984 174.895 350.307C175.654 350.186 175.695 349.232 175.305 348.757C169.706 341.986 167.581 333.245 166.236 324.761C165.052 317.293 164.324 309.794 162.619 302.417C160.945 295.171 158.805 288.03 156.332 281.016C153.884 274.078 151.117 267.216 147.743 260.671C146.195 257.672 144.516 254.718 142.549 251.966C141.006 249.81 139.296 247.744 137.162 246.149V247.75C140.687 245.987 144.471 244.765 148.254 243.674C152.857 242.346 157.526 241.251 162.194 240.19C171.896 237.989 181.694 236.06 191.208 233.126C195.214 231.889 199.21 230.475 202.928 228.531C204.369 227.778 206.038 226.95 207.202 225.789C208.082 224.91 207.753 223.784 206.544 223.521C206.165 223.441 205.78 223.41 205.401 223.319C205.31 223.299 205.229 223.264 205.143 223.239C205.209 223.259 205.178 223.178 205.184 223.264C205.178 223.188 205.098 223.087 205.179 223.299C205.194 223.34 205.179 223.33 205.179 223.33C205.482 222.774 205.952 221.971 206.413 221.34C207.085 220.416 207.692 219.446 208.229 218.436C210.53 214.134 211.663 209.312 212.154 204.484C213.206 194.143 211.461 183.362 208.117 173.56C207.743 172.46 207.338 171.364 206.908 170.283C206.478 169.203 204.678 169.662 205.118 170.778C208.836 180.17 210.854 190.507 210.545 200.616C210.393 205.535 209.64 210.514 207.763 215.089C206.903 217.184 205.76 219.133 204.394 220.946C203.651 221.936 202.725 223.501 203.863 224.572C204.374 225.051 205.517 225.39 206.231 225.344C206.428 225.329 206.256 225.45 206.22 225.329C206.18 225.188 205.973 225.127 205.912 224.905C205.877 224.764 205.952 224.577 205.937 224.451C205.932 224.39 206.038 224.355 205.947 224.41C205.841 224.471 205.73 224.617 205.629 224.698C204.996 225.218 204.258 225.637 203.555 226.051C200.141 228.061 196.398 229.485 192.639 230.717C183.373 233.757 173.767 235.696 164.258 237.822C155.629 239.751 146.772 241.574 138.603 245.048C137.794 245.391 136.995 245.76 136.211 246.149C135.523 246.492 135.7 247.366 136.211 247.75C137.981 249.067 139.433 250.84 140.723 252.612C142.478 255.026 144 257.606 145.406 260.237C148.806 266.59 151.562 273.285 154.005 280.052C156.55 287.096 158.75 294.277 160.495 301.563C162.21 308.714 163.054 315.945 164.116 323.206C165.513 332.73 167.688 342.465 173.97 350.06L174.379 348.51C163.879 350.166 153.196 350.706 142.584 351.12L142.832 352.938C146.044 352.06 149.175 350.474 151.911 348.59C154.278 346.959 157.202 344.621 157.485 341.531C157.688 339.284 156.509 337.153 155.3 335.355C154.177 333.679 152.984 332.038 151.805 330.402C149.276 326.897 146.691 323.438 144.091 319.984C133.125 305.401 121.775 290.858 113.358 274.603C109.539 267.221 106.277 259.374 104.729 251.178C103.459 244.457 104.097 237.468 107.177 231.313C113.166 219.34 125.882 212.15 137.546 206.661C144.198 203.53 151.021 200.783 157.9 198.193C165.942 195.168 174.096 192.027 180.904 186.649C182.574 185.331 184.127 183.887 185.563 182.322C186.372 181.443 185.062 180.13 184.248 181.009L184.273 181.024Z" fill="#165C7E"/>
<path d="M162.687 354.358L160.445 356.596L207.327 403.4L209.57 401.161L162.687 354.358Z" fill="#0B244A" stroke="#2F292B" stroke-width="1.84" stroke-miterlimit="10"/>
<path d="M174.071 350.216H152.523C151.339 350.216 150.379 351.175 150.379 352.357V354.448C150.379 355.63 151.339 356.589 152.523 356.589H174.071C175.255 356.589 176.216 355.63 176.216 354.448V352.357C176.216 351.175 175.255 350.216 174.071 350.216Z" fill="#0B244A"/>
<path d="M174.071 355.665H164.243C160.409 355.665 156.57 355.685 152.736 355.665C151.967 355.665 151.35 355.261 151.309 354.428C151.284 353.928 151.309 353.423 151.309 352.918C151.309 352.413 151.264 351.954 151.608 351.56C151.992 351.12 152.493 351.146 153.014 351.146H154.911C159.539 351.146 164.172 351.146 168.8 351.146H173.621C174.152 351.146 174.678 351.146 175.042 351.62C175.34 352.019 175.285 352.509 175.285 352.979C175.285 353.448 175.31 353.958 175.285 354.443C175.249 355.13 174.769 355.64 174.071 355.665C172.882 355.715 172.872 357.569 174.071 357.518C176.008 357.442 177.141 355.943 177.141 354.1C177.141 352.676 177.313 351.125 176.119 350.08C174.926 349.035 173.155 349.292 171.678 349.292C166.711 349.292 161.744 349.292 156.777 349.292C155.381 349.292 153.98 349.257 152.584 349.292C150.97 349.333 149.625 350.459 149.468 352.1C149.417 352.635 149.453 353.181 149.453 353.716C149.453 354.332 149.428 354.943 149.655 355.534C150.141 356.811 151.345 357.508 152.675 357.523C153.211 357.523 153.752 357.523 154.288 357.523H161.041C165.3 357.523 169.569 357.599 173.833 357.523C173.914 357.523 173.995 357.523 174.076 357.523C175.27 357.523 175.275 355.67 174.076 355.67L174.071 355.665Z" fill="#0B244A"/>
<path d="M200.748 319.495C200.748 339.329 200.748 359.164 200.748 378.994C200.748 398.728 200.748 418.457 200.748 438.191C200.748 449.32 200.748 460.455 200.748 471.584C200.748 472.776 202.604 472.781 202.604 471.584C202.604 451.749 202.604 431.914 202.604 412.084C202.604 392.255 202.604 372.622 202.604 352.888V319.495C202.604 318.303 200.748 318.298 200.748 319.495Z" fill="#165C7E"/>
<path d="M181.066 322.332C183.631 331.881 186.19 341.43 188.755 350.979C191.319 360.528 193.879 370.077 196.443 379.625C199.008 389.174 201.567 398.723 204.131 408.272L211.86 437.06C214.425 446.609 216.984 456.157 219.549 465.706L220.5 469.251C220.808 470.402 222.599 469.913 222.29 468.756C219.726 459.207 217.166 449.659 214.602 440.11C212.037 430.561 209.478 421.012 206.913 411.463C204.349 401.914 201.79 392.366 199.225 382.817C196.661 373.268 194.076 363.628 191.496 354.029C188.932 344.48 186.372 334.931 183.808 325.382L182.857 321.837C182.548 320.686 180.758 321.176 181.066 322.332Z" fill="#165C7E"/>
<path d="M162.791 330.149C167.753 338.734 172.72 347.318 177.682 355.902C182.624 364.446 187.566 372.995 192.508 381.539C197.45 390.083 202.437 398.708 207.399 407.292C212.341 415.836 217.283 424.385 222.224 432.929C227.186 441.513 232.154 450.098 237.116 458.682L238.962 461.874C239.559 462.904 241.162 461.975 240.565 460.939C235.603 452.355 230.636 443.771 225.674 435.186C220.712 426.602 215.79 418.093 210.849 409.549C205.887 400.965 200.92 392.381 195.958 383.796C191.016 375.252 186.074 366.703 181.132 358.159C176.17 349.575 171.203 340.991 166.241 332.406L164.395 329.215C163.798 328.185 162.194 329.114 162.791 330.149Z" fill="#165C7E"/>
<path d="M147.157 342.425C154.182 349.439 161.208 356.453 168.239 363.472C175.234 370.455 182.235 377.444 189.23 384.428C196.226 391.411 203.226 398.4 210.221 405.383C217.247 412.397 224.273 419.411 231.304 426.43C238.299 433.414 245.3 440.403 252.295 447.386L254.885 449.972C255.73 450.815 257.045 449.507 256.2 448.659C249.174 441.645 242.148 434.631 235.118 427.612C228.122 420.628 221.122 413.64 214.126 406.656C207.131 399.672 200.13 392.684 193.135 385.7C186.14 378.716 179.084 371.672 172.053 364.653C165.057 357.67 158.057 350.681 151.061 343.697L148.472 341.112C147.627 340.269 146.312 341.576 147.157 342.425Z" fill="#165C7E"/>
<path d="M135.24 358.316C143.838 363.27 152.437 368.228 161.036 373.182L186.716 387.983C195.315 392.936 203.914 397.895 212.513 402.849C221.071 407.782 229.635 412.716 238.193 417.649C246.792 422.603 255.391 427.561 263.989 432.515L267.186 434.358C268.223 434.954 269.159 433.353 268.122 432.758C259.523 427.804 250.924 422.845 242.325 417.891C233.767 412.958 225.204 408.025 216.645 403.091C208.046 398.137 199.448 393.179 190.849 388.225C182.29 383.291 173.727 378.358 165.169 373.425C156.57 368.471 147.971 363.512 139.372 358.558L136.175 356.715C135.138 356.119 134.203 357.72 135.24 358.316Z" fill="#165C7E"/>
<path d="M127.855 376.752C137.42 379.312 146.985 381.867 156.55 384.428C166.114 386.988 175.679 389.543 185.244 392.103C194.809 394.663 204.374 397.218 213.939 399.778C223.55 402.349 233.16 404.919 242.776 407.494C252.391 410.07 261.906 412.61 271.471 415.17C272.654 415.488 273.838 415.801 275.021 416.119C276.205 416.437 276.67 414.639 275.517 414.331C265.952 411.771 256.387 409.216 246.822 406.656C237.257 404.096 227.692 401.541 218.127 398.981C208.562 396.42 198.997 393.865 189.433 391.305C179.822 388.735 170.212 386.165 160.596 383.589C151.031 381.029 141.466 378.474 131.901 375.914L128.35 374.965C127.197 374.657 126.701 376.444 127.855 376.752Z" fill="#165C7E"/>
<path d="M125.503 396.466C145.371 396.466 165.239 396.466 185.103 396.466C204.966 396.466 224.632 396.466 244.399 396.466C255.548 396.466 266.701 396.466 277.849 396.466C279.043 396.466 279.048 394.613 277.849 394.613C257.98 394.613 238.112 394.613 218.249 394.613C198.385 394.613 178.719 394.613 158.952 394.613C147.804 394.613 136.651 394.613 125.503 394.613C124.309 394.613 124.304 396.466 125.503 396.466Z" fill="#165C7E"/>
<path d="M128.345 416.119C137.91 413.559 147.475 411.004 157.04 408.444C166.605 405.883 176.17 403.328 185.735 400.768C195.3 398.208 204.865 395.653 214.43 393.093C223.995 390.533 233.651 387.952 243.266 385.377C252.882 382.802 262.396 380.262 271.961 377.701L275.512 376.752C276.665 376.444 276.175 374.657 275.016 374.965C265.451 377.525 255.886 380.08 246.321 382.64C236.756 385.2 227.192 387.755 217.627 390.315C208.062 392.876 198.497 395.431 188.932 397.991C179.321 400.561 169.711 403.131 160.095 405.707C150.53 408.267 140.965 410.822 131.4 413.382L127.85 414.331C126.696 414.639 127.187 416.427 128.345 416.119Z" fill="#165C7E"/>
<path d="M136.175 434.363C144.774 429.41 153.373 424.451 161.972 419.497C170.53 414.564 179.094 409.63 187.652 404.697C196.21 399.763 204.85 394.784 213.449 389.831C222.007 384.897 230.57 379.964 239.129 375.03C247.728 370.077 256.326 365.118 264.925 360.164L268.122 358.321C269.154 357.725 268.223 356.124 267.186 356.72C258.587 361.674 249.989 366.633 241.39 371.586C232.831 376.52 224.268 381.453 215.71 386.387C207.111 391.341 198.512 396.299 189.913 401.253C181.355 406.186 172.791 411.12 164.233 416.053C155.674 420.987 147.035 425.966 138.436 430.919L135.24 432.763C134.208 433.358 135.138 434.959 136.175 434.363Z" fill="#165C7E"/>
<path d="M148.472 449.972C155.497 442.958 162.523 435.944 169.554 428.925C176.549 421.941 183.55 414.953 190.545 407.969C197.541 400.985 204.541 393.997 211.537 387.013C218.532 380.029 225.588 372.985 232.619 365.966C239.614 358.983 246.615 351.994 253.61 345.01C254.475 344.147 255.335 343.288 256.2 342.425C257.065 341.561 255.735 340.269 254.885 341.112C247.859 348.126 240.833 355.14 233.803 362.159C226.807 369.142 219.807 376.131 212.811 383.115C205.816 390.098 198.815 397.087 191.82 404.071C184.794 411.085 177.768 418.098 170.738 425.117C163.742 432.101 156.742 439.09 149.746 446.073L147.157 448.659C146.312 449.502 147.622 450.815 148.472 449.972Z" fill="#165C7E"/>
<path d="M164.39 461.869C169.352 453.284 174.319 444.7 179.281 436.116C184.243 427.531 189.164 419.023 194.106 410.479C199.048 401.935 204.035 393.31 208.997 384.726L223.823 359.089C228.785 350.504 233.752 341.92 238.714 333.336L240.56 330.144C241.157 329.109 239.554 328.175 238.957 329.21C233.995 337.794 229.028 346.379 224.066 354.963C219.124 363.507 214.182 372.056 209.24 380.6C204.278 389.184 199.311 397.769 194.349 406.353C189.387 414.937 184.465 423.446 179.524 431.99C174.582 440.534 169.594 449.159 164.632 457.743L162.786 460.934C162.189 461.97 163.793 462.904 164.39 461.869Z" fill="#165C7E"/>
<path d="M182.857 469.241C185.421 459.692 187.981 450.143 190.545 440.594C193.11 431.046 195.669 421.497 198.234 411.948C200.798 402.399 203.358 392.85 205.922 383.301L213.651 354.514C216.215 344.965 218.775 335.416 221.339 325.867L222.29 322.322C222.599 321.171 220.808 320.676 220.5 321.827C217.935 331.376 215.376 340.925 212.811 350.474C210.247 360.023 207.687 369.572 205.123 379.12C202.558 388.669 199.999 398.218 197.434 407.767C194.87 417.316 192.285 426.955 189.706 436.555C187.126 446.154 184.582 455.652 182.017 465.201L181.066 468.746C180.758 469.897 182.548 470.392 182.857 469.241Z" fill="#165C7E"/>
<path d="M201.678 313.102C156.069 313.102 119.099 350.009 119.099 395.542C119.099 441.074 156.069 477.982 201.678 477.982C247.288 477.982 284.257 441.074 284.257 395.542C284.257 350.009 247.288 313.102 201.678 313.102ZM201.678 465.585C162.928 465.585 131.517 434.227 131.517 395.542C131.517 356.857 162.928 325.498 201.678 325.498C240.429 325.498 271.84 356.857 271.84 395.542C271.84 434.227 240.429 465.585 201.678 465.585Z" fill="#0B244A"/>
<path d="M201.678 312.173C192.943 312.183 184.207 313.526 175.897 316.222C167.88 318.823 160.257 322.64 153.388 327.523C146.545 332.386 140.465 338.249 135.351 344.899C130.227 351.565 126.14 358.998 123.242 366.885C120.343 374.773 118.573 383.635 118.239 392.295C117.9 401.051 118.937 409.878 121.33 418.311C123.631 426.425 127.192 434.197 131.835 441.246C136.479 448.295 142.093 454.542 148.563 459.864C155.057 465.206 162.321 469.544 170.105 472.735C178.097 476.013 186.595 477.992 195.209 478.659C203.823 479.325 212.907 478.628 221.471 476.553C229.705 474.558 237.642 471.281 244.89 466.893C252.057 462.555 258.582 457.132 264.141 450.87C269.7 444.609 274.328 437.529 277.783 429.899C281.329 422.062 283.635 413.726 284.632 405.182C285.659 396.415 285.269 387.488 283.514 378.838C281.759 370.188 278.83 362.452 274.693 355.029C270.611 347.712 265.411 341.006 259.341 335.224C253.271 329.442 246.367 324.59 238.876 320.873C231.385 317.157 222.978 314.445 214.521 313.152C210.272 312.501 205.983 312.173 201.683 312.168C200.49 312.168 200.485 314.021 201.683 314.021C210.267 314.031 218.805 315.359 226.969 318.005C234.804 320.545 242.229 324.297 248.947 329.053C255.608 333.77 261.577 339.516 266.539 346C271.501 352.484 275.547 359.775 278.37 367.476C281.299 375.47 282.958 383.902 283.276 392.406C283.595 400.975 282.588 409.565 280.246 417.816C277.985 425.789 274.49 433.384 269.928 440.307C265.446 447.109 259.938 453.219 253.656 458.41C247.328 463.641 240.171 467.928 232.563 471.024C224.754 474.2 216.453 476.169 208.041 476.805C199.63 477.442 190.687 476.78 182.275 474.73C173.864 472.68 166.499 469.574 159.407 465.287C152.397 461.045 146.049 455.753 140.601 449.633C135.164 443.528 130.662 436.595 127.273 429.157C123.793 421.517 121.512 413.291 120.561 404.949C119.61 396.607 119.939 387.664 121.658 379.216C123.328 371.046 126.251 363.148 130.328 355.867C134.405 348.585 139.357 342.243 145.26 336.608C151.163 330.972 157.981 326.18 165.33 322.519C172.806 318.798 180.859 316.258 189.114 314.97C193.272 314.324 197.475 314.021 201.683 314.016C202.877 314.016 202.882 312.162 201.683 312.162L201.678 312.173Z" fill="#0B244A"/>
<path d="M201.678 464.656C194.4 464.646 187.156 463.525 180.232 461.278C173.307 459.031 167.293 455.94 161.592 451.906C155.892 447.871 150.895 443.044 146.696 437.56C142.498 432.076 139.053 425.88 136.661 419.346C134.268 412.812 132.766 405.414 132.498 398.203C132.23 390.992 133.08 383.65 135.068 376.651C137.055 369.652 139.954 363.446 143.818 357.574C147.617 351.807 152.296 346.621 157.622 342.218C162.948 337.815 169.038 334.154 175.482 331.538C182.108 328.846 189.144 327.17 196.276 326.63C203.408 326.089 210.995 326.65 218.127 328.387C225.259 330.124 231.506 332.76 237.52 336.396C243.469 339.996 248.85 344.485 253.469 349.671C258.082 354.852 261.895 360.73 264.774 367.037C267.722 373.505 269.655 380.474 270.459 387.533C271.263 394.593 270.99 402.197 269.528 409.358C268.112 416.291 265.633 422.987 262.179 429.162C258.724 435.338 254.526 440.716 249.518 445.498C244.511 450.28 238.729 454.34 232.498 457.445C226.266 460.551 219.326 462.752 212.326 463.843C208.805 464.388 205.244 464.641 201.683 464.646C200.49 464.646 200.485 466.499 201.683 466.499C209.119 466.489 216.549 465.348 223.626 463.055C230.449 460.844 236.939 457.597 242.781 453.441C248.623 449.285 253.797 444.301 258.157 438.63C262.518 432.96 265.993 426.627 268.461 419.916C270.929 413.205 272.432 405.661 272.72 398.294C273.008 390.841 272.128 383.327 270.09 376.151C268.051 368.976 265.102 362.628 261.152 356.635C257.232 350.686 252.427 345.318 246.918 340.789C241.38 336.234 235.194 332.538 228.552 329.816C221.749 327.029 214.516 325.347 207.187 324.776C199.706 324.196 192.129 324.802 184.835 326.569C177.824 328.266 171.071 331.058 164.906 334.79C158.805 338.481 153.252 343.097 148.517 348.424C143.783 353.751 139.842 359.775 136.909 366.269C133.975 372.763 131.921 380.055 131.072 387.341C130.222 394.628 130.535 402.399 132.028 409.762C133.52 417.124 136.019 423.709 139.539 430.021C143.059 436.333 147.44 441.958 152.604 446.876C157.769 451.795 163.646 455.925 170.019 459.091C176.393 462.257 183.545 464.565 190.743 465.666C194.364 466.221 198.021 466.504 201.688 466.509C202.882 466.509 202.887 464.656 201.688 464.656H201.678Z" fill="#0B244A"/>
<path d="M201.678 464.656C194.4 464.646 187.156 463.525 180.232 461.278C173.307 459.031 167.293 455.94 161.592 451.906C155.892 447.871 150.895 443.044 146.696 437.56C142.498 432.076 139.053 425.88 136.661 419.346C134.268 412.812 132.766 405.414 132.498 398.203C132.23 390.992 133.08 383.65 135.068 376.651C137.055 369.652 139.954 363.446 143.818 357.574C147.617 351.807 152.296 346.621 157.622 342.218C162.948 337.815 169.038 334.154 175.482 331.538C182.108 328.846 189.144 327.17 196.276 326.63C203.408 326.089 210.995 326.65 218.127 328.387C225.259 330.124 231.506 332.76 237.52 336.396C243.469 339.996 248.85 344.485 253.469 349.671C258.082 354.852 261.895 360.73 264.774 367.037C267.722 373.505 269.655 380.474 270.459 387.533C271.263 394.593 270.99 402.197 269.528 409.358C268.112 416.291 265.633 422.987 262.179 429.162C258.724 435.338 254.526 440.716 249.518 445.498C244.511 450.28 238.729 454.34 232.498 457.445C226.266 460.551 219.326 462.752 212.326 463.843C208.805 464.388 205.244 464.641 201.683 464.646C200.49 464.646 200.485 466.499 201.683 466.499C209.119 466.489 216.549 465.348 223.626 463.055C230.449 460.844 236.939 457.597 242.781 453.441C248.623 449.285 253.797 444.301 258.157 438.63C262.518 432.96 265.993 426.627 268.461 419.916C270.929 413.205 272.432 405.661 272.72 398.294C273.008 390.841 272.128 383.327 270.09 376.151C268.051 368.976 265.102 362.628 261.152 356.635C257.232 350.686 252.427 345.318 246.918 340.789C241.38 336.234 235.194 332.538 228.552 329.816C221.749 327.029 214.516 325.347 207.187 324.776C199.706 324.196 192.129 324.802 184.835 326.569C177.824 328.266 171.071 331.058 164.906 334.79C158.805 338.481 153.252 343.097 148.517 348.424C143.783 353.751 139.842 359.775 136.909 366.269C133.975 372.763 131.921 380.055 131.072 387.341C130.222 394.628 130.535 402.399 132.028 409.762C133.52 417.124 136.019 423.709 139.539 430.021C143.059 436.333 147.44 441.958 152.604 446.876C157.769 451.795 163.646 455.925 170.019 459.091C176.393 462.257 183.545 464.565 190.743 465.666C194.364 466.221 198.021 466.504 201.688 466.509C202.882 466.509 202.887 464.656 201.688 464.656H201.678Z" fill="#0B244A"/>
<path d="M201.678 401.556C199.731 401.556 198.153 399.98 198.153 398.036V229.869H205.204V398.036C205.204 399.98 203.626 401.556 201.678 401.556Z" fill="#0B244A"/>
<path d="M201.678 400.632C198.461 400.632 199.083 396.658 199.083 394.547C199.083 390.699 199.083 386.851 199.083 383.004C199.083 377.065 199.083 371.127 199.083 365.194V236.898C199.083 234.671 199.225 232.394 199.083 230.167C199.078 230.071 199.083 229.975 199.083 229.879L198.153 230.808H205.204L204.273 229.879V265.484C204.273 272.993 204.273 280.496 204.273 288.005V392.371C204.273 394.239 204.324 396.118 204.273 397.986C204.233 399.46 203.17 400.591 201.678 400.642C200.485 400.682 200.479 402.536 201.678 402.495C204.415 402.404 206.129 400.243 206.129 397.637V395.077C206.129 391.361 206.129 387.649 206.129 383.933V366.244C206.129 358.912 206.129 351.575 206.129 344.243C206.129 336.037 206.129 327.837 206.129 319.631C206.129 311.334 206.129 303.033 206.129 294.736V271.22C206.129 264.61 206.129 258 206.129 251.39V236.984C206.129 234.722 206.175 232.449 206.129 230.187C206.129 230.086 206.129 229.99 206.129 229.889C206.129 229.389 205.705 228.96 205.199 228.96H198.148C197.647 228.96 197.217 229.384 197.217 229.889V288.919C197.217 297.155 197.217 305.391 197.217 313.632V393.163C197.217 394.794 197.171 396.426 197.217 398.057C197.283 400.475 199.2 402.505 201.668 402.505C202.862 402.505 202.867 400.652 201.668 400.652L201.678 400.632Z" fill="#0B244A"/>
<path d="M201.678 229.869C190.829 229.869 181.203 226.642 175.219 221.668C174.526 221.093 173.459 221.587 173.454 222.486C173.454 222.496 173.454 222.501 173.454 222.512C173.454 234.868 186.089 244.886 201.673 244.886C217.257 244.886 229.893 234.868 229.893 222.512C229.893 222.501 229.893 222.496 229.893 222.486C229.893 221.587 228.82 221.093 228.127 221.668C222.144 226.642 212.518 229.864 201.668 229.864L201.678 229.869Z" fill="#0B244A"/>
<path d="M201.678 228.94C196.008 228.93 190.333 228.066 185.002 226.097C182.705 225.249 180.49 224.178 178.426 222.86C177.47 222.249 176.62 221.507 175.69 220.865C174.703 220.184 173.307 220.512 172.751 221.582C172.301 222.451 172.548 223.744 172.66 224.673C172.786 225.718 172.978 226.748 173.272 227.758C173.843 229.748 174.739 231.651 175.882 233.373C178.31 237.029 181.769 239.938 185.639 241.973C194.4 246.573 205.361 247.063 214.546 243.417C222.629 240.211 229.705 233.495 230.712 224.516C230.818 223.577 231.051 222.31 230.54 221.456C229.872 220.345 228.436 220.254 227.48 221.007C225.679 222.426 223.777 223.648 221.714 224.658C216.893 227.021 211.521 228.298 206.18 228.748C204.683 228.874 203.181 228.935 201.673 228.935C200.479 228.935 200.474 230.793 201.673 230.788C207.04 230.778 212.442 230.03 217.541 228.334C219.832 227.571 222.073 226.622 224.182 225.45C225.153 224.91 226.099 224.324 227.004 223.683C227.434 223.375 227.859 223.057 228.274 222.734C228.405 222.628 228.714 222.229 228.916 222.38C229.083 222.502 228.952 223.188 228.947 223.365C228.921 223.855 228.886 224.34 228.82 224.824C228.694 225.748 228.481 226.667 228.208 227.556C227.652 229.364 226.802 231.066 225.74 232.631C223.449 236.009 220.161 238.63 216.549 240.488C208.35 244.705 198.208 245.053 189.635 241.756C182.326 238.948 175.644 232.889 174.536 224.819C174.476 224.36 174.435 223.9 174.41 223.436C174.4 223.244 174.253 222.471 174.45 222.36C174.648 222.249 174.941 222.618 175.077 222.729C175.538 223.092 176.003 223.441 176.484 223.779C178.305 225.057 180.277 226.117 182.321 226.996C187.131 229.071 192.29 230.217 197.505 230.621C198.896 230.727 200.287 230.778 201.678 230.783C202.872 230.783 202.877 228.93 201.678 228.93V228.94Z" fill="#0B244A"/>
<path d="M201.678 408.732C208.975 408.732 214.89 402.826 214.89 395.542C214.89 388.257 208.975 382.352 201.678 382.352C194.382 382.352 188.466 388.257 188.466 395.542C188.466 402.826 194.382 408.732 201.678 408.732Z" fill="#0B244A"/>
<path d="M213.964 395.542C213.929 400.647 210.692 405.378 205.831 407.09C200.94 408.812 195.462 407.277 192.159 403.303C188.856 399.329 188.522 393.572 191.157 389.21C193.793 384.847 199.023 382.504 204.035 383.499C209.766 384.635 213.929 389.725 213.97 395.542C213.98 396.734 215.836 396.739 215.826 395.542C215.785 389.659 212.088 384.357 206.569 382.292C201.046 380.226 194.536 381.979 190.798 386.533C187.06 391.088 186.479 397.708 189.559 402.808C192.639 407.908 198.638 410.504 204.45 409.388C210.262 408.272 214.769 403.52 215.644 397.794C215.76 397.047 215.826 396.299 215.831 395.542C215.841 394.35 213.985 394.35 213.975 395.542H213.964Z" fill="#0B244A"/>
<path d="M240.666 436.725L242.908 434.486L196.025 387.682L193.783 389.921L240.666 436.725Z" fill="#0B244A" stroke="#2F292B" stroke-width="1.84" stroke-miterlimit="10"/>
<path d="M250.833 434.495H229.286C228.101 434.495 227.141 435.453 227.141 436.636V438.726C227.141 439.909 228.101 440.867 229.286 440.867H250.833C252.018 440.867 252.978 439.909 252.978 438.726V436.636C252.978 435.453 252.018 434.495 250.833 434.495Z" fill="#0B244A"/>
<path d="M229.286 435.419H239.114C242.948 435.419 246.787 435.398 250.621 435.419C251.39 435.419 252.007 435.823 252.047 436.656C252.073 437.156 252.047 437.661 252.047 438.166C252.047 438.671 252.093 439.13 251.749 439.524C251.364 439.963 250.864 439.938 250.343 439.938H229.736C229.205 439.938 228.679 439.938 228.314 439.463C228.016 439.064 228.072 438.575 228.072 438.105C228.072 437.635 228.046 437.125 228.072 436.641C228.107 435.954 228.588 435.444 229.286 435.419C230.474 435.368 230.484 433.515 229.286 433.565C227.348 433.641 226.215 435.141 226.215 436.984C226.215 438.408 226.043 439.958 227.237 441.004C228.431 442.049 230.201 441.791 231.678 441.791C236.645 441.791 241.612 441.791 246.579 441.791C247.975 441.791 249.377 441.827 250.773 441.791C252.386 441.751 253.732 440.625 253.888 438.984C253.939 438.448 253.904 437.903 253.904 437.368C253.904 436.752 253.929 436.141 253.701 435.55C253.216 434.272 252.012 433.576 250.682 433.56C250.145 433.56 249.604 433.56 249.068 433.56H242.315C238.056 433.56 233.787 433.485 229.523 433.56C229.442 433.56 229.361 433.56 229.281 433.56C228.087 433.56 228.082 435.414 229.281 435.414L229.286 435.419Z" fill="#0B244A"/>
<path d="M210.049 189.558C201.269 236.767 182.69 284.162 193.504 330.952C196.301 343.051 200.373 354.812 204.435 366.547C208.972 379.646 213.297 387.084 219.023 399.708C221.693 405.601 227.126 415.528 227.141 421.992C227.161 428.455 220.869 437.267 214.45 438.13C224.288 436.646 234.126 435.161 243.964 433.677C241.076 396.38 237.991 358.245 222.836 324.034C221.456 320.919 219.953 317.747 219.786 314.344C219.64 311.425 220.489 308.557 221.385 305.775C228.901 282.38 240.343 260.172 245.204 236.085C250.064 211.998 247.009 184.326 229.296 167.264" fill="#165C7E"/>
<path d="M209.154 189.31C205.75 207.544 200.99 225.491 196.954 243.589C193.004 261.308 189.68 279.31 189.316 297.509C189.139 306.446 189.701 315.404 191.208 324.221C192.781 333.447 195.437 342.48 198.315 351.378C201.193 360.275 203.868 368.476 207.348 376.737C210.398 383.968 213.975 390.962 217.262 398.087C220.257 404.581 223.949 411.049 225.654 418.033C226.443 421.265 226.296 424.284 224.961 427.36C223.58 430.536 221.334 433.545 218.446 435.5C217.146 436.378 215.75 436.994 214.197 437.232C213.019 437.413 213.519 439.196 214.693 439.019C224.531 437.534 234.369 436.05 244.207 434.565C244.581 434.51 244.915 434.04 244.89 433.672C243.408 414.554 241.89 395.406 238.734 376.474C237.161 367.037 235.168 357.66 232.558 348.449C229.948 339.239 226.635 330.483 222.847 321.767C221.855 319.479 220.904 317.081 220.727 314.571C220.55 312.062 221.203 309.446 221.961 306.992C223.388 302.376 225.032 297.827 226.716 293.302C230.145 284.107 233.883 275.028 237.293 265.827C243.418 249.27 248.456 232.076 248.188 214.266C247.955 198.814 243.904 182.973 233.904 170.874C232.664 169.374 231.339 167.955 229.948 166.602C229.093 165.769 227.778 167.077 228.633 167.915C240.08 179.029 245.29 194.724 246.19 210.367C247.196 227.915 242.796 244.957 236.949 261.363C233.711 270.448 230.059 279.38 226.605 288.384C224.91 292.807 223.261 297.251 221.734 301.74C220.206 306.229 218.345 310.824 218.972 315.551C219.599 320.277 222.108 324.504 223.863 328.801C225.654 333.184 227.267 337.643 228.714 342.152C231.612 351.176 233.858 360.402 235.639 369.703C239.235 388.467 240.97 407.52 242.472 426.547C242.659 428.92 242.846 431.298 243.029 433.672L243.711 432.778C233.873 434.262 224.035 435.747 214.197 437.232L214.693 439.019C221.031 438.034 225.983 431.384 227.556 425.557C229.311 419.063 225.861 412.14 223.191 406.378C219.953 399.395 216.64 392.446 213.332 385.498C209.66 377.772 206.564 369.915 203.777 361.831C200.677 352.817 197.662 343.763 195.315 334.522C193.004 325.413 191.623 316.152 191.253 306.754C190.52 288.202 193.317 269.726 197.106 251.613C200.955 233.197 205.851 215.013 209.609 196.577C210.07 194.32 210.51 192.057 210.935 189.795C211.152 188.629 209.362 188.129 209.144 189.3L209.154 189.31Z" fill="#165C7E"/>
<path d="M332.446 72.9115C342.568 71.9621 352.775 72.0985 362.871 73.3104C363.372 73.371 363.797 72.8408 363.802 72.3813C363.807 71.8309 363.367 71.5127 362.871 71.4521C352.775 70.2402 342.573 70.1089 332.446 71.0532C331.268 71.1643 331.258 73.0175 332.446 72.9064V72.9115Z" fill="#0B244A"/>
<path d="M354.91 77.2339C356.867 77.855 358.865 78.36 360.883 78.7437C361.359 78.8346 361.91 78.6124 362.026 78.0974C362.133 77.6429 361.89 77.0521 361.379 76.9562C359.361 76.5724 357.363 76.0674 355.405 75.4463C354.94 75.2999 354.373 75.618 354.262 76.0927C354.146 76.5976 354.414 77.0774 354.91 77.2339Z" fill="#0B244A"/>
<path d="M352.204 81.5109C352.775 81.7785 353.347 82.0512 353.918 82.3188C354.024 82.3845 354.141 82.4249 354.262 82.4299C354.384 82.4552 354.51 82.4501 354.631 82.4148C354.849 82.3542 355.082 82.1875 355.188 81.9906C355.304 81.7735 355.36 81.5159 355.279 81.2786C355.208 81.0615 355.066 80.8241 354.854 80.7231C354.282 80.4555 353.711 80.1828 353.139 79.9152C353.033 79.8496 352.917 79.8092 352.795 79.8041C352.674 79.7789 352.547 79.7839 352.426 79.8193C352.209 79.8799 351.976 80.0465 351.87 80.2434C351.753 80.4606 351.698 80.7181 351.779 80.9554C351.849 81.1726 351.991 81.4099 352.204 81.5109Z" fill="#0B244A"/>
<path d="M338.258 85.2982C342.598 84.3236 346.108 81.4504 349.442 78.6681C349.826 78.3449 349.776 77.6884 349.442 77.3552C349.062 76.9765 348.516 77.032 348.127 77.3552C345.036 79.9355 341.789 82.6068 337.763 83.5107C336.599 83.7732 337.09 85.5608 338.258 85.2982Z" fill="#0B244A"/>
<path d="M341.683 76.8955C342.451 76.8248 343.22 76.7541 343.989 76.6784C344.242 76.6531 344.459 76.5925 344.647 76.4057C344.809 76.2441 344.93 75.9815 344.92 75.7492C344.91 75.517 344.829 75.2594 344.647 75.0928C344.475 74.9363 344.232 74.7999 343.989 74.8201C343.22 74.8908 342.451 74.9615 341.683 75.0372C341.43 75.0625 341.212 75.1231 341.025 75.3099C340.863 75.4715 340.742 75.7341 340.752 75.9664C340.762 76.1987 340.843 76.4562 341.025 76.6228C341.197 76.7794 341.44 76.9157 341.683 76.8955Z" fill="#0B244A"/>
<path d="M68.8919 71.0582C58.7706 70.1089 48.5633 70.2453 38.4672 71.4572C37.9664 71.5178 37.5466 71.8409 37.5365 72.3863C37.5365 72.8408 37.9664 73.371 38.4672 73.3154C48.5633 72.1035 58.7655 71.9722 68.8919 72.9165C70.0806 73.0276 70.0755 71.1744 68.8919 71.0633V71.0582Z" fill="#0B244A"/>
<path d="M45.938 75.4513C43.9805 76.0724 41.9826 76.5774 39.9644 76.9612C39.4838 77.0521 39.1702 77.653 39.3169 78.1024C39.4838 78.6124 39.9441 78.8447 40.4601 78.7487C42.4783 78.365 44.4762 77.86 46.4337 77.2389C46.894 77.0925 47.243 76.5875 47.0812 76.0977C46.9294 75.6331 46.4337 75.2948 45.938 75.4513Z" fill="#0B244A"/>
<path d="M48.199 79.9102C47.6275 80.1778 47.0559 80.4505 46.4843 80.7181C46.2871 80.8141 46.1151 81.0665 46.0595 81.2736C45.9988 81.4958 46.024 81.7886 46.1505 81.9856C46.277 82.1825 46.4692 82.3592 46.7069 82.4097L46.9547 82.4451C47.1217 82.4451 47.2785 82.4047 47.4252 82.3188C47.9967 82.0512 48.5683 81.7785 49.1399 81.5109C49.3371 81.415 49.5091 81.1625 49.5647 80.9555C49.6254 80.7333 49.6002 80.4404 49.4737 80.2435C49.3472 80.0465 49.155 79.8698 48.9173 79.8193L48.6695 79.7839C48.5025 79.7839 48.3457 79.8243 48.199 79.9102Z" fill="#0B244A"/>
<path d="M63.5758 83.5158C59.5545 82.6119 56.3022 79.9406 53.2116 77.3603C52.8272 77.0371 52.2759 76.9866 51.8965 77.3603C51.5677 77.6885 51.5121 78.35 51.8965 78.6732C55.2298 81.4555 58.7402 84.3288 63.0801 85.3033C64.2434 85.5659 64.7391 83.7784 63.5758 83.5158Z" fill="#0B244A"/>
<path d="M59.6557 75.0424C58.8869 74.9717 58.118 74.901 57.3492 74.8252C57.1266 74.805 56.8484 74.9414 56.6916 75.0979C56.5298 75.2595 56.4084 75.5221 56.4185 75.7544C56.4286 75.9867 56.5095 76.2442 56.6916 76.4108C56.8737 76.5775 57.0912 76.6583 57.3492 76.6835C58.118 76.7542 58.8869 76.8249 59.6557 76.9006C59.8783 76.9208 60.1565 76.7845 60.3133 76.628C60.4751 76.4664 60.5965 76.2038 60.5864 75.9715C60.5763 75.7392 60.4954 75.4817 60.3133 75.315C60.1312 75.1484 59.9137 75.0676 59.6557 75.0424Z" fill="#0B244A"/>
<path d="M193.459 71.5935C191.456 65.7915 188.112 60.5904 186.393 54.6773C183.848 45.9112 181.117 35.9685 191.562 31.3127C195.472 29.5706 200.469 29.5655 203.742 32.6256C209.124 37.6651 204.926 43.4722 202.194 50.3144C183.439 97.382 162.634 159.285 129.529 197.678C143.034 214.22 167.43 220.875 188.8 221.37C215.816 221.996 243.292 216.391 266.777 203.045C259.478 185.533 225.882 115.439 214.895 99.9674C202.7 82.7936 205.654 88.7622 193.459 71.5885" fill="#BFD2B6"/>
<path d="M194.354 71.3462C192.857 67.0641 190.662 63.085 188.901 58.909C187.46 55.4853 186.428 51.8395 185.654 48.2088C185.037 45.3003 184.632 42.1745 185.401 39.2508C186.241 36.0443 188.568 33.7871 191.496 32.3631C194.794 30.7624 199.028 30.419 202.179 32.555C203.696 33.5851 204.931 35.1657 205.305 36.9835C205.649 38.655 205.239 40.387 204.708 41.9776C204.071 43.8763 203.201 45.6891 202.397 47.517C201.592 49.345 200.904 51.0972 200.191 52.8999C198.805 56.4044 197.434 59.9139 196.069 63.4233C190.242 78.4258 184.506 93.4635 178.36 108.335C172.048 123.62 165.315 138.759 157.602 153.392C150.338 167.178 142.205 180.62 132.417 192.779C131.264 194.214 130.08 195.632 128.881 197.026C128.527 197.435 128.543 197.925 128.881 198.339C140.131 212.034 157.986 218.669 175.093 221.148C184.642 222.532 194.344 222.618 203.959 221.992C214.349 221.32 224.693 219.694 234.753 217.018C246.079 214.003 257.05 209.63 267.252 203.848C267.571 203.666 267.834 203.172 267.677 202.803C264.682 195.627 261.369 188.578 258.071 181.534C253.251 171.243 248.314 161.002 243.287 150.807C238.239 140.571 233.105 130.371 227.748 120.292C224.071 113.379 220.429 106.29 215.947 99.8513C212.751 95.2612 209.427 90.7367 205.892 86.4042C203.145 83.0411 200.449 79.6629 197.89 76.1585C196.671 74.4921 195.467 72.8106 194.273 71.1291C193.585 70.1646 191.977 71.0887 192.67 72.0632C195.932 76.6584 199.245 81.2233 202.821 85.5811C205.74 89.131 208.552 92.7414 211.248 96.463C213.651 99.7806 215.947 103.108 218.036 106.628C220.242 110.344 222.331 114.132 224.384 117.934C229.67 127.725 234.703 137.658 239.65 147.626C244.597 157.594 249.812 168.344 254.738 178.782C258.314 186.361 261.88 193.951 265.193 201.647C265.466 202.278 265.649 202.712 265.896 203.298L266.321 202.253C248.39 212.412 228.153 218.073 207.667 219.861C189.422 221.451 170.53 220.482 153.413 213.473C144.552 209.842 136.312 204.469 130.202 197.031V198.344C140.707 186.139 149.392 172.465 157.065 158.346C165.25 143.288 172.311 127.644 178.907 111.839C185.34 96.4277 191.299 80.8294 197.338 65.2665C198.775 61.5651 200.216 57.8688 201.673 54.1724C202.427 52.2586 203.165 50.3398 203.995 48.4563C204.824 46.5728 205.684 44.7751 206.362 42.8663C207.586 39.3973 207.723 35.8171 205.249 32.863C202.776 29.909 198.613 28.788 194.759 29.4041C191.269 29.9646 187.753 31.8632 185.593 34.691C183.722 37.1401 183.069 40.2052 183.15 43.24C183.241 46.5778 184.071 49.8702 184.971 53.0666C186.175 57.3487 187.93 61.3177 189.822 65.3372C190.823 67.4731 191.795 69.6192 192.574 71.8461C192.963 72.9671 194.759 72.4824 194.364 71.3512L194.354 71.3462Z" fill="#BFD2B6"/>
<path d="M193.459 71.5936C240.13 70.1645 286.989 71.1391 333.655 69.7101C334.54 69.6848 335.481 69.6697 336.225 70.1443C337.899 71.2098 337.439 73.7296 336.776 75.5929C334.267 82.6725 331.642 89.949 326.624 95.549C321.607 101.149 313.549 104.719 306.427 102.3C302.138 100.846 298.344 97.3567 293.822 97.6446C288.193 98.0081 284.849 103.8 280.929 107.855C272.993 116.071 259.199 117.833 249.447 111.879C244.683 108.971 240.009 104.27 234.536 105.376C232.487 105.79 230.707 106.996 228.815 107.88C219.417 112.278 206.797 107.269 202.988 97.6244" fill="#BFD2B6"/>
<path d="M193.459 72.5176C205.492 72.149 217.525 71.9419 229.564 71.8106C241.612 71.6793 253.656 71.6238 265.704 71.5682C277.753 71.5127 289.796 71.4471 301.84 71.2956C307.884 71.2198 313.924 71.1239 319.968 70.9926C322.962 70.9269 325.962 70.8563 328.956 70.7755C330.479 70.7351 331.996 70.6896 333.519 70.6442C334.46 70.6139 335.749 70.4977 336.245 71.5026C336.65 72.3257 336.442 73.4013 336.23 74.2496C335.937 75.406 335.481 76.5219 335.077 77.6429C334.207 80.0516 333.306 82.4502 332.254 84.7831C330.226 89.2975 327.631 93.7058 323.858 96.988C320.413 99.9825 315.932 102.108 311.303 102.149C308.977 102.169 306.781 101.588 304.692 100.588C302.603 99.5886 300.469 98.2605 298.193 97.4375C296.043 96.6598 293.706 96.4477 291.506 97.1597C289.543 97.796 287.854 99.0331 286.372 100.442C283.281 103.391 280.985 107.102 277.505 109.652C270.651 114.677 261.233 115.899 253.317 112.793C248.972 111.087 245.639 107.688 241.471 105.668C239.432 104.684 237.217 104.083 234.941 104.391C232.371 104.739 230.287 106.274 227.955 107.274C220.793 110.339 211.941 107.814 206.848 102.124C205.603 100.735 204.582 99.124 203.889 97.3971C203.449 96.3013 201.653 96.781 202.098 97.8919C205.163 105.522 213.17 110.41 221.309 110.435C223.317 110.44 225.35 110.142 227.257 109.511C229.625 108.728 231.668 107.173 234.06 106.471C238.856 105.052 243.246 108.829 246.918 111.349C250.687 113.94 254.748 115.636 259.316 116.167C263.641 116.671 268.127 116.121 272.199 114.591C276.271 113.061 279.943 110.465 282.887 107.118C285.573 104.063 288.279 99.9269 292.452 98.8261C297.297 97.5435 301.587 101.543 305.866 103.103C310.145 104.663 315.279 104.022 319.518 102.038C329.149 97.5233 333.554 87.3534 336.943 77.9257C337.671 75.9008 338.749 73.5629 338.152 71.3663C337.864 70.3058 337.12 69.4676 336.093 69.0788C334.89 68.6243 333.488 68.8162 332.239 68.8516C326.058 69.0333 319.877 69.1747 313.696 69.2858C301.319 69.508 288.946 69.609 276.569 69.6847C264.237 69.7554 251.901 69.7958 239.569 69.8918C227.197 69.9877 214.824 70.1443 202.452 70.4472C199.458 70.5179 196.463 70.6038 193.469 70.6947C192.275 70.73 192.27 72.5832 193.469 72.5479L193.459 72.5176Z" fill="#BFD2B6"/>
<path d="M207.885 71.5936C161.213 70.1645 114.354 71.1391 67.6881 69.7101C66.8029 69.6848 65.8621 69.6697 65.1185 70.1443C63.4443 71.2098 63.9046 73.7296 64.5672 75.5929C67.076 82.6725 69.7012 89.949 74.7189 95.549C79.7365 101.149 87.7942 104.719 94.916 102.3C99.2053 100.846 102.999 97.3567 107.521 97.6446C113.151 98.0081 116.494 103.8 120.414 107.855C128.35 116.071 142.144 117.833 151.896 111.879C156.661 108.971 161.335 104.27 166.807 105.376C168.856 105.79 170.636 106.996 172.528 107.88C181.926 112.278 194.546 107.269 198.355 97.6244" fill="#BFD2B6"/>
<path d="M207.885 70.6645C195.522 70.2858 183.15 70.0737 170.783 69.9475C158.406 69.8162 146.023 69.7657 133.641 69.7051C121.309 69.6445 108.978 69.5738 96.651 69.4021C90.4648 69.3162 84.2838 69.2052 78.0977 69.0638C75.0072 68.9931 71.9166 68.9072 68.8261 68.8163C67.5717 68.781 66.2111 68.6143 65.0325 69.1446C64.0563 69.5839 63.3785 70.4676 63.1509 71.5128C62.6602 73.7599 63.7376 76.0676 64.4812 78.1329C65.3765 80.6173 66.3173 83.0815 67.3896 85.4952C69.4483 90.1207 72.1139 94.6704 75.9227 98.0789C79.4786 101.255 83.9651 103.522 88.7552 103.941C91.0921 104.143 93.4896 103.841 95.6849 103.007C98.0268 102.119 100.141 100.77 102.407 99.7301C104.506 98.7656 106.787 98.2051 109.064 98.8616C111.062 99.4372 112.711 100.791 114.152 102.245C115.725 103.83 117.101 105.593 118.578 107.259C120.055 108.925 121.643 110.4 123.469 111.657C130.682 116.626 140.561 117.772 148.699 114.5C150.814 113.652 152.731 112.501 154.602 111.208C156.615 109.819 158.593 108.335 160.803 107.264C163.014 106.194 165.234 105.795 167.51 106.532C169.787 107.269 171.886 108.804 174.248 109.557C181.957 112.016 191.076 109.102 196.215 102.937C197.49 101.407 198.492 99.7251 199.23 97.8769C199.675 96.771 197.88 96.2913 197.439 97.382C194.536 104.613 186.448 108.991 178.82 108.532C176.934 108.415 175.047 107.991 173.312 107.239C170.925 106.199 168.795 104.659 166.14 104.351C161.4 103.8 157.313 107.082 153.656 109.602C151.815 110.875 149.923 112.051 147.819 112.854C145.862 113.601 143.793 114.111 141.709 114.329C137.485 114.773 133.196 114.192 129.241 112.642C127.288 111.874 125.427 110.829 123.742 109.582C122.058 108.335 120.546 106.719 119.145 105.088C116.479 101.987 113.742 98.3213 109.64 97.0942C104.784 95.6399 100.606 98.7202 96.4284 100.679C92.2504 102.639 87.5109 102.497 83.2469 100.644C73.7376 96.5085 69.4584 86.5607 66.1706 77.4108C65.771 76.3049 65.3208 75.1991 65.0527 74.0528C64.8605 73.2247 64.6734 72.1188 65.164 71.3512C65.7659 70.4171 67.1417 70.6191 68.0927 70.6493C69.6152 70.6948 71.1326 70.7402 72.6551 70.7806C78.649 70.9422 84.6379 71.0685 90.6318 71.1695C102.675 71.3664 114.719 71.4573 126.762 71.528C138.806 71.5987 150.859 71.634 162.903 71.735C174.946 71.836 186.979 71.9875 199.018 72.2854C201.967 72.3561 204.91 72.4369 207.859 72.5278C209.053 72.5632 209.053 70.7099 207.859 70.6746L207.885 70.6645Z" fill="#BFD2B6"/>
<path d="M215.856 110.622C217.465 111.672 219.463 112.157 221.37 111.935C221.85 111.879 222.321 111.551 222.3 111.006C222.28 110.551 221.891 110.021 221.37 110.077C220.945 110.127 220.52 110.142 220.09 110.122C219.979 110.117 219.862 110.107 219.751 110.097C219.695 110.092 219.64 110.087 219.579 110.077C219.685 110.092 219.68 110.092 219.574 110.077C219.377 110.041 219.179 110.006 218.987 109.961C218.795 109.915 218.603 109.86 218.411 109.799C218.304 109.764 218.193 109.728 218.087 109.688C218.057 109.678 217.738 109.547 217.915 109.622C217.525 109.451 217.151 109.249 216.792 109.011C216.382 108.744 215.75 108.915 215.522 109.345C215.28 109.809 215.421 110.329 215.856 110.612V110.622Z" fill="#0B244A"/>
<path d="M189.857 73.5882C186.681 82.5916 183.6 91.6305 180.611 100.7C179.761 103.275 178.922 105.85 178.087 108.431C177.718 109.567 179.513 110.057 179.878 108.925C182.816 99.8412 185.841 90.7872 188.967 81.7635C189.852 79.2034 190.748 76.6432 191.648 74.0881C192.048 72.962 190.252 72.4773 189.857 73.5932V73.5882Z" fill="#0B244A"/>
<path d="M199.741 57.6868C197.612 48.5823 196.079 39.3415 195.153 30.0351C198.067 29.7422 201.046 30.0856 203.818 31.0349C204.824 31.3783 205.831 31.8176 206.605 32.5498C207.991 33.8526 208.441 35.9078 208.234 37.7963C208.026 39.6849 207.242 41.4523 206.468 43.1843C204.314 48.0067 202.164 52.8341 200.009 57.6565" fill="#0B244A"/>
<path d="M200.636 57.4394C198.532 48.4107 197.005 39.2557 196.079 30.0351L195.148 30.9642C197.612 30.7319 200.075 30.9238 202.462 31.5853C204.556 32.1711 206.534 33.0245 207.141 35.2917C207.748 37.559 206.969 39.6849 206.119 41.6745C205.077 44.1033 203.97 46.507 202.892 48.9207C201.663 51.6778 200.434 54.4349 199.2 57.192C198.992 57.6515 199.068 58.1817 199.534 58.4594C199.928 58.6967 200.601 58.5856 200.803 58.1261C203.175 52.8139 205.649 47.5371 207.905 42.1744C208.871 39.8768 209.584 37.3772 208.952 34.8878C208.32 32.3983 206.478 30.9895 204.157 30.1765C201.284 29.1716 198.173 28.8232 195.148 29.106C194.688 29.1514 194.167 29.4948 194.218 30.0351C195.158 39.4223 196.696 48.7439 198.841 57.9342C199.114 59.0957 200.904 58.6058 200.631 57.4394H200.636Z" fill="#0B244A"/>
<path d="M197.854 30.8935C196.924 28.6969 195.366 26.5054 193.034 25.9853C190.915 25.5106 188.785 26.5407 186.822 27.4699C183.074 29.2423 179.2 30.7521 175.239 31.9792C175.052 32.0398 174.845 32.1105 174.754 32.2872C174.648 32.4993 174.764 32.7518 174.875 32.9588C175.447 34.0091 176.033 35.0746 176.903 35.8977C177.773 36.7157 178.992 37.2611 180.166 37.0389C181.663 36.7511 183.13 35.2968 184.465 36.0239C185.715 36.7056 185.609 38.7962 186.893 39.4173C187.844 39.8768 188.952 39.2254 189.721 38.5033C190.495 37.7812 191.284 36.9127 192.336 36.847C193.6 36.7713 194.567 37.8771 195.538 38.6851C196.509 39.4981 198.173 39.9828 198.891 38.9376" fill="#0B244A"/>
<path d="M198.659 30.424C197.88 28.6213 196.736 26.864 195.032 25.8137C193.095 24.6169 190.818 24.8189 188.77 25.6016C186.539 26.46 184.42 27.5962 182.204 28.5001C179.989 29.404 177.662 30.2472 175.341 30.9744C174.85 31.1309 174.359 31.2622 174.046 31.7015C173.702 32.1762 173.762 32.7468 174 33.2568C174.435 34.2011 175.027 35.1252 175.684 35.9281C177.075 37.6146 179.215 38.4933 181.314 37.6348C182.012 37.3521 182.953 36.6451 183.742 36.736C184.425 36.8117 184.678 37.751 184.905 38.2711C185.209 38.978 185.578 39.6749 186.256 40.1041C187.182 40.6899 188.299 40.5232 189.22 40.0233C190.201 39.4931 190.823 38.4983 191.79 37.9681C192.756 37.4379 193.6 38.2004 194.309 38.8265C195.108 39.5284 195.922 40.1798 196.994 40.3818C198.067 40.5838 199.023 40.2859 199.701 39.4022C200.009 39.0033 199.756 38.367 199.367 38.1347C198.891 37.852 198.401 38.0742 198.097 38.468C197.794 38.8619 196.924 38.4579 196.625 38.2963C195.902 37.8974 195.34 37.2359 194.678 36.7461C194.015 36.2563 193.201 35.8776 192.341 35.918C191.425 35.9634 190.657 36.433 189.974 37.0036C189.331 37.5439 188.765 38.3014 187.945 38.569C187.242 38.7962 186.949 38.3064 186.681 37.7459C186.059 36.433 185.512 35.004 183.818 34.8979C182.123 34.7919 180.732 36.5138 179.048 36.0846C178.178 35.8624 177.475 35.2464 176.934 34.5495C176.656 34.191 176.418 33.8022 176.19 33.4134C176.084 33.2316 175.978 33.0447 175.877 32.8579C175.841 32.7872 175.786 32.6256 175.725 32.5802C175.634 32.3529 175.533 32.4539 175.426 32.8882L175.487 32.873C175.629 32.9084 176.028 32.7064 176.17 32.6559C176.438 32.5701 176.701 32.4842 176.964 32.3984C177.455 32.2368 177.945 32.0702 178.436 31.8985C179.453 31.545 180.464 31.1713 181.466 30.7775C183.469 29.9948 185.447 29.1363 187.389 28.2173C189.331 27.2983 191.496 26.2126 193.55 27.1215C195.285 27.8891 196.332 29.6968 197.045 31.3582C197.242 31.8227 197.92 31.9187 198.315 31.6914C198.795 31.4188 198.846 30.8784 198.648 30.424H198.659Z" fill="#0B244A"/>
<path d="M194.951 49.5368C195.543 47.7543 196.175 45.896 197.505 44.573C197.829 44.2498 198.203 43.957 198.633 43.8004C199.594 43.452 200.727 43.8459 201.39 44.6185C202.053 45.3911 202.28 46.4767 202.159 47.4867C202.037 48.4966 201.597 49.451 201.061 50.3144C199.979 52.0465 198.471 53.5108 196.706 54.541" fill="#BFD2B6"/>
<path d="M195.846 49.7842C196.362 48.234 196.888 46.5676 198.041 45.3557C198.507 44.8659 199.033 44.4872 199.736 44.6387C200.439 44.7902 200.894 45.3305 201.112 45.9667C201.648 47.5422 200.768 49.1732 199.883 50.4306C198.932 51.7839 197.667 52.8999 196.246 53.7381C195.219 54.3441 196.15 55.9498 197.182 55.3388C198.608 54.4955 199.893 53.4099 200.92 52.1121C202.007 50.7437 202.933 49.1732 203.105 47.4008C203.261 45.7799 202.574 43.9974 201.092 43.1945C199.473 42.3159 197.789 42.8562 196.61 44.1691C195.31 45.6183 194.658 47.4715 194.056 49.2894C193.681 50.4256 195.472 50.9103 195.846 49.7842Z" fill="#BFD2B6"/>
<path d="M199.523 56.9091C200.039 68.5485 200.56 80.1828 201.076 91.8222C201.314 97.1798 201.749 103.032 205.416 106.956C207.824 109.531 211.481 111.086 212.831 114.338C214.637 118.691 211.36 123.554 211.81 128.24C212.174 132.032 215.28 135.395 219.038 136.067C221.552 136.516 224.374 135.915 226.519 137.299C229.286 139.082 229.265 142.753 230.257 145.545C232.852 152.842 241.587 154.973 248.4 152.862C256.635 150.312 262.169 141.334 264.622 133.552C266.124 128.785 265.805 123.175 263.069 118.903C260.231 114.475 254.288 112.859 249.7 110.698C242.619 107.365 235.72 101.704 234.561 93.4936C234.04 89.8074 234.718 85.7121 232.624 82.6268C229.66 78.2639 223.241 78.6124 218.33 76.6683C213.408 74.7191 209.943 70.3411 206.721 66.1499C205.978 65.1854 200.181 57.9241 199.513 56.9041" fill="#0B244A"/>
<path d="M198.593 56.9093C199.114 68.6143 199.62 80.3142 200.156 92.0193C200.358 96.5134 200.672 101.321 203.019 105.29C204.152 107.209 205.75 108.638 207.495 109.986C209.099 111.228 210.859 112.48 211.8 114.328C212.852 116.384 212.417 118.777 211.926 120.923C211.395 123.251 210.682 125.63 210.859 128.048C211.172 132.32 214.526 136.198 218.785 136.966C219.943 137.178 221.122 137.188 222.3 137.234C223.479 137.279 224.673 137.35 225.704 137.9C227.5 138.86 228.092 140.854 228.537 142.702C228.982 144.55 229.458 146.535 230.525 148.242C231.521 149.837 232.887 151.176 234.475 152.18C237.611 154.175 241.547 154.862 245.214 154.448C249.356 153.983 253.064 152.125 256.129 149.327C259.306 146.434 261.744 142.728 263.544 138.849C265.441 134.759 266.817 130.391 266.342 125.837C266.094 123.453 265.426 121.125 264.237 119.04C263.16 117.151 261.612 115.662 259.806 114.47C256.266 112.127 252.098 110.981 248.365 108.996C244.632 107.012 241.02 104.355 238.542 100.846C237.308 99.1039 236.362 97.18 235.831 95.1096C235.244 92.8222 235.315 90.4741 235.138 88.1412C234.961 85.8082 234.49 83.4551 232.988 81.5666C231.754 80.0163 230.009 79.0468 228.168 78.3802C224.243 76.9613 219.948 76.8502 216.316 74.6233C212.563 72.3207 209.888 68.7052 207.222 65.2916C205.497 63.0849 203.742 60.8985 202.017 58.6867C201.446 57.9545 200.839 57.2223 200.323 56.4396C199.67 55.4499 198.062 56.374 198.719 57.3738C200.151 59.5452 201.911 61.5448 203.524 63.5798C204.283 64.5392 205.042 65.4936 205.796 66.453C205.871 66.549 206.134 66.8924 205.927 66.6197C206.301 67.1095 206.681 67.5993 207.06 68.0841C207.768 68.993 208.492 69.8868 209.245 70.7604C210.763 72.5176 212.417 74.1537 214.313 75.507C216.109 76.7896 218.107 77.6783 220.226 78.259C222.154 78.7893 224.126 79.1225 226.053 79.6528C227.819 80.1375 229.624 80.7889 230.965 82.0816C232.573 83.6268 233.099 85.7779 233.271 87.9291C233.459 90.2469 233.388 92.5747 233.873 94.8622C234.758 99.0483 237.207 102.73 240.317 105.608C243.428 108.486 247.131 110.622 251.015 112.283C254.9 113.945 259.022 115.303 261.683 118.545C264.516 121.994 265.097 127.104 264.232 131.351C263.367 135.597 261.486 139.38 259.22 142.808C256.954 146.237 254.025 149.287 250.322 151.1C247.065 152.69 243.195 153.12 239.665 152.307C236.134 151.494 233.115 149.479 231.547 146.227C229.882 142.783 230.373 137.951 226.291 136.118C224.091 135.128 221.693 135.567 219.387 135.183C217.384 134.85 215.583 133.719 214.349 132.118C213.115 130.518 212.579 128.483 212.735 126.417C212.912 124.1 213.722 121.888 214.091 119.6C214.46 117.313 214.399 115.02 213.201 112.995C212.138 111.193 210.444 109.92 208.815 108.663C207.187 107.405 205.593 106.032 204.531 104.174C203.469 102.315 202.872 100.099 202.528 97.9374C202.164 95.66 202.078 93.3524 201.977 91.0548C201.85 88.2068 201.724 85.3639 201.597 82.5159C201.344 76.7795 201.086 71.0431 200.834 65.3118L200.459 56.8992C200.409 55.7125 198.547 55.7024 198.603 56.8992L198.593 56.9093Z" fill="#0B244A"/>
<path d="M198.684 58.2878C198.669 58.3332 198.593 58.4493 198.664 58.3534L198.583 58.4493L198.618 58.4089L198.659 58.3686L198.557 58.4392C198.557 58.4392 198.643 58.3837 198.653 58.3736C198.679 58.3585 198.739 58.3433 198.76 58.3181C198.734 58.3484 198.583 58.3837 198.704 58.3433C198.78 58.3181 198.861 58.2928 198.942 58.2726C199.023 58.2524 199.099 58.2373 199.18 58.2221C199.225 58.212 199.271 58.207 199.321 58.1969C199.478 58.1716 199.291 58.1868 199.286 58.1969C199.306 58.1464 199.832 58.1464 199.893 58.1464C200.085 58.1413 200.272 58.1464 200.464 58.1565C200.51 58.1565 200.56 58.1666 200.606 58.1666C200.737 58.1716 200.439 58.1363 200.571 58.1615C200.662 58.1767 200.753 58.1918 200.844 58.212C200.935 58.2322 201.026 58.2575 201.112 58.2827C201.157 58.2979 201.198 58.313 201.243 58.3282C201.269 58.3383 201.405 58.3989 201.294 58.3433C201.183 58.2878 201.319 58.3585 201.339 58.3686C201.38 58.3888 201.42 58.409 201.461 58.4342C201.552 58.4847 201.638 58.5453 201.724 58.6059C202.123 58.8887 202.776 58.6917 202.993 58.2726C203.246 57.7979 203.084 57.3031 202.66 57.0052C201.805 56.4043 200.697 56.2326 199.67 56.3033C199.185 56.3386 198.669 56.3841 198.208 56.5456C197.581 56.7678 197.116 57.1465 196.883 57.7777C196.716 58.2322 197.07 58.8129 197.531 58.919C198.057 59.0402 198.492 58.7574 198.674 58.2726L198.684 58.2878Z" fill="#C5E2E0"/>
<path d="M194.496 23.1021C190.596 20.0572 186.817 16.7396 183.944 12.71C180.915 8.46326 177.703 4.26702 173.681 0.898926C172.72 5.67587 174.83 10.5336 177.399 14.6743C184.218 25.6572 187.404 28.6617 198.593 34.9384C203.58 37.7359 215.806 45.6133 221.016 47.9664C222.224 48.5118 223.448 49.0319 224.683 49.5116C225.406 49.7944 227.965 50.2388 228.38 50.8245C219.756 38.66 205.973 32.0702 194.491 23.1021H194.496Z" fill="#C5E2E0"/>
<path d="M195.153 22.4455C192.037 20.0065 189.013 17.4211 186.443 14.4065C185.168 12.9118 184.076 11.2807 182.902 9.70526C181.729 8.12978 180.49 6.54925 179.185 5.05456C177.687 3.33769 176.079 1.71676 174.334 0.247318C173.848 -0.161701 172.923 -0.0859567 172.781 0.656338C171.471 7.49857 175.528 13.7197 179.159 19.148C181.694 22.9353 184.531 26.4902 188.122 29.3331C191.957 32.3629 196.276 34.61 200.464 37.0995C204.865 39.7152 209.205 42.4369 213.626 45.0223C215.74 46.2595 217.869 47.4966 220.08 48.552C221.562 49.2589 223.115 50.0012 224.688 50.491C225.254 50.6678 225.836 50.789 226.402 50.9506C226.726 51.0415 227.055 51.1273 227.364 51.2586C227.434 51.2889 227.51 51.3242 227.576 51.3596C227.713 51.4404 227.596 51.3242 227.723 51.4808C228.385 52.2837 229.791 51.2182 229.179 50.3598C222.412 40.8614 212.488 34.5948 203.009 28.1111C200.343 26.2882 197.692 24.43 195.143 22.4455C194.744 22.1374 194.218 22.0667 193.828 22.4455C193.504 22.7636 193.433 23.4503 193.828 23.7584C202.791 30.747 212.973 36.1905 221.238 44.0679C223.56 46.2847 225.709 48.6833 227.571 51.299L229.028 50.178C228.4 49.4205 227.05 49.2084 226.155 48.9762C224.829 48.6328 223.585 48.1076 222.331 47.5572C220.373 46.6988 218.502 45.6889 216.645 44.6385C212.159 42.0935 207.778 39.3617 203.368 36.6955C199.316 34.2464 195.082 32.07 191.203 29.3483C187.657 26.8588 184.698 23.7937 182.179 20.2842C180.303 17.6685 178.482 14.9316 176.954 12.0937C175.174 8.78118 173.838 4.95861 174.567 1.1613L173.014 1.57032C176.074 4.15068 178.689 7.1956 181.087 10.387C182.27 11.9675 183.373 13.6086 184.622 15.1386C185.872 16.6687 187.222 18.0674 188.654 19.4005C190.308 20.9407 192.053 22.3798 193.828 23.7685C194.228 24.0815 194.754 24.1472 195.143 23.7685C195.467 23.4503 195.538 22.7686 195.143 22.4556L195.153 22.4455Z" fill="#C5E2E0"/>
<path d="M193.616 24.2736C197.94 22.6375 201.36 18.411 205.988 18.3706C207.156 18.3605 208.37 18.6584 209.23 19.4462C209.837 20.0016 210.221 20.7641 210.49 21.5418C211.39 24.1777 211.046 27.061 210.495 29.7928C210.115 31.6713 209.645 33.5296 209.169 35.3878C206.696 34.9283 204.496 33.5801 202.356 32.252C200.687 31.2168 199.018 30.1867 197.354 29.1515C195.725 28.1416 193.929 26.8742 193.732 24.9755" fill="#C5E2E0"/>
<path d="M193.863 25.1674C195.674 24.4655 197.288 23.4253 198.896 22.3547C200.505 21.2842 201.992 20.249 203.757 19.6784C205.426 19.1432 207.788 18.9412 208.962 20.5318C210.267 22.3042 210.227 24.9452 210.009 27.0256C209.716 29.7676 208.952 32.4742 208.274 35.1404L209.417 34.494C206.246 33.8679 203.54 31.8935 200.844 30.2271C199.503 29.3939 198.117 28.6062 196.822 27.7023C195.902 27.061 194.814 26.1622 194.658 24.9755C194.592 24.4756 194.278 24.0565 193.727 24.0464C193.277 24.0464 192.735 24.4756 192.796 24.9755C193.231 28.2981 196.731 29.8635 199.276 31.439C202.295 33.3074 205.366 35.5797 208.916 36.2816C209.402 36.3775 209.928 36.1503 210.06 35.6352C210.722 33.0246 211.42 30.3988 211.774 27.7225C212.108 25.2229 212.088 22.5214 210.93 20.2187C209.857 18.0828 207.546 17.2496 205.254 17.4869C203.135 17.7091 201.233 18.6534 199.453 19.7744C197.465 21.0267 195.573 22.5264 193.363 23.3798C192.26 23.804 192.741 25.5966 193.858 25.1674H193.863Z" fill="#C5E2E0"/>
<path d="M195.189 21.1629C194.572 22.7838 196.656 24.0462 197.687 24.8946C199.063 26.0257 200.474 27.1265 201.906 28.1869C204.769 30.3128 207.748 32.2822 210.818 34.095C211.258 34.3576 211.82 34.1859 212.088 33.7617C212.25 33.5042 212.412 33.2517 212.568 32.9942C213.206 31.9842 211.602 31.0501 210.965 32.06C210.803 32.3175 210.641 32.57 210.484 32.8275L211.754 32.4942C209.018 30.8784 206.352 29.1362 203.777 27.2729C202.523 26.364 201.289 25.4298 200.08 24.4603C199.443 23.9503 198.815 23.4352 198.193 22.9151C197.95 22.7081 196.848 21.9961 196.974 21.6578C197.399 20.5418 195.608 20.0621 195.184 21.1629H195.189Z" fill="#0B244A"/>
<path d="M212.417 33.1204C213.383 31.8277 214.845 32.7518 215.937 33.2719C217.308 33.9233 218.876 34.2465 220.302 33.5698C220.884 33.2972 221.39 32.8477 221.729 32.2973C222.143 31.6257 222.159 30.8784 222.174 30.1108C222.184 29.4443 222.391 28.8131 223.064 28.5404C223.615 28.3132 224.222 28.5303 224.617 28.9343C225.462 29.7826 226.772 28.4697 225.932 27.6214C224.728 26.4095 222.801 26.263 221.476 27.374C220.833 27.9193 220.444 28.6818 220.353 29.515C220.267 30.2775 220.505 31.1662 219.817 31.7065C218.395 32.8275 216.61 31.4237 215.269 30.8935C213.595 30.2371 211.881 30.7471 210.813 32.1812C210.51 32.5852 210.748 33.2113 211.147 33.4486C211.618 33.7314 212.118 33.5143 212.417 33.1154V33.1204Z" fill="#0B244A"/>
<path d="M211.046 34.7565C211.658 34.7767 212.037 35.6098 212.29 36.0643C212.705 36.8116 213.13 37.559 213.757 38.1599C214.384 38.7608 215.138 39.185 216.003 39.2759C216.868 39.3668 217.682 39.0739 218.486 38.781C219.169 38.5336 219.867 38.276 220.54 38.6901C221.122 39.0537 221.531 39.6798 221.936 40.2201C222.912 41.5229 224.536 43.1035 226.266 42.0178C227.278 41.3866 226.347 39.7808 225.33 40.4171C224.738 40.7908 224.035 39.9273 223.712 39.5132C223.266 38.9426 222.867 38.3316 222.361 37.8115C221.122 36.5339 219.619 36.4026 217.996 36.9934C217.323 37.2358 216.559 37.6196 215.841 37.3621C215.123 37.1045 214.647 36.443 214.283 35.832C213.499 34.5191 212.806 32.9739 211.051 32.9083C209.857 32.8628 209.857 34.7161 211.051 34.7615L211.046 34.7565Z" fill="#0B244A"/>
<path d="M140.864 210.327C151.537 215.558 162.903 219.411 174.602 221.547C186.205 223.668 198.107 224.117 209.807 222.527C216.357 221.633 222.811 220.083 229.038 217.856C229.468 217.699 229.665 217.401 229.721 216.962C230.586 210.105 231.445 203.247 232.31 196.385L230.489 196.632C231.916 201.066 233.428 205.53 235.295 209.802C236.635 212.872 238.83 216.21 242.523 216.391C243.716 216.447 243.711 214.594 242.523 214.538C239.447 214.392 237.733 210.918 236.721 208.448C235.072 204.414 233.615 200.293 232.28 196.142C231.941 195.087 230.586 195.385 230.459 196.39C229.594 203.247 228.734 210.105 227.869 216.967L228.552 216.073C217.627 219.982 206.043 221.759 194.45 221.638C182.776 221.517 171.163 219.522 160.035 216.023C153.783 214.058 147.693 211.614 141.81 208.731C140.743 208.206 139.802 209.807 140.874 210.332L140.864 210.327Z" fill="#0B244A"/>
</svg>
