<svg width="422" height="533" viewBox="0 0 422 533" fill="none" xmlns="http://www.w3.org/2000/svg">
<g clip-path="url(#clip0_4_786)">
<path d="M26.2636 122.637C15.7504 143.602 4.75868 165.694 5.12177 189.643C5.51787 203.188 10.6176 217.183 19.9205 226.955C25.5759 232.915 32.9643 237.177 41.1173 238.204C50.4532 239.143 60.0641 234.48 66.3081 227.306C67.5294 225.933 68.6242 224.439 69.5815 222.874L69.7905 222.544L69.8895 222.341L69.9886 222.154C70.7202 220.715 69.4879 219.26 68.0906 218.859C66.2531 218.304 65.6425 219.573 64.8283 220.951C63.7885 222.561 62.3196 225.208 61.3569 226.922C42.9438 261.098 40.8918 304.26 58.1166 339.271C62.8093 348.751 71.0503 361.912 82.5867 362.379C87.4224 362.78 92.1041 356.331 91.6365 351.822C91.6145 351.739 91.5925 351.618 91.587 351.574C91.587 351.844 91.8345 352.217 92.0271 352.321C92.1536 352.431 92.3572 352.459 92.5112 352.437C92.5387 352.409 92.5772 352.448 92.5992 352.415C92.6598 352.376 92.5057 352.459 92.4177 352.508L92.1261 352.662C91.1909 353.079 90.1071 353.766 89.2379 354.304C88.7538 354.683 88.0661 355.15 87.5985 355.507C87.0704 355.974 86.0361 356.826 85.552 357.353C82.8398 360.022 80.6502 363.241 79.0438 366.701C75.7925 373.414 74.9893 381.01 75.9245 388.343C79.8195 416.51 106.804 448.203 128.397 465.939C170.493 500.576 226.646 518.658 280.923 510.705C336.327 502.834 387.847 470.778 420.047 424.919C420.388 424.43 421.07 424.309 421.554 424.655C421.994 424.963 422.132 425.54 421.901 426.007C403.02 464.857 369.561 495.737 330.507 514.132C278.436 538.987 217.635 539.273 165.267 515.077C123.792 496.171 88.7923 463.176 68.3271 422.442C56.7247 399.153 52.4281 372.035 69.686 350.251C70.4012 349.295 71.7545 347.867 72.5632 346.966C73.1408 346.406 74.4007 345.197 74.9563 344.676C77.5034 342.456 80.2706 340.512 83.2524 338.93C83.6815 338.716 85.4585 337.887 85.8325 337.711C92.4397 334.607 100.917 336.909 104.933 343.077C107.414 346.653 107.91 351.52 107.227 355.639C105.439 365.9 97.8091 374.93 87.3784 377.16C83.9951 377.846 80.4742 377.533 77.1239 376.858C64.1901 373.952 54.9038 363.087 48.8853 352.162C39.8905 335.398 35.0163 316.465 34.1416 297.542C32.8267 268.788 40.4736 239.594 56.4937 215.612C57.4069 214.195 58.3916 212.811 59.7615 211.724C69.3944 204.034 83.753 214.805 78.1966 226.109C77.8005 226.905 77.1844 227.823 76.6617 228.559C74.7858 231.316 72.4422 233.837 69.9666 236.067C60.4877 244.328 47.4989 248.552 35.1868 244.762C12.1305 237.748 -0.247582 212.482 -1.96521e-05 189.676C0.484102 164.986 12.6642 142.663 24.3546 121.631C24.6407 121.11 25.2953 120.923 25.818 121.214C26.3241 121.494 26.5166 122.126 26.2581 122.637H26.2636Z" fill="#C5E2E0"/>
<path d="M141.562 216.403C148.62 225.005 158.506 230.734 168.205 236.21C204.046 256.429 240.839 275.846 280.62 286.414C284.421 266.113 288.938 241.489 290.148 220.874C290.225 219.589 288.272 222.297 287.607 221.193C286.787 219.847 285.142 219.287 283.618 218.87C272.159 215.706 260.155 214.53 248.299 215.415" fill="#0B244A"/>
<path d="M140.846 217.117C146.98 224.549 155.167 229.872 163.424 234.65C172.353 239.813 181.403 244.795 190.485 249.678C199.662 254.611 208.932 259.384 218.333 263.877C227.752 268.376 237.302 272.589 247.023 276.39C256.733 280.185 266.608 283.563 276.648 286.381C277.88 286.727 279.113 287.062 280.345 287.392C280.84 287.523 281.484 287.227 281.588 286.689C284.377 271.781 287.112 256.857 289.081 241.818C289.571 238.094 290.005 234.365 290.374 230.63C290.556 228.779 290.721 226.927 290.864 225.071C290.93 224.247 290.985 223.418 291.04 222.594C291.084 221.913 291.287 221.028 291.084 220.358C290.666 218.979 289.318 219.655 288.531 220.166C288.404 220.248 288.113 220.347 288.019 220.468C288.019 220.468 287.97 220.397 288.047 220.468C287.992 220.419 288.509 220.611 288.465 220.699C288.531 220.567 287.816 219.864 287.706 219.765C287.365 219.441 286.969 219.161 286.562 218.93C285.076 218.101 283.316 217.749 281.682 217.332C279.668 216.821 277.644 216.376 275.603 215.991C266.608 214.289 257.41 213.756 248.283 214.42C246.996 214.514 246.985 216.53 248.283 216.436C256.188 215.86 264.165 216.162 271.999 217.403C275.883 218.018 279.756 218.837 283.541 219.913C284.229 220.111 284.911 220.32 285.538 220.671C285.835 220.836 286.11 221.023 286.352 221.264C286.595 221.506 286.754 221.841 287.007 222.083C287.854 222.885 288.944 222.325 289.747 221.786C289.851 221.715 290.11 221.605 290.192 221.501L290.099 221.534C290.363 221.473 290.209 221.341 289.648 221.149C289.026 220.71 289.142 220.633 289.114 221.133C289.065 222.033 288.999 222.934 288.933 223.835C288.806 225.593 288.658 227.35 288.498 229.108C288.162 232.739 287.75 236.364 287.293 239.984C286.352 247.437 285.197 254.864 283.943 262.268C282.595 270.249 281.121 278.208 279.63 286.161L280.873 285.458C270.883 282.8 261.046 279.581 251.375 275.928C241.703 272.276 232.18 268.178 222.806 263.789C213.371 259.373 204.074 254.655 194.875 249.766C185.677 244.878 176.704 239.896 167.71 234.804C159.474 230.141 151.145 225.258 144.576 218.337C143.773 217.491 142.997 216.612 142.255 215.711C141.43 214.712 140.005 216.145 140.824 217.139L140.846 217.117Z" fill="#0B244A"/>
<path d="M201.136 197.624C190.898 208.84 176.044 212.526 162.5 218.112C137.969 228.229 106.529 242.615 113.125 274.341C119.644 305.71 149.181 338.161 167.484 364.472C168.892 366.498 170.367 368.706 170.317 371.173C170.224 376.253 160.019 381.642 155.1 382.96C168.645 382.433 180.83 381.532 189.946 380.082C180.72 369.036 179.934 353.53 177.838 339.304C174.608 317.415 160.508 277.373 148.669 268.634C166.125 259.846 206.83 256.687 223.18 245.987C228.687 242.384 219.148 246.053 223.18 240.857C233.803 227.186 230.464 201.595 224.066 185.512" fill="#165C7E"/>
<path d="M200.421 196.91C193.962 203.929 185.375 208.142 176.622 211.586C168.76 214.679 160.849 217.584 153.12 221.006C140.087 226.774 126.235 233.876 117.768 245.768C113.692 251.502 111.37 258.28 111.232 265.322C111.062 273.847 113.84 282.371 117.091 290.155C124.683 308.33 136.522 324.468 148.268 340.15C153.912 347.686 159.661 355.156 165.107 362.835C166.45 364.724 168.051 366.658 168.87 368.844C169.553 370.678 169.377 372.216 168.254 373.782C166.114 376.748 162.5 378.764 159.259 380.296C157.835 380.972 156.36 381.565 154.836 381.982C153.758 382.279 153.945 384.009 155.106 383.96C166.829 383.498 178.619 382.872 190.221 381.049C191.046 380.917 191.09 379.879 190.667 379.362C184.577 371.997 182.266 362.489 180.803 353.261C179.516 345.137 178.723 336.98 176.869 328.955C175.048 321.073 172.721 313.307 170.031 305.677C167.369 298.13 164.359 290.665 160.69 283.547C159.006 280.284 157.18 277.071 155.04 274.077C153.362 271.732 151.503 269.485 149.181 267.75V269.491C153.015 267.574 157.13 266.245 161.245 265.058C166.252 263.614 171.33 262.422 176.407 261.268C186.959 258.873 197.615 256.775 207.963 253.584C212.32 252.238 216.666 250.7 220.71 248.585C222.278 247.767 224.093 246.866 225.359 245.603C226.316 244.647 225.958 243.422 224.643 243.137C224.231 243.049 223.813 243.016 223.4 242.917C223.301 242.895 223.213 242.857 223.12 242.829C223.191 242.851 223.158 242.763 223.164 242.857C223.158 242.774 223.07 242.664 223.158 242.895C223.175 242.939 223.158 242.928 223.158 242.928C223.488 242.324 224 241.45 224.5 240.764C225.232 239.759 225.892 238.704 226.475 237.605C228.979 232.926 230.211 227.68 230.744 222.429C231.889 211.18 229.991 199.453 226.354 188.791C225.947 187.594 225.507 186.402 225.04 185.227C224.572 184.051 222.613 184.551 223.092 185.765C227.136 195.981 229.331 207.225 228.995 218.222C228.83 223.571 228.01 228.987 225.969 233.964C225.034 236.243 223.791 238.363 222.305 240.335C221.497 241.412 220.49 243.115 221.728 244.279C222.283 244.801 223.527 245.169 224.302 245.12C224.517 245.103 224.33 245.235 224.291 245.103C224.247 244.949 224.022 244.883 223.956 244.642C223.917 244.488 224 244.285 223.983 244.147C223.978 244.081 224.093 244.043 223.994 244.103C223.879 244.169 223.758 244.329 223.648 244.416C222.96 244.982 222.157 245.438 221.392 245.889C217.679 248.075 213.608 249.624 209.52 250.964C199.442 254.27 188.994 256.38 178.652 258.692C169.267 260.79 159.634 262.773 150.749 266.552C149.869 266.926 148.999 267.327 148.147 267.75C147.399 268.123 147.591 269.073 148.147 269.491C150.072 270.924 151.651 272.852 153.054 274.78C154.963 277.406 156.619 280.213 158.148 283.074C161.845 289.984 164.843 297.268 167.501 304.628C170.268 312.29 172.661 320.101 174.559 328.027C176.424 335.805 177.343 343.67 178.498 351.569C180.016 361.928 182.382 372.518 189.215 380.779L189.66 379.093C178.239 380.895 166.62 381.483 155.078 381.933L155.348 383.91C158.841 382.955 162.247 381.23 165.223 379.181C167.798 377.407 170.977 374.864 171.286 371.502C171.506 369.058 170.224 366.74 168.909 364.785C167.688 362.961 166.389 361.176 165.107 359.396C162.357 355.584 159.546 351.822 156.718 348.065C144.791 332.202 132.446 316.382 123.291 298.701C119.138 290.671 115.59 282.135 113.906 273.22C112.525 265.91 113.218 258.308 116.569 251.612C123.082 238.589 136.913 230.767 149.599 224.796C156.833 221.391 164.255 218.403 171.737 215.585C180.484 212.295 189.352 208.878 196.757 203.029C198.572 201.595 200.261 200.024 201.824 198.321C202.704 197.366 201.279 195.937 200.393 196.893L200.421 196.91Z" fill="#165C7E"/>
<path d="M176.943 385.454L174.504 387.89L225.495 438.8L227.934 436.365L176.943 385.454Z" fill="#0B244A" stroke="#2F292B" stroke-width="1.84" stroke-miterlimit="10"/>
<path d="M189.325 380.95H165.889C164.6 380.95 163.556 381.992 163.556 383.279V385.553C163.556 386.839 164.6 387.882 165.889 387.882H189.325C190.613 387.882 191.657 386.839 191.657 385.553V383.279C191.657 381.992 190.613 380.95 189.325 380.95Z" fill="#0B244A"/>
<path d="M189.325 386.876H178.635C174.465 386.876 170.29 386.898 166.12 386.876C165.284 386.876 164.612 386.437 164.568 385.531C164.541 384.987 164.568 384.438 164.568 383.888C164.568 383.339 164.519 382.839 164.893 382.411C165.311 381.933 165.856 381.96 166.422 381.96H168.485C173.519 381.96 178.558 381.96 183.592 381.96H188.835C189.413 381.96 189.985 381.96 190.381 382.477C190.705 382.911 190.645 383.443 190.645 383.954C190.645 384.465 190.672 385.02 190.645 385.547C190.606 386.294 190.084 386.849 189.325 386.876C188.032 386.931 188.021 388.947 189.325 388.892C191.432 388.81 192.664 387.178 192.664 385.174C192.664 383.625 192.851 381.938 191.553 380.801C190.254 379.664 188.329 379.944 186.722 379.944C181.32 379.944 175.918 379.944 170.515 379.944C168.997 379.944 167.473 379.906 165.955 379.944C164.2 379.988 162.736 381.213 162.566 382.998C162.511 383.581 162.549 384.174 162.549 384.756C162.549 385.426 162.522 386.091 162.769 386.734C163.298 388.123 164.607 388.881 166.054 388.898C166.637 388.898 167.226 388.898 167.809 388.898H175.153C179.785 388.898 184.428 388.98 189.066 388.898C189.154 388.898 189.242 388.898 189.33 388.898C190.628 388.898 190.634 386.882 189.33 386.882L189.325 386.876Z" fill="#0B244A"/>
<path d="M218.339 347.532C218.339 369.107 218.339 390.683 218.339 412.253C218.339 433.719 218.339 455.179 218.339 476.644C218.339 488.751 218.339 500.862 218.339 512.968C218.339 514.264 220.358 514.27 220.358 512.968C220.358 491.393 220.358 469.817 220.358 448.247C220.358 426.677 220.358 405.321 220.358 383.855V347.532C220.358 346.236 218.339 346.23 218.339 347.532Z" fill="#165C7E"/>
<path d="M196.933 350.619C199.722 361.005 202.506 371.392 205.295 381.779C208.084 392.166 210.868 402.553 213.657 412.939C216.446 423.326 219.23 433.713 222.019 444.1L230.425 475.414C233.215 485.801 235.998 496.188 238.787 506.574L239.822 510.43C240.157 511.683 242.105 511.15 241.769 509.892C238.98 499.505 236.196 489.118 233.407 478.732C230.618 468.345 227.834 457.958 225.045 447.571C222.256 437.184 219.472 426.798 216.683 416.411C213.894 406.024 211.083 395.538 208.277 385.097C205.488 374.71 202.704 364.323 199.915 353.936L198.88 350.08C198.545 348.828 196.597 349.361 196.933 350.619Z" fill="#165C7E"/>
<path d="M177.056 359.122C182.453 368.459 187.856 377.797 193.253 387.135C198.627 396.428 204.002 405.728 209.377 415.021C214.752 424.315 220.176 433.697 225.573 443.034C230.948 452.328 236.323 461.627 241.698 470.921C247.095 480.259 252.497 489.596 257.894 498.934L259.902 502.405C260.551 503.526 262.295 502.515 261.646 501.389C256.249 492.052 250.846 482.714 245.45 473.376C240.053 464.039 234.7 454.783 229.325 445.49C223.928 436.152 218.526 426.814 213.129 417.477C207.754 408.183 202.379 398.884 197.004 389.59C191.608 380.252 186.205 370.915 180.808 361.577L178.8 358.105C178.151 356.985 176.407 357.996 177.056 359.122Z" fill="#165C7E"/>
<path d="M160.052 372.474C167.693 380.104 175.335 387.733 182.981 395.368C190.59 402.965 198.204 410.567 205.812 418.163C213.421 425.76 221.035 433.362 228.643 440.958C236.284 448.587 243.926 456.217 251.573 463.852C259.181 471.448 266.795 479.05 274.403 486.647L277.22 489.459C278.139 490.376 279.569 488.954 278.651 488.031C271.009 480.401 263.368 472.772 255.721 465.137C248.112 457.541 240.498 449.939 232.89 442.342C225.282 434.746 217.668 427.144 210.059 419.547C202.451 411.951 194.776 404.288 187.13 396.653C179.521 389.057 171.907 381.455 164.299 373.859L161.482 371.046C160.563 370.129 159.133 371.552 160.052 372.474Z" fill="#165C7E"/>
<path d="M147.09 389.76C156.443 395.148 165.795 400.542 175.147 405.931L203.078 422.03C212.43 427.418 221.783 432.812 231.135 438.201C240.443 443.567 249.757 448.934 259.066 454.3C268.418 459.688 277.77 465.082 287.123 470.471L290.599 472.475C291.727 473.124 292.745 471.382 291.617 470.734C282.265 465.346 272.913 459.952 263.56 454.564C254.252 449.197 244.938 443.831 235.63 438.464C226.277 433.076 216.925 427.682 207.573 422.294C198.264 416.927 188.95 411.561 179.642 406.194C170.29 400.806 160.937 395.412 151.585 390.024L148.108 388.019C146.98 387.371 145.963 389.112 147.09 389.76Z" fill="#165C7E"/>
<path d="M139.058 409.814C149.462 412.599 159.865 415.378 170.268 418.163C180.671 420.948 191.074 423.727 201.477 426.512C211.88 429.297 222.283 432.076 232.686 434.861C243.139 437.657 253.592 440.453 264.05 443.254C274.508 446.055 284.856 448.818 295.259 451.603C296.547 451.949 297.834 452.29 299.121 452.636C300.408 452.982 300.915 451.026 299.66 450.691C289.257 447.906 278.854 445.127 268.451 442.342C258.048 439.557 247.645 436.778 237.242 433.993C226.839 431.208 216.435 428.429 206.032 425.644C195.58 422.848 185.127 420.053 174.669 417.251C164.266 414.466 153.863 411.687 143.46 408.902L139.598 407.87C138.343 407.535 137.804 409.479 139.058 409.814Z" fill="#165C7E"/>
<path d="M136.5 431.258C158.11 431.258 179.719 431.258 201.323 431.258C222.927 431.258 244.316 431.258 265.816 431.258C277.941 431.258 290.071 431.258 302.196 431.258C303.495 431.258 303.5 429.242 302.196 429.242C280.587 429.242 258.977 429.242 237.374 429.242C215.77 429.242 194.38 429.242 172.881 429.242C160.756 429.242 148.625 429.242 136.5 429.242C135.202 429.242 135.196 431.258 136.5 431.258Z" fill="#165C7E"/>
<path d="M139.592 452.636C149.995 449.851 160.398 447.071 170.801 444.287C181.205 441.502 191.608 438.722 202.011 435.938C212.414 433.153 222.817 430.373 233.22 427.589C243.623 424.804 254.125 421.997 264.583 419.196C275.042 416.394 285.39 413.632 295.793 410.847L299.655 409.814C300.909 409.479 300.375 407.535 299.116 407.87C288.713 410.654 278.309 413.434 267.906 416.219C257.503 419.003 247.1 421.783 236.697 424.568C226.294 427.352 215.891 430.132 205.488 432.917C195.035 435.712 184.582 438.508 174.124 441.31C163.721 444.094 153.318 446.874 142.915 449.658L139.053 450.691C137.799 451.026 138.332 452.971 139.592 452.636Z" fill="#165C7E"/>
<path d="M148.108 472.481C157.461 467.093 166.813 461.699 176.165 456.31C185.474 450.944 194.787 445.577 204.096 440.211C213.404 434.845 222.8 429.429 232.153 424.04C241.461 418.674 250.775 413.308 260.083 407.941C269.436 402.553 278.788 397.159 288.14 391.77L291.617 389.766C292.74 389.117 291.727 387.376 290.599 388.024C281.247 393.413 271.895 398.807 262.542 404.195C253.234 409.561 243.92 414.928 234.612 420.294C225.26 425.683 215.907 431.077 206.555 436.465C197.247 441.831 187.933 447.198 178.624 452.564C169.316 457.931 159.92 463.346 150.567 468.735L147.09 470.74C145.968 471.388 146.98 473.129 148.108 472.481Z" fill="#165C7E"/>
<path d="M161.482 489.459C169.123 481.829 176.765 474.2 184.412 466.565C192.02 458.969 199.634 451.367 207.242 443.77C214.851 436.174 222.465 428.572 230.073 420.975C237.682 413.379 245.356 405.716 253.003 398.082C260.611 390.485 268.225 382.883 275.834 375.287C276.774 374.347 277.71 373.414 278.65 372.474C279.591 371.535 278.144 370.129 277.22 371.046C269.579 378.676 261.937 386.305 254.29 393.94C246.682 401.536 239.068 409.138 231.46 416.735C223.851 424.331 216.237 431.933 208.629 439.53C200.987 447.159 193.346 454.789 185.699 462.424C178.091 470.02 170.477 477.622 162.868 485.219L160.052 488.031C159.133 488.948 160.558 490.376 161.482 489.459Z" fill="#165C7E"/>
<path d="M178.795 502.4C184.192 493.062 189.594 483.724 194.991 474.387C200.388 465.049 205.741 455.794 211.116 446.5C216.49 437.206 221.915 427.825 227.312 418.487L243.436 390.6C248.833 381.263 254.235 371.925 259.632 362.587L261.64 359.116C262.289 357.99 260.545 356.974 259.896 358.1C254.499 367.437 249.097 376.775 243.7 386.113C238.325 395.407 232.951 404.706 227.576 413.999C222.179 423.337 216.776 432.675 211.38 442.013C205.983 451.35 200.63 460.605 195.255 469.899C189.88 479.193 184.456 488.575 179.059 497.912L177.051 501.384C176.402 502.51 178.146 503.526 178.795 502.4Z" fill="#165C7E"/>
<path d="M198.88 510.419C201.67 500.033 204.453 489.646 207.243 479.259C210.032 468.872 212.815 458.485 215.605 448.099C218.394 437.712 221.178 427.325 223.967 416.938L232.373 385.624C235.162 375.237 237.946 364.85 240.735 354.464L241.769 350.608C242.105 349.355 240.157 348.817 239.822 350.069C237.033 360.456 234.249 370.843 231.46 381.23C228.67 391.617 225.887 402.003 223.098 412.39C220.308 422.777 217.525 433.164 214.735 443.551C211.946 453.937 209.135 464.423 206.329 474.865C203.524 485.306 200.756 495.638 197.967 506.025L196.933 509.881C196.597 511.133 198.545 511.672 198.88 510.419Z" fill="#165C7E"/>
<path d="M219.351 340.578C169.745 340.578 129.536 380.725 129.536 430.253C129.536 479.781 169.745 519.927 219.351 519.927C268.957 519.927 309.167 479.781 309.167 430.253C309.167 380.725 268.957 340.578 219.351 340.578ZM219.351 506.443C177.205 506.443 143.041 472.333 143.041 430.253C143.041 388.173 177.205 354.063 219.351 354.063C261.497 354.063 295.661 388.173 295.661 430.253C295.661 472.333 261.497 506.443 219.351 506.443Z" fill="#0B244A"/>
<path d="M219.351 339.567C209.85 339.578 200.349 341.039 191.311 343.973C182.591 346.801 174.3 350.954 166.829 356.265C159.386 361.555 152.773 367.932 147.212 375.166C141.639 382.416 137.194 390.502 134.041 399.081C130.889 407.661 128.963 417.301 128.6 426.721C128.232 436.245 129.36 445.847 131.962 455.02C134.465 463.846 138.338 472.3 143.388 479.968C148.438 487.635 154.545 494.43 161.581 500.219C168.645 506.031 176.545 510.749 185.012 514.22C193.704 517.785 202.946 519.938 212.315 520.663C221.684 521.388 231.564 520.63 240.878 518.373C249.834 516.203 258.466 512.638 266.349 507.865C274.145 503.147 281.242 497.248 287.288 490.437C293.334 483.626 298.368 475.925 302.125 467.625C305.981 459.101 308.49 450.032 309.574 440.738C310.691 431.203 310.267 421.492 308.358 412.083C306.449 402.674 303.264 394.259 298.764 386.184C294.324 378.225 288.669 370.931 282.067 364.642C275.465 358.353 267.956 353.074 259.808 349.031C251.661 344.989 242.517 342.039 233.319 340.633C228.698 339.924 224.033 339.567 219.357 339.562C218.058 339.562 218.053 341.578 219.357 341.578C228.693 341.589 237.979 343.033 246.858 345.912C255.38 348.674 263.456 352.755 270.762 357.93C278.007 363.06 284.499 369.311 289.895 376.363C295.292 383.416 299.693 391.348 302.763 399.724C305.948 408.419 307.753 417.592 308.099 426.842C308.446 436.163 307.351 445.506 304.804 454.481C302.345 463.154 298.544 471.415 293.581 478.946C288.707 486.345 282.716 492.991 275.883 498.637C269.001 504.328 261.217 508.991 252.943 512.358C244.448 515.813 235.421 517.955 226.272 518.648C217.123 519.34 207.397 518.62 198.248 516.39C189.099 514.16 181.089 510.782 173.376 506.119C165.751 501.505 158.847 495.748 152.922 489.091C147.008 482.45 142.112 474.909 138.426 466.818C134.641 458.507 132.16 449.56 131.126 440.486C130.091 431.412 130.449 421.684 132.319 412.495C134.135 403.607 137.315 395.017 141.749 387.096C146.183 379.176 151.569 372.277 157.989 366.147C164.409 360.017 171.825 354.804 179.818 350.822C187.949 346.774 196.707 344.011 205.686 342.61C210.208 341.907 214.78 341.578 219.357 341.572C220.655 341.572 220.66 339.556 219.357 339.556L219.351 339.567Z" fill="#0B244A"/>
<path d="M219.351 505.432C211.435 505.421 203.557 504.201 196.025 501.757C188.494 499.313 181.953 495.951 175.753 491.563C169.553 487.174 164.117 481.923 159.551 475.958C154.985 469.993 151.238 463.253 148.636 456.145C146.034 449.038 144.4 440.991 144.109 433.147C143.817 425.304 144.741 417.317 146.903 409.704C149.065 402.091 152.218 395.341 156.421 388.953C160.552 382.68 165.641 377.039 171.434 372.249C177.227 367.459 183.851 363.477 190.859 360.632C198.066 357.704 205.719 355.881 213.476 355.293C221.233 354.705 229.485 355.315 237.242 357.204C244.999 359.094 251.793 361.961 258.334 365.916C264.803 369.832 270.657 374.715 275.68 380.356C280.697 385.992 284.845 392.386 287.975 399.246C291.183 406.282 293.284 413.862 294.159 421.541C295.034 429.22 294.736 437.492 293.147 445.281C291.606 452.822 288.911 460.106 285.153 466.823C281.396 473.541 276.829 479.391 271.383 484.592C265.937 489.794 259.649 494.21 252.871 497.588C246.093 500.966 238.545 503.361 230.931 504.548C227.103 505.141 223.23 505.415 219.357 505.421C218.058 505.421 218.053 507.437 219.357 507.437C227.444 507.426 235.525 506.184 243.222 503.691C250.643 501.285 257.701 497.753 264.055 493.232C270.409 488.712 276.037 483.291 280.779 477.122C285.522 470.954 289.301 464.066 291.986 456.766C294.67 449.466 296.304 441.26 296.618 433.246C296.932 425.139 295.974 416.966 293.757 409.16C291.54 401.355 288.333 394.451 284.036 387.931C279.773 381.46 274.546 375.622 268.555 370.695C262.531 365.74 255.803 361.72 248.58 358.759C241.181 355.727 233.314 353.898 225.342 353.277C217.206 352.645 208.964 353.305 201.031 355.227C193.407 357.073 186.062 360.11 179.356 364.169C172.721 368.184 166.681 373.205 161.532 379C156.382 384.795 152.097 391.347 148.906 398.411C145.715 405.475 143.482 413.406 142.557 421.332C141.633 429.258 141.974 437.712 143.597 445.72C145.22 453.729 147.938 460.891 151.767 467.757C155.596 474.623 160.36 480.742 165.977 486.092C171.594 491.442 177.986 495.935 184.918 499.379C191.85 502.823 199.629 505.333 207.457 506.53C211.396 507.135 215.374 507.442 219.362 507.448C220.66 507.448 220.666 505.432 219.362 505.432H219.351Z" fill="#0B244A"/>
<path d="M219.351 505.432C211.435 505.421 203.557 504.201 196.025 501.757C188.494 499.313 181.953 495.951 175.753 491.563C169.553 487.174 164.117 481.923 159.551 475.958C154.985 469.993 151.238 463.253 148.636 456.145C146.034 449.038 144.4 440.991 144.109 433.147C143.817 425.304 144.741 417.317 146.903 409.704C149.065 402.091 152.218 395.341 156.421 388.953C160.552 382.68 165.641 377.039 171.434 372.249C177.227 367.459 183.851 363.477 190.859 360.632C198.066 357.704 205.719 355.881 213.476 355.293C221.233 354.705 229.485 355.315 237.242 357.204C244.999 359.094 251.793 361.961 258.334 365.916C264.803 369.832 270.657 374.715 275.68 380.356C280.697 385.992 284.845 392.386 287.975 399.246C291.183 406.282 293.284 413.862 294.159 421.541C295.034 429.22 294.736 437.492 293.147 445.281C291.606 452.822 288.911 460.106 285.153 466.823C281.396 473.541 276.829 479.391 271.383 484.592C265.937 489.794 259.649 494.21 252.871 497.588C246.093 500.966 238.545 503.361 230.931 504.548C227.103 505.141 223.23 505.415 219.357 505.421C218.058 505.421 218.053 507.437 219.357 507.437C227.444 507.426 235.525 506.184 243.222 503.691C250.643 501.285 257.701 497.753 264.055 493.232C270.409 488.712 276.037 483.291 280.779 477.122C285.522 470.954 289.301 464.066 291.986 456.766C294.67 449.466 296.304 441.26 296.618 433.246C296.932 425.139 295.974 416.966 293.757 409.16C291.54 401.355 288.333 394.451 284.036 387.931C279.773 381.46 274.546 375.622 268.555 370.695C262.531 365.74 255.803 361.72 248.58 358.759C241.181 355.727 233.314 353.898 225.342 353.277C217.206 352.645 208.964 353.305 201.031 355.227C193.407 357.073 186.062 360.11 179.356 364.169C172.721 368.184 166.681 373.205 161.532 379C156.382 384.795 152.097 391.347 148.906 398.411C145.715 405.475 143.482 413.406 142.557 421.332C141.633 429.258 141.974 437.712 143.597 445.72C145.22 453.729 147.938 460.891 151.767 467.757C155.596 474.623 160.36 480.742 165.977 486.092C171.594 491.442 177.986 495.935 184.918 499.379C191.85 502.823 199.629 505.333 207.457 506.53C211.396 507.135 215.374 507.442 219.362 507.448C220.66 507.448 220.666 505.432 219.362 505.432H219.351Z" fill="#0B244A"/>
<path d="M219.351 436.795C217.233 436.795 215.517 435.081 215.517 432.966V250.041H223.186V432.966C223.186 435.081 221.469 436.795 219.351 436.795Z" fill="#0B244A"/>
<path d="M219.351 435.789C215.852 435.789 216.529 431.466 216.529 429.171C216.529 424.985 216.529 420.8 216.529 416.614C216.529 410.155 216.529 403.695 216.529 397.241V257.687C216.529 255.265 216.683 252.787 216.529 250.365C216.523 250.261 216.529 250.156 216.529 250.052L215.517 251.063H223.185L222.173 250.052V288.781C222.173 296.949 222.173 305.111 222.173 313.279V426.803C222.173 428.835 222.228 430.879 222.173 432.911C222.129 434.515 220.974 435.745 219.351 435.8C218.053 435.844 218.047 437.86 219.351 437.816C222.327 437.717 224.192 435.366 224.192 432.532V429.747C224.192 425.705 224.192 421.667 224.192 417.625V398.384C224.192 390.408 224.192 382.427 224.192 374.452C224.192 365.526 224.192 356.606 224.192 347.68C224.192 338.655 224.192 329.625 224.192 320.601V295.021C224.192 287.831 224.192 280.641 224.192 273.451V257.78C224.192 255.319 224.242 252.848 224.192 250.387C224.192 250.277 224.192 250.173 224.192 250.063C224.192 249.519 223.73 249.052 223.18 249.052H215.511C214.966 249.052 214.499 249.514 214.499 250.063V314.273C214.499 323.232 214.499 332.19 214.499 341.155V427.665C214.499 429.44 214.449 431.214 214.499 432.988C214.57 435.619 216.655 437.827 219.34 437.827C220.638 437.827 220.644 435.811 219.34 435.811L219.351 435.789Z" fill="#0B244A"/>
<path d="M219.351 250.041C207.551 250.041 197.082 246.531 190.573 241.121C189.82 240.495 188.659 241.033 188.653 242.011C188.653 242.022 188.653 242.027 188.653 242.038C188.653 255.479 202.396 266.376 219.346 266.376C236.295 266.376 250.038 255.479 250.038 242.038C250.038 242.027 250.038 242.022 250.038 242.011C250.038 241.033 248.872 240.495 248.118 241.121C241.61 246.531 231.141 250.036 219.34 250.036L219.351 250.041Z" fill="#0B244A"/>
<path d="M219.351 249.03C213.184 249.019 207.011 248.08 201.213 245.938C198.715 245.015 196.306 243.851 194.061 242.417C193.021 241.752 192.097 240.945 191.085 240.247C190.012 239.506 188.494 239.863 187.889 241.027C187.399 241.972 187.669 243.378 187.79 244.389C187.927 245.526 188.136 246.646 188.455 247.745C189.077 249.909 190.051 251.98 191.294 253.853C193.935 257.83 197.698 260.994 201.906 263.207C211.435 268.211 223.356 268.744 233.347 264.778C242.138 261.29 249.834 253.985 250.929 244.219C251.045 243.197 251.298 241.818 250.742 240.89C250.016 239.682 248.453 239.583 247.414 240.401C245.455 241.945 243.387 243.274 241.142 244.372C235.899 246.943 230.057 248.333 224.247 248.822C222.619 248.959 220.985 249.025 219.346 249.025C218.047 249.025 218.042 251.046 219.346 251.041C225.183 251.03 231.058 250.217 236.603 248.371C239.096 247.542 241.533 246.509 243.827 245.235C244.883 244.647 245.912 244.01 246.896 243.312C247.364 242.977 247.826 242.631 248.277 242.28C248.42 242.164 248.756 241.73 248.976 241.895C249.158 242.027 249.015 242.774 249.009 242.966C248.982 243.499 248.943 244.026 248.871 244.554C248.734 245.559 248.503 246.559 248.206 247.525C247.601 249.492 246.676 251.343 245.521 253.046C243.029 256.72 239.453 259.571 235.525 261.592C226.607 266.179 215.577 266.558 206.252 262.971C198.303 259.917 191.035 253.326 189.831 244.548C189.765 244.048 189.721 243.549 189.693 243.043C189.682 242.834 189.523 241.994 189.737 241.873C189.952 241.752 190.271 242.153 190.419 242.274C190.92 242.67 191.426 243.049 191.949 243.417C193.929 244.806 196.075 245.96 198.297 246.916C203.529 249.173 209.14 250.42 214.812 250.859C216.325 250.975 217.838 251.03 219.351 251.035C220.649 251.035 220.655 249.019 219.351 249.019V249.03Z" fill="#0B244A"/>
<path d="M219.351 444.6C227.287 444.6 233.721 438.176 233.721 430.253C233.721 422.329 227.287 415.906 219.351 415.906C211.415 415.906 204.981 422.329 204.981 430.253C204.981 438.176 211.415 444.6 219.351 444.6Z" fill="#0B244A"/>
<path d="M232.714 430.253C232.675 435.806 229.155 440.952 223.868 442.814C218.548 444.687 212.59 443.018 208.997 438.695C205.405 434.372 205.042 428.11 207.908 423.365C210.774 418.619 216.463 416.07 221.915 417.152C228.148 418.388 232.675 423.925 232.719 430.253C232.73 431.549 234.749 431.554 234.738 430.253C234.694 423.853 230.673 418.086 224.671 415.84C218.663 413.593 211.583 415.499 207.518 420.453C203.452 425.408 202.819 432.609 206.17 438.157C209.52 443.704 216.045 446.528 222.366 445.314C228.687 444.1 233.589 438.931 234.54 432.702C234.667 431.889 234.738 431.076 234.744 430.253C234.755 428.956 232.736 428.956 232.725 430.253H232.714Z" fill="#0B244A"/>
<path d="M261.755 475.05L264.194 472.614L213.203 421.703L210.764 424.139L261.755 475.05Z" fill="#0B244A" stroke="#2F292B" stroke-width="1.84" stroke-miterlimit="10"/>
<path d="M272.814 472.624H249.378C248.089 472.624 247.045 473.666 247.045 474.953V477.227C247.045 478.513 248.089 479.556 249.378 479.556H272.814C274.102 479.556 275.146 478.513 275.146 477.227V474.953C275.146 473.666 274.102 472.624 272.814 472.624Z" fill="#0B244A"/>
<path d="M249.378 473.629H260.067C264.237 473.629 268.412 473.607 272.582 473.629C273.419 473.629 274.09 474.068 274.134 474.975C274.161 475.518 274.134 476.068 274.134 476.617C274.134 477.166 274.183 477.666 273.809 478.094C273.391 478.572 272.847 478.545 272.28 478.545H249.867C249.29 478.545 248.717 478.545 248.321 478.029C247.997 477.595 248.057 477.062 248.057 476.551C248.057 476.04 248.03 475.485 248.057 474.958C248.096 474.211 248.618 473.656 249.378 473.629C250.67 473.574 250.681 471.558 249.378 471.613C247.271 471.695 246.038 473.327 246.038 475.332C246.038 476.881 245.851 478.567 247.15 479.704C248.448 480.841 250.373 480.561 251.98 480.561C257.382 480.561 262.784 480.561 268.187 480.561C269.705 480.561 271.229 480.599 272.747 480.561C274.502 480.517 275.966 479.292 276.136 477.507C276.191 476.925 276.153 476.331 276.153 475.749C276.153 475.079 276.18 474.414 275.933 473.772C275.405 472.382 274.095 471.624 272.648 471.608C272.065 471.608 271.477 471.608 270.894 471.608H263.549C258.917 471.608 254.274 471.525 249.636 471.608C249.548 471.608 249.46 471.608 249.372 471.608C248.074 471.608 248.068 473.623 249.372 473.623L249.378 473.629Z" fill="#0B244A"/>
<path d="M228.456 206.192C218.906 257.544 198.699 309.099 210.461 359.995C213.503 373.156 217.932 385.948 222.349 398.713C227.284 412.961 231.988 421.052 238.215 434.784C241.12 441.194 247.029 451.993 247.045 459.024C247.067 466.054 240.223 475.639 233.242 476.578C243.942 474.964 254.642 473.349 265.343 471.734C262.201 431.164 258.846 389.683 242.363 352.47C240.862 349.081 239.228 345.631 239.046 341.929C238.887 338.754 239.811 335.635 240.785 332.608C248.96 307.16 261.404 283.003 266.691 256.803C271.977 230.602 268.655 200.502 249.389 181.942" fill="#165C7E"/>
<path d="M227.482 205.923C223.78 225.758 218.603 245.279 214.213 264.965C209.916 284.239 206.302 303.82 205.906 323.616C205.713 333.339 206.324 343.083 207.963 352.673C209.674 362.708 212.562 372.535 215.693 382.213C218.823 391.891 221.733 400.811 225.518 409.798C228.835 417.663 232.725 425.271 236.301 433.021C239.558 440.085 243.574 447.121 245.428 454.717C246.286 458.233 246.126 461.517 244.674 464.862C243.172 468.317 240.729 471.591 237.588 473.717C236.174 474.672 234.656 475.343 232.967 475.601C231.685 475.798 232.23 477.737 233.506 477.545C244.206 475.93 254.907 474.315 265.607 472.701C266.014 472.64 266.377 472.129 266.349 471.728C264.737 450.933 263.087 430.104 259.654 409.512C257.943 399.246 255.776 389.046 252.937 379.027C250.098 369.008 246.495 359.484 242.374 350.004C241.296 347.515 240.262 344.906 240.069 342.176C239.877 339.446 240.586 336.601 241.412 333.932C242.963 328.911 244.751 323.962 246.583 319.041C250.313 309.039 254.378 299.163 258.086 289.155C264.748 271.144 270.228 252.441 269.936 233.068C269.683 216.261 265.277 199.03 254.4 185.869C253.053 184.238 251.611 182.694 250.098 181.222C249.169 180.316 247.738 181.739 248.668 182.65C261.118 194.74 266.784 211.811 267.763 228.828C268.858 247.915 264.072 266.453 257.712 284.299C254.191 294.181 250.219 303.897 246.462 313.691C244.619 318.503 242.825 323.336 241.164 328.219C239.503 333.102 237.478 338.101 238.16 343.242C238.842 348.383 241.571 352.981 243.48 357.655C245.428 362.423 247.183 367.273 248.756 372.178C251.908 381.993 254.351 392.029 256.287 402.146C260.199 422.557 262.086 443.281 263.72 463.978C263.923 466.56 264.127 469.147 264.325 471.728L265.068 470.756C254.367 472.371 243.667 473.986 232.967 475.601L233.506 477.545C240.399 476.474 245.785 469.24 247.496 462.902C249.405 455.838 245.653 448.307 242.748 442.04C239.228 434.444 235.624 426.886 232.026 419.328C228.032 410.924 224.665 402.377 221.634 393.583C218.262 383.778 214.983 373.93 212.43 363.878C209.916 353.969 208.414 343.896 208.013 333.674C207.215 313.493 210.257 293.395 214.378 273.693C218.564 253.661 223.89 233.881 227.977 213.827C228.478 211.372 228.956 208.911 229.419 206.45C229.655 205.182 227.708 204.638 227.471 205.912L227.482 205.923Z" fill="#165C7E"/>
<path d="M361.578 79.3099C372.587 78.2772 383.688 78.4255 394.669 79.7438C395.214 79.8097 395.676 79.233 395.681 78.7331C395.687 78.1344 395.208 77.7884 394.669 77.7225C383.688 76.4042 372.592 76.2614 361.578 77.2885C360.296 77.4094 360.285 79.4252 361.578 79.3044V79.3099Z" fill="#0B244A"/>
<path d="M386.01 84.0116C388.139 84.6872 390.312 85.2365 392.507 85.6539C393.024 85.7528 393.624 85.5111 393.75 84.9509C393.866 84.4565 393.602 83.8139 393.046 83.7095C390.851 83.292 388.678 82.7428 386.549 82.0672C386.043 81.9079 385.427 82.2539 385.306 82.7702C385.179 83.3195 385.471 83.8413 386.01 84.0116Z" fill="#0B244A"/>
<path d="M383.067 88.664C383.688 88.9551 384.31 89.2517 384.932 89.5428C385.047 89.6142 385.174 89.6582 385.306 89.6637C385.438 89.6911 385.575 89.6857 385.707 89.6472C385.944 89.5813 386.197 89.4 386.313 89.1858C386.439 88.9496 386.5 88.6695 386.412 88.4113C386.335 88.1751 386.18 87.917 385.949 87.8071C385.328 87.516 384.706 87.2194 384.084 86.9283C383.969 86.8569 383.842 86.8129 383.71 86.8074C383.578 86.78 383.441 86.7855 383.309 86.8239C383.072 86.8898 382.819 87.0711 382.704 87.2853C382.577 87.5215 382.517 87.8016 382.605 88.0598C382.682 88.296 382.836 88.5541 383.067 88.664Z" fill="#0B244A"/>
<path d="M367.899 92.7835C372.62 91.7234 376.438 88.5981 380.063 85.5716C380.481 85.22 380.426 84.506 380.063 84.1434C379.65 83.7315 379.056 83.7919 378.633 84.1434C375.271 86.9502 371.739 89.8559 367.36 90.8391C366.095 91.1247 366.629 93.0692 367.899 92.7835Z" fill="#0B244A"/>
<path d="M371.624 83.6436C372.46 83.5667 373.296 83.4898 374.133 83.4074C374.408 83.38 374.644 83.314 374.848 83.1108C375.024 82.935 375.156 82.6494 375.145 82.3967C375.134 82.1441 375.046 81.864 374.848 81.6827C374.661 81.5124 374.397 81.3641 374.133 81.3861C373.296 81.463 372.46 81.5399 371.624 81.6223C371.349 81.6497 371.112 81.7156 370.909 81.9189C370.733 82.0946 370.601 82.3803 370.612 82.6329C370.623 82.8856 370.711 83.1657 370.909 83.347C371.096 83.5173 371.36 83.6656 371.624 83.6436Z" fill="#0B244A"/>
<path d="M74.9289 77.294C63.9206 76.2613 52.8188 76.4096 41.8381 77.7279C41.2934 77.7938 40.8368 78.1454 40.8258 78.7386C40.8258 79.2329 41.2934 79.8097 41.8381 79.7492C52.8188 78.431 63.9151 78.2882 74.9289 79.3153C76.2217 79.4362 76.2162 77.4203 74.9289 77.2995V77.294Z" fill="#0B244A"/>
<path d="M49.9635 82.0727C47.8345 82.7483 45.6614 83.2975 43.4664 83.715C42.9437 83.8139 42.6026 84.4675 42.7622 84.9564C42.9437 85.5111 43.4444 85.7638 44.0055 85.6594C46.2005 85.242 48.3736 84.6927 50.5026 84.0171C51.0033 83.8578 51.3829 83.3085 51.2068 82.7757C51.0418 82.2704 50.5026 81.9024 49.9635 82.0727Z" fill="#0B244A"/>
<path d="M52.4226 86.9227C51.801 87.2138 51.1793 87.5104 50.5577 87.8016C50.3431 87.9059 50.1561 88.1806 50.0955 88.4058C50.0295 88.6474 50.057 88.966 50.1946 89.1802C50.3321 89.3945 50.5411 89.5867 50.7997 89.6416L51.0693 89.6801C51.2508 89.6801 51.4214 89.6361 51.5809 89.5428C52.2026 89.2516 52.8242 88.955 53.4459 88.6639C53.6604 88.5596 53.8475 88.2849 53.908 88.0597C53.974 87.818 53.9465 87.4995 53.809 87.2852C53.6714 87.071 53.4624 86.8788 53.2038 86.8239L52.9343 86.7854C52.7527 86.7854 52.5822 86.8293 52.4226 86.9227Z" fill="#0B244A"/>
<path d="M69.1469 90.8445C64.7733 89.8613 61.2359 86.9557 57.8745 84.1489C57.4564 83.7973 56.8568 83.7424 56.4442 84.1489C56.0866 84.5059 56.0261 85.2255 56.4442 85.577C60.0696 88.6035 63.8875 91.7289 68.6077 92.789C69.873 93.0746 70.4122 91.1302 69.1469 90.8445Z" fill="#0B244A"/>
<path d="M64.8833 81.6278C64.0471 81.5509 63.2109 81.474 62.3747 81.3916C62.1326 81.3696 61.8301 81.5179 61.6595 81.6882C61.4835 81.864 61.3515 82.1496 61.3625 82.4022C61.3735 82.6549 61.4615 82.935 61.6595 83.1163C61.8576 83.2976 62.0941 83.3854 62.3747 83.4129C63.2109 83.4898 64.0471 83.5667 64.8833 83.6491C65.1254 83.6711 65.428 83.5228 65.5985 83.3525C65.7746 83.1767 65.9066 82.8911 65.8956 82.6384C65.8846 82.3858 65.7966 82.1056 65.5985 81.9244C65.4005 81.7431 65.1639 81.6552 64.8833 81.6278Z" fill="#0B244A"/>
<path d="M210.411 77.8762C208.233 71.565 204.596 65.9075 202.726 59.4755C199.959 49.9401 196.988 39.1248 208.348 34.0605C212.601 32.1655 218.036 32.16 221.596 35.4886C227.449 40.9704 222.883 47.2871 219.912 54.7297C199.513 105.928 176.886 173.263 140.879 215.025C155.568 233.019 182.101 240.258 205.345 240.797C234.727 241.478 264.611 235.381 290.154 220.863C282.215 201.815 245.675 125.57 233.726 108.74C220.462 90.0591 223.675 96.5515 210.411 77.8707" fill="#BFD2B6"/>
<path d="M211.385 77.6071C209.757 72.9492 207.369 68.6209 205.455 64.0784C203.887 60.3544 202.764 56.3886 201.923 52.4393C201.252 49.2755 200.811 45.8755 201.648 42.6952C202.561 39.2073 205.092 36.752 208.277 35.2031C211.864 33.4619 216.468 33.0883 219.896 35.4118C221.546 36.5323 222.889 38.2515 223.296 40.2289C223.67 42.047 223.224 43.931 222.646 45.6613C221.953 47.7265 221.007 49.6984 220.132 51.6868C219.258 53.6752 218.509 55.5812 217.734 57.5421C216.226 61.354 214.735 65.1715 213.25 68.989C206.913 85.3079 200.674 101.665 193.99 117.841C187.124 134.468 179.802 150.935 171.412 166.853C163.512 181.848 154.666 196.47 144.021 209.697C142.766 211.257 141.479 212.8 140.175 214.316C139.79 214.761 139.807 215.294 140.175 215.744C152.41 230.641 171.83 237.858 190.436 240.555C200.822 242.06 211.374 242.153 221.832 241.472C233.132 240.742 244.382 238.973 255.325 236.062C267.642 232.783 279.575 228.026 290.671 221.737C291.018 221.539 291.304 221.001 291.133 220.6C287.876 212.795 284.273 205.127 280.686 197.464C275.443 186.27 270.074 175.131 264.605 164.041C259.115 152.907 253.531 141.812 247.705 130.848C243.706 123.329 239.745 115.617 234.871 108.614C231.394 103.621 227.779 98.6992 223.934 93.9865C220.947 90.3283 218.014 86.6536 215.231 82.8417C213.905 81.0291 212.595 79.2 211.297 77.3709C210.549 76.3218 208.799 77.327 209.553 78.3871C213.102 83.3855 216.705 88.3509 220.594 93.0911C223.769 96.9525 226.828 100.88 229.76 104.928C232.373 108.537 234.871 112.156 237.143 115.985C239.541 120.028 241.813 124.147 244.047 128.283C249.796 138.934 255.27 149.738 260.65 160.581C266.03 171.423 271.702 183.117 277.061 194.471C280.95 202.715 284.829 210.971 288.432 219.342C288.729 220.029 288.927 220.501 289.197 221.138L289.659 220.001C270.156 231.053 248.145 237.21 225.865 239.154C206.021 240.885 185.474 239.83 166.857 232.206C157.219 228.257 148.257 222.412 141.611 214.322V215.75C153.037 202.474 162.483 187.599 170.829 172.242C179.73 155.862 187.41 138.846 194.584 121.653C201.582 104.89 208.062 87.9225 214.631 70.9938C216.193 66.9676 217.761 62.9469 219.346 58.9262C220.165 56.8445 220.969 54.7572 221.871 52.7085C222.773 50.6597 223.708 48.7042 224.445 46.628C225.777 42.8545 225.925 38.9601 223.235 35.7468C220.545 32.5336 216.017 31.3142 211.825 31.9843C208.029 32.594 204.206 34.6593 201.857 37.7352C199.821 40.3992 199.112 43.7333 199.2 47.0344C199.299 50.6651 200.201 54.2464 201.18 57.7233C202.489 62.3812 204.398 66.6985 206.456 71.0707C207.545 73.3941 208.601 75.7286 209.449 78.1509C209.872 79.3703 211.825 78.843 211.396 77.6126L211.385 77.6071Z" fill="#BFD2B6"/>
<path d="M210.411 77.8762C261.173 76.3218 312.137 77.3819 362.893 75.8274C363.856 75.8 364.879 75.7835 365.688 76.2998C367.509 77.4588 367.008 80.1996 366.288 82.2265C363.559 89.9273 360.704 97.8424 355.246 103.934C349.789 110.025 341.025 113.909 333.279 111.278C328.614 109.696 324.488 105.9 319.57 106.213C313.447 106.609 309.81 112.909 305.547 117.32C296.915 126.256 281.913 128.173 271.306 121.697C266.124 118.534 261.041 113.42 255.088 114.623C252.86 115.073 250.924 116.386 248.866 117.347C238.644 122.131 224.919 116.682 220.776 106.191" fill="#BFD2B6"/>
<path d="M210.411 78.8814C223.499 78.4804 236.587 78.2552 249.68 78.1124C262.785 77.9696 275.883 77.9091 288.988 77.8487C302.092 77.7883 315.191 77.7169 328.289 77.5521C334.864 77.4697 341.432 77.3653 348.006 77.2225C351.263 77.1511 354.526 77.0742 357.782 76.9864C359.438 76.9424 361.089 76.893 362.745 76.8435C363.768 76.8106 365.171 76.6843 365.71 77.7773C366.15 78.6726 365.924 79.8426 365.693 80.7654C365.374 82.0232 364.879 83.2371 364.439 84.4565C363.493 87.0765 362.514 89.6856 361.369 92.2232C359.163 97.1338 356.341 101.929 352.237 105.499C348.491 108.756 343.616 111.069 338.583 111.113C336.052 111.135 333.664 110.503 331.392 109.416C329.12 108.328 326.799 106.883 324.323 105.988C321.985 105.142 319.443 104.911 317.05 105.686C314.916 106.378 313.078 107.724 311.466 109.256C308.105 112.464 305.607 116.501 301.822 119.275C294.368 124.74 284.124 126.07 275.515 122.692C270.789 120.835 267.164 117.138 262.63 114.941C260.413 113.87 258.004 113.217 255.528 113.552C252.733 113.931 250.467 115.6 247.931 116.688C240.141 120.022 230.513 117.276 224.974 111.085C223.62 109.575 222.509 107.823 221.755 105.944C221.277 104.752 219.324 105.274 219.808 106.482C223.142 114.782 231.85 120.099 240.702 120.126C242.886 120.132 245.098 119.808 247.172 119.121C249.746 118.27 251.969 116.578 254.571 115.815C259.786 114.271 264.561 118.38 268.555 121.121C272.654 123.938 277.072 125.784 282.039 126.361C286.743 126.91 291.623 126.311 296.051 124.647C300.48 122.983 304.474 120.159 307.676 116.518C310.597 113.195 313.54 108.696 318.079 107.499C323.349 106.103 328.014 110.454 332.669 112.151C337.323 113.848 342.907 113.151 347.517 110.992C357.991 106.081 362.783 95.0191 366.469 84.7641C367.261 82.5615 368.433 80.0184 367.784 77.629C367.47 76.4755 366.662 75.5637 365.545 75.1408C364.235 74.6464 362.712 74.8552 361.353 74.8936C354.63 75.0914 347.907 75.2452 341.185 75.366C327.723 75.6077 314.266 75.7175 300.805 75.7999C287.392 75.8768 273.974 75.9208 260.562 76.0251C247.106 76.1295 233.649 76.2998 220.193 76.6293C216.936 76.7062 213.679 76.7996 210.422 76.8985C209.124 76.9369 209.119 78.9528 210.422 78.9143L210.411 78.8814Z" fill="#BFD2B6"/>
<path d="M226.101 77.8762C175.34 76.3218 124.375 77.3819 73.6195 75.8274C72.6568 75.8 71.6335 75.7835 70.8248 76.2998C69.0039 77.4588 69.5045 80.1996 70.2252 82.2265C72.9539 89.9273 75.8091 97.8424 81.2665 103.934C86.7238 110.025 95.4875 113.909 103.233 111.278C107.899 109.696 112.025 105.9 116.943 106.213C123.066 106.609 126.702 112.909 130.966 117.32C139.598 126.256 154.6 128.173 165.207 121.697C170.389 118.534 175.472 113.42 181.425 114.623C183.653 115.073 185.589 116.386 187.647 117.347C197.868 122.131 211.594 116.682 215.737 106.191" fill="#BFD2B6"/>
<path d="M226.101 76.8655C212.656 76.4535 199.2 76.2228 185.749 76.0855C172.287 75.9427 158.819 75.8878 145.352 75.8219C131.94 75.7559 118.527 75.6791 105.12 75.4923C98.3922 75.3989 91.6695 75.2781 84.9413 75.1243C81.58 75.0474 78.2186 74.954 74.8573 74.8551C73.4929 74.8167 72.0131 74.6354 70.7312 75.2122C69.6695 75.69 68.9323 76.6513 68.6847 77.7883C68.1511 80.2325 69.3229 82.7427 70.1316 84.9893C71.1053 87.6917 72.1286 90.3722 73.2949 92.9977C75.5339 98.029 78.4332 102.978 82.5757 106.686C86.4432 110.141 91.3229 112.607 96.5327 113.063C99.0744 113.282 101.682 112.953 104.07 112.047C106.617 111.08 108.916 109.613 111.381 108.482C113.664 107.433 116.145 106.823 118.621 107.537C120.794 108.163 122.587 109.635 124.155 111.217C125.866 112.942 127.362 114.859 128.969 116.671C130.575 118.484 132.303 120.088 134.289 121.456C142.134 126.86 152.878 128.107 161.73 124.548C164.029 123.625 166.114 122.373 168.15 120.967C170.339 119.456 172.49 117.841 174.894 116.677C177.299 115.512 179.714 115.079 182.189 115.88C184.665 116.682 186.948 118.352 189.517 119.171C197.901 121.846 207.82 118.676 213.41 111.97C214.796 110.305 215.885 108.476 216.688 106.466C217.173 105.263 215.22 104.741 214.741 105.928C211.583 113.793 202.786 118.555 194.49 118.056C192.438 117.929 190.386 117.468 188.499 116.649C185.903 115.518 183.587 113.843 180.698 113.508C175.544 112.909 171.098 116.479 167.121 119.22C165.118 120.604 163.061 121.884 160.772 122.757C158.643 123.57 156.393 124.125 154.127 124.361C149.533 124.845 144.868 124.213 140.566 122.527C138.442 121.692 136.418 120.555 134.586 119.198C132.754 117.841 131.109 116.084 129.585 114.31C126.686 110.937 123.71 106.949 119.248 105.615C113.967 104.033 109.422 107.383 104.878 109.514C100.334 111.646 95.1794 111.492 90.5417 109.476C80.1991 104.977 75.545 94.1567 71.9691 84.2038C71.5344 83.0009 71.0448 81.798 70.7532 80.5511C70.5442 79.6503 70.3406 78.4474 70.8743 77.6125C71.5289 76.5963 73.0253 76.8161 74.0596 76.849C75.7155 76.8984 77.3659 76.9479 79.0218 76.9918C85.541 77.1676 92.0546 77.3049 98.5737 77.4148C111.673 77.629 124.771 77.7278 137.87 77.8047C150.969 77.8816 164.079 77.9201 177.177 78.0299C190.276 78.1398 203.364 78.3046 216.457 78.6287C219.665 78.7056 222.866 78.7934 226.074 78.8923C227.372 78.9308 227.372 76.9149 226.074 76.8765L226.101 76.8655Z" fill="#BFD2B6"/>
<path d="M234.772 120.33C236.521 121.472 238.694 121.999 240.768 121.758C241.291 121.697 241.802 121.34 241.78 120.747C241.758 120.253 241.335 119.676 240.768 119.736C240.306 119.791 239.844 119.808 239.376 119.786C239.255 119.78 239.129 119.769 239.008 119.758C238.947 119.753 238.887 119.747 238.821 119.736C238.936 119.753 238.931 119.753 238.815 119.736C238.6 119.698 238.386 119.66 238.177 119.61C237.968 119.561 237.759 119.5 237.55 119.434C237.434 119.396 237.313 119.357 237.198 119.313C237.165 119.302 236.818 119.16 237.011 119.242C236.587 119.055 236.18 118.836 235.789 118.577C235.344 118.286 234.656 118.473 234.408 118.94C234.144 119.445 234.298 120.011 234.772 120.319V120.33Z" fill="#0B244A"/>
<path d="M206.494 80.0458C203.04 89.8394 199.689 99.6714 196.438 109.536C195.514 112.338 194.6 115.139 193.693 117.946C193.291 119.182 195.244 119.714 195.64 118.484C198.836 108.603 202.126 98.7541 205.526 88.9386C206.489 86.1537 207.463 83.3689 208.442 80.5896C208.876 79.3647 206.923 78.8374 206.494 80.0513V80.0458Z" fill="#0B244A"/>
<path d="M217.244 62.7492C214.928 52.8458 213.261 42.7941 212.254 32.6709C215.423 32.3524 218.663 32.7259 221.678 33.7585C222.773 34.132 223.868 34.6099 224.709 35.4063C226.217 36.8235 226.706 39.059 226.481 41.1133C226.255 43.1676 225.403 45.09 224.561 46.9741C222.217 52.2196 219.879 57.4707 217.536 62.7163" fill="#0B244A"/>
<path d="M218.218 62.48C215.929 52.659 214.268 42.7006 213.261 32.6708L212.249 33.6815C214.928 33.4288 217.607 33.6376 220.204 34.3571C222.481 34.9943 224.632 35.9225 225.293 38.3888C225.953 40.855 225.106 43.1675 224.181 45.3316C223.048 47.9736 221.843 50.5882 220.671 53.2137C219.335 56.2128 217.998 59.2118 216.655 62.2108C216.43 62.7107 216.512 63.2874 217.019 63.5895C217.448 63.8477 218.179 63.7268 218.399 63.227C220.98 57.4486 223.67 51.7087 226.123 45.8754C227.174 43.3762 227.95 40.6573 227.262 37.9494C226.574 35.2414 224.572 33.709 222.047 32.8246C218.922 31.7316 215.539 31.3526 212.249 31.6602C211.748 31.7096 211.182 32.0831 211.237 32.6708C212.26 42.8819 213.932 53.0215 216.265 63.0183C216.562 64.2816 218.509 63.7488 218.212 62.48H218.218Z" fill="#0B244A"/>
<path d="M215.192 33.6046C214.18 31.2153 212.485 28.8314 209.949 28.2657C207.644 27.7494 205.328 28.8699 203.194 29.8805C199.117 31.8085 194.903 33.4508 190.595 34.7856C190.392 34.8515 190.166 34.9284 190.067 35.1206C189.952 35.3513 190.078 35.626 190.199 35.8512C190.821 36.9936 191.459 38.1526 192.405 39.0479C193.352 39.9378 194.677 40.531 195.954 40.2893C197.582 39.9762 199.178 38.3943 200.63 39.1853C201.989 39.9268 201.873 42.2008 203.271 42.8764C204.305 43.3762 205.51 42.6677 206.346 41.8822C207.188 41.0967 208.046 40.152 209.19 40.0806C210.565 39.9982 211.616 41.2011 212.672 42.0799C213.729 42.9643 215.539 43.4916 216.32 42.3546" fill="#0B244A"/>
<path d="M216.067 33.0938C215.22 31.1329 213.976 29.2214 212.122 28.0789C210.015 26.7771 207.54 26.9968 205.312 27.8482C202.885 28.782 200.58 30.0179 198.171 31.0011C195.761 31.9843 193.231 32.9015 190.705 33.6925C190.172 33.8628 189.638 34.0056 189.297 34.4835C188.923 34.9998 188.989 35.6205 189.248 36.1752C189.721 37.2024 190.364 38.2075 191.08 39.0809C192.592 40.9155 194.919 41.8712 197.203 40.9374C197.962 40.6298 198.985 39.8609 199.843 39.9597C200.586 40.0421 200.861 41.0638 201.109 41.6295C201.439 42.3985 201.84 43.1565 202.577 43.6234C203.584 44.2606 204.8 44.0793 205.801 43.5355C206.868 42.9588 207.545 41.8767 208.596 41.3C209.647 40.7232 210.565 41.5526 211.336 42.2337C212.205 42.9972 213.091 43.7058 214.257 43.9255C215.423 44.1452 216.463 43.8211 217.2 42.8599C217.536 42.426 217.261 41.7339 216.837 41.4812C216.32 41.1736 215.786 41.4153 215.456 41.8437C215.126 42.2722 214.18 41.8328 213.855 41.657C213.069 41.2231 212.458 40.5035 211.737 39.9707C211.017 39.4379 210.131 39.026 209.196 39.0699C208.2 39.1193 207.364 39.6302 206.621 40.2508C205.922 40.8386 205.306 41.6625 204.415 41.9536C203.65 42.2008 203.331 41.668 203.04 41.0583C202.363 39.6302 201.769 38.0757 199.926 37.9604C198.083 37.845 196.57 39.7181 194.738 39.2512C193.792 39.0095 193.027 38.3394 192.438 37.5814C192.136 37.1914 191.877 36.7684 191.63 36.3455C191.514 36.1478 191.399 35.9445 191.289 35.7413C191.25 35.6644 191.19 35.4886 191.124 35.4392C191.025 35.192 190.914 35.3019 190.799 35.7743L190.865 35.7578C191.019 35.7962 191.454 35.5765 191.608 35.5216C191.899 35.4282 192.185 35.3348 192.471 35.2415C193.005 35.0657 193.539 34.8844 194.072 34.6977C195.178 34.3132 196.278 33.9067 197.368 33.4783C199.546 32.6269 201.697 31.6931 203.81 30.6935C205.922 29.6938 208.277 28.5128 210.51 29.5015C212.397 30.3364 213.536 32.3028 214.312 34.11C214.526 34.6153 215.264 34.7196 215.693 34.4725C216.215 34.1759 216.27 33.5881 216.056 33.0938H216.067Z" fill="#0B244A"/>
<path d="M212.034 53.8839C212.678 51.945 213.366 49.9237 214.812 48.4846C215.165 48.133 215.572 47.8144 216.039 47.6442C217.085 47.2652 218.317 47.6936 219.038 48.534C219.758 49.3744 220.006 50.5553 219.874 51.6539C219.742 52.7524 219.263 53.7906 218.68 54.7298C217.503 56.6138 215.863 58.2067 213.943 59.3272" fill="#BFD2B6"/>
<path d="M213.008 54.153C213.569 52.4668 214.141 50.6542 215.396 49.3359C215.902 48.8031 216.474 48.3911 217.239 48.5559C218.003 48.7207 218.498 49.3084 218.735 50.0005C219.318 51.7143 218.361 53.4884 217.398 54.8561C216.364 56.3282 214.989 57.5421 213.443 58.4539C212.326 59.113 213.338 60.8597 214.46 60.1951C216.012 59.2778 217.409 58.0968 218.526 56.6852C219.709 55.1967 220.715 53.4884 220.902 51.5605C221.073 49.7973 220.325 47.8584 218.713 46.985C216.952 46.0293 215.121 46.617 213.839 48.0451C212.425 49.6215 211.715 51.6374 211.061 53.6148C210.653 54.8506 212.601 55.3779 213.008 54.153Z" fill="#BFD2B6"/>
<path d="M217.007 61.9033C217.569 74.5641 218.135 87.2194 218.696 99.8802C218.955 105.708 219.428 112.074 223.417 116.342C226.035 119.143 230.013 120.835 231.482 124.372C233.446 129.107 229.881 134.397 230.37 139.494C230.766 143.619 234.144 147.277 238.232 148.008C240.966 148.497 244.036 147.843 246.368 149.348C249.378 151.287 249.356 155.28 250.434 158.318C253.256 166.255 262.757 168.573 270.167 166.277C279.124 163.503 285.142 153.737 287.81 145.272C289.444 140.087 289.098 133.985 286.121 129.338C283.035 124.521 276.571 122.763 271.581 120.412C263.879 116.787 256.375 110.629 255.116 101.698C254.549 97.6886 255.286 93.234 253.008 89.8779C249.785 85.1322 242.803 85.5112 237.462 83.3965C232.109 81.2762 228.34 76.514 224.836 71.9551C224.027 70.9059 217.723 63.0074 216.996 61.8978" fill="#0B244A"/>
<path d="M215.995 61.9032C216.562 74.6354 217.112 87.3621 217.695 100.094C217.915 104.983 218.256 110.212 220.809 114.529C222.041 116.617 223.78 118.171 225.678 119.638C227.422 120.989 229.336 122.351 230.359 124.361C231.504 126.597 231.031 129.2 230.497 131.535C229.919 134.067 229.144 136.654 229.336 139.285C229.677 143.932 233.325 148.15 237.957 148.985C239.217 149.216 240.498 149.227 241.78 149.276C243.062 149.326 244.36 149.403 245.483 150.001C247.436 151.045 248.079 153.215 248.563 155.225C249.048 157.235 249.565 159.394 250.726 161.251C251.809 162.986 253.295 164.442 255.022 165.535C258.433 167.705 262.713 168.452 266.702 168.001C271.207 167.496 275.24 165.475 278.573 162.432C282.028 159.284 284.68 155.253 286.639 151.034C288.702 146.585 290.198 141.834 289.681 136.879C289.411 134.287 288.685 131.755 287.392 129.486C286.22 127.432 284.537 125.811 282.573 124.515C278.722 121.966 274.189 120.72 270.129 118.561C266.069 116.402 262.141 113.513 259.445 109.696C258.103 107.801 257.074 105.708 256.496 103.456C255.858 100.968 255.935 98.4136 255.743 95.8759C255.55 93.3383 255.039 90.7786 253.405 88.7243C252.062 87.0381 250.164 85.9835 248.162 85.2584C243.893 83.715 239.222 83.5941 235.272 81.1718C231.19 78.6671 228.28 74.7343 225.381 71.0212C223.505 68.6209 221.596 66.2425 219.72 63.8367C219.098 63.0403 218.438 62.2438 217.877 61.3924C217.167 60.3158 215.418 61.321 216.133 62.4086C217.69 64.7705 219.604 66.9456 221.359 69.1592C222.184 70.2028 223.01 71.2409 223.829 72.2846C223.912 72.3889 224.198 72.7624 223.972 72.4658C224.379 72.9986 224.792 73.5314 225.205 74.0587C225.975 75.0474 226.761 76.0196 227.581 76.9699C229.232 78.8813 231.031 80.661 233.094 82.133C235.047 83.5282 237.22 84.4949 239.525 85.1266C241.621 85.7033 243.766 86.0659 245.862 86.6426C247.782 87.1699 249.746 87.8785 251.204 89.2846C252.954 90.9654 253.526 93.3053 253.713 95.6452C253.916 98.1664 253.839 100.699 254.367 103.187C255.33 107.74 257.993 111.744 261.376 114.875C264.76 118.006 268.787 120.33 273.012 122.137C277.237 123.944 281.72 125.421 284.614 128.948C287.695 132.699 288.327 138.258 287.387 142.877C286.446 147.497 284.399 151.611 281.935 155.34C279.47 159.07 276.285 162.388 272.258 164.36C268.715 166.09 264.506 166.557 260.667 165.672C256.827 164.788 253.542 162.596 251.837 159.059C250.027 155.313 250.56 150.056 246.121 148.063C243.728 146.986 241.12 147.464 238.611 147.046C236.433 146.684 234.474 145.453 233.132 143.712C231.79 141.971 231.207 139.757 231.377 137.511C231.57 134.99 232.45 132.584 232.852 130.096C233.253 127.608 233.187 125.114 231.883 122.911C230.728 120.95 228.885 119.566 227.114 118.198C225.342 116.831 223.609 115.337 222.454 113.315C221.299 111.294 220.649 108.883 220.275 106.532C219.879 104.055 219.786 101.544 219.676 99.0452C219.538 95.9473 219.401 92.8549 219.263 89.757C218.988 83.5172 218.707 77.2775 218.432 71.0432L218.025 61.8923C217.97 60.6015 215.946 60.5905 216.006 61.8923L215.995 61.9032Z" fill="#0B244A"/>
<path d="M216.094 63.4028C216.078 63.4522 215.995 63.5786 216.072 63.4742L215.984 63.5786L216.023 63.5346L216.067 63.4907L215.957 63.5676C215.957 63.5676 216.05 63.5072 216.061 63.4962C216.089 63.4797 216.155 63.4632 216.177 63.4358C216.149 63.4687 215.984 63.5072 216.116 63.4632C216.199 63.4358 216.287 63.4083 216.375 63.3863C216.463 63.3643 216.545 63.3479 216.633 63.3314C216.683 63.3204 216.732 63.3149 216.787 63.3039C216.958 63.2765 216.754 63.2929 216.749 63.3039C216.771 63.249 217.343 63.249 217.409 63.249C217.618 63.2435 217.822 63.249 218.031 63.26C218.08 63.26 218.135 63.271 218.185 63.271C218.328 63.2765 218.003 63.238 218.146 63.2655C218.245 63.282 218.344 63.2984 218.443 63.3204C218.542 63.3424 218.641 63.3698 218.735 63.3973C218.784 63.4138 218.828 63.4303 218.878 63.4467C218.905 63.4577 219.054 63.5236 218.933 63.4632C218.812 63.4028 218.96 63.4797 218.982 63.4907C219.026 63.5126 219.071 63.5346 219.115 63.5621C219.214 63.617 219.307 63.6829 219.401 63.7488C219.835 64.0564 220.545 63.8422 220.781 63.3863C221.057 62.87 220.88 62.3317 220.418 62.0076C219.489 61.354 218.284 61.1672 217.167 61.2441C216.639 61.2826 216.078 61.332 215.577 61.5078C214.895 61.7495 214.389 62.1614 214.136 62.848C213.954 63.3424 214.339 63.974 214.84 64.0894C215.412 64.2212 215.885 63.9136 216.083 63.3863L216.094 63.4028Z" fill="#C5E2E0"/>
<path d="M211.539 25.1293C207.298 21.8172 203.188 18.2084 200.063 13.8252C196.768 9.2058 193.275 4.64133 188.901 0.977661C187.856 6.1738 190.15 11.4578 192.944 15.9619C200.36 27.9086 203.826 31.1768 215.995 38.0043C221.42 41.0473 234.716 49.616 240.383 52.1756C241.698 52.7688 243.029 53.3346 244.371 53.8564C245.158 54.164 247.942 54.6473 248.393 55.2845C239.013 42.0524 224.022 34.8844 211.534 25.1293H211.539Z" fill="#C5E2E0"/>
<path d="M212.254 24.4153C208.865 21.7623 205.576 18.95 202.781 15.6709C201.395 14.045 200.206 12.2709 198.93 10.5571C197.654 8.84338 196.306 7.12415 194.886 5.4983C193.258 3.63076 191.509 1.86759 189.611 0.269202C189.082 -0.175711 188.076 -0.09332 187.922 0.714114C186.497 8.15679 190.909 14.9239 194.859 20.8286C197.615 24.9481 200.701 28.815 204.607 31.9074C208.777 35.2031 213.476 37.6474 218.031 40.3553C222.817 43.2005 227.537 46.1611 232.345 48.9734C234.645 50.3191 236.961 51.6649 239.365 52.8129C240.977 53.5818 242.666 54.3893 244.377 54.9221C244.993 55.1143 245.626 55.2461 246.242 55.4219C246.594 55.5208 246.952 55.6142 247.287 55.757C247.364 55.7899 247.447 55.8284 247.518 55.8668C247.667 55.9547 247.54 55.8284 247.678 55.9986C248.398 56.872 249.928 55.713 249.262 54.7793C241.901 44.4474 231.108 37.6309 220.798 30.5782C217.899 28.5953 215.016 26.574 212.243 24.4153C211.809 24.0803 211.237 24.0034 210.813 24.4153C210.461 24.7614 210.384 25.5084 210.813 25.8434C220.561 33.4454 231.636 39.3666 240.625 47.9353C243.15 50.3466 245.488 52.9557 247.513 55.8009L249.097 54.5815C248.415 53.7576 246.946 53.5269 245.972 53.2742C244.531 52.9007 243.178 52.3295 241.813 51.7308C239.684 50.797 237.649 49.6985 235.63 48.556C230.75 45.7876 225.986 42.816 221.189 39.9159C216.782 37.2519 212.177 34.8845 207.958 31.9239C204.101 29.216 200.883 25.8819 198.143 22.0644C196.102 19.2192 194.122 16.2421 192.46 13.1552C190.524 9.55195 189.071 5.39394 189.864 1.26339L188.175 1.7083C191.503 4.5151 194.347 7.82723 196.955 11.2986C198.242 13.0179 199.442 14.803 200.8 16.4673C202.159 18.1316 203.628 19.6531 205.185 21.1032C206.984 22.7785 208.882 24.3439 210.813 25.8544C211.248 26.195 211.82 26.2664 212.243 25.8544C212.595 25.5084 212.672 24.7669 212.243 24.4263L212.254 24.4153Z" fill="#C5E2E0"/>
<path d="M210.582 26.4036C215.286 24.6239 219.005 20.0265 224.038 19.9826C225.309 19.9716 226.629 20.2957 227.565 21.1525C228.225 21.7567 228.643 22.5861 228.935 23.432C229.914 26.2992 229.54 29.4356 228.94 32.4072C228.527 34.4505 228.016 36.4718 227.499 38.4931C224.808 37.9933 222.415 36.5267 220.088 35.0821C218.273 33.9561 216.457 32.8356 214.647 31.7096C212.876 30.611 210.923 29.2324 210.708 27.1671" fill="#C5E2E0"/>
<path d="M210.852 27.3758C212.821 26.6123 214.576 25.4808 216.325 24.3164C218.075 23.1519 219.692 22.0259 221.612 21.4052C223.428 20.823 225.997 20.6033 227.273 22.3335C228.692 24.2614 228.648 27.1341 228.412 29.3972C228.093 32.3797 227.262 35.3238 226.525 38.224L227.768 37.5209C224.319 36.8398 221.376 34.6922 218.443 32.8796C216.986 31.9733 215.478 31.1164 214.07 30.1332C213.069 29.4356 211.886 28.4579 211.715 27.1671C211.644 26.6233 211.303 26.1674 210.703 26.1564C210.213 26.1564 209.625 26.6233 209.691 27.1671C210.164 30.7813 213.971 32.4841 216.738 34.1978C220.022 36.2301 223.362 38.7019 227.224 39.4654C227.752 39.5697 228.324 39.3225 228.467 38.7623C229.188 35.9225 229.947 33.0663 230.332 30.1552C230.695 27.4362 230.673 24.4976 229.413 21.9929C228.247 19.6695 225.733 18.7632 223.241 19.0213C220.936 19.263 218.867 20.2902 216.931 21.5096C214.768 22.8718 212.711 24.5031 210.307 25.4314C209.108 25.8928 209.63 27.8427 210.846 27.3758H210.852Z" fill="#C5E2E0"/>
<path d="M212.293 23.0202C211.622 24.7833 213.888 26.1565 215.011 27.0793C216.507 28.3097 218.042 29.5071 219.599 30.6606C222.712 32.973 225.953 35.1152 229.292 37.0871C229.771 37.3727 230.381 37.186 230.673 36.7246C230.849 36.4444 231.025 36.1698 231.196 35.8897C231.889 34.7911 230.145 33.775 229.452 34.8735C229.276 35.1537 229.1 35.4283 228.929 35.7084L230.31 35.3459C227.334 33.5882 224.434 31.6932 221.634 29.6664C220.27 28.6777 218.928 27.6615 217.613 26.6069C216.92 26.0522 216.237 25.4919 215.561 24.9262C215.297 24.7009 214.097 23.9265 214.235 23.5585C214.697 22.3446 212.749 21.8227 212.287 23.0202H212.293Z" fill="#0B244A"/>
<path d="M231.031 36.0269C232.081 34.6207 233.671 35.6259 234.859 36.1917C236.35 36.9002 238.056 37.2518 239.607 36.5157C240.24 36.2191 240.79 35.7303 241.159 35.1316C241.61 34.401 241.626 33.5881 241.643 32.7532C241.654 32.0282 241.879 31.3416 242.611 31.045C243.211 30.7978 243.871 31.034 244.3 31.4734C245.219 32.3962 246.643 30.9681 245.73 30.0453C244.421 28.727 242.325 28.5677 240.883 29.7761C240.185 30.3694 239.761 31.1988 239.662 32.1051C239.569 32.9345 239.827 33.9012 239.079 34.4889C237.533 35.7083 235.591 34.1813 234.133 33.6046C232.312 32.8905 230.447 33.4453 229.287 35.0052C228.956 35.4447 229.215 36.1258 229.65 36.3839C230.161 36.6915 230.706 36.4553 231.031 36.0214V36.0269Z" fill="#0B244A"/>
<path d="M229.54 37.8067C230.205 37.8286 230.618 38.7349 230.893 39.2293C231.344 40.0422 231.806 40.8551 232.488 41.5088C233.171 42.1624 233.99 42.6238 234.931 42.7227C235.872 42.8215 236.757 42.503 237.632 42.1844C238.375 41.9152 239.134 41.6351 239.866 42.0855C240.498 42.481 240.944 43.1621 241.384 43.7498C242.446 45.1669 244.212 46.8862 246.093 45.7052C247.194 45.0186 246.181 43.2719 245.076 43.964C244.432 44.3705 243.667 43.4312 243.315 42.9808C242.831 42.3601 242.396 41.6955 241.846 41.1298C240.498 39.7401 238.865 39.5973 237.099 40.2399C236.367 40.5036 235.536 40.921 234.755 40.6409C233.974 40.3608 233.457 39.6412 233.061 38.9766C232.208 37.5485 231.454 35.8677 229.545 35.7963C228.247 35.7469 228.247 37.7627 229.545 37.8121L229.54 37.8067Z" fill="#0B244A"/>
<path d="M153.208 228.784C164.816 234.474 177.178 238.665 189.902 240.989C202.522 243.296 215.467 243.785 228.192 242.054C235.316 241.082 242.336 239.396 249.108 236.974C249.576 236.803 249.79 236.479 249.851 236.001C250.792 228.542 251.727 221.083 252.667 213.619L250.687 213.888C252.238 218.71 253.883 223.566 255.913 228.213C257.371 231.552 259.759 235.183 263.775 235.381C265.073 235.441 265.068 233.425 263.775 233.365C260.43 233.206 258.565 229.427 257.465 226.741C255.671 222.352 254.087 217.87 252.634 213.355C252.266 212.207 250.792 212.531 250.654 213.624C249.713 221.083 248.778 228.542 247.837 236.007L248.58 235.035C236.697 239.286 224.099 241.22 211.49 241.088C198.792 240.956 186.161 238.786 174.058 234.98C167.259 232.843 160.635 230.185 154.237 227.048C153.076 226.477 152.053 228.218 153.219 228.789L153.208 228.784Z" fill="#0B244A"/>
</g>
<defs>
<clipPath id="clip0_4_786">
<rect width="422" height="533" fill="white"/>
</clipPath>
</defs>
</svg>
