<svg width="492" height="400" viewBox="0 0 492 400" fill="none" xmlns="http://www.w3.org/2000/svg">
<g clip-path="url(#clip0_4_881)">
<path d="M462.158 344.949C456.411 336.188 452.35 326.467 449.115 316.535C445.71 306.076 443.172 295.365 440.608 284.68C439.323 279.322 438.033 273.964 436.635 268.637C435.944 266.001 435.227 263.366 434.468 260.752C433.668 257.998 432.724 255.28 432.007 252.5C430.377 246.168 432.162 239.706 433.261 233.425C434.391 226.963 435.521 220.501 436.656 214.04C438.895 201.24 441.139 188.441 443.378 175.641C443.657 174.042 443.941 172.444 444.219 170.84C444.42 169.7 442.671 169.21 442.47 170.355C442.383 170.85 442.295 171.35 442.207 171.846L415.353 201.4L360.478 222.018C360.256 221.461 359.534 221.1 359.028 221.677C351.527 230.243 344.794 239.644 340.269 250.144C336.75 258.312 334.717 266.961 334.098 275.825C333.51 284.226 334.124 292.647 334.898 301.017C335.3 305.38 335.744 309.743 336.11 314.111C336.616 320.155 337.287 326.235 337.4 332.305C337.509 338.152 336.915 344.14 334.284 349.441C332.133 353.773 328.769 357.718 324.244 359.652C323.145 360.121 321.984 360.446 320.808 360.657C319.864 360.828 320.029 362.148 320.808 362.406C326.782 364.396 333.103 365.355 339.402 365.196C340.971 365.154 342.534 365.046 344.092 364.871C345.444 364.716 346.919 364.618 348.013 363.721C348.978 362.932 349.36 361.71 349.556 360.523C349.819 358.93 350.015 357.321 350.247 355.717C350.5 353.943 350.753 352.169 351.005 350.39C351.764 355.052 352.667 359.688 353.503 364.35C353.678 365.345 355.396 365.129 355.283 364.107C354.106 353.123 355.076 342.036 356.918 331.175C358.858 319.732 361.721 308.469 364.451 297.196C365.813 291.564 367.149 285.928 368.331 280.26C368.914 277.46 369.455 274.655 369.945 271.839C370.43 269.034 370.905 266.172 372.148 263.583C373.335 261.102 375.002 258.9 376.653 256.714C378.531 254.233 380.409 251.748 382.281 249.267C386.037 244.301 389.788 239.34 393.544 234.374L397.992 228.495C396.815 235.766 396.289 243.135 396.784 250.489C397.388 259.359 399.55 267.977 403.048 276.145C406.381 283.937 410.807 291.188 415.348 298.325C417.711 302.043 420.11 305.746 422.442 309.49C425.532 314.456 428.772 319.371 431.563 324.507C434.303 329.546 436.532 335.002 436.774 340.798C436.981 345.749 435.871 351.04 432.698 354.969C431.93 355.918 431.053 356.785 430.083 357.527C429.257 358.162 429.737 359.348 430.784 359.183C436.754 358.265 442.553 356.357 447.898 353.541C449.25 352.829 450.576 352.061 451.865 351.231C453.011 350.493 454.342 349.751 455.152 348.626C456.003 347.445 455.926 346.012 455.534 344.671C455.064 343.057 454.445 341.468 453.898 339.88C453.31 338.173 452.722 336.466 452.129 334.754C454.894 338.498 457.768 342.144 460.595 345.857C461.281 346.759 462.819 345.94 462.163 344.939L462.158 344.949Z" fill="#0B244A"/>
<path d="M323.78 106.166C323.733 106.228 323.687 106.29 323.64 106.352L290.027 96.4662C290.105 96.1568 290.007 95.7855 289.795 95.5689C289.424 95.1873 288.892 95.2646 288.51 95.5689C281.566 101.123 274.028 105.934 266.083 109.926C263.802 111.071 261.486 112.143 259.143 113.154C258.777 113.309 258.633 113.825 258.725 114.18C259.448 116.903 260.402 119.559 261.568 122.122C262.59 124.36 263.658 127.305 266.284 128.016C267.584 128.367 269.003 128.377 270.339 128.47C271.779 128.568 273.223 128.635 274.668 128.671C277.552 128.738 280.441 128.671 283.32 128.455C293.964 127.635 304.53 124.639 313.43 118.615C318.042 115.49 322.113 111.633 325.348 107.09C326.029 106.135 324.456 105.228 323.78 106.172V106.166Z" fill="#0B244A"/>
<path d="M1.90901 215.329C6.76911 234.456 0.634656 256.048 10.2723 273.835C15.4523 283.633 29.5167 291.91 39.1182 283.571C42.8536 280.338 45.4023 274.381 43.1322 269.895C42.6988 269.059 42.0745 268.147 41.3161 267.698C40.6763 267.342 40.6247 267.487 40.4132 267.569C40.3152 267.626 40.1191 267.76 39.8663 268.054C39.6135 268.343 39.3297 268.766 39.0718 269.266C38.4733 270.338 38.0863 271.793 37.8077 273.02C37.2608 275.186 36.8016 277.651 36.5746 279.879C34.7173 296.201 39.9385 312.909 49.4266 326.173C94.0033 386.855 200.843 382.245 268.817 379.274C291.916 378.165 315.499 376.587 338.613 374.896C346.651 374.308 380.269 371.745 388.658 371.142C401.83 370.084 414.662 368.548 426.776 364.262C439.091 360.018 450.669 353.231 460.678 344.815C461.09 344.465 461.71 344.516 462.055 344.934C462.349 345.29 462.349 345.795 462.076 346.151C449.559 362.493 430.712 374.525 410.679 380.074C397.754 383.864 383.747 385.849 370.472 388.062C350.583 391.259 330.332 394.095 310.304 396.251C273.234 400.335 235.56 401.248 198.356 398.164C147.64 393.734 91.8312 385.983 53.6263 348.998C34.4696 330.453 22.5206 302.724 28.0153 275.96C28.3403 274.438 28.8563 272.179 29.3309 270.705C29.8984 268.75 30.5279 266.863 31.6062 265.073C34.4851 259.798 40.7021 257.25 45.9337 261.03C53.4457 266.729 52.9607 277.625 47.7137 284.613C41.3522 293.385 31.0232 295.597 21.2359 291.338C11.0153 286.846 4.47837 276.852 2.27533 266.161C-1.50647 249.489 3.17305 232.357 0.0155353 215.752C-0.0876516 215.226 0.258024 214.715 0.784277 214.612C1.28989 214.514 1.78003 214.834 1.90385 215.329H1.90901Z" fill="#C5E2E0"/>
<path d="M111.849 217.103C127.276 217.103 139.782 204.603 139.782 189.183C139.782 173.764 127.276 161.263 111.849 161.263C96.4226 161.263 83.9167 173.764 83.9167 189.183C83.9167 204.603 96.4226 217.103 111.849 217.103Z" fill="#165C7E"/>
<path d="M111.849 217.562C96.1959 217.562 83.4626 204.835 83.4626 189.188C83.4626 173.542 96.1959 160.815 111.849 160.815C127.503 160.815 140.236 173.542 140.236 189.188C140.236 204.835 127.503 217.562 111.849 217.562ZM111.849 161.717C96.6964 161.717 84.3655 174.037 84.3655 189.188C84.3655 204.34 96.6964 216.66 111.849 216.66C127.002 216.66 139.333 204.334 139.333 189.188C139.333 174.042 127.007 161.717 111.849 161.717Z" fill="#165C7E"/>
<path d="M228.265 290.286L174.742 279.312C174.742 279.312 174.742 279.275 174.742 279.26L174.293 279.219L173.839 279.177C171.538 304.715 169.892 332.114 173.416 359.43C174.019 364.133 174.824 369.084 177.378 373.416C180.205 378.217 185.029 381.419 189.972 381.765C190.287 381.786 190.602 381.796 190.921 381.796C195.338 381.796 199.919 379.656 203.345 375.948C206.652 372.369 208.53 367.955 210.166 363.747C219.411 339.968 224.142 314.75 228.719 290.358L228.265 290.275V290.286Z" fill="#165C7E"/>
<path d="M397.213 258.601L396.759 258.642L396.305 258.684C396.31 258.756 396.315 258.828 396.325 258.895L342.792 290.286L342.348 290.368C346.924 314.76 351.65 339.978 360.901 363.757C362.537 367.965 364.415 372.374 367.722 375.958C371.148 379.666 375.724 381.806 380.145 381.806C380.46 381.806 380.78 381.796 381.09 381.775C386.032 381.43 390.856 378.227 393.684 373.426C396.232 369.094 397.037 364.144 397.646 359.44C401.159 332.191 399.509 284.071 397.213 258.606V258.601Z" fill="#165C7E"/>
<path d="M294.464 145.138H198.459C140.35 145.138 93.0797 192.391 93.0797 250.469C93.0797 308.546 140.355 355.8 198.459 355.8H294.464C352.574 355.8 399.844 308.546 399.844 250.469C399.844 192.391 352.569 145.138 294.464 145.138Z" fill="#165C7E"/>
<path d="M94.4366 250.469C94.4469 239.572 96.134 228.717 99.4928 218.346C102.733 208.347 107.521 198.873 113.604 190.302C119.604 181.85 126.899 174.274 135.128 167.967C143.357 161.661 152.722 156.457 162.566 152.847C172.73 149.119 183.461 146.999 194.28 146.576C195.668 146.52 197.061 146.494 198.454 146.494C199.62 146.494 199.625 144.679 198.454 144.679C187.346 144.689 176.238 146.411 165.672 149.851C155.534 153.157 145.896 157.999 137.208 164.182C128.519 170.365 120.909 177.724 114.45 186.115C107.99 194.505 102.723 204.066 99.0336 214.107C95.2518 224.416 93.1261 235.317 92.6979 246.291C92.6412 247.679 92.6154 249.071 92.6154 250.463C92.6154 251.629 94.4314 251.634 94.4314 250.463L94.4366 250.469Z" fill="#0B244A"/>
<path d="M398.482 250.469C398.471 261.365 396.784 272.221 393.426 282.591C390.186 292.591 385.398 302.064 379.315 310.635C373.232 319.206 366.019 326.663 357.79 332.97C349.561 339.277 340.197 344.48 330.353 348.09C320.509 351.7 309.457 353.938 298.638 354.361C297.25 354.418 295.857 354.443 294.464 354.443C293.298 354.443 293.293 356.259 294.464 356.259C305.572 356.248 316.68 354.526 327.247 351.086C337.385 347.781 347.023 342.938 355.711 336.755C364.399 330.572 372.009 323.213 378.469 314.822C384.995 306.344 390.196 296.871 393.885 286.83C397.667 276.522 399.792 265.62 400.221 254.646C400.277 253.259 400.303 251.866 400.303 250.474C400.303 249.308 398.487 249.303 398.487 250.474L398.482 250.469Z" fill="#0B244A"/>
<path d="M294.464 354.443H240.647C232.666 354.443 224.679 354.443 216.698 354.443H201.09C194.786 354.443 188.512 354.18 182.274 353.201C170.805 351.401 159.656 347.677 149.425 342.196C139.405 336.827 130.294 329.829 122.524 321.537C114.708 313.198 108.284 303.58 103.574 293.163C98.7498 282.499 95.778 270.988 94.8029 259.328C94.5552 256.384 94.4366 253.429 94.4366 250.479C94.4366 249.313 92.6205 249.308 92.6205 250.479C92.636 262.443 94.6326 274.392 98.6208 285.675C102.47 296.556 108.104 306.757 115.234 315.833C122.364 324.909 130.794 332.614 140.319 338.89C149.843 345.166 160.775 350.05 172.023 352.938C180.866 355.207 189.957 356.264 199.084 356.264C203.134 356.264 207.179 356.264 211.229 356.264H233.646C242.288 356.264 250.925 356.264 259.566 356.264C267.037 356.264 274.508 356.264 281.974 356.264H294.464C295.63 356.264 295.635 354.449 294.464 354.449V354.443Z" fill="#0B244A"/>
<path d="M399.756 270.07C397.811 270.07 395.866 270.07 393.921 270.07H333.376C328.918 270.07 324.481 269.89 320.07 269.194C311.939 267.915 304.035 265.279 296.781 261.396C289.527 257.513 283.222 252.629 277.707 246.75C272.166 240.841 267.615 234.018 264.277 226.633C260.867 219.099 258.767 210.951 258.081 202.71C257.905 200.616 257.823 198.517 257.818 196.418C257.818 195.253 256.001 195.248 256.001 196.418C256.012 204.943 257.436 213.467 260.279 221.507C263.028 229.289 267.058 236.571 272.155 243.063C277.181 249.458 283.248 255.022 290.043 259.493C296.951 264.047 304.628 267.45 312.641 269.508C318.951 271.127 325.436 271.88 331.947 271.88H340.579C345.893 271.88 351.202 271.88 356.516 271.88H374.945C380.254 271.88 385.563 271.88 390.877 271.88H399.756C400.922 271.88 400.927 270.065 399.756 270.065V270.07Z" fill="#0B244A"/>
<path d="M145.241 290.286L93.9568 250.799C93.9671 250.701 93.9774 250.598 93.9826 250.51L93.5285 250.469L93.0745 250.427C92.3677 258.25 86.3055 327.777 90.3865 359.43C90.9901 364.133 91.795 369.084 94.3489 373.416C97.1762 378.217 102 381.419 106.943 381.765C107.258 381.786 107.572 381.796 107.892 381.796C112.309 381.796 116.89 379.656 120.316 375.948C123.623 372.369 125.501 367.955 127.136 363.747C136.382 339.968 141.113 314.75 145.689 290.358L145.246 290.275L145.241 290.286Z" fill="#165C7E"/>
<path d="M314.188 279.177L314.142 278.672L259.231 289.93L259.314 290.368C263.89 314.755 268.616 339.978 277.867 363.757C279.502 367.965 281.38 372.374 284.687 375.958C288.113 379.666 292.689 381.806 297.111 381.806C297.426 381.806 297.746 381.796 298.055 381.775C302.998 381.43 307.822 378.227 310.649 373.426C313.198 369.094 314.003 364.144 314.611 359.44C318.13 332.129 316.489 304.725 314.188 279.188V279.177Z" fill="#165C7E"/>
<path d="M247.777 42.0499C247.494 41.1423 246.348 41.2403 246.028 42.0499C245.389 43.6589 243.65 44.4634 242.107 44.9584C239.961 45.6443 237.691 46.0104 235.488 46.4643C230.509 47.4853 225.51 48.4084 220.49 49.2335C210.455 50.8838 200.353 52.1266 190.215 52.9723C184.477 53.4519 178.73 53.7975 172.977 54.0192C172.245 54.045 171.713 55.0248 172.337 55.5663C176.8 59.4547 179.23 65.0242 180.092 70.7948C181.067 77.3132 179.88 83.909 177.956 90.1489C175.82 97.0747 172.838 103.712 170.284 110.493C167.699 117.357 165.372 124.345 163.819 131.518C162.086 139.537 161.333 147.799 162.339 155.967C162.416 156.591 162.855 156.952 163.489 156.844C171.605 155.426 179.71 153.899 187.888 152.909C196.731 151.837 205.631 151.47 214.541 151.537C221.614 151.589 228.688 151.878 235.751 152.27C236.391 152.306 236.716 151.666 236.628 151.12C235.08 141.817 236.318 132.286 238.186 123.128C240.384 112.339 243.444 101.752 245.905 91.0256C247.442 84.3267 248.768 77.5762 249.717 70.769C251.317 61.1977 250.677 51.3273 247.788 42.0551L247.777 42.0499Z" fill="#BFD3B6"/>
<path d="M293.634 91.4897C293.99 91.5722 294.315 91.7115 294.66 91.8198C294.423 91.7476 294.681 91.8301 294.748 91.861C294.831 91.8971 294.908 91.9384 294.99 91.9796C295.161 92.0673 295.326 92.1601 295.486 92.2633C295.641 92.3612 295.785 92.4592 295.935 92.5675C295.955 92.583 296.069 92.6655 295.96 92.5881C295.847 92.5005 295.986 92.6088 296.012 92.6294C296.084 92.6861 296.151 92.7429 296.218 92.8047C296.497 93.0523 296.75 93.3204 296.987 93.6041C297.286 93.9754 297.962 93.9393 298.272 93.6041C298.633 93.2121 298.592 92.7171 298.272 92.32C297.224 91.0411 295.728 90.1231 294.124 89.7415C293.665 89.6332 293.118 89.8859 293.009 90.3758C292.901 90.8657 293.149 91.3763 293.644 91.4897H293.634Z" fill="#0B244A"/>
<path d="M260.815 114.196C257.59 111.705 254.051 109.714 250.238 108.27C249.779 108.095 249.243 108.461 249.124 108.905C248.985 109.415 249.299 109.849 249.759 110.019C253.257 111.344 256.574 113.19 259.536 115.48C259.922 115.779 260.444 115.856 260.82 115.48C261.135 115.165 261.212 114.5 260.82 114.196H260.815Z" fill="#0B244A"/>
<path d="M251.642 115.382C251.41 116.599 251.642 117.868 252.328 118.909C253.014 119.951 254.015 120.735 255.217 121.013C255.676 121.122 256.223 120.869 256.332 120.379C256.435 119.915 256.192 119.379 255.697 119.265C255.578 119.239 255.455 119.203 255.341 119.167C255.295 119.152 255.243 119.131 255.197 119.116C255.135 119.09 255.16 119.1 255.269 119.147C255.243 119.136 255.212 119.121 255.186 119.11C254.98 119.012 254.789 118.899 254.603 118.765C254.479 118.677 254.547 118.765 254.614 118.775C254.572 118.765 254.505 118.688 254.474 118.657C254.381 118.574 254.294 118.486 254.206 118.399C254.134 118.321 254.072 118.244 254.005 118.167C253.876 118.017 254.098 118.301 253.994 118.151C253.958 118.1 253.922 118.048 253.891 117.997C253.767 117.806 253.69 117.584 253.566 117.398C253.68 117.563 253.592 117.465 253.566 117.388C253.551 117.342 253.53 117.29 253.515 117.244C253.479 117.135 253.448 117.027 253.422 116.919C253.406 116.857 253.396 116.8 253.386 116.738C253.38 116.707 253.375 116.676 253.37 116.645C253.36 116.573 253.365 116.604 253.38 116.733C253.36 116.728 253.36 116.46 253.355 116.429C253.355 116.305 253.355 116.181 253.36 116.057V115.996C253.375 115.892 253.37 115.913 253.355 116.052C253.339 116.027 253.38 115.898 253.386 115.867C253.473 115.403 253.257 114.866 252.751 114.753C252.302 114.65 251.73 114.887 251.637 115.387L251.642 115.382Z" fill="#0B244A"/>
<path d="M243.149 115.444C244.904 116.377 246.792 116.95 248.763 117.192C249.237 117.249 249.691 116.733 249.671 116.284C249.645 115.743 249.268 115.439 248.763 115.377C248.649 115.361 248.639 115.361 248.727 115.377C248.665 115.366 248.603 115.361 248.541 115.351C248.448 115.336 248.355 115.32 248.262 115.305C248.046 115.268 247.834 115.227 247.617 115.181C247.189 115.088 246.766 114.975 246.348 114.846C245.466 114.567 244.878 114.32 244.063 113.886C243.645 113.665 243.057 113.768 242.819 114.211C242.597 114.634 242.695 115.212 243.144 115.454L243.149 115.444Z" fill="#0B244A"/>
<path d="M244.367 120.193C245.291 121.029 246.513 121.508 247.767 121.452C248.242 121.431 248.696 121.049 248.675 120.544C248.654 120.07 248.278 119.616 247.767 119.636C247.54 119.647 247.318 119.636 247.096 119.611L247.339 119.642C246.998 119.595 246.663 119.502 246.348 119.373L246.565 119.466C246.261 119.337 245.977 119.172 245.714 118.971L245.899 119.11C245.817 119.049 245.734 118.976 245.657 118.909C245.306 118.59 244.718 118.538 244.372 118.909C244.052 119.255 243.996 119.853 244.372 120.193H244.367Z" fill="#0B244A"/>
<path d="M246.709 124.881C246.844 124.979 246.983 125.062 247.132 125.129C247.344 125.221 247.561 125.309 247.788 125.356C248.257 125.448 248.716 125.448 249.186 125.345C249.403 125.294 249.619 125.118 249.728 124.927C249.836 124.737 249.888 124.448 249.82 124.226C249.666 123.741 249.201 123.478 248.706 123.592C248.639 123.607 248.572 123.618 248.51 123.628L248.752 123.597C248.562 123.623 248.371 123.623 248.18 123.597L248.422 123.628C248.231 123.602 248.046 123.551 247.865 123.478L248.082 123.571C247.922 123.504 247.772 123.416 247.633 123.313C247.457 123.184 247.138 123.164 246.931 123.221C246.725 123.277 246.493 123.442 246.39 123.638C246.276 123.85 246.224 124.102 246.297 124.34L246.39 124.556C246.472 124.69 246.58 124.799 246.715 124.881H246.709Z" fill="#0B244A"/>
<path d="M251.709 128.176C255.831 128.032 259.866 126.805 263.348 124.597C264.334 123.973 263.42 122.406 262.43 123.03C259.21 125.072 255.516 126.232 251.704 126.361C250.538 126.402 250.532 128.218 251.704 128.176H251.709Z" fill="#0B244A"/>
<path d="M259.763 75.7094C257.792 73.0381 255.491 70.6453 252.865 68.6083C252.478 68.3092 251.956 68.2318 251.58 68.6083C251.265 68.9228 251.193 69.5881 251.58 69.8924C254.072 71.8262 256.316 74.0901 258.194 76.6273C258.483 77.0193 258.978 77.2204 259.438 76.9522C259.824 76.7253 260.057 76.1065 259.763 75.7094Z" fill="#0B244A"/>
<path d="M247.679 71.2074C245.497 70.6298 243.201 70.6143 241.008 71.1661C240.534 71.2847 240.245 71.8159 240.374 72.28C240.503 72.7441 241.014 73.0329 241.488 72.9143C243.361 72.445 245.322 72.4605 247.194 72.9556C247.669 73.0793 248.18 72.7957 248.309 72.3213C248.438 71.8468 248.149 71.3311 247.674 71.2074H247.679Z" fill="#0B244A"/>
<path d="M243.082 77.0451C243.681 76.8336 244.295 76.6841 244.924 76.5964L244.682 76.6273C244.806 76.6119 244.935 76.5964 245.058 76.5861C245.306 76.5603 245.518 76.4984 245.698 76.3179C245.858 76.1581 245.972 75.9002 245.966 75.6785C245.961 75.4567 245.879 75.1989 245.698 75.039C245.533 74.8843 245.291 74.7502 245.058 74.7708C244.217 74.8533 243.392 75.0132 242.597 75.2968C242.37 75.3794 242.179 75.5031 242.056 75.7146C241.942 75.9105 241.896 76.1942 241.963 76.4159C242.03 76.6376 242.169 76.8491 242.381 76.9574C242.592 77.0657 242.85 77.1327 243.082 77.0502V77.0451Z" fill="#0B244A"/>
<path d="M245.136 80.4848C245.26 80.4074 245.383 80.3404 245.518 80.2836L245.301 80.3765C245.507 80.2888 245.719 80.2321 245.936 80.2011L245.693 80.2321C245.791 80.2166 245.889 80.2114 245.987 80.2114C246.224 80.2114 246.462 80.1135 246.627 79.9433C246.787 79.7834 246.9 79.5256 246.895 79.3038C246.89 79.0821 246.807 78.8242 246.627 78.6643C246.446 78.5045 246.23 78.3962 245.987 78.3962C245.368 78.4065 244.739 78.5818 244.217 78.9222C244.021 79.0511 243.861 79.2316 243.8 79.4637C243.763 79.5823 243.758 79.7061 243.784 79.8247C243.789 79.9433 243.825 80.0567 243.892 80.1599C244.016 80.3558 244.202 80.526 244.434 80.5776C244.666 80.6292 244.929 80.6188 245.136 80.4848Z" fill="#0B244A"/>
<path d="M246.875 84.2184C247.602 83.9966 248.324 84.239 248.98 84.5639C249.79 84.9662 250.543 85.4715 251.327 85.9099C252.906 86.7969 254.65 87.4106 256.476 86.998C257.616 86.7402 257.131 84.9919 255.991 85.2498C252.447 86.0543 249.975 81.3769 246.39 82.4702C245.275 82.8105 245.75 84.5639 246.875 84.2184Z" fill="#0B244A"/>
<path d="M422.545 123.566C421.451 122.478 420.13 121.632 418.882 120.73C417.742 119.91 416.607 119.085 415.472 118.26C413.124 116.547 410.782 114.83 408.444 113.103C403.115 109.163 397.806 105.187 392.512 101.2C380.966 92.5108 369.471 83.7594 357.945 75.039C347.368 67.0354 336.781 59.0369 326.07 51.2087C324.249 49.8782 322.418 48.5528 320.586 47.2378C320.725 44.7676 320.87 42.2923 321.014 39.8221C321.267 35.547 321.654 31.2615 321.747 26.9761C321.829 23.3095 321.36 19.1014 318.491 16.4765C316.283 14.455 312.739 13.3514 310.02 15.048C306.965 16.9561 306.615 20.9476 306.836 24.2016C307.327 31.4936 310.216 38.5071 314.844 44.1436C316.025 45.5824 317.325 46.9129 318.718 48.1403C318.693 48.5992 318.667 49.0531 318.641 49.512C318.579 49.5739 318.517 49.6513 318.466 49.7492C311.743 62.9047 304.05 75.5702 295.465 87.591C294.856 88.4419 294.248 89.2877 293.634 90.1283C293.567 90.2159 293.5 90.3036 293.438 90.3913C284.806 86.5803 276.293 82.5011 267.919 78.1435C265.273 76.7666 262.641 75.3639 260.026 73.9302C259.623 73.7137 258.999 73.8013 258.782 74.2551C257.74 76.4829 256.693 78.7056 255.651 80.9334C255.145 82.0061 254.644 83.0839 254.139 84.1565C253.664 85.1621 253.092 86.1832 252.926 87.2971C252.617 89.4424 254.258 91.1854 255.475 92.7583C256.646 94.2693 257.879 95.7391 259.174 97.1469C264.406 102.851 270.638 107.724 277.573 111.189C284.337 114.567 291.823 116.656 299.407 116.754C305.877 116.841 312.362 115.511 318.3 112.932C318.352 113.629 318.404 114.325 318.46 115.021C319.172 123.71 320.287 132.369 321.964 140.924C322.779 145.086 323.728 149.217 324.827 153.317C325.25 154.889 326.076 156.622 325.689 158.278C325.42 159.428 324.791 160.428 324.234 161.454C323.723 162.398 323.212 163.435 323.295 164.543C323.403 165.961 324.445 166.895 325.539 167.663C328.511 169.762 332.179 170.531 335.765 170.587C339.454 170.644 343.132 170.005 346.728 169.267C350.252 168.54 353.766 167.777 357.274 166.977C371.189 163.806 385.171 159.938 397.847 153.244C403.925 150.037 409.667 146.143 414.682 141.43C417.236 139.032 419.573 136.427 421.694 133.643C422.88 132.085 424.139 130.404 424.413 128.408C424.671 126.531 423.845 124.866 422.54 123.566H422.545Z" fill="#C5E2E0"/>
<path d="M319.673 113.304C329.254 107.177 337.111 98.4258 342.178 88.246C343.597 85.3942 344.799 82.4392 345.769 79.4069C346.125 78.293 344.376 77.8134 344.02 78.9222C340.666 89.4011 334.413 98.8745 326.168 106.156C323.847 108.209 321.37 110.07 318.754 111.741C317.774 112.37 318.682 113.938 319.673 113.309V113.304Z" fill="#0B244A"/>
<path d="M235.746 150.449C225.438 149.882 215.093 149.506 204.769 149.83C209.867 147.958 214.505 144.627 217.926 140.584C223.513 133.988 226.846 124.097 222.497 115.98C222.017 115.088 221.444 114.263 220.81 113.474C214.665 105.976 203.686 106.213 195.539 109.941C186.706 113.984 179.354 122.519 178.209 132.354C177.734 136.412 178.513 140.677 180.814 144.101C183.09 147.489 186.593 149.805 190.514 150.821C186.128 151.29 181.759 151.898 177.399 152.61C172.596 153.394 167.802 154.26 163.009 155.101C161.859 155.302 162.349 157.05 163.494 156.849C171.61 155.431 179.715 153.904 187.893 152.914C196.736 151.842 205.636 151.476 214.546 151.543C221.62 151.594 228.693 151.883 235.756 152.275C236.922 152.337 236.917 150.527 235.756 150.46L235.746 150.449Z" fill="#0B244A"/>
<path d="M240.353 55.9479C239.548 54.9578 238.315 54.4369 236.86 54.4627C235.452 54.4936 234.007 55.0558 232.795 56.0356C231.582 57.0206 230.736 58.315 230.411 59.6816C230.076 61.0946 230.334 62.4147 231.139 63.4049C231.938 64.395 233.166 64.8849 234.513 64.8849C235.859 64.8849 237.407 64.3589 238.702 63.3172C241.241 61.2596 241.983 57.954 240.358 55.9428L240.353 55.9479Z" fill="#165C7E"/>
<path d="M380.945 34.629C380.744 33.2573 379.722 32.1691 378.267 32.2929C377.272 32.3754 376.142 33.0974 375.234 32.3806C373.469 30.9779 374.052 28.1777 373.985 26.2541C373.944 25.0474 373.743 23.7891 373.041 22.7783C372.339 21.7624 371.256 21.1075 370.059 20.8496C368.774 20.5763 367.464 20.6794 366.184 20.9321C364.642 21.2364 363.078 21.7675 361.484 21.6232C359.075 21.4066 357.238 19.4933 356.067 17.5234C354.622 15.0893 354.024 12.2736 352.956 9.67962C351.939 7.21459 350.49 4.99194 348.421 3.27983C344.304 -0.128925 338.535 -1.06234 333.675 1.33565C329.094 3.5944 326.767 8.43679 325.25 13.0626C325.059 13.6453 324.879 14.2281 324.708 14.8108C324.461 14.6509 324.213 14.5117 323.991 14.3931C322.578 13.6505 320.968 13.2947 319.399 13.0368C317.645 12.748 315.865 12.6191 314.085 12.681C313.574 12.6964 313.017 12.6913 312.506 12.8047C312.439 12.7119 312.347 12.6294 312.238 12.583C309.612 11.4072 306.971 12.8718 305.376 15.0016C303.782 17.1314 303.086 20.1122 300.821 21.6953C300.382 21.9996 300.155 22.7164 300.635 23.1187C303.503 25.5218 307.373 26.4346 311.01 25.496C311.408 25.3929 311.66 25.0164 311.676 24.6193C311.681 24.444 311.696 24.2532 311.722 24.0624C313.296 29.7557 316.402 34.9848 319.771 39.8015C319.771 39.8015 319.781 39.8118 319.781 39.8169C319.817 39.8736 319.859 39.9355 319.91 39.9871C320.22 40.3017 320.89 40.3739 321.195 39.9871C321.21 39.9665 321.226 39.9407 321.246 39.9149C321.355 39.8118 321.432 39.6932 321.473 39.5539C321.819 38.9196 321.995 38.1564 322.191 37.4808C322.624 35.9647 322.995 34.4279 323.357 32.8963C324.223 29.1833 325.008 25.4393 325.601 21.6696C325.818 20.2978 326.039 18.9003 326.086 17.5079C326.086 17.3635 326.091 17.2139 326.091 17.0592C326.266 16.9974 326.426 16.8633 326.535 16.6364C326.973 15.7081 327.886 15.2491 328.893 15.2337C330.033 15.213 331.029 15.7803 331.823 16.5642C333.804 18.5187 334.759 21.422 335.703 23.9644C336.647 26.5068 337.627 29.0182 339.067 31.3286C340.403 33.4687 342.028 35.449 343.906 37.1405C347.869 40.7142 352.729 42.7719 358.053 43.1535C361.2 43.3804 364.389 43.1432 367.505 42.6997C370.497 42.2768 373.454 41.5548 376.25 40.4048C378.639 39.425 381.389 37.6149 380.945 34.6239V34.629Z" fill="#0B244A"/>
<path d="M328.144 17.5079C327.603 15.703 326.617 14.0476 325.286 12.7171C324.837 12.2684 324.017 12.2375 323.573 12.7171C323.13 13.2018 323.093 13.9496 323.573 14.4292C323.852 14.7077 324.094 15.0119 324.352 15.3059C324.373 15.3317 324.394 15.3626 324.414 15.3935C324.471 15.4709 324.523 15.5482 324.579 15.6256C324.698 15.8009 324.812 15.9763 324.92 16.1619C325.126 16.5074 325.312 16.8633 325.472 17.2243C325.472 17.2346 325.487 17.2552 325.493 17.2758C325.529 17.3687 325.565 17.4615 325.601 17.5595C325.673 17.7606 325.74 17.9617 325.802 18.1628C325.983 18.7662 326.659 19.2097 327.288 19.0086C327.902 18.8126 328.33 18.168 328.134 17.5234L328.144 17.5079ZM324.337 15.2749C324.337 15.2749 324.347 15.2904 324.352 15.2956C324.296 15.2234 324.239 15.1408 324.337 15.2749Z" fill="#165C7E"/>
<path d="M318.811 26.5687C317.697 25.7539 316.231 25.8158 315.158 26.646C314.003 27.5382 313.203 28.8738 312.883 30.2868C312.703 31.0913 313.523 31.5658 314.116 31.3698L315.36 34.3196C314.962 34.5156 314.704 34.923 314.833 35.3871C314.952 35.8254 315.489 36.1967 315.948 36.0214C318.316 35.1138 320.127 32.5611 320.323 30.0445C320.426 28.7191 319.9 27.3629 318.816 26.5687H318.811Z" fill="#C5E2E0"/>
<path d="M491.603 168.545C490.922 164.621 489.317 160.882 487.207 157.52C482.465 149.97 475.346 144.08 467.906 139.315C460.218 134.385 451.824 130.487 443.172 127.568C439.498 126.33 435.753 125.268 431.95 124.52C428.979 123.932 425.898 123.463 422.86 123.587C420.177 123.695 417.133 124.396 416.132 127.212C415.709 128.403 415.776 129.723 415.946 130.961C416.163 132.519 416.607 134.04 417.097 135.535C418.469 139.754 420.182 143.859 421.627 148.051C423.432 153.291 424.929 158.649 425.744 164.141C426.182 167.106 426.404 170.108 426.409 173.104C426.425 185.228 428.824 197.718 434.716 208.419C439.07 216.324 445.999 223.993 455.255 225.746C459.47 226.545 463.773 226.014 467.71 224.333C471.811 222.58 475.356 219.666 478.261 216.309C485.633 207.779 489.503 196.491 491.107 185.475C491.587 182.175 491.881 178.849 491.974 175.512C492.041 173.171 492.005 170.861 491.603 168.55V168.545Z" fill="#0B244A"/>
<path d="M399.756 121.405H331.503C290.12 121.405 256.455 155.054 256.455 196.418C256.455 237.782 290.12 271.432 331.503 271.432H399.756C441.139 271.432 474.804 237.782 474.804 196.418C474.804 155.054 441.139 121.405 399.756 121.405Z" fill="#165C7E"/>
<path d="M436.073 210.203C433.044 202.236 426.239 196.027 417.979 193.845C413.129 192.566 407.918 192.963 402.945 192.963H387.915C380.228 192.963 372.814 196.14 367.701 201.926C361.943 208.445 359.699 217.526 361.778 225.973C363.816 234.245 369.889 241.114 377.772 244.291C380.986 245.585 384.428 246.178 387.884 246.178H411.153C419.826 246.147 428.009 241.872 432.993 234.781C437.966 227.706 439.143 218.284 436.073 210.198V210.203Z" fill="#BFD3B6"/>
<path d="M388.153 207.057C384.933 214.953 384.294 223.792 386.259 232.084C386.528 233.219 388.277 232.739 388.008 231.599C386.11 223.606 386.806 215.143 389.902 207.537C390.088 207.078 389.701 206.547 389.267 206.423C388.751 206.273 388.333 206.603 388.153 207.057Z" fill="#0B244A"/>
<path d="M411.865 207.057C408.646 214.953 408.006 223.792 409.972 232.084C410.24 233.219 411.989 232.739 411.721 231.599C409.822 223.606 410.518 215.143 413.614 207.537C413.8 207.078 413.413 206.547 412.979 206.423C412.464 206.273 412.046 206.603 411.865 207.057Z" fill="#0B244A"/>
<path d="M313.611 124.541C310.974 123.21 307.646 123.478 304.798 123.798C301.347 124.185 297.937 124.927 294.588 125.845C286.075 128.171 277.805 131.59 270.076 135.834C262.136 140.192 254.448 145.581 248.567 152.543C245.863 155.74 243.567 159.278 242.025 163.182C241.308 164.992 240.771 166.874 240.456 168.798C240.069 171.17 240.059 173.542 240.136 175.945C240.529 187.837 243.263 200.101 249.511 210.342C254.196 218.026 261.424 225.004 270.757 226.014C279.827 226.994 287.881 221.605 293.242 214.721C300.325 205.629 303.849 194.072 305.144 182.753C305.51 179.55 305.686 176.327 305.691 173.109C305.701 167.091 306.651 161.14 308.214 155.333C309.519 150.485 311.253 145.777 313.012 141.079C314.276 137.701 315.741 134.241 316.19 130.636C316.49 128.228 315.943 125.722 313.611 124.541Z" fill="#0B244A"/>
</g>
<defs>
<clipPath id="clip0_4_881">
<rect width="492" height="400" fill="white"/>
</clipPath>
</defs>
</svg>
