<svg width="48" height="48" viewBox="0 0 48 48" fill="none" xmlns="http://www.w3.org/2000/svg">
<path fill-rule="evenodd" clip-rule="evenodd" d="M38.4948 7.20977C38.4871 6.60401 38.4712 6.05487 38.4518 5.57172C38.3709 3.56157 36.9937 1.70262 34.7035 1.56456C34.2209 1.53547 33.6572 1.51758 33 1.51758C32.3428 1.51758 31.7791 1.53547 31.2965 1.56456C29.0063 1.70262 27.6291 3.56157 27.5482 5.57172C27.5363 5.86881 27.5257 6.19086 27.5175 6.53567C26.4048 6.51265 25.2326 6.5 24 6.5C22.7674 6.5 21.5952 6.51265 20.4825 6.53567C20.4743 6.19086 20.4637 5.86881 20.4518 5.57172C20.3709 3.56157 18.9937 1.70262 16.7035 1.56456C16.2209 1.53547 15.6572 1.51758 15 1.51758C14.3428 1.51758 13.7791 1.53547 13.2965 1.56456C11.0063 1.70262 9.62911 3.56157 9.54822 5.57172C9.52878 6.05487 9.51292 6.60401 9.50516 7.20977C8.90245 7.27707 8.35202 7.345 7.85312 7.4115C4.99137 7.79296 2.78459 9.96553 2.37415 12.8296C1.95694 15.7408 1.5 20.3364 1.5 26.5C1.5 32.6636 1.95694 37.2592 2.37415 40.1704C2.78459 43.0345 4.99137 45.207 7.85311 45.5885C11.0517 46.0149 16.3682 46.5 24 46.5C31.6318 46.5 36.9483 46.0149 40.1469 45.5885C43.0086 45.207 45.2154 43.0345 45.6259 40.1704C46.0431 37.2592 46.5 32.6636 46.5 26.5C46.5 20.3364 46.0431 15.7408 45.6259 12.8296C45.2154 9.96553 43.0086 7.79296 40.1469 7.4115C39.648 7.345 39.0975 7.27706 38.4948 7.20977ZM20 25C20 23.8954 20.8954 23 22 23H26C27.1046 23 28 23.8954 28 25C28 26.1046 27.1046 27 26 27H22C20.8954 27 20 26.1046 20 25ZM33 23C31.8954 23 31 23.8954 31 25C31 26.1046 31.8954 27 33 27H37C38.1046 27 39 26.1046 39 25C39 23.8954 38.1046 23 37 23H33ZM17 25C17 23.8954 16.1046 23 15 23H11C9.89543 23 9 23.8954 9 25C9 26.1046 9.89543 27 11 27H15C16.1046 27 17 26.1046 17 25ZM22 33C20.8954 33 20 33.8954 20 35C20 36.1046 20.8954 37 22 37H26C27.1046 37 28 36.1046 28 35C28 33.8954 27.1046 33 26 33H22ZM31 35C31 33.8954 31.8954 33 33 33H37C38.1046 33 39 33.8954 39 35C39 36.1046 38.1046 37 37 37H33C31.8954 37 31 36.1046 31 35ZM15 33C16.1046 33 17 33.8954 17 35C17 36.1046 16.1046 37 15 37H11C9.89543 37 9 36.1046 9 35C9 33.8954 9.89543 33 11 33H15Z" fill="white"/>
</svg>
