<svg width="45" height="44" viewBox="0 0 45 44" fill="none" xmlns="http://www.w3.org/2000/svg">
<path fill-rule="evenodd" clip-rule="evenodd" d="M2.21369 7.45772C1.97003 10.4567 1.71512 15.2154 1.71512 22C1.71512 28.7846 1.97002 33.5433 2.21368 36.5423C2.45855 39.5561 4.78397 41.8816 7.79783 42.1264C10.7968 42.3701 15.5555 42.625 22.3401 42.625C29.1247 42.625 33.8834 42.3701 36.8824 42.1264C39.8962 41.8816 42.2217 39.5561 42.4665 36.5423C42.7102 33.5433 42.9651 28.7846 42.9651 22C42.9651 15.2154 42.7102 10.4567 42.4665 7.45773C42.2217 4.44387 39.8963 2.11844 36.8824 1.87358C33.8834 1.62991 29.1248 1.375 22.3401 1.375C15.5555 1.375 10.7968 1.6299 7.79785 1.87357C4.78399 2.11844 2.45856 4.44385 2.21369 7.45772ZM29.6735 17.4167C29.6735 20.0188 28.3182 22.3044 26.2749 23.6061C29.6733 24.8429 32.2955 27.6357 33.2328 31.0973C33.5556 32.2896 32.8709 33.5672 31.6383 33.6486C29.5014 33.7898 26.4405 33.9167 22.3403 33.9167C18.2401 33.9167 15.1791 33.7898 13.0422 33.6486C11.8103 33.5672 11.1257 32.2903 11.4482 31.0986C12.3852 27.6367 15.0073 24.8434 18.4057 23.6064C16.3623 22.3047 15.0068 20.019 15.0068 17.4167C15.0068 13.3666 18.29 10.0833 22.3401 10.0833C26.3901 10.0833 29.6735 13.3666 29.6735 17.4167Z" fill="#0A244B"/>
</svg>
