<svg width="45" height="44" viewBox="0 0 45 44" fill="none" xmlns="http://www.w3.org/2000/svg">
<path d="M26.9235 20.1667C26.9235 23.7105 24.0506 26.5833 20.5068 26.5833C16.963 26.5833 14.0901 23.7105 14.0901 20.1667C14.0901 16.6228 16.963 13.75 20.5068 13.75C24.0506 13.75 26.9235 16.6228 26.9235 20.1667Z" fill="#F25D1D"/>
<path fill-rule="evenodd" clip-rule="evenodd" d="M36.8824 1.87357C33.8834 1.62991 29.1247 1.375 22.3401 1.375C15.5555 1.375 10.7968 1.62991 7.79784 1.87357C4.78398 2.11844 2.45856 4.44385 2.21368 7.45772C1.97003 10.4567 1.71512 15.2154 1.71512 22C1.71512 28.7846 1.97002 33.5433 2.21368 36.5423C2.45855 39.5562 4.78398 41.8816 7.79784 42.1264C10.7968 42.3701 15.5555 42.625 22.3401 42.625C29.1247 42.625 33.8834 42.3701 36.8824 42.1264C39.8962 41.8816 42.2217 39.5562 42.4665 36.5423C42.7102 33.5433 42.9651 28.7846 42.9651 22C42.9651 15.2154 42.7102 10.4567 42.4665 7.45773C42.2217 4.44386 39.8962 2.11844 36.8824 1.87357ZM29.9674 25.7823C30.9452 24.1384 31.5068 22.2182 31.5068 20.1667C31.5068 14.0915 26.5819 9.16667 20.5068 9.16667C14.4317 9.16667 9.50679 14.0915 9.50679 20.1667C9.50679 26.2418 14.4317 31.1667 20.5068 31.1667C22.5888 31.1667 24.5356 30.5883 26.1955 29.5834L26.4395 29.8776C27.3558 30.983 28.258 32.0716 29.261 33.1454C30.2522 34.2066 31.7524 34.3382 32.8019 33.3345C32.9489 33.1939 33.1059 33.0405 33.2732 32.8731C33.4405 32.7058 33.5939 32.5489 33.7346 32.4019C34.7382 31.3524 34.6066 29.8523 33.5454 28.861C32.4716 27.858 31.383 26.9557 30.2775 26.0394L29.9674 25.7823Z" fill="#F25D1D"/>
</svg>
