<svg width="66" height="66" viewBox="0 0 66 66" fill="none" xmlns="http://www.w3.org/2000/svg">
<path fill-rule="evenodd" clip-rule="evenodd" d="M20.1865 3.01262C22.8445 2.59134 27.4046 2.0625 33.5478 2.0625C39.6912 2.0625 44.2511 2.59134 46.9091 3.01262C48.8239 3.3161 50.1165 4.98403 50.1165 6.86892C50.1165 10.9038 47.939 14.4288 44.6967 16.3351C49.9014 18.9596 54.3484 23.2259 57.5637 28.0959C61.0398 33.3608 63.1103 39.3834 63.1103 44.884C63.1103 51.92 59.7209 56.7298 54.2993 59.7398C48.9259 62.7228 41.5712 63.9375 33.5478 63.9375C25.5245 63.9375 18.1698 62.7228 12.7964 59.7398C7.37471 56.7298 3.98535 51.92 3.98535 44.884C3.98535 39.3834 6.05585 33.3608 9.53196 28.0959C12.7473 23.2259 17.1944 18.9596 22.3989 16.335C19.1568 14.4288 16.979 10.9038 16.979 6.86892C16.979 4.98403 18.2718 3.3161 20.1865 3.01262ZM28.1843 45.375C29.8052 48.3207 32.6729 50.1875 35.75 50.1875C37.33 50.1875 38.8211 49.7144 40.125 48.8657C41.0798 48.2445 42.3574 48.5147 42.9786 49.4695C43.6 50.4241 43.3297 51.7018 42.375 52.3232C40.4431 53.5803 38.1771 54.3125 35.75 54.3125C30.1657 54.3125 25.6018 50.5343 23.6752 45.375H20.625C19.4859 45.375 18.5625 44.4515 18.5625 43.3125C18.5625 42.1735 19.4859 41.25 20.625 41.25H22.7469C22.7076 40.7962 22.6875 40.3374 22.6875 39.875C22.6875 39.4126 22.7076 38.9538 22.7469 38.5H20.625C19.4859 38.5 18.5625 37.5765 18.5625 36.4375C18.5625 35.2985 19.4859 34.375 20.625 34.375H23.6752C25.6018 29.2157 30.1657 25.4375 35.75 25.4375C38.1771 25.4375 40.4431 26.1697 42.375 27.4268C43.3297 28.0482 43.6 29.3259 42.9786 30.2805C42.3574 31.2353 41.0798 31.5055 40.125 30.8843C38.8211 30.0356 37.33 29.5625 35.75 29.5625C32.6729 29.5625 29.8052 31.4293 28.1843 34.375H37.125C38.264 34.375 39.1875 35.2985 39.1875 36.4375C39.1875 37.5765 38.264 38.5 37.125 38.5H26.8898C26.8389 38.9477 26.8125 39.4065 26.8125 39.875C26.8125 40.3435 26.8389 40.8023 26.8898 41.25H37.125C38.264 41.25 39.1875 42.1735 39.1875 43.3125C39.1875 44.4515 38.264 45.375 37.125 45.375H28.1843Z" fill="white"/>
</svg>
