<svg width="48" height="48" viewBox="0 0 48 48" fill="none" xmlns="http://www.w3.org/2000/svg">
<path fill-rule="evenodd" clip-rule="evenodd" d="M25.4842 1.83081C28.3254 1.61953 34.5615 1.27881 41.3674 1.70172C44.0227 1.86671 46.1322 3.97617 46.2972 6.63147C46.7231 13.4861 46.3745 19.7629 46.1636 22.5755C46.0666 23.868 45.6124 25.1039 44.815 26.1496C42.4287 29.2787 35.591 37.6407 25.0458 45.6195C23.3272 46.9199 20.8994 47.3979 18.8271 46.0245C16.9386 44.7729 14.0302 42.4265 9.90457 38.0259C6.36041 34.2455 4.15002 31.6 2.78433 29.8211C0.992497 27.4871 1.24325 24.4516 2.96859 22.2722C10.9041 12.2481 18.7651 5.64611 21.8001 3.25449C22.8683 2.41267 24.1442 1.93045 25.4842 1.83081ZM36.9998 7.5C35.0668 7.5 33.4998 9.067 33.4998 11C33.4998 12.933 35.0668 14.5 36.9998 14.5C38.9328 14.5 40.4998 12.933 40.4998 11C40.4998 9.067 38.9328 7.5 36.9998 7.5ZM16.034 22.4642C17.2637 19.0087 20.36 16.7273 23.9196 16.7273C26.7793 16.7273 28.485 17.8256 29.2915 18.5415C29.7099 18.913 29.9733 19.5312 29.7169 20.1063C29.6425 20.2733 29.5472 20.4272 29.4363 20.5693C29.1868 20.889 28.8347 21.015 28.479 21.021C28.127 21.0269 27.7613 20.9169 27.449 20.7535C26.533 20.2743 25.3956 19.969 24.1782 20.0888C22.2707 20.2765 21.0754 21.1993 20.3873 22.4416L20.6181 22.4416C23.6146 22.4416 25.4464 22.4649 26.3117 22.4798C26.7288 22.487 27.2384 22.6695 27.3616 23.1913C27.3958 23.3362 27.4181 23.5059 27.4181 23.7018C27.4181 23.8977 27.3958 24.0674 27.3616 24.2122C27.2384 24.7341 26.7288 24.9165 26.3117 24.9237C25.4464 24.9387 23.6146 24.962 20.6181 24.962C20.2815 24.962 19.9596 24.9617 19.6521 24.9612C19.6245 25.2446 19.6112 25.5312 19.6112 25.8182C19.6112 26.1052 19.6245 26.3918 19.6521 26.6752C19.9596 26.6747 20.2815 26.6743 20.6181 26.6743C23.6146 26.6743 25.4464 26.6977 26.3117 26.7126C26.7288 26.7198 27.2384 26.9023 27.3616 27.4241C27.3958 27.569 27.4181 27.7387 27.4181 27.9346C27.4181 28.1305 27.3958 28.3002 27.3616 28.4451C27.2384 28.9669 26.7288 29.1493 26.3117 29.1565C25.4464 29.1715 23.6146 29.1948 20.6181 29.1948L20.3873 29.1947C21.0754 30.4371 22.2707 31.3599 24.1782 31.5476C25.3956 31.6674 26.533 31.3621 27.449 30.8829C27.7613 30.7195 28.127 30.6095 28.479 30.6154C28.8347 30.6214 29.1868 30.7474 29.4363 31.0671C29.5472 31.2092 29.6425 31.363 29.7169 31.5301C29.9733 32.1052 29.7099 32.7234 29.2915 33.0949C28.485 33.8108 26.7793 34.9091 23.9196 34.9091C20.36 34.9091 17.2637 32.6276 16.034 29.1721C15.5645 29.1667 15.1967 29.1612 14.9245 29.1565C14.5074 29.1493 13.9978 28.9669 13.8746 28.4451C13.8404 28.3002 13.8181 28.1305 13.8181 27.9346C13.8181 27.7387 13.8404 27.569 13.8746 27.4241C13.9978 26.9023 14.5074 26.7198 14.9245 26.7126C15.0847 26.7099 15.2781 26.7068 15.5058 26.7037C15.4814 26.4134 15.4689 26.1181 15.4689 25.8182C15.4689 25.5183 15.4814 25.223 15.5058 24.9327C15.2781 24.9295 15.0847 24.9265 14.9245 24.9237C14.5074 24.9165 13.9978 24.7341 13.8746 24.2122C13.8404 24.0674 13.8181 23.8977 13.8181 23.7018C13.8181 23.5059 13.8404 23.3362 13.8746 23.1913C13.9978 22.6695 14.5074 22.487 14.9245 22.4798C15.1967 22.4752 15.5645 22.4696 16.034 22.4642Z" fill="white"/>
</svg>
