<svg width="48" height="48" viewBox="0 0 48 48" fill="none" xmlns="http://www.w3.org/2000/svg">
<path fill-rule="evenodd" clip-rule="evenodd" d="M1.5 24C1.5 36.4264 11.5736 46.5 24 46.5C36.4264 46.5 46.5 36.4264 46.5 24C46.5 11.5736 36.4264 1.5 24 1.5C11.5736 1.5 1.5 11.5736 1.5 24ZM9.5 24C9.5 32.0081 15.9919 38.5 24 38.5C32.0081 38.5 38.5 32.0081 38.5 24C38.5 15.9919 32.0081 9.5 24 9.5C15.9919 9.5 9.5 15.9919 9.5 24ZM24 41.5C14.335 41.5 6.5 33.665 6.5 24C6.5 14.335 14.335 6.5 24 6.5C33.665 6.5 41.5 14.335 41.5 24C41.5 33.665 33.665 41.5 24 41.5ZM20.5 24C20.5 24.3433 20.5203 24.677 20.559 25H26C26.8284 25 27.5 25.6716 27.5 26.5C27.5 27.3284 26.8284 28 26 28H21.5957C22.5839 29.5668 24.1162 30.5 25.6667 30.5C26.5502 30.5 27.3939 30.2187 28.1446 29.6975C28.8252 29.2251 29.7598 29.3938 30.2322 30.0744C30.7046 30.7549 30.5359 31.6896 29.8554 32.162C28.6449 33.0022 27.2117 33.5 25.6667 33.5C22.2485 33.5 19.5243 31.1635 18.2628 28H17C16.1716 28 15.5 27.3284 15.5 26.5C15.5 25.6716 16.1716 25 17 25H17.5459C17.5155 24.6696 17.5 24.3358 17.5 24C17.5 23.6642 17.5155 23.3304 17.5459 23H17C16.1716 23 15.5 22.3284 15.5 21.5C15.5 20.6716 16.1716 20 17 20H18.2628C19.5243 16.8365 22.2485 14.5 25.6667 14.5C27.2117 14.5 28.6449 14.9978 29.8554 15.838C30.5359 16.3104 30.7046 17.2451 30.2322 17.9256C29.7598 18.6062 28.8252 18.7749 28.1446 18.3025C27.3939 17.7813 26.5502 17.5 25.6667 17.5C24.1162 17.5 22.5839 18.4332 21.5957 20H26C26.8284 20 27.5 20.6716 27.5 21.5C27.5 22.3284 26.8284 23 26 23H20.559C20.5203 23.323 20.5 23.6567 20.5 24Z" fill="white"/>
</svg>
