<svg width="66" height="66" viewBox="0 0 66 66" fill="none" xmlns="http://www.w3.org/2000/svg">
<path d="M43.1557 2.11359C34.6723 2.46051 23.9587 4.70305 16.0639 12.5979C6.79593 21.8659 4.88458 35.8115 11.4135 45.6041C9.06283 50.7922 7.56266 56.288 7.56266 61.875C7.56266 63.0141 8.48608 63.9375 9.62516 63.9375C10.7642 63.9375 11.6877 63.0141 11.6877 61.875C11.6877 57.6348 12.6855 53.3614 14.3711 49.1747C14.376 49.1794 14.3808 49.1842 14.3856 49.1888C16.2425 44.665 18.9161 40.3312 21.9517 36.3219C21.3291 32.4037 21.5202 28.1031 21.8527 24.8127C22.0274 23.0835 22.2451 21.5971 22.4196 20.5407C22.5135 19.9717 22.6126 19.4032 22.7289 18.8385C22.959 17.7336 24.0649 16.999 25.1731 17.2314C26.2789 17.4632 26.9905 18.541 26.7741 19.6464C26.8152 19.4447 26.7434 19.8316 26.661 20.2753C26.5893 20.6618 26.5095 21.0914 26.4894 21.2127C26.3259 22.2023 26.1211 23.601 25.9568 25.2274C25.7563 27.2117 25.6218 29.4832 25.683 31.7391C26.5228 30.7747 27.3748 29.8356 28.2311 28.9238C30.262 26.7618 32.3407 24.7299 34.3774 22.8569C34.4185 18.8133 34.935 15.7245 35.4676 13.5935C35.7641 12.4079 36.1093 11.1956 36.6478 10.0922L36.6518 10.0841L36.6536 10.0807L36.6551 10.0776C37.1645 9.05877 38.4034 8.64582 39.4223 9.15523C40.4376 9.66292 40.8512 10.8951 40.3497 11.912L40.3442 11.9237C40.2907 12.0376 39.8863 12.9267 39.4694 14.594C39.1882 15.7187 38.9009 17.2001 38.7128 19.0391C43.5172 14.9839 47.6543 12.0434 49.7309 10.6589C50.6787 10.027 51.9592 10.2832 52.5912 11.2309C53.223 12.1787 52.9669 13.4593 52.0192 14.0911C49.5111 15.7631 43.7791 19.8678 37.5905 25.5079C39.88 25.7029 42.0327 26.1528 43.8056 26.6247C45.3161 27.0266 46.589 27.4549 47.4883 27.7843C47.9797 27.9643 48.4702 28.1504 48.9499 28.3596L48.9546 28.3616C49.9974 28.8197 50.4715 30.0365 50.0135 31.0794C49.5555 32.1221 48.3391 32.5963 47.2963 32.1387C46.8935 31.9643 46.4819 31.8087 46.0697 31.6577C45.2634 31.3624 44.1114 30.9746 42.7448 30.6109C39.9921 29.8783 36.5163 29.2839 33.2788 29.635C32.5951 30.3238 31.9135 31.0285 31.2377 31.7481C28.8532 34.2867 26.5736 36.9739 24.5334 39.7622C27.0559 39.4384 29.4541 39.3898 31.4261 39.4461C32.9937 39.491 34.3166 39.6029 35.2526 39.7045C35.7601 39.7595 36.268 39.8196 36.772 39.9024L36.7746 39.9028L36.7765 39.903C37.9001 40.0903 38.6591 41.1531 38.4719 42.2766C38.2846 43.3999 37.2224 44.159 36.099 43.9721C35.6707 43.9029 35.2391 43.8522 34.8079 43.8054C33.9606 43.7136 32.7483 43.6106 31.3083 43.5695C28.4524 43.4878 24.7939 43.6523 21.3319 44.5706C19.8944 46.9733 18.6748 49.4275 17.7506 51.9058C27.5377 58.3517 41.4171 56.4211 50.652 47.186C58.5469 39.2912 60.7895 28.5776 61.1363 20.0942C61.3422 15.0582 61.0719 9.80129 59.9175 4.86978C59.7401 4.11346 59.1345 3.50941 58.3786 3.33215C53.444 2.18428 48.1945 1.90755 43.1557 2.11359Z" fill="white"/>
</svg>
