<svg width="66" height="66" viewBox="0 0 66 66" fill="none" xmlns="http://www.w3.org/2000/svg">
<path d="M23.2343 20.8592C23.3031 25.414 23.375 31.92 23.375 39.1875C23.375 48.8692 23.2473 57.1995 23.1699 61.3655C23.9961 61.4855 24.8717 61.6072 25.7908 61.728C32.3613 62.5917 41.185 63.4116 50.1491 63.2224C54.2073 63.1367 58.0909 60.86 59.5621 56.8737C63.2253 46.9484 63.453 34.2837 63.1584 26.5054C62.9705 21.5428 58.7976 17.8264 53.8628 18.1258C50.8668 18.3077 47.6077 18.5799 43.9784 18.9136C44.0267 16.6626 43.9995 14.2212 43.8268 11.8062C43.5859 8.44032 41.8285 4.85117 38.152 3.74321C36.8456 3.34949 35.5231 3.11179 34.3509 2.968C31.1801 2.57902 28.5889 4.7968 27.7542 7.59164C26.6992 11.1248 25.0221 16.4248 23.2343 20.8592Z" fill="#F25D1D"/>
<path fill-rule="evenodd" clip-rule="evenodd" d="M6.73669 63.4444C7.89953 63.7231 9.33538 63.9375 11 63.9375C12.6646 63.9375 14.1005 63.7231 15.2633 63.4444C18.2654 62.725 19.6952 59.9518 19.7526 57.4302C19.8301 54.0259 19.9375 48.0751 19.9375 41.25C19.9375 34.4249 19.8301 28.474 19.7526 25.0698C19.6952 22.5482 18.2654 19.775 15.2633 19.0556C14.1005 18.7769 12.6646 18.5625 11 18.5625C9.33538 18.5625 7.89953 18.7769 6.73669 19.0556C3.73468 19.775 2.30476 22.5482 2.24738 25.0698C2.16993 28.474 2.0625 34.4249 2.0625 41.25C2.0625 48.0751 2.16993 54.0259 2.24738 57.4302C2.30476 59.9518 3.73468 62.725 6.73669 63.4444ZM13.75 50.875C13.75 49.3562 12.5188 48.125 11 48.125C9.48122 48.125 8.25 49.3562 8.25 50.875V53.625C8.25 55.1438 9.48122 56.375 11 56.375C12.5188 56.375 13.75 55.1438 13.75 53.625V50.875Z" fill="#F25D1D"/>
</svg>
