<svg width="66" height="66" viewBox="0 0 66 66" fill="none" xmlns="http://www.w3.org/2000/svg">
<path d="M42.9034 3.5945C44.4198 3.49956 45.7315 3.67157 46.8002 3.93884C49.1997 4.53899 50.3408 6.85795 50.4237 9.07683C50.5556 12.598 50.739 18.8934 50.7852 27.5171C46.3335 27.6418 40.2436 28.194 35.5653 29.1488C31.8271 29.9116 29.3296 33.3623 29.9192 37.1899C30.0633 38.1249 30.2665 39.1419 30.5542 40.1751C31.1482 42.3085 32.5915 43.8436 34.3504 44.7552C34.0853 44.9678 33.8286 45.1963 33.5826 45.4423C31.9535 47.0714 30.9375 49.3225 30.9375 52.25C30.9375 53.3891 31.861 54.3125 33 54.3125C34.1391 54.3125 35.0625 53.3891 35.0625 52.25C35.0625 50.3653 35.6793 49.1792 36.4994 48.3592C37.3733 47.4852 38.6238 46.8875 40.0562 46.5105C41.1755 46.2158 42.3174 46.0794 43.3026 46.0253C44.1661 46.0485 45.0777 46.062 46.0334 46.0628C46.0558 46.0631 46.0782 46.0631 46.1005 46.0628C46.1042 46.0628 46.1079 46.0628 46.1116 46.0628C47.2506 46.0628 48.1741 45.1394 48.1741 44.0003C48.1741 42.8808 47.2821 41.9696 46.17 41.9386C46.1447 41.9363 46.1152 41.9338 46.0816 41.9312C45.9682 41.922 45.8087 41.9106 45.6096 41.9001C45.2119 41.8792 44.653 41.8618 43.9853 41.8735C43.7554 41.8776 43.5109 41.885 43.2541 41.8972C41.1953 41.8385 39.4332 41.7234 38.0318 41.6019C36.2226 41.4451 34.9037 40.4177 34.528 39.0686C34.2922 38.2219 34.1204 37.3684 33.9962 36.5618C33.7502 34.9657 34.7513 33.5249 36.3902 33.1905C41.0384 32.2417 47.2618 31.7077 51.5089 31.6257C53.6603 32.8528 55.8088 34.2018 57.2485 35.9676C58.1013 37.0132 58.7184 38.2176 58.9471 39.6384C59.1755 41.0566 59.0095 42.6435 58.3692 44.4453C56.7861 48.8996 55.0304 52.3864 53.4666 54.9934C50.8321 59.3849 46.137 61.7499 41.1254 62.1515C35.0237 62.6406 28.8747 62.707 22.7627 62.3218C16.6401 61.9359 11.3413 58.2149 9.86371 52.1553C8.65255 47.1882 7.56477 39.913 7.56284 29.8007C7.56284 22.1022 7.81578 16.0494 8.0214 12.4008C8.16874 9.78606 9.76211 7.27925 12.5158 6.76928C13.5588 6.57615 14.762 6.45373 16.0486 6.51107C18.9662 6.6411 20.7856 9.2202 21.0871 11.872C21.417 14.7733 21.8417 19.1052 22.1442 24.3297C26.5642 23.5707 30.2793 23.2115 32.9332 23.0428C34.3361 22.9536 35.4428 22.9177 36.2009 22.904C36.3813 22.9008 36.5417 22.8987 36.682 22.8976C36.7513 19.442 37.2918 13.3987 37.6875 9.34617C37.9606 6.54966 39.847 3.78584 42.9034 3.5945Z" fill="#F25D1D"/>
</svg>
