<svg width="62" height="62" viewBox="0 0 62 62" fill="none" xmlns="http://www.w3.org/2000/svg">
<path fill-rule="evenodd" clip-rule="evenodd" d="M61.1271 52.7509C61.4926 48.2525 61.875 41.1144 61.875 30.9375C61.875 20.7606 61.4926 13.6225 61.1271 9.1241C60.7599 4.60331 57.2718 1.11517 52.7509 0.747863C48.2525 0.38236 41.1146 0 30.9375 0C20.7606 0 13.6225 0.382346 9.1241 0.747835C4.60331 1.11514 1.11517 4.60328 0.747863 9.12407C0.38236 13.6225 0 20.7604 0 30.9375C0 41.1144 0.382346 48.2523 0.747849 52.7509C1.11514 57.2716 4.60328 60.7599 9.12407 61.1271C13.6225 61.4926 20.7606 61.875 30.9375 61.875C41.1144 61.875 48.2525 61.4926 52.7509 61.1271C57.2718 60.7599 60.7599 57.2716 61.1271 52.7509ZM47.1322 26.0278C47.836 29.0989 47.3096 32.402 45.6918 35.068C42.937 39.6147 38.5407 43.1823 34.2033 46.4093C32.2688 47.8484 29.6062 47.8484 27.6717 46.4093C23.3343 43.1823 18.938 39.6147 16.1833 35.068C14.5654 32.402 14.039 29.0989 14.7428 26.0278C16.2462 19.0319 24.5715 16.1733 29.7575 20.8615C30.0487 21.123 30.3171 21.413 30.5928 21.7107C30.7058 21.8328 30.8201 21.9561 30.9375 22.0795C31.0551 21.9561 31.1692 21.8328 31.2822 21.7107C31.5579 21.413 31.8263 21.123 32.1175 20.8615C37.3035 16.1733 45.6288 19.0319 47.1322 26.0278Z" fill="#F25D1D"/>
</svg>
