<svg width="48" height="48" viewBox="0 0 48 48" fill="none" xmlns="http://www.w3.org/2000/svg">
<path d="M30 34.9874C30 34.0912 30.2218 33.6474 30.4342 33.4078C30.6718 33.154 30.9676 33 31.5 33C32.0146 33 32.3073 33.1512 32.552 33.4164C32.7721 33.6548 33 34.0923 33 34.9874C33 35.9076 32.7678 36.3498 32.552 36.5836C32.3072 36.8488 32.0146 37 31.5 37C30.9677 37 30.6719 36.846 30.4343 36.5923C30.2259 36.357 30 35.9082 30 34.9874Z" fill="white"/>
<path d="M15.4342 21.4078C15.2219 21.6474 15 22.0912 15 22.9874C15 23.9082 15.2259 24.357 15.4343 24.5923C15.6719 24.846 15.9677 25 16.5 25C17.0146 25 17.3072 24.8488 17.552 24.5836C17.7678 24.3499 18 23.9076 18 22.9874C18 22.0923 17.7721 21.6548 17.552 21.4164C17.3073 21.1512 17.0146 21 16.5 21C15.9676 21 15.6718 21.154 15.4342 21.4078Z" fill="white"/>
<path fill-rule="evenodd" clip-rule="evenodd" d="M14.2827 2.191C16.2158 1.88461 19.5322 1.5 24 1.5C28.4678 1.5 31.7842 1.88461 33.7173 2.191C35.1098 2.41171 36.05 3.62475 36.05 4.99558C36.05 7.93007 34.4663 10.4937 32.1083 11.8801C35.8934 13.7888 39.1277 16.8916 41.4661 20.4334C43.9942 24.2624 45.5 28.6425 45.5 32.6429C45.5 37.76 43.035 41.258 39.0919 43.4471C35.1841 45.6166 29.8351 46.5 24 46.5C18.1649 46.5 12.8159 45.6166 8.90806 43.4471C4.96499 41.258 2.5 37.76 2.5 32.6429C2.5 28.6425 4.00582 24.2624 6.5339 20.4334C8.87232 16.8916 12.1066 13.7888 15.8917 11.88C13.5337 10.4937 11.95 7.93007 11.95 4.99558C11.95 3.62475 12.8902 2.41171 14.2827 2.191ZM31.5 29C29.9514 29 28.5522 29.5492 27.4868 30.7035L27.4717 30.72C26.4109 31.8956 26 33.4035 26 34.9874C26 36.5798 26.4067 38.0998 27.4717 39.28L27.4868 39.2965C28.5522 40.4508 29.9514 41 31.5 41C33.0434 41 34.4319 40.4445 35.4914 39.2965C36.58 38.117 37 36.5908 37 34.9874C37 33.3925 36.5757 31.8783 35.4914 30.7035C34.4319 29.5555 33.0433 29 31.5 29ZM12.4868 18.7035C13.5522 17.5492 14.9514 17 16.5 17C18.0433 17 19.4319 17.5555 20.4914 18.7035C21.5757 19.8783 22 21.3925 22 22.9874C22 24.5908 21.58 26.117 20.4914 27.2965C19.4319 28.4445 18.0434 29 16.5 29C14.9514 29 13.5522 28.4508 12.4868 27.2965L12.4717 27.28C11.4067 26.0998 11 24.5798 11 22.9874C11 21.4035 11.4109 19.8956 12.4717 18.72L12.4868 18.7035ZM33.4142 22.4142C34.1953 21.6332 34.1953 20.3668 33.4142 19.5858C32.6332 18.8047 31.3668 18.8047 30.5858 19.5858L14.5858 35.5858C13.8047 36.3668 13.8047 37.6332 14.5858 38.4142C15.3668 39.1953 16.6332 39.1953 17.4142 38.4142L33.4142 22.4142Z" fill="white"/>
</svg>
