<svg width="22" height="22" viewBox="0 0 22 22" fill="none" xmlns="http://www.w3.org/2000/svg">
<g clip-path="url(#clip0_1_93)">
<path d="M22 11.0291C22 12.8624 22 14.6958 22 16.5291C22 19.5265 19.5264 22 16.5291 22C12.8333 22 9.10845 22 5.41269 22C2.70634 22 0.320093 19.8466 0.058188 17.1402C-0.0291136 16.3254 -1.31042e-05 15.4815 -1.31042e-05 14.6667C-1.31042e-05 11.6111 -1.31042e-05 8.55556 -1.31042e-05 5.5C-1.31042e-05 2.44444 2.47353 0 5.49999 0C9.19575 0 12.8624 0 16.5582 0C19.5555 0 22 2.47354 22 5.4709C22 7.33333 22 9.16667 22 11.0291ZM11.0291 1.57143C10.127 1.57143 9.19575 1.57143 8.29364 1.57143C7.39152 1.57143 6.4603 1.57143 5.55819 1.57143C3.31745 1.57143 1.57142 3.31746 1.57142 5.5291C1.57142 9.16667 1.57142 12.8333 1.57142 16.4709C1.57142 18.6825 3.28835 20.4286 5.52909 20.4286C9.16665 20.4286 12.8333 20.4286 16.4709 20.4286C18.7116 20.4286 20.4286 18.7116 20.4286 16.4709C20.4286 12.8333 20.4286 9.16667 20.4286 5.5291C20.4286 3.28836 18.7116 1.57143 16.4709 1.57143C14.6667 1.57143 12.8333 1.57143 11.0291 1.57143Z" fill="#0A244B"/>
<path d="M16.5 11C16.5 14.0555 14.0265 16.5 10.9709 16.5C8.00265 16.5 5.5 13.9973 5.5 11.0291C5.5 7.97351 7.97355 5.49996 11.0291 5.52906C14.0265 5.49996 16.5 8.00261 16.5 11ZM11 7.07139C8.84656 7.07139 7.07143 8.81742 7.07143 11C7.07143 13.1825 8.81746 14.9285 11 14.9285C13.1825 14.9285 14.9286 13.1825 14.9286 11C14.9286 8.81742 13.1825 7.07139 11 7.07139Z" fill="#0A244B"/>
<path d="M17.2857 6.28568C16.4418 6.28568 15.7143 5.55817 15.7434 4.71425C15.7434 3.84124 16.4709 3.14282 17.3439 3.14282C18.1878 3.14282 18.9154 3.87034 18.8863 4.71425C18.8572 5.58727 18.1296 6.28568 17.2857 6.28568Z" fill="#0A244B"/>
</g>
<defs>
<clipPath id="clip0_1_93">
<rect width="22" height="22" fill="white"/>
</clipPath>
</defs>
</svg>
