<svg width="26" height="22" viewBox="0 0 26 22" fill="none" xmlns="http://www.w3.org/2000/svg">
<path d="M24.2449 5.33242C23.9742 4.31406 23.1793 3.51484 22.1696 3.24414C20.3391 2.75 13 2.75 13 2.75C13 2.75 5.66096 2.75 3.83049 3.24414C2.82073 3.51484 2.02581 4.31406 1.7551 5.33242C1.26526 7.17578 1.26526 11.0172 1.26526 11.0172C1.26526 11.0172 1.26526 14.8586 1.7551 16.702C2.02581 17.716 2.82073 18.4852 3.83049 18.7559C5.66096 19.25 13 19.25 13 19.25C13 19.25 20.3391 19.25 22.1696 18.7559C23.1793 18.4852 23.9742 17.716 24.2449 16.702C24.7348 14.8586 24.7348 11.0172 24.7348 11.0172C24.7348 11.0172 24.7348 7.17148 24.2449 5.33242ZM10.5981 14.5063V7.52812L16.7297 11.0172L10.5981 14.5063Z" fill="#0A244B"/>
</svg>
