<svg width="44" height="44" viewBox="0 0 44 44" fill="none" xmlns="http://www.w3.org/2000/svg">
<rect width="44" height="44" rx="15" fill="#0A244B"/>
<g clip-path="url(#clip0_1_192)">
<path d="M13.4488 13.9923C14.6891 10.4663 18.0481 7.9375 22 7.9375C25.9519 7.9375 29.3109 10.4663 30.5512 13.9923C33.7557 15.0806 36.0625 18.1136 36.0625 21.6875C36.0625 26.1748 32.4248 29.8125 27.9375 29.8125C26.5853 29.8125 25.3102 29.4819 24.1888 28.8978C24.2521 33.0214 24.5 34.1875 24.5 34.1875H27.625C28.1427 34.1875 28.5625 34.6073 28.5625 35.125C28.5625 35.6427 28.1427 36.0625 27.625 36.0625H16.375C15.8573 36.0625 15.4375 35.6427 15.4375 35.125C15.4375 34.6073 15.8573 34.1875 16.375 34.1875H22.625C22.625 34.1875 22.3734 33.0042 22.3125 28.806L22.3136 28.7254L22.3113 28.7232C22.3036 28.1668 22.2993 27.5583 22.2993 26.8933C22.2993 25.6721 22.2999 24.5987 22.3008 23.6654C22.7448 23.2389 23.481 22.5221 24.5458 21.4573C25.6778 20.3253 26.4164 19.5646 26.8312 19.1318C27.0972 18.8542 27.2029 18.4589 26.9652 18.1567C26.9075 18.0834 26.8383 18.0046 26.7555 17.9218C26.6726 17.8389 26.5939 17.7698 26.5206 17.7121C26.2184 17.4743 25.8231 17.5801 25.5455 17.8461C25.1127 18.2608 24.352 18.9994 23.2199 20.1315C22.8801 20.4714 22.5758 20.7778 22.3049 21.0518C22.3066 20.2786 22.3084 19.703 22.3098 19.3107C22.3113 18.8891 22.1744 18.4411 21.7732 18.3116C21.6584 18.2746 21.5255 18.25 21.375 18.25C21.2246 18.25 21.0917 18.2746 20.9768 18.3116C20.5756 18.4411 20.4387 18.8891 20.4403 19.3107C20.4434 20.1908 20.4484 21.9931 20.4501 24.8809C20.1601 24.5871 19.8299 24.2544 19.457 23.8815C18.3249 22.7494 17.5642 22.0108 17.1314 21.5961C16.8539 21.3301 16.4585 21.2243 16.1564 21.4621C16.0831 21.5198 16.0042 21.5889 15.9214 21.6718C15.8386 21.7546 15.7694 21.8334 15.7118 21.9067C15.474 22.2089 15.5797 22.6042 15.8457 22.8818C16.2605 23.3146 16.9991 24.0753 18.1311 25.2073C19.257 26.3332 20.0156 27.0699 20.4496 27.4859C20.4481 27.8532 20.4452 28.2019 20.4412 28.5327C19.1778 29.3424 17.6751 29.8125 16.0625 29.8125C11.5752 29.8125 7.9375 26.1748 7.9375 21.6875C7.9375 18.1136 10.2443 15.0806 13.4488 13.9923Z" fill="white"/>
</g>
<defs>
<clipPath id="clip0_1_192">
<rect width="30" height="30" fill="white" transform="translate(7 7)"/>
</clipPath>
</defs>
</svg>
