<svg width="49" height="48" viewBox="0 0 49 48" fill="none" xmlns="http://www.w3.org/2000/svg">
<circle cx="24.2756" cy="24" r="24" fill="#7F8CA0"/>
<path d="M27.8769 13.307C28.4283 13.2724 28.9053 13.335 29.2939 13.4322C30.1664 13.6504 30.5814 14.4937 30.6115 15.3005C30.6595 16.581 30.7262 18.8702 30.743 22.0061C29.1242 22.0514 26.9097 22.2522 25.2085 22.5994C23.8491 22.8768 22.9409 24.1316 23.1553 25.5235C23.2077 25.8635 23.2816 26.2333 23.3862 26.609C23.6022 27.3848 24.1271 27.943 24.7667 28.2745C24.6703 28.3518 24.5769 28.4349 24.4875 28.5243C23.8951 29.1167 23.5256 29.9353 23.5256 30.9999C23.5256 31.4141 23.8614 31.7499 24.2756 31.7499C24.6898 31.7499 25.0256 31.4141 25.0256 30.9999C25.0256 30.3145 25.2499 29.8832 25.5481 29.585C25.8659 29.2672 26.3206 29.0499 26.8415 28.9128C27.2485 28.8056 27.6638 28.756 28.022 28.7363C28.336 28.7448 28.6675 28.7497 29.015 28.75C29.0232 28.7501 29.0313 28.7501 29.0394 28.75C29.0408 28.75 29.0421 28.75 29.0435 28.75C29.4577 28.75 29.7935 28.4142 29.7935 28C29.7935 27.5929 29.4691 27.2615 29.0647 27.2503C29.0555 27.2494 29.0448 27.2485 29.0326 27.2476C28.9913 27.2442 28.9333 27.2401 28.8609 27.2363C28.7163 27.2287 28.5131 27.2223 28.2703 27.2266C28.1867 27.2281 28.0978 27.2308 28.0044 27.2352C27.2557 27.2139 26.615 27.172 26.1054 27.1278C25.4475 27.0708 24.9679 26.6972 24.8313 26.2066C24.7455 25.8987 24.683 25.5884 24.6379 25.2951C24.5484 24.7147 24.9125 24.1907 25.5084 24.0691C27.1987 23.7241 29.4617 23.5299 31.0061 23.5001C31.7885 23.9463 32.5697 24.4369 33.0933 25.079C33.4034 25.4592 33.6278 25.8972 33.7109 26.4138C33.794 26.9295 33.7336 27.5066 33.5008 28.1618C32.9251 29.7815 32.2867 31.0495 31.718 31.9975C30.76 33.5944 29.0527 34.4544 27.2303 34.6004C25.0115 34.7783 22.7755 34.8024 20.553 34.6623C18.3266 34.522 16.3997 33.1689 15.8624 30.9654C15.422 29.1592 15.0265 26.5137 15.0258 22.8365C15.0258 20.037 15.1177 17.836 15.1925 16.5093C15.2461 15.5584 15.8255 14.6469 16.8268 14.4614C17.2061 14.3912 17.6436 14.3467 18.1115 14.3675C19.1724 14.4148 19.834 15.3527 19.9437 16.317C20.0636 17.372 20.2181 18.9472 20.3281 20.847C21.9353 20.571 23.2863 20.4404 24.2513 20.3791C24.7615 20.3466 25.1639 20.3336 25.4396 20.3286C25.5052 20.3274 25.5635 20.3267 25.6145 20.3263C25.6397 19.0697 25.8363 16.8721 25.9802 15.3985C26.0795 14.3816 26.7654 13.3765 27.8769 13.307Z" fill="white"/>
</svg>
