<svg width="49" height="48" viewBox="0 0 49 48" fill="none" xmlns="http://www.w3.org/2000/svg">
<circle cx="24.2756" cy="24" r="24" fill="#F25D1D"/>
<path fill-rule="evenodd" clip-rule="evenodd" d="M31.541 12.75L33.8701 12.75C34.7202 12.75 35.4829 13.371 35.5184 14.2577C35.5229 14.3699 35.5255 14.4847 35.5255 14.6C35.5255 14.7153 35.5229 14.8301 35.5184 14.9423C35.4829 15.829 34.7202 16.45 33.8701 16.45H32.3214C31.916 17.878 31.5538 19.2399 31.1964 20.5835C30.6268 22.7254 30.0694 24.8212 29.3688 27.0647C29.0503 28.0845 28.2212 28.8669 27.1365 28.9993C26.0943 29.1266 24.4887 29.25 22.1803 29.25C19.8076 29.25 18.2307 29.1196 17.2442 28.9885C16.2754 28.8596 15.5218 28.1834 15.2058 27.2779C14.4597 25.1392 13.797 22.5215 13.3638 20.0732C13.1262 18.7299 14.1852 17.55 15.5307 17.55H28.0202L28.916 14.6805C29.2745 13.5321 30.3379 12.75 31.541 12.75ZM19.1342 20.51C19.6809 20.4319 20.1875 20.8118 20.2656 21.3586L20.7656 24.8586C20.8437 25.4053 20.4638 25.9118 19.917 25.99C19.3703 26.0681 18.8638 25.6882 18.7857 25.1414L18.2857 21.6414C18.2076 21.0947 18.5875 20.5882 19.1342 20.51ZM24.2857 21.3586C24.3638 20.8118 24.8703 20.4319 25.417 20.51C25.9638 20.5882 26.3437 21.0947 26.2656 21.6414L25.7656 25.1414C25.6875 25.6882 25.1809 26.0681 24.6342 25.99C24.0875 25.9118 23.7076 25.4053 23.7857 24.8586L24.2857 21.3586Z" fill="white"/>
<path d="M15.0256 32.75C15.0256 31.3693 16.1449 30.25 17.5256 30.25C18.9063 30.25 20.0256 31.3693 20.0256 32.75C20.0256 34.1307 18.9063 35.25 17.5256 35.25C16.1449 35.25 15.0256 34.1307 15.0256 32.75Z" fill="white"/>
<path d="M27.0256 30.25C25.6449 30.25 24.5256 31.3693 24.5256 32.75C24.5256 34.1307 25.6449 35.25 27.0256 35.25C28.4063 35.25 29.5256 34.1307 29.5256 32.75C29.5256 31.3693 28.4063 30.25 27.0256 30.25Z" fill="white"/>
</svg>
