<svg width="49" height="48" viewBox="0 0 49 48" fill="none" xmlns="http://www.w3.org/2000/svg">
<circle cx="24.2759" cy="24" r="24" fill="#7F8CA0"/>
<path d="M26.9144 12.5232C27.7853 12.5412 28.4427 13.3081 28.345 14.1737L28.2327 15.1683C28.147 15.9268 27.5055 16.5 26.7422 16.5H22.3096C21.5463 16.5 20.9047 15.9268 20.8191 15.1683L20.7068 14.1737C20.609 13.3082 21.2665 12.5412 22.1373 12.5232C22.8501 12.5085 23.6437 12.5 24.5263 12.5C25.4085 12.5 26.2019 12.5085 26.9144 12.5232Z" fill="white"/>
<path fill-rule="evenodd" clip-rule="evenodd" d="M29.8517 13.8691C29.8586 14.0246 29.8535 14.1826 29.8355 14.342L29.7232 15.3366C29.5519 16.8535 28.2688 18 26.7422 18H22.3096C20.783 18 19.4998 16.8535 19.3285 15.3366L19.2162 14.342C19.1982 14.1826 19.1931 14.0246 19.2001 13.8691C18.4448 13.9079 17.8191 13.9523 17.3074 13.9968C15.7959 14.128 14.6502 15.2685 14.5225 16.7844C14.3995 18.2455 14.2759 20.6663 14.2759 24.5C14.2759 28.3337 14.3995 30.7544 14.5225 32.2156C14.6502 33.7315 15.7959 34.8719 17.3074 35.0032C18.7262 35.1264 21.022 35.25 24.5259 35.25C28.0297 35.25 30.3255 35.1264 31.7443 35.0032C33.2559 34.872 34.4015 33.7315 34.5292 32.2156C34.6523 30.7544 34.7759 28.3337 34.7759 24.5C34.7759 20.6663 34.6523 18.2455 34.5292 16.7844C34.4015 15.2685 33.2559 14.128 31.7443 13.9968C31.2327 13.9523 30.607 13.9079 29.8517 13.8691ZM18.7759 24.5C18.7759 23.9477 19.2236 23.5 19.7759 23.5H28.7759C29.3282 23.5 29.7759 23.9477 29.7759 24.5C29.7759 25.0523 29.3282 25.5 28.7759 25.5H19.7759C19.2236 25.5 18.7759 25.0523 18.7759 24.5ZM19.7759 28C19.2236 28 18.7759 28.4477 18.7759 29C18.7759 29.5523 19.2236 30 19.7759 30H24.2759C24.8282 30 25.2759 29.5523 25.2759 29C25.2759 28.4477 24.8282 28 24.2759 28H19.7759Z" fill="white"/>
</svg>
