<svg width="49" height="48" viewBox="0 0 49 48" fill="none" xmlns="http://www.w3.org/2000/svg">
<circle cx="24.2757" cy="24" r="24" fill="#7F8CA0"/>
<path fill-rule="evenodd" clip-rule="evenodd" d="M17.4879 16.5057C15.786 16.4562 16.3406 19.504 16.7264 20.8757C16.8246 21.2251 16.8371 21.6106 16.5956 21.8814C16.29 22.224 15.715 22.6197 14.7067 22.5697C14.2137 22.5452 13.8122 22.1838 13.6771 21.7091C12.7763 18.5433 13.1174 13.3723 17.5852 13.5024C21.1635 13.6066 23.3062 17.4481 24.1159 20.2787C24.8574 20.2672 25.601 20.3605 26.323 20.5887C27.8444 21.0696 28.6939 22.1079 29.1611 23.1854C29.7474 22.7916 30.4761 22.5148 31.3678 22.5148C33.2787 22.5148 34.6728 23.7361 35.4365 25.2147C35.68 25.6861 35.5693 26.2605 35.1306 26.5589C34.7264 26.8337 34.1525 27.1071 33.4668 27.1092C32.9838 27.1107 32.6355 26.7155 32.3858 26.3021C32.0148 25.6882 31.5988 25.5195 31.3678 25.5195C30.683 25.5195 30.2239 26.3946 29.9609 27.1301C29.8059 27.5638 29.5034 27.9458 29.0485 28.0181C28.6111 28.0876 28.0088 28.1024 27.3575 27.8799C26.8706 27.7137 26.619 27.2107 26.6073 26.6964C26.5914 25.9954 26.5395 25.3193 26.3717 24.7286C26.1262 23.8646 25.5857 23.4044 24.672 23.3059C24.7225 23.86 24.7488 24.4326 24.7488 25.0224C24.7488 29.4692 23.2229 32.2885 20.9993 33.6412C18.8991 34.9188 16.176 34.7648 14.7584 33.2202C12.0688 30.2897 13.8258 26.3106 16.3209 23.8728C17.627 22.5967 19.2686 21.5225 21.0056 20.8879C20.5936 19.5308 19.4113 16.5617 17.4879 16.5057ZM21.5444 23.9375C20.4854 24.4171 19.4521 25.1281 18.5952 25.9653C17.3156 27.2156 15.6331 29.596 17.149 31.2478C17.2904 31.4018 18.1725 31.7908 19.2879 31.1122C20.2799 30.5088 21.5798 28.8728 21.5798 25.0224C21.5798 24.6491 21.5676 24.2874 21.5444 23.9375Z" fill="white"/>
<path fill-rule="evenodd" clip-rule="evenodd" d="M25.0257 31C25.0257 30.5858 25.3615 30.25 25.7757 30.25H34.7757C35.1899 30.25 35.5257 30.5858 35.5257 31C35.5257 31.4142 35.1899 31.75 34.7757 31.75H25.7757C25.3615 31.75 25.0257 31.4142 25.0257 31Z" fill="white"/>
</svg>
