<svg width="16" height="16" viewBox="0 0 16 16" fill="none" xmlns="http://www.w3.org/2000/svg">
<path d="M8 10.5C11.2728 10.5 13.0505 10.4249 13.9434 10.3658C14.5759 10.3239 15.2617 9.95813 15.4058 9.177C15.4612 8.87673 15.5 8.49127 15.5 8C15.5 7.50873 15.4612 7.12327 15.4058 6.823C15.2617 6.04187 14.5759 5.6761 13.9434 5.63423C13.0505 5.57513 11.2728 5.5 8 5.5C4.72723 5.5 2.9495 5.57513 2.05657 5.63423C1.42414 5.6761 0.738343 6.04187 0.59424 6.823C0.538843 7.12327 0.5 7.50873 0.5 8C0.5 8.49127 0.53884 8.87673 0.59424 9.177C0.738343 9.9581 1.42414 10.3239 2.05657 10.3658C2.9495 10.4249 4.72723 10.5 8 10.5Z" fill="#F25D1D"/>
</svg>
