<svg width="16" height="16" viewBox="0 0 16 16" fill="none" xmlns="http://www.w3.org/2000/svg">
<g clip-path="url(#clip0_19_843)">
<path d="M15.4058 6.823C15.2617 6.04187 14.5759 5.6761 13.9434 5.63423C13.3089 5.59223 12.2284 5.5422 10.4833 5.5167C10.4578 3.7716 10.4078 2.69105 10.3658 2.05657C10.3239 1.42414 9.95813 0.738343 9.177 0.594237C8.87673 0.538843 8.49127 0.5 8 0.5C7.50873 0.5 7.12327 0.538843 6.823 0.594237C6.04187 0.738343 5.6761 1.42414 5.63423 2.05657C5.59223 2.69105 5.5422 3.7716 5.5167 5.5167C3.7716 5.5422 2.69105 5.59223 2.05657 5.63423C1.42414 5.6761 0.738343 6.04187 0.59424 6.823C0.538843 7.12327 0.5 7.50873 0.5 8C0.5 8.49127 0.538843 8.87673 0.594237 9.177C0.738343 9.95813 1.42414 10.3239 2.05657 10.3658C2.69105 10.4078 3.7716 10.4578 5.5167 10.4833C5.5422 12.2284 5.59223 13.3089 5.63423 13.9434C5.6761 14.5759 6.04187 15.2617 6.823 15.4058C7.12327 15.4612 7.50873 15.5 8 15.5C8.49127 15.5 8.87673 15.4612 9.177 15.4058C9.95813 15.2617 10.3239 14.5759 10.3658 13.9434C10.4078 13.3089 10.4578 12.2284 10.4833 10.4833C12.2284 10.4578 13.3089 10.4078 13.9434 10.3658C14.5759 10.3239 15.2617 9.95813 15.4058 9.177C15.4612 8.87673 15.5 8.49127 15.5 8C15.5 7.50873 15.4612 7.12327 15.4058 6.823Z" fill="#F25D1D"/>
</g>
<defs>
<clipPath id="clip0_19_843">
<rect width="16" height="16" fill="white"/>
</clipPath>
</defs>
</svg>
