<svg width="16" height="16" viewBox="0 0 16 16" fill="none" xmlns="http://www.w3.org/2000/svg">
<g clip-path="url(#clip0_773_4073)">
<path fill-rule="evenodd" clip-rule="evenodd" d="M8 15.5C3.85787 15.5 0.5 12.1421 0.5 8C0.5 3.85787 3.85787 0.5 8 0.5C12.1421 0.5 15.5 3.85787 15.5 8C15.5 12.1421 12.1421 15.5 8 15.5ZM6.66667 4.16667C6.66667 3.4303 7.26363 2.83333 8 2.83333C8.73637 2.83333 9.33333 3.4303 9.33333 4.16667C9.33333 4.90303 8.73637 5.5 8 5.5C7.26363 5.5 6.66667 4.90303 6.66667 4.16667ZM8.96017 7.038C8.93667 6.6587 8.69397 6.36387 8.31457 6.34183C8.22313 6.33653 8.11877 6.33333 8 6.33333H6.83333C6.63817 6.33333 6.47517 6.33817 6.33957 6.34567C5.94403 6.36763 5.67983 6.65933 5.66993 7.05537C5.66787 7.1378 5.66667 7.23013 5.66667 7.33333C5.66667 7.43653 5.66787 7.52887 5.66993 7.6113C5.67983 8.00733 5.94403 8.29903 6.33957 8.321C6.47517 8.3285 6.63817 8.33333 6.83333 8.33333C6.8922 8.33333 6.9481 8.3329 7.00123 8.33207C7.00043 8.43797 7 8.54943 7 8.66667V10.6761C6.5767 10.6849 6.2609 10.6986 6.02927 10.7128C5.66463 10.7351 5.37197 10.9595 5.34503 11.3238C5.3378 11.4219 5.33333 11.5355 5.33333 11.6667C5.33333 11.7978 5.3378 11.9115 5.34503 12.0095C5.37197 12.3738 5.66463 12.5982 6.02927 12.6205C6.41577 12.6442 7.03657 12.6667 8 12.6667C8.96343 12.6667 9.58423 12.6442 9.97073 12.6205C10.3354 12.5982 10.628 12.3738 10.655 12.0095C10.6622 11.9115 10.6667 11.7978 10.6667 11.6667C10.6667 11.5355 10.6622 11.4219 10.655 11.3238C10.628 10.9595 10.3354 10.7351 9.97073 10.7128C9.7391 10.6986 9.4233 10.6849 9 10.6761V8.66667C9 7.89903 8.98137 7.38 8.96017 7.038Z" fill="#155C7E"/>
</g>
<defs>
<clipPath id="clip0_773_4073">
<rect width="16" height="16" fill="white"/>
</clipPath>
</defs>
</svg>
