<svg width="12" height="12" viewBox="0 0 12 12" fill="none" xmlns="http://www.w3.org/2000/svg">
<g clip-path="url(#clip0_437_4686)">
<path fill-rule="evenodd" clip-rule="evenodd" d="M0.375 5.4711C0.375 2.65665 2.65548 0.375 5.4687 0.375C8.28193 0.375 10.5624 2.65665 10.5624 5.4711C10.5624 6.4638 10.2786 7.39055 9.7876 8.1741C9.86178 8.23588 9.9358 8.29728 10.0097 8.35857L10.0125 8.3609C10.421 8.69975 10.8265 9.03608 11.227 9.40748C11.7079 9.85335 11.7742 10.5468 11.3069 11.0301C11.2641 11.0744 11.2185 11.1209 11.1698 11.1695C11.1212 11.2182 11.0748 11.2639 11.0305 11.3068C10.5475 11.7744 9.85435 11.708 9.40878 11.2268C9.03765 10.826 8.70155 10.4202 8.36298 10.0115L8.36138 10.0095L8.36088 10.0089C8.29988 9.93528 8.23883 9.86158 8.1774 9.78767C7.39273 10.2815 6.46388 10.5672 5.4687 10.5672C2.65548 10.5672 0.375 8.28555 0.375 5.4711ZM5.5 8.75C7.29493 8.75 8.75 7.29492 8.75 5.5C8.75 3.70508 7.29493 2.25 5.5 2.25C3.70508 2.25 2.25 3.70508 2.25 5.5C2.25 7.29492 3.70508 8.75 5.5 8.75Z" fill="#0A244B"/>
</g>
<defs>
<clipPath id="clip0_437_4686">
<rect width="12" height="12" fill="white"/>
</clipPath>
</defs>
</svg>
