<?xml version="1.0" standalone="no"?>
<!DOCTYPE svg PUBLIC "-//W3C//DTD SVG 20010904//EN"
 "http://www.w3.org/TR/2001/REC-SVG-20010904/DTD/svg10.dtd">
<svg version="1.0" xmlns="http://www.w3.org/2000/svg"
 width="700.000000pt" height="700.000000pt" viewBox="0 0 700.000000 700.000000"
 preserveAspectRatio="xMidYMid meet">
<metadata>
Created by potrace 1.14, written by Peter Selinger 2001-2017
</metadata>
<g transform="translate(0.000000,700.000000) scale(0.100000,-0.100000)"
fill="#000000" stroke="none">
<path d="M1818 4805 c-2 -2 -34 -5 -73 -9 -228 -19 -450 -105 -640 -248 -83
-63 -226 -216 -270 -289 -175 -292 -236 -519 -230 -861 2 -86 5 -160 8 -165 3
-4 8 -30 11 -58 9 -65 21 -110 57 -219 97 -289 298 -537 554 -683 141 -80 235
-113 425 -149 14 -3 93 -7 175 -9 213 -5 352 27 544 127 105 54 164 99 253
189 l77 78 -4 -187 c-4 -243 -24 -345 -92 -474 -116 -222 -359 -331 -718 -323
-275 6 -516 74 -721 205 -36 22 -51 27 -61 19 -7 -6 -13 -15 -13 -19 0 -4 -43
-95 -95 -203 -52 -107 -95 -201 -95 -209 0 -15 98 -81 191 -129 112 -56 336
-129 474 -154 211 -38 363 -47 555 -32 87 7 107 10 197 28 29 6 55 10 58 10 6
-1 161 55 190 68 11 5 47 21 79 36 116 50 253 147 339 240 161 172 260 377
313 650 16 81 19 320 19 1445 l0 1275 -297 2 c-164 1 -299 -2 -299 -5 -2 -11
-7 -180 -8 -255 l-1 -69 -62 57 c-121 110 -310 222 -443 263 -101 31 -149 40
-250 47 -49 4 -102 8 -117 10 -15 1 -29 1 -30 0z m367 -570 c113 -29 219 -90
304 -173 118 -117 183 -238 221 -412 24 -106 21 -348 -4 -450 -20 -79 -94
-236 -137 -293 -105 -136 -249 -226 -420 -262 -138 -29 -354 -12 -453 36 -22
10 -44 19 -48 19 -18 0 -127 81 -178 132 -211 212 -285 536 -199 872 14 58 77
189 121 255 42 63 139 153 209 195 69 41 181 83 253 95 75 12 262 4 331 -14z"/>
<path d="M4987 4804 c-1 -1 -33 -4 -72 -8 -224 -21 -455 -97 -611 -203 -23
-15 -60 -41 -83 -56 -40 -27 -206 -187 -246 -237 -117 -150 -227 -373 -250
-510 -3 -19 -8 -42 -10 -50 -5 -19 -13 -65 -21 -121 -7 -56 -7 -288 0 -356 48
-449 345 -868 743 -1049 385 -176 879 -172 1238 9 173 87 364 250 474 404 58
82 156 264 165 309 3 10 11 37 19 60 17 46 37 139 53 239 10 62 12 292 3 370
-36 325 -147 567 -363 793 -109 114 -198 179 -366 269 -124 66 -320 119 -479
129 -91 6 -192 10 -194 8z m230 -560 c90 -23 143 -46 222 -99 107 -71 195
-171 254 -290 66 -134 82 -217 81 -425 -1 -169 -20 -261 -79 -381 -37 -75
-125 -198 -166 -233 -154 -130 -266 -175 -454 -183 -144 -6 -245 15 -356 73
-124 65 -269 220 -329 349 -24 52 -57 143 -58 160 -1 10 -8 52 -17 95 -7 31
-7 225 -1 265 22 136 60 245 125 354 151 254 484 389 778 315z"/>
</g>
</svg>
