<svg width="36" height="36" viewBox="0 0 36 36" fill="none" xmlns="http://www.w3.org/2000/svg">
<path fill-rule="evenodd" clip-rule="evenodd" d="M18.2988 1.125C14.9479 1.125 12.4606 1.41346 11.0108 1.64325C9.96645 1.80878 9.2613 2.71856 9.2613 3.74669C9.2613 5.94755 10.4491 7.87028 12.2176 8.91C9.37875 10.3416 6.95307 12.6687 5.19925 15.325C3.30319 18.1968 2.17383 21.4819 2.17383 24.4822C2.17383 28.32 4.02257 30.9435 6.97987 32.5853C9.9108 34.2125 13.9225 34.875 18.2988 34.875C22.6752 34.875 26.6869 34.2125 29.6178 32.5853C32.575 30.9435 34.4238 28.32 34.4238 24.4822C34.4238 21.4819 33.2944 18.1968 31.3984 15.325C29.6446 12.6687 27.2189 10.3416 24.38 8.91008C26.1485 7.87028 27.3363 5.94755 27.3363 3.74669C27.3363 2.71856 26.6312 1.80878 25.5868 1.64325C24.1369 1.41346 21.6497 1.125 18.2988 1.125ZM15.9557 15.0102C17.3729 13.9979 19.3257 14.1012 21.7899 15.0787C22.3675 15.3079 22.6499 15.9618 22.4208 16.5393C22.1917 17.1169 21.5377 17.3993 20.9602 17.1702C18.6988 16.2731 17.7169 16.5173 17.2635 16.8411C16.7377 17.2166 16.3808 18.0443 16.1473 19.4916C16.0886 19.8558 16.0409 20.2337 15.9972 20.625H20.25C20.8713 20.625 21.375 21.1287 21.375 21.75C21.375 22.3713 20.8713 22.875 20.25 22.875H15.7561C15.7079 23.2634 15.6523 23.6511 15.5833 24.027C15.4682 24.6545 15.3043 25.3259 15.0331 25.9529C15.2663 25.9586 15.5128 25.9639 15.7702 25.9684C17.5087 25.9995 19.7241 25.999 21.6799 25.8767C22.3 25.8379 22.8341 26.3092 22.8729 26.9293C22.9117 27.5494 22.4404 28.0836 21.8203 28.1224C19.7761 28.2501 17.4915 28.2496 15.73 28.2181C14.8466 28.2023 14.0894 28.1787 13.5525 28.1589C13.284 28.1491 13.0703 28.1402 12.9234 28.1337L12.8423 28.1301L12.7543 28.126L12.7099 28.124L12.6943 28.1231L12.7501 26.9995C12.6939 28.1231 12.6943 28.1231 12.6943 28.1231C12.1927 28.0981 11.7682 27.7435 11.6543 27.2545C11.5405 26.7653 11.7647 26.26 12.2037 26.0161C12.7304 25.7235 13.1152 25.0115 13.3702 23.6212C13.4143 23.3807 13.4527 23.1318 13.4874 22.875H12.75C12.1287 22.875 11.625 22.3713 11.625 21.75C11.625 21.1287 12.1287 20.625 12.75 20.625H13.7338C13.7871 20.1267 13.8474 19.621 13.9261 19.1333C14.1613 17.6744 14.6109 15.9707 15.9557 15.0102Z" fill="white"/>
</svg>
