<svg width="36" height="36" viewBox="0 0 36 36" fill="none" xmlns="http://www.w3.org/2000/svg">
<path fill-rule="evenodd" clip-rule="evenodd" d="M28.8711 5.40733C28.8653 4.95301 28.8534 4.54115 28.8389 4.17879C28.7782 2.67118 27.7453 1.27696 26.0276 1.17342C25.6657 1.1516 25.2429 1.13818 24.75 1.13818C24.2571 1.13818 23.8343 1.1516 23.4724 1.17342C21.7547 1.27696 20.7218 2.67118 20.6611 4.17879C20.6522 4.40161 20.6443 4.64314 20.6381 4.90175C19.8036 4.88449 18.9244 4.875 18 4.875C17.0756 4.875 16.1964 4.88449 15.3619 4.90175C15.3557 4.64314 15.3478 4.40161 15.3389 4.17879C15.2782 2.67118 14.2453 1.27696 12.5276 1.17342C12.1657 1.1516 11.7429 1.13818 11.25 1.13818C10.7571 1.13818 10.3343 1.1516 9.97237 1.17342C8.25472 1.27696 7.22183 2.67118 7.16116 4.17879C7.14658 4.54115 7.13469 4.95301 7.12887 5.40733C6.67684 5.4578 6.26401 5.50875 5.88984 5.55862C3.74353 5.84472 2.08844 7.47415 1.78061 9.6222C1.46771 11.8056 1.125 15.2523 1.125 19.875C1.125 24.4977 1.46771 27.9444 1.78061 30.1278C2.08844 32.2759 3.74353 33.9053 5.88983 34.1914C8.28877 34.5112 12.2761 34.875 18 34.875C23.7239 34.875 27.7112 34.5112 30.1102 34.1914C32.2565 33.9053 33.9115 32.2759 34.2194 30.1278C34.5323 27.9444 34.875 24.4977 34.875 19.875C34.875 15.2523 34.5323 11.8056 34.2194 9.6222C33.9115 7.47415 32.2565 5.84472 30.1102 5.55862C29.736 5.50875 29.3231 5.45779 28.8711 5.40733ZM15 18.75C15 17.9215 15.6715 17.25 16.5 17.25H19.5C20.3284 17.25 21 17.9215 21 18.75C21 19.5784 20.3284 20.25 19.5 20.25H16.5C15.6715 20.25 15 19.5784 15 18.75ZM24.75 17.25C23.9216 17.25 23.25 17.9215 23.25 18.75C23.25 19.5784 23.9216 20.25 24.75 20.25H27.75C28.5784 20.25 29.25 19.5784 29.25 18.75C29.25 17.9215 28.5784 17.25 27.75 17.25H24.75ZM12.75 18.75C12.75 17.9215 12.0785 17.25 11.25 17.25H8.25C7.42157 17.25 6.75 17.9215 6.75 18.75C6.75 19.5784 7.42157 20.25 8.25 20.25H11.25C12.0785 20.25 12.75 19.5784 12.75 18.75ZM16.5 24.75C15.6715 24.75 15 25.4216 15 26.25C15 27.0784 15.6715 27.75 16.5 27.75H19.5C20.3284 27.75 21 27.0784 21 26.25C21 25.4216 20.3284 24.75 19.5 24.75H16.5ZM23.25 26.25C23.25 25.4216 23.9216 24.75 24.75 24.75H27.75C28.5784 24.75 29.25 25.4216 29.25 26.25C29.25 27.0784 28.5784 27.75 27.75 27.75H24.75C23.9216 27.75 23.25 27.0784 23.25 26.25ZM11.25 24.75C12.0785 24.75 12.75 25.4216 12.75 26.25C12.75 27.0784 12.0785 27.75 11.25 27.75H8.25C7.42157 27.75 6.75 27.0784 6.75 26.25C6.75 25.4216 7.42157 24.75 8.25 24.75H11.25Z" fill="#0A244B"/>
</svg>
