<svg width="36" height="37" viewBox="0 0 36 37" fill="none" xmlns="http://www.w3.org/2000/svg">
<path fill-rule="evenodd" clip-rule="evenodd" d="M4.76723 3.90559C6.86627 2.70613 9.69098 2 12.75 2C15.809 2 18.6338 2.70613 20.7328 3.90559C22.8 5.08686 24.375 6.8902 24.375 9.125C24.375 11.3598 22.8 13.1631 20.7328 14.3444C18.6338 15.5439 15.809 16.25 12.75 16.25C9.69098 16.25 6.86627 15.5439 4.76723 14.3444C2.69999 13.1631 1.125 11.3598 1.125 9.125C1.125 6.8902 2.69999 5.08686 4.76723 3.90559ZM12.75 4.25C10.5422 4.25 8.48768 4.69506 6.94358 5.46711C5.46676 6.20553 4.125 7.43378 4.125 9.125C4.125 10.8162 5.46676 12.0444 6.94358 12.7829C8.48768 13.5549 10.5422 14 12.75 14C14.9579 14 17.0123 13.5549 18.5564 12.7829C20.0333 12.0444 21.375 10.8162 21.375 9.125C21.375 7.43379 20.0333 6.20553 18.5564 5.46712C17.0123 4.69507 14.9579 4.25 12.75 4.25ZM6.375 9.125C6.375 8.74512 6.71218 8.0984 7.94985 7.47958C9.12015 6.8944 10.8157 6.5 12.75 6.5C14.6843 6.5 16.3799 6.8944 17.5502 7.47958C18.7878 8.0984 19.125 8.74512 19.125 9.125C19.125 9.50488 18.7878 10.1516 17.5502 10.7704C16.3799 11.3556 14.6843 11.75 12.75 11.75C10.8157 11.75 9.12015 11.3556 7.94985 10.7704C6.71218 10.1516 6.375 9.50488 6.375 9.125ZM12.75 18.5004C16.128 18.5004 19.3522 17.7251 21.8491 16.2983C22.7339 15.7927 23.615 15.1463 24.375 14.3618V16.625C24.375 17.7375 23.3696 19.3177 21.1673 20.7006C19.0412 22.0358 16.0615 23 12.75 23C9.43853 23 6.45876 22.0357 4.33266 20.7006C2.13035 19.3177 1.125 17.7375 1.125 16.625V14.3618C1.88504 15.1463 2.76614 15.7927 3.65091 16.2983C6.14782 17.7251 9.372 18.5004 12.75 18.5004ZM1.125 23.375V21.0546C1.71889 21.6226 2.40137 22.1448 3.13612 22.6062C5.62461 24.1688 9.0198 25.25 12.75 25.25C16.4802 25.25 19.8754 24.1688 22.3639 22.6062C23.0987 22.1448 23.7812 21.6226 24.375 21.0546V23.375C24.375 24.4875 23.3696 26.0677 21.1673 27.4506C19.0412 28.7858 16.0615 29.75 12.75 29.75C9.43853 29.75 6.45876 28.7857 4.33266 27.4506C2.13035 26.0677 1.125 24.4875 1.125 23.375ZM1.125 28.6254V27.8046C1.71889 28.3726 2.40137 28.8948 3.13612 29.3562C5.62461 30.9188 9.0198 32 12.75 32C16.4802 32 19.8754 30.9188 22.3639 29.3562C23.0987 28.8948 23.7812 28.3726 24.375 27.8046V28.6254C24.375 30.8601 22.8 32.6635 20.7328 33.8448C18.6338 35.0443 15.809 35.7504 12.75 35.7504C9.69098 35.7504 6.86627 35.0443 4.76723 33.8448C2.69999 32.6635 1.125 30.8601 1.125 28.6254ZM31.2327 15.8451C29.9354 16.5865 28.3607 17.1394 26.6249 17.4536V15.1326C27.5209 14.9271 28.343 14.6403 29.0564 14.2837C30.5332 13.5452 31.8749 12.3169 31.8749 10.6258C31.8749 8.9345 30.5332 7.70626 29.0564 6.96785C28.1478 6.51358 27.0626 6.17251 25.8734 5.9687C25.4018 5.02948 24.7421 4.21067 23.992 3.51465C26.764 3.61894 29.3045 4.30448 31.2327 5.40632C33.2999 6.58759 34.8749 8.3909 34.8749 10.6258C34.8749 12.8605 33.2999 14.6639 31.2327 15.8451ZM26.6249 19.7362V24.1633C28.5677 23.7701 30.2952 23.063 31.6673 22.2014C33.8696 20.8185 34.8749 19.2382 34.8749 18.1257V15.8626C34.1149 16.647 33.2338 17.2935 32.349 17.799C30.7025 18.7399 28.7396 19.3975 26.6249 19.7362ZM26.2014 31.0254C26.4708 30.2898 26.6249 29.4896 26.6249 28.6257V26.4534C29.0097 26.0295 31.1514 25.1821 32.8638 24.1068C33.5986 23.6455 34.2811 23.1233 34.8749 22.5553V24.126C34.8749 26.3609 33.2999 28.1642 31.2327 29.3455C29.8306 30.1467 28.1047 30.7278 26.2014 31.0254ZM28.0502 12.2712C27.6365 12.478 27.1572 12.6609 26.6249 12.8112V9.12575C26.6249 8.88935 26.6134 8.65767 26.5911 8.4308C27.1369 8.58275 27.6277 8.76912 28.0501 8.98033C29.2877 9.59915 29.6249 10.2459 29.6249 10.6258C29.6249 11.0056 29.2877 11.6523 28.0502 12.2712Z" fill="#0A244B"/>
</svg>
