<svg width="36" height="37" viewBox="0 0 36 37" fill="none" xmlns="http://www.w3.org/2000/svg">
<path d="M23.4019 2.83568C24.229 2.78389 24.9445 2.87772 25.5274 3.0235C26.8363 3.35086 27.4587 4.61575 27.5039 5.82604C27.5758 7.74667 27.6759 11.1805 27.7011 15.8844C25.2729 15.9524 21.9511 16.2536 19.3993 16.7744C17.3603 17.1905 15.998 19.0727 16.3196 21.1605C16.3982 21.6705 16.5091 22.2252 16.666 22.7887C16.99 23.9524 17.7772 24.7897 18.7366 25.287C18.592 25.4029 18.452 25.5276 18.3178 25.6617C17.4292 26.5503 16.8751 27.7782 16.8751 29.3751C16.8751 29.9964 17.3788 30.5001 18.0001 30.5001C18.6214 30.5001 19.1251 29.9964 19.1251 29.3751C19.1251 28.347 19.4615 27.7001 19.9088 27.2528C20.3855 26.7761 21.0676 26.4501 21.8489 26.2444C22.4594 26.0837 23.0823 26.0093 23.6197 25.9797C24.0907 25.9924 24.5879 25.9998 25.1092 26.0002C25.1214 26.0004 25.1336 26.0004 25.1458 26.0002C25.1478 26.0002 25.1498 26.0002 25.1518 26.0002C25.7731 26.0002 26.2768 25.4965 26.2768 24.8752C26.2768 24.2646 25.7903 23.7675 25.1837 23.7507C25.1699 23.7494 25.1538 23.748 25.1355 23.7466C25.0736 23.7416 24.9866 23.7354 24.878 23.7297C24.6611 23.7183 24.3562 23.7087 23.992 23.7151C23.8666 23.7174 23.7333 23.7214 23.5932 23.7281C22.4702 23.6961 21.5091 23.6333 20.7447 23.567C19.7578 23.4815 19.0384 22.9211 18.8335 22.1852C18.7049 21.7233 18.6112 21.2578 18.5434 20.8179C18.4093 19.9473 18.9553 19.1613 19.8493 18.9789C22.3846 18.4614 25.7792 18.1701 28.0958 18.1254C29.2693 18.7947 30.4412 19.5306 31.2265 20.4937C31.6917 21.0641 32.0283 21.721 32.153 22.496C32.2776 23.2695 32.1871 24.1351 31.8378 25.1179C30.9743 27.5475 30.0166 29.4495 29.1637 30.8715C27.7267 33.2668 25.1657 34.5568 22.4321 34.7759C19.1039 35.0427 15.7499 35.0789 12.4161 34.8687C9.07649 34.6583 6.18621 32.6286 5.38026 29.3234C4.71963 26.6141 4.1263 22.6458 4.12524 17.13C4.12524 12.9308 4.26321 9.62929 4.37537 7.63914C4.45574 6.21289 5.32485 4.84555 6.82688 4.56738C7.39575 4.46203 8.05206 4.39526 8.75384 4.42654C10.3453 4.49746 11.3377 5.90425 11.5021 7.3507C11.6821 8.93321 11.9137 11.2961 12.0787 14.1458C14.4896 13.7318 16.516 13.5359 17.9636 13.4439C18.7288 13.3952 19.3325 13.3756 19.746 13.3681C19.8444 13.3664 19.9319 13.3653 20.0084 13.3647C20.0462 11.4798 20.341 8.18341 20.5569 5.97295C20.7058 4.44759 21.7348 2.94005 23.4019 2.83568Z" fill="white"/>
</svg>
