<svg width="36" height="36" viewBox="0 0 36 36" fill="none" xmlns="http://www.w3.org/2000/svg">
<path d="M22.5 25.4906C22.5 24.8184 22.6664 24.4855 22.8257 24.3058C23.0039 24.1155 23.2257 24 23.625 24C24.0109 24 24.2305 24.1134 24.414 24.3123C24.5791 24.4911 24.75 24.8192 24.75 25.4906C24.75 26.1807 24.5758 26.5123 24.414 26.6877C24.2304 26.8866 24.0109 27 23.625 27C23.2258 27 23.0039 26.8845 22.8257 26.6942C22.6694 26.5178 22.5 26.1811 22.5 25.4906Z" fill="white"/>
<path d="M11.5757 15.3059C11.4164 15.4856 11.25 15.8184 11.25 16.4906C11.25 17.1811 11.4194 17.5178 11.5757 17.6942C11.7539 17.8845 11.9758 18 12.375 18C12.7609 18 12.9804 17.8866 13.164 17.6877C13.3259 17.5124 13.5 17.1807 13.5 16.4906C13.5 15.8192 13.3291 15.4911 13.164 15.3123C12.9805 15.1134 12.7609 15 12.375 15C11.9757 15 11.7539 15.1155 11.5757 15.3059Z" fill="white"/>
<path fill-rule="evenodd" clip-rule="evenodd" d="M19.4394 1.15251C18.5267 0.957668 17.8363 1.73074 17.8111 2.54261C17.743 4.73399 17.3618 7.21525 16.2007 8.74568C15.7864 9.29175 15.0554 9.37695 14.6209 8.9634C13.8299 8.21078 13.223 6.89456 12.7757 5.4739C12.4699 4.50296 11.2834 4.0042 10.418 4.66744C5.98371 8.06625 1.125 13.4869 1.125 20.9361C1.125 25.7302 3.02275 29.2356 6.10896 31.5307C9.18007 33.8146 13.393 34.8754 18 34.8754C22.607 34.8754 26.8199 33.8146 29.891 31.5307C32.9773 29.2356 34.875 25.7302 34.875 20.9361C34.875 15.9828 32.7246 11.9243 29.9848 8.7663C27.2471 5.61077 23.9064 3.33657 21.4798 1.93811C20.8324 1.56503 20.1443 1.30299 19.4394 1.15251ZM23.625 21C22.4636 21 21.4142 21.4119 20.6151 22.2776L20.6038 22.29C19.8082 23.1717 19.5 24.3026 19.5 25.4906C19.5 26.6849 19.805 27.8248 20.6038 28.71L20.6151 28.7224C21.4142 29.5881 22.4636 30 23.625 30C24.7826 30 25.8239 29.5834 26.6186 28.7224C27.435 27.8378 27.75 26.6931 27.75 25.4906C27.75 24.2944 27.4318 23.1587 26.6186 22.2776C25.8239 21.4166 24.7825 21 23.625 21ZM9.3651 13.2776C10.1642 12.4119 11.2135 12 12.375 12C13.5325 12 14.5739 12.4166 15.3685 13.2776C16.1818 14.1587 16.5 15.2944 16.5 16.4906C16.5 17.6931 16.185 18.8377 15.3685 19.7224C14.5739 20.5834 13.5325 21 12.375 21C11.2135 21 10.1642 20.5881 9.3651 19.7224L9.35378 19.71C8.55502 18.8249 8.25 17.6849 8.25 16.4906C8.25 15.3026 8.55817 14.1717 9.35378 13.29L9.3651 13.2776ZM25.0606 16.0606C25.6465 15.4749 25.6465 14.5251 25.0606 13.9394C24.4749 13.3535 23.5251 13.3535 22.9394 13.9394L10.9394 25.9394C10.3535 26.5251 10.3535 27.4749 10.9394 28.0606C11.5251 28.6465 12.4749 28.6465 13.0606 28.0606L25.0606 16.0606Z" fill="white"/>
</svg>
