<svg width="36" height="36" viewBox="0 0 36 36" fill="none" xmlns="http://www.w3.org/2000/svg">
<path d="M22.1219 1.125C20.3307 1.125 18.6345 1.34055 17.0347 1.77367L17.0324 1.77431C15.462 2.21036 14.0671 2.90258 12.852 3.8528C11.6674 4.77448 10.7321 5.96979 10.0442 7.43007C9.3492 8.86958 9.00983 10.5874 9.00983 12.5706C9.00983 13.0747 9.0297 13.6303 9.0693 14.2371L9.06938 14.2386C9.09983 14.6776 9.14183 15.1266 9.19538 15.5857H7.85693C6.72807 15.5857 5.50161 16.1481 5.18719 17.291C5.08051 17.6789 5.01846 18.0818 5.01846 18.5032C5.01846 19.5391 5.26305 20.3738 5.84658 20.9004C5.85057 20.904 5.85464 20.9075 5.85878 20.911C6.40947 21.3664 7.10654 21.5797 7.91738 21.5797H9.83153V21.9992C9.83153 22.022 9.83363 22.0448 9.83775 22.0673C9.87285 22.2571 9.89025 22.4461 9.89025 22.6348C9.89025 24.8237 9.4842 26.4084 8.72933 27.4464C8.23988 28.1195 7.5822 28.7131 6.74759 29.2241C6.23474 29.538 5.71531 29.9365 5.35459 30.4153C4.98902 30.9006 4.76965 31.4943 4.9262 32.1606C5.07915 32.8116 5.39386 33.4408 5.89697 33.9232C5.90241 33.9283 5.90801 33.9334 5.91375 33.9383C6.64903 34.5628 7.51845 34.875 8.50433 34.875H28.1675C29.02 34.875 29.7433 34.6426 30.2971 34.1428C30.3008 34.1394 30.3044 34.136 30.308 34.1325C30.8745 33.5786 31.1252 32.7767 31.1252 31.7986C31.1252 31.4531 31.0903 31.0939 31.0211 30.7375C30.7691 29.4391 29.3975 28.8281 28.1571 28.8281H15.8992C17.216 27.2814 17.8599 25.2397 17.8599 22.7407V22.0522C17.8599 21.8946 17.8541 21.7371 17.8427 21.5797H24.4697C25.3143 21.5797 26.033 21.3692 26.587 20.911C26.5912 20.9075 26.5952 20.904 26.5992 20.9004C27.1828 20.3738 27.4274 19.5391 27.4274 18.5032C27.4274 18.0968 27.3598 17.6876 27.2503 17.2931C26.9339 16.1538 25.7211 15.5857 24.5888 15.5857H17.1888C17.1581 15.1546 17.1275 14.7449 17.0968 14.3568V12.9944C17.0968 10.9313 17.6111 9.5205 18.5554 8.6667C19.5575 7.7961 21.0585 7.33086 23.1197 7.33086C24.2297 7.33086 25.1477 7.45205 25.8829 7.6842C25.8893 7.68622 25.8957 7.6881 25.9022 7.68975C26.0453 7.72665 26.1878 7.76692 26.3298 7.8105C26.9913 8.01367 27.7524 8.13915 28.4259 8.04907C29.1087 7.95772 29.7563 7.63155 30.0431 6.89104C30.2158 6.44519 30.3035 5.9724 30.3035 5.52568C30.3035 4.18387 29.5245 3.1248 28.1207 2.34078C26.7431 1.51406 24.7265 1.125 22.1219 1.125Z" fill="#0A244B"/>
</svg>
