<svg width="36" height="37" viewBox="0 0 36 37" fill="none" xmlns="http://www.w3.org/2000/svg">
<path d="M13.3198 15.2152C13.3198 14.8846 13.3924 14.6445 13.5206 14.4785C13.6513 14.3136 13.815 14.2344 14.0229 14.2344C14.2269 14.2344 14.3894 14.3132 14.5206 14.4791C14.6519 14.645 14.7261 14.8848 14.7261 15.2152C14.7261 15.5509 14.6516 15.7928 14.5206 15.9584C14.3894 16.1243 14.2269 16.2031 14.0229 16.2031C13.815 16.2031 13.6513 16.1239 13.5206 15.959C13.3926 15.7933 13.3198 15.5511 13.3198 15.2152Z" fill="#0A244B"/>
<path d="M21.3956 21.791C21.2674 21.957 21.1948 22.1971 21.1948 22.5277C21.1948 22.8636 21.2676 23.1058 21.3956 23.2715C21.5262 23.4364 21.69 23.5156 21.8979 23.5156C22.1019 23.5156 22.2644 23.4368 22.3956 23.2709C22.5266 23.1053 22.6011 22.8634 22.6011 22.5277C22.6011 22.1973 22.5269 21.9575 22.3956 21.7916C22.2644 21.6257 22.1019 21.5469 21.8979 21.5469C21.69 21.5469 21.5262 21.6261 21.3956 21.791Z" fill="#0A244B"/>
<path fill-rule="evenodd" clip-rule="evenodd" d="M19.0737 2.24811C21.2046 2.08965 25.8817 1.83411 30.9861 2.15129C32.9776 2.27503 34.5597 3.85713 34.6835 5.8486C35.0029 10.9896 34.7415 15.6972 34.5833 17.8066C34.5106 18.776 34.1699 19.7029 33.5718 20.4872C31.7821 22.834 26.6538 29.1055 18.7449 35.0896C17.456 36.0649 15.6351 36.4234 14.0809 35.3934C12.6645 34.4547 10.4832 32.6949 7.38906 29.3944C4.73094 26.5591 3.07314 24.575 2.04888 23.2408C0.705005 21.4903 0.893067 19.2137 2.18707 17.5791C8.13867 10.0611 14.0344 5.10958 16.3107 3.31587C17.1118 2.6845 18.0687 2.32284 19.0737 2.24811ZM27.7105 6.5C26.2607 6.5 25.0854 7.67525 25.0854 9.125C25.0854 10.5747 26.2607 11.75 27.7105 11.75C29.1602 11.75 30.3354 10.5747 30.3354 9.125C30.3354 7.67525 29.1602 6.5 27.7105 6.5ZM14.0229 12.5469C13.3174 12.5469 12.7338 12.7837 12.2853 13.2621L12.2842 13.2632C11.8441 13.7433 11.6323 14.3985 11.6323 15.2108C11.6323 16.0331 11.8438 16.6939 12.2842 17.1743L12.2853 17.1754C12.7338 17.6538 13.3174 17.8906 14.0229 17.8906C14.7199 17.8906 15.2986 17.6534 15.7466 17.1754C16.197 16.6951 16.4136 16.0338 16.4136 15.2108C16.4136 14.3977 16.1967 13.7421 15.7466 13.2621C15.2986 12.7841 14.7199 12.5469 14.0229 12.5469ZM22.9004 13.375C22.6883 13.2652 22.4707 13.278 22.2871 13.344C22.1092 13.4079 21.9545 13.5235 21.8339 13.6418C21.1516 14.311 19.422 16.0124 17.2599 18.1744C15.0978 20.3365 13.3965 22.0661 12.7273 22.7484C12.609 22.869 12.4933 23.0237 12.4294 23.2017C12.3634 23.3852 12.3507 23.6029 12.4604 23.815C12.5153 23.9211 12.5923 24.0306 12.6983 24.1367C12.8043 24.2427 12.9139 24.3196 13.02 24.3745C13.2321 24.4843 13.4497 24.4715 13.6333 24.4056C13.8112 24.3417 13.966 24.226 14.0866 24.1077C14.7688 23.4385 16.4984 21.7371 18.6605 19.5751C20.8226 17.413 22.5239 15.6833 23.1931 15.0011C23.3114 14.8805 23.4271 14.7258 23.491 14.5479C23.557 14.3643 23.5697 14.1467 23.46 13.9346C23.4051 13.8284 23.3282 13.7189 23.2221 13.6129C23.1161 13.5068 23.0065 13.4299 22.9004 13.375ZM20.1603 20.5746C20.6088 20.0962 21.1924 19.8594 21.8979 19.8594C22.5949 19.8594 23.1736 20.0966 23.6216 20.5746C24.0717 21.0546 24.2886 21.7103 24.2886 22.5233C24.2886 23.3463 24.072 24.0076 23.6216 24.4879C23.1736 24.9659 22.5949 25.2031 21.8979 25.2031C21.1924 25.2031 20.6088 24.9663 20.1603 24.4879L20.1592 24.4868C19.7188 24.0063 19.5073 23.3456 19.5073 22.5233C19.5073 21.711 19.7191 21.0558 20.1592 20.5757L20.1603 20.5746Z" fill="#0A244B"/>
</svg>
