<svg xmlns="http://www.w3.org/2000/svg" viewBox="0 0 954 1046.5" style="enable-background:new 0 0 954 1046.5" xml:space="preserve"><path d="M739.3 204.9c8.5 21.5 13.5 44.4 13.5 68.2 0 47.6-7.3 92.9-20.2 134.5-7.9 2.9-15.8 5.5-23.8 8.1v.8c-.1 2.5-.2 5-.4 7.5l-1.2 15.4-1.6 16-1 8.2-2.3 16.8-1.4 8.5-3.1 17.3-1.8 8.7-3.9 17.6c-12 50.6-31 102.2-58.3 144.5l-4.6-.9c7.7 1.4 16.6 3.4 26.7 5.9 33.4 8.4 66.8 20.8 98.2 37.9 29.3 15.7 55.9 36 78.7 60.2 44.4 47.8 84 124.6 119.6 230.7.9 2.8 1.4 5.7 1.4 8.6 0 14.8-12.2 27-27 27-11.6 0-21.9-7.5-25.6-18.4-33.5-99.5-69.8-169.9-108-211.1-18.9-19.9-40.8-36.6-65.1-49.5-27-14.5-55.8-25.6-85.5-33l-12.3-2.9-10.5-2.2-8.6-1.5-6.5-.9c-3.3-.3-6.6-1.3-9.5-2.8-31.5 29.8-70.5 48.6-118.3 48.6s-86.8-18.7-118.3-48.6c-3 1.5-6.2 2.5-9.5 2.9l-6.5.8-8.6 1.5-10.5 2.2-12.3 2.9c-29.3 7.4-58.5 18.2-85.5 33-24.2 12.9-46.2 29.6-65.1 49.5-38.2 41.2-74.6 111.7-108 211.1-3.7 10.9-14 18.4-25.6 18.4-14.8 0-27-12.2-27-27 0-2.9.5-5.8 1.4-8.6 35.8-106 75.3-182.8 119.7-230.6 22.8-24.2 49.4-44.5 78.7-60.2 31.4-17.1 64.8-29.5 98.2-37.9 7.6-1.9 14.5-3.5 20.7-4.8l1.4-.3c-27.4-42.3-46.3-94-58.4-144.6l-4-17.6-3.3-17.4-1.5-8.6-2.6-16.9-1.1-8.4-1.9-16.3c-.3-2.6-.5-5.3-.7-7.9l-1.1-15.5-.4-8.2c-8-2.6-15.9-5.3-23.8-8.1-13.5-43.6-20.3-88.9-20.2-134.5 0-20.4 3.7-40.1 10.1-58.9l3.4-9.3L293 329c113.8 43 239.1 44.8 354.1 5l13.7-5 78.5-124.1zm-85.1 225.9-14.1 3.7c-41.8 9.3-83.9 14.9-125.7 16.9-8.3 1-16.7 1.7-25.1 2l-12.6.2c-11.8-.1-23.5-.8-35.2-2.2-36-1.6-71.6-5.9-106.6-12.6l-20.9-4.3-14.1-3.7c9.5 147.4 77.3 281.9 170.9 287.6l6.2.2c96.8.1 167.4-137.1 177.2-287.8zM477 0c36.7 0 71.9 5.1 104.9 14.3l14 4.1 44.8 68.9c28.4 15.8 53.6 36.8 74.3 61.9l7.2 9.2-86.9 135.8c-10 3.4-20.1 6.3-30.2 9l-15.3 3.7 39.9-134.3-45.7-12.5-46.3 156.1c-8.2 1-16.3 1.8-24.6 2.4l-12.3.8h-47.5c-8.2-.4-16.4-1-24.6-1.8l-12.3-1.4-46.3-156.1-45.7 12.6L364.2 307c-10.2-2.4-20.4-5-30.4-8l-15-4.8-86.9-135.9c19.3-25.8 43.2-47.7 70.6-64.6l10.8-6.5 44.8-68.9C396.6 6.2 436.7 0 477 0z" style="fill:#09c5d6"/></svg>