<svg width="12" height="12" viewBox="0 0 12 12" fill="none" xmlns="http://www.w3.org/2000/svg">
<path fill-rule="evenodd" clip-rule="evenodd" d="M6.08547 6.09107C6.03817 6.13325 5.96697 6.1333 5.91959 6.0912C5.56784 5.77855 4.13537 4.50392 2.33712 2.88585C2.06142 2.63777 1.69031 2.49099 1.35919 2.65805C1.21258 2.73202 1.04935 2.84067 0.886132 3.00025C0.696147 3.18602 0.576749 3.37175 0.501714 3.53185C0.367067 3.81915 0.473229 4.1392 0.668769 4.38905C2.03163 6.13042 3.98494 7.84975 5.11059 8.78332C5.63102 9.21497 6.37424 9.21507 6.89472 8.78347C8.02057 7.84982 9.97382 6.13017 11.3324 4.3885C11.527 4.13907 11.6325 3.81995 11.4985 3.53337C11.4235 3.37292 11.304 3.1866 11.1134 3.00027C10.9503 2.8408 10.7872 2.73215 10.6407 2.65817C10.3095 2.49091 9.93812 2.63767 9.66234 2.88592C7.86499 4.50372 6.43642 5.77822 6.08547 6.09107Z" fill="#0A244B"/>
</svg>
